0, 0, Header, 1, 5, 192
1, 0, Start_track
1, 0, Title_t, "DINOSAUR_-_AKMU"
1, 0, Tempo, 495867
1, 0, Key_signature, 2, "major"
1, 0, Time_signature, 4, 2, 24, 8
1, 0, End_track
2, 0, Start_track
2, 0, MIDI_port, 0
2, 0, Title_t, "Right Hand"
2, 0, Program_c, 0, 0
2, 0, Pitch_bend_c, 0, 8192
2, 0, Control_c, 0, 7, 127
2, 0, Control_c, 0, 10, 64
2, 0, Note_on_c, 0, 86, 110
2, 1104, Note_on_c, 0, 86, 0
2, 1152, Note_on_c, 0, 88, 110
2, 1408, Note_on_c, 0, 88, 0
2, 1440, Note_on_c, 0, 78, 110
2, 1534, Note_on_c, 0, 78, 0
2, 1536, Note_on_c, 0, 81, 110
2, 1536, Note_on_c, 0, 83, 110
2, 2640, Note_on_c, 0, 81, 0
2, 2640, Note_on_c, 0, 83, 0
2, 2688, Note_on_c, 0, 93, 110
2, 2944, Note_on_c, 0, 93, 0
2, 2976, Note_on_c, 0, 78, 110
2, 3070, Note_on_c, 0, 78, 0
2, 3072, Note_on_c, 0, 81, 110
2, 3408, Note_on_c, 0, 81, 0
2, 3552, Note_on_c, 0, 79, 110
2, 3646, Note_on_c, 0, 79, 0
2, 3648, Note_on_c, 0, 78, 110
2, 3742, Note_on_c, 0, 78, 0
2, 3744, Note_on_c, 0, 76, 110
2, 4176, Note_on_c, 0, 76, 0
2, 4416, Note_on_c, 0, 62, 110
2, 4510, Note_on_c, 0, 62, 0
2, 4512, Note_on_c, 0, 64, 110
2, 4606, Note_on_c, 0, 64, 0
2, 4608, Note_on_c, 0, 66, 110
2, 4702, Note_on_c, 0, 66, 0
2, 4704, Note_on_c, 0, 64, 110
2, 4798, Note_on_c, 0, 64, 0
2, 4800, Note_on_c, 0, 62, 110
2, 4894, Note_on_c, 0, 62, 0
2, 4896, Note_on_c, 0, 59, 110
2, 4990, Note_on_c, 0, 59, 0
2, 5760, Note_on_c, 0, 66, 110
2, 5854, Note_on_c, 0, 66, 0
2, 5856, Note_on_c, 0, 64, 110
2, 5950, Note_on_c, 0, 64, 0
2, 5952, Note_on_c, 0, 62, 110
2, 6046, Note_on_c, 0, 62, 0
2, 6048, Note_on_c, 0, 59, 110
2, 6142, Note_on_c, 0, 59, 0
2, 6144, Note_on_c, 0, 66, 110
2, 6238, Note_on_c, 0, 66, 0
2, 6240, Note_on_c, 0, 69, 110
2, 6334, Note_on_c, 0, 69, 0
2, 6336, Note_on_c, 0, 66, 110
2, 6430, Note_on_c, 0, 66, 0
2, 6432, Note_on_c, 0, 69, 110
2, 6526, Note_on_c, 0, 69, 0
2, 6528, Note_on_c, 0, 66, 110
2, 6864, Note_on_c, 0, 66, 0
2, 7488, Note_on_c, 0, 62, 110
2, 7582, Note_on_c, 0, 62, 0
2, 7584, Note_on_c, 0, 64, 110
2, 7678, Note_on_c, 0, 64, 0
2, 7680, Note_on_c, 0, 66, 110
2, 7774, Note_on_c, 0, 66, 0
2, 7776, Note_on_c, 0, 64, 110
2, 7870, Note_on_c, 0, 64, 0
2, 7872, Note_on_c, 0, 62, 110
2, 7966, Note_on_c, 0, 62, 0
2, 7968, Note_on_c, 0, 59, 110
2, 8062, Note_on_c, 0, 59, 0
2, 8832, Note_on_c, 0, 66, 110
2, 8926, Note_on_c, 0, 66, 0
2, 8928, Note_on_c, 0, 64, 110
2, 9022, Note_on_c, 0, 64, 0
2, 9024, Note_on_c, 0, 62, 110
2, 9118, Note_on_c, 0, 62, 0
2, 9120, Note_on_c, 0, 59, 110
2, 9214, Note_on_c, 0, 59, 0
2, 9216, Note_on_c, 0, 66, 110
2, 9310, Note_on_c, 0, 66, 0
2, 9312, Note_on_c, 0, 69, 110
2, 9406, Note_on_c, 0, 69, 0
2, 9408, Note_on_c, 0, 66, 110
2, 9502, Note_on_c, 0, 66, 0
2, 9504, Note_on_c, 0, 69, 110
2, 9598, Note_on_c, 0, 69, 0
2, 9600, Note_on_c, 0, 66, 110
2, 9936, Note_on_c, 0, 66, 0
2, 10464, Note_on_c, 0, 62, 110
2, 10558, Note_on_c, 0, 62, 0
2, 10560, Note_on_c, 0, 69, 110
2, 10654, Note_on_c, 0, 69, 0
2, 10656, Note_on_c, 0, 67, 110
2, 10846, Note_on_c, 0, 67, 0
2, 10848, Note_on_c, 0, 66, 110
2, 10942, Note_on_c, 0, 66, 0
2, 10944, Note_on_c, 0, 64, 110
2, 11038, Note_on_c, 0, 64, 0
2, 11040, Note_on_c, 0, 62, 110
2, 11134, Note_on_c, 0, 62, 0
2, 11328, Note_on_c, 0, 62, 110
2, 11374, Note_on_c, 0, 62, 0
2, 11376, Note_on_c, 0, 64, 110
2, 11470, Note_on_c, 0, 64, 0
2, 11472, Note_on_c, 0, 64, 110
2, 11614, Note_on_c, 0, 64, 0
2, 11616, Note_on_c, 0, 64, 110
2, 11710, Note_on_c, 0, 64, 0
2, 11712, Note_on_c, 0, 64, 110
2, 11806, Note_on_c, 0, 64, 0
2, 11808, Note_on_c, 0, 66, 110
2, 11902, Note_on_c, 0, 66, 0
2, 11904, Note_on_c, 0, 57, 110
2, 12064, Note_on_c, 0, 57, 0
2, 12480, Note_on_c, 0, 62, 110
2, 12526, Note_on_c, 0, 62, 0
2, 12528, Note_on_c, 0, 64, 110
2, 12622, Note_on_c, 0, 64, 0
2, 12624, Note_on_c, 0, 64, 110
2, 12814, Note_on_c, 0, 64, 0
2, 12816, Note_on_c, 0, 64, 110
2, 12862, Note_on_c, 0, 64, 0
2, 12864, Note_on_c, 0, 64, 110
2, 12958, Note_on_c, 0, 64, 0
2, 12960, Note_on_c, 0, 64, 110
2, 13054, Note_on_c, 0, 64, 0
2, 13056, Note_on_c, 0, 64, 110
2, 13198, Note_on_c, 0, 64, 0
2, 13200, Note_on_c, 0, 64, 110
2, 13246, Note_on_c, 0, 64, 0
2, 13248, Note_on_c, 0, 64, 110
2, 13342, Note_on_c, 0, 64, 0
2, 13344, Note_on_c, 0, 66, 110
2, 13438, Note_on_c, 0, 66, 0
2, 13440, Note_on_c, 0, 57, 110
2, 13600, Note_on_c, 0, 57, 0
2, 13824, Note_on_c, 0, 57, 110
2, 13966, Note_on_c, 0, 57, 0
2, 13968, Note_on_c, 0, 59, 110
2, 14110, Note_on_c, 0, 59, 0
2, 14112, Note_on_c, 0, 62, 110
2, 14254, Note_on_c, 0, 62, 0
2, 14256, Note_on_c, 0, 64, 110
2, 14398, Note_on_c, 0, 64, 0
2, 14400, Note_on_c, 0, 66, 110
2, 14494, Note_on_c, 0, 66, 0
2, 14496, Note_on_c, 0, 64, 110
2, 14590, Note_on_c, 0, 64, 0
2, 14592, Note_on_c, 0, 69, 110
2, 14734, Note_on_c, 0, 69, 0
2, 14736, Note_on_c, 0, 71, 110
2, 14878, Note_on_c, 0, 71, 0
2, 14880, Note_on_c, 0, 74, 110
2, 15022, Note_on_c, 0, 74, 0
2, 15024, Note_on_c, 0, 76, 110
2, 15166, Note_on_c, 0, 76, 0
2, 15168, Note_on_c, 0, 78, 110
2, 15262, Note_on_c, 0, 78, 0
2, 15264, Note_on_c, 0, 76, 110
2, 15358, Note_on_c, 0, 76, 0
2, 15360, Note_on_c, 0, 57, 110
2, 15454, Note_on_c, 0, 57, 0
2, 15456, Note_on_c, 0, 59, 110
2, 15502, Note_on_c, 0, 59, 0
2, 15504, Note_on_c, 0, 62, 110
2, 15598, Note_on_c, 0, 62, 0
2, 15600, Note_on_c, 0, 62, 110
2, 15646, Note_on_c, 0, 62, 0
2, 15648, Note_on_c, 0, 64, 110
2, 15790, Note_on_c, 0, 64, 0
2, 15792, Note_on_c, 0, 64, 110
2, 15934, Note_on_c, 0, 64, 0
2, 15936, Note_on_c, 0, 66, 110
2, 16030, Note_on_c, 0, 66, 0
2, 16032, Note_on_c, 0, 64, 110
2, 16126, Note_on_c, 0, 64, 0
2, 16128, Note_on_c, 0, 69, 110
2, 16270, Note_on_c, 0, 69, 0
2, 16272, Note_on_c, 0, 71, 110
2, 16414, Note_on_c, 0, 71, 0
2, 16416, Note_on_c, 0, 74, 110
2, 16558, Note_on_c, 0, 74, 0
2, 16560, Note_on_c, 0, 76, 110
2, 16702, Note_on_c, 0, 76, 0
2, 16704, Note_on_c, 0, 78, 110
2, 16798, Note_on_c, 0, 78, 0
2, 16800, Note_on_c, 0, 76, 110
2, 16894, Note_on_c, 0, 76, 0
2, 16896, Note_on_c, 0, 62, 110
2, 16990, Note_on_c, 0, 62, 0
2, 16992, Note_on_c, 0, 64, 110
2, 17086, Note_on_c, 0, 64, 0
2, 17088, Note_on_c, 0, 66, 110
2, 17248, Note_on_c, 0, 66, 0
2, 17280, Note_on_c, 0, 62, 110
2, 17440, Note_on_c, 0, 62, 0
2, 17472, Note_on_c, 0, 67, 110
2, 17566, Note_on_c, 0, 67, 0
2, 17568, Note_on_c, 0, 66, 110
2, 17662, Note_on_c, 0, 66, 0
2, 17664, Note_on_c, 0, 62, 110
2, 17758, Note_on_c, 0, 62, 0
2, 17760, Note_on_c, 0, 64, 110
2, 17854, Note_on_c, 0, 64, 0
2, 17856, Note_on_c, 0, 64, 110
2, 18016, Note_on_c, 0, 64, 0
2, 18048, Note_on_c, 0, 62, 110
2, 18208, Note_on_c, 0, 62, 0
2, 18240, Note_on_c, 0, 67, 110
2, 18334, Note_on_c, 0, 67, 0
2, 18336, Note_on_c, 0, 66, 110
2, 18430, Note_on_c, 0, 66, 0
2, 18432, Note_on_c, 0, 62, 110
2, 18592, Note_on_c, 0, 62, 0
2, 18624, Note_on_c, 0, 67, 110
2, 18718, Note_on_c, 0, 67, 0
2, 18720, Note_on_c, 0, 66, 110
2, 18814, Note_on_c, 0, 66, 0
2, 18816, Note_on_c, 0, 62, 110
2, 18976, Note_on_c, 0, 62, 0
2, 19008, Note_on_c, 0, 67, 110
2, 19102, Note_on_c, 0, 67, 0
2, 19104, Note_on_c, 0, 66, 110
2, 19198, Note_on_c, 0, 66, 0
2, 19200, Note_on_c, 0, 62, 110
2, 19294, Note_on_c, 0, 62, 0
2, 19296, Note_on_c, 0, 64, 110
2, 19390, Note_on_c, 0, 64, 0
2, 19392, Note_on_c, 0, 64, 110
2, 19552, Note_on_c, 0, 64, 0
2, 19584, Note_on_c, 0, 62, 110
2, 19744, Note_on_c, 0, 62, 0
2, 19776, Note_on_c, 0, 62, 110
2, 19936, Note_on_c, 0, 62, 0
2, 19968, Note_on_c, 0, 69, 110
2, 20110, Note_on_c, 0, 69, 0
2, 20112, Note_on_c, 0, 69, 110
2, 20158, Note_on_c, 0, 69, 0
2, 20160, Note_on_c, 0, 69, 110
2, 20254, Note_on_c, 0, 69, 0
2, 20256, Note_on_c, 0, 69, 110
2, 20608, Note_on_c, 0, 69, 0
2, 20640, Note_on_c, 0, 62, 110
2, 20734, Note_on_c, 0, 62, 0
2, 20736, Note_on_c, 0, 69, 110
2, 20878, Note_on_c, 0, 69, 0
2, 20880, Note_on_c, 0, 69, 110
2, 20926, Note_on_c, 0, 69, 0
2, 20928, Note_on_c, 0, 69, 110
2, 21022, Note_on_c, 0, 69, 0
2, 21024, Note_on_c, 0, 69, 110
2, 21376, Note_on_c, 0, 69, 0
2, 21408, Note_on_c, 0, 62, 110
2, 21502, Note_on_c, 0, 62, 0
2, 21504, Note_on_c, 0, 69, 110
2, 21646, Note_on_c, 0, 69, 0
2, 21648, Note_on_c, 0, 69, 110
2, 21694, Note_on_c, 0, 69, 0
2, 21696, Note_on_c, 0, 69, 110
2, 21790, Note_on_c, 0, 69, 0
2, 21792, Note_on_c, 0, 69, 110
2, 22048, Note_on_c, 0, 69, 0
2, 22656, Note_on_c, 0, 64, 110
2, 22656, Note_on_c, 0, 76, 110
2, 22750, Note_on_c, 0, 64, 0
2, 22750, Note_on_c, 0, 76, 0
2, 22752, Note_on_c, 0, 62, 110
2, 22752, Note_on_c, 0, 74, 110
2, 22846, Note_on_c, 0, 62, 0
2, 22846, Note_on_c, 0, 74, 0
2, 22848, Note_on_c, 0, 62, 110
2, 22848, Note_on_c, 0, 74, 110
2, 23008, Note_on_c, 0, 62, 0
2, 23008, Note_on_c, 0, 74, 0
2, 23040, Note_on_c, 0, 74, 110
2, 23134, Note_on_c, 0, 74, 0
2, 23136, Note_on_c, 0, 76, 110
2, 23488, Note_on_c, 0, 76, 0
2, 23520, Note_on_c, 0, 74, 110
2, 23614, Note_on_c, 0, 74, 0
2, 23616, Note_on_c, 0, 79, 110
2, 23710, Note_on_c, 0, 79, 0
2, 23712, Note_on_c, 0, 76, 110
2, 23806, Note_on_c, 0, 76, 0
2, 23808, Note_on_c, 0, 76, 110
2, 23968, Note_on_c, 0, 76, 0
2, 24096, Note_on_c, 0, 69, 110
2, 24190, Note_on_c, 0, 69, 0
2, 24192, Note_on_c, 0, 81, 110
2, 24286, Note_on_c, 0, 81, 0
2, 24288, Note_on_c, 0, 79, 110
2, 24382, Note_on_c, 0, 79, 0
2, 24384, Note_on_c, 0, 78, 110
2, 24478, Note_on_c, 0, 78, 0
2, 24480, Note_on_c, 0, 76, 110
2, 24574, Note_on_c, 0, 76, 0
2, 24576, Note_on_c, 0, 76, 110
2, 24832, Note_on_c, 0, 76, 0
2, 24864, Note_on_c, 0, 74, 110
2, 24958, Note_on_c, 0, 74, 0
2, 24960, Note_on_c, 0, 81, 110
2, 25054, Note_on_c, 0, 81, 0
2, 25056, Note_on_c, 0, 79, 110
2, 25150, Note_on_c, 0, 79, 0
2, 25152, Note_on_c, 0, 78, 110
2, 25246, Note_on_c, 0, 78, 0
2, 25248, Note_on_c, 0, 76, 110
2, 25342, Note_on_c, 0, 76, 0
2, 25344, Note_on_c, 0, 76, 110
2, 25504, Note_on_c, 0, 76, 0
2, 25728, Note_on_c, 0, 64, 110
2, 25728, Note_on_c, 0, 76, 110
2, 25822, Note_on_c, 0, 64, 0
2, 25822, Note_on_c, 0, 76, 0
2, 25824, Note_on_c, 0, 62, 110
2, 25824, Note_on_c, 0, 74, 110
2, 25918, Note_on_c, 0, 62, 0
2, 25918, Note_on_c, 0, 74, 0
2, 25920, Note_on_c, 0, 62, 110
2, 25920, Note_on_c, 0, 74, 110
2, 26080, Note_on_c, 0, 62, 0
2, 26080, Note_on_c, 0, 74, 0
2, 26112, Note_on_c, 0, 74, 110
2, 26206, Note_on_c, 0, 74, 0
2, 26208, Note_on_c, 0, 76, 110
2, 26560, Note_on_c, 0, 76, 0
2, 26592, Note_on_c, 0, 74, 110
2, 26686, Note_on_c, 0, 74, 0
2, 26688, Note_on_c, 0, 79, 110
2, 26782, Note_on_c, 0, 79, 0
2, 26784, Note_on_c, 0, 76, 110
2, 26878, Note_on_c, 0, 76, 0
2, 26880, Note_on_c, 0, 76, 110
2, 27040, Note_on_c, 0, 76, 0
2, 27168, Note_on_c, 0, 69, 110
2, 27262, Note_on_c, 0, 69, 0
2, 27264, Note_on_c, 0, 81, 110
2, 27358, Note_on_c, 0, 81, 0
2, 27360, Note_on_c, 0, 79, 110
2, 27454, Note_on_c, 0, 79, 0
2, 27456, Note_on_c, 0, 78, 110
2, 27550, Note_on_c, 0, 78, 0
2, 27552, Note_on_c, 0, 76, 110
2, 27646, Note_on_c, 0, 76, 0
2, 27648, Note_on_c, 0, 76, 110
2, 27904, Note_on_c, 0, 76, 0
2, 27936, Note_on_c, 0, 74, 110
2, 28030, Note_on_c, 0, 74, 0
2, 28032, Note_on_c, 0, 81, 110
2, 28126, Note_on_c, 0, 81, 0
2, 28128, Note_on_c, 0, 79, 110
2, 28222, Note_on_c, 0, 79, 0
2, 28224, Note_on_c, 0, 78, 110
2, 28318, Note_on_c, 0, 78, 0
2, 28320, Note_on_c, 0, 76, 110
2, 28414, Note_on_c, 0, 76, 0
2, 28416, Note_on_c, 0, 76, 110
2, 28576, Note_on_c, 0, 76, 0
2, 28608, Note_on_c, 0, 88, 110
2, 28702, Note_on_c, 0, 88, 0
2, 28704, Note_on_c, 0, 86, 110
2, 28798, Note_on_c, 0, 86, 0
2, 28896, Note_on_c, 0, 86, 110
2, 28990, Note_on_c, 0, 86, 0
2, 28992, Note_on_c, 0, 88, 110
2, 29086, Note_on_c, 0, 88, 0
2, 29088, Note_on_c, 0, 86, 110
2, 29182, Note_on_c, 0, 86, 0
2, 29376, Note_on_c, 0, 66, 110
2, 29376, Note_on_c, 0, 74, 110
2, 29470, Note_on_c, 0, 66, 0
2, 29470, Note_on_c, 0, 74, 0
2, 29472, Note_on_c, 0, 67, 110
2, 29472, Note_on_c, 0, 76, 110
2, 29566, Note_on_c, 0, 67, 0
2, 29566, Note_on_c, 0, 76, 0
2, 29568, Note_on_c, 0, 69, 110
2, 29568, Note_on_c, 0, 78, 110
2, 29824, Note_on_c, 0, 69, 0
2, 29824, Note_on_c, 0, 78, 0
2, 29856, Note_on_c, 0, 69, 110
2, 29856, Note_on_c, 0, 78, 110
2, 29950, Note_on_c, 0, 69, 0
2, 29950, Note_on_c, 0, 78, 0
2, 29952, Note_on_c, 0, 64, 110
2, 29952, Note_on_c, 0, 73, 110
2, 30046, Note_on_c, 0, 64, 0
2, 30046, Note_on_c, 0, 73, 0
2, 30048, Note_on_c, 0, 64, 110
2, 30048, Note_on_c, 0, 73, 110
2, 30142, Note_on_c, 0, 64, 0
2, 30142, Note_on_c, 0, 73, 0
2, 30144, Note_on_c, 0, 64, 110
2, 30144, Note_on_c, 0, 73, 110
2, 30304, Note_on_c, 0, 64, 0
2, 30304, Note_on_c, 0, 73, 0
2, 30336, Note_on_c, 0, 71, 110
2, 30336, Note_on_c, 0, 79, 110
2, 30478, Note_on_c, 0, 71, 0
2, 30478, Note_on_c, 0, 79, 0
2, 30480, Note_on_c, 0, 69, 110
2, 30480, Note_on_c, 0, 78, 110
2, 30526, Note_on_c, 0, 69, 0
2, 30526, Note_on_c, 0, 78, 0
2, 30528, Note_on_c, 0, 69, 110
2, 30622, Note_on_c, 0, 69, 0
2, 30624, Note_on_c, 0, 62, 110
2, 30624, Note_on_c, 0, 71, 110
2, 30718, Note_on_c, 0, 62, 0
2, 30718, Note_on_c, 0, 71, 0
2, 30720, Note_on_c, 0, 62, 110
2, 30976, Note_on_c, 0, 62, 0
2, 31008, Note_on_c, 0, 66, 110
2, 31008, Note_on_c, 0, 74, 110
2, 31102, Note_on_c, 0, 66, 0
2, 31102, Note_on_c, 0, 74, 0
2, 31104, Note_on_c, 0, 66, 110
2, 31264, Note_on_c, 0, 66, 0
2, 31296, Note_on_c, 0, 86, 110
2, 31456, Note_on_c, 0, 86, 0
2, 31488, Note_on_c, 0, 78, 110
2, 31630, Note_on_c, 0, 78, 0
2, 31632, Note_on_c, 0, 78, 110
2, 31774, Note_on_c, 0, 78, 0
2, 31776, Note_on_c, 0, 86, 110
2, 32208, Note_on_c, 0, 86, 0
2, 32448, Note_on_c, 0, 66, 110
2, 32448, Note_on_c, 0, 74, 110
2, 32542, Note_on_c, 0, 66, 0
2, 32542, Note_on_c, 0, 74, 0
2, 32544, Note_on_c, 0, 67, 110
2, 32544, Note_on_c, 0, 76, 110
2, 32638, Note_on_c, 0, 67, 0
2, 32638, Note_on_c, 0, 76, 0
2, 32640, Note_on_c, 0, 69, 110
2, 32640, Note_on_c, 0, 78, 110
2, 32896, Note_on_c, 0, 69, 0
2, 32896, Note_on_c, 0, 78, 0
2, 32928, Note_on_c, 0, 69, 110
2, 32928, Note_on_c, 0, 78, 110
2, 33022, Note_on_c, 0, 69, 0
2, 33022, Note_on_c, 0, 78, 0
2, 33024, Note_on_c, 0, 64, 110
2, 33024, Note_on_c, 0, 73, 110
2, 33118, Note_on_c, 0, 64, 0
2, 33118, Note_on_c, 0, 73, 0
2, 33120, Note_on_c, 0, 64, 110
2, 33120, Note_on_c, 0, 73, 110
2, 33214, Note_on_c, 0, 64, 0
2, 33214, Note_on_c, 0, 73, 0
2, 33216, Note_on_c, 0, 64, 110
2, 33216, Note_on_c, 0, 73, 110
2, 33376, Note_on_c, 0, 64, 0
2, 33376, Note_on_c, 0, 73, 0
2, 33408, Note_on_c, 0, 71, 110
2, 33408, Note_on_c, 0, 79, 110
2, 33550, Note_on_c, 0, 71, 0
2, 33550, Note_on_c, 0, 79, 0
2, 33552, Note_on_c, 0, 69, 110
2, 33552, Note_on_c, 0, 78, 110
2, 33598, Note_on_c, 0, 69, 0
2, 33598, Note_on_c, 0, 78, 0
2, 33600, Note_on_c, 0, 69, 110
2, 33694, Note_on_c, 0, 69, 0
2, 33696, Note_on_c, 0, 62, 110
2, 33696, Note_on_c, 0, 71, 110
2, 33790, Note_on_c, 0, 62, 0
2, 33790, Note_on_c, 0, 71, 0
2, 33792, Note_on_c, 0, 62, 110
2, 34048, Note_on_c, 0, 62, 0
2, 34080, Note_on_c, 0, 66, 110
2, 34080, Note_on_c, 0, 74, 110
2, 34336, Note_on_c, 0, 66, 0
2, 34336, Note_on_c, 0, 74, 0
2, 34368, Note_on_c, 0, 86, 110
2, 34528, Note_on_c, 0, 86, 0
2, 34528, End_track
3, 0, Start_track
3, 0, MIDI_port, 0
3, 0, Title_t, "Left Hand"
3, 0, Control_c, 0, 7, 127
3, 0, Control_c, 0, 10, 64
3, 0, Note_on_c, 0, 55, 110
3, 0, Note_on_c, 0, 62, 110
3, 142, Note_on_c, 0, 55, 0
3, 142, Note_on_c, 0, 62, 0
3, 144, Note_on_c, 0, 55, 110
3, 144, Note_on_c, 0, 62, 110
3, 286, Note_on_c, 0, 55, 0
3, 286, Note_on_c, 0, 62, 0
3, 288, Note_on_c, 0, 55, 110
3, 288, Note_on_c, 0, 62, 110
3, 720, Note_on_c, 0, 55, 0
3, 720, Note_on_c, 0, 62, 0
3, 768, Note_on_c, 0, 57, 110
3, 768, Note_on_c, 0, 61, 110
3, 910, Note_on_c, 0, 57, 0
3, 910, Note_on_c, 0, 61, 0
3, 912, Note_on_c, 0, 57, 110
3, 912, Note_on_c, 0, 61, 110
3, 1054, Note_on_c, 0, 57, 0
3, 1054, Note_on_c, 0, 61, 0
3, 1056, Note_on_c, 0, 57, 110
3, 1056, Note_on_c, 0, 61, 110
3, 1488, Note_on_c, 0, 57, 0
3, 1488, Note_on_c, 0, 61, 0
3, 1536, Note_on_c, 0, 59, 110
3, 1536, Note_on_c, 0, 62, 110
3, 1678, Note_on_c, 0, 59, 0
3, 1678, Note_on_c, 0, 62, 0
3, 1680, Note_on_c, 0, 59, 110
3, 1680, Note_on_c, 0, 62, 110
3, 1822, Note_on_c, 0, 59, 0
3, 1822, Note_on_c, 0, 62, 0
3, 1824, Note_on_c, 0, 59, 110
3, 1824, Note_on_c, 0, 62, 110
3, 2256, Note_on_c, 0, 59, 0
3, 2256, Note_on_c, 0, 62, 0
3, 2304, Note_on_c, 0, 61, 110
3, 2326, Note_on_c, 0, 61, 0
3, 2328, Note_on_c, 0, 59, 110
3, 2328, Note_on_c, 0, 62, 110
3, 2446, Note_on_c, 0, 59, 0
3, 2446, Note_on_c, 0, 62, 0
3, 2448, Note_on_c, 0, 59, 110
3, 2448, Note_on_c, 0, 62, 110
3, 2590, Note_on_c, 0, 59, 0
3, 2590, Note_on_c, 0, 62, 0
3, 2592, Note_on_c, 0, 59, 110
3, 2592, Note_on_c, 0, 62, 110
3, 2782, Note_on_c, 0, 59, 0
3, 2782, Note_on_c, 0, 62, 0
3, 2784, Note_on_c, 0, 62, 110
3, 2784, Note_on_c, 0, 66, 110
3, 3040, Note_on_c, 0, 62, 0
3, 3040, Note_on_c, 0, 66, 0
3, 3072, Note_on_c, 0, 55, 110
3, 3072, Note_on_c, 0, 62, 110
3, 3214, Note_on_c, 0, 55, 0
3, 3214, Note_on_c, 0, 62, 0
3, 3216, Note_on_c, 0, 55, 110
3, 3216, Note_on_c, 0, 62, 110
3, 3358, Note_on_c, 0, 55, 0
3, 3358, Note_on_c, 0, 62, 0
3, 3360, Note_on_c, 0, 55, 110
3, 3360, Note_on_c, 0, 62, 110
3, 3792, Note_on_c, 0, 55, 0
3, 3792, Note_on_c, 0, 62, 0
3, 3840, Note_on_c, 0, 57, 110
3, 3840, Note_on_c, 0, 61, 110
3, 3982, Note_on_c, 0, 57, 0
3, 3982, Note_on_c, 0, 61, 0
3, 3984, Note_on_c, 0, 57, 110
3, 3984, Note_on_c, 0, 61, 110
3, 4126, Note_on_c, 0, 57, 0
3, 4126, Note_on_c, 0, 61, 0
3, 4128, Note_on_c, 0, 57, 110
3, 4128, Note_on_c, 0, 61, 110
3, 4560, Note_on_c, 0, 57, 0
3, 4560, Note_on_c, 0, 61, 0
3, 4608, Note_on_c, 0, 43, 110
3, 4608, Note_on_c, 0, 50, 110
3, 4750, Note_on_c, 0, 43, 0
3, 4750, Note_on_c, 0, 50, 0
3, 4752, Note_on_c, 0, 43, 110
3, 4894, Note_on_c, 0, 43, 0
3, 4896, Note_on_c, 0, 50, 110
3, 5038, Note_on_c, 0, 50, 0
3, 5040, Note_on_c, 0, 43, 110
3, 5182, Note_on_c, 0, 43, 0
3, 5184, Note_on_c, 0, 50, 110
3, 5344, Note_on_c, 0, 50, 0
3, 5376, Note_on_c, 0, 45, 110
3, 5376, Note_on_c, 0, 49, 110
3, 5518, Note_on_c, 0, 45, 0
3, 5518, Note_on_c, 0, 49, 0
3, 5520, Note_on_c, 0, 45, 110
3, 5520, Note_on_c, 0, 52, 110
3, 5662, Note_on_c, 0, 45, 0
3, 5662, Note_on_c, 0, 52, 0
3, 5664, Note_on_c, 0, 45, 110
3, 5664, Note_on_c, 0, 49, 110
3, 5806, Note_on_c, 0, 45, 0
3, 5806, Note_on_c, 0, 49, 0
3, 5808, Note_on_c, 0, 45, 110
3, 5808, Note_on_c, 0, 52, 110
3, 5950, Note_on_c, 0, 45, 0
3, 5950, Note_on_c, 0, 52, 0
3, 5952, Note_on_c, 0, 45, 110
3, 5952, Note_on_c, 0, 49, 110
3, 6046, Note_on_c, 0, 45, 0
3, 6046, Note_on_c, 0, 49, 0
3, 6048, Note_on_c, 0, 52, 110
3, 6142, Note_on_c, 0, 52, 0
3, 6144, Note_on_c, 0, 47, 110
3, 6144, Note_on_c, 0, 50, 110
3, 6286, Note_on_c, 0, 47, 0
3, 6286, Note_on_c, 0, 50, 0
3, 6288, Note_on_c, 0, 45, 110
3, 6288, Note_on_c, 0, 54, 110
3, 6430, Note_on_c, 0, 45, 0
3, 6430, Note_on_c, 0, 54, 0
3, 6432, Note_on_c, 0, 47, 110
3, 6432, Note_on_c, 0, 50, 110
3, 6574, Note_on_c, 0, 47, 0
3, 6574, Note_on_c, 0, 50, 0
3, 6576, Note_on_c, 0, 45, 110
3, 6576, Note_on_c, 0, 54, 110
3, 6718, Note_on_c, 0, 45, 0
3, 6718, Note_on_c, 0, 54, 0
3, 6720, Note_on_c, 0, 47, 110
3, 6720, Note_on_c, 0, 50, 110
3, 6880, Note_on_c, 0, 47, 0
3, 6880, Note_on_c, 0, 50, 0
3, 6912, Note_on_c, 0, 47, 110
3, 6912, Note_on_c, 0, 50, 110
3, 7054, Note_on_c, 0, 47, 0
3, 7054, Note_on_c, 0, 50, 0
3, 7056, Note_on_c, 0, 45, 110
3, 7056, Note_on_c, 0, 57, 110
3, 7198, Note_on_c, 0, 45, 0
3, 7198, Note_on_c, 0, 57, 0
3, 7200, Note_on_c, 0, 47, 110
3, 7200, Note_on_c, 0, 50, 110
3, 7342, Note_on_c, 0, 47, 0
3, 7342, Note_on_c, 0, 50, 0
3, 7344, Note_on_c, 0, 45, 110
3, 7344, Note_on_c, 0, 57, 110
3, 7486, Note_on_c, 0, 45, 0
3, 7486, Note_on_c, 0, 57, 0
3, 7488, Note_on_c, 0, 47, 110
3, 7488, Note_on_c, 0, 50, 110
3, 7582, Note_on_c, 0, 47, 0
3, 7582, Note_on_c, 0, 50, 0
3, 7584, Note_on_c, 0, 57, 110
3, 7678, Note_on_c, 0, 57, 0
3, 7680, Note_on_c, 0, 43, 110
3, 7680, Note_on_c, 0, 50, 110
3, 7822, Note_on_c, 0, 43, 0
3, 7822, Note_on_c, 0, 50, 0
3, 7824, Note_on_c, 0, 43, 110
3, 7966, Note_on_c, 0, 43, 0
3, 7968, Note_on_c, 0, 50, 110
3, 8110, Note_on_c, 0, 50, 0
3, 8112, Note_on_c, 0, 43, 110
3, 8254, Note_on_c, 0, 43, 0
3, 8256, Note_on_c, 0, 50, 110
3, 8416, Note_on_c, 0, 50, 0
3, 8448, Note_on_c, 0, 45, 110
3, 8448, Note_on_c, 0, 49, 110
3, 8590, Note_on_c, 0, 45, 0
3, 8590, Note_on_c, 0, 49, 0
3, 8592, Note_on_c, 0, 45, 110
3, 8592, Note_on_c, 0, 52, 110
3, 8734, Note_on_c, 0, 45, 0
3, 8734, Note_on_c, 0, 52, 0
3, 8736, Note_on_c, 0, 45, 110
3, 8736, Note_on_c, 0, 49, 110
3, 8878, Note_on_c, 0, 45, 0
3, 8878, Note_on_c, 0, 49, 0
3, 8880, Note_on_c, 0, 45, 110
3, 8880, Note_on_c, 0, 52, 110
3, 9022, Note_on_c, 0, 45, 0
3, 9022, Note_on_c, 0, 52, 0
3, 9024, Note_on_c, 0, 45, 110
3, 9024, Note_on_c, 0, 49, 110
3, 9118, Note_on_c, 0, 45, 0
3, 9118, Note_on_c, 0, 49, 0
3, 9120, Note_on_c, 0, 52, 110
3, 9214, Note_on_c, 0, 52, 0
3, 9216, Note_on_c, 0, 47, 110
3, 9216, Note_on_c, 0, 50, 110
3, 9358, Note_on_c, 0, 47, 0
3, 9358, Note_on_c, 0, 50, 0
3, 9360, Note_on_c, 0, 45, 110
3, 9360, Note_on_c, 0, 54, 110
3, 9502, Note_on_c, 0, 45, 0
3, 9502, Note_on_c, 0, 54, 0
3, 9504, Note_on_c, 0, 47, 110
3, 9504, Note_on_c, 0, 50, 110
3, 9646, Note_on_c, 0, 47, 0
3, 9646, Note_on_c, 0, 50, 0
3, 9648, Note_on_c, 0, 45, 110
3, 9648, Note_on_c, 0, 54, 110
3, 9790, Note_on_c, 0, 45, 0
3, 9790, Note_on_c, 0, 54, 0
3, 9792, Note_on_c, 0, 47, 110
3, 9792, Note_on_c, 0, 50, 110
3, 9952, Note_on_c, 0, 47, 0
3, 9952, Note_on_c, 0, 50, 0
3, 9984, Note_on_c, 0, 47, 110
3, 9984, Note_on_c, 0, 50, 110
3, 10126, Note_on_c, 0, 47, 0
3, 10126, Note_on_c, 0, 50, 0
3, 10128, Note_on_c, 0, 45, 110
3, 10128, Note_on_c, 0, 57, 110
3, 10270, Note_on_c, 0, 45, 0
3, 10270, Note_on_c, 0, 57, 0
3, 10272, Note_on_c, 0, 47, 110
3, 10272, Note_on_c, 0, 50, 110
3, 10414, Note_on_c, 0, 47, 0
3, 10414, Note_on_c, 0, 50, 0
3, 10416, Note_on_c, 0, 45, 110
3, 10416, Note_on_c, 0, 57, 110
3, 10558, Note_on_c, 0, 45, 0
3, 10558, Note_on_c, 0, 57, 0
3, 10560, Note_on_c, 0, 47, 110
3, 10560, Note_on_c, 0, 50, 110
3, 10654, Note_on_c, 0, 47, 0
3, 10654, Note_on_c, 0, 50, 0
3, 10656, Note_on_c, 0, 57, 110
3, 10750, Note_on_c, 0, 57, 0
3, 10752, Note_on_c, 0, 43, 110
3, 10752, Note_on_c, 0, 54, 110
3, 10894, Note_on_c, 0, 43, 0
3, 10894, Note_on_c, 0, 54, 0
3, 10896, Note_on_c, 0, 47, 110
3, 10896, Note_on_c, 0, 50, 110
3, 11038, Note_on_c, 0, 47, 0
3, 11038, Note_on_c, 0, 50, 0
3, 11040, Note_on_c, 0, 43, 110
3, 11040, Note_on_c, 0, 54, 110
3, 11134, Note_on_c, 0, 43, 0
3, 11134, Note_on_c, 0, 54, 0
3, 11184, Note_on_c, 0, 47, 110
3, 11184, Note_on_c, 0, 50, 110
3, 11326, Note_on_c, 0, 47, 0
3, 11326, Note_on_c, 0, 50, 0
3, 11328, Note_on_c, 0, 43, 110
3, 11328, Note_on_c, 0, 54, 110
3, 11422, Note_on_c, 0, 43, 0
3, 11422, Note_on_c, 0, 54, 0
3, 11424, Note_on_c, 0, 47, 110
3, 11424, Note_on_c, 0, 50, 110
3, 11518, Note_on_c, 0, 47, 0
3, 11518, Note_on_c, 0, 50, 0
3, 11520, Note_on_c, 0, 45, 110
3, 11520, Note_on_c, 0, 52, 110
3, 11662, Note_on_c, 0, 45, 0
3, 11662, Note_on_c, 0, 52, 0
3, 11664, Note_on_c, 0, 45, 110
3, 11664, Note_on_c, 0, 50, 110
3, 11806, Note_on_c, 0, 45, 0
3, 11806, Note_on_c, 0, 50, 0
3, 11808, Note_on_c, 0, 45, 110
3, 11808, Note_on_c, 0, 52, 110
3, 11902, Note_on_c, 0, 45, 0
3, 11902, Note_on_c, 0, 52, 0
3, 12288, Note_on_c, 0, 47, 110
3, 12288, Note_on_c, 0, 54, 110
3, 12430, Note_on_c, 0, 47, 0
3, 12430, Note_on_c, 0, 54, 0
3, 12432, Note_on_c, 0, 47, 110
3, 12574, Note_on_c, 0, 47, 0
3, 12576, Note_on_c, 0, 54, 110
3, 12718, Note_on_c, 0, 54, 0
3, 12720, Note_on_c, 0, 47, 110
3, 12862, Note_on_c, 0, 47, 0
3, 12864, Note_on_c, 0, 54, 110
3, 12958, Note_on_c, 0, 54, 0
3, 12960, Note_on_c, 0, 47, 110
3, 13054, Note_on_c, 0, 47, 0
3, 13056, Note_on_c, 0, 50, 110
3, 13056, Note_on_c, 0, 54, 110
3, 13198, Note_on_c, 0, 50, 0
3, 13198, Note_on_c, 0, 54, 0
3, 13200, Note_on_c, 0, 45, 110
3, 13200, Note_on_c, 0, 57, 110
3, 13342, Note_on_c, 0, 45, 0
3, 13342, Note_on_c, 0, 57, 0
3, 13344, Note_on_c, 0, 50, 110
3, 13344, Note_on_c, 0, 54, 110
3, 13600, Note_on_c, 0, 50, 0
3, 13600, Note_on_c, 0, 54, 0
3, 13824, Note_on_c, 0, 55, 110
3, 13824, Note_on_c, 0, 57, 110
3, 13966, Note_on_c, 0, 55, 0
3, 13966, Note_on_c, 0, 57, 0
3, 13968, Note_on_c, 0, 50, 110
3, 14110, Note_on_c, 0, 50, 0
3, 14112, Note_on_c, 0, 52, 110
3, 14112, Note_on_c, 0, 57, 110
3, 14254, Note_on_c, 0, 52, 0
3, 14254, Note_on_c, 0, 57, 0
3, 14256, Note_on_c, 0, 47, 110
3, 14398, Note_on_c, 0, 47, 0
3, 14400, Note_on_c, 0, 50, 110
3, 14400, Note_on_c, 0, 59, 110
3, 14494, Note_on_c, 0, 50, 0
3, 14494, Note_on_c, 0, 59, 0
3, 14496, Note_on_c, 0, 45, 110
3, 14590, Note_on_c, 0, 45, 0
3, 14592, Note_on_c, 0, 55, 110
3, 14592, Note_on_c, 0, 59, 110
3, 14592, Note_on_c, 0, 62, 110
3, 14592, Note_on_c, 0, 64, 110
3, 14848, Note_on_c, 0, 55, 0
3, 14848, Note_on_c, 0, 59, 0
3, 14848, Note_on_c, 0, 62, 0
3, 14848, Note_on_c, 0, 64, 0
3, 14880, Note_on_c, 0, 55, 110
3, 14880, Note_on_c, 0, 59, 110
3, 14880, Note_on_c, 0, 62, 110
3, 15136, Note_on_c, 0, 55, 0
3, 15136, Note_on_c, 0, 59, 0
3, 15136, Note_on_c, 0, 62, 0
3, 15168, Note_on_c, 0, 55, 110
3, 15168, Note_on_c, 0, 59, 110
3, 15168, Note_on_c, 0, 62, 110
3, 15262, Note_on_c, 0, 55, 0
3, 15262, Note_on_c, 0, 59, 0
3, 15262, Note_on_c, 0, 62, 0
3, 15264, Note_on_c, 0, 57, 110
3, 15358, Note_on_c, 0, 57, 0
3, 15360, Note_on_c, 0, 55, 110
3, 15360, Note_on_c, 0, 57, 110
3, 15502, Note_on_c, 0, 55, 0
3, 15502, Note_on_c, 0, 57, 0
3, 15504, Note_on_c, 0, 50, 110
3, 15646, Note_on_c, 0, 50, 0
3, 15648, Note_on_c, 0, 52, 110
3, 15648, Note_on_c, 0, 57, 110
3, 15790, Note_on_c, 0, 52, 0
3, 15790, Note_on_c, 0, 57, 0
3, 15792, Note_on_c, 0, 47, 110
3, 15934, Note_on_c, 0, 47, 0
3, 15936, Note_on_c, 0, 50, 110
3, 15936, Note_on_c, 0, 59, 110
3, 16030, Note_on_c, 0, 50, 0
3, 16030, Note_on_c, 0, 59, 0
3, 16032, Note_on_c, 0, 45, 110
3, 16126, Note_on_c, 0, 45, 0
3, 16128, Note_on_c, 0, 55, 110
3, 16128, Note_on_c, 0, 59, 110
3, 16128, Note_on_c, 0, 62, 110
3, 16128, Note_on_c, 0, 64, 110
3, 16384, Note_on_c, 0, 55, 0
3, 16384, Note_on_c, 0, 59, 0
3, 16384, Note_on_c, 0, 62, 0
3, 16384, Note_on_c, 0, 64, 0
3, 16416, Note_on_c, 0, 55, 110
3, 16416, Note_on_c, 0, 59, 110
3, 16416, Note_on_c, 0, 62, 110
3, 16672, Note_on_c, 0, 55, 0
3, 16672, Note_on_c, 0, 59, 0
3, 16672, Note_on_c, 0, 62, 0
3, 16704, Note_on_c, 0, 55, 110
3, 16704, Note_on_c, 0, 59, 110
3, 16704, Note_on_c, 0, 62, 110
3, 16798, Note_on_c, 0, 55, 0
3, 16798, Note_on_c, 0, 59, 0
3, 16798, Note_on_c, 0, 62, 0
3, 16800, Note_on_c, 0, 57, 110
3, 16894, Note_on_c, 0, 57, 0
3, 16896, Note_on_c, 0, 43, 110
3, 16896, Note_on_c, 0, 50, 110
3, 16896, Note_on_c, 0, 55, 110
3, 17424, Note_on_c, 0, 43, 0
3, 17424, Note_on_c, 0, 50, 0
3, 17424, Note_on_c, 0, 55, 0
3, 17472, Note_on_c, 0, 55, 110
3, 17472, Note_on_c, 0, 59, 110
3, 17632, Note_on_c, 0, 55, 0
3, 17632, Note_on_c, 0, 59, 0
3, 17664, Note_on_c, 0, 45, 110
3, 17664, Note_on_c, 0, 52, 110
3, 17664, Note_on_c, 0, 57, 110
3, 18192, Note_on_c, 0, 45, 0
3, 18192, Note_on_c, 0, 52, 0
3, 18192, Note_on_c, 0, 57, 0
3, 18240, Note_on_c, 0, 57, 110
3, 18240, Note_on_c, 0, 61, 110
3, 18400, Note_on_c, 0, 57, 0
3, 18400, Note_on_c, 0, 61, 0
3, 18432, Note_on_c, 0, 47, 110
3, 18432, Note_on_c, 0, 54, 110
3, 18432, Note_on_c, 0, 59, 110
3, 18960, Note_on_c, 0, 47, 0
3, 18960, Note_on_c, 0, 54, 0
3, 18960, Note_on_c, 0, 59, 0
3, 19008, Note_on_c, 0, 59, 110
3, 19008, Note_on_c, 0, 62, 110
3, 19168, Note_on_c, 0, 59, 0
3, 19168, Note_on_c, 0, 62, 0
3, 19200, Note_on_c, 0, 50, 110
3, 19200, Note_on_c, 0, 59, 110
3, 19728, Note_on_c, 0, 50, 0
3, 19728, Note_on_c, 0, 59, 0
3, 19776, Note_on_c, 0, 50, 110
3, 19776, Note_on_c, 0, 59, 110
3, 19776, Note_on_c, 0, 62, 110
3, 19870, Note_on_c, 0, 50, 0
3, 19870, Note_on_c, 0, 59, 0
3, 19870, Note_on_c, 0, 62, 0
3, 19872, Note_on_c, 0, 50, 110
3, 19872, Note_on_c, 0, 59, 110
3, 19872, Note_on_c, 0, 62, 110
3, 19966, Note_on_c, 0, 50, 0
3, 19966, Note_on_c, 0, 59, 0
3, 19966, Note_on_c, 0, 62, 0
3, 19968, Note_on_c, 0, 43, 110
3, 19968, Note_on_c, 0, 50, 110
3, 19968, Note_on_c, 0, 55, 110
3, 20110, Note_on_c, 0, 43, 0
3, 20110, Note_on_c, 0, 50, 0
3, 20110, Note_on_c, 0, 55, 0
3, 20112, Note_on_c, 0, 55, 110
3, 20112, Note_on_c, 0, 62, 110
3, 20254, Note_on_c, 0, 55, 0
3, 20254, Note_on_c, 0, 62, 0
3, 20256, Note_on_c, 0, 55, 110
3, 20256, Note_on_c, 0, 62, 110
3, 20398, Note_on_c, 0, 55, 0
3, 20398, Note_on_c, 0, 62, 0
3, 20400, Note_on_c, 0, 55, 110
3, 20400, Note_on_c, 0, 62, 110
3, 20542, Note_on_c, 0, 55, 0
3, 20542, Note_on_c, 0, 62, 0
3, 20544, Note_on_c, 0, 55, 110
3, 20544, Note_on_c, 0, 62, 110
3, 20638, Note_on_c, 0, 55, 0
3, 20638, Note_on_c, 0, 62, 0
3, 20640, Note_on_c, 0, 55, 110
3, 20640, Note_on_c, 0, 62, 110
3, 20734, Note_on_c, 0, 55, 0
3, 20734, Note_on_c, 0, 62, 0
3, 20736, Note_on_c, 0, 45, 110
3, 20736, Note_on_c, 0, 52, 110
3, 20736, Note_on_c, 0, 57, 110
3, 20878, Note_on_c, 0, 45, 0
3, 20878, Note_on_c, 0, 52, 0
3, 20878, Note_on_c, 0, 57, 0
3, 20880, Note_on_c, 0, 57, 110
3, 20880, Note_on_c, 0, 61, 110
3, 21022, Note_on_c, 0, 57, 0
3, 21022, Note_on_c, 0, 61, 0
3, 21024, Note_on_c, 0, 57, 110
3, 21024, Note_on_c, 0, 61, 110
3, 21166, Note_on_c, 0, 57, 0
3, 21166, Note_on_c, 0, 61, 0
3, 21168, Note_on_c, 0, 57, 110
3, 21168, Note_on_c, 0, 61, 110
3, 21310, Note_on_c, 0, 57, 0
3, 21310, Note_on_c, 0, 61, 0
3, 21312, Note_on_c, 0, 57, 110
3, 21312, Note_on_c, 0, 61, 110
3, 21406, Note_on_c, 0, 57, 0
3, 21406, Note_on_c, 0, 61, 0
3, 21408, Note_on_c, 0, 57, 110
3, 21408, Note_on_c, 0, 61, 110
3, 21502, Note_on_c, 0, 57, 0
3, 21502, Note_on_c, 0, 61, 0
3, 21504, Note_on_c, 0, 47, 110
3, 21504, Note_on_c, 0, 54, 110
3, 21504, Note_on_c, 0, 59, 110
3, 21646, Note_on_c, 0, 47, 0
3, 21646, Note_on_c, 0, 54, 0
3, 21646, Note_on_c, 0, 59, 0
3, 21648, Note_on_c, 0, 59, 110
3, 21648, Note_on_c, 0, 62, 110
3, 21790, Note_on_c, 0, 59, 0
3, 21790, Note_on_c, 0, 62, 0
3, 21792, Note_on_c, 0, 59, 110
3, 21792, Note_on_c, 0, 62, 110
3, 21934, Note_on_c, 0, 59, 0
3, 21934, Note_on_c, 0, 62, 0
3, 21936, Note_on_c, 0, 59, 110
3, 21936, Note_on_c, 0, 62, 110
3, 22078, Note_on_c, 0, 59, 0
3, 22078, Note_on_c, 0, 62, 0
3, 22080, Note_on_c, 0, 57, 110
3, 22080, Note_on_c, 0, 62, 110
3, 22174, Note_on_c, 0, 57, 0
3, 22174, Note_on_c, 0, 62, 0
3, 22176, Note_on_c, 0, 57, 110
3, 22176, Note_on_c, 0, 62, 110
3, 22270, Note_on_c, 0, 57, 0
3, 22270, Note_on_c, 0, 62, 0
3, 22272, Note_on_c, 0, 50, 110
3, 22272, Note_on_c, 0, 59, 110
3, 22432, Note_on_c, 0, 50, 0
3, 22432, Note_on_c, 0, 59, 0
3, 23184, Note_on_c, 0, 43, 110
3, 23184, Note_on_c, 0, 47, 110
3, 23326, Note_on_c, 0, 43, 0
3, 23326, Note_on_c, 0, 47, 0
3, 23328, Note_on_c, 0, 43, 110
3, 23328, Note_on_c, 0, 47, 110
3, 23470, Note_on_c, 0, 43, 0
3, 23470, Note_on_c, 0, 47, 0
3, 23472, Note_on_c, 0, 43, 110
3, 23472, Note_on_c, 0, 47, 110
3, 23614, Note_on_c, 0, 43, 0
3, 23614, Note_on_c, 0, 47, 0
3, 23616, Note_on_c, 0, 47, 110
3, 23710, Note_on_c, 0, 47, 0
3, 23712, Note_on_c, 0, 47, 110
3, 23806, Note_on_c, 0, 47, 0
3, 23952, Note_on_c, 0, 45, 110
3, 23952, Note_on_c, 0, 49, 110
3, 24094, Note_on_c, 0, 45, 0
3, 24094, Note_on_c, 0, 49, 0
3, 24096, Note_on_c, 0, 45, 110
3, 24096, Note_on_c, 0, 49, 110
3, 24238, Note_on_c, 0, 45, 0
3, 24238, Note_on_c, 0, 49, 0
3, 24240, Note_on_c, 0, 45, 110
3, 24240, Note_on_c, 0, 49, 110
3, 24382, Note_on_c, 0, 45, 0
3, 24382, Note_on_c, 0, 49, 0
3, 24384, Note_on_c, 0, 49, 110
3, 24478, Note_on_c, 0, 49, 0
3, 24480, Note_on_c, 0, 49, 110
3, 24574, Note_on_c, 0, 49, 0
3, 24720, Note_on_c, 0, 50, 110
3, 24720, Note_on_c, 0, 54, 110
3, 24862, Note_on_c, 0, 50, 0
3, 24862, Note_on_c, 0, 54, 0
3, 24864, Note_on_c, 0, 50, 110
3, 24864, Note_on_c, 0, 54, 110
3, 25006, Note_on_c, 0, 50, 0
3, 25006, Note_on_c, 0, 54, 0
3, 25008, Note_on_c, 0, 50, 110
3, 25008, Note_on_c, 0, 54, 110
3, 25150, Note_on_c, 0, 50, 0
3, 25150, Note_on_c, 0, 54, 0
3, 25152, Note_on_c, 0, 50, 110
3, 25246, Note_on_c, 0, 50, 0
3, 25248, Note_on_c, 0, 52, 110
3, 25342, Note_on_c, 0, 52, 0
3, 25488, Note_on_c, 0, 47, 110
3, 25488, Note_on_c, 0, 50, 110
3, 25630, Note_on_c, 0, 47, 0
3, 25630, Note_on_c, 0, 50, 0
3, 25632, Note_on_c, 0, 47, 110
3, 25632, Note_on_c, 0, 50, 110
3, 25774, Note_on_c, 0, 47, 0
3, 25774, Note_on_c, 0, 50, 0
3, 25776, Note_on_c, 0, 50, 110
3, 25776, Note_on_c, 0, 54, 110
3, 25918, Note_on_c, 0, 50, 0
3, 25918, Note_on_c, 0, 54, 0
3, 25920, Note_on_c, 0, 50, 110
3, 25920, Note_on_c, 0, 54, 110
3, 26014, Note_on_c, 0, 50, 0
3, 26014, Note_on_c, 0, 54, 0
3, 26016, Note_on_c, 0, 50, 110
3, 26016, Note_on_c, 0, 54, 110
3, 26110, Note_on_c, 0, 50, 0
3, 26110, Note_on_c, 0, 54, 0
3, 26256, Note_on_c, 0, 43, 110
3, 26256, Note_on_c, 0, 47, 110
3, 26398, Note_on_c, 0, 43, 0
3, 26398, Note_on_c, 0, 47, 0
3, 26400, Note_on_c, 0, 43, 110
3, 26400, Note_on_c, 0, 47, 110
3, 26542, Note_on_c, 0, 43, 0
3, 26542, Note_on_c, 0, 47, 0
3, 26544, Note_on_c, 0, 43, 110
3, 26544, Note_on_c, 0, 47, 110
3, 26686, Note_on_c, 0, 43, 0
3, 26686, Note_on_c, 0, 47, 0
3, 26688, Note_on_c, 0, 47, 110
3, 26782, Note_on_c, 0, 47, 0
3, 26784, Note_on_c, 0, 47, 110
3, 26878, Note_on_c, 0, 47, 0
3, 27024, Note_on_c, 0, 45, 110
3, 27024, Note_on_c, 0, 49, 110
3, 27166, Note_on_c, 0, 45, 0
3, 27166, Note_on_c, 0, 49, 0
3, 27168, Note_on_c, 0, 45, 110
3, 27168, Note_on_c, 0, 49, 110
3, 27310, Note_on_c, 0, 45, 0
3, 27310, Note_on_c, 0, 49, 0
3, 27312, Note_on_c, 0, 45, 110
3, 27312, Note_on_c, 0, 49, 110
3, 27454, Note_on_c, 0, 45, 0
3, 27454, Note_on_c, 0, 49, 0
3, 27456, Note_on_c, 0, 49, 110
3, 27550, Note_on_c, 0, 49, 0
3, 27552, Note_on_c, 0, 49, 110
3, 27646, Note_on_c, 0, 49, 0
3, 27792, Note_on_c, 0, 50, 110
3, 27792, Note_on_c, 0, 54, 110
3, 27934, Note_on_c, 0, 50, 0
3, 27934, Note_on_c, 0, 54, 0
3, 27936, Note_on_c, 0, 50, 110
3, 27936, Note_on_c, 0, 54, 110
3, 28078, Note_on_c, 0, 50, 0
3, 28078, Note_on_c, 0, 54, 0
3, 28080, Note_on_c, 0, 50, 110
3, 28080, Note_on_c, 0, 54, 110
3, 28222, Note_on_c, 0, 50, 0
3, 28222, Note_on_c, 0, 54, 0
3, 28224, Note_on_c, 0, 50, 110
3, 28318, Note_on_c, 0, 50, 0
3, 28320, Note_on_c, 0, 52, 110
3, 28414, Note_on_c, 0, 52, 0
3, 28560, Note_on_c, 0, 47, 110
3, 28560, Note_on_c, 0, 50, 110
3, 28702, Note_on_c, 0, 47, 0
3, 28702, Note_on_c, 0, 50, 0
3, 28704, Note_on_c, 0, 47, 110
3, 28704, Note_on_c, 0, 50, 110
3, 28846, Note_on_c, 0, 47, 0
3, 28846, Note_on_c, 0, 50, 0
3, 28848, Note_on_c, 0, 54, 110
3, 28848, Note_on_c, 0, 57, 110
3, 28990, Note_on_c, 0, 54, 0
3, 28990, Note_on_c, 0, 57, 0
3, 28992, Note_on_c, 0, 54, 110
3, 28992, Note_on_c, 0, 57, 110
3, 29086, Note_on_c, 0, 54, 0
3, 29086, Note_on_c, 0, 57, 0
3, 29088, Note_on_c, 0, 54, 110
3, 29088, Note_on_c, 0, 57, 110
3, 29182, Note_on_c, 0, 54, 0
3, 29182, Note_on_c, 0, 57, 0
3, 29328, Note_on_c, 0, 43, 110
3, 29328, Note_on_c, 0, 47, 110
3, 29470, Note_on_c, 0, 43, 0
3, 29470, Note_on_c, 0, 47, 0
3, 29472, Note_on_c, 0, 43, 110
3, 29472, Note_on_c, 0, 47, 110
3, 29614, Note_on_c, 0, 43, 0
3, 29614, Note_on_c, 0, 47, 0
3, 29616, Note_on_c, 0, 43, 110
3, 29616, Note_on_c, 0, 47, 110
3, 29758, Note_on_c, 0, 43, 0
3, 29758, Note_on_c, 0, 47, 0
3, 29760, Note_on_c, 0, 47, 110
3, 29854, Note_on_c, 0, 47, 0
3, 29856, Note_on_c, 0, 47, 110
3, 29950, Note_on_c, 0, 47, 0
3, 30096, Note_on_c, 0, 45, 110
3, 30096, Note_on_c, 0, 49, 110
3, 30238, Note_on_c, 0, 45, 0
3, 30238, Note_on_c, 0, 49, 0
3, 30240, Note_on_c, 0, 45, 110
3, 30240, Note_on_c, 0, 49, 110
3, 30382, Note_on_c, 0, 45, 0
3, 30382, Note_on_c, 0, 49, 0
3, 30384, Note_on_c, 0, 45, 110
3, 30384, Note_on_c, 0, 49, 110
3, 30526, Note_on_c, 0, 45, 0
3, 30526, Note_on_c, 0, 49, 0
3, 30528, Note_on_c, 0, 49, 110
3, 30622, Note_on_c, 0, 49, 0
3, 30624, Note_on_c, 0, 49, 110
3, 30718, Note_on_c, 0, 49, 0
3, 30864, Note_on_c, 0, 50, 110
3, 30864, Note_on_c, 0, 54, 110
3, 31006, Note_on_c, 0, 50, 0
3, 31006, Note_on_c, 0, 54, 0
3, 31008, Note_on_c, 0, 50, 110
3, 31008, Note_on_c, 0, 54, 110
3, 31150, Note_on_c, 0, 50, 0
3, 31150, Note_on_c, 0, 54, 0
3, 31152, Note_on_c, 0, 50, 110
3, 31152, Note_on_c, 0, 54, 110
3, 31294, Note_on_c, 0, 50, 0
3, 31294, Note_on_c, 0, 54, 0
3, 31296, Note_on_c, 0, 50, 110
3, 31390, Note_on_c, 0, 50, 0
3, 31392, Note_on_c, 0, 50, 110
3, 31486, Note_on_c, 0, 50, 0
3, 31632, Note_on_c, 0, 47, 110
3, 31632, Note_on_c, 0, 50, 110
3, 31774, Note_on_c, 0, 47, 0
3, 31774, Note_on_c, 0, 50, 0
3, 31776, Note_on_c, 0, 47, 110
3, 31776, Note_on_c, 0, 50, 110
3, 31918, Note_on_c, 0, 47, 0
3, 31918, Note_on_c, 0, 50, 0
3, 31920, Note_on_c, 0, 50, 110
3, 31920, Note_on_c, 0, 54, 110
3, 32062, Note_on_c, 0, 50, 0
3, 32062, Note_on_c, 0, 54, 0
3, 32064, Note_on_c, 0, 50, 110
3, 32064, Note_on_c, 0, 54, 110
3, 32158, Note_on_c, 0, 50, 0
3, 32158, Note_on_c, 0, 54, 0
3, 32160, Note_on_c, 0, 50, 110
3, 32160, Note_on_c, 0, 54, 110
3, 32254, Note_on_c, 0, 50, 0
3, 32254, Note_on_c, 0, 54, 0
3, 32400, Note_on_c, 0, 43, 110
3, 32400, Note_on_c, 0, 47, 110
3, 32542, Note_on_c, 0, 43, 0
3, 32542, Note_on_c, 0, 47, 0
3, 32544, Note_on_c, 0, 43, 110
3, 32544, Note_on_c, 0, 47, 110
3, 32686, Note_on_c, 0, 43, 0
3, 32686, Note_on_c, 0, 47, 0
3, 32688, Note_on_c, 0, 43, 110
3, 32688, Note_on_c, 0, 47, 110
3, 32830, Note_on_c, 0, 43, 0
3, 32830, Note_on_c, 0, 47, 0
3, 32832, Note_on_c, 0, 47, 110
3, 32926, Note_on_c, 0, 47, 0
3, 32928, Note_on_c, 0, 47, 110
3, 33022, Note_on_c, 0, 47, 0
3, 33168, Note_on_c, 0, 45, 110
3, 33168, Note_on_c, 0, 49, 110
3, 33310, Note_on_c, 0, 45, 0
3, 33310, Note_on_c, 0, 49, 0
3, 33312, Note_on_c, 0, 45, 110
3, 33312, Note_on_c, 0, 49, 110
3, 33454, Note_on_c, 0, 45, 0
3, 33454, Note_on_c, 0, 49, 0
3, 33456, Note_on_c, 0, 45, 110
3, 33456, Note_on_c, 0, 49, 110
3, 33598, Note_on_c, 0, 45, 0
3, 33598, Note_on_c, 0, 49, 0
3, 33600, Note_on_c, 0, 49, 110
3, 33694, Note_on_c, 0, 49, 0
3, 33696, Note_on_c, 0, 49, 110
3, 33790, Note_on_c, 0, 49, 0
3, 33936, Note_on_c, 0, 50, 110
3, 33936, Note_on_c, 0, 54, 110
3, 34078, Note_on_c, 0, 50, 0
3, 34078, Note_on_c, 0, 54, 0
3, 34080, Note_on_c, 0, 50, 110
3, 34080, Note_on_c, 0, 54, 110
3, 34222, Note_on_c, 0, 50, 0
3, 34222, Note_on_c, 0, 54, 0
3, 34224, Note_on_c, 0, 50, 110
3, 34224, Note_on_c, 0, 54, 110
3, 34366, Note_on_c, 0, 50, 0
3, 34366, Note_on_c, 0, 54, 0
3, 34368, Note_on_c, 0, 50, 110
3, 34368, Note_on_c, 0, 54, 110
3, 34462, Note_on_c, 0, 50, 0
3, 34462, Note_on_c, 0, 54, 0
3, 34464, Note_on_c, 0, 50, 110
3, 34464, Note_on_c, 0, 54, 110
3, 34558, Note_on_c, 0, 50, 0
3, 34558, Note_on_c, 0, 54, 0
3, 34560, Note_on_c, 0, 47, 110
3, 34560, Note_on_c, 0, 50, 110
3, 34560, Note_on_c, 0, 54, 110
3, 35280, Note_on_c, 0, 47, 0
3, 35280, Note_on_c, 0, 50, 0
3, 35280, Note_on_c, 0, 54, 0
3, 35280, End_track
4, 0, Start_track
4, 0, MIDI_port, 0
4, 0, Title_t, "Staff-3"
4, 0, Control_c, 0, 7, 127
4, 0, Control_c, 0, 10, 64
4, 4224, Note_on_c, 0, 38, 110
4, 4560, Note_on_c, 0, 38, 0
4, 23040, Note_on_c, 0, 31, 110
4, 23200, Note_on_c, 0, 31, 0
4, 23808, Note_on_c, 0, 33, 110
4, 23968, Note_on_c, 0, 33, 0
4, 24576, Note_on_c, 0, 38, 110
4, 24736, Note_on_c, 0, 38, 0
4, 25344, Note_on_c, 0, 35, 110
4, 25504, Note_on_c, 0, 35, 0
4, 26112, Note_on_c, 0, 31, 110
4, 26272, Note_on_c, 0, 31, 0
4, 26880, Note_on_c, 0, 33, 110
4, 27040, Note_on_c, 0, 33, 0
4, 27648, Note_on_c, 0, 38, 110
4, 27808, Note_on_c, 0, 38, 0
4, 28416, Note_on_c, 0, 35, 110
4, 28576, Note_on_c, 0, 35, 0
4, 29184, Note_on_c, 0, 31, 110
4, 29344, Note_on_c, 0, 31, 0
4, 29952, Note_on_c, 0, 33, 110
4, 30112, Note_on_c, 0, 33, 0
4, 30720, Note_on_c, 0, 35, 110
4, 30880, Note_on_c, 0, 35, 0
4, 31488, Note_on_c, 0, 35, 110
4, 31648, Note_on_c, 0, 35, 0
4, 32256, Note_on_c, 0, 31, 110
4, 32416, Note_on_c, 0, 31, 0
4, 33024, Note_on_c, 0, 33, 110
4, 33184, Note_on_c, 0, 33, 0
4, 33792, Note_on_c, 0, 35, 110
4, 33952, Note_on_c, 0, 35, 0
4, 33952, End_track
5, 0, Start_track
5, 0, MIDI_port, 0
5, 0, Title_t, "Main Melody"
5, 0, Control_c, 9, 7, 127
5, 0, Control_c, 9, 10, 64
5, 0, Note_on_c, 9, 55, 110
5, 142, Note_on_c, 9, 55, 0
5, 144, Note_on_c, 9, 55, 110
5, 286, Note_on_c, 9, 55, 0
5, 288, Note_on_c, 9, 55, 110
5, 720, Note_on_c, 9, 55, 0
5, 768, Note_on_c, 9, 55, 110
5, 910, Note_on_c, 9, 55, 0
5, 912, Note_on_c, 9, 55, 110
5, 1054, Note_on_c, 9, 55, 0
5, 1056, Note_on_c, 9, 55, 110
5, 1488, Note_on_c, 9, 55, 0
5, 1536, Note_on_c, 9, 55, 110
5, 1678, Note_on_c, 9, 55, 0
5, 1680, Note_on_c, 9, 55, 110
5, 1822, Note_on_c, 9, 55, 0
5, 1824, Note_on_c, 9, 55, 110
5, 2256, Note_on_c, 9, 55, 0
5, 2304, Note_on_c, 9, 55, 110
5, 2326, Note_on_c, 9, 55, 0
5, 2328, Note_on_c, 9, 55, 110
5, 2446, Note_on_c, 9, 55, 0
5, 2448, Note_on_c, 9, 55, 110
5, 2590, Note_on_c, 9, 55, 0
5, 2592, Note_on_c, 9, 55, 110
5, 2782, Note_on_c, 9, 55, 0
5, 2784, Note_on_c, 9, 55, 110
5, 3040, Note_on_c, 9, 55, 0
5, 3072, Note_on_c, 9, 55, 110
5, 3214, Note_on_c, 9, 55, 0
5, 3216, Note_on_c, 9, 55, 110
5, 3358, Note_on_c, 9, 55, 0
5, 3360, Note_on_c, 9, 55, 110
5, 3792, Note_on_c, 9, 55, 0
5, 3840, Note_on_c, 9, 55, 110
5, 3982, Note_on_c, 9, 55, 0
5, 3984, Note_on_c, 9, 55, 110
5, 4126, Note_on_c, 9, 55, 0
5, 4128, Note_on_c, 9, 55, 110
5, 4560, Note_on_c, 9, 55, 0
5, 4608, Note_on_c, 9, 55, 110
5, 4750, Note_on_c, 9, 55, 0
5, 4752, Note_on_c, 9, 55, 110
5, 4894, Note_on_c, 9, 55, 0
5, 4896, Note_on_c, 9, 55, 110
5, 5038, Note_on_c, 9, 55, 0
5, 5040, Note_on_c, 9, 55, 110
5, 5182, Note_on_c, 9, 55, 0
5, 5184, Note_on_c, 9, 55, 110
5, 5344, Note_on_c, 9, 55, 0
5, 5376, Note_on_c, 9, 55, 110
5, 5518, Note_on_c, 9, 55, 0
5, 5520, Note_on_c, 9, 55, 110
5, 5662, Note_on_c, 9, 55, 0
5, 5664, Note_on_c, 9, 55, 110
5, 5806, Note_on_c, 9, 55, 0
5, 5808, Note_on_c, 9, 55, 110
5, 5950, Note_on_c, 9, 55, 0
5, 5952, Note_on_c, 9, 55, 110
5, 6046, Note_on_c, 9, 55, 0
5, 6048, Note_on_c, 9, 55, 110
5, 6142, Note_on_c, 9, 55, 0
5, 6144, Note_on_c, 9, 55, 110
5, 6286, Note_on_c, 9, 55, 0
5, 6288, Note_on_c, 9, 55, 110
5, 6430, Note_on_c, 9, 55, 0
5, 6432, Note_on_c, 9, 55, 110
5, 6574, Note_on_c, 9, 55, 0
5, 6576, Note_on_c, 9, 55, 110
5, 6718, Note_on_c, 9, 55, 0
5, 6720, Note_on_c, 9, 55, 110
5, 6880, Note_on_c, 9, 55, 0
5, 6912, Note_on_c, 9, 55, 110
5, 7054, Note_on_c, 9, 55, 0
5, 7056, Note_on_c, 9, 55, 110
5, 7198, Note_on_c, 9, 55, 0
5, 7200, Note_on_c, 9, 55, 110
5, 7342, Note_on_c, 9, 55, 0
5, 7344, Note_on_c, 9, 55, 110
5, 7486, Note_on_c, 9, 55, 0
5, 7488, Note_on_c, 9, 55, 110
5, 7582, Note_on_c, 9, 55, 0
5, 7584, Note_on_c, 9, 55, 110
5, 7678, Note_on_c, 9, 55, 0
5, 7680, Note_on_c, 9, 55, 110
5, 7822, Note_on_c, 9, 55, 0
5, 7824, Note_on_c, 9, 55, 110
5, 7966, Note_on_c, 9, 55, 0
5, 7968, Note_on_c, 9, 55, 110
5, 8110, Note_on_c, 9, 55, 0
5, 8112, Note_on_c, 9, 55, 110
5, 8254, Note_on_c, 9, 55, 0
5, 8256, Note_on_c, 9, 55, 110
5, 8416, Note_on_c, 9, 55, 0
5, 8448, Note_on_c, 9, 55, 110
5, 8590, Note_on_c, 9, 55, 0
5, 8592, Note_on_c, 9, 55, 110
5, 8734, Note_on_c, 9, 55, 0
5, 8736, Note_on_c, 9, 55, 110
5, 8878, Note_on_c, 9, 55, 0
5, 8880, Note_on_c, 9, 55, 110
5, 9022, Note_on_c, 9, 55, 0
5, 9024, Note_on_c, 9, 55, 110
5, 9118, Note_on_c, 9, 55, 0
5, 9120, Note_on_c, 9, 55, 110
5, 9214, Note_on_c, 9, 55, 0
5, 9216, Note_on_c, 9, 55, 110
5, 9358, Note_on_c, 9, 55, 0
5, 9360, Note_on_c, 9, 55, 110
5, 9502, Note_on_c, 9, 55, 0
5, 9504, Note_on_c, 9, 55, 110
5, 9646, Note_on_c, 9, 55, 0
5, 9648, Note_on_c, 9, 55, 110
5, 9790, Note_on_c, 9, 55, 0
5, 9792, Note_on_c, 9, 55, 110
5, 9952, Note_on_c, 9, 55, 0
5, 9984, Note_on_c, 9, 55, 110
5, 10126, Note_on_c, 9, 55, 0
5, 10128, Note_on_c, 9, 55, 110
5, 10270, Note_on_c, 9, 55, 0
5, 10272, Note_on_c, 9, 55, 110
5, 10414, Note_on_c, 9, 55, 0
5, 10416, Note_on_c, 9, 55, 110
5, 10558, Note_on_c, 9, 55, 0
5, 10560, Note_on_c, 9, 55, 110
5, 10654, Note_on_c, 9, 55, 0
5, 10656, Note_on_c, 9, 55, 110
5, 10750, Note_on_c, 9, 55, 0
5, 10752, Note_on_c, 9, 55, 110
5, 10894, Note_on_c, 9, 55, 0
5, 10896, Note_on_c, 9, 55, 110
5, 11038, Note_on_c, 9, 55, 0
5, 11040, Note_on_c, 9, 55, 110
5, 11134, Note_on_c, 9, 55, 0
5, 11184, Note_on_c, 9, 55, 110
5, 11326, Note_on_c, 9, 55, 0
5, 11328, Note_on_c, 9, 55, 110
5, 11422, Note_on_c, 9, 55, 0
5, 11424, Note_on_c, 9, 55, 110
5, 11518, Note_on_c, 9, 55, 0
5, 11520, Note_on_c, 9, 55, 110
5, 11662, Note_on_c, 9, 55, 0
5, 11664, Note_on_c, 9, 55, 110
5, 11806, Note_on_c, 9, 55, 0
5, 11808, Note_on_c, 9, 55, 110
5, 11902, Note_on_c, 9, 55, 0
5, 12288, Note_on_c, 9, 55, 110
5, 12430, Note_on_c, 9, 55, 0
5, 12432, Note_on_c, 9, 55, 110
5, 12574, Note_on_c, 9, 55, 0
5, 12576, Note_on_c, 9, 55, 110
5, 12718, Note_on_c, 9, 55, 0
5, 12720, Note_on_c, 9, 55, 110
5, 12862, Note_on_c, 9, 55, 0
5, 12864, Note_on_c, 9, 55, 110
5, 12958, Note_on_c, 9, 55, 0
5, 12960, Note_on_c, 9, 55, 110
5, 13054, Note_on_c, 9, 55, 0
5, 13056, Note_on_c, 9, 55, 110
5, 13198, Note_on_c, 9, 55, 0
5, 13200, Note_on_c, 9, 55, 110
5, 13342, Note_on_c, 9, 55, 0
5, 13344, Note_on_c, 9, 55, 110
5, 13600, Note_on_c, 9, 55, 0
5, 13824, Note_on_c, 9, 55, 110
5, 13966, Note_on_c, 9, 55, 0
5, 13968, Note_on_c, 9, 55, 110
5, 14110, Note_on_c, 9, 55, 0
5, 14112, Note_on_c, 9, 55, 110
5, 14254, Note_on_c, 9, 55, 0
5, 14256, Note_on_c, 9, 55, 110
5, 14398, Note_on_c, 9, 55, 0
5, 14400, Note_on_c, 9, 55, 110
5, 14494, Note_on_c, 9, 55, 0
5, 14496, Note_on_c, 9, 55, 110
5, 14590, Note_on_c, 9, 55, 0
5, 14592, Note_on_c, 9, 55, 110
5, 14848, Note_on_c, 9, 55, 0
5, 14880, Note_on_c, 9, 55, 110
5, 15136, Note_on_c, 9, 55, 0
5, 15168, Note_on_c, 9, 55, 110
5, 15262, Note_on_c, 9, 55, 0
5, 15264, Note_on_c, 9, 55, 110
5, 15358, Note_on_c, 9, 55, 0
5, 15360, Note_on_c, 9, 55, 110
5, 15502, Note_on_c, 9, 55, 0
5, 15504, Note_on_c, 9, 55, 110
5, 15646, Note_on_c, 9, 55, 0
5, 15648, Note_on_c, 9, 55, 110
5, 15790, Note_on_c, 9, 55, 0
5, 15792, Note_on_c, 9, 55, 110
5, 15934, Note_on_c, 9, 55, 0
5, 15936, Note_on_c, 9, 55, 110
5, 16030, Note_on_c, 9, 55, 0
5, 16032, Note_on_c, 9, 55, 110
5, 16126, Note_on_c, 9, 55, 0
5, 16128, Note_on_c, 9, 55, 110
5, 16384, Note_on_c, 9, 55, 0
5, 16416, Note_on_c, 9, 55, 110
5, 16672, Note_on_c, 9, 55, 0
5, 16704, Note_on_c, 9, 55, 110
5, 16798, Note_on_c, 9, 55, 0
5, 16800, Note_on_c, 9, 55, 110
5, 16894, Note_on_c, 9, 55, 0
5, 16896, Note_on_c, 9, 55, 110
5, 17424, Note_on_c, 9, 55, 0
5, 17472, Note_on_c, 9, 55, 110
5, 17632, Note_on_c, 9, 55, 0
5, 17664, Note_on_c, 9, 55, 110
5, 18192, Note_on_c, 9, 55, 0
5, 18240, Note_on_c, 9, 55, 110
5, 18400, Note_on_c, 9, 55, 0
5, 18432, Note_on_c, 9, 55, 110
5, 18960, Note_on_c, 9, 55, 0
5, 19008, Note_on_c, 9, 55, 110
5, 19168, Note_on_c, 9, 55, 0
5, 19200, Note_on_c, 9, 55, 110
5, 19728, Note_on_c, 9, 55, 0
5, 19776, Note_on_c, 9, 55, 110
5, 19870, Note_on_c, 9, 55, 0
5, 19872, Note_on_c, 9, 55, 110
5, 19966, Note_on_c, 9, 55, 0
5, 19968, Note_on_c, 9, 55, 110
5, 20110, Note_on_c, 9, 55, 0
5, 20112, Note_on_c, 9, 55, 110
5, 20254, Note_on_c, 9, 55, 0
5, 20256, Note_on_c, 9, 55, 110
5, 20398, Note_on_c, 9, 55, 0
5, 20400, Note_on_c, 9, 55, 110
5, 20542, Note_on_c, 9, 55, 0
5, 20544, Note_on_c, 9, 55, 110
5, 20638, Note_on_c, 9, 55, 0
5, 20640, Note_on_c, 9, 55, 110
5, 20734, Note_on_c, 9, 55, 0
5, 20736, Note_on_c, 9, 55, 110
5, 20878, Note_on_c, 9, 55, 0
5, 20880, Note_on_c, 9, 55, 110
5, 21022, Note_on_c, 9, 55, 0
5, 21024, Note_on_c, 9, 55, 110
5, 21166, Note_on_c, 9, 55, 0
5, 21168, Note_on_c, 9, 55, 110
5, 21310, Note_on_c, 9, 55, 0
5, 21312, Note_on_c, 9, 55, 110
5, 21406, Note_on_c, 9, 55, 0
5, 21408, Note_on_c, 9, 55, 110
5, 21502, Note_on_c, 9, 55, 0
5, 21504, Note_on_c, 9, 55, 110
5, 21646, Note_on_c, 9, 55, 0
5, 21648, Note_on_c, 9, 55, 110
5, 21790, Note_on_c, 9, 55, 0
5, 21792, Note_on_c, 9, 55, 110
5, 21934, Note_on_c, 9, 55, 0
5, 21936, Note_on_c, 9, 55, 110
5, 22078, Note_on_c, 9, 55, 0
5, 22080, Note_on_c, 9, 55, 110
5, 22174, Note_on_c, 9, 55, 0
5, 22176, Note_on_c, 9, 55, 110
5, 22270, Note_on_c, 9, 55, 0
5, 22272, Note_on_c, 9, 55, 110
5, 22432, Note_on_c, 9, 55, 0
5, 23184, Note_on_c, 9, 55, 110
5, 23326, Note_on_c, 9, 55, 0
5, 23328, Note_on_c, 9, 55, 110
5, 23470, Note_on_c, 9, 55, 0
5, 23472, Note_on_c, 9, 55, 110
5, 23614, Note_on_c, 9, 55, 0
5, 23616, Note_on_c, 9, 55, 110
5, 23710, Note_on_c, 9, 55, 0
5, 23712, Note_on_c, 9, 55, 110
5, 23806, Note_on_c, 9, 55, 0
5, 23952, Note_on_c, 9, 55, 110
5, 24094, Note_on_c, 9, 55, 0
5, 24096, Note_on_c, 9, 55, 110
5, 24238, Note_on_c, 9, 55, 0
5, 24240, Note_on_c, 9, 55, 110
5, 24382, Note_on_c, 9, 55, 0
5, 24384, Note_on_c, 9, 55, 110
5, 24478, Note_on_c, 9, 55, 0
5, 24480, Note_on_c, 9, 55, 110
5, 24574, Note_on_c, 9, 55, 0
5, 24720, Note_on_c, 9, 55, 110
5, 24862, Note_on_c, 9, 55, 0
5, 24864, Note_on_c, 9, 55, 110
5, 25006, Note_on_c, 9, 55, 0
5, 25008, Note_on_c, 9, 55, 110
5, 25150, Note_on_c, 9, 55, 0
5, 25152, Note_on_c, 9, 55, 110
5, 25246, Note_on_c, 9, 55, 0
5, 25248, Note_on_c, 9, 55, 110
5, 25342, Note_on_c, 9, 55, 0
5, 25488, Note_on_c, 9, 55, 110
5, 25630, Note_on_c, 9, 55, 0
5, 25632, Note_on_c, 9, 55, 110
5, 25774, Note_on_c, 9, 55, 0
5, 25776, Note_on_c, 9, 55, 110
5, 25918, Note_on_c, 9, 55, 0
5, 25920, Note_on_c, 9, 55, 110
5, 26014, Note_on_c, 9, 55, 0
5, 26016, Note_on_c, 9, 55, 110
5, 26110, Note_on_c, 9, 55, 0
5, 26256, Note_on_c, 9, 55, 110
5, 26398, Note_on_c, 9, 55, 0
5, 26400, Note_on_c, 9, 55, 110
5, 26542, Note_on_c, 9, 55, 0
5, 26544, Note_on_c, 9, 55, 110
5, 26686, Note_on_c, 9, 55, 0
5, 26688, Note_on_c, 9, 55, 110
5, 26782, Note_on_c, 9, 55, 0
5, 26784, Note_on_c, 9, 55, 110
5, 26878, Note_on_c, 9, 55, 0
5, 27024, Note_on_c, 9, 55, 110
5, 27166, Note_on_c, 9, 55, 0
5, 27168, Note_on_c, 9, 55, 110
5, 27310, Note_on_c, 9, 55, 0
5, 27312, Note_on_c, 9, 55, 110
5, 27454, Note_on_c, 9, 55, 0
5, 27456, Note_on_c, 9, 55, 110
5, 27550, Note_on_c, 9, 55, 0
5, 27552, Note_on_c, 9, 55, 110
5, 27646, Note_on_c, 9, 55, 0
5, 27792, Note_on_c, 9, 55, 110
5, 27934, Note_on_c, 9, 55, 0
5, 27936, Note_on_c, 9, 55, 110
5, 28078, Note_on_c, 9, 55, 0
5, 28080, Note_on_c, 9, 55, 110
5, 28222, Note_on_c, 9, 55, 0
5, 28224, Note_on_c, 9, 55, 110
5, 28318, Note_on_c, 9, 55, 0
5, 28320, Note_on_c, 9, 55, 110
5, 28414, Note_on_c, 9, 55, 0
5, 28560, Note_on_c, 9, 55, 110
5, 28702, Note_on_c, 9, 55, 0
5, 28704, Note_on_c, 9, 55, 110
5, 28846, Note_on_c, 9, 55, 0
5, 28848, Note_on_c, 9, 55, 110
5, 28990, Note_on_c, 9, 55, 0
5, 28992, Note_on_c, 9, 55, 110
5, 29086, Note_on_c, 9, 55, 0
5, 29088, Note_on_c, 9, 55, 110
5, 29182, Note_on_c, 9, 55, 0
5, 29328, Note_on_c, 9, 55, 110
5, 29470, Note_on_c, 9, 55, 0
5, 29472, Note_on_c, 9, 55, 110
5, 29614, Note_on_c, 9, 55, 0
5, 29616, Note_on_c, 9, 55, 110
5, 29758, Note_on_c, 9, 55, 0
5, 29760, Note_on_c, 9, 55, 110
5, 29854, Note_on_c, 9, 55, 0
5, 29856, Note_on_c, 9, 55, 110
5, 29950, Note_on_c, 9, 55, 0
5, 30096, Note_on_c, 9, 55, 110
5, 30238, Note_on_c, 9, 55, 0
5, 30240, Note_on_c, 9, 55, 110
5, 30382, Note_on_c, 9, 55, 0
5, 30384, Note_on_c, 9, 55, 110
5, 30526, Note_on_c, 9, 55, 0
5, 30528, Note_on_c, 9, 55, 110
5, 30622, Note_on_c, 9, 55, 0
5, 30624, Note_on_c, 9, 55, 110
5, 30718, Note_on_c, 9, 55, 0
5, 30864, Note_on_c, 9, 55, 110
5, 31006, Note_on_c, 9, 55, 0
5, 31008, Note_on_c, 9, 55, 110
5, 31150, Note_on_c, 9, 55, 0
5, 31152, Note_on_c, 9, 55, 110
5, 31294, Note_on_c, 9, 55, 0
5, 31296, Note_on_c, 9, 55, 110
5, 31390, Note_on_c, 9, 55, 0
5, 31392, Note_on_c, 9, 55, 110
5, 31486, Note_on_c, 9, 55, 0
5, 31632, Note_on_c, 9, 55, 110
5, 31774, Note_on_c, 9, 55, 0
5, 31776, Note_on_c, 9, 55, 110
5, 31918, Note_on_c, 9, 55, 0
5, 31920, Note_on_c, 9, 55, 110
5, 32062, Note_on_c, 9, 55, 0
5, 32064, Note_on_c, 9, 55, 110
5, 32158, Note_on_c, 9, 55, 0
5, 32160, Note_on_c, 9, 55, 110
5, 32254, Note_on_c, 9, 55, 0
5, 32400, Note_on_c, 9, 55, 110
5, 32542, Note_on_c, 9, 55, 0
5, 32544, Note_on_c, 9, 55, 110
5, 32686, Note_on_c, 9, 55, 0
5, 32688, Note_on_c, 9, 55, 110
5, 32830, Note_on_c, 9, 55, 0
5, 32832, Note_on_c, 9, 55, 110
5, 32926, Note_on_c, 9, 55, 0
5, 32928, Note_on_c, 9, 55, 110
5, 33022, Note_on_c, 9, 55, 0
5, 33168, Note_on_c, 9, 55, 110
5, 33310, Note_on_c, 9, 55, 0
5, 33312, Note_on_c, 9, 55, 110
5, 33454, Note_on_c, 9, 55, 0
5, 33456, Note_on_c, 9, 55, 110
5, 33598, Note_on_c, 9, 55, 0
5, 33600, Note_on_c, 9, 55, 110
5, 33694, Note_on_c, 9, 55, 0
5, 33696, Note_on_c, 9, 55, 110
5, 33790, Note_on_c, 9, 55, 0
5, 33936, Note_on_c, 9, 55, 110
5, 34078, Note_on_c, 9, 55, 0
5, 34080, Note_on_c, 9, 55, 110
5, 34222, Note_on_c, 9, 55, 0
5, 34224, Note_on_c, 9, 55, 110
5, 34366, Note_on_c, 9, 55, 0
5, 34368, Note_on_c, 9, 55, 110
5, 34462, Note_on_c, 9, 55, 0
5, 34464, Note_on_c, 9, 55, 110
5, 34558, Note_on_c, 9, 55, 0
5, 34560, Note_on_c, 9, 55, 110
5, 35280, Note_on_c, 9, 55, 0
5, 35280, End_track
0, 0, End_of_file
