0, 0, Header, 1, 9, 192
1, 0, Start_track
1, 0, Title_t, "Warriors_-_Imagine_Dragons"
1, 0, Tempo, 517241
1, 0, Tempo, 517241
1, 0, Key_signature, 1, "major"
1, 0, Time_signature, 6, 3, 24, 8
1, 0, End_track
2, 0, Start_track
2, 0, MIDI_port, 0
2, 0, Title_t, "Staff"
2, 0, Program_c, 0, 0
2, 0, Pitch_bend_c, 0, 8192
2, 0, Control_c, 0, 7, 127
2, 0, Control_c, 0, 10, 64
2, 0, Note_on_c, 0, 55, 110
2, 0, Note_on_c, 0, 59, 110
2, 0, Note_on_c, 0, 64, 110
2, 142, Note_on_c, 0, 55, 0
2, 142, Note_on_c, 0, 59, 0
2, 142, Note_on_c, 0, 64, 0
2, 144, Note_on_c, 0, 55, 110
2, 144, Note_on_c, 0, 59, 110
2, 144, Note_on_c, 0, 64, 110
2, 190, Note_on_c, 0, 55, 0
2, 190, Note_on_c, 0, 59, 0
2, 190, Note_on_c, 0, 64, 0
2, 192, Note_on_c, 0, 55, 110
2, 192, Note_on_c, 0, 59, 110
2, 192, Note_on_c, 0, 64, 110
2, 238, Note_on_c, 0, 55, 0
2, 238, Note_on_c, 0, 59, 0
2, 238, Note_on_c, 0, 64, 0
2, 240, Note_on_c, 0, 55, 110
2, 240, Note_on_c, 0, 59, 110
2, 240, Note_on_c, 0, 64, 110
2, 286, Note_on_c, 0, 55, 0
2, 286, Note_on_c, 0, 59, 0
2, 286, Note_on_c, 0, 64, 0
2, 288, Note_on_c, 0, 55, 110
2, 288, Note_on_c, 0, 59, 110
2, 288, Note_on_c, 0, 64, 110
2, 430, Note_on_c, 0, 55, 0
2, 430, Note_on_c, 0, 59, 0
2, 430, Note_on_c, 0, 64, 0
2, 432, Note_on_c, 0, 55, 110
2, 432, Note_on_c, 0, 59, 110
2, 432, Note_on_c, 0, 64, 110
2, 478, Note_on_c, 0, 55, 0
2, 478, Note_on_c, 0, 59, 0
2, 478, Note_on_c, 0, 64, 0
2, 480, Note_on_c, 0, 55, 110
2, 480, Note_on_c, 0, 59, 110
2, 480, Note_on_c, 0, 64, 110
2, 526, Note_on_c, 0, 55, 0
2, 526, Note_on_c, 0, 59, 0
2, 526, Note_on_c, 0, 64, 0
2, 528, Note_on_c, 0, 55, 110
2, 528, Note_on_c, 0, 59, 110
2, 528, Note_on_c, 0, 64, 110
2, 574, Note_on_c, 0, 55, 0
2, 574, Note_on_c, 0, 59, 0
2, 574, Note_on_c, 0, 64, 0
2, 576, Note_on_c, 0, 57, 110
2, 576, Note_on_c, 0, 62, 110
2, 576, Note_on_c, 0, 66, 110
2, 718, Note_on_c, 0, 57, 0
2, 718, Note_on_c, 0, 62, 0
2, 718, Note_on_c, 0, 66, 0
2, 720, Note_on_c, 0, 57, 110
2, 720, Note_on_c, 0, 62, 110
2, 720, Note_on_c, 0, 66, 110
2, 766, Note_on_c, 0, 57, 0
2, 766, Note_on_c, 0, 62, 0
2, 766, Note_on_c, 0, 66, 0
2, 768, Note_on_c, 0, 57, 110
2, 768, Note_on_c, 0, 62, 110
2, 768, Note_on_c, 0, 66, 110
2, 814, Note_on_c, 0, 57, 0
2, 814, Note_on_c, 0, 62, 0
2, 814, Note_on_c, 0, 66, 0
2, 816, Note_on_c, 0, 57, 110
2, 816, Note_on_c, 0, 62, 110
2, 816, Note_on_c, 0, 66, 110
2, 862, Note_on_c, 0, 57, 0
2, 862, Note_on_c, 0, 62, 0
2, 862, Note_on_c, 0, 66, 0
2, 864, Note_on_c, 0, 57, 110
2, 864, Note_on_c, 0, 62, 110
2, 864, Note_on_c, 0, 66, 110
2, 1006, Note_on_c, 0, 57, 0
2, 1006, Note_on_c, 0, 62, 0
2, 1006, Note_on_c, 0, 66, 0
2, 1008, Note_on_c, 0, 57, 110
2, 1008, Note_on_c, 0, 62, 110
2, 1008, Note_on_c, 0, 66, 110
2, 1054, Note_on_c, 0, 57, 0
2, 1054, Note_on_c, 0, 62, 0
2, 1054, Note_on_c, 0, 66, 0
2, 1056, Note_on_c, 0, 57, 110
2, 1056, Note_on_c, 0, 62, 110
2, 1056, Note_on_c, 0, 66, 110
2, 1102, Note_on_c, 0, 57, 0
2, 1102, Note_on_c, 0, 62, 0
2, 1102, Note_on_c, 0, 66, 0
2, 1104, Note_on_c, 0, 57, 110
2, 1104, Note_on_c, 0, 62, 110
2, 1104, Note_on_c, 0, 66, 110
2, 1150, Note_on_c, 0, 57, 0
2, 1150, Note_on_c, 0, 62, 0
2, 1150, Note_on_c, 0, 66, 0
2, 1152, Note_on_c, 0, 55, 110
2, 1152, Note_on_c, 0, 60, 110
2, 1152, Note_on_c, 0, 64, 110
2, 1294, Note_on_c, 0, 55, 0
2, 1294, Note_on_c, 0, 60, 0
2, 1294, Note_on_c, 0, 64, 0
2, 1296, Note_on_c, 0, 55, 110
2, 1296, Note_on_c, 0, 60, 110
2, 1296, Note_on_c, 0, 64, 110
2, 1342, Note_on_c, 0, 55, 0
2, 1342, Note_on_c, 0, 60, 0
2, 1342, Note_on_c, 0, 64, 0
2, 1344, Note_on_c, 0, 55, 110
2, 1344, Note_on_c, 0, 60, 110
2, 1344, Note_on_c, 0, 64, 110
2, 1390, Note_on_c, 0, 55, 0
2, 1390, Note_on_c, 0, 60, 0
2, 1390, Note_on_c, 0, 64, 0
2, 1392, Note_on_c, 0, 55, 110
2, 1392, Note_on_c, 0, 60, 110
2, 1392, Note_on_c, 0, 64, 110
2, 1438, Note_on_c, 0, 55, 0
2, 1438, Note_on_c, 0, 60, 0
2, 1438, Note_on_c, 0, 64, 0
2, 1440, Note_on_c, 0, 55, 110
2, 1440, Note_on_c, 0, 60, 110
2, 1440, Note_on_c, 0, 64, 110
2, 1582, Note_on_c, 0, 55, 0
2, 1582, Note_on_c, 0, 60, 0
2, 1582, Note_on_c, 0, 64, 0
2, 1584, Note_on_c, 0, 55, 110
2, 1584, Note_on_c, 0, 60, 110
2, 1584, Note_on_c, 0, 64, 110
2, 1630, Note_on_c, 0, 55, 0
2, 1630, Note_on_c, 0, 60, 0
2, 1630, Note_on_c, 0, 64, 0
2, 1632, Note_on_c, 0, 55, 110
2, 1632, Note_on_c, 0, 60, 110
2, 1632, Note_on_c, 0, 64, 110
2, 1678, Note_on_c, 0, 55, 0
2, 1678, Note_on_c, 0, 60, 0
2, 1678, Note_on_c, 0, 64, 0
2, 1680, Note_on_c, 0, 55, 110
2, 1680, Note_on_c, 0, 60, 110
2, 1680, Note_on_c, 0, 64, 110
2, 1726, Note_on_c, 0, 55, 0
2, 1726, Note_on_c, 0, 60, 0
2, 1726, Note_on_c, 0, 64, 0
2, 1728, Note_on_c, 0, 54, 110
2, 1728, Note_on_c, 0, 59, 110
2, 1728, Note_on_c, 0, 63, 110
2, 1870, Note_on_c, 0, 54, 0
2, 1870, Note_on_c, 0, 59, 0
2, 1870, Note_on_c, 0, 63, 0
2, 1872, Note_on_c, 0, 54, 110
2, 1872, Note_on_c, 0, 59, 110
2, 1872, Note_on_c, 0, 63, 110
2, 1918, Note_on_c, 0, 54, 0
2, 1918, Note_on_c, 0, 59, 0
2, 1918, Note_on_c, 0, 63, 0
2, 1920, Note_on_c, 0, 54, 110
2, 1920, Note_on_c, 0, 59, 110
2, 1920, Note_on_c, 0, 63, 110
2, 1966, Note_on_c, 0, 54, 0
2, 1966, Note_on_c, 0, 59, 0
2, 1966, Note_on_c, 0, 63, 0
2, 1968, Note_on_c, 0, 54, 110
2, 1968, Note_on_c, 0, 59, 110
2, 1968, Note_on_c, 0, 63, 110
2, 2014, Note_on_c, 0, 54, 0
2, 2014, Note_on_c, 0, 59, 0
2, 2014, Note_on_c, 0, 63, 0
2, 2016, Note_on_c, 0, 54, 110
2, 2016, Note_on_c, 0, 59, 110
2, 2016, Note_on_c, 0, 63, 110
2, 2110, Note_on_c, 0, 54, 0
2, 2110, Note_on_c, 0, 59, 0
2, 2110, Note_on_c, 0, 63, 0
2, 2112, Note_on_c, 0, 59, 110
2, 2206, Note_on_c, 0, 59, 0
2, 2208, Note_on_c, 0, 59, 110
2, 2302, Note_on_c, 0, 59, 0
2, 2304, Note_on_c, 0, 64, 110
2, 2640, Note_on_c, 0, 64, 0
2, 2688, Note_on_c, 0, 64, 110
2, 2782, Note_on_c, 0, 64, 0
2, 2784, Note_on_c, 0, 67, 110
2, 2878, Note_on_c, 0, 67, 0
2, 2880, Note_on_c, 0, 66, 110
2, 3310, Note_on_c, 0, 66, 0
2, 3312, Note_on_c, 0, 66, 110
2, 3406, Note_on_c, 0, 66, 0
2, 3408, Note_on_c, 0, 67, 110
2, 3598, Note_on_c, 0, 67, 0
2, 3600, Note_on_c, 0, 67, 110
2, 3694, Note_on_c, 0, 67, 0
2, 3696, Note_on_c, 0, 67, 110
2, 3886, Note_on_c, 0, 67, 0
2, 3888, Note_on_c, 0, 69, 110
2, 3934, Note_on_c, 0, 69, 0
2, 3936, Note_on_c, 0, 69, 110
2, 4288, Note_on_c, 0, 69, 0
2, 4416, Note_on_c, 0, 67, 110
2, 4510, Note_on_c, 0, 67, 0
2, 4512, Note_on_c, 0, 71, 110
2, 4606, Note_on_c, 0, 71, 0
2, 4608, Note_on_c, 0, 69, 110
2, 4750, Note_on_c, 0, 69, 0
2, 4752, Note_on_c, 0, 67, 110
2, 4846, Note_on_c, 0, 67, 0
2, 4848, Note_on_c, 0, 67, 110
2, 5038, Note_on_c, 0, 67, 0
2, 5040, Note_on_c, 0, 71, 110
2, 5134, Note_on_c, 0, 71, 0
2, 5136, Note_on_c, 0, 69, 110
2, 5326, Note_on_c, 0, 69, 0
2, 5328, Note_on_c, 0, 67, 110
2, 5422, Note_on_c, 0, 67, 0
2, 5424, Note_on_c, 0, 67, 110
2, 5614, Note_on_c, 0, 67, 0
2, 5616, Note_on_c, 0, 67, 110
2, 5710, Note_on_c, 0, 67, 0
2, 5712, Note_on_c, 0, 67, 110
2, 5854, Note_on_c, 0, 67, 0
2, 5856, Note_on_c, 0, 67, 110
2, 6016, Note_on_c, 0, 67, 0
2, 6048, Note_on_c, 0, 67, 110
2, 6190, Note_on_c, 0, 67, 0
2, 6192, Note_on_c, 0, 66, 110
2, 6286, Note_on_c, 0, 66, 0
2, 6288, Note_on_c, 0, 66, 110
2, 6814, Note_on_c, 0, 66, 0
2, 6816, Note_on_c, 0, 59, 110
2, 6910, Note_on_c, 0, 59, 0
2, 6912, Note_on_c, 0, 64, 110
2, 7006, Note_on_c, 0, 64, 0
2, 7008, Note_on_c, 0, 71, 110
2, 7008, Note_on_c, 0, 83, 110
2, 7102, Note_on_c, 0, 71, 0
2, 7102, Note_on_c, 0, 83, 0
2, 7104, Note_on_c, 0, 76, 110
2, 7104, Note_on_c, 0, 88, 110
2, 7198, Note_on_c, 0, 76, 0
2, 7198, Note_on_c, 0, 88, 0
2, 7200, Note_on_c, 0, 83, 110
2, 7200, Note_on_c, 0, 95, 110
2, 7360, Note_on_c, 0, 83, 0
2, 7360, Note_on_c, 0, 95, 0
2, 7392, Note_on_c, 0, 67, 110
2, 7486, Note_on_c, 0, 67, 0
2, 7488, Note_on_c, 0, 66, 110
2, 7648, Note_on_c, 0, 66, 0
2, 7680, Note_on_c, 0, 71, 110
2, 7680, Note_on_c, 0, 83, 110
2, 7774, Note_on_c, 0, 71, 0
2, 7774, Note_on_c, 0, 83, 0
2, 7776, Note_on_c, 0, 74, 110
2, 7776, Note_on_c, 0, 86, 110
2, 7936, Note_on_c, 0, 74, 0
2, 7936, Note_on_c, 0, 86, 0
2, 7968, Note_on_c, 0, 67, 110
2, 8062, Note_on_c, 0, 67, 0
2, 8064, Note_on_c, 0, 67, 110
2, 8224, Note_on_c, 0, 67, 0
2, 8256, Note_on_c, 0, 67, 110
2, 8350, Note_on_c, 0, 67, 0
2, 8352, Note_on_c, 0, 67, 110
2, 8512, Note_on_c, 0, 67, 0
2, 8544, Note_on_c, 0, 69, 110
2, 8638, Note_on_c, 0, 69, 0
2, 8640, Note_on_c, 0, 69, 110
2, 8734, Note_on_c, 0, 69, 0
2, 8736, Note_on_c, 0, 71, 110
2, 8736, Note_on_c, 0, 83, 110
2, 8830, Note_on_c, 0, 71, 0
2, 8830, Note_on_c, 0, 83, 0
2, 8832, Note_on_c, 0, 71, 110
2, 8832, Note_on_c, 0, 83, 110
2, 8926, Note_on_c, 0, 71, 0
2, 8926, Note_on_c, 0, 83, 0
2, 8928, Note_on_c, 0, 81, 110
2, 8928, Note_on_c, 0, 93, 110
2, 9088, Note_on_c, 0, 81, 0
2, 9088, Note_on_c, 0, 93, 0
2, 9120, Note_on_c, 0, 71, 110
2, 9214, Note_on_c, 0, 71, 0
2, 9216, Note_on_c, 0, 69, 110
2, 9376, Note_on_c, 0, 69, 0
2, 9408, Note_on_c, 0, 67, 110
2, 9502, Note_on_c, 0, 67, 0
2, 9504, Note_on_c, 0, 67, 110
2, 9664, Note_on_c, 0, 67, 0
2, 9696, Note_on_c, 0, 71, 110
2, 9790, Note_on_c, 0, 71, 0
2, 9792, Note_on_c, 0, 69, 110
2, 9952, Note_on_c, 0, 69, 0
2, 9984, Note_on_c, 0, 67, 110
2, 10078, Note_on_c, 0, 67, 0
2, 10080, Note_on_c, 0, 67, 110
2, 10240, Note_on_c, 0, 67, 0
2, 10272, Note_on_c, 0, 67, 110
2, 10366, Note_on_c, 0, 67, 0
2, 10368, Note_on_c, 0, 67, 110
2, 10528, Note_on_c, 0, 67, 0
2, 10560, Note_on_c, 0, 67, 110
2, 10750, Note_on_c, 0, 67, 0
2, 10752, Note_on_c, 0, 67, 110
2, 10846, Note_on_c, 0, 67, 0
2, 10848, Note_on_c, 0, 66, 110
2, 10942, Note_on_c, 0, 66, 0
2, 10944, Note_on_c, 0, 66, 110
2, 11038, Note_on_c, 0, 66, 0
2, 11040, Note_on_c, 0, 76, 110
2, 11086, Note_on_c, 0, 76, 0
2, 11088, Note_on_c, 0, 75, 110
2, 11134, Note_on_c, 0, 75, 0
2, 11136, Note_on_c, 0, 72, 110
2, 11182, Note_on_c, 0, 72, 0
2, 11184, Note_on_c, 0, 71, 110
2, 11230, Note_on_c, 0, 71, 0
2, 11232, Note_on_c, 0, 69, 110
2, 11278, Note_on_c, 0, 69, 0
2, 11280, Note_on_c, 0, 67, 110
2, 11326, Note_on_c, 0, 67, 0
2, 11328, Note_on_c, 0, 66, 110
2, 11374, Note_on_c, 0, 66, 0
2, 11376, Note_on_c, 0, 64, 110
2, 11422, Note_on_c, 0, 64, 0
2, 11424, Note_on_c, 0, 63, 110
2, 11518, Note_on_c, 0, 63, 0
2, 11520, Note_on_c, 0, 64, 110
2, 11520, Note_on_c, 0, 71, 110
2, 11520, Note_on_c, 0, 76, 110
2, 11776, Note_on_c, 0, 64, 0
2, 11776, Note_on_c, 0, 71, 0
2, 11776, Note_on_c, 0, 76, 0
2, 11808, Note_on_c, 0, 59, 110
2, 11808, Note_on_c, 0, 64, 110
2, 11808, Note_on_c, 0, 67, 110
2, 11968, Note_on_c, 0, 59, 0
2, 11968, Note_on_c, 0, 64, 0
2, 11968, Note_on_c, 0, 67, 0
2, 12000, Note_on_c, 0, 64, 110
2, 12000, Note_on_c, 0, 71, 110
2, 12000, Note_on_c, 0, 76, 110
2, 12094, Note_on_c, 0, 64, 0
2, 12094, Note_on_c, 0, 71, 0
2, 12094, Note_on_c, 0, 76, 0
2, 12096, Note_on_c, 0, 64, 110
2, 12096, Note_on_c, 0, 71, 110
2, 12096, Note_on_c, 0, 76, 110
2, 12256, Note_on_c, 0, 64, 0
2, 12256, Note_on_c, 0, 71, 0
2, 12256, Note_on_c, 0, 76, 0
2, 12288, Note_on_c, 0, 64, 110
2, 12288, Note_on_c, 0, 71, 110
2, 12288, Note_on_c, 0, 76, 110
2, 12382, Note_on_c, 0, 64, 0
2, 12382, Note_on_c, 0, 71, 0
2, 12382, Note_on_c, 0, 76, 0
2, 12384, Note_on_c, 0, 64, 110
2, 12384, Note_on_c, 0, 71, 110
2, 12384, Note_on_c, 0, 76, 110
2, 12544, Note_on_c, 0, 64, 0
2, 12544, Note_on_c, 0, 71, 0
2, 12544, Note_on_c, 0, 76, 0
2, 12576, Note_on_c, 0, 64, 110
2, 12576, Note_on_c, 0, 71, 110
2, 12576, Note_on_c, 0, 76, 110
2, 12670, Note_on_c, 0, 64, 0
2, 12670, Note_on_c, 0, 71, 0
2, 12670, Note_on_c, 0, 76, 0
2, 12672, Note_on_c, 0, 64, 110
2, 12672, Note_on_c, 0, 71, 110
2, 12672, Note_on_c, 0, 76, 110
2, 12928, Note_on_c, 0, 64, 0
2, 12928, Note_on_c, 0, 71, 0
2, 12928, Note_on_c, 0, 76, 0
2, 12960, Note_on_c, 0, 60, 110
2, 12960, Note_on_c, 0, 64, 110
2, 12960, Note_on_c, 0, 67, 110
2, 13216, Note_on_c, 0, 60, 0
2, 13216, Note_on_c, 0, 64, 0
2, 13216, Note_on_c, 0, 67, 0
2, 13248, Note_on_c, 0, 63, 110
2, 13248, Note_on_c, 0, 71, 110
2, 13248, Note_on_c, 0, 75, 110
2, 13504, Note_on_c, 0, 63, 0
2, 13504, Note_on_c, 0, 71, 0
2, 13504, Note_on_c, 0, 75, 0
2, 13536, Note_on_c, 0, 59, 110
2, 13536, Note_on_c, 0, 63, 110
2, 13536, Note_on_c, 0, 66, 110
2, 13792, Note_on_c, 0, 59, 0
2, 13792, Note_on_c, 0, 63, 0
2, 13792, Note_on_c, 0, 66, 0
2, 13824, Note_on_c, 0, 59, 110
2, 13824, Note_on_c, 0, 64, 110
2, 13824, Note_on_c, 0, 71, 110
2, 14080, Note_on_c, 0, 59, 0
2, 14080, Note_on_c, 0, 64, 0
2, 14080, Note_on_c, 0, 71, 0
2, 14112, Note_on_c, 0, 59, 110
2, 14112, Note_on_c, 0, 64, 110
2, 14112, Note_on_c, 0, 67, 110
2, 14272, Note_on_c, 0, 59, 0
2, 14272, Note_on_c, 0, 64, 0
2, 14272, Note_on_c, 0, 67, 0
2, 14304, Note_on_c, 0, 59, 110
2, 14304, Note_on_c, 0, 64, 110
2, 14304, Note_on_c, 0, 71, 110
2, 14398, Note_on_c, 0, 59, 0
2, 14398, Note_on_c, 0, 64, 0
2, 14398, Note_on_c, 0, 71, 0
2, 14400, Note_on_c, 0, 59, 110
2, 14400, Note_on_c, 0, 62, 110
2, 14400, Note_on_c, 0, 71, 110
2, 14560, Note_on_c, 0, 59, 0
2, 14560, Note_on_c, 0, 62, 0
2, 14560, Note_on_c, 0, 71, 0
2, 14592, Note_on_c, 0, 55, 110
2, 14592, Note_on_c, 0, 59, 110
2, 14592, Note_on_c, 0, 67, 110
2, 14686, Note_on_c, 0, 55, 0
2, 14686, Note_on_c, 0, 59, 0
2, 14686, Note_on_c, 0, 67, 0
2, 14688, Note_on_c, 0, 55, 110
2, 14688, Note_on_c, 0, 59, 110
2, 14688, Note_on_c, 0, 67, 110
2, 14848, Note_on_c, 0, 55, 0
2, 14848, Note_on_c, 0, 59, 0
2, 14848, Note_on_c, 0, 67, 0
2, 14880, Note_on_c, 0, 59, 110
2, 14880, Note_on_c, 0, 64, 110
2, 14880, Note_on_c, 0, 71, 110
2, 14974, Note_on_c, 0, 59, 0
2, 14974, Note_on_c, 0, 64, 0
2, 14974, Note_on_c, 0, 71, 0
2, 14976, Note_on_c, 0, 60, 110
2, 14976, Note_on_c, 0, 64, 110
2, 14976, Note_on_c, 0, 71, 110
2, 15232, Note_on_c, 0, 60, 0
2, 15232, Note_on_c, 0, 64, 0
2, 15232, Note_on_c, 0, 71, 0
2, 15264, Note_on_c, 0, 60, 110
2, 15264, Note_on_c, 0, 64, 110
2, 15264, Note_on_c, 0, 69, 110
2, 15520, Note_on_c, 0, 60, 0
2, 15520, Note_on_c, 0, 64, 0
2, 15520, Note_on_c, 0, 69, 0
2, 15552, Note_on_c, 0, 59, 110
2, 15552, Note_on_c, 0, 63, 110
2, 15552, Note_on_c, 0, 71, 110
2, 15808, Note_on_c, 0, 59, 0
2, 15808, Note_on_c, 0, 63, 0
2, 15808, Note_on_c, 0, 71, 0
2, 15840, Note_on_c, 0, 47, 110
2, 15840, Note_on_c, 0, 51, 110
2, 15840, Note_on_c, 0, 59, 110
2, 16096, Note_on_c, 0, 47, 0
2, 16096, Note_on_c, 0, 51, 0
2, 16096, Note_on_c, 0, 59, 0
2, 16128, Note_on_c, 0, 64, 110
2, 16128, Note_on_c, 0, 71, 110
2, 16128, Note_on_c, 0, 76, 110
2, 16384, Note_on_c, 0, 64, 0
2, 16384, Note_on_c, 0, 71, 0
2, 16384, Note_on_c, 0, 76, 0
2, 16416, Note_on_c, 0, 59, 110
2, 16416, Note_on_c, 0, 64, 110
2, 16416, Note_on_c, 0, 67, 110
2, 16576, Note_on_c, 0, 59, 0
2, 16576, Note_on_c, 0, 64, 0
2, 16576, Note_on_c, 0, 67, 0
2, 16608, Note_on_c, 0, 64, 110
2, 16608, Note_on_c, 0, 71, 110
2, 16608, Note_on_c, 0, 76, 110
2, 16702, Note_on_c, 0, 64, 0
2, 16702, Note_on_c, 0, 71, 0
2, 16702, Note_on_c, 0, 76, 0
2, 16704, Note_on_c, 0, 64, 110
2, 16704, Note_on_c, 0, 71, 110
2, 16704, Note_on_c, 0, 76, 110
2, 16864, Note_on_c, 0, 64, 0
2, 16864, Note_on_c, 0, 71, 0
2, 16864, Note_on_c, 0, 76, 0
2, 16896, Note_on_c, 0, 64, 110
2, 16896, Note_on_c, 0, 71, 110
2, 16896, Note_on_c, 0, 76, 110
2, 16990, Note_on_c, 0, 64, 0
2, 16990, Note_on_c, 0, 71, 0
2, 16990, Note_on_c, 0, 76, 0
2, 16992, Note_on_c, 0, 64, 110
2, 16992, Note_on_c, 0, 71, 110
2, 16992, Note_on_c, 0, 76, 110
2, 17152, Note_on_c, 0, 64, 0
2, 17152, Note_on_c, 0, 71, 0
2, 17152, Note_on_c, 0, 76, 0
2, 17184, Note_on_c, 0, 64, 110
2, 17184, Note_on_c, 0, 71, 110
2, 17184, Note_on_c, 0, 76, 110
2, 17278, Note_on_c, 0, 64, 0
2, 17278, Note_on_c, 0, 71, 0
2, 17278, Note_on_c, 0, 76, 0
2, 17280, Note_on_c, 0, 64, 110
2, 17280, Note_on_c, 0, 71, 110
2, 17280, Note_on_c, 0, 76, 110
2, 17536, Note_on_c, 0, 64, 0
2, 17536, Note_on_c, 0, 71, 0
2, 17536, Note_on_c, 0, 76, 0
2, 17568, Note_on_c, 0, 60, 110
2, 17568, Note_on_c, 0, 64, 110
2, 17568, Note_on_c, 0, 67, 110
2, 17710, Note_on_c, 0, 60, 0
2, 17710, Note_on_c, 0, 64, 0
2, 17710, Note_on_c, 0, 67, 0
2, 17712, Note_on_c, 0, 66, 110
2, 17712, Note_on_c, 0, 78, 110
2, 17758, Note_on_c, 0, 66, 0
2, 17758, Note_on_c, 0, 78, 0
2, 17760, Note_on_c, 0, 64, 110
2, 17760, Note_on_c, 0, 76, 110
2, 17854, Note_on_c, 0, 64, 0
2, 17854, Note_on_c, 0, 76, 0
2, 17856, Note_on_c, 0, 63, 110
2, 17856, Note_on_c, 0, 75, 110
2, 18112, Note_on_c, 0, 63, 0
2, 18112, Note_on_c, 0, 75, 0
2, 18144, Note_on_c, 0, 59, 110
2, 18144, Note_on_c, 0, 63, 110
2, 18144, Note_on_c, 0, 66, 110
2, 18238, Note_on_c, 0, 59, 0
2, 18238, Note_on_c, 0, 63, 0
2, 18238, Note_on_c, 0, 66, 0
2, 18432, Note_on_c, 0, 59, 110
2, 18432, Note_on_c, 0, 64, 110
2, 18432, Note_on_c, 0, 71, 110
2, 18688, Note_on_c, 0, 59, 0
2, 18688, Note_on_c, 0, 64, 0
2, 18688, Note_on_c, 0, 71, 0
2, 18720, Note_on_c, 0, 59, 110
2, 18720, Note_on_c, 0, 64, 110
2, 18720, Note_on_c, 0, 67, 110
2, 18880, Note_on_c, 0, 59, 0
2, 18880, Note_on_c, 0, 64, 0
2, 18880, Note_on_c, 0, 67, 0
2, 18912, Note_on_c, 0, 59, 110
2, 18912, Note_on_c, 0, 64, 110
2, 18912, Note_on_c, 0, 71, 110
2, 19006, Note_on_c, 0, 59, 0
2, 19006, Note_on_c, 0, 64, 0
2, 19006, Note_on_c, 0, 71, 0
2, 19008, Note_on_c, 0, 59, 110
2, 19008, Note_on_c, 0, 62, 110
2, 19008, Note_on_c, 0, 71, 110
2, 19168, Note_on_c, 0, 59, 0
2, 19168, Note_on_c, 0, 62, 0
2, 19168, Note_on_c, 0, 71, 0
2, 19200, Note_on_c, 0, 55, 110
2, 19200, Note_on_c, 0, 59, 110
2, 19200, Note_on_c, 0, 67, 110
2, 19294, Note_on_c, 0, 55, 0
2, 19294, Note_on_c, 0, 59, 0
2, 19294, Note_on_c, 0, 67, 0
2, 19296, Note_on_c, 0, 55, 110
2, 19296, Note_on_c, 0, 59, 110
2, 19296, Note_on_c, 0, 67, 110
2, 19456, Note_on_c, 0, 55, 0
2, 19456, Note_on_c, 0, 59, 0
2, 19456, Note_on_c, 0, 67, 0
2, 19488, Note_on_c, 0, 59, 110
2, 19488, Note_on_c, 0, 64, 110
2, 19488, Note_on_c, 0, 71, 110
2, 19582, Note_on_c, 0, 59, 0
2, 19582, Note_on_c, 0, 64, 0
2, 19582, Note_on_c, 0, 71, 0
2, 19584, Note_on_c, 0, 60, 110
2, 19584, Note_on_c, 0, 64, 110
2, 19584, Note_on_c, 0, 71, 110
2, 19840, Note_on_c, 0, 60, 0
2, 19840, Note_on_c, 0, 64, 0
2, 19840, Note_on_c, 0, 71, 0
2, 19872, Note_on_c, 0, 60, 110
2, 19872, Note_on_c, 0, 64, 110
2, 19872, Note_on_c, 0, 69, 110
2, 20128, Note_on_c, 0, 60, 0
2, 20128, Note_on_c, 0, 64, 0
2, 20128, Note_on_c, 0, 69, 0
2, 20160, Note_on_c, 0, 59, 110
2, 20160, Note_on_c, 0, 63, 110
2, 20160, Note_on_c, 0, 71, 110
2, 20416, Note_on_c, 0, 59, 0
2, 20416, Note_on_c, 0, 63, 0
2, 20416, Note_on_c, 0, 71, 0
2, 20640, Note_on_c, 0, 59, 110
2, 20734, Note_on_c, 0, 59, 0
2, 20736, Note_on_c, 0, 55, 110
2, 20736, Note_on_c, 0, 59, 110
2, 20736, Note_on_c, 0, 64, 110
2, 20992, Note_on_c, 0, 55, 0
2, 20992, Note_on_c, 0, 59, 0
2, 20992, Note_on_c, 0, 64, 0
2, 21216, Note_on_c, 0, 67, 110
2, 21310, Note_on_c, 0, 67, 0
2, 21312, Note_on_c, 0, 55, 110
2, 21312, Note_on_c, 0, 59, 110
2, 21312, Note_on_c, 0, 66, 110
2, 21568, Note_on_c, 0, 55, 0
2, 21568, Note_on_c, 0, 59, 0
2, 21568, Note_on_c, 0, 66, 0
2, 21792, Note_on_c, 0, 67, 110
2, 21886, Note_on_c, 0, 67, 0
2, 21888, Note_on_c, 0, 60, 110
2, 21888, Note_on_c, 0, 64, 110
2, 21888, Note_on_c, 0, 67, 110
2, 22144, Note_on_c, 0, 60, 0
2, 22144, Note_on_c, 0, 64, 0
2, 22144, Note_on_c, 0, 67, 0
2, 22176, Note_on_c, 0, 60, 110
2, 22176, Note_on_c, 0, 64, 110
2, 22176, Note_on_c, 0, 67, 110
2, 22336, Note_on_c, 0, 60, 0
2, 22336, Note_on_c, 0, 64, 0
2, 22336, Note_on_c, 0, 67, 0
2, 22368, Note_on_c, 0, 69, 110
2, 22462, Note_on_c, 0, 69, 0
2, 22464, Note_on_c, 0, 60, 110
2, 22464, Note_on_c, 0, 64, 110
2, 22464, Note_on_c, 0, 69, 110
2, 22720, Note_on_c, 0, 60, 0
2, 22720, Note_on_c, 0, 64, 0
2, 22720, Note_on_c, 0, 69, 0
2, 22752, Note_on_c, 0, 62, 110
2, 22752, Note_on_c, 0, 64, 110
2, 22752, Note_on_c, 0, 69, 110
2, 22912, Note_on_c, 0, 62, 0
2, 22912, Note_on_c, 0, 64, 0
2, 22912, Note_on_c, 0, 69, 0
2, 22944, Note_on_c, 0, 71, 110
2, 23038, Note_on_c, 0, 71, 0
2, 23040, Note_on_c, 0, 59, 110
2, 23040, Note_on_c, 0, 62, 110
2, 23040, Note_on_c, 0, 69, 110
2, 23200, Note_on_c, 0, 59, 0
2, 23200, Note_on_c, 0, 62, 0
2, 23200, Note_on_c, 0, 69, 0
2, 23232, Note_on_c, 0, 67, 110
2, 23326, Note_on_c, 0, 67, 0
2, 23328, Note_on_c, 0, 60, 110
2, 23328, Note_on_c, 0, 64, 110
2, 23328, Note_on_c, 0, 67, 110
2, 23488, Note_on_c, 0, 60, 0
2, 23488, Note_on_c, 0, 64, 0
2, 23488, Note_on_c, 0, 67, 0
2, 23520, Note_on_c, 0, 71, 110
2, 23614, Note_on_c, 0, 71, 0
2, 23616, Note_on_c, 0, 59, 110
2, 23616, Note_on_c, 0, 62, 110
2, 23616, Note_on_c, 0, 69, 110
2, 23776, Note_on_c, 0, 59, 0
2, 23776, Note_on_c, 0, 62, 0
2, 23776, Note_on_c, 0, 69, 0
2, 23808, Note_on_c, 0, 67, 110
2, 23902, Note_on_c, 0, 67, 0
2, 23904, Note_on_c, 0, 60, 110
2, 23904, Note_on_c, 0, 64, 110
2, 23904, Note_on_c, 0, 67, 110
2, 24064, Note_on_c, 0, 60, 0
2, 24064, Note_on_c, 0, 64, 0
2, 24064, Note_on_c, 0, 67, 0
2, 24096, Note_on_c, 0, 67, 110
2, 24190, Note_on_c, 0, 67, 0
2, 24192, Note_on_c, 0, 59, 110
2, 24192, Note_on_c, 0, 64, 110
2, 24192, Note_on_c, 0, 67, 110
2, 24286, Note_on_c, 0, 59, 0
2, 24286, Note_on_c, 0, 64, 0
2, 24286, Note_on_c, 0, 67, 0
2, 24288, Note_on_c, 0, 59, 110
2, 24288, Note_on_c, 0, 64, 110
2, 24288, Note_on_c, 0, 67, 110
2, 24448, Note_on_c, 0, 59, 0
2, 24448, Note_on_c, 0, 64, 0
2, 24448, Note_on_c, 0, 67, 0
2, 24480, Note_on_c, 0, 59, 110
2, 24480, Note_on_c, 0, 64, 110
2, 24480, Note_on_c, 0, 67, 110
2, 24574, Note_on_c, 0, 59, 0
2, 24574, Note_on_c, 0, 64, 0
2, 24574, Note_on_c, 0, 67, 0
2, 24576, Note_on_c, 0, 59, 110
2, 24576, Note_on_c, 0, 63, 110
2, 24576, Note_on_c, 0, 66, 110
2, 24736, Note_on_c, 0, 59, 0
2, 24736, Note_on_c, 0, 63, 0
2, 24736, Note_on_c, 0, 66, 0
2, 24768, Note_on_c, 0, 59, 110
2, 24768, Note_on_c, 0, 63, 110
2, 24768, Note_on_c, 0, 66, 110
2, 25024, Note_on_c, 0, 59, 0
2, 25024, Note_on_c, 0, 63, 0
2, 25024, Note_on_c, 0, 66, 0
2, 25248, Note_on_c, 0, 59, 110
2, 25248, Note_on_c, 0, 71, 110
2, 25342, Note_on_c, 0, 59, 0
2, 25342, Note_on_c, 0, 71, 0
2, 25344, Note_on_c, 0, 64, 110
2, 25344, Note_on_c, 0, 67, 110
2, 25344, Note_on_c, 0, 76, 110
2, 25486, Note_on_c, 0, 64, 0
2, 25486, Note_on_c, 0, 67, 0
2, 25486, Note_on_c, 0, 76, 0
2, 25488, Note_on_c, 0, 59, 110
2, 25534, Note_on_c, 0, 59, 0
2, 25536, Note_on_c, 0, 64, 110
2, 25582, Note_on_c, 0, 64, 0
2, 25584, Note_on_c, 0, 67, 110
2, 25630, Note_on_c, 0, 67, 0
2, 25632, Note_on_c, 0, 71, 110
2, 25678, Note_on_c, 0, 71, 0
2, 25680, Note_on_c, 0, 76, 110
2, 25822, Note_on_c, 0, 76, 0
2, 25824, Note_on_c, 0, 67, 110
2, 25824, Note_on_c, 0, 71, 110
2, 25824, Note_on_c, 0, 79, 110
2, 25918, Note_on_c, 0, 67, 0
2, 25918, Note_on_c, 0, 71, 0
2, 25918, Note_on_c, 0, 79, 0
2, 25920, Note_on_c, 0, 66, 110
2, 25920, Note_on_c, 0, 69, 110
2, 25920, Note_on_c, 0, 78, 110
2, 26062, Note_on_c, 0, 66, 0
2, 26062, Note_on_c, 0, 69, 0
2, 26062, Note_on_c, 0, 78, 0
2, 26064, Note_on_c, 0, 59, 110
2, 26110, Note_on_c, 0, 59, 0
2, 26112, Note_on_c, 0, 64, 110
2, 26158, Note_on_c, 0, 64, 0
2, 26160, Note_on_c, 0, 67, 110
2, 26206, Note_on_c, 0, 67, 0
2, 26208, Note_on_c, 0, 71, 110
2, 26254, Note_on_c, 0, 71, 0
2, 26256, Note_on_c, 0, 76, 110
2, 26398, Note_on_c, 0, 76, 0
2, 26400, Note_on_c, 0, 79, 110
2, 26494, Note_on_c, 0, 79, 0
2, 26496, Note_on_c, 0, 67, 110
2, 26496, Note_on_c, 0, 71, 110
2, 26496, Note_on_c, 0, 79, 110
2, 26656, Note_on_c, 0, 67, 0
2, 26656, Note_on_c, 0, 71, 0
2, 26656, Note_on_c, 0, 79, 0
2, 26688, Note_on_c, 0, 67, 110
2, 26688, Note_on_c, 0, 71, 110
2, 26688, Note_on_c, 0, 79, 110
2, 26878, Note_on_c, 0, 67, 0
2, 26878, Note_on_c, 0, 71, 0
2, 26878, Note_on_c, 0, 79, 0
2, 26880, Note_on_c, 0, 67, 110
2, 26880, Note_on_c, 0, 71, 110
2, 26880, Note_on_c, 0, 79, 110
2, 26974, Note_on_c, 0, 67, 0
2, 26974, Note_on_c, 0, 71, 0
2, 26974, Note_on_c, 0, 79, 0
2, 26976, Note_on_c, 0, 69, 110
2, 26976, Note_on_c, 0, 72, 110
2, 26976, Note_on_c, 0, 81, 110
2, 27070, Note_on_c, 0, 69, 0
2, 27070, Note_on_c, 0, 72, 0
2, 27070, Note_on_c, 0, 81, 0
2, 27072, Note_on_c, 0, 69, 110
2, 27072, Note_on_c, 0, 72, 110
2, 27072, Note_on_c, 0, 81, 110
2, 27328, Note_on_c, 0, 69, 0
2, 27328, Note_on_c, 0, 72, 0
2, 27328, Note_on_c, 0, 81, 0
2, 27552, Note_on_c, 0, 71, 110
2, 27552, Note_on_c, 0, 83, 110
2, 27646, Note_on_c, 0, 71, 0
2, 27646, Note_on_c, 0, 83, 0
2, 27648, Note_on_c, 0, 69, 110
2, 27648, Note_on_c, 0, 72, 110
2, 27648, Note_on_c, 0, 81, 110
2, 27808, Note_on_c, 0, 69, 0
2, 27808, Note_on_c, 0, 72, 0
2, 27808, Note_on_c, 0, 81, 0
2, 27840, Note_on_c, 0, 67, 110
2, 27840, Note_on_c, 0, 71, 110
2, 27840, Note_on_c, 0, 79, 110
2, 27934, Note_on_c, 0, 67, 0
2, 27934, Note_on_c, 0, 71, 0
2, 27934, Note_on_c, 0, 79, 0
2, 27936, Note_on_c, 0, 67, 110
2, 27936, Note_on_c, 0, 71, 110
2, 27936, Note_on_c, 0, 79, 110
2, 28096, Note_on_c, 0, 67, 0
2, 28096, Note_on_c, 0, 71, 0
2, 28096, Note_on_c, 0, 79, 0
2, 28128, Note_on_c, 0, 71, 110
2, 28128, Note_on_c, 0, 83, 110
2, 28222, Note_on_c, 0, 71, 0
2, 28222, Note_on_c, 0, 83, 0
2, 28224, Note_on_c, 0, 69, 110
2, 28224, Note_on_c, 0, 72, 110
2, 28224, Note_on_c, 0, 81, 110
2, 28384, Note_on_c, 0, 69, 0
2, 28384, Note_on_c, 0, 72, 0
2, 28384, Note_on_c, 0, 81, 0
2, 28416, Note_on_c, 0, 67, 110
2, 28416, Note_on_c, 0, 71, 110
2, 28416, Note_on_c, 0, 79, 110
2, 28510, Note_on_c, 0, 67, 0
2, 28510, Note_on_c, 0, 71, 0
2, 28510, Note_on_c, 0, 79, 0
2, 28512, Note_on_c, 0, 67, 110
2, 28512, Note_on_c, 0, 71, 110
2, 28512, Note_on_c, 0, 79, 110
2, 28672, Note_on_c, 0, 67, 0
2, 28672, Note_on_c, 0, 71, 0
2, 28672, Note_on_c, 0, 79, 0
2, 28704, Note_on_c, 0, 67, 110
2, 28704, Note_on_c, 0, 71, 110
2, 28704, Note_on_c, 0, 79, 110
2, 28798, Note_on_c, 0, 67, 0
2, 28798, Note_on_c, 0, 71, 0
2, 28798, Note_on_c, 0, 79, 0
2, 28800, Note_on_c, 0, 67, 110
2, 28800, Note_on_c, 0, 71, 110
2, 28800, Note_on_c, 0, 79, 110
2, 28894, Note_on_c, 0, 67, 0
2, 28894, Note_on_c, 0, 71, 0
2, 28894, Note_on_c, 0, 79, 0
2, 28896, Note_on_c, 0, 67, 110
2, 28896, Note_on_c, 0, 71, 110
2, 28896, Note_on_c, 0, 79, 110
2, 29056, Note_on_c, 0, 67, 0
2, 29056, Note_on_c, 0, 71, 0
2, 29056, Note_on_c, 0, 79, 0
2, 29088, Note_on_c, 0, 67, 110
2, 29088, Note_on_c, 0, 71, 110
2, 29088, Note_on_c, 0, 79, 110
2, 29182, Note_on_c, 0, 67, 0
2, 29182, Note_on_c, 0, 71, 0
2, 29182, Note_on_c, 0, 79, 0
2, 29184, Note_on_c, 0, 66, 110
2, 29184, Note_on_c, 0, 69, 110
2, 29184, Note_on_c, 0, 78, 110
2, 29344, Note_on_c, 0, 66, 0
2, 29344, Note_on_c, 0, 69, 0
2, 29344, Note_on_c, 0, 78, 0
2, 29376, Note_on_c, 0, 66, 110
2, 29376, Note_on_c, 0, 69, 110
2, 29376, Note_on_c, 0, 78, 110
2, 29518, Note_on_c, 0, 66, 0
2, 29518, Note_on_c, 0, 69, 0
2, 29518, Note_on_c, 0, 78, 0
2, 29520, Note_on_c, 0, 43, 110
2, 29566, Note_on_c, 0, 43, 0
2, 29568, Note_on_c, 0, 47, 110
2, 29614, Note_on_c, 0, 47, 0
2, 29616, Note_on_c, 0, 51, 110
2, 29662, Note_on_c, 0, 51, 0
2, 29664, Note_on_c, 0, 55, 110
2, 29710, Note_on_c, 0, 55, 0
2, 29712, Note_on_c, 0, 59, 110
2, 29758, Note_on_c, 0, 59, 0
2, 29760, Note_on_c, 0, 63, 110
2, 29806, Note_on_c, 0, 63, 0
2, 29808, Note_on_c, 0, 67, 110
2, 29854, Note_on_c, 0, 67, 0
2, 29856, Note_on_c, 0, 71, 110
2, 29902, Note_on_c, 0, 71, 0
2, 29904, Note_on_c, 0, 75, 110
2, 29950, Note_on_c, 0, 75, 0
2, 29952, Note_on_c, 0, 64, 110
2, 29952, Note_on_c, 0, 71, 110
2, 29952, Note_on_c, 0, 76, 110
2, 30430, Note_on_c, 0, 64, 0
2, 30430, Note_on_c, 0, 71, 0
2, 30430, Note_on_c, 0, 76, 0
2, 30432, Note_on_c, 0, 64, 110
2, 30432, Note_on_c, 0, 67, 110
2, 30432, Note_on_c, 0, 71, 110
2, 30432, Note_on_c, 0, 76, 110
2, 30526, Note_on_c, 0, 64, 0
2, 30526, Note_on_c, 0, 67, 0
2, 30526, Note_on_c, 0, 71, 0
2, 30526, Note_on_c, 0, 76, 0
2, 30528, Note_on_c, 0, 64, 110
2, 30528, Note_on_c, 0, 67, 110
2, 30528, Note_on_c, 0, 71, 110
2, 30528, Note_on_c, 0, 76, 110
2, 30688, Note_on_c, 0, 64, 0
2, 30688, Note_on_c, 0, 67, 0
2, 30688, Note_on_c, 0, 71, 0
2, 30688, Note_on_c, 0, 76, 0
2, 30720, Note_on_c, 0, 64, 110
2, 30720, Note_on_c, 0, 67, 110
2, 30720, Note_on_c, 0, 71, 110
2, 30720, Note_on_c, 0, 76, 110
2, 30814, Note_on_c, 0, 64, 0
2, 30814, Note_on_c, 0, 67, 0
2, 30814, Note_on_c, 0, 71, 0
2, 30814, Note_on_c, 0, 76, 0
2, 30816, Note_on_c, 0, 64, 110
2, 30816, Note_on_c, 0, 67, 110
2, 30816, Note_on_c, 0, 71, 110
2, 30816, Note_on_c, 0, 76, 110
2, 30976, Note_on_c, 0, 64, 0
2, 30976, Note_on_c, 0, 67, 0
2, 30976, Note_on_c, 0, 71, 0
2, 30976, Note_on_c, 0, 76, 0
2, 31008, Note_on_c, 0, 64, 110
2, 31008, Note_on_c, 0, 67, 110
2, 31008, Note_on_c, 0, 71, 110
2, 31008, Note_on_c, 0, 76, 110
2, 31102, Note_on_c, 0, 64, 0
2, 31102, Note_on_c, 0, 67, 0
2, 31102, Note_on_c, 0, 71, 0
2, 31102, Note_on_c, 0, 76, 0
2, 31104, Note_on_c, 0, 64, 110
2, 31104, Note_on_c, 0, 67, 110
2, 31104, Note_on_c, 0, 71, 110
2, 31104, Note_on_c, 0, 76, 110
2, 31462, Note_on_c, 0, 64, 0
2, 31462, Note_on_c, 0, 67, 0
2, 31462, Note_on_c, 0, 71, 0
2, 31462, Note_on_c, 0, 76, 0
2, 31680, Note_on_c, 0, 63, 110
2, 31680, Note_on_c, 0, 66, 110
2, 31680, Note_on_c, 0, 69, 110
2, 31680, Note_on_c, 0, 75, 110
2, 32038, Note_on_c, 0, 63, 0
2, 32038, Note_on_c, 0, 66, 0
2, 32038, Note_on_c, 0, 69, 0
2, 32038, Note_on_c, 0, 75, 0
2, 32256, Note_on_c, 0, 71, 110
2, 32256, Note_on_c, 0, 76, 110
2, 32256, Note_on_c, 0, 79, 110
2, 32256, Note_on_c, 0, 83, 110
2, 32734, Note_on_c, 0, 71, 0
2, 32734, Note_on_c, 0, 76, 0
2, 32734, Note_on_c, 0, 79, 0
2, 32734, Note_on_c, 0, 83, 0
2, 32736, Note_on_c, 0, 71, 110
2, 32736, Note_on_c, 0, 76, 110
2, 32736, Note_on_c, 0, 79, 110
2, 32736, Note_on_c, 0, 83, 110
2, 32830, Note_on_c, 0, 71, 0
2, 32830, Note_on_c, 0, 76, 0
2, 32830, Note_on_c, 0, 79, 0
2, 32830, Note_on_c, 0, 83, 0
2, 32832, Note_on_c, 0, 71, 110
2, 32832, Note_on_c, 0, 74, 110
2, 32832, Note_on_c, 0, 79, 110
2, 32832, Note_on_c, 0, 83, 110
2, 32992, Note_on_c, 0, 71, 0
2, 32992, Note_on_c, 0, 74, 0
2, 32992, Note_on_c, 0, 79, 0
2, 32992, Note_on_c, 0, 83, 0
2, 33024, Note_on_c, 0, 71, 110
2, 33024, Note_on_c, 0, 74, 110
2, 33024, Note_on_c, 0, 79, 110
2, 33118, Note_on_c, 0, 71, 0
2, 33118, Note_on_c, 0, 74, 0
2, 33118, Note_on_c, 0, 79, 0
2, 33120, Note_on_c, 0, 71, 110
2, 33120, Note_on_c, 0, 74, 110
2, 33120, Note_on_c, 0, 79, 110
2, 33280, Note_on_c, 0, 71, 0
2, 33280, Note_on_c, 0, 74, 0
2, 33280, Note_on_c, 0, 79, 0
2, 33312, Note_on_c, 0, 71, 110
2, 33312, Note_on_c, 0, 74, 110
2, 33312, Note_on_c, 0, 83, 110
2, 33406, Note_on_c, 0, 71, 0
2, 33406, Note_on_c, 0, 74, 0
2, 33406, Note_on_c, 0, 83, 0
2, 33408, Note_on_c, 0, 72, 110
2, 33408, Note_on_c, 0, 76, 110
2, 33408, Note_on_c, 0, 83, 110
2, 33664, Note_on_c, 0, 72, 0
2, 33664, Note_on_c, 0, 76, 0
2, 33664, Note_on_c, 0, 83, 0
2, 33696, Note_on_c, 0, 72, 110
2, 33696, Note_on_c, 0, 76, 110
2, 33696, Note_on_c, 0, 81, 110
2, 33952, Note_on_c, 0, 72, 0
2, 33952, Note_on_c, 0, 76, 0
2, 33952, Note_on_c, 0, 81, 0
2, 33984, Note_on_c, 0, 66, 110
2, 33984, Note_on_c, 0, 71, 110
2, 33984, Note_on_c, 0, 75, 110
2, 33984, Note_on_c, 0, 78, 110
2, 34342, Note_on_c, 0, 66, 0
2, 34342, Note_on_c, 0, 71, 0
2, 34342, Note_on_c, 0, 75, 0
2, 34342, Note_on_c, 0, 78, 0
2, 34560, Note_on_c, 0, 64, 110
2, 34560, Note_on_c, 0, 71, 110
2, 34560, Note_on_c, 0, 76, 110
2, 35038, Note_on_c, 0, 64, 0
2, 35038, Note_on_c, 0, 71, 0
2, 35038, Note_on_c, 0, 76, 0
2, 35040, Note_on_c, 0, 64, 110
2, 35040, Note_on_c, 0, 67, 110
2, 35040, Note_on_c, 0, 71, 110
2, 35040, Note_on_c, 0, 76, 110
2, 35134, Note_on_c, 0, 64, 0
2, 35134, Note_on_c, 0, 67, 0
2, 35134, Note_on_c, 0, 71, 0
2, 35134, Note_on_c, 0, 76, 0
2, 35136, Note_on_c, 0, 64, 110
2, 35136, Note_on_c, 0, 67, 110
2, 35136, Note_on_c, 0, 71, 110
2, 35136, Note_on_c, 0, 76, 110
2, 35296, Note_on_c, 0, 64, 0
2, 35296, Note_on_c, 0, 67, 0
2, 35296, Note_on_c, 0, 71, 0
2, 35296, Note_on_c, 0, 76, 0
2, 35328, Note_on_c, 0, 64, 110
2, 35328, Note_on_c, 0, 67, 110
2, 35328, Note_on_c, 0, 71, 110
2, 35328, Note_on_c, 0, 76, 110
2, 35422, Note_on_c, 0, 64, 0
2, 35422, Note_on_c, 0, 67, 0
2, 35422, Note_on_c, 0, 71, 0
2, 35422, Note_on_c, 0, 76, 0
2, 35424, Note_on_c, 0, 64, 110
2, 35424, Note_on_c, 0, 67, 110
2, 35424, Note_on_c, 0, 71, 110
2, 35424, Note_on_c, 0, 76, 110
2, 35584, Note_on_c, 0, 64, 0
2, 35584, Note_on_c, 0, 67, 0
2, 35584, Note_on_c, 0, 71, 0
2, 35584, Note_on_c, 0, 76, 0
2, 35616, Note_on_c, 0, 64, 110
2, 35616, Note_on_c, 0, 67, 110
2, 35616, Note_on_c, 0, 71, 110
2, 35616, Note_on_c, 0, 76, 110
2, 35710, Note_on_c, 0, 64, 0
2, 35710, Note_on_c, 0, 67, 0
2, 35710, Note_on_c, 0, 71, 0
2, 35710, Note_on_c, 0, 76, 0
2, 35712, Note_on_c, 0, 64, 110
2, 35712, Note_on_c, 0, 67, 110
2, 35712, Note_on_c, 0, 71, 110
2, 35712, Note_on_c, 0, 76, 110
2, 36142, Note_on_c, 0, 64, 0
2, 36142, Note_on_c, 0, 67, 0
2, 36142, Note_on_c, 0, 71, 0
2, 36142, Note_on_c, 0, 76, 0
2, 36144, Note_on_c, 0, 66, 110
2, 36144, Note_on_c, 0, 78, 110
2, 36190, Note_on_c, 0, 66, 0
2, 36190, Note_on_c, 0, 78, 0
2, 36192, Note_on_c, 0, 64, 110
2, 36192, Note_on_c, 0, 76, 110
2, 36286, Note_on_c, 0, 64, 0
2, 36286, Note_on_c, 0, 76, 0
2, 36288, Note_on_c, 0, 63, 110
2, 36288, Note_on_c, 0, 75, 110
2, 36544, Note_on_c, 0, 63, 0
2, 36544, Note_on_c, 0, 75, 0
2, 36864, Note_on_c, 0, 71, 110
2, 36864, Note_on_c, 0, 76, 110
2, 36864, Note_on_c, 0, 79, 110
2, 36864, Note_on_c, 0, 83, 110
2, 37342, Note_on_c, 0, 71, 0
2, 37342, Note_on_c, 0, 76, 0
2, 37342, Note_on_c, 0, 79, 0
2, 37342, Note_on_c, 0, 83, 0
2, 37344, Note_on_c, 0, 71, 110
2, 37344, Note_on_c, 0, 76, 110
2, 37344, Note_on_c, 0, 79, 110
2, 37344, Note_on_c, 0, 83, 110
2, 37438, Note_on_c, 0, 71, 0
2, 37438, Note_on_c, 0, 76, 0
2, 37438, Note_on_c, 0, 79, 0
2, 37438, Note_on_c, 0, 83, 0
2, 37440, Note_on_c, 0, 71, 110
2, 37440, Note_on_c, 0, 74, 110
2, 37440, Note_on_c, 0, 79, 110
2, 37440, Note_on_c, 0, 83, 110
2, 37600, Note_on_c, 0, 71, 0
2, 37600, Note_on_c, 0, 74, 0
2, 37600, Note_on_c, 0, 79, 0
2, 37600, Note_on_c, 0, 83, 0
2, 37632, Note_on_c, 0, 71, 110
2, 37632, Note_on_c, 0, 74, 110
2, 37632, Note_on_c, 0, 79, 110
2, 37726, Note_on_c, 0, 71, 0
2, 37726, Note_on_c, 0, 74, 0
2, 37726, Note_on_c, 0, 79, 0
2, 37728, Note_on_c, 0, 71, 110
2, 37728, Note_on_c, 0, 74, 110
2, 37728, Note_on_c, 0, 79, 110
2, 37888, Note_on_c, 0, 71, 0
2, 37888, Note_on_c, 0, 74, 0
2, 37888, Note_on_c, 0, 79, 0
2, 37920, Note_on_c, 0, 83, 110
2, 38014, Note_on_c, 0, 83, 0
2, 38016, Note_on_c, 0, 72, 110
2, 38016, Note_on_c, 0, 76, 110
2, 38016, Note_on_c, 0, 83, 110
2, 38272, Note_on_c, 0, 72, 0
2, 38272, Note_on_c, 0, 76, 0
2, 38272, Note_on_c, 0, 83, 0
2, 38304, Note_on_c, 0, 72, 110
2, 38304, Note_on_c, 0, 76, 110
2, 38304, Note_on_c, 0, 81, 110
2, 38560, Note_on_c, 0, 72, 0
2, 38560, Note_on_c, 0, 76, 0
2, 38560, Note_on_c, 0, 81, 0
2, 38592, Note_on_c, 0, 71, 110
2, 38592, Note_on_c, 0, 75, 110
2, 38592, Note_on_c, 0, 78, 110
2, 38950, Note_on_c, 0, 71, 0
2, 38950, Note_on_c, 0, 75, 0
2, 38950, Note_on_c, 0, 78, 0
2, 39168, Note_on_c, 0, 79, 110
2, 39214, Note_on_c, 0, 79, 0
2, 39216, Note_on_c, 0, 76, 110
2, 39262, Note_on_c, 0, 76, 0
2, 39264, Note_on_c, 0, 71, 110
2, 39310, Note_on_c, 0, 71, 0
2, 39312, Note_on_c, 0, 79, 110
2, 39358, Note_on_c, 0, 79, 0
2, 39360, Note_on_c, 0, 76, 110
2, 39406, Note_on_c, 0, 76, 0
2, 39408, Note_on_c, 0, 71, 110
2, 39454, Note_on_c, 0, 71, 0
2, 39456, Note_on_c, 0, 79, 110
2, 39502, Note_on_c, 0, 79, 0
2, 39504, Note_on_c, 0, 76, 110
2, 39550, Note_on_c, 0, 76, 0
2, 39552, Note_on_c, 0, 71, 110
2, 39598, Note_on_c, 0, 71, 0
2, 39600, Note_on_c, 0, 79, 110
2, 39646, Note_on_c, 0, 79, 0
2, 39648, Note_on_c, 0, 76, 110
2, 39694, Note_on_c, 0, 76, 0
2, 39696, Note_on_c, 0, 71, 110
2, 39742, Note_on_c, 0, 71, 0
2, 39744, Note_on_c, 0, 79, 110
2, 39790, Note_on_c, 0, 79, 0
2, 39792, Note_on_c, 0, 74, 110
2, 39838, Note_on_c, 0, 74, 0
2, 39840, Note_on_c, 0, 71, 110
2, 39886, Note_on_c, 0, 71, 0
2, 39888, Note_on_c, 0, 79, 110
2, 39934, Note_on_c, 0, 79, 0
2, 39936, Note_on_c, 0, 74, 110
2, 39982, Note_on_c, 0, 74, 0
2, 39984, Note_on_c, 0, 71, 110
2, 40030, Note_on_c, 0, 71, 0
2, 40032, Note_on_c, 0, 79, 110
2, 40078, Note_on_c, 0, 79, 0
2, 40080, Note_on_c, 0, 74, 110
2, 40126, Note_on_c, 0, 74, 0
2, 40128, Note_on_c, 0, 71, 110
2, 40174, Note_on_c, 0, 71, 0
2, 40176, Note_on_c, 0, 79, 110
2, 40222, Note_on_c, 0, 79, 0
2, 40224, Note_on_c, 0, 74, 110
2, 40270, Note_on_c, 0, 74, 0
2, 40272, Note_on_c, 0, 71, 110
2, 40318, Note_on_c, 0, 71, 0
2, 40320, Note_on_c, 0, 79, 110
2, 40366, Note_on_c, 0, 79, 0
2, 40368, Note_on_c, 0, 76, 110
2, 40414, Note_on_c, 0, 76, 0
2, 40416, Note_on_c, 0, 71, 110
2, 40462, Note_on_c, 0, 71, 0
2, 40464, Note_on_c, 0, 79, 110
2, 40510, Note_on_c, 0, 79, 0
2, 40512, Note_on_c, 0, 76, 110
2, 40558, Note_on_c, 0, 76, 0
2, 40560, Note_on_c, 0, 71, 110
2, 40606, Note_on_c, 0, 71, 0
2, 40608, Note_on_c, 0, 79, 110
2, 40654, Note_on_c, 0, 79, 0
2, 40656, Note_on_c, 0, 76, 110
2, 40702, Note_on_c, 0, 76, 0
2, 40704, Note_on_c, 0, 71, 110
2, 40750, Note_on_c, 0, 71, 0
2, 40752, Note_on_c, 0, 79, 110
2, 40798, Note_on_c, 0, 79, 0
2, 40800, Note_on_c, 0, 76, 110
2, 40846, Note_on_c, 0, 76, 0
2, 40848, Note_on_c, 0, 71, 110
2, 40894, Note_on_c, 0, 71, 0
2, 40896, Note_on_c, 0, 78, 110
2, 40942, Note_on_c, 0, 78, 0
2, 40944, Note_on_c, 0, 75, 110
2, 40990, Note_on_c, 0, 75, 0
2, 40992, Note_on_c, 0, 71, 110
2, 41038, Note_on_c, 0, 71, 0
2, 41040, Note_on_c, 0, 78, 110
2, 41086, Note_on_c, 0, 78, 0
2, 41088, Note_on_c, 0, 75, 110
2, 41134, Note_on_c, 0, 75, 0
2, 41136, Note_on_c, 0, 71, 110
2, 41182, Note_on_c, 0, 71, 0
2, 41184, Note_on_c, 0, 78, 110
2, 41230, Note_on_c, 0, 78, 0
2, 41232, Note_on_c, 0, 75, 110
2, 41278, Note_on_c, 0, 75, 0
2, 41280, Note_on_c, 0, 71, 110
2, 41326, Note_on_c, 0, 71, 0
2, 41328, Note_on_c, 0, 78, 110
2, 41374, Note_on_c, 0, 78, 0
2, 41376, Note_on_c, 0, 75, 110
2, 41422, Note_on_c, 0, 75, 0
2, 41424, Note_on_c, 0, 71, 110
2, 41470, Note_on_c, 0, 71, 0
2, 41472, Note_on_c, 0, 67, 110
2, 41518, Note_on_c, 0, 67, 0
2, 41520, Note_on_c, 0, 64, 110
2, 41566, Note_on_c, 0, 64, 0
2, 41568, Note_on_c, 0, 59, 110
2, 41614, Note_on_c, 0, 59, 0
2, 41616, Note_on_c, 0, 67, 110
2, 41662, Note_on_c, 0, 67, 0
2, 41664, Note_on_c, 0, 64, 110
2, 41710, Note_on_c, 0, 64, 0
2, 41712, Note_on_c, 0, 59, 110
2, 41758, Note_on_c, 0, 59, 0
2, 41760, Note_on_c, 0, 67, 110
2, 41806, Note_on_c, 0, 67, 0
2, 41808, Note_on_c, 0, 64, 110
2, 41854, Note_on_c, 0, 64, 0
2, 41856, Note_on_c, 0, 59, 110
2, 41902, Note_on_c, 0, 59, 0
2, 41904, Note_on_c, 0, 67, 110
2, 41950, Note_on_c, 0, 67, 0
2, 41952, Note_on_c, 0, 64, 110
2, 41998, Note_on_c, 0, 64, 0
2, 42000, Note_on_c, 0, 59, 110
2, 42046, Note_on_c, 0, 59, 0
2, 42048, Note_on_c, 0, 67, 110
2, 42094, Note_on_c, 0, 67, 0
2, 42096, Note_on_c, 0, 62, 110
2, 42142, Note_on_c, 0, 62, 0
2, 42144, Note_on_c, 0, 59, 110
2, 42190, Note_on_c, 0, 59, 0
2, 42192, Note_on_c, 0, 67, 110
2, 42238, Note_on_c, 0, 67, 0
2, 42240, Note_on_c, 0, 62, 110
2, 42286, Note_on_c, 0, 62, 0
2, 42288, Note_on_c, 0, 59, 110
2, 42334, Note_on_c, 0, 59, 0
2, 42336, Note_on_c, 0, 67, 110
2, 42382, Note_on_c, 0, 67, 0
2, 42384, Note_on_c, 0, 62, 110
2, 42430, Note_on_c, 0, 62, 0
2, 42432, Note_on_c, 0, 59, 110
2, 42478, Note_on_c, 0, 59, 0
2, 42480, Note_on_c, 0, 67, 110
2, 42526, Note_on_c, 0, 67, 0
2, 42528, Note_on_c, 0, 62, 110
2, 42574, Note_on_c, 0, 62, 0
2, 42576, Note_on_c, 0, 59, 110
2, 42622, Note_on_c, 0, 59, 0
2, 42624, Note_on_c, 0, 67, 110
2, 42670, Note_on_c, 0, 67, 0
2, 42672, Note_on_c, 0, 64, 110
2, 42718, Note_on_c, 0, 64, 0
2, 42720, Note_on_c, 0, 59, 110
2, 42766, Note_on_c, 0, 59, 0
2, 42768, Note_on_c, 0, 67, 110
2, 42814, Note_on_c, 0, 67, 0
2, 42816, Note_on_c, 0, 64, 110
2, 42862, Note_on_c, 0, 64, 0
2, 42864, Note_on_c, 0, 59, 110
2, 42910, Note_on_c, 0, 59, 0
2, 42912, Note_on_c, 0, 67, 110
2, 42958, Note_on_c, 0, 67, 0
2, 42960, Note_on_c, 0, 64, 110
2, 43006, Note_on_c, 0, 64, 0
2, 43008, Note_on_c, 0, 59, 110
2, 43054, Note_on_c, 0, 59, 0
2, 43056, Note_on_c, 0, 67, 110
2, 43102, Note_on_c, 0, 67, 0
2, 43104, Note_on_c, 0, 64, 110
2, 43150, Note_on_c, 0, 64, 0
2, 43152, Note_on_c, 0, 59, 110
2, 43198, Note_on_c, 0, 59, 0
2, 43200, Note_on_c, 0, 66, 110
2, 43246, Note_on_c, 0, 66, 0
2, 43248, Note_on_c, 0, 63, 110
2, 43294, Note_on_c, 0, 63, 0
2, 43296, Note_on_c, 0, 59, 110
2, 43342, Note_on_c, 0, 59, 0
2, 43344, Note_on_c, 0, 66, 110
2, 43390, Note_on_c, 0, 66, 0
2, 43392, Note_on_c, 0, 63, 110
2, 43438, Note_on_c, 0, 63, 0
2, 43440, Note_on_c, 0, 59, 110
2, 43486, Note_on_c, 0, 59, 0
2, 43488, Note_on_c, 0, 66, 110
2, 43534, Note_on_c, 0, 66, 0
2, 43536, Note_on_c, 0, 63, 110
2, 43582, Note_on_c, 0, 63, 0
2, 43584, Note_on_c, 0, 59, 110
2, 43630, Note_on_c, 0, 59, 0
2, 43632, Note_on_c, 0, 66, 110
2, 43678, Note_on_c, 0, 66, 0
2, 43680, Note_on_c, 0, 63, 110
2, 43726, Note_on_c, 0, 63, 0
2, 43728, Note_on_c, 0, 59, 110
2, 43774, Note_on_c, 0, 59, 0
2, 43776, Note_on_c, 0, 52, 110
2, 43822, Note_on_c, 0, 52, 0
2, 43824, Note_on_c, 0, 51, 110
2, 43870, Note_on_c, 0, 51, 0
2, 43872, Note_on_c, 0, 52, 110
2, 43918, Note_on_c, 0, 52, 0
2, 43920, Note_on_c, 0, 55, 110
2, 43966, Note_on_c, 0, 55, 0
2, 43968, Note_on_c, 0, 54, 110
2, 44014, Note_on_c, 0, 54, 0
2, 44016, Note_on_c, 0, 55, 110
2, 44062, Note_on_c, 0, 55, 0
2, 44064, Note_on_c, 0, 59, 110
2, 44110, Note_on_c, 0, 59, 0
2, 44112, Note_on_c, 0, 58, 110
2, 44158, Note_on_c, 0, 58, 0
2, 44160, Note_on_c, 0, 59, 110
2, 44206, Note_on_c, 0, 59, 0
2, 44208, Note_on_c, 0, 64, 110
2, 44254, Note_on_c, 0, 64, 0
2, 44256, Note_on_c, 0, 63, 110
2, 44302, Note_on_c, 0, 63, 0
2, 44304, Note_on_c, 0, 64, 110
2, 44350, Note_on_c, 0, 64, 0
2, 44352, Note_on_c, 0, 67, 110
2, 44398, Note_on_c, 0, 67, 0
2, 44400, Note_on_c, 0, 66, 110
2, 44446, Note_on_c, 0, 66, 0
2, 44448, Note_on_c, 0, 67, 110
2, 44494, Note_on_c, 0, 67, 0
2, 44496, Note_on_c, 0, 71, 110
2, 44542, Note_on_c, 0, 71, 0
2, 44544, Note_on_c, 0, 70, 110
2, 44590, Note_on_c, 0, 70, 0
2, 44592, Note_on_c, 0, 71, 110
2, 44638, Note_on_c, 0, 71, 0
2, 44640, Note_on_c, 0, 76, 110
2, 44686, Note_on_c, 0, 76, 0
2, 44688, Note_on_c, 0, 75, 110
2, 44734, Note_on_c, 0, 75, 0
2, 44736, Note_on_c, 0, 76, 110
2, 44782, Note_on_c, 0, 76, 0
2, 44784, Note_on_c, 0, 79, 110
2, 44878, Note_on_c, 0, 79, 0
2, 44880, Note_on_c, 0, 78, 110
2, 44926, Note_on_c, 0, 78, 0
2, 44928, Note_on_c, 0, 76, 110
2, 45070, Note_on_c, 0, 76, 0
2, 45072, Note_on_c, 0, 72, 110
2, 45166, Note_on_c, 0, 72, 0
2, 45168, Note_on_c, 0, 71, 110
2, 45214, Note_on_c, 0, 71, 0
2, 45216, Note_on_c, 0, 69, 110
2, 45358, Note_on_c, 0, 69, 0
2, 45360, Note_on_c, 0, 71, 110
2, 45454, Note_on_c, 0, 71, 0
2, 45456, Note_on_c, 0, 72, 110
2, 45502, Note_on_c, 0, 72, 0
2, 45504, Note_on_c, 0, 75, 110
2, 45598, Note_on_c, 0, 75, 0
2, 45600, Note_on_c, 0, 72, 110
2, 45694, Note_on_c, 0, 72, 0
2, 45696, Note_on_c, 0, 71, 110
2, 45790, Note_on_c, 0, 71, 0
2, 45792, Note_on_c, 0, 71, 110
2, 45814, Note_on_c, 0, 71, 0
2, 45816, Note_on_c, 0, 71, 110
2, 46078, Note_on_c, 0, 71, 0
2, 46080, Note_on_c, 0, 57, 110
2, 46080, Note_on_c, 0, 69, 110
2, 46126, Note_on_c, 0, 57, 0
2, 46126, Note_on_c, 0, 69, 0
2, 46128, Note_on_c, 0, 57, 110
2, 46128, Note_on_c, 0, 69, 110
2, 46174, Note_on_c, 0, 57, 0
2, 46174, Note_on_c, 0, 69, 0
2, 46176, Note_on_c, 0, 57, 110
2, 46176, Note_on_c, 0, 69, 110
2, 46222, Note_on_c, 0, 57, 0
2, 46222, Note_on_c, 0, 69, 0
2, 46224, Note_on_c, 0, 57, 110
2, 46224, Note_on_c, 0, 69, 110
2, 46270, Note_on_c, 0, 57, 0
2, 46270, Note_on_c, 0, 69, 0
2, 46272, Note_on_c, 0, 57, 110
2, 46272, Note_on_c, 0, 69, 110
2, 46318, Note_on_c, 0, 57, 0
2, 46318, Note_on_c, 0, 69, 0
2, 46320, Note_on_c, 0, 57, 110
2, 46320, Note_on_c, 0, 69, 110
2, 46366, Note_on_c, 0, 57, 0
2, 46366, Note_on_c, 0, 69, 0
2, 46368, Note_on_c, 0, 59, 110
2, 46368, Note_on_c, 0, 71, 110
2, 46414, Note_on_c, 0, 59, 0
2, 46414, Note_on_c, 0, 71, 0
2, 46416, Note_on_c, 0, 59, 110
2, 46416, Note_on_c, 0, 71, 110
2, 46462, Note_on_c, 0, 59, 0
2, 46462, Note_on_c, 0, 71, 0
2, 46464, Note_on_c, 0, 59, 110
2, 46464, Note_on_c, 0, 71, 110
2, 46510, Note_on_c, 0, 59, 0
2, 46510, Note_on_c, 0, 71, 0
2, 46512, Note_on_c, 0, 59, 110
2, 46512, Note_on_c, 0, 71, 110
2, 46558, Note_on_c, 0, 59, 0
2, 46558, Note_on_c, 0, 71, 0
2, 46560, Note_on_c, 0, 59, 110
2, 46560, Note_on_c, 0, 71, 110
2, 46606, Note_on_c, 0, 59, 0
2, 46606, Note_on_c, 0, 71, 0
2, 46608, Note_on_c, 0, 59, 110
2, 46608, Note_on_c, 0, 71, 110
2, 46654, Note_on_c, 0, 59, 0
2, 46654, Note_on_c, 0, 71, 0
2, 46656, Note_on_c, 0, 54, 110
2, 46656, Note_on_c, 0, 66, 110
2, 46702, Note_on_c, 0, 54, 0
2, 46702, Note_on_c, 0, 66, 0
2, 46704, Note_on_c, 0, 54, 110
2, 46704, Note_on_c, 0, 66, 110
2, 46750, Note_on_c, 0, 54, 0
2, 46750, Note_on_c, 0, 66, 0
2, 46752, Note_on_c, 0, 54, 110
2, 46752, Note_on_c, 0, 66, 110
2, 46798, Note_on_c, 0, 54, 0
2, 46798, Note_on_c, 0, 66, 0
2, 46800, Note_on_c, 0, 54, 110
2, 46800, Note_on_c, 0, 66, 110
2, 46846, Note_on_c, 0, 54, 0
2, 46846, Note_on_c, 0, 66, 0
2, 46848, Note_on_c, 0, 54, 110
2, 46848, Note_on_c, 0, 66, 110
2, 46894, Note_on_c, 0, 54, 0
2, 46894, Note_on_c, 0, 66, 0
2, 46896, Note_on_c, 0, 54, 110
2, 46896, Note_on_c, 0, 66, 110
2, 46942, Note_on_c, 0, 54, 0
2, 46942, Note_on_c, 0, 66, 0
2, 46944, Note_on_c, 0, 55, 110
2, 46944, Note_on_c, 0, 67, 110
2, 46990, Note_on_c, 0, 55, 0
2, 46990, Note_on_c, 0, 67, 0
2, 46992, Note_on_c, 0, 55, 110
2, 46992, Note_on_c, 0, 67, 110
2, 47038, Note_on_c, 0, 55, 0
2, 47038, Note_on_c, 0, 67, 0
2, 47040, Note_on_c, 0, 55, 110
2, 47040, Note_on_c, 0, 67, 110
2, 47086, Note_on_c, 0, 55, 0
2, 47086, Note_on_c, 0, 67, 0
2, 47088, Note_on_c, 0, 55, 110
2, 47088, Note_on_c, 0, 67, 110
2, 47134, Note_on_c, 0, 55, 0
2, 47134, Note_on_c, 0, 67, 0
2, 47136, Note_on_c, 0, 55, 110
2, 47136, Note_on_c, 0, 67, 110
2, 47182, Note_on_c, 0, 55, 0
2, 47182, Note_on_c, 0, 67, 0
2, 47184, Note_on_c, 0, 55, 110
2, 47184, Note_on_c, 0, 67, 110
2, 47230, Note_on_c, 0, 55, 0
2, 47230, Note_on_c, 0, 67, 0
2, 47232, Note_on_c, 0, 57, 110
2, 47232, Note_on_c, 0, 69, 110
2, 47278, Note_on_c, 0, 57, 0
2, 47278, Note_on_c, 0, 69, 0
2, 47280, Note_on_c, 0, 57, 110
2, 47280, Note_on_c, 0, 69, 110
2, 47326, Note_on_c, 0, 57, 0
2, 47326, Note_on_c, 0, 69, 0
2, 47328, Note_on_c, 0, 57, 110
2, 47328, Note_on_c, 0, 69, 110
2, 47374, Note_on_c, 0, 57, 0
2, 47374, Note_on_c, 0, 69, 0
2, 47376, Note_on_c, 0, 57, 110
2, 47376, Note_on_c, 0, 69, 110
2, 47422, Note_on_c, 0, 57, 0
2, 47422, Note_on_c, 0, 69, 0
2, 47424, Note_on_c, 0, 57, 110
2, 47424, Note_on_c, 0, 69, 110
2, 47470, Note_on_c, 0, 57, 0
2, 47470, Note_on_c, 0, 69, 0
2, 47472, Note_on_c, 0, 57, 110
2, 47472, Note_on_c, 0, 69, 110
2, 47518, Note_on_c, 0, 57, 0
2, 47518, Note_on_c, 0, 69, 0
2, 47520, Note_on_c, 0, 59, 110
2, 47520, Note_on_c, 0, 71, 110
2, 47566, Note_on_c, 0, 59, 0
2, 47566, Note_on_c, 0, 71, 0
2, 47568, Note_on_c, 0, 59, 110
2, 47568, Note_on_c, 0, 71, 110
2, 47614, Note_on_c, 0, 59, 0
2, 47614, Note_on_c, 0, 71, 0
2, 47616, Note_on_c, 0, 59, 110
2, 47616, Note_on_c, 0, 71, 110
2, 47662, Note_on_c, 0, 59, 0
2, 47662, Note_on_c, 0, 71, 0
2, 47664, Note_on_c, 0, 59, 110
2, 47664, Note_on_c, 0, 71, 110
2, 47710, Note_on_c, 0, 59, 0
2, 47710, Note_on_c, 0, 71, 0
2, 47712, Note_on_c, 0, 59, 110
2, 47712, Note_on_c, 0, 71, 110
2, 47758, Note_on_c, 0, 59, 0
2, 47758, Note_on_c, 0, 71, 0
2, 47760, Note_on_c, 0, 59, 110
2, 47760, Note_on_c, 0, 71, 110
2, 47806, Note_on_c, 0, 59, 0
2, 47806, Note_on_c, 0, 71, 0
2, 47808, Note_on_c, 0, 60, 110
2, 47808, Note_on_c, 0, 72, 110
2, 47854, Note_on_c, 0, 60, 0
2, 47854, Note_on_c, 0, 72, 0
2, 47856, Note_on_c, 0, 60, 110
2, 47856, Note_on_c, 0, 72, 110
2, 47902, Note_on_c, 0, 60, 0
2, 47902, Note_on_c, 0, 72, 0
2, 47904, Note_on_c, 0, 60, 110
2, 47904, Note_on_c, 0, 72, 110
2, 47950, Note_on_c, 0, 60, 0
2, 47950, Note_on_c, 0, 72, 0
2, 47952, Note_on_c, 0, 60, 110
2, 47952, Note_on_c, 0, 72, 110
2, 47998, Note_on_c, 0, 60, 0
2, 47998, Note_on_c, 0, 72, 0
2, 48000, Note_on_c, 0, 60, 110
2, 48000, Note_on_c, 0, 72, 110
2, 48046, Note_on_c, 0, 60, 0
2, 48046, Note_on_c, 0, 72, 0
2, 48048, Note_on_c, 0, 60, 110
2, 48048, Note_on_c, 0, 72, 110
2, 48094, Note_on_c, 0, 60, 0
2, 48094, Note_on_c, 0, 72, 0
2, 48096, Note_on_c, 0, 63, 110
2, 48096, Note_on_c, 0, 75, 110
2, 48142, Note_on_c, 0, 63, 0
2, 48142, Note_on_c, 0, 75, 0
2, 48144, Note_on_c, 0, 63, 110
2, 48144, Note_on_c, 0, 75, 110
2, 48190, Note_on_c, 0, 63, 0
2, 48190, Note_on_c, 0, 75, 0
2, 48192, Note_on_c, 0, 63, 110
2, 48192, Note_on_c, 0, 75, 110
2, 48238, Note_on_c, 0, 63, 0
2, 48238, Note_on_c, 0, 75, 0
2, 48240, Note_on_c, 0, 63, 110
2, 48240, Note_on_c, 0, 75, 110
2, 48286, Note_on_c, 0, 63, 0
2, 48286, Note_on_c, 0, 75, 0
2, 48288, Note_on_c, 0, 63, 110
2, 48288, Note_on_c, 0, 75, 110
2, 48334, Note_on_c, 0, 63, 0
2, 48334, Note_on_c, 0, 75, 0
2, 48336, Note_on_c, 0, 63, 110
2, 48336, Note_on_c, 0, 75, 110
2, 48382, Note_on_c, 0, 63, 0
2, 48382, Note_on_c, 0, 75, 0
2, 48384, Note_on_c, 0, 64, 110
2, 48384, Note_on_c, 0, 67, 110
2, 48384, Note_on_c, 0, 71, 110
2, 48384, Note_on_c, 0, 76, 110
2, 48720, Note_on_c, 0, 64, 0
2, 48720, Note_on_c, 0, 67, 0
2, 48720, Note_on_c, 0, 71, 0
2, 48720, Note_on_c, 0, 76, 0
2, 48768, Note_on_c, 0, 76, 110
2, 48862, Note_on_c, 0, 76, 0
2, 48864, Note_on_c, 0, 76, 110
2, 49054, Note_on_c, 0, 76, 0
2, 49056, Note_on_c, 0, 76, 110
2, 49198, Note_on_c, 0, 76, 0
2, 49200, Note_on_c, 0, 76, 110
2, 49342, Note_on_c, 0, 76, 0
2, 49344, Note_on_c, 0, 76, 110
2, 49438, Note_on_c, 0, 76, 0
2, 49440, Note_on_c, 0, 76, 110
2, 49618, Note_on_c, 0, 76, 0
2, 50112, Note_on_c, 0, 75, 110
2, 50368, Note_on_c, 0, 75, 0
2, 50688, Note_on_c, 0, 71, 110
2, 50688, Note_on_c, 0, 76, 110
2, 50688, Note_on_c, 0, 83, 110
2, 50944, Note_on_c, 0, 71, 0
2, 50944, Note_on_c, 0, 76, 0
2, 50944, Note_on_c, 0, 83, 0
2, 51168, Note_on_c, 0, 71, 110
2, 51168, Note_on_c, 0, 76, 110
2, 51168, Note_on_c, 0, 83, 110
2, 51262, Note_on_c, 0, 71, 0
2, 51262, Note_on_c, 0, 76, 0
2, 51262, Note_on_c, 0, 83, 0
2, 51264, Note_on_c, 0, 71, 110
2, 51264, Note_on_c, 0, 74, 110
2, 51264, Note_on_c, 0, 83, 110
2, 51424, Note_on_c, 0, 71, 0
2, 51424, Note_on_c, 0, 74, 0
2, 51424, Note_on_c, 0, 83, 0
2, 51456, Note_on_c, 0, 67, 110
2, 51456, Note_on_c, 0, 71, 110
2, 51456, Note_on_c, 0, 79, 110
2, 51550, Note_on_c, 0, 67, 0
2, 51550, Note_on_c, 0, 71, 0
2, 51550, Note_on_c, 0, 79, 0
2, 51552, Note_on_c, 0, 67, 110
2, 51552, Note_on_c, 0, 71, 110
2, 51552, Note_on_c, 0, 79, 110
2, 51712, Note_on_c, 0, 67, 0
2, 51712, Note_on_c, 0, 71, 0
2, 51712, Note_on_c, 0, 79, 0
2, 51744, Note_on_c, 0, 71, 110
2, 51744, Note_on_c, 0, 74, 110
2, 51744, Note_on_c, 0, 83, 110
2, 51838, Note_on_c, 0, 71, 0
2, 51838, Note_on_c, 0, 74, 0
2, 51838, Note_on_c, 0, 83, 0
2, 51840, Note_on_c, 0, 72, 110
2, 51840, Note_on_c, 0, 76, 110
2, 51840, Note_on_c, 0, 83, 110
2, 52096, Note_on_c, 0, 72, 0
2, 52096, Note_on_c, 0, 76, 0
2, 52096, Note_on_c, 0, 83, 0
2, 52128, Note_on_c, 0, 69, 110
2, 52128, Note_on_c, 0, 72, 110
2, 52128, Note_on_c, 0, 76, 110
2, 52128, Note_on_c, 0, 81, 110
2, 52384, Note_on_c, 0, 69, 0
2, 52384, Note_on_c, 0, 72, 0
2, 52384, Note_on_c, 0, 76, 0
2, 52384, Note_on_c, 0, 81, 0
2, 52416, Note_on_c, 0, 66, 110
2, 52416, Note_on_c, 0, 71, 110
2, 52416, Note_on_c, 0, 75, 110
2, 52416, Note_on_c, 0, 78, 110
2, 52774, Note_on_c, 0, 66, 0
2, 52774, Note_on_c, 0, 71, 0
2, 52774, Note_on_c, 0, 75, 0
2, 52774, Note_on_c, 0, 78, 0
2, 52992, Note_on_c, 0, 64, 110
2, 52992, Note_on_c, 0, 71, 110
2, 52992, Note_on_c, 0, 76, 110
2, 53470, Note_on_c, 0, 64, 0
2, 53470, Note_on_c, 0, 71, 0
2, 53470, Note_on_c, 0, 76, 0
2, 53472, Note_on_c, 0, 64, 110
2, 53472, Note_on_c, 0, 71, 110
2, 53472, Note_on_c, 0, 76, 110
2, 53566, Note_on_c, 0, 64, 0
2, 53566, Note_on_c, 0, 71, 0
2, 53566, Note_on_c, 0, 76, 0
2, 53568, Note_on_c, 0, 64, 110
2, 53568, Note_on_c, 0, 71, 110
2, 53568, Note_on_c, 0, 76, 110
2, 53728, Note_on_c, 0, 64, 0
2, 53728, Note_on_c, 0, 71, 0
2, 53728, Note_on_c, 0, 76, 0
2, 53760, Note_on_c, 0, 64, 110
2, 53760, Note_on_c, 0, 71, 110
2, 53760, Note_on_c, 0, 76, 110
2, 53854, Note_on_c, 0, 64, 0
2, 53854, Note_on_c, 0, 71, 0
2, 53854, Note_on_c, 0, 76, 0
2, 53856, Note_on_c, 0, 64, 110
2, 53856, Note_on_c, 0, 71, 110
2, 53856, Note_on_c, 0, 76, 110
2, 54016, Note_on_c, 0, 64, 0
2, 54016, Note_on_c, 0, 71, 0
2, 54016, Note_on_c, 0, 76, 0
2, 54048, Note_on_c, 0, 64, 110
2, 54048, Note_on_c, 0, 71, 110
2, 54048, Note_on_c, 0, 76, 110
2, 54142, Note_on_c, 0, 64, 0
2, 54142, Note_on_c, 0, 71, 0
2, 54142, Note_on_c, 0, 76, 0
2, 54144, Note_on_c, 0, 64, 110
2, 54144, Note_on_c, 0, 69, 110
2, 54144, Note_on_c, 0, 72, 110
2, 54144, Note_on_c, 0, 76, 110
2, 54574, Note_on_c, 0, 64, 0
2, 54574, Note_on_c, 0, 69, 0
2, 54574, Note_on_c, 0, 72, 0
2, 54574, Note_on_c, 0, 76, 0
2, 54576, Note_on_c, 0, 66, 110
2, 54576, Note_on_c, 0, 78, 110
2, 54622, Note_on_c, 0, 66, 0
2, 54622, Note_on_c, 0, 78, 0
2, 54624, Note_on_c, 0, 64, 110
2, 54624, Note_on_c, 0, 76, 110
2, 54718, Note_on_c, 0, 64, 0
2, 54718, Note_on_c, 0, 76, 0
2, 54720, Note_on_c, 0, 63, 110
2, 54720, Note_on_c, 0, 75, 110
2, 54976, Note_on_c, 0, 63, 0
2, 54976, Note_on_c, 0, 75, 0
2, 55296, Note_on_c, 0, 71, 110
2, 55296, Note_on_c, 0, 76, 110
2, 55296, Note_on_c, 0, 83, 110
2, 55774, Note_on_c, 0, 71, 0
2, 55774, Note_on_c, 0, 76, 0
2, 55774, Note_on_c, 0, 83, 0
2, 55776, Note_on_c, 0, 71, 110
2, 55776, Note_on_c, 0, 76, 110
2, 55776, Note_on_c, 0, 83, 110
2, 55870, Note_on_c, 0, 71, 0
2, 55870, Note_on_c, 0, 76, 0
2, 55870, Note_on_c, 0, 83, 0
2, 55872, Note_on_c, 0, 71, 110
2, 55872, Note_on_c, 0, 74, 110
2, 55872, Note_on_c, 0, 83, 110
2, 56032, Note_on_c, 0, 71, 0
2, 56032, Note_on_c, 0, 74, 0
2, 56032, Note_on_c, 0, 83, 0
2, 56064, Note_on_c, 0, 71, 110
2, 56064, Note_on_c, 0, 74, 110
2, 56064, Note_on_c, 0, 79, 110
2, 56158, Note_on_c, 0, 71, 0
2, 56158, Note_on_c, 0, 74, 0
2, 56158, Note_on_c, 0, 79, 0
2, 56160, Note_on_c, 0, 71, 110
2, 56160, Note_on_c, 0, 74, 110
2, 56160, Note_on_c, 0, 79, 110
2, 56320, Note_on_c, 0, 71, 0
2, 56320, Note_on_c, 0, 74, 0
2, 56320, Note_on_c, 0, 79, 0
2, 56352, Note_on_c, 0, 71, 110
2, 56352, Note_on_c, 0, 74, 110
2, 56352, Note_on_c, 0, 83, 110
2, 56446, Note_on_c, 0, 71, 0
2, 56446, Note_on_c, 0, 74, 0
2, 56446, Note_on_c, 0, 83, 0
2, 56448, Note_on_c, 0, 72, 110
2, 56448, Note_on_c, 0, 76, 110
2, 56448, Note_on_c, 0, 79, 110
2, 56448, Note_on_c, 0, 83, 110
2, 56704, Note_on_c, 0, 72, 0
2, 56704, Note_on_c, 0, 76, 0
2, 56704, Note_on_c, 0, 79, 0
2, 56704, Note_on_c, 0, 83, 0
2, 56736, Note_on_c, 0, 69, 110
2, 56736, Note_on_c, 0, 72, 110
2, 56736, Note_on_c, 0, 76, 110
2, 56736, Note_on_c, 0, 81, 110
2, 56992, Note_on_c, 0, 69, 0
2, 56992, Note_on_c, 0, 72, 0
2, 56992, Note_on_c, 0, 76, 0
2, 56992, Note_on_c, 0, 81, 0
2, 57024, Note_on_c, 0, 66, 110
2, 57024, Note_on_c, 0, 71, 110
2, 57024, Note_on_c, 0, 75, 110
2, 57024, Note_on_c, 0, 78, 110
2, 57166, Note_on_c, 0, 66, 0
2, 57166, Note_on_c, 0, 71, 0
2, 57166, Note_on_c, 0, 75, 0
2, 57166, Note_on_c, 0, 78, 0
2, 57168, Note_on_c, 0, 59, 110
2, 57168, Note_on_c, 0, 66, 110
2, 57168, Note_on_c, 0, 71, 110
2, 57214, Note_on_c, 0, 59, 0
2, 57214, Note_on_c, 0, 66, 0
2, 57214, Note_on_c, 0, 71, 0
2, 57216, Note_on_c, 0, 59, 110
2, 57216, Note_on_c, 0, 66, 110
2, 57216, Note_on_c, 0, 71, 110
2, 57262, Note_on_c, 0, 59, 0
2, 57262, Note_on_c, 0, 66, 0
2, 57262, Note_on_c, 0, 71, 0
2, 57264, Note_on_c, 0, 59, 110
2, 57264, Note_on_c, 0, 66, 110
2, 57264, Note_on_c, 0, 71, 110
2, 57310, Note_on_c, 0, 59, 0
2, 57310, Note_on_c, 0, 66, 0
2, 57310, Note_on_c, 0, 71, 0
2, 57312, Note_on_c, 0, 59, 110
2, 57312, Note_on_c, 0, 66, 110
2, 57312, Note_on_c, 0, 71, 110
2, 57454, Note_on_c, 0, 59, 0
2, 57454, Note_on_c, 0, 66, 0
2, 57454, Note_on_c, 0, 71, 0
2, 57456, Note_on_c, 0, 59, 110
2, 57456, Note_on_c, 0, 66, 110
2, 57456, Note_on_c, 0, 71, 110
2, 57502, Note_on_c, 0, 59, 0
2, 57502, Note_on_c, 0, 66, 0
2, 57502, Note_on_c, 0, 71, 0
2, 57504, Note_on_c, 0, 59, 110
2, 57504, Note_on_c, 0, 66, 110
2, 57504, Note_on_c, 0, 71, 110
2, 57550, Note_on_c, 0, 59, 0
2, 57550, Note_on_c, 0, 66, 0
2, 57550, Note_on_c, 0, 71, 0
2, 57552, Note_on_c, 0, 59, 110
2, 57552, Note_on_c, 0, 66, 110
2, 57552, Note_on_c, 0, 71, 110
2, 57598, Note_on_c, 0, 59, 0
2, 57598, Note_on_c, 0, 66, 0
2, 57598, Note_on_c, 0, 71, 0
2, 57600, Note_on_c, 0, 60, 110
2, 57600, Note_on_c, 0, 64, 110
2, 57600, Note_on_c, 0, 69, 110
2, 57742, Note_on_c, 0, 60, 0
2, 57742, Note_on_c, 0, 64, 0
2, 57742, Note_on_c, 0, 69, 0
2, 57744, Note_on_c, 0, 60, 110
2, 57744, Note_on_c, 0, 64, 110
2, 57744, Note_on_c, 0, 69, 110
2, 57790, Note_on_c, 0, 60, 0
2, 57790, Note_on_c, 0, 64, 0
2, 57790, Note_on_c, 0, 69, 0
2, 57792, Note_on_c, 0, 60, 110
2, 57792, Note_on_c, 0, 64, 110
2, 57792, Note_on_c, 0, 69, 110
2, 57838, Note_on_c, 0, 60, 0
2, 57838, Note_on_c, 0, 64, 0
2, 57838, Note_on_c, 0, 69, 0
2, 57840, Note_on_c, 0, 60, 110
2, 57840, Note_on_c, 0, 64, 110
2, 57840, Note_on_c, 0, 69, 110
2, 57886, Note_on_c, 0, 60, 0
2, 57886, Note_on_c, 0, 64, 0
2, 57886, Note_on_c, 0, 69, 0
2, 57888, Note_on_c, 0, 60, 110
2, 57888, Note_on_c, 0, 64, 110
2, 57888, Note_on_c, 0, 69, 110
2, 58030, Note_on_c, 0, 60, 0
2, 58030, Note_on_c, 0, 64, 0
2, 58030, Note_on_c, 0, 69, 0
2, 58032, Note_on_c, 0, 54, 110
2, 58032, Note_on_c, 0, 66, 110
2, 58078, Note_on_c, 0, 54, 0
2, 58078, Note_on_c, 0, 66, 0
2, 58080, Note_on_c, 0, 54, 110
2, 58080, Note_on_c, 0, 66, 110
2, 58126, Note_on_c, 0, 54, 0
2, 58126, Note_on_c, 0, 66, 0
2, 58128, Note_on_c, 0, 54, 110
2, 58128, Note_on_c, 0, 66, 110
2, 58174, Note_on_c, 0, 54, 0
2, 58174, Note_on_c, 0, 66, 0
2, 58176, Note_on_c, 0, 55, 110
2, 58176, Note_on_c, 0, 67, 110
2, 58222, Note_on_c, 0, 55, 0
2, 58222, Note_on_c, 0, 67, 0
2, 58224, Note_on_c, 0, 55, 110
2, 58224, Note_on_c, 0, 67, 110
2, 58270, Note_on_c, 0, 55, 0
2, 58270, Note_on_c, 0, 67, 0
2, 58272, Note_on_c, 0, 55, 110
2, 58272, Note_on_c, 0, 67, 110
2, 58318, Note_on_c, 0, 55, 0
2, 58318, Note_on_c, 0, 67, 0
2, 58320, Note_on_c, 0, 54, 110
2, 58320, Note_on_c, 0, 66, 110
2, 58366, Note_on_c, 0, 54, 0
2, 58366, Note_on_c, 0, 66, 0
2, 58368, Note_on_c, 0, 54, 110
2, 58368, Note_on_c, 0, 66, 110
2, 58414, Note_on_c, 0, 54, 0
2, 58414, Note_on_c, 0, 66, 0
2, 58416, Note_on_c, 0, 54, 110
2, 58416, Note_on_c, 0, 66, 110
2, 58462, Note_on_c, 0, 54, 0
2, 58462, Note_on_c, 0, 66, 0
2, 58464, Note_on_c, 0, 59, 110
2, 58464, Note_on_c, 0, 71, 110
2, 58510, Note_on_c, 0, 59, 0
2, 58510, Note_on_c, 0, 71, 0
2, 58512, Note_on_c, 0, 59, 110
2, 58512, Note_on_c, 0, 71, 110
2, 58558, Note_on_c, 0, 59, 0
2, 58558, Note_on_c, 0, 71, 0
2, 58560, Note_on_c, 0, 59, 110
2, 58560, Note_on_c, 0, 71, 110
2, 58606, Note_on_c, 0, 59, 0
2, 58606, Note_on_c, 0, 71, 0
2, 58608, Note_on_c, 0, 63, 110
2, 58608, Note_on_c, 0, 75, 110
2, 58654, Note_on_c, 0, 63, 0
2, 58654, Note_on_c, 0, 75, 0
2, 58656, Note_on_c, 0, 63, 110
2, 58656, Note_on_c, 0, 75, 110
2, 58702, Note_on_c, 0, 63, 0
2, 58702, Note_on_c, 0, 75, 0
2, 58704, Note_on_c, 0, 63, 110
2, 58704, Note_on_c, 0, 75, 110
2, 58750, Note_on_c, 0, 63, 0
2, 58750, Note_on_c, 0, 75, 0
2, 58752, Note_on_c, 0, 71, 110
2, 58752, Note_on_c, 0, 76, 110
2, 58752, Note_on_c, 0, 83, 110
2, 58798, Note_on_c, 0, 71, 0
2, 58798, Note_on_c, 0, 76, 0
2, 58798, Note_on_c, 0, 83, 0
2, 58800, Note_on_c, 0, 71, 110
2, 58800, Note_on_c, 0, 76, 110
2, 58800, Note_on_c, 0, 83, 110
2, 58846, Note_on_c, 0, 71, 0
2, 58846, Note_on_c, 0, 76, 0
2, 58846, Note_on_c, 0, 83, 0
2, 58848, Note_on_c, 0, 71, 110
2, 58848, Note_on_c, 0, 76, 110
2, 58848, Note_on_c, 0, 83, 110
2, 58894, Note_on_c, 0, 71, 0
2, 58894, Note_on_c, 0, 76, 0
2, 58894, Note_on_c, 0, 83, 0
2, 58896, Note_on_c, 0, 71, 110
2, 58896, Note_on_c, 0, 75, 110
2, 58896, Note_on_c, 0, 83, 110
2, 58942, Note_on_c, 0, 71, 0
2, 58942, Note_on_c, 0, 75, 0
2, 58942, Note_on_c, 0, 83, 0
2, 58944, Note_on_c, 0, 71, 110
2, 58944, Note_on_c, 0, 75, 110
2, 58944, Note_on_c, 0, 83, 110
2, 58990, Note_on_c, 0, 71, 0
2, 58990, Note_on_c, 0, 75, 0
2, 58990, Note_on_c, 0, 83, 0
2, 58992, Note_on_c, 0, 71, 110
2, 58992, Note_on_c, 0, 75, 110
2, 58992, Note_on_c, 0, 83, 110
2, 59038, Note_on_c, 0, 71, 0
2, 59038, Note_on_c, 0, 75, 0
2, 59038, Note_on_c, 0, 83, 0
2, 59040, Note_on_c, 0, 71, 110
2, 59040, Note_on_c, 0, 76, 110
2, 59040, Note_on_c, 0, 83, 110
2, 59086, Note_on_c, 0, 71, 0
2, 59086, Note_on_c, 0, 76, 0
2, 59086, Note_on_c, 0, 83, 0
2, 59088, Note_on_c, 0, 71, 110
2, 59088, Note_on_c, 0, 76, 110
2, 59088, Note_on_c, 0, 83, 110
2, 59134, Note_on_c, 0, 71, 0
2, 59134, Note_on_c, 0, 76, 0
2, 59134, Note_on_c, 0, 83, 0
2, 59136, Note_on_c, 0, 71, 110
2, 59136, Note_on_c, 0, 76, 110
2, 59136, Note_on_c, 0, 83, 110
2, 59182, Note_on_c, 0, 71, 0
2, 59182, Note_on_c, 0, 76, 0
2, 59182, Note_on_c, 0, 83, 0
2, 59184, Note_on_c, 0, 71, 110
2, 59184, Note_on_c, 0, 75, 110
2, 59184, Note_on_c, 0, 83, 110
2, 59230, Note_on_c, 0, 71, 0
2, 59230, Note_on_c, 0, 75, 0
2, 59230, Note_on_c, 0, 83, 0
2, 59232, Note_on_c, 0, 71, 110
2, 59232, Note_on_c, 0, 75, 110
2, 59232, Note_on_c, 0, 83, 110
2, 59278, Note_on_c, 0, 71, 0
2, 59278, Note_on_c, 0, 75, 0
2, 59278, Note_on_c, 0, 83, 0
2, 59280, Note_on_c, 0, 71, 110
2, 59280, Note_on_c, 0, 75, 110
2, 59280, Note_on_c, 0, 83, 110
2, 59326, Note_on_c, 0, 71, 0
2, 59326, Note_on_c, 0, 75, 0
2, 59326, Note_on_c, 0, 83, 0
2, 59328, Note_on_c, 0, 72, 110
2, 59328, Note_on_c, 0, 76, 110
2, 59328, Note_on_c, 0, 83, 110
2, 59374, Note_on_c, 0, 72, 0
2, 59374, Note_on_c, 0, 76, 0
2, 59374, Note_on_c, 0, 83, 0
2, 59376, Note_on_c, 0, 72, 110
2, 59376, Note_on_c, 0, 76, 110
2, 59376, Note_on_c, 0, 83, 110
2, 59422, Note_on_c, 0, 72, 0
2, 59422, Note_on_c, 0, 76, 0
2, 59422, Note_on_c, 0, 83, 0
2, 59424, Note_on_c, 0, 72, 110
2, 59424, Note_on_c, 0, 76, 110
2, 59424, Note_on_c, 0, 83, 110
2, 59470, Note_on_c, 0, 72, 0
2, 59470, Note_on_c, 0, 76, 0
2, 59470, Note_on_c, 0, 83, 0
2, 59472, Note_on_c, 0, 72, 110
2, 59472, Note_on_c, 0, 75, 110
2, 59472, Note_on_c, 0, 83, 110
2, 59518, Note_on_c, 0, 72, 0
2, 59518, Note_on_c, 0, 75, 0
2, 59518, Note_on_c, 0, 83, 0
2, 59520, Note_on_c, 0, 72, 110
2, 59520, Note_on_c, 0, 75, 110
2, 59520, Note_on_c, 0, 83, 110
2, 59566, Note_on_c, 0, 72, 0
2, 59566, Note_on_c, 0, 75, 0
2, 59566, Note_on_c, 0, 83, 0
2, 59568, Note_on_c, 0, 72, 110
2, 59568, Note_on_c, 0, 75, 110
2, 59568, Note_on_c, 0, 83, 110
2, 59614, Note_on_c, 0, 72, 0
2, 59614, Note_on_c, 0, 75, 0
2, 59614, Note_on_c, 0, 83, 0
2, 59616, Note_on_c, 0, 72, 110
2, 59616, Note_on_c, 0, 76, 110
2, 59616, Note_on_c, 0, 83, 110
2, 59662, Note_on_c, 0, 72, 0
2, 59662, Note_on_c, 0, 76, 0
2, 59662, Note_on_c, 0, 83, 0
2, 59664, Note_on_c, 0, 72, 110
2, 59664, Note_on_c, 0, 76, 110
2, 59664, Note_on_c, 0, 83, 110
2, 59710, Note_on_c, 0, 72, 0
2, 59710, Note_on_c, 0, 76, 0
2, 59710, Note_on_c, 0, 83, 0
2, 59712, Note_on_c, 0, 72, 110
2, 59712, Note_on_c, 0, 76, 110
2, 59712, Note_on_c, 0, 83, 110
2, 59758, Note_on_c, 0, 72, 0
2, 59758, Note_on_c, 0, 76, 0
2, 59758, Note_on_c, 0, 83, 0
2, 59760, Note_on_c, 0, 72, 110
2, 59760, Note_on_c, 0, 75, 110
2, 59760, Note_on_c, 0, 83, 110
2, 59806, Note_on_c, 0, 72, 0
2, 59806, Note_on_c, 0, 75, 0
2, 59806, Note_on_c, 0, 83, 0
2, 59808, Note_on_c, 0, 72, 110
2, 59808, Note_on_c, 0, 75, 110
2, 59808, Note_on_c, 0, 83, 110
2, 59854, Note_on_c, 0, 72, 0
2, 59854, Note_on_c, 0, 75, 0
2, 59854, Note_on_c, 0, 83, 0
2, 59856, Note_on_c, 0, 72, 110
2, 59856, Note_on_c, 0, 75, 110
2, 59856, Note_on_c, 0, 83, 110
2, 59902, Note_on_c, 0, 72, 0
2, 59902, Note_on_c, 0, 75, 0
2, 59902, Note_on_c, 0, 83, 0
2, 59904, Note_on_c, 0, 71, 110
2, 59904, Note_on_c, 0, 76, 110
2, 59904, Note_on_c, 0, 83, 110
2, 59950, Note_on_c, 0, 71, 0
2, 59950, Note_on_c, 0, 76, 0
2, 59950, Note_on_c, 0, 83, 0
2, 59952, Note_on_c, 0, 71, 110
2, 59952, Note_on_c, 0, 76, 110
2, 59952, Note_on_c, 0, 83, 110
2, 59998, Note_on_c, 0, 71, 0
2, 59998, Note_on_c, 0, 76, 0
2, 59998, Note_on_c, 0, 83, 0
2, 60000, Note_on_c, 0, 71, 110
2, 60000, Note_on_c, 0, 76, 110
2, 60000, Note_on_c, 0, 83, 110
2, 60046, Note_on_c, 0, 71, 0
2, 60046, Note_on_c, 0, 76, 0
2, 60046, Note_on_c, 0, 83, 0
2, 60048, Note_on_c, 0, 71, 110
2, 60048, Note_on_c, 0, 75, 110
2, 60048, Note_on_c, 0, 83, 110
2, 60094, Note_on_c, 0, 71, 0
2, 60094, Note_on_c, 0, 75, 0
2, 60094, Note_on_c, 0, 83, 0
2, 60096, Note_on_c, 0, 71, 110
2, 60096, Note_on_c, 0, 75, 110
2, 60096, Note_on_c, 0, 83, 110
2, 60142, Note_on_c, 0, 71, 0
2, 60142, Note_on_c, 0, 75, 0
2, 60142, Note_on_c, 0, 83, 0
2, 60144, Note_on_c, 0, 71, 110
2, 60144, Note_on_c, 0, 75, 110
2, 60144, Note_on_c, 0, 83, 110
2, 60190, Note_on_c, 0, 71, 0
2, 60190, Note_on_c, 0, 75, 0
2, 60190, Note_on_c, 0, 83, 0
2, 60192, Note_on_c, 0, 71, 110
2, 60192, Note_on_c, 0, 76, 110
2, 60192, Note_on_c, 0, 83, 110
2, 60238, Note_on_c, 0, 71, 0
2, 60238, Note_on_c, 0, 76, 0
2, 60238, Note_on_c, 0, 83, 0
2, 60240, Note_on_c, 0, 71, 110
2, 60240, Note_on_c, 0, 76, 110
2, 60240, Note_on_c, 0, 83, 110
2, 60286, Note_on_c, 0, 71, 0
2, 60286, Note_on_c, 0, 76, 0
2, 60286, Note_on_c, 0, 83, 0
2, 60288, Note_on_c, 0, 71, 110
2, 60288, Note_on_c, 0, 76, 110
2, 60288, Note_on_c, 0, 83, 110
2, 60334, Note_on_c, 0, 71, 0
2, 60334, Note_on_c, 0, 76, 0
2, 60334, Note_on_c, 0, 83, 0
2, 60336, Note_on_c, 0, 71, 110
2, 60336, Note_on_c, 0, 75, 110
2, 60336, Note_on_c, 0, 83, 110
2, 60382, Note_on_c, 0, 71, 0
2, 60382, Note_on_c, 0, 75, 0
2, 60382, Note_on_c, 0, 83, 0
2, 60384, Note_on_c, 0, 71, 110
2, 60384, Note_on_c, 0, 75, 110
2, 60384, Note_on_c, 0, 83, 110
2, 60430, Note_on_c, 0, 71, 0
2, 60430, Note_on_c, 0, 75, 0
2, 60430, Note_on_c, 0, 83, 0
2, 60432, Note_on_c, 0, 71, 110
2, 60432, Note_on_c, 0, 75, 110
2, 60432, Note_on_c, 0, 83, 110
2, 60478, Note_on_c, 0, 71, 0
2, 60478, Note_on_c, 0, 75, 0
2, 60478, Note_on_c, 0, 83, 0
2, 60480, Note_on_c, 0, 71, 110
2, 60480, Note_on_c, 0, 76, 110
2, 60480, Note_on_c, 0, 83, 110
2, 60526, Note_on_c, 0, 71, 0
2, 60526, Note_on_c, 0, 76, 0
2, 60526, Note_on_c, 0, 83, 0
2, 60528, Note_on_c, 0, 71, 110
2, 60528, Note_on_c, 0, 76, 110
2, 60528, Note_on_c, 0, 83, 110
2, 60574, Note_on_c, 0, 71, 0
2, 60574, Note_on_c, 0, 76, 0
2, 60574, Note_on_c, 0, 83, 0
2, 60576, Note_on_c, 0, 71, 110
2, 60576, Note_on_c, 0, 76, 110
2, 60576, Note_on_c, 0, 83, 110
2, 60622, Note_on_c, 0, 71, 0
2, 60622, Note_on_c, 0, 76, 0
2, 60622, Note_on_c, 0, 83, 0
2, 60624, Note_on_c, 0, 71, 110
2, 60624, Note_on_c, 0, 75, 110
2, 60624, Note_on_c, 0, 83, 110
2, 60670, Note_on_c, 0, 71, 0
2, 60670, Note_on_c, 0, 75, 0
2, 60670, Note_on_c, 0, 83, 0
2, 60672, Note_on_c, 0, 71, 110
2, 60672, Note_on_c, 0, 75, 110
2, 60672, Note_on_c, 0, 83, 110
2, 60718, Note_on_c, 0, 71, 0
2, 60718, Note_on_c, 0, 75, 0
2, 60718, Note_on_c, 0, 83, 0
2, 60720, Note_on_c, 0, 71, 110
2, 60720, Note_on_c, 0, 75, 110
2, 60720, Note_on_c, 0, 83, 110
2, 60766, Note_on_c, 0, 71, 0
2, 60766, Note_on_c, 0, 75, 0
2, 60766, Note_on_c, 0, 83, 0
2, 60768, Note_on_c, 0, 71, 110
2, 60768, Note_on_c, 0, 76, 110
2, 60768, Note_on_c, 0, 83, 110
2, 60814, Note_on_c, 0, 71, 0
2, 60814, Note_on_c, 0, 76, 0
2, 60814, Note_on_c, 0, 83, 0
2, 60816, Note_on_c, 0, 71, 110
2, 60816, Note_on_c, 0, 76, 110
2, 60816, Note_on_c, 0, 83, 110
2, 60862, Note_on_c, 0, 71, 0
2, 60862, Note_on_c, 0, 76, 0
2, 60862, Note_on_c, 0, 83, 0
2, 60864, Note_on_c, 0, 71, 110
2, 60864, Note_on_c, 0, 76, 110
2, 60864, Note_on_c, 0, 83, 110
2, 60910, Note_on_c, 0, 71, 0
2, 60910, Note_on_c, 0, 76, 0
2, 60910, Note_on_c, 0, 83, 0
2, 60912, Note_on_c, 0, 71, 110
2, 60912, Note_on_c, 0, 75, 110
2, 60912, Note_on_c, 0, 83, 110
2, 60958, Note_on_c, 0, 71, 0
2, 60958, Note_on_c, 0, 75, 0
2, 60958, Note_on_c, 0, 83, 0
2, 60960, Note_on_c, 0, 71, 110
2, 60960, Note_on_c, 0, 75, 110
2, 60960, Note_on_c, 0, 83, 110
2, 61006, Note_on_c, 0, 71, 0
2, 61006, Note_on_c, 0, 75, 0
2, 61006, Note_on_c, 0, 83, 0
2, 61008, Note_on_c, 0, 71, 110
2, 61008, Note_on_c, 0, 75, 110
2, 61008, Note_on_c, 0, 83, 110
2, 61054, Note_on_c, 0, 71, 0
2, 61054, Note_on_c, 0, 75, 0
2, 61054, Note_on_c, 0, 83, 0
2, 61056, Note_on_c, 0, 71, 110
2, 61056, Note_on_c, 0, 76, 110
2, 61056, Note_on_c, 0, 83, 110
2, 62160, Note_on_c, 0, 71, 0
2, 62160, Note_on_c, 0, 76, 0
2, 62160, Note_on_c, 0, 83, 0
2, 62160, End_track
3, 0, Start_track
3, 0, MIDI_port, 0
3, 0, Title_t, "Staff-2"
3, 0, Control_c, 0, 7, 127
3, 0, Control_c, 0, 10, 64
3, 0, Note_on_c, 0, 52, 110
3, 528, Note_on_c, 0, 52, 0
3, 576, Note_on_c, 0, 50, 110
3, 832, Note_on_c, 0, 50, 0
3, 960, Note_on_c, 0, 50, 110
3, 1054, Note_on_c, 0, 50, 0
3, 1056, Note_on_c, 0, 50, 110
3, 1150, Note_on_c, 0, 50, 0
3, 1152, Note_on_c, 0, 48, 110
3, 1408, Note_on_c, 0, 48, 0
3, 1536, Note_on_c, 0, 48, 110
3, 1630, Note_on_c, 0, 48, 0
3, 1632, Note_on_c, 0, 48, 110
3, 1726, Note_on_c, 0, 48, 0
3, 1728, Note_on_c, 0, 47, 110
3, 2256, Note_on_c, 0, 47, 0
3, 2304, Note_on_c, 0, 40, 110
3, 2304, Note_on_c, 0, 47, 110
3, 2304, Note_on_c, 0, 52, 110
3, 2446, Note_on_c, 0, 40, 0
3, 2446, Note_on_c, 0, 47, 0
3, 2446, Note_on_c, 0, 52, 0
3, 2448, Note_on_c, 0, 47, 110
3, 2448, Note_on_c, 0, 52, 110
3, 2494, Note_on_c, 0, 47, 0
3, 2494, Note_on_c, 0, 52, 0
3, 2496, Note_on_c, 0, 47, 110
3, 2496, Note_on_c, 0, 52, 110
3, 2542, Note_on_c, 0, 47, 0
3, 2542, Note_on_c, 0, 52, 0
3, 2544, Note_on_c, 0, 47, 110
3, 2544, Note_on_c, 0, 52, 110
3, 2590, Note_on_c, 0, 47, 0
3, 2590, Note_on_c, 0, 52, 0
3, 2592, Note_on_c, 0, 40, 110
3, 2592, Note_on_c, 0, 47, 110
3, 2592, Note_on_c, 0, 52, 110
3, 2734, Note_on_c, 0, 40, 0
3, 2734, Note_on_c, 0, 47, 0
3, 2734, Note_on_c, 0, 52, 0
3, 2736, Note_on_c, 0, 47, 110
3, 2736, Note_on_c, 0, 52, 110
3, 2782, Note_on_c, 0, 47, 0
3, 2782, Note_on_c, 0, 52, 0
3, 2784, Note_on_c, 0, 47, 110
3, 2784, Note_on_c, 0, 52, 110
3, 2830, Note_on_c, 0, 47, 0
3, 2830, Note_on_c, 0, 52, 0
3, 2832, Note_on_c, 0, 47, 110
3, 2832, Note_on_c, 0, 52, 110
3, 2878, Note_on_c, 0, 47, 0
3, 2878, Note_on_c, 0, 52, 0
3, 2880, Note_on_c, 0, 38, 110
3, 2880, Note_on_c, 0, 45, 110
3, 2880, Note_on_c, 0, 50, 110
3, 3022, Note_on_c, 0, 38, 0
3, 3022, Note_on_c, 0, 45, 0
3, 3022, Note_on_c, 0, 50, 0
3, 3024, Note_on_c, 0, 45, 110
3, 3024, Note_on_c, 0, 50, 110
3, 3070, Note_on_c, 0, 45, 0
3, 3070, Note_on_c, 0, 50, 0
3, 3072, Note_on_c, 0, 45, 110
3, 3072, Note_on_c, 0, 50, 110
3, 3118, Note_on_c, 0, 45, 0
3, 3118, Note_on_c, 0, 50, 0
3, 3120, Note_on_c, 0, 45, 110
3, 3120, Note_on_c, 0, 50, 110
3, 3166, Note_on_c, 0, 45, 0
3, 3166, Note_on_c, 0, 50, 0
3, 3168, Note_on_c, 0, 38, 110
3, 3168, Note_on_c, 0, 45, 110
3, 3168, Note_on_c, 0, 50, 110
3, 3310, Note_on_c, 0, 38, 0
3, 3310, Note_on_c, 0, 45, 0
3, 3310, Note_on_c, 0, 50, 0
3, 3312, Note_on_c, 0, 45, 110
3, 3312, Note_on_c, 0, 50, 110
3, 3358, Note_on_c, 0, 45, 0
3, 3358, Note_on_c, 0, 50, 0
3, 3360, Note_on_c, 0, 45, 110
3, 3360, Note_on_c, 0, 50, 110
3, 3406, Note_on_c, 0, 45, 0
3, 3406, Note_on_c, 0, 50, 0
3, 3408, Note_on_c, 0, 45, 110
3, 3408, Note_on_c, 0, 50, 110
3, 3454, Note_on_c, 0, 45, 0
3, 3454, Note_on_c, 0, 50, 0
3, 3456, Note_on_c, 0, 36, 110
3, 3456, Note_on_c, 0, 43, 110
3, 3456, Note_on_c, 0, 48, 110
3, 3598, Note_on_c, 0, 36, 0
3, 3598, Note_on_c, 0, 43, 0
3, 3598, Note_on_c, 0, 48, 0
3, 3600, Note_on_c, 0, 43, 110
3, 3600, Note_on_c, 0, 48, 110
3, 3646, Note_on_c, 0, 43, 0
3, 3646, Note_on_c, 0, 48, 0
3, 3648, Note_on_c, 0, 43, 110
3, 3648, Note_on_c, 0, 48, 110
3, 3694, Note_on_c, 0, 43, 0
3, 3694, Note_on_c, 0, 48, 0
3, 3696, Note_on_c, 0, 43, 110
3, 3696, Note_on_c, 0, 48, 110
3, 3742, Note_on_c, 0, 43, 0
3, 3742, Note_on_c, 0, 48, 0
3, 3744, Note_on_c, 0, 36, 110
3, 3744, Note_on_c, 0, 43, 110
3, 3744, Note_on_c, 0, 48, 110
3, 3886, Note_on_c, 0, 36, 0
3, 3886, Note_on_c, 0, 43, 0
3, 3886, Note_on_c, 0, 48, 0
3, 3888, Note_on_c, 0, 43, 110
3, 3888, Note_on_c, 0, 48, 110
3, 3934, Note_on_c, 0, 43, 0
3, 3934, Note_on_c, 0, 48, 0
3, 3936, Note_on_c, 0, 43, 110
3, 3936, Note_on_c, 0, 48, 110
3, 3982, Note_on_c, 0, 43, 0
3, 3982, Note_on_c, 0, 48, 0
3, 3984, Note_on_c, 0, 43, 110
3, 3984, Note_on_c, 0, 48, 110
3, 4030, Note_on_c, 0, 43, 0
3, 4030, Note_on_c, 0, 48, 0
3, 4032, Note_on_c, 0, 35, 110
3, 4032, Note_on_c, 0, 42, 110
3, 4032, Note_on_c, 0, 47, 110
3, 4174, Note_on_c, 0, 35, 0
3, 4174, Note_on_c, 0, 42, 0
3, 4174, Note_on_c, 0, 47, 0
3, 4176, Note_on_c, 0, 42, 110
3, 4176, Note_on_c, 0, 47, 110
3, 4222, Note_on_c, 0, 42, 0
3, 4222, Note_on_c, 0, 47, 0
3, 4224, Note_on_c, 0, 42, 110
3, 4224, Note_on_c, 0, 47, 110
3, 4270, Note_on_c, 0, 42, 0
3, 4270, Note_on_c, 0, 47, 0
3, 4272, Note_on_c, 0, 42, 110
3, 4272, Note_on_c, 0, 47, 110
3, 4318, Note_on_c, 0, 42, 0
3, 4318, Note_on_c, 0, 47, 0
3, 4320, Note_on_c, 0, 35, 110
3, 4320, Note_on_c, 0, 42, 110
3, 4320, Note_on_c, 0, 47, 110
3, 4462, Note_on_c, 0, 35, 0
3, 4462, Note_on_c, 0, 42, 0
3, 4462, Note_on_c, 0, 47, 0
3, 4464, Note_on_c, 0, 42, 110
3, 4464, Note_on_c, 0, 47, 110
3, 4510, Note_on_c, 0, 42, 0
3, 4510, Note_on_c, 0, 47, 0
3, 4512, Note_on_c, 0, 42, 110
3, 4512, Note_on_c, 0, 47, 110
3, 4558, Note_on_c, 0, 42, 0
3, 4558, Note_on_c, 0, 47, 0
3, 4560, Note_on_c, 0, 42, 110
3, 4560, Note_on_c, 0, 47, 110
3, 4606, Note_on_c, 0, 42, 0
3, 4606, Note_on_c, 0, 47, 0
3, 4608, Note_on_c, 0, 40, 110
3, 4608, Note_on_c, 0, 47, 110
3, 4608, Note_on_c, 0, 52, 110
3, 4750, Note_on_c, 0, 40, 0
3, 4750, Note_on_c, 0, 47, 0
3, 4750, Note_on_c, 0, 52, 0
3, 4752, Note_on_c, 0, 47, 110
3, 4752, Note_on_c, 0, 52, 110
3, 4798, Note_on_c, 0, 47, 0
3, 4798, Note_on_c, 0, 52, 0
3, 4800, Note_on_c, 0, 47, 110
3, 4800, Note_on_c, 0, 52, 110
3, 4846, Note_on_c, 0, 47, 0
3, 4846, Note_on_c, 0, 52, 0
3, 4848, Note_on_c, 0, 47, 110
3, 4848, Note_on_c, 0, 52, 110
3, 4894, Note_on_c, 0, 47, 0
3, 4894, Note_on_c, 0, 52, 0
3, 4896, Note_on_c, 0, 40, 110
3, 4896, Note_on_c, 0, 47, 110
3, 4896, Note_on_c, 0, 52, 110
3, 5038, Note_on_c, 0, 40, 0
3, 5038, Note_on_c, 0, 47, 0
3, 5038, Note_on_c, 0, 52, 0
3, 5040, Note_on_c, 0, 47, 110
3, 5040, Note_on_c, 0, 52, 110
3, 5086, Note_on_c, 0, 47, 0
3, 5086, Note_on_c, 0, 52, 0
3, 5088, Note_on_c, 0, 47, 110
3, 5088, Note_on_c, 0, 52, 110
3, 5134, Note_on_c, 0, 47, 0
3, 5134, Note_on_c, 0, 52, 0
3, 5136, Note_on_c, 0, 47, 110
3, 5136, Note_on_c, 0, 52, 110
3, 5182, Note_on_c, 0, 47, 0
3, 5182, Note_on_c, 0, 52, 0
3, 5184, Note_on_c, 0, 38, 110
3, 5184, Note_on_c, 0, 45, 110
3, 5184, Note_on_c, 0, 50, 110
3, 5326, Note_on_c, 0, 38, 0
3, 5326, Note_on_c, 0, 45, 0
3, 5326, Note_on_c, 0, 50, 0
3, 5328, Note_on_c, 0, 45, 110
3, 5328, Note_on_c, 0, 50, 110
3, 5374, Note_on_c, 0, 45, 0
3, 5374, Note_on_c, 0, 50, 0
3, 5376, Note_on_c, 0, 45, 110
3, 5376, Note_on_c, 0, 50, 110
3, 5422, Note_on_c, 0, 45, 0
3, 5422, Note_on_c, 0, 50, 0
3, 5424, Note_on_c, 0, 45, 110
3, 5424, Note_on_c, 0, 50, 110
3, 5470, Note_on_c, 0, 45, 0
3, 5470, Note_on_c, 0, 50, 0
3, 5472, Note_on_c, 0, 38, 110
3, 5472, Note_on_c, 0, 45, 110
3, 5472, Note_on_c, 0, 50, 110
3, 5614, Note_on_c, 0, 38, 0
3, 5614, Note_on_c, 0, 45, 0
3, 5614, Note_on_c, 0, 50, 0
3, 5616, Note_on_c, 0, 45, 110
3, 5616, Note_on_c, 0, 50, 110
3, 5662, Note_on_c, 0, 45, 0
3, 5662, Note_on_c, 0, 50, 0
3, 5664, Note_on_c, 0, 45, 110
3, 5664, Note_on_c, 0, 50, 110
3, 5710, Note_on_c, 0, 45, 0
3, 5710, Note_on_c, 0, 50, 0
3, 5712, Note_on_c, 0, 45, 110
3, 5712, Note_on_c, 0, 50, 110
3, 5758, Note_on_c, 0, 45, 0
3, 5758, Note_on_c, 0, 50, 0
3, 5760, Note_on_c, 0, 36, 110
3, 5760, Note_on_c, 0, 43, 110
3, 5760, Note_on_c, 0, 48, 110
3, 5902, Note_on_c, 0, 36, 0
3, 5902, Note_on_c, 0, 43, 0
3, 5902, Note_on_c, 0, 48, 0
3, 5904, Note_on_c, 0, 43, 110
3, 5904, Note_on_c, 0, 48, 110
3, 5950, Note_on_c, 0, 43, 0
3, 5950, Note_on_c, 0, 48, 0
3, 5952, Note_on_c, 0, 43, 110
3, 5952, Note_on_c, 0, 48, 110
3, 5998, Note_on_c, 0, 43, 0
3, 5998, Note_on_c, 0, 48, 0
3, 6000, Note_on_c, 0, 43, 110
3, 6000, Note_on_c, 0, 48, 110
3, 6046, Note_on_c, 0, 43, 0
3, 6046, Note_on_c, 0, 48, 0
3, 6048, Note_on_c, 0, 36, 110
3, 6048, Note_on_c, 0, 43, 110
3, 6048, Note_on_c, 0, 48, 110
3, 6190, Note_on_c, 0, 36, 0
3, 6190, Note_on_c, 0, 43, 0
3, 6190, Note_on_c, 0, 48, 0
3, 6192, Note_on_c, 0, 43, 110
3, 6192, Note_on_c, 0, 48, 110
3, 6238, Note_on_c, 0, 43, 0
3, 6238, Note_on_c, 0, 48, 0
3, 6240, Note_on_c, 0, 43, 110
3, 6240, Note_on_c, 0, 48, 110
3, 6286, Note_on_c, 0, 43, 0
3, 6286, Note_on_c, 0, 48, 0
3, 6288, Note_on_c, 0, 43, 110
3, 6288, Note_on_c, 0, 48, 110
3, 6334, Note_on_c, 0, 43, 0
3, 6334, Note_on_c, 0, 48, 0
3, 6336, Note_on_c, 0, 35, 110
3, 6336, Note_on_c, 0, 42, 110
3, 6336, Note_on_c, 0, 47, 110
3, 6478, Note_on_c, 0, 35, 0
3, 6478, Note_on_c, 0, 42, 0
3, 6478, Note_on_c, 0, 47, 0
3, 6480, Note_on_c, 0, 42, 110
3, 6480, Note_on_c, 0, 47, 110
3, 6526, Note_on_c, 0, 42, 0
3, 6526, Note_on_c, 0, 47, 0
3, 6528, Note_on_c, 0, 42, 110
3, 6528, Note_on_c, 0, 47, 110
3, 6574, Note_on_c, 0, 42, 0
3, 6574, Note_on_c, 0, 47, 0
3, 6576, Note_on_c, 0, 42, 110
3, 6576, Note_on_c, 0, 47, 110
3, 6622, Note_on_c, 0, 42, 0
3, 6622, Note_on_c, 0, 47, 0
3, 6624, Note_on_c, 0, 35, 110
3, 6624, Note_on_c, 0, 42, 110
3, 6624, Note_on_c, 0, 47, 110
3, 6766, Note_on_c, 0, 35, 0
3, 6766, Note_on_c, 0, 42, 0
3, 6766, Note_on_c, 0, 47, 0
3, 6768, Note_on_c, 0, 42, 110
3, 6768, Note_on_c, 0, 47, 110
3, 6814, Note_on_c, 0, 42, 0
3, 6814, Note_on_c, 0, 47, 0
3, 6816, Note_on_c, 0, 42, 110
3, 6816, Note_on_c, 0, 47, 110
3, 6862, Note_on_c, 0, 42, 0
3, 6862, Note_on_c, 0, 47, 0
3, 6864, Note_on_c, 0, 42, 110
3, 6864, Note_on_c, 0, 47, 110
3, 6910, Note_on_c, 0, 42, 0
3, 6910, Note_on_c, 0, 47, 0
3, 6912, Note_on_c, 0, 40, 110
3, 6912, Note_on_c, 0, 47, 110
3, 6912, Note_on_c, 0, 52, 110
3, 7054, Note_on_c, 0, 40, 0
3, 7054, Note_on_c, 0, 47, 0
3, 7054, Note_on_c, 0, 52, 0
3, 7056, Note_on_c, 0, 47, 110
3, 7056, Note_on_c, 0, 52, 110
3, 7102, Note_on_c, 0, 47, 0
3, 7102, Note_on_c, 0, 52, 0
3, 7104, Note_on_c, 0, 47, 110
3, 7104, Note_on_c, 0, 52, 110
3, 7150, Note_on_c, 0, 47, 0
3, 7150, Note_on_c, 0, 52, 0
3, 7152, Note_on_c, 0, 47, 110
3, 7152, Note_on_c, 0, 52, 110
3, 7198, Note_on_c, 0, 47, 0
3, 7198, Note_on_c, 0, 52, 0
3, 7200, Note_on_c, 0, 40, 110
3, 7200, Note_on_c, 0, 47, 110
3, 7200, Note_on_c, 0, 52, 110
3, 7342, Note_on_c, 0, 40, 0
3, 7342, Note_on_c, 0, 47, 0
3, 7342, Note_on_c, 0, 52, 0
3, 7344, Note_on_c, 0, 47, 110
3, 7344, Note_on_c, 0, 52, 110
3, 7390, Note_on_c, 0, 47, 0
3, 7390, Note_on_c, 0, 52, 0
3, 7392, Note_on_c, 0, 47, 110
3, 7392, Note_on_c, 0, 52, 110
3, 7438, Note_on_c, 0, 47, 0
3, 7438, Note_on_c, 0, 52, 0
3, 7440, Note_on_c, 0, 47, 110
3, 7440, Note_on_c, 0, 52, 110
3, 7486, Note_on_c, 0, 47, 0
3, 7486, Note_on_c, 0, 52, 0
3, 7488, Note_on_c, 0, 38, 110
3, 7488, Note_on_c, 0, 45, 110
3, 7488, Note_on_c, 0, 50, 110
3, 7630, Note_on_c, 0, 38, 0
3, 7630, Note_on_c, 0, 45, 0
3, 7630, Note_on_c, 0, 50, 0
3, 7632, Note_on_c, 0, 45, 110
3, 7632, Note_on_c, 0, 50, 110
3, 7678, Note_on_c, 0, 45, 0
3, 7678, Note_on_c, 0, 50, 0
3, 7680, Note_on_c, 0, 45, 110
3, 7680, Note_on_c, 0, 50, 110
3, 7726, Note_on_c, 0, 45, 0
3, 7726, Note_on_c, 0, 50, 0
3, 7728, Note_on_c, 0, 45, 110
3, 7728, Note_on_c, 0, 50, 110
3, 7774, Note_on_c, 0, 45, 0
3, 7774, Note_on_c, 0, 50, 0
3, 7776, Note_on_c, 0, 38, 110
3, 7776, Note_on_c, 0, 45, 110
3, 7776, Note_on_c, 0, 50, 110
3, 7918, Note_on_c, 0, 38, 0
3, 7918, Note_on_c, 0, 45, 0
3, 7918, Note_on_c, 0, 50, 0
3, 7920, Note_on_c, 0, 45, 110
3, 7920, Note_on_c, 0, 50, 110
3, 7966, Note_on_c, 0, 45, 0
3, 7966, Note_on_c, 0, 50, 0
3, 7968, Note_on_c, 0, 45, 110
3, 7968, Note_on_c, 0, 50, 110
3, 8014, Note_on_c, 0, 45, 0
3, 8014, Note_on_c, 0, 50, 0
3, 8016, Note_on_c, 0, 45, 110
3, 8016, Note_on_c, 0, 50, 110
3, 8062, Note_on_c, 0, 45, 0
3, 8062, Note_on_c, 0, 50, 0
3, 8064, Note_on_c, 0, 36, 110
3, 8064, Note_on_c, 0, 43, 110
3, 8064, Note_on_c, 0, 48, 110
3, 8206, Note_on_c, 0, 36, 0
3, 8206, Note_on_c, 0, 43, 0
3, 8206, Note_on_c, 0, 48, 0
3, 8208, Note_on_c, 0, 43, 110
3, 8208, Note_on_c, 0, 48, 110
3, 8254, Note_on_c, 0, 43, 0
3, 8254, Note_on_c, 0, 48, 0
3, 8256, Note_on_c, 0, 43, 110
3, 8256, Note_on_c, 0, 48, 110
3, 8302, Note_on_c, 0, 43, 0
3, 8302, Note_on_c, 0, 48, 0
3, 8304, Note_on_c, 0, 43, 110
3, 8304, Note_on_c, 0, 48, 110
3, 8350, Note_on_c, 0, 43, 0
3, 8350, Note_on_c, 0, 48, 0
3, 8352, Note_on_c, 0, 36, 110
3, 8352, Note_on_c, 0, 43, 110
3, 8352, Note_on_c, 0, 48, 110
3, 8494, Note_on_c, 0, 36, 0
3, 8494, Note_on_c, 0, 43, 0
3, 8494, Note_on_c, 0, 48, 0
3, 8496, Note_on_c, 0, 43, 110
3, 8496, Note_on_c, 0, 48, 110
3, 8542, Note_on_c, 0, 43, 0
3, 8542, Note_on_c, 0, 48, 0
3, 8544, Note_on_c, 0, 43, 110
3, 8544, Note_on_c, 0, 48, 110
3, 8590, Note_on_c, 0, 43, 0
3, 8590, Note_on_c, 0, 48, 0
3, 8592, Note_on_c, 0, 43, 110
3, 8592, Note_on_c, 0, 48, 110
3, 8638, Note_on_c, 0, 43, 0
3, 8638, Note_on_c, 0, 48, 0
3, 8640, Note_on_c, 0, 35, 110
3, 8640, Note_on_c, 0, 42, 110
3, 8640, Note_on_c, 0, 47, 110
3, 8782, Note_on_c, 0, 35, 0
3, 8782, Note_on_c, 0, 42, 0
3, 8782, Note_on_c, 0, 47, 0
3, 8784, Note_on_c, 0, 42, 110
3, 8784, Note_on_c, 0, 47, 110
3, 8830, Note_on_c, 0, 42, 0
3, 8830, Note_on_c, 0, 47, 0
3, 8832, Note_on_c, 0, 42, 110
3, 8832, Note_on_c, 0, 47, 110
3, 8878, Note_on_c, 0, 42, 0
3, 8878, Note_on_c, 0, 47, 0
3, 8880, Note_on_c, 0, 42, 110
3, 8880, Note_on_c, 0, 47, 110
3, 8926, Note_on_c, 0, 42, 0
3, 8926, Note_on_c, 0, 47, 0
3, 8928, Note_on_c, 0, 35, 110
3, 8928, Note_on_c, 0, 42, 110
3, 8928, Note_on_c, 0, 47, 110
3, 9070, Note_on_c, 0, 35, 0
3, 9070, Note_on_c, 0, 42, 0
3, 9070, Note_on_c, 0, 47, 0
3, 9072, Note_on_c, 0, 42, 110
3, 9072, Note_on_c, 0, 47, 110
3, 9118, Note_on_c, 0, 42, 0
3, 9118, Note_on_c, 0, 47, 0
3, 9120, Note_on_c, 0, 42, 110
3, 9120, Note_on_c, 0, 47, 110
3, 9166, Note_on_c, 0, 42, 0
3, 9166, Note_on_c, 0, 47, 0
3, 9168, Note_on_c, 0, 42, 110
3, 9168, Note_on_c, 0, 47, 110
3, 9214, Note_on_c, 0, 42, 0
3, 9214, Note_on_c, 0, 47, 0
3, 9216, Note_on_c, 0, 40, 110
3, 9216, Note_on_c, 0, 47, 110
3, 9216, Note_on_c, 0, 52, 110
3, 9358, Note_on_c, 0, 40, 0
3, 9358, Note_on_c, 0, 47, 0
3, 9358, Note_on_c, 0, 52, 0
3, 9360, Note_on_c, 0, 47, 110
3, 9360, Note_on_c, 0, 52, 110
3, 9406, Note_on_c, 0, 47, 0
3, 9406, Note_on_c, 0, 52, 0
3, 9408, Note_on_c, 0, 47, 110
3, 9408, Note_on_c, 0, 52, 110
3, 9454, Note_on_c, 0, 47, 0
3, 9454, Note_on_c, 0, 52, 0
3, 9456, Note_on_c, 0, 47, 110
3, 9456, Note_on_c, 0, 52, 110
3, 9502, Note_on_c, 0, 47, 0
3, 9502, Note_on_c, 0, 52, 0
3, 9504, Note_on_c, 0, 40, 110
3, 9504, Note_on_c, 0, 47, 110
3, 9504, Note_on_c, 0, 52, 110
3, 9598, Note_on_c, 0, 40, 0
3, 9598, Note_on_c, 0, 47, 0
3, 9598, Note_on_c, 0, 52, 0
3, 9600, Note_on_c, 0, 47, 110
3, 9600, Note_on_c, 0, 52, 110
3, 9694, Note_on_c, 0, 47, 0
3, 9694, Note_on_c, 0, 52, 0
3, 9696, Note_on_c, 0, 47, 110
3, 9696, Note_on_c, 0, 52, 110
3, 9790, Note_on_c, 0, 47, 0
3, 9790, Note_on_c, 0, 52, 0
3, 9792, Note_on_c, 0, 38, 110
3, 9792, Note_on_c, 0, 45, 110
3, 9792, Note_on_c, 0, 50, 110
3, 9934, Note_on_c, 0, 38, 0
3, 9934, Note_on_c, 0, 45, 0
3, 9934, Note_on_c, 0, 50, 0
3, 9936, Note_on_c, 0, 45, 110
3, 9936, Note_on_c, 0, 50, 110
3, 9982, Note_on_c, 0, 45, 0
3, 9982, Note_on_c, 0, 50, 0
3, 9984, Note_on_c, 0, 45, 110
3, 9984, Note_on_c, 0, 50, 110
3, 10030, Note_on_c, 0, 45, 0
3, 10030, Note_on_c, 0, 50, 0
3, 10032, Note_on_c, 0, 45, 110
3, 10032, Note_on_c, 0, 50, 110
3, 10078, Note_on_c, 0, 45, 0
3, 10078, Note_on_c, 0, 50, 0
3, 10080, Note_on_c, 0, 38, 110
3, 10080, Note_on_c, 0, 45, 110
3, 10080, Note_on_c, 0, 50, 110
3, 10174, Note_on_c, 0, 38, 0
3, 10174, Note_on_c, 0, 45, 0
3, 10174, Note_on_c, 0, 50, 0
3, 10176, Note_on_c, 0, 45, 110
3, 10176, Note_on_c, 0, 50, 110
3, 10270, Note_on_c, 0, 45, 0
3, 10270, Note_on_c, 0, 50, 0
3, 10272, Note_on_c, 0, 45, 110
3, 10272, Note_on_c, 0, 50, 110
3, 10366, Note_on_c, 0, 45, 0
3, 10366, Note_on_c, 0, 50, 0
3, 10368, Note_on_c, 0, 36, 110
3, 10368, Note_on_c, 0, 43, 110
3, 10368, Note_on_c, 0, 48, 110
3, 10510, Note_on_c, 0, 36, 0
3, 10510, Note_on_c, 0, 43, 0
3, 10510, Note_on_c, 0, 48, 0
3, 10512, Note_on_c, 0, 43, 110
3, 10512, Note_on_c, 0, 48, 110
3, 10558, Note_on_c, 0, 43, 0
3, 10558, Note_on_c, 0, 48, 0
3, 10560, Note_on_c, 0, 43, 110
3, 10560, Note_on_c, 0, 48, 110
3, 10606, Note_on_c, 0, 43, 0
3, 10606, Note_on_c, 0, 48, 0
3, 10608, Note_on_c, 0, 43, 110
3, 10608, Note_on_c, 0, 48, 110
3, 10654, Note_on_c, 0, 43, 0
3, 10654, Note_on_c, 0, 48, 0
3, 10656, Note_on_c, 0, 36, 110
3, 10656, Note_on_c, 0, 43, 110
3, 10656, Note_on_c, 0, 48, 110
3, 10750, Note_on_c, 0, 36, 0
3, 10750, Note_on_c, 0, 43, 0
3, 10750, Note_on_c, 0, 48, 0
3, 10752, Note_on_c, 0, 43, 110
3, 10752, Note_on_c, 0, 48, 110
3, 10846, Note_on_c, 0, 43, 0
3, 10846, Note_on_c, 0, 48, 0
3, 10848, Note_on_c, 0, 43, 110
3, 10848, Note_on_c, 0, 48, 110
3, 10942, Note_on_c, 0, 43, 0
3, 10942, Note_on_c, 0, 48, 0
3, 10944, Note_on_c, 0, 35, 110
3, 10944, Note_on_c, 0, 42, 110
3, 10944, Note_on_c, 0, 47, 110
3, 11038, Note_on_c, 0, 35, 0
3, 11038, Note_on_c, 0, 42, 0
3, 11038, Note_on_c, 0, 47, 0
3, 11040, Note_on_c, 0, 35, 110
3, 11040, Note_on_c, 0, 42, 110
3, 11040, Note_on_c, 0, 47, 110
3, 11134, Note_on_c, 0, 35, 0
3, 11134, Note_on_c, 0, 42, 0
3, 11134, Note_on_c, 0, 47, 0
3, 11136, Note_on_c, 0, 35, 110
3, 11136, Note_on_c, 0, 42, 110
3, 11136, Note_on_c, 0, 47, 110
3, 11230, Note_on_c, 0, 35, 0
3, 11230, Note_on_c, 0, 42, 0
3, 11230, Note_on_c, 0, 47, 0
3, 11232, Note_on_c, 0, 35, 110
3, 11232, Note_on_c, 0, 42, 110
3, 11232, Note_on_c, 0, 47, 110
3, 11326, Note_on_c, 0, 35, 0
3, 11326, Note_on_c, 0, 42, 0
3, 11326, Note_on_c, 0, 47, 0
3, 11328, Note_on_c, 0, 35, 110
3, 11328, Note_on_c, 0, 42, 110
3, 11328, Note_on_c, 0, 47, 110
3, 11422, Note_on_c, 0, 35, 0
3, 11422, Note_on_c, 0, 42, 0
3, 11422, Note_on_c, 0, 47, 0
3, 11424, Note_on_c, 0, 35, 110
3, 11424, Note_on_c, 0, 42, 110
3, 11424, Note_on_c, 0, 47, 110
3, 11518, Note_on_c, 0, 35, 0
3, 11518, Note_on_c, 0, 42, 0
3, 11518, Note_on_c, 0, 47, 0
3, 11520, Note_on_c, 0, 40, 110
3, 11520, Note_on_c, 0, 47, 110
3, 11520, Note_on_c, 0, 52, 110
3, 11614, Note_on_c, 0, 40, 0
3, 11614, Note_on_c, 0, 47, 0
3, 11614, Note_on_c, 0, 52, 0
3, 11616, Note_on_c, 0, 40, 110
3, 11662, Note_on_c, 0, 40, 0
3, 11664, Note_on_c, 0, 47, 110
3, 11664, Note_on_c, 0, 52, 110
3, 11710, Note_on_c, 0, 47, 0
3, 11710, Note_on_c, 0, 52, 0
3, 11712, Note_on_c, 0, 40, 110
3, 11758, Note_on_c, 0, 40, 0
3, 11760, Note_on_c, 0, 47, 110
3, 11760, Note_on_c, 0, 52, 110
3, 11806, Note_on_c, 0, 47, 0
3, 11806, Note_on_c, 0, 52, 0
3, 11808, Note_on_c, 0, 40, 110
3, 11902, Note_on_c, 0, 40, 0
3, 12096, Note_on_c, 0, 43, 110
3, 12096, Note_on_c, 0, 50, 110
3, 12096, Note_on_c, 0, 55, 110
3, 12190, Note_on_c, 0, 43, 0
3, 12190, Note_on_c, 0, 50, 0
3, 12190, Note_on_c, 0, 55, 0
3, 12192, Note_on_c, 0, 43, 110
3, 12238, Note_on_c, 0, 43, 0
3, 12240, Note_on_c, 0, 50, 110
3, 12240, Note_on_c, 0, 55, 110
3, 12286, Note_on_c, 0, 50, 0
3, 12286, Note_on_c, 0, 55, 0
3, 12288, Note_on_c, 0, 43, 110
3, 12334, Note_on_c, 0, 43, 0
3, 12336, Note_on_c, 0, 50, 110
3, 12336, Note_on_c, 0, 55, 110
3, 12382, Note_on_c, 0, 50, 0
3, 12382, Note_on_c, 0, 55, 0
3, 12384, Note_on_c, 0, 43, 110
3, 12478, Note_on_c, 0, 43, 0
3, 12672, Note_on_c, 0, 36, 110
3, 12672, Note_on_c, 0, 43, 110
3, 12672, Note_on_c, 0, 48, 110
3, 12766, Note_on_c, 0, 36, 0
3, 12766, Note_on_c, 0, 43, 0
3, 12766, Note_on_c, 0, 48, 0
3, 12768, Note_on_c, 0, 36, 110
3, 12814, Note_on_c, 0, 36, 0
3, 12816, Note_on_c, 0, 43, 110
3, 12816, Note_on_c, 0, 48, 110
3, 12862, Note_on_c, 0, 43, 0
3, 12862, Note_on_c, 0, 48, 0
3, 12864, Note_on_c, 0, 36, 110
3, 12910, Note_on_c, 0, 36, 0
3, 12912, Note_on_c, 0, 43, 110
3, 12912, Note_on_c, 0, 48, 110
3, 12958, Note_on_c, 0, 43, 0
3, 12958, Note_on_c, 0, 48, 0
3, 12960, Note_on_c, 0, 36, 110
3, 13054, Note_on_c, 0, 36, 0
3, 13248, Note_on_c, 0, 35, 110
3, 13248, Note_on_c, 0, 42, 110
3, 13248, Note_on_c, 0, 47, 110
3, 13342, Note_on_c, 0, 35, 0
3, 13342, Note_on_c, 0, 42, 0
3, 13342, Note_on_c, 0, 47, 0
3, 13344, Note_on_c, 0, 35, 110
3, 13390, Note_on_c, 0, 35, 0
3, 13392, Note_on_c, 0, 42, 110
3, 13392, Note_on_c, 0, 47, 110
3, 13438, Note_on_c, 0, 42, 0
3, 13438, Note_on_c, 0, 47, 0
3, 13440, Note_on_c, 0, 35, 110
3, 13486, Note_on_c, 0, 35, 0
3, 13488, Note_on_c, 0, 42, 110
3, 13488, Note_on_c, 0, 47, 110
3, 13534, Note_on_c, 0, 42, 0
3, 13534, Note_on_c, 0, 47, 0
3, 13536, Note_on_c, 0, 35, 110
3, 13630, Note_on_c, 0, 35, 0
3, 13824, Note_on_c, 0, 40, 110
3, 13824, Note_on_c, 0, 47, 110
3, 13824, Note_on_c, 0, 52, 110
3, 13918, Note_on_c, 0, 40, 0
3, 13918, Note_on_c, 0, 47, 0
3, 13918, Note_on_c, 0, 52, 0
3, 13920, Note_on_c, 0, 40, 110
3, 13966, Note_on_c, 0, 40, 0
3, 13968, Note_on_c, 0, 47, 110
3, 13968, Note_on_c, 0, 52, 110
3, 14014, Note_on_c, 0, 47, 0
3, 14014, Note_on_c, 0, 52, 0
3, 14016, Note_on_c, 0, 40, 110
3, 14062, Note_on_c, 0, 40, 0
3, 14064, Note_on_c, 0, 47, 110
3, 14064, Note_on_c, 0, 52, 110
3, 14110, Note_on_c, 0, 47, 0
3, 14110, Note_on_c, 0, 52, 0
3, 14112, Note_on_c, 0, 40, 110
3, 14206, Note_on_c, 0, 40, 0
3, 14400, Note_on_c, 0, 43, 110
3, 14400, Note_on_c, 0, 50, 110
3, 14400, Note_on_c, 0, 55, 110
3, 14494, Note_on_c, 0, 43, 0
3, 14494, Note_on_c, 0, 50, 0
3, 14494, Note_on_c, 0, 55, 0
3, 14496, Note_on_c, 0, 43, 110
3, 14542, Note_on_c, 0, 43, 0
3, 14544, Note_on_c, 0, 50, 110
3, 14544, Note_on_c, 0, 55, 110
3, 14590, Note_on_c, 0, 50, 0
3, 14590, Note_on_c, 0, 55, 0
3, 14592, Note_on_c, 0, 43, 110
3, 14638, Note_on_c, 0, 43, 0
3, 14640, Note_on_c, 0, 50, 110
3, 14640, Note_on_c, 0, 55, 110
3, 14686, Note_on_c, 0, 50, 0
3, 14686, Note_on_c, 0, 55, 0
3, 14688, Note_on_c, 0, 43, 110
3, 14782, Note_on_c, 0, 43, 0
3, 14976, Note_on_c, 0, 36, 110
3, 14976, Note_on_c, 0, 43, 110
3, 14976, Note_on_c, 0, 48, 110
3, 15070, Note_on_c, 0, 36, 0
3, 15070, Note_on_c, 0, 43, 0
3, 15070, Note_on_c, 0, 48, 0
3, 15072, Note_on_c, 0, 36, 110
3, 15118, Note_on_c, 0, 36, 0
3, 15120, Note_on_c, 0, 43, 110
3, 15120, Note_on_c, 0, 48, 110
3, 15166, Note_on_c, 0, 43, 0
3, 15166, Note_on_c, 0, 48, 0
3, 15168, Note_on_c, 0, 36, 110
3, 15214, Note_on_c, 0, 36, 0
3, 15216, Note_on_c, 0, 43, 110
3, 15216, Note_on_c, 0, 48, 110
3, 15262, Note_on_c, 0, 43, 0
3, 15262, Note_on_c, 0, 48, 0
3, 15264, Note_on_c, 0, 36, 110
3, 15358, Note_on_c, 0, 36, 0
3, 15552, Note_on_c, 0, 35, 110
3, 15552, Note_on_c, 0, 42, 110
3, 15552, Note_on_c, 0, 47, 110
3, 15646, Note_on_c, 0, 35, 0
3, 15646, Note_on_c, 0, 42, 0
3, 15646, Note_on_c, 0, 47, 0
3, 15648, Note_on_c, 0, 35, 110
3, 15694, Note_on_c, 0, 35, 0
3, 15696, Note_on_c, 0, 42, 110
3, 15696, Note_on_c, 0, 47, 110
3, 15742, Note_on_c, 0, 42, 0
3, 15742, Note_on_c, 0, 47, 0
3, 15744, Note_on_c, 0, 35, 110
3, 15790, Note_on_c, 0, 35, 0
3, 15792, Note_on_c, 0, 42, 110
3, 15792, Note_on_c, 0, 47, 110
3, 15838, Note_on_c, 0, 42, 0
3, 15838, Note_on_c, 0, 47, 0
3, 15840, Note_on_c, 0, 35, 110
3, 15934, Note_on_c, 0, 35, 0
3, 15936, Note_on_c, 0, 35, 110
3, 15936, Note_on_c, 0, 42, 110
3, 15936, Note_on_c, 0, 47, 110
3, 15982, Note_on_c, 0, 35, 0
3, 15982, Note_on_c, 0, 42, 0
3, 15982, Note_on_c, 0, 47, 0
3, 15984, Note_on_c, 0, 35, 110
3, 15984, Note_on_c, 0, 42, 110
3, 15984, Note_on_c, 0, 47, 110
3, 16030, Note_on_c, 0, 35, 0
3, 16030, Note_on_c, 0, 42, 0
3, 16030, Note_on_c, 0, 47, 0
3, 16032, Note_on_c, 0, 35, 110
3, 16032, Note_on_c, 0, 42, 110
3, 16032, Note_on_c, 0, 47, 110
3, 16078, Note_on_c, 0, 35, 0
3, 16078, Note_on_c, 0, 42, 0
3, 16078, Note_on_c, 0, 47, 0
3, 16080, Note_on_c, 0, 35, 110
3, 16080, Note_on_c, 0, 42, 110
3, 16080, Note_on_c, 0, 47, 110
3, 16126, Note_on_c, 0, 35, 0
3, 16126, Note_on_c, 0, 42, 0
3, 16126, Note_on_c, 0, 47, 0
3, 16128, Note_on_c, 0, 40, 110
3, 16128, Note_on_c, 0, 47, 110
3, 16128, Note_on_c, 0, 52, 110
3, 16222, Note_on_c, 0, 40, 0
3, 16222, Note_on_c, 0, 47, 0
3, 16222, Note_on_c, 0, 52, 0
3, 16224, Note_on_c, 0, 40, 110
3, 16270, Note_on_c, 0, 40, 0
3, 16272, Note_on_c, 0, 47, 110
3, 16272, Note_on_c, 0, 52, 110
3, 16318, Note_on_c, 0, 47, 0
3, 16318, Note_on_c, 0, 52, 0
3, 16320, Note_on_c, 0, 40, 110
3, 16366, Note_on_c, 0, 40, 0
3, 16368, Note_on_c, 0, 47, 110
3, 16368, Note_on_c, 0, 52, 110
3, 16414, Note_on_c, 0, 47, 0
3, 16414, Note_on_c, 0, 52, 0
3, 16416, Note_on_c, 0, 40, 110
3, 16510, Note_on_c, 0, 40, 0
3, 16512, Note_on_c, 0, 40, 110
3, 16558, Note_on_c, 0, 40, 0
3, 16560, Note_on_c, 0, 47, 110
3, 16560, Note_on_c, 0, 52, 110
3, 16606, Note_on_c, 0, 47, 0
3, 16606, Note_on_c, 0, 52, 0
3, 16608, Note_on_c, 0, 40, 110
3, 16654, Note_on_c, 0, 40, 0
3, 16656, Note_on_c, 0, 47, 110
3, 16656, Note_on_c, 0, 52, 110
3, 16702, Note_on_c, 0, 47, 0
3, 16702, Note_on_c, 0, 52, 0
3, 16704, Note_on_c, 0, 43, 110
3, 16704, Note_on_c, 0, 50, 110
3, 16704, Note_on_c, 0, 55, 110
3, 16798, Note_on_c, 0, 43, 0
3, 16798, Note_on_c, 0, 50, 0
3, 16798, Note_on_c, 0, 55, 0
3, 16800, Note_on_c, 0, 43, 110
3, 16846, Note_on_c, 0, 43, 0
3, 16848, Note_on_c, 0, 50, 110
3, 16848, Note_on_c, 0, 55, 110
3, 16894, Note_on_c, 0, 50, 0
3, 16894, Note_on_c, 0, 55, 0
3, 16896, Note_on_c, 0, 43, 110
3, 16942, Note_on_c, 0, 43, 0
3, 16944, Note_on_c, 0, 50, 110
3, 16944, Note_on_c, 0, 55, 110
3, 16990, Note_on_c, 0, 50, 0
3, 16990, Note_on_c, 0, 55, 0
3, 16992, Note_on_c, 0, 43, 110
3, 17086, Note_on_c, 0, 43, 0
3, 17088, Note_on_c, 0, 43, 110
3, 17134, Note_on_c, 0, 43, 0
3, 17136, Note_on_c, 0, 50, 110
3, 17136, Note_on_c, 0, 55, 110
3, 17182, Note_on_c, 0, 50, 0
3, 17182, Note_on_c, 0, 55, 0
3, 17184, Note_on_c, 0, 43, 110
3, 17230, Note_on_c, 0, 43, 0
3, 17232, Note_on_c, 0, 50, 110
3, 17232, Note_on_c, 0, 55, 110
3, 17278, Note_on_c, 0, 50, 0
3, 17278, Note_on_c, 0, 55, 0
3, 17280, Note_on_c, 0, 36, 110
3, 17280, Note_on_c, 0, 43, 110
3, 17280, Note_on_c, 0, 48, 110
3, 17374, Note_on_c, 0, 36, 0
3, 17374, Note_on_c, 0, 43, 0
3, 17374, Note_on_c, 0, 48, 0
3, 17376, Note_on_c, 0, 36, 110
3, 17422, Note_on_c, 0, 36, 0
3, 17424, Note_on_c, 0, 43, 110
3, 17424, Note_on_c, 0, 48, 110
3, 17470, Note_on_c, 0, 43, 0
3, 17470, Note_on_c, 0, 48, 0
3, 17472, Note_on_c, 0, 36, 110
3, 17518, Note_on_c, 0, 36, 0
3, 17520, Note_on_c, 0, 43, 110
3, 17520, Note_on_c, 0, 48, 110
3, 17566, Note_on_c, 0, 43, 0
3, 17566, Note_on_c, 0, 48, 0
3, 17568, Note_on_c, 0, 36, 110
3, 17662, Note_on_c, 0, 36, 0
3, 17664, Note_on_c, 0, 36, 110
3, 17710, Note_on_c, 0, 36, 0
3, 17712, Note_on_c, 0, 43, 110
3, 17712, Note_on_c, 0, 48, 110
3, 17758, Note_on_c, 0, 43, 0
3, 17758, Note_on_c, 0, 48, 0
3, 17760, Note_on_c, 0, 36, 110
3, 17806, Note_on_c, 0, 36, 0
3, 17808, Note_on_c, 0, 43, 110
3, 17808, Note_on_c, 0, 48, 110
3, 17854, Note_on_c, 0, 43, 0
3, 17854, Note_on_c, 0, 48, 0
3, 17856, Note_on_c, 0, 35, 110
3, 17856, Note_on_c, 0, 42, 110
3, 17856, Note_on_c, 0, 47, 110
3, 17950, Note_on_c, 0, 35, 0
3, 17950, Note_on_c, 0, 42, 0
3, 17950, Note_on_c, 0, 47, 0
3, 17952, Note_on_c, 0, 35, 110
3, 17998, Note_on_c, 0, 35, 0
3, 18000, Note_on_c, 0, 42, 110
3, 18000, Note_on_c, 0, 47, 110
3, 18046, Note_on_c, 0, 42, 0
3, 18046, Note_on_c, 0, 47, 0
3, 18048, Note_on_c, 0, 35, 110
3, 18094, Note_on_c, 0, 35, 0
3, 18096, Note_on_c, 0, 42, 110
3, 18096, Note_on_c, 0, 47, 110
3, 18142, Note_on_c, 0, 42, 0
3, 18142, Note_on_c, 0, 47, 0
3, 18144, Note_on_c, 0, 35, 110
3, 18238, Note_on_c, 0, 35, 0
3, 18240, Note_on_c, 0, 35, 110
3, 18286, Note_on_c, 0, 35, 0
3, 18288, Note_on_c, 0, 42, 110
3, 18288, Note_on_c, 0, 47, 110
3, 18334, Note_on_c, 0, 42, 0
3, 18334, Note_on_c, 0, 47, 0
3, 18336, Note_on_c, 0, 35, 110
3, 18382, Note_on_c, 0, 35, 0
3, 18384, Note_on_c, 0, 42, 110
3, 18384, Note_on_c, 0, 47, 110
3, 18430, Note_on_c, 0, 42, 0
3, 18430, Note_on_c, 0, 47, 0
3, 18432, Note_on_c, 0, 40, 110
3, 18432, Note_on_c, 0, 47, 110
3, 18432, Note_on_c, 0, 52, 110
3, 18526, Note_on_c, 0, 40, 0
3, 18526, Note_on_c, 0, 47, 0
3, 18526, Note_on_c, 0, 52, 0
3, 18528, Note_on_c, 0, 40, 110
3, 18574, Note_on_c, 0, 40, 0
3, 18576, Note_on_c, 0, 47, 110
3, 18576, Note_on_c, 0, 52, 110
3, 18622, Note_on_c, 0, 47, 0
3, 18622, Note_on_c, 0, 52, 0
3, 18624, Note_on_c, 0, 40, 110
3, 18670, Note_on_c, 0, 40, 0
3, 18672, Note_on_c, 0, 47, 110
3, 18672, Note_on_c, 0, 52, 110
3, 18718, Note_on_c, 0, 47, 0
3, 18718, Note_on_c, 0, 52, 0
3, 18720, Note_on_c, 0, 40, 110
3, 18814, Note_on_c, 0, 40, 0
3, 18816, Note_on_c, 0, 40, 110
3, 18862, Note_on_c, 0, 40, 0
3, 18864, Note_on_c, 0, 47, 110
3, 18864, Note_on_c, 0, 52, 110
3, 18910, Note_on_c, 0, 47, 0
3, 18910, Note_on_c, 0, 52, 0
3, 18912, Note_on_c, 0, 40, 110
3, 18958, Note_on_c, 0, 40, 0
3, 18960, Note_on_c, 0, 47, 110
3, 18960, Note_on_c, 0, 52, 110
3, 19006, Note_on_c, 0, 47, 0
3, 19006, Note_on_c, 0, 52, 0
3, 19008, Note_on_c, 0, 43, 110
3, 19008, Note_on_c, 0, 50, 110
3, 19008, Note_on_c, 0, 55, 110
3, 19102, Note_on_c, 0, 43, 0
3, 19102, Note_on_c, 0, 50, 0
3, 19102, Note_on_c, 0, 55, 0
3, 19104, Note_on_c, 0, 43, 110
3, 19150, Note_on_c, 0, 43, 0
3, 19152, Note_on_c, 0, 50, 110
3, 19152, Note_on_c, 0, 55, 110
3, 19198, Note_on_c, 0, 50, 0
3, 19198, Note_on_c, 0, 55, 0
3, 19200, Note_on_c, 0, 43, 110
3, 19246, Note_on_c, 0, 43, 0
3, 19248, Note_on_c, 0, 50, 110
3, 19248, Note_on_c, 0, 55, 110
3, 19294, Note_on_c, 0, 50, 0
3, 19294, Note_on_c, 0, 55, 0
3, 19296, Note_on_c, 0, 43, 110
3, 19390, Note_on_c, 0, 43, 0
3, 19392, Note_on_c, 0, 43, 110
3, 19438, Note_on_c, 0, 43, 0
3, 19440, Note_on_c, 0, 50, 110
3, 19440, Note_on_c, 0, 55, 110
3, 19486, Note_on_c, 0, 50, 0
3, 19486, Note_on_c, 0, 55, 0
3, 19488, Note_on_c, 0, 43, 110
3, 19534, Note_on_c, 0, 43, 0
3, 19536, Note_on_c, 0, 50, 110
3, 19536, Note_on_c, 0, 55, 110
3, 19582, Note_on_c, 0, 50, 0
3, 19582, Note_on_c, 0, 55, 0
3, 19584, Note_on_c, 0, 36, 110
3, 19584, Note_on_c, 0, 43, 110
3, 19584, Note_on_c, 0, 48, 110
3, 19678, Note_on_c, 0, 36, 0
3, 19678, Note_on_c, 0, 43, 0
3, 19678, Note_on_c, 0, 48, 0
3, 19680, Note_on_c, 0, 36, 110
3, 19726, Note_on_c, 0, 36, 0
3, 19728, Note_on_c, 0, 43, 110
3, 19728, Note_on_c, 0, 48, 110
3, 19774, Note_on_c, 0, 43, 0
3, 19774, Note_on_c, 0, 48, 0
3, 19776, Note_on_c, 0, 36, 110
3, 19822, Note_on_c, 0, 36, 0
3, 19824, Note_on_c, 0, 43, 110
3, 19824, Note_on_c, 0, 48, 110
3, 19870, Note_on_c, 0, 43, 0
3, 19870, Note_on_c, 0, 48, 0
3, 19872, Note_on_c, 0, 36, 110
3, 19966, Note_on_c, 0, 36, 0
3, 19968, Note_on_c, 0, 36, 110
3, 20014, Note_on_c, 0, 36, 0
3, 20016, Note_on_c, 0, 43, 110
3, 20016, Note_on_c, 0, 48, 110
3, 20062, Note_on_c, 0, 43, 0
3, 20062, Note_on_c, 0, 48, 0
3, 20064, Note_on_c, 0, 36, 110
3, 20110, Note_on_c, 0, 36, 0
3, 20112, Note_on_c, 0, 43, 110
3, 20112, Note_on_c, 0, 48, 110
3, 20158, Note_on_c, 0, 43, 0
3, 20158, Note_on_c, 0, 48, 0
3, 20160, Note_on_c, 0, 35, 110
3, 20160, Note_on_c, 0, 42, 110
3, 20160, Note_on_c, 0, 47, 110
3, 20416, Note_on_c, 0, 35, 0
3, 20416, Note_on_c, 0, 42, 0
3, 20416, Note_on_c, 0, 47, 0
3, 20448, Note_on_c, 0, 35, 110
3, 20448, Note_on_c, 0, 42, 110
3, 20448, Note_on_c, 0, 47, 110
3, 20542, Note_on_c, 0, 35, 0
3, 20542, Note_on_c, 0, 42, 0
3, 20542, Note_on_c, 0, 47, 0
3, 20544, Note_on_c, 0, 35, 110
3, 20544, Note_on_c, 0, 42, 110
3, 20544, Note_on_c, 0, 47, 110
3, 20638, Note_on_c, 0, 35, 0
3, 20638, Note_on_c, 0, 42, 0
3, 20638, Note_on_c, 0, 47, 0
3, 20640, Note_on_c, 0, 35, 110
3, 20640, Note_on_c, 0, 42, 110
3, 20640, Note_on_c, 0, 47, 110
3, 20734, Note_on_c, 0, 35, 0
3, 20734, Note_on_c, 0, 42, 0
3, 20734, Note_on_c, 0, 47, 0
3, 20736, Note_on_c, 0, 40, 110
3, 20736, Note_on_c, 0, 52, 110
3, 20782, Note_on_c, 0, 40, 0
3, 20782, Note_on_c, 0, 52, 0
3, 20784, Note_on_c, 0, 40, 110
3, 20784, Note_on_c, 0, 52, 110
3, 20830, Note_on_c, 0, 40, 0
3, 20830, Note_on_c, 0, 52, 0
3, 20832, Note_on_c, 0, 40, 110
3, 20832, Note_on_c, 0, 52, 110
3, 20878, Note_on_c, 0, 40, 0
3, 20878, Note_on_c, 0, 52, 0
3, 20880, Note_on_c, 0, 40, 110
3, 20880, Note_on_c, 0, 52, 110
3, 21022, Note_on_c, 0, 40, 0
3, 21022, Note_on_c, 0, 52, 0
3, 21024, Note_on_c, 0, 40, 110
3, 21024, Note_on_c, 0, 52, 110
3, 21070, Note_on_c, 0, 40, 0
3, 21070, Note_on_c, 0, 52, 0
3, 21072, Note_on_c, 0, 40, 110
3, 21072, Note_on_c, 0, 52, 110
3, 21118, Note_on_c, 0, 40, 0
3, 21118, Note_on_c, 0, 52, 0
3, 21120, Note_on_c, 0, 40, 110
3, 21120, Note_on_c, 0, 52, 110
3, 21166, Note_on_c, 0, 40, 0
3, 21166, Note_on_c, 0, 52, 0
3, 21168, Note_on_c, 0, 40, 110
3, 21168, Note_on_c, 0, 52, 110
3, 21310, Note_on_c, 0, 40, 0
3, 21310, Note_on_c, 0, 52, 0
3, 21312, Note_on_c, 0, 40, 110
3, 21312, Note_on_c, 0, 52, 110
3, 21358, Note_on_c, 0, 40, 0
3, 21358, Note_on_c, 0, 52, 0
3, 21360, Note_on_c, 0, 40, 110
3, 21360, Note_on_c, 0, 52, 110
3, 21406, Note_on_c, 0, 40, 0
3, 21406, Note_on_c, 0, 52, 0
3, 21408, Note_on_c, 0, 40, 110
3, 21408, Note_on_c, 0, 52, 110
3, 21454, Note_on_c, 0, 40, 0
3, 21454, Note_on_c, 0, 52, 0
3, 21456, Note_on_c, 0, 40, 110
3, 21456, Note_on_c, 0, 52, 110
3, 21598, Note_on_c, 0, 40, 0
3, 21598, Note_on_c, 0, 52, 0
3, 21600, Note_on_c, 0, 40, 110
3, 21600, Note_on_c, 0, 52, 110
3, 21646, Note_on_c, 0, 40, 0
3, 21646, Note_on_c, 0, 52, 0
3, 21648, Note_on_c, 0, 40, 110
3, 21648, Note_on_c, 0, 52, 110
3, 21694, Note_on_c, 0, 40, 0
3, 21694, Note_on_c, 0, 52, 0
3, 21696, Note_on_c, 0, 40, 110
3, 21696, Note_on_c, 0, 52, 110
3, 21742, Note_on_c, 0, 40, 0
3, 21742, Note_on_c, 0, 52, 0
3, 21744, Note_on_c, 0, 40, 110
3, 21744, Note_on_c, 0, 52, 110
3, 21886, Note_on_c, 0, 40, 0
3, 21886, Note_on_c, 0, 52, 0
3, 21888, Note_on_c, 0, 40, 110
3, 21888, Note_on_c, 0, 52, 110
3, 21934, Note_on_c, 0, 40, 0
3, 21934, Note_on_c, 0, 52, 0
3, 21936, Note_on_c, 0, 40, 110
3, 21936, Note_on_c, 0, 52, 110
3, 21982, Note_on_c, 0, 40, 0
3, 21982, Note_on_c, 0, 52, 0
3, 21984, Note_on_c, 0, 40, 110
3, 21984, Note_on_c, 0, 52, 110
3, 22030, Note_on_c, 0, 40, 0
3, 22030, Note_on_c, 0, 52, 0
3, 22032, Note_on_c, 0, 40, 110
3, 22032, Note_on_c, 0, 52, 110
3, 22174, Note_on_c, 0, 40, 0
3, 22174, Note_on_c, 0, 52, 0
3, 22176, Note_on_c, 0, 40, 110
3, 22176, Note_on_c, 0, 52, 110
3, 22222, Note_on_c, 0, 40, 0
3, 22222, Note_on_c, 0, 52, 0
3, 22224, Note_on_c, 0, 40, 110
3, 22224, Note_on_c, 0, 52, 110
3, 22270, Note_on_c, 0, 40, 0
3, 22270, Note_on_c, 0, 52, 0
3, 22272, Note_on_c, 0, 40, 110
3, 22272, Note_on_c, 0, 52, 110
3, 22318, Note_on_c, 0, 40, 0
3, 22318, Note_on_c, 0, 52, 0
3, 22320, Note_on_c, 0, 40, 110
3, 22320, Note_on_c, 0, 52, 110
3, 22462, Note_on_c, 0, 40, 0
3, 22462, Note_on_c, 0, 52, 0
3, 22464, Note_on_c, 0, 40, 110
3, 22464, Note_on_c, 0, 52, 110
3, 22510, Note_on_c, 0, 40, 0
3, 22510, Note_on_c, 0, 52, 0
3, 22512, Note_on_c, 0, 40, 110
3, 22512, Note_on_c, 0, 52, 110
3, 22558, Note_on_c, 0, 40, 0
3, 22558, Note_on_c, 0, 52, 0
3, 22560, Note_on_c, 0, 40, 110
3, 22560, Note_on_c, 0, 52, 110
3, 22606, Note_on_c, 0, 40, 0
3, 22606, Note_on_c, 0, 52, 0
3, 22608, Note_on_c, 0, 40, 110
3, 22608, Note_on_c, 0, 52, 110
3, 22750, Note_on_c, 0, 40, 0
3, 22750, Note_on_c, 0, 52, 0
3, 22752, Note_on_c, 0, 42, 110
3, 22752, Note_on_c, 0, 54, 110
3, 22798, Note_on_c, 0, 42, 0
3, 22798, Note_on_c, 0, 54, 0
3, 22800, Note_on_c, 0, 42, 110
3, 22800, Note_on_c, 0, 54, 110
3, 22846, Note_on_c, 0, 42, 0
3, 22846, Note_on_c, 0, 54, 0
3, 22848, Note_on_c, 0, 42, 110
3, 22848, Note_on_c, 0, 54, 110
3, 22894, Note_on_c, 0, 42, 0
3, 22894, Note_on_c, 0, 54, 0
3, 22896, Note_on_c, 0, 42, 110
3, 22896, Note_on_c, 0, 54, 110
3, 23038, Note_on_c, 0, 42, 0
3, 23038, Note_on_c, 0, 54, 0
3, 23040, Note_on_c, 0, 43, 110
3, 23040, Note_on_c, 0, 55, 110
3, 23086, Note_on_c, 0, 43, 0
3, 23086, Note_on_c, 0, 55, 0
3, 23088, Note_on_c, 0, 43, 110
3, 23088, Note_on_c, 0, 55, 110
3, 23134, Note_on_c, 0, 43, 0
3, 23134, Note_on_c, 0, 55, 0
3, 23136, Note_on_c, 0, 43, 110
3, 23136, Note_on_c, 0, 55, 110
3, 23182, Note_on_c, 0, 43, 0
3, 23182, Note_on_c, 0, 55, 0
3, 23184, Note_on_c, 0, 43, 110
3, 23184, Note_on_c, 0, 55, 110
3, 23326, Note_on_c, 0, 43, 0
3, 23326, Note_on_c, 0, 55, 0
3, 23328, Note_on_c, 0, 43, 110
3, 23328, Note_on_c, 0, 55, 110
3, 23374, Note_on_c, 0, 43, 0
3, 23374, Note_on_c, 0, 55, 0
3, 23376, Note_on_c, 0, 43, 110
3, 23376, Note_on_c, 0, 55, 110
3, 23422, Note_on_c, 0, 43, 0
3, 23422, Note_on_c, 0, 55, 0
3, 23424, Note_on_c, 0, 43, 110
3, 23424, Note_on_c, 0, 55, 110
3, 23470, Note_on_c, 0, 43, 0
3, 23470, Note_on_c, 0, 55, 0
3, 23472, Note_on_c, 0, 43, 110
3, 23472, Note_on_c, 0, 55, 110
3, 23614, Note_on_c, 0, 43, 0
3, 23614, Note_on_c, 0, 55, 0
3, 23616, Note_on_c, 0, 43, 110
3, 23616, Note_on_c, 0, 55, 110
3, 23662, Note_on_c, 0, 43, 0
3, 23662, Note_on_c, 0, 55, 0
3, 23664, Note_on_c, 0, 43, 110
3, 23664, Note_on_c, 0, 55, 110
3, 23710, Note_on_c, 0, 43, 0
3, 23710, Note_on_c, 0, 55, 0
3, 23712, Note_on_c, 0, 43, 110
3, 23712, Note_on_c, 0, 55, 110
3, 23758, Note_on_c, 0, 43, 0
3, 23758, Note_on_c, 0, 55, 0
3, 23760, Note_on_c, 0, 43, 110
3, 23760, Note_on_c, 0, 55, 110
3, 23902, Note_on_c, 0, 43, 0
3, 23902, Note_on_c, 0, 55, 0
3, 23904, Note_on_c, 0, 45, 110
3, 23904, Note_on_c, 0, 57, 110
3, 23950, Note_on_c, 0, 45, 0
3, 23950, Note_on_c, 0, 57, 0
3, 23952, Note_on_c, 0, 45, 110
3, 23952, Note_on_c, 0, 57, 110
3, 23998, Note_on_c, 0, 45, 0
3, 23998, Note_on_c, 0, 57, 0
3, 24000, Note_on_c, 0, 45, 110
3, 24000, Note_on_c, 0, 57, 110
3, 24046, Note_on_c, 0, 45, 0
3, 24046, Note_on_c, 0, 57, 0
3, 24048, Note_on_c, 0, 45, 110
3, 24048, Note_on_c, 0, 57, 110
3, 24190, Note_on_c, 0, 45, 0
3, 24190, Note_on_c, 0, 57, 0
3, 24192, Note_on_c, 0, 47, 110
3, 24192, Note_on_c, 0, 59, 110
3, 24238, Note_on_c, 0, 47, 0
3, 24238, Note_on_c, 0, 59, 0
3, 24240, Note_on_c, 0, 47, 110
3, 24240, Note_on_c, 0, 59, 110
3, 24286, Note_on_c, 0, 47, 0
3, 24286, Note_on_c, 0, 59, 0
3, 24288, Note_on_c, 0, 47, 110
3, 24288, Note_on_c, 0, 59, 110
3, 24334, Note_on_c, 0, 47, 0
3, 24334, Note_on_c, 0, 59, 0
3, 24336, Note_on_c, 0, 47, 110
3, 24336, Note_on_c, 0, 59, 110
3, 24478, Note_on_c, 0, 47, 0
3, 24478, Note_on_c, 0, 59, 0
3, 24480, Note_on_c, 0, 47, 110
3, 24480, Note_on_c, 0, 59, 110
3, 24526, Note_on_c, 0, 47, 0
3, 24526, Note_on_c, 0, 59, 0
3, 24528, Note_on_c, 0, 47, 110
3, 24528, Note_on_c, 0, 59, 110
3, 24574, Note_on_c, 0, 47, 0
3, 24574, Note_on_c, 0, 59, 0
3, 24576, Note_on_c, 0, 47, 110
3, 24576, Note_on_c, 0, 59, 110
3, 24622, Note_on_c, 0, 47, 0
3, 24622, Note_on_c, 0, 59, 0
3, 24624, Note_on_c, 0, 47, 110
3, 24624, Note_on_c, 0, 59, 110
3, 24766, Note_on_c, 0, 47, 0
3, 24766, Note_on_c, 0, 59, 0
3, 24768, Note_on_c, 0, 47, 110
3, 24768, Note_on_c, 0, 59, 110
3, 24814, Note_on_c, 0, 47, 0
3, 24814, Note_on_c, 0, 59, 0
3, 24816, Note_on_c, 0, 47, 110
3, 24816, Note_on_c, 0, 59, 110
3, 24862, Note_on_c, 0, 47, 0
3, 24862, Note_on_c, 0, 59, 0
3, 24864, Note_on_c, 0, 47, 110
3, 24864, Note_on_c, 0, 59, 110
3, 24910, Note_on_c, 0, 47, 0
3, 24910, Note_on_c, 0, 59, 0
3, 24912, Note_on_c, 0, 47, 110
3, 24912, Note_on_c, 0, 59, 110
3, 25054, Note_on_c, 0, 47, 0
3, 25054, Note_on_c, 0, 59, 0
3, 25056, Note_on_c, 0, 47, 110
3, 25102, Note_on_c, 0, 47, 0
3, 25104, Note_on_c, 0, 48, 110
3, 25150, Note_on_c, 0, 48, 0
3, 25152, Note_on_c, 0, 47, 110
3, 25198, Note_on_c, 0, 47, 0
3, 25200, Note_on_c, 0, 45, 110
3, 25246, Note_on_c, 0, 45, 0
3, 25248, Note_on_c, 0, 43, 110
3, 25294, Note_on_c, 0, 43, 0
3, 25296, Note_on_c, 0, 42, 110
3, 25342, Note_on_c, 0, 42, 0
3, 25344, Note_on_c, 0, 40, 110
3, 25438, Note_on_c, 0, 40, 0
3, 25680, Note_on_c, 0, 59, 110
3, 25680, Note_on_c, 0, 64, 110
3, 25680, Note_on_c, 0, 67, 110
3, 25726, Note_on_c, 0, 59, 0
3, 25726, Note_on_c, 0, 64, 0
3, 25726, Note_on_c, 0, 67, 0
3, 25920, Note_on_c, 0, 38, 110
3, 25920, Note_on_c, 0, 50, 110
3, 26014, Note_on_c, 0, 38, 0
3, 26014, Note_on_c, 0, 50, 0
3, 26256, Note_on_c, 0, 45, 110
3, 26256, Note_on_c, 0, 50, 110
3, 26256, Note_on_c, 0, 54, 110
3, 26302, Note_on_c, 0, 45, 0
3, 26302, Note_on_c, 0, 50, 0
3, 26302, Note_on_c, 0, 54, 0
3, 26496, Note_on_c, 0, 36, 110
3, 26496, Note_on_c, 0, 48, 110
3, 26752, Note_on_c, 0, 36, 0
3, 26752, Note_on_c, 0, 48, 0
3, 26784, Note_on_c, 0, 60, 110
3, 26784, Note_on_c, 0, 64, 110
3, 26784, Note_on_c, 0, 67, 110
3, 26878, Note_on_c, 0, 60, 0
3, 26878, Note_on_c, 0, 64, 0
3, 26878, Note_on_c, 0, 67, 0
3, 27072, Note_on_c, 0, 35, 110
3, 27072, Note_on_c, 0, 47, 110
3, 27328, Note_on_c, 0, 35, 0
3, 27328, Note_on_c, 0, 47, 0
3, 27360, Note_on_c, 0, 59, 110
3, 27360, Note_on_c, 0, 63, 110
3, 27360, Note_on_c, 0, 69, 110
3, 27454, Note_on_c, 0, 59, 0
3, 27454, Note_on_c, 0, 63, 0
3, 27454, Note_on_c, 0, 69, 0
3, 27648, Note_on_c, 0, 36, 110
3, 27648, Note_on_c, 0, 48, 110
3, 27904, Note_on_c, 0, 36, 0
3, 27904, Note_on_c, 0, 48, 0
3, 27936, Note_on_c, 0, 60, 110
3, 27936, Note_on_c, 0, 64, 110
3, 27936, Note_on_c, 0, 67, 110
3, 28030, Note_on_c, 0, 60, 0
3, 28030, Note_on_c, 0, 64, 0
3, 28030, Note_on_c, 0, 67, 0
3, 28224, Note_on_c, 0, 43, 110
3, 28224, Note_on_c, 0, 55, 110
3, 28480, Note_on_c, 0, 43, 0
3, 28480, Note_on_c, 0, 55, 0
3, 28512, Note_on_c, 0, 59, 110
3, 28512, Note_on_c, 0, 62, 110
3, 28512, Note_on_c, 0, 67, 110
3, 28606, Note_on_c, 0, 59, 0
3, 28606, Note_on_c, 0, 62, 0
3, 28606, Note_on_c, 0, 67, 0
3, 28800, Note_on_c, 0, 45, 110
3, 28800, Note_on_c, 0, 57, 110
3, 29056, Note_on_c, 0, 45, 0
3, 29056, Note_on_c, 0, 57, 0
3, 29088, Note_on_c, 0, 60, 110
3, 29088, Note_on_c, 0, 64, 110
3, 29088, Note_on_c, 0, 69, 110
3, 29182, Note_on_c, 0, 60, 0
3, 29182, Note_on_c, 0, 64, 0
3, 29182, Note_on_c, 0, 69, 0
3, 29376, Note_on_c, 0, 35, 110
3, 29376, Note_on_c, 0, 47, 110
3, 29470, Note_on_c, 0, 35, 0
3, 29470, Note_on_c, 0, 47, 0
3, 29952, Note_on_c, 0, 40, 110
3, 29952, Note_on_c, 0, 52, 110
3, 30094, Note_on_c, 0, 40, 0
3, 30094, Note_on_c, 0, 52, 0
3, 30096, Note_on_c, 0, 64, 110
3, 30096, Note_on_c, 0, 67, 110
3, 30096, Note_on_c, 0, 71, 110
3, 30142, Note_on_c, 0, 64, 0
3, 30142, Note_on_c, 0, 67, 0
3, 30142, Note_on_c, 0, 71, 0
3, 30144, Note_on_c, 0, 64, 110
3, 30144, Note_on_c, 0, 67, 110
3, 30144, Note_on_c, 0, 71, 110
3, 30190, Note_on_c, 0, 64, 0
3, 30190, Note_on_c, 0, 67, 0
3, 30190, Note_on_c, 0, 71, 0
3, 30192, Note_on_c, 0, 64, 110
3, 30192, Note_on_c, 0, 67, 110
3, 30192, Note_on_c, 0, 71, 110
3, 30238, Note_on_c, 0, 64, 0
3, 30238, Note_on_c, 0, 67, 0
3, 30238, Note_on_c, 0, 71, 0
3, 30240, Note_on_c, 0, 64, 110
3, 30240, Note_on_c, 0, 67, 110
3, 30240, Note_on_c, 0, 71, 110
3, 30286, Note_on_c, 0, 64, 0
3, 30286, Note_on_c, 0, 67, 0
3, 30286, Note_on_c, 0, 71, 0
3, 30528, Note_on_c, 0, 43, 110
3, 30528, Note_on_c, 0, 55, 110
3, 30670, Note_on_c, 0, 43, 0
3, 30670, Note_on_c, 0, 55, 0
3, 30672, Note_on_c, 0, 62, 110
3, 30672, Note_on_c, 0, 67, 110
3, 30672, Note_on_c, 0, 71, 110
3, 30718, Note_on_c, 0, 62, 0
3, 30718, Note_on_c, 0, 67, 0
3, 30718, Note_on_c, 0, 71, 0
3, 30720, Note_on_c, 0, 62, 110
3, 30720, Note_on_c, 0, 67, 110
3, 30720, Note_on_c, 0, 71, 110
3, 30766, Note_on_c, 0, 62, 0
3, 30766, Note_on_c, 0, 67, 0
3, 30766, Note_on_c, 0, 71, 0
3, 30768, Note_on_c, 0, 62, 110
3, 30768, Note_on_c, 0, 67, 110
3, 30768, Note_on_c, 0, 71, 110
3, 30814, Note_on_c, 0, 62, 0
3, 30814, Note_on_c, 0, 67, 0
3, 30814, Note_on_c, 0, 71, 0
3, 30816, Note_on_c, 0, 62, 110
3, 30816, Note_on_c, 0, 67, 110
3, 30816, Note_on_c, 0, 71, 110
3, 30862, Note_on_c, 0, 62, 0
3, 30862, Note_on_c, 0, 67, 0
3, 30862, Note_on_c, 0, 71, 0
3, 31104, Note_on_c, 0, 36, 110
3, 31104, Note_on_c, 0, 48, 110
3, 31246, Note_on_c, 0, 36, 0
3, 31246, Note_on_c, 0, 48, 0
3, 31248, Note_on_c, 0, 64, 110
3, 31248, Note_on_c, 0, 67, 110
3, 31248, Note_on_c, 0, 72, 110
3, 31294, Note_on_c, 0, 64, 0
3, 31294, Note_on_c, 0, 67, 0
3, 31294, Note_on_c, 0, 72, 0
3, 31296, Note_on_c, 0, 64, 110
3, 31296, Note_on_c, 0, 67, 110
3, 31296, Note_on_c, 0, 72, 110
3, 31342, Note_on_c, 0, 64, 0
3, 31342, Note_on_c, 0, 67, 0
3, 31342, Note_on_c, 0, 72, 0
3, 31344, Note_on_c, 0, 64, 110
3, 31344, Note_on_c, 0, 67, 110
3, 31344, Note_on_c, 0, 72, 110
3, 31390, Note_on_c, 0, 64, 0
3, 31390, Note_on_c, 0, 67, 0
3, 31390, Note_on_c, 0, 72, 0
3, 31392, Note_on_c, 0, 64, 110
3, 31392, Note_on_c, 0, 67, 110
3, 31392, Note_on_c, 0, 72, 110
3, 31438, Note_on_c, 0, 64, 0
3, 31438, Note_on_c, 0, 67, 0
3, 31438, Note_on_c, 0, 72, 0
3, 31680, Note_on_c, 0, 35, 110
3, 31680, Note_on_c, 0, 47, 110
3, 31822, Note_on_c, 0, 35, 0
3, 31822, Note_on_c, 0, 47, 0
3, 31824, Note_on_c, 0, 63, 110
3, 31824, Note_on_c, 0, 66, 110
3, 31824, Note_on_c, 0, 71, 110
3, 31870, Note_on_c, 0, 63, 0
3, 31870, Note_on_c, 0, 66, 0
3, 31870, Note_on_c, 0, 71, 0
3, 31872, Note_on_c, 0, 63, 110
3, 31872, Note_on_c, 0, 66, 110
3, 31872, Note_on_c, 0, 71, 110
3, 31918, Note_on_c, 0, 63, 0
3, 31918, Note_on_c, 0, 66, 0
3, 31918, Note_on_c, 0, 71, 0
3, 31920, Note_on_c, 0, 63, 110
3, 31920, Note_on_c, 0, 66, 110
3, 31920, Note_on_c, 0, 71, 110
3, 31966, Note_on_c, 0, 63, 0
3, 31966, Note_on_c, 0, 66, 0
3, 31966, Note_on_c, 0, 71, 0
3, 31968, Note_on_c, 0, 63, 110
3, 31968, Note_on_c, 0, 66, 110
3, 31968, Note_on_c, 0, 71, 110
3, 32014, Note_on_c, 0, 63, 0
3, 32014, Note_on_c, 0, 66, 0
3, 32014, Note_on_c, 0, 71, 0
3, 32256, Note_on_c, 0, 40, 110
3, 32256, Note_on_c, 0, 52, 110
3, 32398, Note_on_c, 0, 40, 0
3, 32398, Note_on_c, 0, 52, 0
3, 32400, Note_on_c, 0, 64, 110
3, 32400, Note_on_c, 0, 67, 110
3, 32400, Note_on_c, 0, 71, 110
3, 32446, Note_on_c, 0, 64, 0
3, 32446, Note_on_c, 0, 67, 0
3, 32446, Note_on_c, 0, 71, 0
3, 32448, Note_on_c, 0, 64, 110
3, 32448, Note_on_c, 0, 67, 110
3, 32448, Note_on_c, 0, 71, 110
3, 32494, Note_on_c, 0, 64, 0
3, 32494, Note_on_c, 0, 67, 0
3, 32494, Note_on_c, 0, 71, 0
3, 32496, Note_on_c, 0, 64, 110
3, 32496, Note_on_c, 0, 67, 110
3, 32496, Note_on_c, 0, 71, 110
3, 32542, Note_on_c, 0, 64, 0
3, 32542, Note_on_c, 0, 67, 0
3, 32542, Note_on_c, 0, 71, 0
3, 32544, Note_on_c, 0, 64, 110
3, 32544, Note_on_c, 0, 67, 110
3, 32544, Note_on_c, 0, 71, 110
3, 32590, Note_on_c, 0, 64, 0
3, 32590, Note_on_c, 0, 67, 0
3, 32590, Note_on_c, 0, 71, 0
3, 32832, Note_on_c, 0, 43, 110
3, 32832, Note_on_c, 0, 55, 110
3, 32974, Note_on_c, 0, 43, 0
3, 32974, Note_on_c, 0, 55, 0
3, 32976, Note_on_c, 0, 62, 110
3, 32976, Note_on_c, 0, 67, 110
3, 32976, Note_on_c, 0, 71, 110
3, 33022, Note_on_c, 0, 62, 0
3, 33022, Note_on_c, 0, 67, 0
3, 33022, Note_on_c, 0, 71, 0
3, 33024, Note_on_c, 0, 62, 110
3, 33024, Note_on_c, 0, 67, 110
3, 33024, Note_on_c, 0, 71, 110
3, 33070, Note_on_c, 0, 62, 0
3, 33070, Note_on_c, 0, 67, 0
3, 33070, Note_on_c, 0, 71, 0
3, 33072, Note_on_c, 0, 62, 110
3, 33072, Note_on_c, 0, 67, 110
3, 33072, Note_on_c, 0, 71, 110
3, 33118, Note_on_c, 0, 62, 0
3, 33118, Note_on_c, 0, 67, 0
3, 33118, Note_on_c, 0, 71, 0
3, 33120, Note_on_c, 0, 62, 110
3, 33120, Note_on_c, 0, 67, 110
3, 33120, Note_on_c, 0, 71, 110
3, 33166, Note_on_c, 0, 62, 0
3, 33166, Note_on_c, 0, 67, 0
3, 33166, Note_on_c, 0, 71, 0
3, 33408, Note_on_c, 0, 36, 110
3, 33408, Note_on_c, 0, 48, 110
3, 33550, Note_on_c, 0, 36, 0
3, 33550, Note_on_c, 0, 48, 0
3, 33552, Note_on_c, 0, 64, 110
3, 33552, Note_on_c, 0, 67, 110
3, 33552, Note_on_c, 0, 72, 110
3, 33598, Note_on_c, 0, 64, 0
3, 33598, Note_on_c, 0, 67, 0
3, 33598, Note_on_c, 0, 72, 0
3, 33600, Note_on_c, 0, 64, 110
3, 33600, Note_on_c, 0, 67, 110
3, 33600, Note_on_c, 0, 72, 110
3, 33646, Note_on_c, 0, 64, 0
3, 33646, Note_on_c, 0, 67, 0
3, 33646, Note_on_c, 0, 72, 0
3, 33648, Note_on_c, 0, 64, 110
3, 33648, Note_on_c, 0, 67, 110
3, 33648, Note_on_c, 0, 72, 110
3, 33694, Note_on_c, 0, 64, 0
3, 33694, Note_on_c, 0, 67, 0
3, 33694, Note_on_c, 0, 72, 0
3, 33696, Note_on_c, 0, 64, 110
3, 33696, Note_on_c, 0, 67, 110
3, 33696, Note_on_c, 0, 72, 110
3, 33742, Note_on_c, 0, 64, 0
3, 33742, Note_on_c, 0, 67, 0
3, 33742, Note_on_c, 0, 72, 0
3, 33984, Note_on_c, 0, 35, 110
3, 33984, Note_on_c, 0, 47, 110
3, 34126, Note_on_c, 0, 35, 0
3, 34126, Note_on_c, 0, 47, 0
3, 34128, Note_on_c, 0, 63, 110
3, 34128, Note_on_c, 0, 66, 110
3, 34128, Note_on_c, 0, 71, 110
3, 34174, Note_on_c, 0, 63, 0
3, 34174, Note_on_c, 0, 66, 0
3, 34174, Note_on_c, 0, 71, 0
3, 34176, Note_on_c, 0, 63, 110
3, 34176, Note_on_c, 0, 66, 110
3, 34176, Note_on_c, 0, 71, 110
3, 34222, Note_on_c, 0, 63, 0
3, 34222, Note_on_c, 0, 66, 0
3, 34222, Note_on_c, 0, 71, 0
3, 34224, Note_on_c, 0, 63, 110
3, 34224, Note_on_c, 0, 66, 110
3, 34224, Note_on_c, 0, 71, 110
3, 34270, Note_on_c, 0, 63, 0
3, 34270, Note_on_c, 0, 66, 0
3, 34270, Note_on_c, 0, 71, 0
3, 34272, Note_on_c, 0, 63, 110
3, 34272, Note_on_c, 0, 66, 110
3, 34272, Note_on_c, 0, 71, 110
3, 34318, Note_on_c, 0, 63, 0
3, 34318, Note_on_c, 0, 66, 0
3, 34318, Note_on_c, 0, 71, 0
3, 34560, Note_on_c, 0, 40, 110
3, 34560, Note_on_c, 0, 52, 110
3, 34702, Note_on_c, 0, 40, 0
3, 34702, Note_on_c, 0, 52, 0
3, 34704, Note_on_c, 0, 64, 110
3, 34704, Note_on_c, 0, 67, 110
3, 34704, Note_on_c, 0, 71, 110
3, 34750, Note_on_c, 0, 64, 0
3, 34750, Note_on_c, 0, 67, 0
3, 34750, Note_on_c, 0, 71, 0
3, 34752, Note_on_c, 0, 64, 110
3, 34752, Note_on_c, 0, 67, 110
3, 34752, Note_on_c, 0, 71, 110
3, 34798, Note_on_c, 0, 64, 0
3, 34798, Note_on_c, 0, 67, 0
3, 34798, Note_on_c, 0, 71, 0
3, 34800, Note_on_c, 0, 64, 110
3, 34800, Note_on_c, 0, 67, 110
3, 34800, Note_on_c, 0, 71, 110
3, 34846, Note_on_c, 0, 64, 0
3, 34846, Note_on_c, 0, 67, 0
3, 34846, Note_on_c, 0, 71, 0
3, 34848, Note_on_c, 0, 64, 110
3, 34848, Note_on_c, 0, 67, 110
3, 34848, Note_on_c, 0, 71, 110
3, 34894, Note_on_c, 0, 64, 0
3, 34894, Note_on_c, 0, 67, 0
3, 34894, Note_on_c, 0, 71, 0
3, 35136, Note_on_c, 0, 43, 110
3, 35136, Note_on_c, 0, 55, 110
3, 35278, Note_on_c, 0, 43, 0
3, 35278, Note_on_c, 0, 55, 0
3, 35280, Note_on_c, 0, 62, 110
3, 35280, Note_on_c, 0, 67, 110
3, 35280, Note_on_c, 0, 71, 110
3, 35326, Note_on_c, 0, 62, 0
3, 35326, Note_on_c, 0, 67, 0
3, 35326, Note_on_c, 0, 71, 0
3, 35328, Note_on_c, 0, 62, 110
3, 35328, Note_on_c, 0, 67, 110
3, 35328, Note_on_c, 0, 71, 110
3, 35374, Note_on_c, 0, 62, 0
3, 35374, Note_on_c, 0, 67, 0
3, 35374, Note_on_c, 0, 71, 0
3, 35376, Note_on_c, 0, 62, 110
3, 35376, Note_on_c, 0, 67, 110
3, 35376, Note_on_c, 0, 71, 110
3, 35422, Note_on_c, 0, 62, 0
3, 35422, Note_on_c, 0, 67, 0
3, 35422, Note_on_c, 0, 71, 0
3, 35424, Note_on_c, 0, 62, 110
3, 35424, Note_on_c, 0, 67, 110
3, 35424, Note_on_c, 0, 71, 110
3, 35470, Note_on_c, 0, 62, 0
3, 35470, Note_on_c, 0, 67, 0
3, 35470, Note_on_c, 0, 71, 0
3, 35712, Note_on_c, 0, 36, 110
3, 35712, Note_on_c, 0, 48, 110
3, 35854, Note_on_c, 0, 36, 0
3, 35854, Note_on_c, 0, 48, 0
3, 35856, Note_on_c, 0, 64, 110
3, 35856, Note_on_c, 0, 67, 110
3, 35856, Note_on_c, 0, 72, 110
3, 35902, Note_on_c, 0, 64, 0
3, 35902, Note_on_c, 0, 67, 0
3, 35902, Note_on_c, 0, 72, 0
3, 35904, Note_on_c, 0, 64, 110
3, 35904, Note_on_c, 0, 67, 110
3, 35904, Note_on_c, 0, 72, 110
3, 35950, Note_on_c, 0, 64, 0
3, 35950, Note_on_c, 0, 67, 0
3, 35950, Note_on_c, 0, 72, 0
3, 35952, Note_on_c, 0, 64, 110
3, 35952, Note_on_c, 0, 67, 110
3, 35952, Note_on_c, 0, 72, 110
3, 35998, Note_on_c, 0, 64, 0
3, 35998, Note_on_c, 0, 67, 0
3, 35998, Note_on_c, 0, 72, 0
3, 36000, Note_on_c, 0, 64, 110
3, 36000, Note_on_c, 0, 67, 110
3, 36000, Note_on_c, 0, 72, 110
3, 36046, Note_on_c, 0, 64, 0
3, 36046, Note_on_c, 0, 67, 0
3, 36046, Note_on_c, 0, 72, 0
3, 36288, Note_on_c, 0, 35, 110
3, 36288, Note_on_c, 0, 47, 110
3, 36430, Note_on_c, 0, 35, 0
3, 36430, Note_on_c, 0, 47, 0
3, 36432, Note_on_c, 0, 63, 110
3, 36432, Note_on_c, 0, 66, 110
3, 36432, Note_on_c, 0, 71, 110
3, 36478, Note_on_c, 0, 63, 0
3, 36478, Note_on_c, 0, 66, 0
3, 36478, Note_on_c, 0, 71, 0
3, 36480, Note_on_c, 0, 63, 110
3, 36480, Note_on_c, 0, 66, 110
3, 36480, Note_on_c, 0, 71, 110
3, 36526, Note_on_c, 0, 63, 0
3, 36526, Note_on_c, 0, 66, 0
3, 36526, Note_on_c, 0, 71, 0
3, 36528, Note_on_c, 0, 63, 110
3, 36528, Note_on_c, 0, 66, 110
3, 36528, Note_on_c, 0, 71, 110
3, 36574, Note_on_c, 0, 63, 0
3, 36574, Note_on_c, 0, 66, 0
3, 36574, Note_on_c, 0, 71, 0
3, 36576, Note_on_c, 0, 63, 110
3, 36576, Note_on_c, 0, 66, 110
3, 36576, Note_on_c, 0, 71, 110
3, 36622, Note_on_c, 0, 63, 0
3, 36622, Note_on_c, 0, 66, 0
3, 36622, Note_on_c, 0, 71, 0
3, 36864, Note_on_c, 0, 40, 110
3, 36864, Note_on_c, 0, 52, 110
3, 37006, Note_on_c, 0, 40, 0
3, 37006, Note_on_c, 0, 52, 0
3, 37008, Note_on_c, 0, 64, 110
3, 37008, Note_on_c, 0, 67, 110
3, 37008, Note_on_c, 0, 71, 110
3, 37054, Note_on_c, 0, 64, 0
3, 37054, Note_on_c, 0, 67, 0
3, 37054, Note_on_c, 0, 71, 0
3, 37056, Note_on_c, 0, 64, 110
3, 37056, Note_on_c, 0, 67, 110
3, 37056, Note_on_c, 0, 71, 110
3, 37102, Note_on_c, 0, 64, 0
3, 37102, Note_on_c, 0, 67, 0
3, 37102, Note_on_c, 0, 71, 0
3, 37104, Note_on_c, 0, 64, 110
3, 37104, Note_on_c, 0, 67, 110
3, 37104, Note_on_c, 0, 71, 110
3, 37150, Note_on_c, 0, 64, 0
3, 37150, Note_on_c, 0, 67, 0
3, 37150, Note_on_c, 0, 71, 0
3, 37152, Note_on_c, 0, 64, 110
3, 37152, Note_on_c, 0, 67, 110
3, 37152, Note_on_c, 0, 71, 110
3, 37198, Note_on_c, 0, 64, 0
3, 37198, Note_on_c, 0, 67, 0
3, 37198, Note_on_c, 0, 71, 0
3, 37440, Note_on_c, 0, 43, 110
3, 37440, Note_on_c, 0, 55, 110
3, 37582, Note_on_c, 0, 43, 0
3, 37582, Note_on_c, 0, 55, 0
3, 37584, Note_on_c, 0, 62, 110
3, 37584, Note_on_c, 0, 67, 110
3, 37584, Note_on_c, 0, 71, 110
3, 37630, Note_on_c, 0, 62, 0
3, 37630, Note_on_c, 0, 67, 0
3, 37630, Note_on_c, 0, 71, 0
3, 37632, Note_on_c, 0, 62, 110
3, 37632, Note_on_c, 0, 67, 110
3, 37632, Note_on_c, 0, 71, 110
3, 37678, Note_on_c, 0, 62, 0
3, 37678, Note_on_c, 0, 67, 0
3, 37678, Note_on_c, 0, 71, 0
3, 37680, Note_on_c, 0, 62, 110
3, 37680, Note_on_c, 0, 67, 110
3, 37680, Note_on_c, 0, 71, 110
3, 37726, Note_on_c, 0, 62, 0
3, 37726, Note_on_c, 0, 67, 0
3, 37726, Note_on_c, 0, 71, 0
3, 37728, Note_on_c, 0, 62, 110
3, 37728, Note_on_c, 0, 67, 110
3, 37728, Note_on_c, 0, 71, 110
3, 37774, Note_on_c, 0, 62, 0
3, 37774, Note_on_c, 0, 67, 0
3, 37774, Note_on_c, 0, 71, 0
3, 38016, Note_on_c, 0, 36, 110
3, 38016, Note_on_c, 0, 48, 110
3, 38158, Note_on_c, 0, 36, 0
3, 38158, Note_on_c, 0, 48, 0
3, 38160, Note_on_c, 0, 64, 110
3, 38160, Note_on_c, 0, 67, 110
3, 38160, Note_on_c, 0, 72, 110
3, 38206, Note_on_c, 0, 64, 0
3, 38206, Note_on_c, 0, 67, 0
3, 38206, Note_on_c, 0, 72, 0
3, 38208, Note_on_c, 0, 64, 110
3, 38208, Note_on_c, 0, 67, 110
3, 38208, Note_on_c, 0, 72, 110
3, 38254, Note_on_c, 0, 64, 0
3, 38254, Note_on_c, 0, 67, 0
3, 38254, Note_on_c, 0, 72, 0
3, 38256, Note_on_c, 0, 64, 110
3, 38256, Note_on_c, 0, 67, 110
3, 38256, Note_on_c, 0, 72, 110
3, 38302, Note_on_c, 0, 64, 0
3, 38302, Note_on_c, 0, 67, 0
3, 38302, Note_on_c, 0, 72, 0
3, 38304, Note_on_c, 0, 64, 110
3, 38304, Note_on_c, 0, 67, 110
3, 38304, Note_on_c, 0, 72, 110
3, 38350, Note_on_c, 0, 64, 0
3, 38350, Note_on_c, 0, 67, 0
3, 38350, Note_on_c, 0, 72, 0
3, 38592, Note_on_c, 0, 35, 110
3, 38592, Note_on_c, 0, 47, 110
3, 38686, Note_on_c, 0, 35, 0
3, 38686, Note_on_c, 0, 47, 0
3, 38880, Note_on_c, 0, 23, 110
3, 38880, Note_on_c, 0, 35, 110
3, 38974, Note_on_c, 0, 23, 0
3, 38974, Note_on_c, 0, 35, 0
3, 39168, Note_on_c, 0, 40, 110
3, 39214, Note_on_c, 0, 40, 0
3, 39216, Note_on_c, 0, 47, 110
3, 39262, Note_on_c, 0, 47, 0
3, 39264, Note_on_c, 0, 52, 110
3, 39310, Note_on_c, 0, 52, 0
3, 39312, Note_on_c, 0, 40, 110
3, 39358, Note_on_c, 0, 40, 0
3, 39360, Note_on_c, 0, 47, 110
3, 39406, Note_on_c, 0, 47, 0
3, 39408, Note_on_c, 0, 52, 110
3, 39454, Note_on_c, 0, 52, 0
3, 39456, Note_on_c, 0, 40, 110
3, 39502, Note_on_c, 0, 40, 0
3, 39504, Note_on_c, 0, 47, 110
3, 39550, Note_on_c, 0, 47, 0
3, 39552, Note_on_c, 0, 52, 110
3, 39598, Note_on_c, 0, 52, 0
3, 39600, Note_on_c, 0, 40, 110
3, 39646, Note_on_c, 0, 40, 0
3, 39648, Note_on_c, 0, 47, 110
3, 39694, Note_on_c, 0, 47, 0
3, 39696, Note_on_c, 0, 52, 110
3, 39742, Note_on_c, 0, 52, 0
3, 39744, Note_on_c, 0, 43, 110
3, 39790, Note_on_c, 0, 43, 0
3, 39792, Note_on_c, 0, 50, 110
3, 39838, Note_on_c, 0, 50, 0
3, 39840, Note_on_c, 0, 55, 110
3, 39886, Note_on_c, 0, 55, 0
3, 39888, Note_on_c, 0, 43, 110
3, 39934, Note_on_c, 0, 43, 0
3, 39936, Note_on_c, 0, 50, 110
3, 39982, Note_on_c, 0, 50, 0
3, 39984, Note_on_c, 0, 55, 110
3, 40030, Note_on_c, 0, 55, 0
3, 40032, Note_on_c, 0, 43, 110
3, 40078, Note_on_c, 0, 43, 0
3, 40080, Note_on_c, 0, 50, 110
3, 40126, Note_on_c, 0, 50, 0
3, 40128, Note_on_c, 0, 55, 110
3, 40174, Note_on_c, 0, 55, 0
3, 40176, Note_on_c, 0, 43, 110
3, 40222, Note_on_c, 0, 43, 0
3, 40224, Note_on_c, 0, 50, 110
3, 40270, Note_on_c, 0, 50, 0
3, 40272, Note_on_c, 0, 55, 110
3, 40318, Note_on_c, 0, 55, 0
3, 40320, Note_on_c, 0, 36, 110
3, 40366, Note_on_c, 0, 36, 0
3, 40368, Note_on_c, 0, 43, 110
3, 40414, Note_on_c, 0, 43, 0
3, 40416, Note_on_c, 0, 48, 110
3, 40462, Note_on_c, 0, 48, 0
3, 40464, Note_on_c, 0, 36, 110
3, 40510, Note_on_c, 0, 36, 0
3, 40512, Note_on_c, 0, 43, 110
3, 40558, Note_on_c, 0, 43, 0
3, 40560, Note_on_c, 0, 48, 110
3, 40606, Note_on_c, 0, 48, 0
3, 40608, Note_on_c, 0, 36, 110
3, 40654, Note_on_c, 0, 36, 0
3, 40656, Note_on_c, 0, 43, 110
3, 40702, Note_on_c, 0, 43, 0
3, 40704, Note_on_c, 0, 48, 110
3, 40750, Note_on_c, 0, 48, 0
3, 40752, Note_on_c, 0, 36, 110
3, 40798, Note_on_c, 0, 36, 0
3, 40800, Note_on_c, 0, 43, 110
3, 40846, Note_on_c, 0, 43, 0
3, 40848, Note_on_c, 0, 48, 110
3, 40894, Note_on_c, 0, 48, 0
3, 40896, Note_on_c, 0, 35, 110
3, 40942, Note_on_c, 0, 35, 0
3, 40944, Note_on_c, 0, 42, 110
3, 40990, Note_on_c, 0, 42, 0
3, 40992, Note_on_c, 0, 47, 110
3, 41038, Note_on_c, 0, 47, 0
3, 41040, Note_on_c, 0, 35, 110
3, 41086, Note_on_c, 0, 35, 0
3, 41088, Note_on_c, 0, 42, 110
3, 41134, Note_on_c, 0, 42, 0
3, 41136, Note_on_c, 0, 47, 110
3, 41182, Note_on_c, 0, 47, 0
3, 41184, Note_on_c, 0, 35, 110
3, 41230, Note_on_c, 0, 35, 0
3, 41232, Note_on_c, 0, 42, 110
3, 41278, Note_on_c, 0, 42, 0
3, 41280, Note_on_c, 0, 47, 110
3, 41326, Note_on_c, 0, 47, 0
3, 41328, Note_on_c, 0, 35, 110
3, 41374, Note_on_c, 0, 35, 0
3, 41376, Note_on_c, 0, 42, 110
3, 41422, Note_on_c, 0, 42, 0
3, 41424, Note_on_c, 0, 47, 110
3, 41470, Note_on_c, 0, 47, 0
3, 41472, Note_on_c, 0, 40, 110
3, 41518, Note_on_c, 0, 40, 0
3, 41520, Note_on_c, 0, 47, 110
3, 41566, Note_on_c, 0, 47, 0
3, 41568, Note_on_c, 0, 52, 110
3, 41614, Note_on_c, 0, 52, 0
3, 41616, Note_on_c, 0, 40, 110
3, 41662, Note_on_c, 0, 40, 0
3, 41664, Note_on_c, 0, 47, 110
3, 41710, Note_on_c, 0, 47, 0
3, 41712, Note_on_c, 0, 52, 110
3, 41758, Note_on_c, 0, 52, 0
3, 41760, Note_on_c, 0, 40, 110
3, 41806, Note_on_c, 0, 40, 0
3, 41808, Note_on_c, 0, 47, 110
3, 41854, Note_on_c, 0, 47, 0
3, 41856, Note_on_c, 0, 52, 110
3, 41902, Note_on_c, 0, 52, 0
3, 41904, Note_on_c, 0, 40, 110
3, 41950, Note_on_c, 0, 40, 0
3, 41952, Note_on_c, 0, 47, 110
3, 41998, Note_on_c, 0, 47, 0
3, 42000, Note_on_c, 0, 52, 110
3, 42046, Note_on_c, 0, 52, 0
3, 42048, Note_on_c, 0, 43, 110
3, 42094, Note_on_c, 0, 43, 0
3, 42096, Note_on_c, 0, 50, 110
3, 42142, Note_on_c, 0, 50, 0
3, 42144, Note_on_c, 0, 55, 110
3, 42190, Note_on_c, 0, 55, 0
3, 42192, Note_on_c, 0, 43, 110
3, 42238, Note_on_c, 0, 43, 0
3, 42240, Note_on_c, 0, 50, 110
3, 42286, Note_on_c, 0, 50, 0
3, 42288, Note_on_c, 0, 55, 110
3, 42334, Note_on_c, 0, 55, 0
3, 42336, Note_on_c, 0, 43, 110
3, 42382, Note_on_c, 0, 43, 0
3, 42384, Note_on_c, 0, 50, 110
3, 42430, Note_on_c, 0, 50, 0
3, 42432, Note_on_c, 0, 55, 110
3, 42478, Note_on_c, 0, 55, 0
3, 42480, Note_on_c, 0, 43, 110
3, 42526, Note_on_c, 0, 43, 0
3, 42528, Note_on_c, 0, 50, 110
3, 42574, Note_on_c, 0, 50, 0
3, 42576, Note_on_c, 0, 55, 110
3, 42622, Note_on_c, 0, 55, 0
3, 42624, Note_on_c, 0, 36, 110
3, 42670, Note_on_c, 0, 36, 0
3, 42672, Note_on_c, 0, 43, 110
3, 42718, Note_on_c, 0, 43, 0
3, 42720, Note_on_c, 0, 48, 110
3, 42766, Note_on_c, 0, 48, 0
3, 42768, Note_on_c, 0, 36, 110
3, 42814, Note_on_c, 0, 36, 0
3, 42816, Note_on_c, 0, 43, 110
3, 42862, Note_on_c, 0, 43, 0
3, 42864, Note_on_c, 0, 48, 110
3, 42910, Note_on_c, 0, 48, 0
3, 42912, Note_on_c, 0, 36, 110
3, 42958, Note_on_c, 0, 36, 0
3, 42960, Note_on_c, 0, 43, 110
3, 43006, Note_on_c, 0, 43, 0
3, 43008, Note_on_c, 0, 48, 110
3, 43054, Note_on_c, 0, 48, 0
3, 43056, Note_on_c, 0, 36, 110
3, 43102, Note_on_c, 0, 36, 0
3, 43104, Note_on_c, 0, 43, 110
3, 43150, Note_on_c, 0, 43, 0
3, 43152, Note_on_c, 0, 48, 110
3, 43198, Note_on_c, 0, 48, 0
3, 43200, Note_on_c, 0, 35, 110
3, 43246, Note_on_c, 0, 35, 0
3, 43248, Note_on_c, 0, 42, 110
3, 43294, Note_on_c, 0, 42, 0
3, 43296, Note_on_c, 0, 47, 110
3, 43342, Note_on_c, 0, 47, 0
3, 43344, Note_on_c, 0, 35, 110
3, 43390, Note_on_c, 0, 35, 0
3, 43392, Note_on_c, 0, 42, 110
3, 43438, Note_on_c, 0, 42, 0
3, 43440, Note_on_c, 0, 47, 110
3, 43486, Note_on_c, 0, 47, 0
3, 43488, Note_on_c, 0, 35, 110
3, 43534, Note_on_c, 0, 35, 0
3, 43536, Note_on_c, 0, 42, 110
3, 43582, Note_on_c, 0, 42, 0
3, 43584, Note_on_c, 0, 47, 110
3, 43630, Note_on_c, 0, 47, 0
3, 43632, Note_on_c, 0, 35, 110
3, 43678, Note_on_c, 0, 35, 0
3, 43680, Note_on_c, 0, 42, 110
3, 43726, Note_on_c, 0, 42, 0
3, 43728, Note_on_c, 0, 47, 110
3, 43774, Note_on_c, 0, 47, 0
3, 43776, Note_on_c, 0, 40, 110
3, 43822, Note_on_c, 0, 40, 0
3, 43824, Note_on_c, 0, 47, 110
3, 43870, Note_on_c, 0, 47, 0
3, 43872, Note_on_c, 0, 52, 110
3, 43918, Note_on_c, 0, 52, 0
3, 43920, Note_on_c, 0, 40, 110
3, 43966, Note_on_c, 0, 40, 0
3, 43968, Note_on_c, 0, 47, 110
3, 44014, Note_on_c, 0, 47, 0
3, 44016, Note_on_c, 0, 52, 110
3, 44062, Note_on_c, 0, 52, 0
3, 44064, Note_on_c, 0, 40, 110
3, 44110, Note_on_c, 0, 40, 0
3, 44112, Note_on_c, 0, 47, 110
3, 44158, Note_on_c, 0, 47, 0
3, 44160, Note_on_c, 0, 52, 110
3, 44206, Note_on_c, 0, 52, 0
3, 44208, Note_on_c, 0, 40, 110
3, 44254, Note_on_c, 0, 40, 0
3, 44256, Note_on_c, 0, 47, 110
3, 44302, Note_on_c, 0, 47, 0
3, 44304, Note_on_c, 0, 52, 110
3, 44350, Note_on_c, 0, 52, 0
3, 44352, Note_on_c, 0, 43, 110
3, 44398, Note_on_c, 0, 43, 0
3, 44400, Note_on_c, 0, 50, 110
3, 44446, Note_on_c, 0, 50, 0
3, 44448, Note_on_c, 0, 55, 110
3, 44494, Note_on_c, 0, 55, 0
3, 44496, Note_on_c, 0, 43, 110
3, 44542, Note_on_c, 0, 43, 0
3, 44544, Note_on_c, 0, 50, 110
3, 44590, Note_on_c, 0, 50, 0
3, 44592, Note_on_c, 0, 55, 110
3, 44638, Note_on_c, 0, 55, 0
3, 44640, Note_on_c, 0, 43, 110
3, 44686, Note_on_c, 0, 43, 0
3, 44688, Note_on_c, 0, 50, 110
3, 44734, Note_on_c, 0, 50, 0
3, 44736, Note_on_c, 0, 55, 110
3, 44782, Note_on_c, 0, 55, 0
3, 44784, Note_on_c, 0, 43, 110
3, 44830, Note_on_c, 0, 43, 0
3, 44832, Note_on_c, 0, 50, 110
3, 44878, Note_on_c, 0, 50, 0
3, 44880, Note_on_c, 0, 55, 110
3, 44926, Note_on_c, 0, 55, 0
3, 44928, Note_on_c, 0, 36, 110
3, 44974, Note_on_c, 0, 36, 0
3, 44976, Note_on_c, 0, 43, 110
3, 45022, Note_on_c, 0, 43, 0
3, 45024, Note_on_c, 0, 48, 110
3, 45070, Note_on_c, 0, 48, 0
3, 45072, Note_on_c, 0, 36, 110
3, 45118, Note_on_c, 0, 36, 0
3, 45120, Note_on_c, 0, 43, 110
3, 45166, Note_on_c, 0, 43, 0
3, 45168, Note_on_c, 0, 48, 110
3, 45214, Note_on_c, 0, 48, 0
3, 45216, Note_on_c, 0, 36, 110
3, 45262, Note_on_c, 0, 36, 0
3, 45264, Note_on_c, 0, 43, 110
3, 45310, Note_on_c, 0, 43, 0
3, 45312, Note_on_c, 0, 48, 110
3, 45358, Note_on_c, 0, 48, 0
3, 45360, Note_on_c, 0, 36, 110
3, 45406, Note_on_c, 0, 36, 0
3, 45408, Note_on_c, 0, 43, 110
3, 45454, Note_on_c, 0, 43, 0
3, 45456, Note_on_c, 0, 48, 110
3, 45502, Note_on_c, 0, 48, 0
3, 45504, Note_on_c, 0, 35, 110
3, 45550, Note_on_c, 0, 35, 0
3, 45552, Note_on_c, 0, 42, 110
3, 45598, Note_on_c, 0, 42, 0
3, 45600, Note_on_c, 0, 47, 110
3, 45646, Note_on_c, 0, 47, 0
3, 45648, Note_on_c, 0, 35, 110
3, 45694, Note_on_c, 0, 35, 0
3, 45696, Note_on_c, 0, 42, 110
3, 45742, Note_on_c, 0, 42, 0
3, 45744, Note_on_c, 0, 47, 110
3, 45790, Note_on_c, 0, 47, 0
3, 45792, Note_on_c, 0, 35, 110
3, 45838, Note_on_c, 0, 35, 0
3, 45840, Note_on_c, 0, 42, 110
3, 45886, Note_on_c, 0, 42, 0
3, 45888, Note_on_c, 0, 47, 110
3, 45934, Note_on_c, 0, 47, 0
3, 45936, Note_on_c, 0, 35, 110
3, 45982, Note_on_c, 0, 35, 0
3, 45984, Note_on_c, 0, 42, 110
3, 46030, Note_on_c, 0, 42, 0
3, 46032, Note_on_c, 0, 47, 110
3, 46078, Note_on_c, 0, 47, 0
3, 46080, Note_on_c, 0, 40, 110
3, 46126, Note_on_c, 0, 40, 0
3, 46128, Note_on_c, 0, 47, 110
3, 46174, Note_on_c, 0, 47, 0
3, 46176, Note_on_c, 0, 52, 110
3, 46222, Note_on_c, 0, 52, 0
3, 46224, Note_on_c, 0, 40, 110
3, 46270, Note_on_c, 0, 40, 0
3, 46272, Note_on_c, 0, 47, 110
3, 46318, Note_on_c, 0, 47, 0
3, 46320, Note_on_c, 0, 52, 110
3, 46366, Note_on_c, 0, 52, 0
3, 46368, Note_on_c, 0, 40, 110
3, 46414, Note_on_c, 0, 40, 0
3, 46416, Note_on_c, 0, 47, 110
3, 46462, Note_on_c, 0, 47, 0
3, 46464, Note_on_c, 0, 52, 110
3, 46510, Note_on_c, 0, 52, 0
3, 46512, Note_on_c, 0, 40, 110
3, 46558, Note_on_c, 0, 40, 0
3, 46560, Note_on_c, 0, 47, 110
3, 46606, Note_on_c, 0, 47, 0
3, 46608, Note_on_c, 0, 52, 110
3, 46654, Note_on_c, 0, 52, 0
3, 46656, Note_on_c, 0, 43, 110
3, 46702, Note_on_c, 0, 43, 0
3, 46704, Note_on_c, 0, 50, 110
3, 46750, Note_on_c, 0, 50, 0
3, 46752, Note_on_c, 0, 55, 110
3, 46798, Note_on_c, 0, 55, 0
3, 46800, Note_on_c, 0, 43, 110
3, 46846, Note_on_c, 0, 43, 0
3, 46848, Note_on_c, 0, 50, 110
3, 46894, Note_on_c, 0, 50, 0
3, 46896, Note_on_c, 0, 55, 110
3, 46942, Note_on_c, 0, 55, 0
3, 46944, Note_on_c, 0, 43, 110
3, 46990, Note_on_c, 0, 43, 0
3, 46992, Note_on_c, 0, 50, 110
3, 47038, Note_on_c, 0, 50, 0
3, 47040, Note_on_c, 0, 55, 110
3, 47086, Note_on_c, 0, 55, 0
3, 47088, Note_on_c, 0, 43, 110
3, 47134, Note_on_c, 0, 43, 0
3, 47136, Note_on_c, 0, 50, 110
3, 47182, Note_on_c, 0, 50, 0
3, 47184, Note_on_c, 0, 55, 110
3, 47230, Note_on_c, 0, 55, 0
3, 47232, Note_on_c, 0, 36, 110
3, 47278, Note_on_c, 0, 36, 0
3, 47280, Note_on_c, 0, 43, 110
3, 47326, Note_on_c, 0, 43, 0
3, 47328, Note_on_c, 0, 48, 110
3, 47374, Note_on_c, 0, 48, 0
3, 47376, Note_on_c, 0, 36, 110
3, 47422, Note_on_c, 0, 36, 0
3, 47424, Note_on_c, 0, 43, 110
3, 47470, Note_on_c, 0, 43, 0
3, 47472, Note_on_c, 0, 48, 110
3, 47518, Note_on_c, 0, 48, 0
3, 47520, Note_on_c, 0, 36, 110
3, 47566, Note_on_c, 0, 36, 0
3, 47568, Note_on_c, 0, 43, 110
3, 47614, Note_on_c, 0, 43, 0
3, 47616, Note_on_c, 0, 48, 110
3, 47662, Note_on_c, 0, 48, 0
3, 47664, Note_on_c, 0, 36, 110
3, 47710, Note_on_c, 0, 36, 0
3, 47712, Note_on_c, 0, 43, 110
3, 47758, Note_on_c, 0, 43, 0
3, 47760, Note_on_c, 0, 48, 110
3, 47806, Note_on_c, 0, 48, 0
3, 47808, Note_on_c, 0, 35, 110
3, 47854, Note_on_c, 0, 35, 0
3, 47856, Note_on_c, 0, 42, 110
3, 47902, Note_on_c, 0, 42, 0
3, 47904, Note_on_c, 0, 47, 110
3, 47950, Note_on_c, 0, 47, 0
3, 47952, Note_on_c, 0, 35, 110
3, 47998, Note_on_c, 0, 35, 0
3, 48000, Note_on_c, 0, 42, 110
3, 48046, Note_on_c, 0, 42, 0
3, 48048, Note_on_c, 0, 47, 110
3, 48094, Note_on_c, 0, 47, 0
3, 48096, Note_on_c, 0, 35, 110
3, 48142, Note_on_c, 0, 35, 0
3, 48144, Note_on_c, 0, 42, 110
3, 48190, Note_on_c, 0, 42, 0
3, 48192, Note_on_c, 0, 47, 110
3, 48238, Note_on_c, 0, 47, 0
3, 48240, Note_on_c, 0, 35, 110
3, 48286, Note_on_c, 0, 35, 0
3, 48288, Note_on_c, 0, 42, 110
3, 48334, Note_on_c, 0, 42, 0
3, 48336, Note_on_c, 0, 47, 110
3, 48382, Note_on_c, 0, 47, 0
3, 48384, Note_on_c, 0, 28, 110
3, 48384, Note_on_c, 0, 40, 110
3, 48622, Note_on_c, 0, 28, 0
3, 48622, Note_on_c, 0, 40, 0
3, 48624, Note_on_c, 0, 55, 110
3, 48624, Note_on_c, 0, 59, 110
3, 48624, Note_on_c, 0, 64, 110
3, 48754, Note_on_c, 0, 55, 0
3, 48754, Note_on_c, 0, 59, 0
3, 48754, Note_on_c, 0, 64, 0
3, 48960, Note_on_c, 0, 36, 110
3, 48960, Note_on_c, 0, 48, 110
3, 49198, Note_on_c, 0, 36, 0
3, 49198, Note_on_c, 0, 48, 0
3, 49200, Note_on_c, 0, 55, 110
3, 49200, Note_on_c, 0, 60, 110
3, 49200, Note_on_c, 0, 64, 110
3, 49330, Note_on_c, 0, 55, 0
3, 49330, Note_on_c, 0, 60, 0
3, 49330, Note_on_c, 0, 64, 0
3, 49536, Note_on_c, 0, 33, 110
3, 49536, Note_on_c, 0, 45, 110
3, 49774, Note_on_c, 0, 33, 0
3, 49774, Note_on_c, 0, 45, 0
3, 49776, Note_on_c, 0, 57, 110
3, 49776, Note_on_c, 0, 60, 110
3, 49776, Note_on_c, 0, 64, 110
3, 49906, Note_on_c, 0, 57, 0
3, 49906, Note_on_c, 0, 60, 0
3, 49906, Note_on_c, 0, 64, 0
3, 50112, Note_on_c, 0, 47, 110
3, 50112, Note_on_c, 0, 59, 110
3, 50368, Note_on_c, 0, 47, 0
3, 50368, Note_on_c, 0, 59, 0
3, 50400, Note_on_c, 0, 45, 110
3, 50446, Note_on_c, 0, 45, 0
3, 50448, Note_on_c, 0, 47, 110
3, 50494, Note_on_c, 0, 47, 0
3, 50496, Note_on_c, 0, 45, 110
3, 50542, Note_on_c, 0, 45, 0
3, 50544, Note_on_c, 0, 43, 110
3, 50590, Note_on_c, 0, 43, 0
3, 50592, Note_on_c, 0, 42, 110
3, 50638, Note_on_c, 0, 42, 0
3, 50640, Note_on_c, 0, 40, 110
3, 50686, Note_on_c, 0, 40, 0
3, 50688, Note_on_c, 0, 40, 110
3, 50688, Note_on_c, 0, 52, 110
3, 50848, Note_on_c, 0, 40, 0
3, 50848, Note_on_c, 0, 52, 0
3, 50880, Note_on_c, 0, 40, 110
3, 50880, Note_on_c, 0, 52, 110
3, 50926, Note_on_c, 0, 40, 0
3, 50926, Note_on_c, 0, 52, 0
3, 50928, Note_on_c, 0, 40, 110
3, 50928, Note_on_c, 0, 52, 110
3, 50974, Note_on_c, 0, 40, 0
3, 50974, Note_on_c, 0, 52, 0
3, 50976, Note_on_c, 0, 40, 110
3, 50976, Note_on_c, 0, 52, 110
3, 51022, Note_on_c, 0, 40, 0
3, 51022, Note_on_c, 0, 52, 0
3, 51024, Note_on_c, 0, 40, 110
3, 51024, Note_on_c, 0, 52, 110
3, 51070, Note_on_c, 0, 40, 0
3, 51070, Note_on_c, 0, 52, 0
3, 51264, Note_on_c, 0, 43, 110
3, 51264, Note_on_c, 0, 55, 110
3, 51424, Note_on_c, 0, 43, 0
3, 51424, Note_on_c, 0, 55, 0
3, 51456, Note_on_c, 0, 43, 110
3, 51456, Note_on_c, 0, 55, 110
3, 51502, Note_on_c, 0, 43, 0
3, 51502, Note_on_c, 0, 55, 0
3, 51504, Note_on_c, 0, 43, 110
3, 51504, Note_on_c, 0, 55, 110
3, 51550, Note_on_c, 0, 43, 0
3, 51550, Note_on_c, 0, 55, 0
3, 51552, Note_on_c, 0, 43, 110
3, 51552, Note_on_c, 0, 55, 110
3, 51598, Note_on_c, 0, 43, 0
3, 51598, Note_on_c, 0, 55, 0
3, 51600, Note_on_c, 0, 43, 110
3, 51600, Note_on_c, 0, 55, 110
3, 51646, Note_on_c, 0, 43, 0
3, 51646, Note_on_c, 0, 55, 0
3, 51840, Note_on_c, 0, 48, 110
3, 51840, Note_on_c, 0, 60, 110
3, 52000, Note_on_c, 0, 48, 0
3, 52000, Note_on_c, 0, 60, 0
3, 52032, Note_on_c, 0, 48, 110
3, 52032, Note_on_c, 0, 60, 110
3, 52078, Note_on_c, 0, 48, 0
3, 52078, Note_on_c, 0, 60, 0
3, 52080, Note_on_c, 0, 48, 110
3, 52080, Note_on_c, 0, 60, 110
3, 52126, Note_on_c, 0, 48, 0
3, 52126, Note_on_c, 0, 60, 0
3, 52128, Note_on_c, 0, 48, 110
3, 52128, Note_on_c, 0, 60, 110
3, 52174, Note_on_c, 0, 48, 0
3, 52174, Note_on_c, 0, 60, 0
3, 52176, Note_on_c, 0, 48, 110
3, 52176, Note_on_c, 0, 60, 110
3, 52222, Note_on_c, 0, 48, 0
3, 52222, Note_on_c, 0, 60, 0
3, 52416, Note_on_c, 0, 47, 110
3, 52416, Note_on_c, 0, 59, 110
3, 52576, Note_on_c, 0, 47, 0
3, 52576, Note_on_c, 0, 59, 0
3, 52608, Note_on_c, 0, 47, 110
3, 52608, Note_on_c, 0, 59, 110
3, 52654, Note_on_c, 0, 47, 0
3, 52654, Note_on_c, 0, 59, 0
3, 52656, Note_on_c, 0, 47, 110
3, 52656, Note_on_c, 0, 59, 110
3, 52702, Note_on_c, 0, 47, 0
3, 52702, Note_on_c, 0, 59, 0
3, 52704, Note_on_c, 0, 47, 110
3, 52704, Note_on_c, 0, 59, 110
3, 52750, Note_on_c, 0, 47, 0
3, 52750, Note_on_c, 0, 59, 0
3, 52752, Note_on_c, 0, 47, 110
3, 52752, Note_on_c, 0, 59, 110
3, 52798, Note_on_c, 0, 47, 0
3, 52798, Note_on_c, 0, 59, 0
3, 52800, Note_on_c, 0, 43, 110
3, 52800, Note_on_c, 0, 55, 110
3, 52894, Note_on_c, 0, 43, 0
3, 52894, Note_on_c, 0, 55, 0
3, 52896, Note_on_c, 0, 42, 110
3, 52896, Note_on_c, 0, 54, 110
3, 52990, Note_on_c, 0, 42, 0
3, 52990, Note_on_c, 0, 54, 0
3, 52992, Note_on_c, 0, 40, 110
3, 52992, Note_on_c, 0, 52, 110
3, 53152, Note_on_c, 0, 40, 0
3, 53152, Note_on_c, 0, 52, 0
3, 53184, Note_on_c, 0, 40, 110
3, 53184, Note_on_c, 0, 52, 110
3, 53230, Note_on_c, 0, 40, 0
3, 53230, Note_on_c, 0, 52, 0
3, 53232, Note_on_c, 0, 40, 110
3, 53232, Note_on_c, 0, 52, 110
3, 53278, Note_on_c, 0, 40, 0
3, 53278, Note_on_c, 0, 52, 0
3, 53280, Note_on_c, 0, 40, 110
3, 53280, Note_on_c, 0, 52, 110
3, 53326, Note_on_c, 0, 40, 0
3, 53326, Note_on_c, 0, 52, 0
3, 53328, Note_on_c, 0, 40, 110
3, 53328, Note_on_c, 0, 52, 110
3, 53422, Note_on_c, 0, 40, 0
3, 53422, Note_on_c, 0, 52, 0
3, 53424, Note_on_c, 0, 40, 110
3, 53424, Note_on_c, 0, 52, 110
3, 53470, Note_on_c, 0, 40, 0
3, 53470, Note_on_c, 0, 52, 0
3, 53472, Note_on_c, 0, 40, 110
3, 53472, Note_on_c, 0, 52, 110
3, 53518, Note_on_c, 0, 40, 0
3, 53518, Note_on_c, 0, 52, 0
3, 53520, Note_on_c, 0, 40, 110
3, 53520, Note_on_c, 0, 52, 110
3, 53566, Note_on_c, 0, 40, 0
3, 53566, Note_on_c, 0, 52, 0
3, 53568, Note_on_c, 0, 48, 110
3, 53568, Note_on_c, 0, 60, 110
3, 53728, Note_on_c, 0, 48, 0
3, 53728, Note_on_c, 0, 60, 0
3, 53760, Note_on_c, 0, 48, 110
3, 53760, Note_on_c, 0, 60, 110
3, 53806, Note_on_c, 0, 48, 0
3, 53806, Note_on_c, 0, 60, 0
3, 53808, Note_on_c, 0, 48, 110
3, 53808, Note_on_c, 0, 60, 110
3, 53854, Note_on_c, 0, 48, 0
3, 53854, Note_on_c, 0, 60, 0
3, 53856, Note_on_c, 0, 48, 110
3, 53856, Note_on_c, 0, 60, 110
3, 53902, Note_on_c, 0, 48, 0
3, 53902, Note_on_c, 0, 60, 0
3, 53904, Note_on_c, 0, 48, 110
3, 53904, Note_on_c, 0, 60, 110
3, 53998, Note_on_c, 0, 48, 0
3, 53998, Note_on_c, 0, 60, 0
3, 54000, Note_on_c, 0, 48, 110
3, 54000, Note_on_c, 0, 60, 110
3, 54046, Note_on_c, 0, 48, 0
3, 54046, Note_on_c, 0, 60, 0
3, 54048, Note_on_c, 0, 48, 110
3, 54048, Note_on_c, 0, 60, 110
3, 54094, Note_on_c, 0, 48, 0
3, 54094, Note_on_c, 0, 60, 0
3, 54096, Note_on_c, 0, 48, 110
3, 54096, Note_on_c, 0, 60, 110
3, 54142, Note_on_c, 0, 48, 0
3, 54142, Note_on_c, 0, 60, 0
3, 54144, Note_on_c, 0, 45, 110
3, 54144, Note_on_c, 0, 57, 110
3, 54304, Note_on_c, 0, 45, 0
3, 54304, Note_on_c, 0, 57, 0
3, 54336, Note_on_c, 0, 45, 110
3, 54336, Note_on_c, 0, 57, 110
3, 54382, Note_on_c, 0, 45, 0
3, 54382, Note_on_c, 0, 57, 0
3, 54384, Note_on_c, 0, 45, 110
3, 54384, Note_on_c, 0, 57, 110
3, 54430, Note_on_c, 0, 45, 0
3, 54430, Note_on_c, 0, 57, 0
3, 54432, Note_on_c, 0, 45, 110
3, 54432, Note_on_c, 0, 57, 110
3, 54478, Note_on_c, 0, 45, 0
3, 54478, Note_on_c, 0, 57, 0
3, 54480, Note_on_c, 0, 45, 110
3, 54480, Note_on_c, 0, 57, 110
3, 54574, Note_on_c, 0, 45, 0
3, 54574, Note_on_c, 0, 57, 0
3, 54576, Note_on_c, 0, 45, 110
3, 54576, Note_on_c, 0, 57, 110
3, 54622, Note_on_c, 0, 45, 0
3, 54622, Note_on_c, 0, 57, 0
3, 54624, Note_on_c, 0, 45, 110
3, 54624, Note_on_c, 0, 57, 110
3, 54670, Note_on_c, 0, 45, 0
3, 54670, Note_on_c, 0, 57, 0
3, 54672, Note_on_c, 0, 45, 110
3, 54672, Note_on_c, 0, 57, 110
3, 54718, Note_on_c, 0, 45, 0
3, 54718, Note_on_c, 0, 57, 0
3, 54720, Note_on_c, 0, 47, 110
3, 54720, Note_on_c, 0, 59, 110
3, 54880, Note_on_c, 0, 47, 0
3, 54880, Note_on_c, 0, 59, 0
3, 54912, Note_on_c, 0, 47, 110
3, 54912, Note_on_c, 0, 59, 110
3, 54958, Note_on_c, 0, 47, 0
3, 54958, Note_on_c, 0, 59, 0
3, 54960, Note_on_c, 0, 47, 110
3, 54960, Note_on_c, 0, 59, 110
3, 55006, Note_on_c, 0, 47, 0
3, 55006, Note_on_c, 0, 59, 0
3, 55008, Note_on_c, 0, 47, 110
3, 55008, Note_on_c, 0, 59, 110
3, 55054, Note_on_c, 0, 47, 0
3, 55054, Note_on_c, 0, 59, 0
3, 55056, Note_on_c, 0, 47, 110
3, 55056, Note_on_c, 0, 59, 110
3, 55150, Note_on_c, 0, 47, 0
3, 55150, Note_on_c, 0, 59, 0
3, 55152, Note_on_c, 0, 47, 110
3, 55152, Note_on_c, 0, 59, 110
3, 55198, Note_on_c, 0, 47, 0
3, 55198, Note_on_c, 0, 59, 0
3, 55200, Note_on_c, 0, 47, 110
3, 55200, Note_on_c, 0, 59, 110
3, 55246, Note_on_c, 0, 47, 0
3, 55246, Note_on_c, 0, 59, 0
3, 55248, Note_on_c, 0, 47, 110
3, 55248, Note_on_c, 0, 59, 110
3, 55294, Note_on_c, 0, 47, 0
3, 55294, Note_on_c, 0, 59, 0
3, 55296, Note_on_c, 0, 48, 110
3, 55296, Note_on_c, 0, 60, 110
3, 55456, Note_on_c, 0, 48, 0
3, 55456, Note_on_c, 0, 60, 0
3, 55488, Note_on_c, 0, 48, 110
3, 55488, Note_on_c, 0, 60, 110
3, 55534, Note_on_c, 0, 48, 0
3, 55534, Note_on_c, 0, 60, 0
3, 55536, Note_on_c, 0, 48, 110
3, 55536, Note_on_c, 0, 60, 110
3, 55582, Note_on_c, 0, 48, 0
3, 55582, Note_on_c, 0, 60, 0
3, 55584, Note_on_c, 0, 48, 110
3, 55584, Note_on_c, 0, 60, 110
3, 55630, Note_on_c, 0, 48, 0
3, 55630, Note_on_c, 0, 60, 0
3, 55632, Note_on_c, 0, 48, 110
3, 55632, Note_on_c, 0, 60, 110
3, 55726, Note_on_c, 0, 48, 0
3, 55726, Note_on_c, 0, 60, 0
3, 55728, Note_on_c, 0, 48, 110
3, 55728, Note_on_c, 0, 60, 110
3, 55774, Note_on_c, 0, 48, 0
3, 55774, Note_on_c, 0, 60, 0
3, 55776, Note_on_c, 0, 48, 110
3, 55776, Note_on_c, 0, 60, 110
3, 55822, Note_on_c, 0, 48, 0
3, 55822, Note_on_c, 0, 60, 0
3, 55824, Note_on_c, 0, 48, 110
3, 55824, Note_on_c, 0, 60, 110
3, 55870, Note_on_c, 0, 48, 0
3, 55870, Note_on_c, 0, 60, 0
3, 55872, Note_on_c, 0, 43, 110
3, 55872, Note_on_c, 0, 55, 110
3, 56032, Note_on_c, 0, 43, 0
3, 56032, Note_on_c, 0, 55, 0
3, 56064, Note_on_c, 0, 43, 110
3, 56064, Note_on_c, 0, 55, 110
3, 56110, Note_on_c, 0, 43, 0
3, 56110, Note_on_c, 0, 55, 0
3, 56112, Note_on_c, 0, 43, 110
3, 56112, Note_on_c, 0, 55, 110
3, 56158, Note_on_c, 0, 43, 0
3, 56158, Note_on_c, 0, 55, 0
3, 56160, Note_on_c, 0, 43, 110
3, 56160, Note_on_c, 0, 55, 110
3, 56206, Note_on_c, 0, 43, 0
3, 56206, Note_on_c, 0, 55, 0
3, 56208, Note_on_c, 0, 43, 110
3, 56208, Note_on_c, 0, 55, 110
3, 56302, Note_on_c, 0, 43, 0
3, 56302, Note_on_c, 0, 55, 0
3, 56304, Note_on_c, 0, 43, 110
3, 56304, Note_on_c, 0, 55, 110
3, 56350, Note_on_c, 0, 43, 0
3, 56350, Note_on_c, 0, 55, 0
3, 56352, Note_on_c, 0, 43, 110
3, 56352, Note_on_c, 0, 55, 110
3, 56398, Note_on_c, 0, 43, 0
3, 56398, Note_on_c, 0, 55, 0
3, 56400, Note_on_c, 0, 43, 110
3, 56400, Note_on_c, 0, 55, 110
3, 56446, Note_on_c, 0, 43, 0
3, 56446, Note_on_c, 0, 55, 0
3, 56448, Note_on_c, 0, 45, 110
3, 56448, Note_on_c, 0, 57, 110
3, 56608, Note_on_c, 0, 45, 0
3, 56608, Note_on_c, 0, 57, 0
3, 56640, Note_on_c, 0, 45, 110
3, 56640, Note_on_c, 0, 57, 110
3, 56686, Note_on_c, 0, 45, 0
3, 56686, Note_on_c, 0, 57, 0
3, 56688, Note_on_c, 0, 45, 110
3, 56688, Note_on_c, 0, 57, 110
3, 56734, Note_on_c, 0, 45, 0
3, 56734, Note_on_c, 0, 57, 0
3, 56736, Note_on_c, 0, 45, 110
3, 56736, Note_on_c, 0, 57, 110
3, 56782, Note_on_c, 0, 45, 0
3, 56782, Note_on_c, 0, 57, 0
3, 56784, Note_on_c, 0, 45, 110
3, 56784, Note_on_c, 0, 57, 110
3, 56878, Note_on_c, 0, 45, 0
3, 56878, Note_on_c, 0, 57, 0
3, 56880, Note_on_c, 0, 45, 110
3, 56880, Note_on_c, 0, 57, 110
3, 56926, Note_on_c, 0, 45, 0
3, 56926, Note_on_c, 0, 57, 0
3, 56928, Note_on_c, 0, 45, 110
3, 56928, Note_on_c, 0, 57, 110
3, 56974, Note_on_c, 0, 45, 0
3, 56974, Note_on_c, 0, 57, 0
3, 56976, Note_on_c, 0, 45, 110
3, 56976, Note_on_c, 0, 57, 110
3, 57022, Note_on_c, 0, 45, 0
3, 57022, Note_on_c, 0, 57, 0
3, 57024, Note_on_c, 0, 47, 110
3, 57024, Note_on_c, 0, 59, 110
3, 57184, Note_on_c, 0, 47, 0
3, 57184, Note_on_c, 0, 59, 0
3, 57216, Note_on_c, 0, 47, 110
3, 57216, Note_on_c, 0, 59, 110
3, 57262, Note_on_c, 0, 47, 0
3, 57262, Note_on_c, 0, 59, 0
3, 57264, Note_on_c, 0, 47, 110
3, 57264, Note_on_c, 0, 59, 110
3, 57310, Note_on_c, 0, 47, 0
3, 57310, Note_on_c, 0, 59, 0
3, 57312, Note_on_c, 0, 47, 110
3, 57312, Note_on_c, 0, 59, 110
3, 57358, Note_on_c, 0, 47, 0
3, 57358, Note_on_c, 0, 59, 0
3, 57360, Note_on_c, 0, 47, 110
3, 57360, Note_on_c, 0, 59, 110
3, 57454, Note_on_c, 0, 47, 0
3, 57454, Note_on_c, 0, 59, 0
3, 57456, Note_on_c, 0, 47, 110
3, 57456, Note_on_c, 0, 59, 110
3, 57502, Note_on_c, 0, 47, 0
3, 57502, Note_on_c, 0, 59, 0
3, 57504, Note_on_c, 0, 47, 110
3, 57504, Note_on_c, 0, 59, 110
3, 57550, Note_on_c, 0, 47, 0
3, 57550, Note_on_c, 0, 59, 0
3, 57552, Note_on_c, 0, 47, 110
3, 57552, Note_on_c, 0, 59, 110
3, 57598, Note_on_c, 0, 47, 0
3, 57598, Note_on_c, 0, 59, 0
3, 57600, Note_on_c, 0, 47, 110
3, 57600, Note_on_c, 0, 59, 110
3, 57694, Note_on_c, 0, 47, 0
3, 57694, Note_on_c, 0, 59, 0
3, 57696, Note_on_c, 0, 47, 110
3, 57696, Note_on_c, 0, 59, 110
3, 57742, Note_on_c, 0, 47, 0
3, 57742, Note_on_c, 0, 59, 0
3, 57744, Note_on_c, 0, 47, 110
3, 57744, Note_on_c, 0, 59, 110
3, 57838, Note_on_c, 0, 47, 0
3, 57838, Note_on_c, 0, 59, 0
3, 57840, Note_on_c, 0, 47, 110
3, 57840, Note_on_c, 0, 59, 110
3, 57886, Note_on_c, 0, 47, 0
3, 57886, Note_on_c, 0, 59, 0
3, 57888, Note_on_c, 0, 47, 110
3, 57888, Note_on_c, 0, 59, 110
3, 57982, Note_on_c, 0, 47, 0
3, 57982, Note_on_c, 0, 59, 0
3, 57984, Note_on_c, 0, 47, 110
3, 57984, Note_on_c, 0, 59, 110
3, 58030, Note_on_c, 0, 47, 0
3, 58030, Note_on_c, 0, 59, 0
3, 58032, Note_on_c, 0, 47, 110
3, 58032, Note_on_c, 0, 59, 110
3, 58126, Note_on_c, 0, 47, 0
3, 58126, Note_on_c, 0, 59, 0
3, 58128, Note_on_c, 0, 47, 110
3, 58128, Note_on_c, 0, 59, 110
3, 58174, Note_on_c, 0, 47, 0
3, 58174, Note_on_c, 0, 59, 0
3, 58176, Note_on_c, 0, 47, 110
3, 58176, Note_on_c, 0, 59, 110
3, 58270, Note_on_c, 0, 47, 0
3, 58270, Note_on_c, 0, 59, 0
3, 58272, Note_on_c, 0, 47, 110
3, 58272, Note_on_c, 0, 59, 110
3, 58318, Note_on_c, 0, 47, 0
3, 58318, Note_on_c, 0, 59, 0
3, 58320, Note_on_c, 0, 47, 110
3, 58320, Note_on_c, 0, 59, 110
3, 58414, Note_on_c, 0, 47, 0
3, 58414, Note_on_c, 0, 59, 0
3, 58416, Note_on_c, 0, 47, 110
3, 58416, Note_on_c, 0, 59, 110
3, 58462, Note_on_c, 0, 47, 0
3, 58462, Note_on_c, 0, 59, 0
3, 58464, Note_on_c, 0, 47, 110
3, 58464, Note_on_c, 0, 59, 110
3, 58510, Note_on_c, 0, 47, 0
3, 58510, Note_on_c, 0, 59, 0
3, 58512, Note_on_c, 0, 47, 110
3, 58512, Note_on_c, 0, 59, 110
3, 58558, Note_on_c, 0, 47, 0
3, 58558, Note_on_c, 0, 59, 0
3, 58560, Note_on_c, 0, 47, 110
3, 58560, Note_on_c, 0, 59, 110
3, 58606, Note_on_c, 0, 47, 0
3, 58606, Note_on_c, 0, 59, 0
3, 58608, Note_on_c, 0, 47, 110
3, 58608, Note_on_c, 0, 59, 110
3, 58654, Note_on_c, 0, 47, 0
3, 58654, Note_on_c, 0, 59, 0
3, 58656, Note_on_c, 0, 47, 110
3, 58656, Note_on_c, 0, 59, 110
3, 58702, Note_on_c, 0, 47, 0
3, 58702, Note_on_c, 0, 59, 0
3, 58704, Note_on_c, 0, 47, 110
3, 58704, Note_on_c, 0, 59, 110
3, 58750, Note_on_c, 0, 47, 0
3, 58750, Note_on_c, 0, 59, 0
3, 58752, Note_on_c, 0, 28, 110
3, 58752, Note_on_c, 0, 40, 110
3, 58846, Note_on_c, 0, 28, 0
3, 58846, Note_on_c, 0, 40, 0
3, 58848, Note_on_c, 0, 28, 110
3, 58848, Note_on_c, 0, 40, 110
3, 58942, Note_on_c, 0, 28, 0
3, 58942, Note_on_c, 0, 40, 0
3, 58944, Note_on_c, 0, 28, 110
3, 58944, Note_on_c, 0, 40, 110
3, 59038, Note_on_c, 0, 28, 0
3, 59038, Note_on_c, 0, 40, 0
3, 59040, Note_on_c, 0, 55, 110
3, 59040, Note_on_c, 0, 59, 110
3, 59040, Note_on_c, 0, 64, 110
3, 59134, Note_on_c, 0, 55, 0
3, 59134, Note_on_c, 0, 59, 0
3, 59134, Note_on_c, 0, 64, 0
3, 59328, Note_on_c, 0, 28, 110
3, 59328, Note_on_c, 0, 40, 110
3, 59422, Note_on_c, 0, 28, 0
3, 59422, Note_on_c, 0, 40, 0
3, 59424, Note_on_c, 0, 28, 110
3, 59424, Note_on_c, 0, 40, 110
3, 59518, Note_on_c, 0, 28, 0
3, 59518, Note_on_c, 0, 40, 0
3, 59520, Note_on_c, 0, 28, 110
3, 59520, Note_on_c, 0, 40, 110
3, 59614, Note_on_c, 0, 28, 0
3, 59614, Note_on_c, 0, 40, 0
3, 59616, Note_on_c, 0, 55, 110
3, 59616, Note_on_c, 0, 60, 110
3, 59616, Note_on_c, 0, 64, 110
3, 59710, Note_on_c, 0, 55, 0
3, 59710, Note_on_c, 0, 60, 0
3, 59710, Note_on_c, 0, 64, 0
3, 59904, Note_on_c, 0, 28, 110
3, 59904, Note_on_c, 0, 40, 110
3, 59998, Note_on_c, 0, 28, 0
3, 59998, Note_on_c, 0, 40, 0
3, 60000, Note_on_c, 0, 28, 110
3, 60000, Note_on_c, 0, 40, 110
3, 60094, Note_on_c, 0, 28, 0
3, 60094, Note_on_c, 0, 40, 0
3, 60096, Note_on_c, 0, 28, 110
3, 60096, Note_on_c, 0, 40, 110
3, 60190, Note_on_c, 0, 28, 0
3, 60190, Note_on_c, 0, 40, 0
3, 60192, Note_on_c, 0, 54, 110
3, 60192, Note_on_c, 0, 59, 110
3, 60192, Note_on_c, 0, 63, 110
3, 60286, Note_on_c, 0, 54, 0
3, 60286, Note_on_c, 0, 59, 0
3, 60286, Note_on_c, 0, 63, 0
3, 60480, Note_on_c, 0, 28, 110
3, 60480, Note_on_c, 0, 40, 110
3, 60574, Note_on_c, 0, 28, 0
3, 60574, Note_on_c, 0, 40, 0
3, 60576, Note_on_c, 0, 28, 110
3, 60576, Note_on_c, 0, 40, 110
3, 60670, Note_on_c, 0, 28, 0
3, 60670, Note_on_c, 0, 40, 0
3, 60672, Note_on_c, 0, 28, 110
3, 60672, Note_on_c, 0, 40, 110
3, 60766, Note_on_c, 0, 28, 0
3, 60766, Note_on_c, 0, 40, 0
3, 60768, Note_on_c, 0, 55, 110
3, 60768, Note_on_c, 0, 59, 110
3, 60768, Note_on_c, 0, 64, 110
3, 60862, Note_on_c, 0, 55, 0
3, 60862, Note_on_c, 0, 59, 0
3, 60862, Note_on_c, 0, 64, 0
3, 61056, Note_on_c, 0, 40, 110
3, 61056, Note_on_c, 0, 52, 110
3, 62160, Note_on_c, 0, 40, 0
3, 62160, Note_on_c, 0, 52, 0
3, 62160, End_track
4, 0, Start_track
4, 0, MIDI_port, 0
4, 0, Title_t, "track_0"
4, 0, Control_c, 9, 7, 127
4, 0, Control_c, 9, 10, 64
4, 0, Note_on_c, 9, 71, 110
4, 142, Note_on_c, 9, 71, 0
4, 144, Note_on_c, 9, 71, 110
4, 190, Note_on_c, 9, 71, 0
4, 192, Note_on_c, 9, 71, 110
4, 238, Note_on_c, 9, 71, 0
4, 240, Note_on_c, 9, 71, 110
4, 286, Note_on_c, 9, 71, 0
4, 3312, Note_on_c, 9, 71, 110
4, 3406, Note_on_c, 9, 71, 0
4, 3406, End_track
5, 0, Start_track
5, 0, MIDI_port, 0
5, 0, Title_t, "track_1"
5, 0, Control_c, 9, 7, 127
5, 0, Control_c, 9, 10, 64
5, 576, Note_on_c, 9, 71, 110
5, 718, Note_on_c, 9, 71, 0
5, 720, Note_on_c, 9, 71, 110
5, 766, Note_on_c, 9, 71, 0
5, 768, Note_on_c, 9, 71, 110
5, 814, Note_on_c, 9, 71, 0
5, 816, Note_on_c, 9, 71, 110
5, 862, Note_on_c, 9, 71, 0
5, 3408, Note_on_c, 9, 71, 110
5, 3454, Note_on_c, 9, 71, 0
5, 3600, Note_on_c, 9, 71, 110
5, 3694, Note_on_c, 9, 71, 0
5, 3694, End_track
6, 0, Start_track
6, 0, MIDI_port, 0
6, 0, Title_t, "track_2"
6, 0, Control_c, 9, 7, 127
6, 0, Control_c, 9, 10, 64
6, 288, Note_on_c, 9, 71, 110
6, 430, Note_on_c, 9, 71, 0
6, 432, Note_on_c, 9, 71, 110
6, 478, Note_on_c, 9, 71, 0
6, 480, Note_on_c, 9, 71, 110
6, 526, Note_on_c, 9, 71, 0
6, 528, Note_on_c, 9, 71, 110
6, 574, Note_on_c, 9, 71, 0
6, 1440, Note_on_c, 9, 71, 110
6, 1582, Note_on_c, 9, 71, 0
6, 1584, Note_on_c, 9, 71, 110
6, 1630, Note_on_c, 9, 71, 0
6, 1632, Note_on_c, 9, 71, 110
6, 1678, Note_on_c, 9, 71, 0
6, 1680, Note_on_c, 9, 71, 110
6, 1726, Note_on_c, 9, 71, 0
6, 2784, Note_on_c, 9, 71, 110
6, 2878, Note_on_c, 9, 71, 0
6, 2878, End_track
7, 0, Start_track
7, 0, MIDI_port, 0
7, 0, Title_t, "track_3"
7, 0, Control_c, 9, 7, 127
7, 0, Control_c, 9, 10, 64
7, 2688, Note_on_c, 9, 71, 110
7, 2782, Note_on_c, 9, 71, 0
7, 2880, Note_on_c, 9, 71, 110
7, 3310, Note_on_c, 9, 71, 0
7, 3310, End_track
8, 0, Start_track
8, 0, MIDI_port, 0
8, 0, Title_t, "track_4"
8, 0, Control_c, 9, 7, 127
8, 0, Control_c, 9, 10, 64
8, 864, Note_on_c, 9, 71, 110
8, 1006, Note_on_c, 9, 71, 0
8, 1008, Note_on_c, 9, 71, 110
8, 1054, Note_on_c, 9, 71, 0
8, 1056, Note_on_c, 9, 71, 110
8, 1102, Note_on_c, 9, 71, 0
8, 1104, Note_on_c, 9, 71, 110
8, 1150, Note_on_c, 9, 71, 0
8, 1728, Note_on_c, 9, 71, 110
8, 1870, Note_on_c, 9, 71, 0
8, 1872, Note_on_c, 9, 71, 110
8, 1918, Note_on_c, 9, 71, 0
8, 1920, Note_on_c, 9, 71, 110
8, 1966, Note_on_c, 9, 71, 0
8, 1968, Note_on_c, 9, 71, 110
8, 2014, Note_on_c, 9, 71, 0
8, 2016, Note_on_c, 9, 71, 110
8, 2158, Note_on_c, 9, 71, 0
8, 2158, End_track
9, 0, Start_track
9, 0, MIDI_port, 0
9, 0, Title_t, "track_5"
9, 0, Control_c, 9, 7, 127
9, 0, Control_c, 9, 10, 64
9, 1152, Note_on_c, 9, 71, 110
9, 1294, Note_on_c, 9, 71, 0
9, 1296, Note_on_c, 9, 71, 110
9, 1342, Note_on_c, 9, 71, 0
9, 1344, Note_on_c, 9, 71, 110
9, 1390, Note_on_c, 9, 71, 0
9, 1392, Note_on_c, 9, 71, 110
9, 1438, Note_on_c, 9, 71, 0
9, 1438, End_track
0, 0, End_of_file
