0, 0, Header, 1, 28, 192
1, 0, Start_track
1, 0, Title_t, "ê·¸ë\214\200ì\227\220ê²\214"
1, 0, Tempo, 444444
1, 0, Key_signature, 0, "major"
1, 0, Time_signature, 4, 2, 24, 8
1, 14592, Tempo, 375000
1, 91392, Tempo, 428571
1, 92928, Tempo, 461538
1, 94464, Tempo, 500000
1, 94848, Tempo, 600000
1, 95232, Tempo, 666666
1, 95424, Tempo, 857142
1, 96000, Tempo, 500000
1, 99840, Tempo, 631578
1, 99840, End_track
2, 0, Start_track
2, 0, MIDI_port, 0
2, 0, Title_t, "track_0"
2, 0, Control_c, 9, 7, 127
2, 0, Control_c, 9, 10, 64
2, 3072, Note_on_c, 9, 71, 110
2, 3232, Note_on_c, 9, 71, 0
2, 3264, Note_on_c, 9, 71, 110
2, 3424, Note_on_c, 9, 71, 0
2, 3456, Note_on_c, 9, 71, 110
2, 3616, Note_on_c, 9, 71, 0
2, 3648, Note_on_c, 9, 71, 110
2, 3808, Note_on_c, 9, 71, 0
2, 4992, Note_on_c, 9, 71, 110
2, 5328, Note_on_c, 9, 71, 0
2, 5760, Note_on_c, 9, 72, 110
2, 5818, Note_on_c, 9, 72, 0
2, 5820, Note_on_c, 9, 72, 110
2, 5890, Note_on_c, 9, 72, 0
2, 5892, Note_on_c, 9, 72, 110
2, 5950, Note_on_c, 9, 72, 0
2, 5952, Note_on_c, 9, 72, 110
2, 6112, Note_on_c, 9, 72, 0
2, 9216, Note_on_c, 9, 71, 110
2, 9376, Note_on_c, 9, 71, 0
2, 12288, Note_on_c, 9, 71, 110
2, 12448, Note_on_c, 9, 71, 0
2, 12448, End_track
3, 0, Start_track
3, 0, MIDI_port, 0
3, 0, Title_t, "track_1"
3, 0, Control_c, 9, 7, 127
3, 0, Control_c, 9, 10, 64
3, 5376, Note_on_c, 9, 71, 110
3, 5536, Note_on_c, 9, 71, 0
3, 6528, Note_on_c, 9, 72, 110
3, 6670, Note_on_c, 9, 72, 0
3, 6672, Note_on_c, 9, 72, 110
3, 6862, Note_on_c, 9, 72, 0
3, 6864, Note_on_c, 9, 72, 110
3, 7072, Note_on_c, 9, 72, 0
3, 8448, Note_on_c, 9, 71, 110
3, 8608, Note_on_c, 9, 71, 0
3, 10368, Note_on_c, 9, 72, 110
3, 10426, Note_on_c, 9, 72, 0
3, 10428, Note_on_c, 9, 72, 110
3, 10498, Note_on_c, 9, 72, 0
3, 10500, Note_on_c, 9, 72, 110
3, 10558, Note_on_c, 9, 72, 0
3, 10560, Note_on_c, 9, 72, 110
3, 10720, Note_on_c, 9, 72, 0
3, 10720, End_track
4, 0, Start_track
4, 0, MIDI_port, 0
4, 0, Title_t, "track_2"
4, 0, Control_c, 9, 7, 127
4, 0, Control_c, 9, 10, 64
4, 4224, Note_on_c, 9, 71, 110
4, 4560, Note_on_c, 9, 71, 0
4, 8832, Note_on_c, 9, 71, 110
4, 8992, Note_on_c, 9, 71, 0
4, 10620, Note_on_c, 9, 72, 110
4, 10690, Note_on_c, 9, 72, 0
4, 10692, Note_on_c, 9, 72, 110
4, 10912, Note_on_c, 9, 72, 0
4, 10912, End_track
5, 0, Start_track
5, 0, MIDI_port, 0
5, 0, Title_t, "track_3"
5, 0, Control_c, 9, 7, 127
5, 0, Control_c, 9, 10, 64
5, 3840, Note_on_c, 9, 71, 110
5, 4176, Note_on_c, 9, 71, 0
5, 6012, Note_on_c, 9, 72, 110
5, 6082, Note_on_c, 9, 72, 0
5, 6084, Note_on_c, 9, 72, 110
5, 6304, Note_on_c, 9, 72, 0
5, 9984, Note_on_c, 9, 71, 110
5, 10144, Note_on_c, 9, 71, 0
5, 10144, End_track
6, 0, Start_track
6, 0, MIDI_port, 0
6, 0, Title_t, "track_4"
6, 0, Control_c, 9, 7, 127
6, 0, Control_c, 9, 10, 64
6, 7296, Note_on_c, 9, 71, 110
6, 7456, Note_on_c, 9, 71, 0
6, 11136, Note_on_c, 9, 72, 110
6, 11278, Note_on_c, 9, 72, 0
6, 11280, Note_on_c, 9, 72, 110
6, 11470, Note_on_c, 9, 72, 0
6, 11472, Note_on_c, 9, 72, 110
6, 11680, Note_on_c, 9, 72, 0
6, 11680, End_track
7, 0, Start_track
7, 0, MIDI_port, 0
7, 0, Title_t, "track_5"
7, 0, Control_c, 9, 7, 127
7, 0, Control_c, 9, 10, 64
7, 4608, Note_on_c, 9, 71, 110
7, 4944, Note_on_c, 9, 71, 0
7, 7488, Note_on_c, 9, 71, 110
7, 7648, Note_on_c, 9, 71, 0
7, 7680, Note_on_c, 9, 71, 110
7, 7840, Note_on_c, 9, 71, 0
7, 8064, Note_on_c, 9, 71, 110
7, 8224, Note_on_c, 9, 71, 0
7, 9600, Note_on_c, 9, 71, 110
7, 9760, Note_on_c, 9, 71, 0
7, 13056, Note_on_c, 9, 72, 110
7, 13114, Note_on_c, 9, 72, 0
7, 13116, Note_on_c, 9, 72, 110
7, 13186, Note_on_c, 9, 72, 0
7, 13188, Note_on_c, 9, 72, 110
7, 13246, Note_on_c, 9, 72, 0
7, 13248, Note_on_c, 9, 72, 110
7, 13306, Note_on_c, 9, 72, 0
7, 13308, Note_on_c, 9, 72, 110
7, 13378, Note_on_c, 9, 72, 0
7, 13380, Note_on_c, 9, 72, 110
7, 13438, Note_on_c, 9, 72, 0
7, 13440, Note_on_c, 9, 72, 110
7, 13582, Note_on_c, 9, 72, 0
7, 13584, Note_on_c, 9, 72, 110
7, 13630, Note_on_c, 9, 72, 0
7, 13776, Note_on_c, 9, 72, 110
7, 13822, Note_on_c, 9, 72, 0
7, 13824, Note_on_c, 9, 71, 110
7, 13984, Note_on_c, 9, 71, 0
7, 13984, End_track
8, 0, Start_track
8, 0, MIDI_port, 0
8, 0, Title_t, "BRASS"
8, 0, Program_c, 13, 62
8, 0, Pitch_bend_c, 13, 8192
8, 0, Control_c, 13, 7, 127
8, 0, Control_c, 13, 10, 64
8, 1440, Note_on_c, 13, 72, 110
8, 1486, Note_on_c, 13, 72, 0
8, 1488, Note_on_c, 13, 72, 110
8, 1534, Note_on_c, 13, 72, 0
8, 1536, Note_on_c, 13, 72, 110
8, 1594, Note_on_c, 13, 72, 0
8, 1596, Note_on_c, 13, 67, 110
8, 1666, Note_on_c, 13, 67, 0
8, 1668, Note_on_c, 13, 72, 110
8, 1726, Note_on_c, 13, 72, 0
8, 1728, Note_on_c, 13, 74, 110
8, 1786, Note_on_c, 13, 74, 0
8, 1788, Note_on_c, 13, 72, 110
8, 1858, Note_on_c, 13, 72, 0
8, 1860, Note_on_c, 13, 74, 110
8, 1918, Note_on_c, 13, 74, 0
8, 1920, Note_on_c, 13, 79, 110
8, 3408, Note_on_c, 13, 79, 0
8, 11520, Note_on_c, 13, 67, 110
8, 11520, Note_on_c, 13, 72, 110
8, 11680, Note_on_c, 13, 67, 0
8, 11680, Note_on_c, 13, 72, 0
8, 12288, Note_on_c, 13, 67, 110
8, 12288, Note_on_c, 13, 72, 110
8, 12448, Note_on_c, 13, 67, 0
8, 12448, Note_on_c, 13, 72, 0
8, 13056, Note_on_c, 13, 67, 110
8, 13056, Note_on_c, 13, 72, 110
8, 13216, Note_on_c, 13, 67, 0
8, 13216, Note_on_c, 13, 72, 0
8, 13824, Note_on_c, 13, 67, 110
8, 13824, Note_on_c, 13, 71, 110
8, 13984, Note_on_c, 13, 67, 0
8, 13984, Note_on_c, 13, 71, 0
8, 20064, Note_on_c, 13, 57, 110
8, 20064, Note_on_c, 13, 60, 110
8, 20064, Note_on_c, 13, 65, 110
8, 20158, Note_on_c, 13, 57, 0
8, 20158, Note_on_c, 13, 60, 0
8, 20158, Note_on_c, 13, 65, 0
8, 20160, Note_on_c, 13, 57, 110
8, 20160, Note_on_c, 13, 60, 110
8, 20160, Note_on_c, 13, 65, 110
8, 20254, Note_on_c, 13, 57, 0
8, 20254, Note_on_c, 13, 60, 0
8, 20254, Note_on_c, 13, 65, 0
8, 20256, Note_on_c, 13, 59, 110
8, 20256, Note_on_c, 13, 62, 110
8, 20256, Note_on_c, 13, 67, 110
8, 20350, Note_on_c, 13, 59, 0
8, 20350, Note_on_c, 13, 62, 0
8, 20350, Note_on_c, 13, 67, 0
8, 20352, Note_on_c, 13, 59, 110
8, 20352, Note_on_c, 13, 62, 110
8, 20352, Note_on_c, 13, 67, 110
8, 20512, Note_on_c, 13, 59, 0
8, 20512, Note_on_c, 13, 62, 0
8, 20512, Note_on_c, 13, 67, 0
8, 20512, End_track
9, 0, Start_track
9, 0, MIDI_port, 0
9, 0, Title_t, "BRASS-2"
9, 0, Program_c, 0, 62
9, 0, Pitch_bend_c, 0, 8192
9, 0, Control_c, 0, 7, 127
9, 0, Control_c, 0, 10, 64
9, 768, Note_on_c, 0, 48, 110
9, 768, Note_on_c, 0, 60, 110
9, 826, Note_on_c, 0, 48, 0
9, 826, Note_on_c, 0, 60, 0
9, 828, Note_on_c, 0, 43, 110
9, 898, Note_on_c, 0, 43, 0
9, 900, Note_on_c, 0, 48, 110
9, 900, Note_on_c, 0, 60, 110
9, 958, Note_on_c, 0, 48, 0
9, 958, Note_on_c, 0, 60, 0
9, 960, Note_on_c, 0, 50, 110
9, 960, Note_on_c, 0, 62, 110
9, 1018, Note_on_c, 0, 50, 0
9, 1018, Note_on_c, 0, 62, 0
9, 1020, Note_on_c, 0, 48, 110
9, 1020, Note_on_c, 0, 60, 110
9, 1090, Note_on_c, 0, 48, 0
9, 1090, Note_on_c, 0, 60, 0
9, 1092, Note_on_c, 0, 50, 110
9, 1092, Note_on_c, 0, 62, 110
9, 1150, Note_on_c, 0, 50, 0
9, 1150, Note_on_c, 0, 62, 0
9, 1152, Note_on_c, 0, 55, 110
9, 1152, Note_on_c, 0, 67, 110
9, 2064, Note_on_c, 0, 55, 0
9, 2064, Note_on_c, 0, 67, 0
9, 3840, Note_on_c, 0, 60, 110
9, 3898, Note_on_c, 0, 60, 0
9, 3900, Note_on_c, 0, 55, 110
9, 3970, Note_on_c, 0, 55, 0
9, 3972, Note_on_c, 0, 60, 110
9, 4030, Note_on_c, 0, 60, 0
9, 4032, Note_on_c, 0, 62, 110
9, 4090, Note_on_c, 0, 62, 0
9, 4092, Note_on_c, 0, 60, 110
9, 4162, Note_on_c, 0, 60, 0
9, 4164, Note_on_c, 0, 62, 110
9, 4222, Note_on_c, 0, 62, 0
9, 4224, Note_on_c, 0, 67, 110
9, 4384, Note_on_c, 0, 67, 0
9, 4416, Note_on_c, 0, 65, 110
9, 4576, Note_on_c, 0, 65, 0
9, 4608, Note_on_c, 0, 64, 110
9, 4666, Note_on_c, 0, 64, 0
9, 4668, Note_on_c, 0, 62, 110
9, 4738, Note_on_c, 0, 62, 0
9, 4740, Note_on_c, 0, 60, 110
9, 4798, Note_on_c, 0, 60, 0
9, 4800, Note_on_c, 0, 62, 110
9, 4930, Note_on_c, 0, 62, 0
9, 4932, Note_on_c, 0, 64, 110
9, 4990, Note_on_c, 0, 64, 0
9, 4992, Note_on_c, 0, 60, 110
9, 5328, Note_on_c, 0, 60, 0
9, 5376, Note_on_c, 0, 77, 110
9, 5434, Note_on_c, 0, 77, 0
9, 5436, Note_on_c, 0, 76, 110
9, 5506, Note_on_c, 0, 76, 0
9, 5508, Note_on_c, 0, 72, 110
9, 5566, Note_on_c, 0, 72, 0
9, 5568, Note_on_c, 0, 72, 110
9, 5626, Note_on_c, 0, 72, 0
9, 5628, Note_on_c, 0, 74, 110
9, 5698, Note_on_c, 0, 74, 0
9, 5700, Note_on_c, 0, 76, 110
9, 5758, Note_on_c, 0, 76, 0
9, 5760, Note_on_c, 0, 77, 110
9, 5920, Note_on_c, 0, 77, 0
9, 5952, Note_on_c, 0, 76, 110
9, 6082, Note_on_c, 0, 76, 0
9, 6084, Note_on_c, 0, 72, 110
9, 6142, Note_on_c, 0, 72, 0
9, 6144, Note_on_c, 0, 77, 110
9, 6202, Note_on_c, 0, 77, 0
9, 6204, Note_on_c, 0, 76, 110
9, 6274, Note_on_c, 0, 76, 0
9, 6276, Note_on_c, 0, 72, 110
9, 6334, Note_on_c, 0, 72, 0
9, 6336, Note_on_c, 0, 72, 110
9, 6394, Note_on_c, 0, 72, 0
9, 6396, Note_on_c, 0, 74, 110
9, 6466, Note_on_c, 0, 74, 0
9, 6468, Note_on_c, 0, 76, 110
9, 6526, Note_on_c, 0, 76, 0
9, 6528, Note_on_c, 0, 77, 110
9, 6688, Note_on_c, 0, 77, 0
9, 6720, Note_on_c, 0, 76, 110
9, 6850, Note_on_c, 0, 76, 0
9, 6852, Note_on_c, 0, 72, 110
9, 6910, Note_on_c, 0, 72, 0
9, 6912, Note_on_c, 0, 72, 110
9, 6970, Note_on_c, 0, 72, 0
9, 6972, Note_on_c, 0, 67, 110
9, 7042, Note_on_c, 0, 67, 0
9, 7044, Note_on_c, 0, 72, 110
9, 7102, Note_on_c, 0, 72, 0
9, 7104, Note_on_c, 0, 74, 110
9, 7162, Note_on_c, 0, 74, 0
9, 7164, Note_on_c, 0, 72, 110
9, 7234, Note_on_c, 0, 72, 0
9, 7236, Note_on_c, 0, 74, 110
9, 7294, Note_on_c, 0, 74, 0
9, 7296, Note_on_c, 0, 76, 110
9, 7354, Note_on_c, 0, 76, 0
9, 7356, Note_on_c, 0, 74, 110
9, 7426, Note_on_c, 0, 74, 0
9, 7428, Note_on_c, 0, 76, 110
9, 7486, Note_on_c, 0, 76, 0
9, 7488, Note_on_c, 0, 77, 110
9, 7546, Note_on_c, 0, 77, 0
9, 7548, Note_on_c, 0, 76, 110
9, 7618, Note_on_c, 0, 76, 0
9, 7620, Note_on_c, 0, 77, 110
9, 7678, Note_on_c, 0, 77, 0
9, 7680, Note_on_c, 0, 79, 110
9, 7840, Note_on_c, 0, 79, 0
9, 7968, Note_on_c, 0, 79, 110
9, 8014, Note_on_c, 0, 79, 0
9, 8016, Note_on_c, 0, 79, 110
9, 8062, Note_on_c, 0, 79, 0
9, 8064, Note_on_c, 0, 79, 110
9, 8224, Note_on_c, 0, 79, 0
9, 8448, Note_on_c, 0, 60, 110
9, 8506, Note_on_c, 0, 60, 0
9, 8508, Note_on_c, 0, 55, 110
9, 8578, Note_on_c, 0, 55, 0
9, 8580, Note_on_c, 0, 60, 110
9, 8638, Note_on_c, 0, 60, 0
9, 8640, Note_on_c, 0, 62, 110
9, 8698, Note_on_c, 0, 62, 0
9, 8700, Note_on_c, 0, 60, 110
9, 8770, Note_on_c, 0, 60, 0
9, 8772, Note_on_c, 0, 62, 110
9, 8830, Note_on_c, 0, 62, 0
9, 8832, Note_on_c, 0, 67, 110
9, 8992, Note_on_c, 0, 67, 0
9, 9024, Note_on_c, 0, 65, 110
9, 9184, Note_on_c, 0, 65, 0
9, 9216, Note_on_c, 0, 64, 110
9, 9274, Note_on_c, 0, 64, 0
9, 9276, Note_on_c, 0, 62, 110
9, 9346, Note_on_c, 0, 62, 0
9, 9348, Note_on_c, 0, 60, 110
9, 9406, Note_on_c, 0, 60, 0
9, 9408, Note_on_c, 0, 62, 110
9, 9538, Note_on_c, 0, 62, 0
9, 9540, Note_on_c, 0, 64, 110
9, 9598, Note_on_c, 0, 64, 0
9, 9600, Note_on_c, 0, 60, 110
9, 9936, Note_on_c, 0, 60, 0
9, 9984, Note_on_c, 0, 77, 110
9, 10042, Note_on_c, 0, 77, 0
9, 10044, Note_on_c, 0, 76, 110
9, 10114, Note_on_c, 0, 76, 0
9, 10116, Note_on_c, 0, 72, 110
9, 10174, Note_on_c, 0, 72, 0
9, 10176, Note_on_c, 0, 72, 110
9, 10234, Note_on_c, 0, 72, 0
9, 10236, Note_on_c, 0, 74, 110
9, 10306, Note_on_c, 0, 74, 0
9, 10308, Note_on_c, 0, 76, 110
9, 10366, Note_on_c, 0, 76, 0
9, 10368, Note_on_c, 0, 77, 110
9, 10528, Note_on_c, 0, 77, 0
9, 10560, Note_on_c, 0, 76, 110
9, 10690, Note_on_c, 0, 76, 0
9, 10692, Note_on_c, 0, 72, 110
9, 10750, Note_on_c, 0, 72, 0
9, 10752, Note_on_c, 0, 77, 110
9, 10810, Note_on_c, 0, 77, 0
9, 10812, Note_on_c, 0, 76, 110
9, 10882, Note_on_c, 0, 76, 0
9, 10884, Note_on_c, 0, 72, 110
9, 10942, Note_on_c, 0, 72, 0
9, 10944, Note_on_c, 0, 72, 110
9, 11002, Note_on_c, 0, 72, 0
9, 11004, Note_on_c, 0, 74, 110
9, 11074, Note_on_c, 0, 74, 0
9, 11076, Note_on_c, 0, 76, 110
9, 11134, Note_on_c, 0, 76, 0
9, 11136, Note_on_c, 0, 77, 110
9, 11296, Note_on_c, 0, 77, 0
9, 11328, Note_on_c, 0, 76, 110
9, 11458, Note_on_c, 0, 76, 0
9, 11460, Note_on_c, 0, 72, 110
9, 11518, Note_on_c, 0, 72, 0
9, 11520, Note_on_c, 0, 72, 110
9, 11578, Note_on_c, 0, 72, 0
9, 11580, Note_on_c, 0, 67, 110
9, 11650, Note_on_c, 0, 67, 0
9, 11652, Note_on_c, 0, 72, 110
9, 11710, Note_on_c, 0, 72, 0
9, 11712, Note_on_c, 0, 74, 110
9, 11770, Note_on_c, 0, 74, 0
9, 11772, Note_on_c, 0, 72, 110
9, 11842, Note_on_c, 0, 72, 0
9, 11844, Note_on_c, 0, 74, 110
9, 11902, Note_on_c, 0, 74, 0
9, 11904, Note_on_c, 0, 76, 110
9, 11962, Note_on_c, 0, 76, 0
9, 11964, Note_on_c, 0, 74, 110
9, 12034, Note_on_c, 0, 74, 0
9, 12036, Note_on_c, 0, 76, 110
9, 12094, Note_on_c, 0, 76, 0
9, 12096, Note_on_c, 0, 77, 110
9, 12154, Note_on_c, 0, 77, 0
9, 12156, Note_on_c, 0, 76, 110
9, 12226, Note_on_c, 0, 76, 0
9, 12228, Note_on_c, 0, 77, 110
9, 12286, Note_on_c, 0, 77, 0
9, 12288, Note_on_c, 0, 72, 110
9, 12288, Note_on_c, 0, 76, 110
9, 12346, Note_on_c, 0, 72, 0
9, 12346, Note_on_c, 0, 76, 0
9, 12348, Note_on_c, 0, 67, 110
9, 12348, Note_on_c, 0, 72, 110
9, 12418, Note_on_c, 0, 67, 0
9, 12418, Note_on_c, 0, 72, 0
9, 12420, Note_on_c, 0, 72, 110
9, 12420, Note_on_c, 0, 76, 110
9, 12478, Note_on_c, 0, 72, 0
9, 12478, Note_on_c, 0, 76, 0
9, 12480, Note_on_c, 0, 74, 110
9, 12480, Note_on_c, 0, 77, 110
9, 12538, Note_on_c, 0, 74, 0
9, 12538, Note_on_c, 0, 77, 0
9, 12540, Note_on_c, 0, 72, 110
9, 12540, Note_on_c, 0, 76, 110
9, 12610, Note_on_c, 0, 72, 0
9, 12610, Note_on_c, 0, 76, 0
9, 12612, Note_on_c, 0, 74, 110
9, 12612, Note_on_c, 0, 77, 110
9, 12670, Note_on_c, 0, 74, 0
9, 12670, Note_on_c, 0, 77, 0
9, 12672, Note_on_c, 0, 76, 110
9, 12672, Note_on_c, 0, 79, 110
9, 12730, Note_on_c, 0, 76, 0
9, 12730, Note_on_c, 0, 79, 0
9, 12732, Note_on_c, 0, 74, 110
9, 12732, Note_on_c, 0, 77, 110
9, 12802, Note_on_c, 0, 74, 0
9, 12802, Note_on_c, 0, 77, 0
9, 12804, Note_on_c, 0, 76, 110
9, 12804, Note_on_c, 0, 79, 110
9, 12862, Note_on_c, 0, 76, 0
9, 12862, Note_on_c, 0, 79, 0
9, 12864, Note_on_c, 0, 77, 110
9, 12864, Note_on_c, 0, 81, 110
9, 12922, Note_on_c, 0, 77, 0
9, 12922, Note_on_c, 0, 81, 0
9, 12924, Note_on_c, 0, 76, 110
9, 12924, Note_on_c, 0, 79, 110
9, 12994, Note_on_c, 0, 76, 0
9, 12994, Note_on_c, 0, 79, 0
9, 12996, Note_on_c, 0, 77, 110
9, 12996, Note_on_c, 0, 81, 110
9, 13054, Note_on_c, 0, 77, 0
9, 13054, Note_on_c, 0, 81, 0
9, 13116, Note_on_c, 0, 67, 110
9, 13116, Note_on_c, 0, 72, 110
9, 13186, Note_on_c, 0, 67, 0
9, 13186, Note_on_c, 0, 72, 0
9, 13188, Note_on_c, 0, 72, 110
9, 13188, Note_on_c, 0, 76, 110
9, 13246, Note_on_c, 0, 72, 0
9, 13246, Note_on_c, 0, 76, 0
9, 13248, Note_on_c, 0, 74, 110
9, 13248, Note_on_c, 0, 77, 110
9, 13306, Note_on_c, 0, 74, 0
9, 13306, Note_on_c, 0, 77, 0
9, 13308, Note_on_c, 0, 72, 110
9, 13308, Note_on_c, 0, 76, 110
9, 13378, Note_on_c, 0, 72, 0
9, 13378, Note_on_c, 0, 76, 0
9, 13380, Note_on_c, 0, 74, 110
9, 13380, Note_on_c, 0, 77, 110
9, 13438, Note_on_c, 0, 74, 0
9, 13438, Note_on_c, 0, 77, 0
9, 13440, Note_on_c, 0, 76, 110
9, 13440, Note_on_c, 0, 79, 110
9, 13498, Note_on_c, 0, 76, 0
9, 13498, Note_on_c, 0, 79, 0
9, 13500, Note_on_c, 0, 74, 110
9, 13500, Note_on_c, 0, 77, 110
9, 13570, Note_on_c, 0, 74, 0
9, 13570, Note_on_c, 0, 77, 0
9, 13572, Note_on_c, 0, 76, 110
9, 13572, Note_on_c, 0, 79, 110
9, 13630, Note_on_c, 0, 76, 0
9, 13630, Note_on_c, 0, 79, 0
9, 13632, Note_on_c, 0, 77, 110
9, 13632, Note_on_c, 0, 81, 110
9, 13690, Note_on_c, 0, 77, 0
9, 13690, Note_on_c, 0, 81, 0
9, 13692, Note_on_c, 0, 76, 110
9, 13692, Note_on_c, 0, 79, 110
9, 13762, Note_on_c, 0, 76, 0
9, 13762, Note_on_c, 0, 79, 0
9, 13764, Note_on_c, 0, 77, 110
9, 13764, Note_on_c, 0, 81, 110
9, 13822, Note_on_c, 0, 77, 0
9, 13822, Note_on_c, 0, 81, 0
9, 13824, Note_on_c, 0, 79, 110
9, 13824, Note_on_c, 0, 83, 110
9, 14352, Note_on_c, 0, 79, 0
9, 14352, Note_on_c, 0, 83, 0
9, 14784, Note_on_c, 0, 72, 110
9, 14784, Note_on_c, 0, 76, 110
9, 14944, Note_on_c, 0, 72, 0
9, 14944, Note_on_c, 0, 76, 0
9, 14976, Note_on_c, 0, 74, 110
9, 14976, Note_on_c, 0, 77, 110
9, 15136, Note_on_c, 0, 74, 0
9, 15136, Note_on_c, 0, 77, 0
9, 15168, Note_on_c, 0, 76, 110
9, 15168, Note_on_c, 0, 79, 110
9, 15262, Note_on_c, 0, 76, 0
9, 15262, Note_on_c, 0, 79, 0
9, 15264, Note_on_c, 0, 77, 110
9, 15264, Note_on_c, 0, 81, 110
9, 15454, Note_on_c, 0, 77, 0
9, 15454, Note_on_c, 0, 81, 0
9, 15456, Note_on_c, 0, 77, 110
9, 15456, Note_on_c, 0, 81, 110
9, 15550, Note_on_c, 0, 77, 0
9, 15550, Note_on_c, 0, 81, 0
9, 15552, Note_on_c, 0, 76, 110
9, 15552, Note_on_c, 0, 79, 110
9, 15712, Note_on_c, 0, 76, 0
9, 15712, Note_on_c, 0, 79, 0
9, 15744, Note_on_c, 0, 74, 110
9, 15744, Note_on_c, 0, 77, 110
9, 15838, Note_on_c, 0, 74, 0
9, 15838, Note_on_c, 0, 77, 0
9, 15840, Note_on_c, 0, 76, 110
9, 15840, Note_on_c, 0, 79, 110
9, 16096, Note_on_c, 0, 76, 0
9, 16096, Note_on_c, 0, 79, 0
9, 16128, Note_on_c, 0, 69, 110
9, 16128, Note_on_c, 0, 72, 110
9, 17232, Note_on_c, 0, 69, 0
9, 17232, Note_on_c, 0, 72, 0
9, 17664, Note_on_c, 0, 77, 110
9, 17664, Note_on_c, 0, 81, 110
9, 17824, Note_on_c, 0, 77, 0
9, 17824, Note_on_c, 0, 81, 0
9, 17856, Note_on_c, 0, 76, 110
9, 17856, Note_on_c, 0, 79, 110
9, 18016, Note_on_c, 0, 76, 0
9, 18016, Note_on_c, 0, 79, 0
9, 18048, Note_on_c, 0, 74, 110
9, 18048, Note_on_c, 0, 77, 110
9, 18208, Note_on_c, 0, 74, 0
9, 18208, Note_on_c, 0, 77, 0
9, 18240, Note_on_c, 0, 72, 110
9, 18240, Note_on_c, 0, 76, 110
9, 18334, Note_on_c, 0, 72, 0
9, 18334, Note_on_c, 0, 76, 0
9, 18336, Note_on_c, 0, 76, 110
9, 18336, Note_on_c, 0, 79, 110
9, 18526, Note_on_c, 0, 76, 0
9, 18526, Note_on_c, 0, 79, 0
9, 18528, Note_on_c, 0, 76, 110
9, 18528, Note_on_c, 0, 79, 110
9, 18622, Note_on_c, 0, 76, 0
9, 18622, Note_on_c, 0, 79, 0
9, 18624, Note_on_c, 0, 74, 110
9, 18624, Note_on_c, 0, 77, 110
9, 18784, Note_on_c, 0, 74, 0
9, 18784, Note_on_c, 0, 77, 0
9, 18816, Note_on_c, 0, 72, 110
9, 18816, Note_on_c, 0, 76, 110
9, 18910, Note_on_c, 0, 72, 0
9, 18910, Note_on_c, 0, 76, 0
9, 18912, Note_on_c, 0, 74, 110
9, 18912, Note_on_c, 0, 77, 110
9, 19168, Note_on_c, 0, 74, 0
9, 19168, Note_on_c, 0, 77, 0
9, 19200, Note_on_c, 0, 72, 110
9, 19200, Note_on_c, 0, 76, 110
9, 19456, Note_on_c, 0, 72, 0
9, 19456, Note_on_c, 0, 76, 0
9, 19488, Note_on_c, 0, 71, 110
9, 19488, Note_on_c, 0, 74, 110
9, 19582, Note_on_c, 0, 71, 0
9, 19582, Note_on_c, 0, 74, 0
9, 19584, Note_on_c, 0, 71, 110
9, 19584, Note_on_c, 0, 74, 110
9, 19920, Note_on_c, 0, 71, 0
9, 19920, Note_on_c, 0, 74, 0
9, 20064, Note_on_c, 0, 72, 110
9, 20064, Note_on_c, 0, 77, 110
9, 20064, Note_on_c, 0, 81, 110
9, 20158, Note_on_c, 0, 72, 0
9, 20158, Note_on_c, 0, 77, 0
9, 20158, Note_on_c, 0, 81, 0
9, 20160, Note_on_c, 0, 72, 110
9, 20160, Note_on_c, 0, 77, 110
9, 20160, Note_on_c, 0, 81, 110
9, 20254, Note_on_c, 0, 72, 0
9, 20254, Note_on_c, 0, 77, 0
9, 20254, Note_on_c, 0, 81, 0
9, 20256, Note_on_c, 0, 74, 110
9, 20256, Note_on_c, 0, 83, 110
9, 20350, Note_on_c, 0, 74, 0
9, 20350, Note_on_c, 0, 83, 0
9, 20352, Note_on_c, 0, 74, 110
9, 20352, Note_on_c, 0, 79, 110
9, 20352, Note_on_c, 0, 83, 110
9, 20512, Note_on_c, 0, 74, 0
9, 20512, Note_on_c, 0, 79, 0
9, 20512, Note_on_c, 0, 83, 0
9, 20928, Note_on_c, 0, 60, 110
9, 20928, Note_on_c, 0, 64, 110
9, 21088, Note_on_c, 0, 60, 0
9, 21088, Note_on_c, 0, 64, 0
9, 21216, Note_on_c, 0, 60, 110
9, 21216, Note_on_c, 0, 64, 110
9, 21310, Note_on_c, 0, 60, 0
9, 21310, Note_on_c, 0, 64, 0
9, 21696, Note_on_c, 0, 60, 110
9, 21696, Note_on_c, 0, 64, 110
9, 21856, Note_on_c, 0, 60, 0
9, 21856, Note_on_c, 0, 64, 0
9, 21984, Note_on_c, 0, 59, 110
9, 21984, Note_on_c, 0, 62, 110
9, 22078, Note_on_c, 0, 59, 0
9, 22078, Note_on_c, 0, 62, 0
9, 22464, Note_on_c, 0, 60, 110
9, 22464, Note_on_c, 0, 64, 110
9, 22624, Note_on_c, 0, 60, 0
9, 22624, Note_on_c, 0, 64, 0
9, 22752, Note_on_c, 0, 59, 110
9, 22752, Note_on_c, 0, 62, 110
9, 23008, Note_on_c, 0, 59, 0
9, 23008, Note_on_c, 0, 62, 0
9, 23040, Note_on_c, 0, 60, 110
9, 23040, Note_on_c, 0, 64, 110
9, 23134, Note_on_c, 0, 60, 0
9, 23134, Note_on_c, 0, 64, 0
9, 23136, Note_on_c, 0, 60, 110
9, 23136, Note_on_c, 0, 64, 110
9, 23230, Note_on_c, 0, 60, 0
9, 23230, Note_on_c, 0, 64, 0
9, 23328, Note_on_c, 0, 59, 110
9, 23328, Note_on_c, 0, 62, 110
9, 23422, Note_on_c, 0, 59, 0
9, 23422, Note_on_c, 0, 62, 0
9, 23520, Note_on_c, 0, 60, 110
9, 23520, Note_on_c, 0, 64, 110
9, 23776, Note_on_c, 0, 60, 0
9, 23776, Note_on_c, 0, 64, 0
9, 24000, Note_on_c, 0, 62, 110
9, 24000, Note_on_c, 0, 65, 110
9, 24160, Note_on_c, 0, 62, 0
9, 24160, Note_on_c, 0, 65, 0
9, 24288, Note_on_c, 0, 62, 110
9, 24288, Note_on_c, 0, 65, 110
9, 24382, Note_on_c, 0, 62, 0
9, 24382, Note_on_c, 0, 65, 0
9, 24768, Note_on_c, 0, 62, 110
9, 24768, Note_on_c, 0, 65, 110
9, 24928, Note_on_c, 0, 62, 0
9, 24928, Note_on_c, 0, 65, 0
9, 25056, Note_on_c, 0, 62, 110
9, 25056, Note_on_c, 0, 65, 110
9, 25150, Note_on_c, 0, 62, 0
9, 25150, Note_on_c, 0, 65, 0
9, 25536, Note_on_c, 0, 62, 110
9, 25536, Note_on_c, 0, 65, 110
9, 25696, Note_on_c, 0, 62, 0
9, 25696, Note_on_c, 0, 65, 0
9, 25824, Note_on_c, 0, 69, 110
9, 25824, Note_on_c, 0, 72, 110
9, 25918, Note_on_c, 0, 69, 0
9, 25918, Note_on_c, 0, 72, 0
9, 26112, Note_on_c, 0, 67, 110
9, 26112, Note_on_c, 0, 71, 110
9, 26206, Note_on_c, 0, 67, 0
9, 26206, Note_on_c, 0, 71, 0
9, 26208, Note_on_c, 0, 67, 110
9, 26208, Note_on_c, 0, 71, 110
9, 26302, Note_on_c, 0, 67, 0
9, 26302, Note_on_c, 0, 71, 0
9, 26400, Note_on_c, 0, 65, 110
9, 26400, Note_on_c, 0, 69, 110
9, 26494, Note_on_c, 0, 65, 0
9, 26494, Note_on_c, 0, 69, 0
9, 26592, Note_on_c, 0, 67, 110
9, 26592, Note_on_c, 0, 71, 110
9, 26848, Note_on_c, 0, 67, 0
9, 26848, Note_on_c, 0, 71, 0
9, 27072, Note_on_c, 0, 60, 110
9, 27072, Note_on_c, 0, 64, 110
9, 27232, Note_on_c, 0, 60, 0
9, 27232, Note_on_c, 0, 64, 0
9, 27360, Note_on_c, 0, 60, 110
9, 27360, Note_on_c, 0, 64, 110
9, 27454, Note_on_c, 0, 60, 0
9, 27454, Note_on_c, 0, 64, 0
9, 27840, Note_on_c, 0, 60, 110
9, 27840, Note_on_c, 0, 64, 110
9, 28000, Note_on_c, 0, 60, 0
9, 28000, Note_on_c, 0, 64, 0
9, 28128, Note_on_c, 0, 59, 110
9, 28128, Note_on_c, 0, 62, 110
9, 28222, Note_on_c, 0, 59, 0
9, 28222, Note_on_c, 0, 62, 0
9, 28608, Note_on_c, 0, 60, 110
9, 28608, Note_on_c, 0, 64, 110
9, 28768, Note_on_c, 0, 60, 0
9, 28768, Note_on_c, 0, 64, 0
9, 28896, Note_on_c, 0, 59, 110
9, 28896, Note_on_c, 0, 62, 110
9, 29152, Note_on_c, 0, 59, 0
9, 29152, Note_on_c, 0, 62, 0
9, 29184, Note_on_c, 0, 60, 110
9, 29184, Note_on_c, 0, 64, 110
9, 29278, Note_on_c, 0, 60, 0
9, 29278, Note_on_c, 0, 64, 0
9, 29280, Note_on_c, 0, 60, 110
9, 29280, Note_on_c, 0, 64, 110
9, 29374, Note_on_c, 0, 60, 0
9, 29374, Note_on_c, 0, 64, 0
9, 29472, Note_on_c, 0, 59, 110
9, 29472, Note_on_c, 0, 62, 110
9, 29566, Note_on_c, 0, 59, 0
9, 29566, Note_on_c, 0, 62, 0
9, 29664, Note_on_c, 0, 60, 110
9, 29664, Note_on_c, 0, 64, 110
9, 29920, Note_on_c, 0, 60, 0
9, 29920, Note_on_c, 0, 64, 0
9, 30144, Note_on_c, 0, 62, 110
9, 30144, Note_on_c, 0, 65, 110
9, 30304, Note_on_c, 0, 62, 0
9, 30304, Note_on_c, 0, 65, 0
9, 30432, Note_on_c, 0, 62, 110
9, 30432, Note_on_c, 0, 65, 110
9, 30526, Note_on_c, 0, 62, 0
9, 30526, Note_on_c, 0, 65, 0
9, 30912, Note_on_c, 0, 62, 110
9, 30912, Note_on_c, 0, 65, 110
9, 31072, Note_on_c, 0, 62, 0
9, 31072, Note_on_c, 0, 65, 0
9, 31200, Note_on_c, 0, 62, 110
9, 31200, Note_on_c, 0, 65, 110
9, 31294, Note_on_c, 0, 62, 0
9, 31294, Note_on_c, 0, 65, 0
9, 31680, Note_on_c, 0, 69, 110
9, 31680, Note_on_c, 0, 72, 110
9, 31840, Note_on_c, 0, 69, 0
9, 31840, Note_on_c, 0, 72, 0
9, 31968, Note_on_c, 0, 67, 110
9, 31968, Note_on_c, 0, 71, 110
9, 32224, Note_on_c, 0, 67, 0
9, 32224, Note_on_c, 0, 71, 0
9, 32352, Note_on_c, 0, 69, 110
9, 32352, Note_on_c, 0, 72, 110
9, 32352, Note_on_c, 0, 77, 110
9, 32608, Note_on_c, 0, 69, 0
9, 32608, Note_on_c, 0, 72, 0
9, 32608, Note_on_c, 0, 77, 0
9, 32640, Note_on_c, 0, 69, 110
9, 32640, Note_on_c, 0, 72, 110
9, 32640, Note_on_c, 0, 77, 110
9, 32800, Note_on_c, 0, 69, 0
9, 32800, Note_on_c, 0, 72, 0
9, 32800, Note_on_c, 0, 77, 0
9, 32832, Note_on_c, 0, 71, 110
9, 32832, Note_on_c, 0, 74, 110
9, 32832, Note_on_c, 0, 79, 110
9, 32992, Note_on_c, 0, 71, 0
9, 32992, Note_on_c, 0, 74, 0
9, 32992, Note_on_c, 0, 79, 0
9, 33024, Note_on_c, 0, 65, 110
9, 33024, Note_on_c, 0, 69, 110
9, 33360, Note_on_c, 0, 65, 0
9, 33360, Note_on_c, 0, 69, 0
9, 33408, Note_on_c, 0, 65, 110
9, 33408, Note_on_c, 0, 69, 110
9, 33502, Note_on_c, 0, 65, 0
9, 33502, Note_on_c, 0, 69, 0
9, 33504, Note_on_c, 0, 67, 110
9, 33504, Note_on_c, 0, 71, 110
9, 33694, Note_on_c, 0, 67, 0
9, 33694, Note_on_c, 0, 71, 0
9, 33696, Note_on_c, 0, 69, 110
9, 33696, Note_on_c, 0, 72, 110
9, 33886, Note_on_c, 0, 69, 0
9, 33886, Note_on_c, 0, 72, 0
9, 33888, Note_on_c, 0, 67, 110
9, 33888, Note_on_c, 0, 71, 110
9, 34144, Note_on_c, 0, 67, 0
9, 34144, Note_on_c, 0, 71, 0
9, 34176, Note_on_c, 0, 67, 110
9, 34176, Note_on_c, 0, 71, 110
9, 34176, Note_on_c, 0, 74, 110
9, 34318, Note_on_c, 0, 67, 0
9, 34318, Note_on_c, 0, 71, 0
9, 34318, Note_on_c, 0, 74, 0
9, 34320, Note_on_c, 0, 69, 110
9, 34320, Note_on_c, 0, 72, 110
9, 34320, Note_on_c, 0, 76, 110
9, 34462, Note_on_c, 0, 69, 0
9, 34462, Note_on_c, 0, 72, 0
9, 34462, Note_on_c, 0, 76, 0
9, 34464, Note_on_c, 0, 71, 110
9, 34464, Note_on_c, 0, 74, 110
9, 34464, Note_on_c, 0, 77, 110
9, 34558, Note_on_c, 0, 71, 0
9, 34558, Note_on_c, 0, 74, 0
9, 34558, Note_on_c, 0, 77, 0
9, 34560, Note_on_c, 0, 71, 110
9, 34560, Note_on_c, 0, 74, 110
9, 34560, Note_on_c, 0, 79, 110
9, 34702, Note_on_c, 0, 71, 0
9, 34702, Note_on_c, 0, 74, 0
9, 34702, Note_on_c, 0, 79, 0
9, 34704, Note_on_c, 0, 69, 110
9, 34704, Note_on_c, 0, 72, 110
9, 34704, Note_on_c, 0, 77, 110
9, 34846, Note_on_c, 0, 69, 0
9, 34846, Note_on_c, 0, 72, 0
9, 34846, Note_on_c, 0, 77, 0
9, 34848, Note_on_c, 0, 67, 110
9, 34848, Note_on_c, 0, 72, 110
9, 34848, Note_on_c, 0, 76, 110
9, 34942, Note_on_c, 0, 67, 0
9, 34942, Note_on_c, 0, 72, 0
9, 34942, Note_on_c, 0, 76, 0
9, 34992, Note_on_c, 0, 69, 110
9, 34992, Note_on_c, 0, 72, 110
9, 34992, Note_on_c, 0, 77, 110
9, 35134, Note_on_c, 0, 69, 0
9, 35134, Note_on_c, 0, 72, 0
9, 35134, Note_on_c, 0, 77, 0
9, 35136, Note_on_c, 0, 69, 110
9, 35136, Note_on_c, 0, 72, 110
9, 35136, Note_on_c, 0, 76, 110
9, 35278, Note_on_c, 0, 69, 0
9, 35278, Note_on_c, 0, 72, 0
9, 35278, Note_on_c, 0, 76, 0
9, 35280, Note_on_c, 0, 67, 110
9, 35280, Note_on_c, 0, 71, 110
9, 35280, Note_on_c, 0, 72, 110
9, 35280, Note_on_c, 0, 74, 110
9, 35326, Note_on_c, 0, 67, 0
9, 35326, Note_on_c, 0, 71, 0
9, 35326, Note_on_c, 0, 72, 0
9, 35326, Note_on_c, 0, 74, 0
9, 35376, Note_on_c, 0, 67, 110
9, 35376, Note_on_c, 0, 71, 110
9, 35376, Note_on_c, 0, 74, 110
9, 35518, Note_on_c, 0, 67, 0
9, 35518, Note_on_c, 0, 71, 0
9, 35518, Note_on_c, 0, 74, 0
9, 35568, Note_on_c, 0, 65, 110
9, 35568, Note_on_c, 0, 69, 110
9, 35568, Note_on_c, 0, 72, 110
9, 36048, Note_on_c, 0, 65, 0
9, 36048, Note_on_c, 0, 69, 0
9, 36048, Note_on_c, 0, 72, 0
9, 36768, Note_on_c, 0, 69, 110
9, 36768, Note_on_c, 0, 72, 110
9, 36768, Note_on_c, 0, 77, 110
9, 37584, Note_on_c, 0, 69, 0
9, 37584, Note_on_c, 0, 72, 0
9, 37584, Note_on_c, 0, 77, 0
9, 37824, Note_on_c, 0, 69, 110
9, 37824, Note_on_c, 0, 74, 110
9, 37824, Note_on_c, 0, 77, 110
9, 37984, Note_on_c, 0, 69, 0
9, 37984, Note_on_c, 0, 74, 0
9, 37984, Note_on_c, 0, 77, 0
9, 38112, Note_on_c, 0, 69, 110
9, 38112, Note_on_c, 0, 74, 110
9, 38112, Note_on_c, 0, 77, 110
9, 38206, Note_on_c, 0, 69, 0
9, 38206, Note_on_c, 0, 74, 0
9, 38206, Note_on_c, 0, 77, 0
9, 38592, Note_on_c, 0, 69, 110
9, 38592, Note_on_c, 0, 74, 110
9, 38592, Note_on_c, 0, 77, 110
9, 38752, Note_on_c, 0, 69, 0
9, 38752, Note_on_c, 0, 74, 0
9, 38752, Note_on_c, 0, 77, 0
9, 38880, Note_on_c, 0, 69, 110
9, 38880, Note_on_c, 0, 74, 110
9, 38880, Note_on_c, 0, 77, 110
9, 38974, Note_on_c, 0, 69, 0
9, 38974, Note_on_c, 0, 74, 0
9, 38974, Note_on_c, 0, 77, 0
9, 39360, Note_on_c, 0, 71, 110
9, 39360, Note_on_c, 0, 74, 110
9, 39360, Note_on_c, 0, 79, 110
9, 39520, Note_on_c, 0, 71, 0
9, 39520, Note_on_c, 0, 74, 0
9, 39520, Note_on_c, 0, 79, 0
9, 39648, Note_on_c, 0, 71, 110
9, 39648, Note_on_c, 0, 74, 110
9, 39648, Note_on_c, 0, 79, 110
9, 39742, Note_on_c, 0, 71, 0
9, 39742, Note_on_c, 0, 74, 0
9, 39742, Note_on_c, 0, 79, 0
9, 39984, Note_on_c, 0, 69, 110
9, 39984, Note_on_c, 0, 72, 110
9, 39984, Note_on_c, 0, 77, 110
9, 40078, Note_on_c, 0, 69, 0
9, 40078, Note_on_c, 0, 72, 0
9, 40078, Note_on_c, 0, 77, 0
9, 40080, Note_on_c, 0, 69, 110
9, 40080, Note_on_c, 0, 72, 110
9, 40080, Note_on_c, 0, 77, 110
9, 40126, Note_on_c, 0, 69, 0
9, 40126, Note_on_c, 0, 72, 0
9, 40126, Note_on_c, 0, 77, 0
9, 40176, Note_on_c, 0, 71, 110
9, 40176, Note_on_c, 0, 74, 110
9, 40176, Note_on_c, 0, 79, 110
9, 40270, Note_on_c, 0, 71, 0
9, 40270, Note_on_c, 0, 74, 0
9, 40270, Note_on_c, 0, 79, 0
9, 40272, Note_on_c, 0, 71, 110
9, 40272, Note_on_c, 0, 74, 110
9, 40272, Note_on_c, 0, 79, 110
9, 40480, Note_on_c, 0, 71, 0
9, 40480, Note_on_c, 0, 74, 0
9, 40480, Note_on_c, 0, 79, 0
9, 40896, Note_on_c, 0, 60, 110
9, 40896, Note_on_c, 0, 64, 110
9, 41056, Note_on_c, 0, 60, 0
9, 41056, Note_on_c, 0, 64, 0
9, 41184, Note_on_c, 0, 60, 110
9, 41184, Note_on_c, 0, 64, 110
9, 41278, Note_on_c, 0, 60, 0
9, 41278, Note_on_c, 0, 64, 0
9, 41664, Note_on_c, 0, 60, 110
9, 41664, Note_on_c, 0, 64, 110
9, 41824, Note_on_c, 0, 60, 0
9, 41824, Note_on_c, 0, 64, 0
9, 41952, Note_on_c, 0, 59, 110
9, 41952, Note_on_c, 0, 62, 110
9, 42046, Note_on_c, 0, 59, 0
9, 42046, Note_on_c, 0, 62, 0
9, 42432, Note_on_c, 0, 60, 110
9, 42432, Note_on_c, 0, 64, 110
9, 42592, Note_on_c, 0, 60, 0
9, 42592, Note_on_c, 0, 64, 0
9, 42720, Note_on_c, 0, 59, 110
9, 42720, Note_on_c, 0, 62, 110
9, 42976, Note_on_c, 0, 59, 0
9, 42976, Note_on_c, 0, 62, 0
9, 43008, Note_on_c, 0, 60, 110
9, 43008, Note_on_c, 0, 64, 110
9, 43102, Note_on_c, 0, 60, 0
9, 43102, Note_on_c, 0, 64, 0
9, 43104, Note_on_c, 0, 60, 110
9, 43104, Note_on_c, 0, 64, 110
9, 43198, Note_on_c, 0, 60, 0
9, 43198, Note_on_c, 0, 64, 0
9, 43296, Note_on_c, 0, 59, 110
9, 43296, Note_on_c, 0, 62, 110
9, 43390, Note_on_c, 0, 59, 0
9, 43390, Note_on_c, 0, 62, 0
9, 43488, Note_on_c, 0, 60, 110
9, 43488, Note_on_c, 0, 64, 110
9, 43744, Note_on_c, 0, 60, 0
9, 43744, Note_on_c, 0, 64, 0
9, 43968, Note_on_c, 0, 62, 110
9, 43968, Note_on_c, 0, 65, 110
9, 44128, Note_on_c, 0, 62, 0
9, 44128, Note_on_c, 0, 65, 0
9, 44256, Note_on_c, 0, 62, 110
9, 44256, Note_on_c, 0, 65, 110
9, 44350, Note_on_c, 0, 62, 0
9, 44350, Note_on_c, 0, 65, 0
9, 44736, Note_on_c, 0, 62, 110
9, 44736, Note_on_c, 0, 65, 110
9, 44896, Note_on_c, 0, 62, 0
9, 44896, Note_on_c, 0, 65, 0
9, 45024, Note_on_c, 0, 62, 110
9, 45024, Note_on_c, 0, 65, 110
9, 45118, Note_on_c, 0, 62, 0
9, 45118, Note_on_c, 0, 65, 0
9, 45504, Note_on_c, 0, 62, 110
9, 45504, Note_on_c, 0, 65, 110
9, 45664, Note_on_c, 0, 62, 0
9, 45664, Note_on_c, 0, 65, 0
9, 45792, Note_on_c, 0, 69, 110
9, 45792, Note_on_c, 0, 72, 110
9, 45886, Note_on_c, 0, 69, 0
9, 45886, Note_on_c, 0, 72, 0
9, 46080, Note_on_c, 0, 67, 110
9, 46080, Note_on_c, 0, 71, 110
9, 46174, Note_on_c, 0, 67, 0
9, 46174, Note_on_c, 0, 71, 0
9, 46176, Note_on_c, 0, 67, 110
9, 46176, Note_on_c, 0, 71, 110
9, 46270, Note_on_c, 0, 67, 0
9, 46270, Note_on_c, 0, 71, 0
9, 46368, Note_on_c, 0, 65, 110
9, 46368, Note_on_c, 0, 69, 110
9, 46462, Note_on_c, 0, 65, 0
9, 46462, Note_on_c, 0, 69, 0
9, 46560, Note_on_c, 0, 67, 110
9, 46560, Note_on_c, 0, 71, 110
9, 46816, Note_on_c, 0, 67, 0
9, 46816, Note_on_c, 0, 71, 0
9, 47040, Note_on_c, 0, 60, 110
9, 47040, Note_on_c, 0, 64, 110
9, 47200, Note_on_c, 0, 60, 0
9, 47200, Note_on_c, 0, 64, 0
9, 47328, Note_on_c, 0, 60, 110
9, 47328, Note_on_c, 0, 64, 110
9, 47422, Note_on_c, 0, 60, 0
9, 47422, Note_on_c, 0, 64, 0
9, 47808, Note_on_c, 0, 60, 110
9, 47808, Note_on_c, 0, 64, 110
9, 47968, Note_on_c, 0, 60, 0
9, 47968, Note_on_c, 0, 64, 0
9, 48096, Note_on_c, 0, 59, 110
9, 48096, Note_on_c, 0, 62, 110
9, 48190, Note_on_c, 0, 59, 0
9, 48190, Note_on_c, 0, 62, 0
9, 48576, Note_on_c, 0, 60, 110
9, 48576, Note_on_c, 0, 64, 110
9, 48736, Note_on_c, 0, 60, 0
9, 48736, Note_on_c, 0, 64, 0
9, 48864, Note_on_c, 0, 59, 110
9, 48864, Note_on_c, 0, 62, 110
9, 49120, Note_on_c, 0, 59, 0
9, 49120, Note_on_c, 0, 62, 0
9, 49152, Note_on_c, 0, 60, 110
9, 49152, Note_on_c, 0, 64, 110
9, 49246, Note_on_c, 0, 60, 0
9, 49246, Note_on_c, 0, 64, 0
9, 49248, Note_on_c, 0, 60, 110
9, 49248, Note_on_c, 0, 64, 110
9, 49342, Note_on_c, 0, 60, 0
9, 49342, Note_on_c, 0, 64, 0
9, 49440, Note_on_c, 0, 59, 110
9, 49440, Note_on_c, 0, 62, 110
9, 49534, Note_on_c, 0, 59, 0
9, 49534, Note_on_c, 0, 62, 0
9, 49632, Note_on_c, 0, 60, 110
9, 49632, Note_on_c, 0, 64, 110
9, 49888, Note_on_c, 0, 60, 0
9, 49888, Note_on_c, 0, 64, 0
9, 50112, Note_on_c, 0, 62, 110
9, 50112, Note_on_c, 0, 65, 110
9, 50272, Note_on_c, 0, 62, 0
9, 50272, Note_on_c, 0, 65, 0
9, 50400, Note_on_c, 0, 62, 110
9, 50400, Note_on_c, 0, 65, 110
9, 50494, Note_on_c, 0, 62, 0
9, 50494, Note_on_c, 0, 65, 0
9, 50880, Note_on_c, 0, 62, 110
9, 50880, Note_on_c, 0, 65, 110
9, 51040, Note_on_c, 0, 62, 0
9, 51040, Note_on_c, 0, 65, 0
9, 51168, Note_on_c, 0, 62, 110
9, 51168, Note_on_c, 0, 65, 110
9, 51262, Note_on_c, 0, 62, 0
9, 51262, Note_on_c, 0, 65, 0
9, 51648, Note_on_c, 0, 69, 110
9, 51648, Note_on_c, 0, 72, 110
9, 51808, Note_on_c, 0, 69, 0
9, 51808, Note_on_c, 0, 72, 0
9, 51936, Note_on_c, 0, 67, 110
9, 51936, Note_on_c, 0, 71, 110
9, 52192, Note_on_c, 0, 67, 0
9, 52192, Note_on_c, 0, 71, 0
9, 52320, Note_on_c, 0, 69, 110
9, 52320, Note_on_c, 0, 72, 110
9, 52320, Note_on_c, 0, 77, 110
9, 52414, Note_on_c, 0, 69, 0
9, 52414, Note_on_c, 0, 72, 0
9, 52414, Note_on_c, 0, 77, 0
9, 52416, Note_on_c, 0, 69, 110
9, 52416, Note_on_c, 0, 72, 110
9, 52416, Note_on_c, 0, 77, 110
9, 52510, Note_on_c, 0, 69, 0
9, 52510, Note_on_c, 0, 72, 0
9, 52510, Note_on_c, 0, 77, 0
9, 52512, Note_on_c, 0, 71, 110
9, 52512, Note_on_c, 0, 74, 110
9, 52512, Note_on_c, 0, 79, 110
9, 52606, Note_on_c, 0, 71, 0
9, 52606, Note_on_c, 0, 74, 0
9, 52606, Note_on_c, 0, 79, 0
9, 52608, Note_on_c, 0, 71, 110
9, 52608, Note_on_c, 0, 74, 110
9, 52608, Note_on_c, 0, 79, 110
9, 52768, Note_on_c, 0, 71, 0
9, 52768, Note_on_c, 0, 74, 0
9, 52768, Note_on_c, 0, 79, 0
9, 64608, Note_on_c, 0, 69, 110
9, 64608, Note_on_c, 0, 72, 110
9, 64608, Note_on_c, 0, 77, 110
9, 64864, Note_on_c, 0, 69, 0
9, 64864, Note_on_c, 0, 72, 0
9, 64864, Note_on_c, 0, 77, 0
9, 64896, Note_on_c, 0, 69, 110
9, 64896, Note_on_c, 0, 72, 110
9, 64896, Note_on_c, 0, 77, 110
9, 65056, Note_on_c, 0, 69, 0
9, 65056, Note_on_c, 0, 72, 0
9, 65056, Note_on_c, 0, 77, 0
9, 65088, Note_on_c, 0, 71, 110
9, 65088, Note_on_c, 0, 74, 110
9, 65088, Note_on_c, 0, 79, 110
9, 65248, Note_on_c, 0, 71, 0
9, 65248, Note_on_c, 0, 74, 0
9, 65248, Note_on_c, 0, 79, 0
9, 65280, Note_on_c, 0, 65, 110
9, 65280, Note_on_c, 0, 69, 110
9, 65616, Note_on_c, 0, 65, 0
9, 65616, Note_on_c, 0, 69, 0
9, 65664, Note_on_c, 0, 65, 110
9, 65664, Note_on_c, 0, 69, 110
9, 65758, Note_on_c, 0, 65, 0
9, 65758, Note_on_c, 0, 69, 0
9, 65760, Note_on_c, 0, 67, 110
9, 65760, Note_on_c, 0, 71, 110
9, 65950, Note_on_c, 0, 67, 0
9, 65950, Note_on_c, 0, 71, 0
9, 65952, Note_on_c, 0, 69, 110
9, 65952, Note_on_c, 0, 72, 110
9, 66142, Note_on_c, 0, 69, 0
9, 66142, Note_on_c, 0, 72, 0
9, 66144, Note_on_c, 0, 67, 110
9, 66144, Note_on_c, 0, 71, 110
9, 66400, Note_on_c, 0, 67, 0
9, 66400, Note_on_c, 0, 71, 0
9, 66432, Note_on_c, 0, 67, 110
9, 66432, Note_on_c, 0, 71, 110
9, 66432, Note_on_c, 0, 74, 110
9, 66574, Note_on_c, 0, 67, 0
9, 66574, Note_on_c, 0, 71, 0
9, 66574, Note_on_c, 0, 74, 0
9, 66576, Note_on_c, 0, 69, 110
9, 66576, Note_on_c, 0, 72, 110
9, 66576, Note_on_c, 0, 76, 110
9, 66718, Note_on_c, 0, 69, 0
9, 66718, Note_on_c, 0, 72, 0
9, 66718, Note_on_c, 0, 76, 0
9, 66720, Note_on_c, 0, 71, 110
9, 66720, Note_on_c, 0, 74, 110
9, 66720, Note_on_c, 0, 77, 110
9, 66814, Note_on_c, 0, 71, 0
9, 66814, Note_on_c, 0, 74, 0
9, 66814, Note_on_c, 0, 77, 0
9, 66816, Note_on_c, 0, 71, 110
9, 66816, Note_on_c, 0, 74, 110
9, 66816, Note_on_c, 0, 79, 110
9, 66958, Note_on_c, 0, 71, 0
9, 66958, Note_on_c, 0, 74, 0
9, 66958, Note_on_c, 0, 79, 0
9, 66960, Note_on_c, 0, 69, 110
9, 66960, Note_on_c, 0, 72, 110
9, 66960, Note_on_c, 0, 77, 110
9, 67102, Note_on_c, 0, 69, 0
9, 67102, Note_on_c, 0, 72, 0
9, 67102, Note_on_c, 0, 77, 0
9, 67104, Note_on_c, 0, 67, 110
9, 67104, Note_on_c, 0, 72, 110
9, 67104, Note_on_c, 0, 76, 110
9, 67198, Note_on_c, 0, 67, 0
9, 67198, Note_on_c, 0, 72, 0
9, 67198, Note_on_c, 0, 76, 0
9, 67248, Note_on_c, 0, 69, 110
9, 67248, Note_on_c, 0, 72, 110
9, 67248, Note_on_c, 0, 77, 110
9, 67390, Note_on_c, 0, 69, 0
9, 67390, Note_on_c, 0, 72, 0
9, 67390, Note_on_c, 0, 77, 0
9, 67392, Note_on_c, 0, 69, 110
9, 67392, Note_on_c, 0, 72, 110
9, 67392, Note_on_c, 0, 76, 110
9, 67534, Note_on_c, 0, 69, 0
9, 67534, Note_on_c, 0, 72, 0
9, 67534, Note_on_c, 0, 76, 0
9, 67536, Note_on_c, 0, 67, 110
9, 67536, Note_on_c, 0, 71, 110
9, 67536, Note_on_c, 0, 72, 110
9, 67536, Note_on_c, 0, 74, 110
9, 67582, Note_on_c, 0, 67, 0
9, 67582, Note_on_c, 0, 71, 0
9, 67582, Note_on_c, 0, 72, 0
9, 67582, Note_on_c, 0, 74, 0
9, 67632, Note_on_c, 0, 67, 110
9, 67632, Note_on_c, 0, 71, 110
9, 67632, Note_on_c, 0, 74, 110
9, 67774, Note_on_c, 0, 67, 0
9, 67774, Note_on_c, 0, 71, 0
9, 67774, Note_on_c, 0, 74, 0
9, 67824, Note_on_c, 0, 65, 110
9, 67824, Note_on_c, 0, 69, 110
9, 67824, Note_on_c, 0, 72, 110
9, 68304, Note_on_c, 0, 65, 0
9, 68304, Note_on_c, 0, 69, 0
9, 68304, Note_on_c, 0, 72, 0
9, 69024, Note_on_c, 0, 69, 110
9, 69024, Note_on_c, 0, 72, 110
9, 69024, Note_on_c, 0, 77, 110
9, 69840, Note_on_c, 0, 69, 0
9, 69840, Note_on_c, 0, 72, 0
9, 69840, Note_on_c, 0, 77, 0
9, 70080, Note_on_c, 0, 69, 110
9, 70080, Note_on_c, 0, 74, 110
9, 70080, Note_on_c, 0, 77, 110
9, 70240, Note_on_c, 0, 69, 0
9, 70240, Note_on_c, 0, 74, 0
9, 70240, Note_on_c, 0, 77, 0
9, 70368, Note_on_c, 0, 69, 110
9, 70368, Note_on_c, 0, 74, 110
9, 70368, Note_on_c, 0, 77, 110
9, 70462, Note_on_c, 0, 69, 0
9, 70462, Note_on_c, 0, 74, 0
9, 70462, Note_on_c, 0, 77, 0
9, 70848, Note_on_c, 0, 69, 110
9, 70848, Note_on_c, 0, 74, 110
9, 70848, Note_on_c, 0, 77, 110
9, 71008, Note_on_c, 0, 69, 0
9, 71008, Note_on_c, 0, 74, 0
9, 71008, Note_on_c, 0, 77, 0
9, 71136, Note_on_c, 0, 69, 110
9, 71136, Note_on_c, 0, 74, 110
9, 71136, Note_on_c, 0, 77, 110
9, 71230, Note_on_c, 0, 69, 0
9, 71230, Note_on_c, 0, 74, 0
9, 71230, Note_on_c, 0, 77, 0
9, 71520, Note_on_c, 0, 71, 110
9, 71520, Note_on_c, 0, 74, 110
9, 71520, Note_on_c, 0, 79, 110
9, 71614, Note_on_c, 0, 71, 0
9, 71614, Note_on_c, 0, 74, 0
9, 71614, Note_on_c, 0, 79, 0
9, 71616, Note_on_c, 0, 71, 110
9, 71616, Note_on_c, 0, 74, 110
9, 71616, Note_on_c, 0, 79, 110
9, 71776, Note_on_c, 0, 71, 0
9, 71776, Note_on_c, 0, 74, 0
9, 71776, Note_on_c, 0, 79, 0
9, 71808, Note_on_c, 0, 71, 110
9, 71808, Note_on_c, 0, 74, 110
9, 71808, Note_on_c, 0, 79, 110
9, 71902, Note_on_c, 0, 71, 0
9, 71902, Note_on_c, 0, 74, 0
9, 71902, Note_on_c, 0, 79, 0
9, 71904, Note_on_c, 0, 71, 110
9, 71904, Note_on_c, 0, 74, 110
9, 71904, Note_on_c, 0, 79, 110
9, 71998, Note_on_c, 0, 71, 0
9, 71998, Note_on_c, 0, 74, 0
9, 71998, Note_on_c, 0, 79, 0
9, 72096, Note_on_c, 0, 71, 110
9, 72096, Note_on_c, 0, 74, 110
9, 72096, Note_on_c, 0, 79, 110
9, 72190, Note_on_c, 0, 71, 0
9, 72190, Note_on_c, 0, 74, 0
9, 72190, Note_on_c, 0, 79, 0
9, 72288, Note_on_c, 0, 69, 110
9, 72288, Note_on_c, 0, 72, 110
9, 72288, Note_on_c, 0, 77, 110
9, 72382, Note_on_c, 0, 69, 0
9, 72382, Note_on_c, 0, 72, 0
9, 72382, Note_on_c, 0, 77, 0
9, 72384, Note_on_c, 0, 69, 110
9, 72384, Note_on_c, 0, 72, 110
9, 72384, Note_on_c, 0, 77, 110
9, 72478, Note_on_c, 0, 69, 0
9, 72478, Note_on_c, 0, 72, 0
9, 72478, Note_on_c, 0, 77, 0
9, 72480, Note_on_c, 0, 71, 110
9, 72480, Note_on_c, 0, 74, 110
9, 72480, Note_on_c, 0, 79, 110
9, 72574, Note_on_c, 0, 71, 0
9, 72574, Note_on_c, 0, 74, 0
9, 72574, Note_on_c, 0, 79, 0
9, 72576, Note_on_c, 0, 71, 110
9, 72576, Note_on_c, 0, 74, 110
9, 72576, Note_on_c, 0, 79, 110
9, 72736, Note_on_c, 0, 71, 0
9, 72736, Note_on_c, 0, 74, 0
9, 72736, Note_on_c, 0, 79, 0
9, 79296, Note_on_c, 0, 61, 110
9, 79296, Note_on_c, 0, 65, 110
9, 79456, Note_on_c, 0, 61, 0
9, 79456, Note_on_c, 0, 65, 0
9, 79584, Note_on_c, 0, 61, 110
9, 79584, Note_on_c, 0, 65, 110
9, 79678, Note_on_c, 0, 61, 0
9, 79678, Note_on_c, 0, 65, 0
9, 80064, Note_on_c, 0, 61, 110
9, 80064, Note_on_c, 0, 65, 110
9, 80224, Note_on_c, 0, 61, 0
9, 80224, Note_on_c, 0, 65, 0
9, 80352, Note_on_c, 0, 60, 110
9, 80352, Note_on_c, 0, 63, 110
9, 80446, Note_on_c, 0, 60, 0
9, 80446, Note_on_c, 0, 63, 0
9, 80832, Note_on_c, 0, 61, 110
9, 80832, Note_on_c, 0, 65, 110
9, 80992, Note_on_c, 0, 61, 0
9, 80992, Note_on_c, 0, 65, 0
9, 81120, Note_on_c, 0, 60, 110
9, 81120, Note_on_c, 0, 63, 110
9, 81376, Note_on_c, 0, 60, 0
9, 81376, Note_on_c, 0, 63, 0
9, 81408, Note_on_c, 0, 61, 110
9, 81408, Note_on_c, 0, 65, 110
9, 81502, Note_on_c, 0, 61, 0
9, 81502, Note_on_c, 0, 65, 0
9, 81504, Note_on_c, 0, 61, 110
9, 81504, Note_on_c, 0, 65, 110
9, 81598, Note_on_c, 0, 61, 0
9, 81598, Note_on_c, 0, 65, 0
9, 81696, Note_on_c, 0, 60, 110
9, 81696, Note_on_c, 0, 63, 110
9, 81790, Note_on_c, 0, 60, 0
9, 81790, Note_on_c, 0, 63, 0
9, 81888, Note_on_c, 0, 61, 110
9, 81888, Note_on_c, 0, 65, 110
9, 82144, Note_on_c, 0, 61, 0
9, 82144, Note_on_c, 0, 65, 0
9, 82368, Note_on_c, 0, 63, 110
9, 82368, Note_on_c, 0, 66, 110
9, 82528, Note_on_c, 0, 63, 0
9, 82528, Note_on_c, 0, 66, 0
9, 82656, Note_on_c, 0, 63, 110
9, 82656, Note_on_c, 0, 66, 110
9, 82750, Note_on_c, 0, 63, 0
9, 82750, Note_on_c, 0, 66, 0
9, 83136, Note_on_c, 0, 63, 110
9, 83136, Note_on_c, 0, 66, 110
9, 83296, Note_on_c, 0, 63, 0
9, 83296, Note_on_c, 0, 66, 0
9, 83424, Note_on_c, 0, 63, 110
9, 83424, Note_on_c, 0, 66, 110
9, 83518, Note_on_c, 0, 63, 0
9, 83518, Note_on_c, 0, 66, 0
9, 83904, Note_on_c, 0, 63, 110
9, 83904, Note_on_c, 0, 66, 110
9, 84064, Note_on_c, 0, 63, 0
9, 84064, Note_on_c, 0, 66, 0
9, 84192, Note_on_c, 0, 70, 110
9, 84192, Note_on_c, 0, 73, 110
9, 84286, Note_on_c, 0, 70, 0
9, 84286, Note_on_c, 0, 73, 0
9, 84480, Note_on_c, 0, 68, 110
9, 84480, Note_on_c, 0, 72, 110
9, 84574, Note_on_c, 0, 68, 0
9, 84574, Note_on_c, 0, 72, 0
9, 84576, Note_on_c, 0, 68, 110
9, 84576, Note_on_c, 0, 72, 110
9, 84670, Note_on_c, 0, 68, 0
9, 84670, Note_on_c, 0, 72, 0
9, 84768, Note_on_c, 0, 66, 110
9, 84768, Note_on_c, 0, 70, 110
9, 84862, Note_on_c, 0, 66, 0
9, 84862, Note_on_c, 0, 70, 0
9, 84960, Note_on_c, 0, 68, 110
9, 84960, Note_on_c, 0, 72, 110
9, 85216, Note_on_c, 0, 68, 0
9, 85216, Note_on_c, 0, 72, 0
9, 85440, Note_on_c, 0, 61, 110
9, 85440, Note_on_c, 0, 65, 110
9, 85600, Note_on_c, 0, 61, 0
9, 85600, Note_on_c, 0, 65, 0
9, 85728, Note_on_c, 0, 61, 110
9, 85728, Note_on_c, 0, 65, 110
9, 85822, Note_on_c, 0, 61, 0
9, 85822, Note_on_c, 0, 65, 0
9, 86208, Note_on_c, 0, 61, 110
9, 86208, Note_on_c, 0, 65, 110
9, 86368, Note_on_c, 0, 61, 0
9, 86368, Note_on_c, 0, 65, 0
9, 86496, Note_on_c, 0, 60, 110
9, 86496, Note_on_c, 0, 63, 110
9, 86590, Note_on_c, 0, 60, 0
9, 86590, Note_on_c, 0, 63, 0
9, 86976, Note_on_c, 0, 61, 110
9, 86976, Note_on_c, 0, 65, 110
9, 87136, Note_on_c, 0, 61, 0
9, 87136, Note_on_c, 0, 65, 0
9, 87264, Note_on_c, 0, 60, 110
9, 87264, Note_on_c, 0, 63, 110
9, 87520, Note_on_c, 0, 60, 0
9, 87520, Note_on_c, 0, 63, 0
9, 87552, Note_on_c, 0, 61, 110
9, 87552, Note_on_c, 0, 65, 110
9, 87646, Note_on_c, 0, 61, 0
9, 87646, Note_on_c, 0, 65, 0
9, 87648, Note_on_c, 0, 61, 110
9, 87648, Note_on_c, 0, 65, 110
9, 87742, Note_on_c, 0, 61, 0
9, 87742, Note_on_c, 0, 65, 0
9, 87840, Note_on_c, 0, 60, 110
9, 87840, Note_on_c, 0, 63, 110
9, 87934, Note_on_c, 0, 60, 0
9, 87934, Note_on_c, 0, 63, 0
9, 88032, Note_on_c, 0, 61, 110
9, 88032, Note_on_c, 0, 65, 110
9, 88288, Note_on_c, 0, 61, 0
9, 88288, Note_on_c, 0, 65, 0
9, 88512, Note_on_c, 0, 63, 110
9, 88512, Note_on_c, 0, 66, 110
9, 88672, Note_on_c, 0, 63, 0
9, 88672, Note_on_c, 0, 66, 0
9, 88800, Note_on_c, 0, 63, 110
9, 88800, Note_on_c, 0, 66, 110
9, 88894, Note_on_c, 0, 63, 0
9, 88894, Note_on_c, 0, 66, 0
9, 89280, Note_on_c, 0, 63, 110
9, 89280, Note_on_c, 0, 66, 110
9, 89440, Note_on_c, 0, 63, 0
9, 89440, Note_on_c, 0, 66, 0
9, 89568, Note_on_c, 0, 63, 110
9, 89568, Note_on_c, 0, 66, 110
9, 89662, Note_on_c, 0, 63, 0
9, 89662, Note_on_c, 0, 66, 0
9, 90048, Note_on_c, 0, 70, 110
9, 90048, Note_on_c, 0, 73, 110
9, 90208, Note_on_c, 0, 70, 0
9, 90208, Note_on_c, 0, 73, 0
9, 90336, Note_on_c, 0, 68, 110
9, 90336, Note_on_c, 0, 72, 110
9, 90592, Note_on_c, 0, 68, 0
9, 90592, Note_on_c, 0, 72, 0
9, 90720, Note_on_c, 0, 70, 110
9, 90720, Note_on_c, 0, 73, 110
9, 90720, Note_on_c, 0, 78, 110
9, 90814, Note_on_c, 0, 70, 0
9, 90814, Note_on_c, 0, 73, 0
9, 90814, Note_on_c, 0, 78, 0
9, 90816, Note_on_c, 0, 70, 110
9, 90816, Note_on_c, 0, 73, 110
9, 90816, Note_on_c, 0, 78, 110
9, 90910, Note_on_c, 0, 70, 0
9, 90910, Note_on_c, 0, 73, 0
9, 90910, Note_on_c, 0, 78, 0
9, 90912, Note_on_c, 0, 72, 110
9, 90912, Note_on_c, 0, 75, 110
9, 90912, Note_on_c, 0, 80, 110
9, 91006, Note_on_c, 0, 72, 0
9, 91006, Note_on_c, 0, 75, 0
9, 91006, Note_on_c, 0, 80, 0
9, 91008, Note_on_c, 0, 72, 110
9, 91008, Note_on_c, 0, 75, 110
9, 91008, Note_on_c, 0, 80, 110
9, 91168, Note_on_c, 0, 72, 0
9, 91168, Note_on_c, 0, 75, 0
9, 91168, Note_on_c, 0, 80, 0
9, 91392, Note_on_c, 0, 61, 110
9, 91450, Note_on_c, 0, 61, 0
9, 91452, Note_on_c, 0, 56, 110
9, 91522, Note_on_c, 0, 56, 0
9, 91524, Note_on_c, 0, 61, 110
9, 91582, Note_on_c, 0, 61, 0
9, 91584, Note_on_c, 0, 63, 110
9, 91642, Note_on_c, 0, 63, 0
9, 91644, Note_on_c, 0, 61, 110
9, 91714, Note_on_c, 0, 61, 0
9, 91716, Note_on_c, 0, 63, 110
9, 91774, Note_on_c, 0, 63, 0
9, 91776, Note_on_c, 0, 68, 110
9, 91936, Note_on_c, 0, 68, 0
9, 91968, Note_on_c, 0, 66, 110
9, 92128, Note_on_c, 0, 66, 0
9, 92160, Note_on_c, 0, 65, 110
9, 92218, Note_on_c, 0, 65, 0
9, 92220, Note_on_c, 0, 63, 110
9, 92290, Note_on_c, 0, 63, 0
9, 92292, Note_on_c, 0, 61, 110
9, 92350, Note_on_c, 0, 61, 0
9, 92352, Note_on_c, 0, 63, 110
9, 92482, Note_on_c, 0, 63, 0
9, 92484, Note_on_c, 0, 65, 110
9, 92542, Note_on_c, 0, 65, 0
9, 92544, Note_on_c, 0, 61, 110
9, 92880, Note_on_c, 0, 61, 0
9, 92928, Note_on_c, 0, 61, 110
9, 92986, Note_on_c, 0, 61, 0
9, 92988, Note_on_c, 0, 56, 110
9, 93058, Note_on_c, 0, 56, 0
9, 93060, Note_on_c, 0, 61, 110
9, 93118, Note_on_c, 0, 61, 0
9, 93120, Note_on_c, 0, 63, 110
9, 93178, Note_on_c, 0, 63, 0
9, 93180, Note_on_c, 0, 61, 110
9, 93250, Note_on_c, 0, 61, 0
9, 93252, Note_on_c, 0, 63, 110
9, 93310, Note_on_c, 0, 63, 0
9, 93312, Note_on_c, 0, 68, 110
9, 93472, Note_on_c, 0, 68, 0
9, 93504, Note_on_c, 0, 66, 110
9, 93664, Note_on_c, 0, 66, 0
9, 93696, Note_on_c, 0, 65, 110
9, 93754, Note_on_c, 0, 65, 0
9, 93756, Note_on_c, 0, 63, 110
9, 93826, Note_on_c, 0, 63, 0
9, 93828, Note_on_c, 0, 61, 110
9, 93886, Note_on_c, 0, 61, 0
9, 93888, Note_on_c, 0, 63, 110
9, 94018, Note_on_c, 0, 63, 0
9, 94020, Note_on_c, 0, 65, 110
9, 94078, Note_on_c, 0, 65, 0
9, 94080, Note_on_c, 0, 61, 110
9, 94416, Note_on_c, 0, 61, 0
9, 94464, Note_on_c, 0, 61, 110
9, 94522, Note_on_c, 0, 61, 0
9, 94524, Note_on_c, 0, 56, 110
9, 94594, Note_on_c, 0, 56, 0
9, 94596, Note_on_c, 0, 61, 110
9, 94654, Note_on_c, 0, 61, 0
9, 94656, Note_on_c, 0, 63, 110
9, 94714, Note_on_c, 0, 63, 0
9, 94716, Note_on_c, 0, 61, 110
9, 94786, Note_on_c, 0, 61, 0
9, 94788, Note_on_c, 0, 63, 110
9, 94846, Note_on_c, 0, 63, 0
9, 94848, Note_on_c, 0, 68, 110
9, 95008, Note_on_c, 0, 68, 0
9, 95040, Note_on_c, 0, 66, 110
9, 95200, Note_on_c, 0, 66, 0
9, 95232, Note_on_c, 0, 65, 110
9, 95290, Note_on_c, 0, 65, 0
9, 95292, Note_on_c, 0, 63, 110
9, 95362, Note_on_c, 0, 63, 0
9, 95364, Note_on_c, 0, 61, 110
9, 95422, Note_on_c, 0, 61, 0
9, 95424, Note_on_c, 0, 63, 110
9, 95554, Note_on_c, 0, 63, 0
9, 95556, Note_on_c, 0, 65, 110
9, 95776, Note_on_c, 0, 65, 0
9, 96000, Note_on_c, 0, 58, 110
9, 96000, Note_on_c, 0, 61, 110
9, 96000, Note_on_c, 0, 66, 110
9, 96720, Note_on_c, 0, 58, 0
9, 96720, Note_on_c, 0, 61, 0
9, 96720, Note_on_c, 0, 66, 0
9, 96768, Note_on_c, 0, 56, 110
9, 96768, Note_on_c, 0, 61, 110
9, 96768, Note_on_c, 0, 65, 110
9, 97104, Note_on_c, 0, 56, 0
9, 97104, Note_on_c, 0, 61, 0
9, 97104, Note_on_c, 0, 65, 0
9, 97152, Note_on_c, 0, 60, 110
9, 97152, Note_on_c, 0, 63, 110
9, 97488, Note_on_c, 0, 60, 0
9, 97488, Note_on_c, 0, 63, 0
9, 97536, Note_on_c, 0, 53, 110
9, 97536, Note_on_c, 0, 56, 110
9, 97536, Note_on_c, 0, 61, 110
9, 99232, Note_on_c, 0, 53, 0
9, 99232, Note_on_c, 0, 56, 0
9, 99232, Note_on_c, 0, 61, 0
9, 99232, End_track
10, 0, Start_track
10, 0, MIDI_port, 0
10, 0, Title_t, "BASS"
10, 0, Program_c, 1, 35
10, 0, Pitch_bend_c, 1, 8192
10, 0, Control_c, 1, 7, 127
10, 0, Control_c, 1, 10, 64
10, 3840, Note_on_c, 1, 48, 110
10, 4176, Note_on_c, 1, 48, 0
10, 4224, Note_on_c, 1, 47, 110
10, 4560, Note_on_c, 1, 47, 0
10, 4608, Note_on_c, 1, 45, 110
10, 4944, Note_on_c, 1, 45, 0
10, 5184, Note_on_c, 1, 43, 110
10, 5344, Note_on_c, 1, 43, 0
10, 5376, Note_on_c, 1, 41, 110
10, 5712, Note_on_c, 1, 41, 0
10, 6144, Note_on_c, 1, 38, 110
10, 6480, Note_on_c, 1, 38, 0
10, 6912, Note_on_c, 1, 43, 110
10, 7248, Note_on_c, 1, 43, 0
10, 7296, Note_on_c, 1, 43, 110
10, 7456, Note_on_c, 1, 43, 0
10, 7488, Note_on_c, 1, 43, 110
10, 7648, Note_on_c, 1, 43, 0
10, 7680, Note_on_c, 1, 43, 110
10, 8016, Note_on_c, 1, 43, 0
10, 8448, Note_on_c, 1, 48, 110
10, 8784, Note_on_c, 1, 48, 0
10, 8832, Note_on_c, 1, 47, 110
10, 9168, Note_on_c, 1, 47, 0
10, 9216, Note_on_c, 1, 45, 110
10, 9552, Note_on_c, 1, 45, 0
10, 9792, Note_on_c, 1, 43, 110
10, 9952, Note_on_c, 1, 43, 0
10, 9984, Note_on_c, 1, 41, 110
10, 10144, Note_on_c, 1, 41, 0
10, 10176, Note_on_c, 1, 41, 110
10, 10336, Note_on_c, 1, 41, 0
10, 10368, Note_on_c, 1, 41, 110
10, 10528, Note_on_c, 1, 41, 0
10, 10560, Note_on_c, 1, 41, 110
10, 10720, Note_on_c, 1, 41, 0
10, 10752, Note_on_c, 1, 50, 110
10, 10912, Note_on_c, 1, 50, 0
10, 10944, Note_on_c, 1, 50, 110
10, 11104, Note_on_c, 1, 50, 0
10, 11136, Note_on_c, 1, 50, 110
10, 11296, Note_on_c, 1, 50, 0
10, 11328, Note_on_c, 1, 50, 110
10, 11488, Note_on_c, 1, 50, 0
10, 11520, Note_on_c, 1, 43, 110
10, 11680, Note_on_c, 1, 43, 0
10, 13056, Note_on_c, 1, 43, 110
10, 13150, Note_on_c, 1, 43, 0
10, 13152, Note_on_c, 1, 43, 110
10, 13246, Note_on_c, 1, 43, 0
10, 13248, Note_on_c, 1, 43, 110
10, 13342, Note_on_c, 1, 43, 0
10, 13344, Note_on_c, 1, 43, 110
10, 13438, Note_on_c, 1, 43, 0
10, 13440, Note_on_c, 1, 43, 110
10, 13600, Note_on_c, 1, 43, 0
10, 13632, Note_on_c, 1, 43, 110
10, 13726, Note_on_c, 1, 43, 0
10, 13728, Note_on_c, 1, 43, 110
10, 13822, Note_on_c, 1, 43, 0
10, 13824, Note_on_c, 1, 43, 110
10, 14352, Note_on_c, 1, 43, 0
10, 14592, Note_on_c, 1, 36, 110
10, 14686, Note_on_c, 1, 36, 0
10, 14688, Note_on_c, 1, 36, 110
10, 14782, Note_on_c, 1, 36, 0
10, 14784, Note_on_c, 1, 36, 110
10, 14878, Note_on_c, 1, 36, 0
10, 14880, Note_on_c, 1, 36, 110
10, 14974, Note_on_c, 1, 36, 0
10, 14976, Note_on_c, 1, 36, 110
10, 15070, Note_on_c, 1, 36, 0
10, 15072, Note_on_c, 1, 36, 110
10, 15166, Note_on_c, 1, 36, 0
10, 15168, Note_on_c, 1, 36, 110
10, 15262, Note_on_c, 1, 36, 0
10, 15264, Note_on_c, 1, 36, 110
10, 15358, Note_on_c, 1, 36, 0
10, 15360, Note_on_c, 1, 35, 110
10, 15454, Note_on_c, 1, 35, 0
10, 15456, Note_on_c, 1, 35, 110
10, 15550, Note_on_c, 1, 35, 0
10, 15552, Note_on_c, 1, 35, 110
10, 15646, Note_on_c, 1, 35, 0
10, 15648, Note_on_c, 1, 35, 110
10, 15742, Note_on_c, 1, 35, 0
10, 15744, Note_on_c, 1, 35, 110
10, 15838, Note_on_c, 1, 35, 0
10, 15840, Note_on_c, 1, 35, 110
10, 15934, Note_on_c, 1, 35, 0
10, 15936, Note_on_c, 1, 35, 110
10, 16030, Note_on_c, 1, 35, 0
10, 16032, Note_on_c, 1, 35, 110
10, 16126, Note_on_c, 1, 35, 0
10, 16128, Note_on_c, 1, 33, 110
10, 16222, Note_on_c, 1, 33, 0
10, 16224, Note_on_c, 1, 33, 110
10, 16318, Note_on_c, 1, 33, 0
10, 16320, Note_on_c, 1, 33, 110
10, 16414, Note_on_c, 1, 33, 0
10, 16416, Note_on_c, 1, 33, 110
10, 16510, Note_on_c, 1, 33, 0
10, 16512, Note_on_c, 1, 33, 110
10, 16606, Note_on_c, 1, 33, 0
10, 16608, Note_on_c, 1, 33, 110
10, 16702, Note_on_c, 1, 33, 0
10, 16704, Note_on_c, 1, 33, 110
10, 16798, Note_on_c, 1, 33, 0
10, 16800, Note_on_c, 1, 33, 110
10, 16894, Note_on_c, 1, 33, 0
10, 16896, Note_on_c, 1, 33, 110
10, 16990, Note_on_c, 1, 33, 0
10, 16992, Note_on_c, 1, 33, 110
10, 17086, Note_on_c, 1, 33, 0
10, 17088, Note_on_c, 1, 36, 110
10, 17182, Note_on_c, 1, 36, 0
10, 17184, Note_on_c, 1, 33, 110
10, 17278, Note_on_c, 1, 33, 0
10, 17280, Note_on_c, 1, 33, 110
10, 17374, Note_on_c, 1, 33, 0
10, 17376, Note_on_c, 1, 33, 110
10, 17470, Note_on_c, 1, 33, 0
10, 17472, Note_on_c, 1, 31, 110
10, 17566, Note_on_c, 1, 31, 0
10, 17568, Note_on_c, 1, 31, 110
10, 17662, Note_on_c, 1, 31, 0
10, 17664, Note_on_c, 1, 29, 110
10, 17758, Note_on_c, 1, 29, 0
10, 17760, Note_on_c, 1, 29, 110
10, 17854, Note_on_c, 1, 29, 0
10, 17856, Note_on_c, 1, 29, 110
10, 17950, Note_on_c, 1, 29, 0
10, 17952, Note_on_c, 1, 29, 110
10, 18046, Note_on_c, 1, 29, 0
10, 18048, Note_on_c, 1, 29, 110
10, 18142, Note_on_c, 1, 29, 0
10, 18144, Note_on_c, 1, 29, 110
10, 18238, Note_on_c, 1, 29, 0
10, 18240, Note_on_c, 1, 29, 110
10, 18334, Note_on_c, 1, 29, 0
10, 18336, Note_on_c, 1, 29, 110
10, 18430, Note_on_c, 1, 29, 0
10, 18432, Note_on_c, 1, 26, 110
10, 18526, Note_on_c, 1, 26, 0
10, 18528, Note_on_c, 1, 26, 110
10, 18622, Note_on_c, 1, 26, 0
10, 18624, Note_on_c, 1, 26, 110
10, 18718, Note_on_c, 1, 26, 0
10, 18720, Note_on_c, 1, 26, 110
10, 18814, Note_on_c, 1, 26, 0
10, 18816, Note_on_c, 1, 26, 110
10, 18910, Note_on_c, 1, 26, 0
10, 18912, Note_on_c, 1, 26, 110
10, 19006, Note_on_c, 1, 26, 0
10, 19008, Note_on_c, 1, 26, 110
10, 19102, Note_on_c, 1, 26, 0
10, 19104, Note_on_c, 1, 26, 110
10, 19198, Note_on_c, 1, 26, 0
10, 19200, Note_on_c, 1, 31, 110
10, 19294, Note_on_c, 1, 31, 0
10, 19296, Note_on_c, 1, 31, 110
10, 19390, Note_on_c, 1, 31, 0
10, 19392, Note_on_c, 1, 31, 110
10, 19486, Note_on_c, 1, 31, 0
10, 19488, Note_on_c, 1, 31, 110
10, 19582, Note_on_c, 1, 31, 0
10, 19584, Note_on_c, 1, 31, 110
10, 19678, Note_on_c, 1, 31, 0
10, 19680, Note_on_c, 1, 31, 110
10, 19774, Note_on_c, 1, 31, 0
10, 19776, Note_on_c, 1, 31, 110
10, 19870, Note_on_c, 1, 31, 0
10, 19872, Note_on_c, 1, 31, 110
10, 19966, Note_on_c, 1, 31, 0
10, 20064, Note_on_c, 1, 29, 110
10, 20158, Note_on_c, 1, 29, 0
10, 20160, Note_on_c, 1, 29, 110
10, 20254, Note_on_c, 1, 29, 0
10, 20256, Note_on_c, 1, 31, 110
10, 20350, Note_on_c, 1, 31, 0
10, 20352, Note_on_c, 1, 31, 110
10, 20512, Note_on_c, 1, 31, 0
10, 20736, Note_on_c, 1, 36, 110
10, 20830, Note_on_c, 1, 36, 0
10, 20832, Note_on_c, 1, 36, 110
10, 20926, Note_on_c, 1, 36, 0
10, 20928, Note_on_c, 1, 36, 110
10, 21022, Note_on_c, 1, 36, 0
10, 21024, Note_on_c, 1, 36, 110
10, 21118, Note_on_c, 1, 36, 0
10, 21120, Note_on_c, 1, 36, 110
10, 21214, Note_on_c, 1, 36, 0
10, 21216, Note_on_c, 1, 36, 110
10, 21310, Note_on_c, 1, 36, 0
10, 21312, Note_on_c, 1, 36, 110
10, 21406, Note_on_c, 1, 36, 0
10, 21408, Note_on_c, 1, 36, 110
10, 21502, Note_on_c, 1, 36, 0
10, 21504, Note_on_c, 1, 35, 110
10, 21598, Note_on_c, 1, 35, 0
10, 21600, Note_on_c, 1, 35, 110
10, 21694, Note_on_c, 1, 35, 0
10, 21696, Note_on_c, 1, 35, 110
10, 21790, Note_on_c, 1, 35, 0
10, 21792, Note_on_c, 1, 35, 110
10, 21886, Note_on_c, 1, 35, 0
10, 21888, Note_on_c, 1, 35, 110
10, 21982, Note_on_c, 1, 35, 0
10, 21984, Note_on_c, 1, 35, 110
10, 22078, Note_on_c, 1, 35, 0
10, 22080, Note_on_c, 1, 35, 110
10, 22174, Note_on_c, 1, 35, 0
10, 22176, Note_on_c, 1, 35, 110
10, 22270, Note_on_c, 1, 35, 0
10, 22272, Note_on_c, 1, 33, 110
10, 22366, Note_on_c, 1, 33, 0
10, 22368, Note_on_c, 1, 33, 110
10, 22462, Note_on_c, 1, 33, 0
10, 22464, Note_on_c, 1, 33, 110
10, 22558, Note_on_c, 1, 33, 0
10, 22560, Note_on_c, 1, 33, 110
10, 22654, Note_on_c, 1, 33, 0
10, 22656, Note_on_c, 1, 33, 110
10, 22750, Note_on_c, 1, 33, 0
10, 22752, Note_on_c, 1, 33, 110
10, 22846, Note_on_c, 1, 33, 0
10, 22848, Note_on_c, 1, 33, 110
10, 22942, Note_on_c, 1, 33, 0
10, 22944, Note_on_c, 1, 33, 110
10, 23038, Note_on_c, 1, 33, 0
10, 23040, Note_on_c, 1, 33, 110
10, 23134, Note_on_c, 1, 33, 0
10, 23136, Note_on_c, 1, 33, 110
10, 23230, Note_on_c, 1, 33, 0
10, 23232, Note_on_c, 1, 36, 110
10, 23326, Note_on_c, 1, 36, 0
10, 23328, Note_on_c, 1, 33, 110
10, 23422, Note_on_c, 1, 33, 0
10, 23424, Note_on_c, 1, 33, 110
10, 23518, Note_on_c, 1, 33, 0
10, 23520, Note_on_c, 1, 33, 110
10, 23614, Note_on_c, 1, 33, 0
10, 23616, Note_on_c, 1, 31, 110
10, 23710, Note_on_c, 1, 31, 0
10, 23712, Note_on_c, 1, 31, 110
10, 23806, Note_on_c, 1, 31, 0
10, 23808, Note_on_c, 1, 29, 110
10, 23902, Note_on_c, 1, 29, 0
10, 23904, Note_on_c, 1, 29, 110
10, 23998, Note_on_c, 1, 29, 0
10, 24000, Note_on_c, 1, 29, 110
10, 24094, Note_on_c, 1, 29, 0
10, 24096, Note_on_c, 1, 29, 110
10, 24190, Note_on_c, 1, 29, 0
10, 24192, Note_on_c, 1, 29, 110
10, 24286, Note_on_c, 1, 29, 0
10, 24288, Note_on_c, 1, 29, 110
10, 24382, Note_on_c, 1, 29, 0
10, 24384, Note_on_c, 1, 29, 110
10, 24478, Note_on_c, 1, 29, 0
10, 24480, Note_on_c, 1, 29, 110
10, 24574, Note_on_c, 1, 29, 0
10, 24576, Note_on_c, 1, 26, 110
10, 24670, Note_on_c, 1, 26, 0
10, 24672, Note_on_c, 1, 26, 110
10, 24766, Note_on_c, 1, 26, 0
10, 24768, Note_on_c, 1, 26, 110
10, 24862, Note_on_c, 1, 26, 0
10, 24864, Note_on_c, 1, 26, 110
10, 24958, Note_on_c, 1, 26, 0
10, 24960, Note_on_c, 1, 26, 110
10, 25054, Note_on_c, 1, 26, 0
10, 25056, Note_on_c, 1, 26, 110
10, 25150, Note_on_c, 1, 26, 0
10, 25152, Note_on_c, 1, 26, 110
10, 25246, Note_on_c, 1, 26, 0
10, 25248, Note_on_c, 1, 26, 110
10, 25342, Note_on_c, 1, 26, 0
10, 25344, Note_on_c, 1, 31, 110
10, 25438, Note_on_c, 1, 31, 0
10, 25440, Note_on_c, 1, 31, 110
10, 25534, Note_on_c, 1, 31, 0
10, 25536, Note_on_c, 1, 31, 110
10, 25630, Note_on_c, 1, 31, 0
10, 25632, Note_on_c, 1, 31, 110
10, 25726, Note_on_c, 1, 31, 0
10, 25728, Note_on_c, 1, 31, 110
10, 25822, Note_on_c, 1, 31, 0
10, 25824, Note_on_c, 1, 31, 110
10, 25918, Note_on_c, 1, 31, 0
10, 25920, Note_on_c, 1, 31, 110
10, 26014, Note_on_c, 1, 31, 0
10, 26016, Note_on_c, 1, 31, 110
10, 26110, Note_on_c, 1, 31, 0
10, 26112, Note_on_c, 1, 31, 110
10, 26206, Note_on_c, 1, 31, 0
10, 26208, Note_on_c, 1, 31, 110
10, 26302, Note_on_c, 1, 31, 0
10, 26304, Note_on_c, 1, 31, 110
10, 26398, Note_on_c, 1, 31, 0
10, 26400, Note_on_c, 1, 31, 110
10, 26494, Note_on_c, 1, 31, 0
10, 26496, Note_on_c, 1, 31, 110
10, 26590, Note_on_c, 1, 31, 0
10, 26592, Note_on_c, 1, 31, 110
10, 26686, Note_on_c, 1, 31, 0
10, 26688, Note_on_c, 1, 31, 110
10, 26782, Note_on_c, 1, 31, 0
10, 26784, Note_on_c, 1, 31, 110
10, 26878, Note_on_c, 1, 31, 0
10, 26880, Note_on_c, 1, 36, 110
10, 26974, Note_on_c, 1, 36, 0
10, 26976, Note_on_c, 1, 36, 110
10, 27070, Note_on_c, 1, 36, 0
10, 27072, Note_on_c, 1, 36, 110
10, 27166, Note_on_c, 1, 36, 0
10, 27168, Note_on_c, 1, 36, 110
10, 27262, Note_on_c, 1, 36, 0
10, 27264, Note_on_c, 1, 36, 110
10, 27358, Note_on_c, 1, 36, 0
10, 27360, Note_on_c, 1, 36, 110
10, 27454, Note_on_c, 1, 36, 0
10, 27456, Note_on_c, 1, 36, 110
10, 27550, Note_on_c, 1, 36, 0
10, 27552, Note_on_c, 1, 36, 110
10, 27646, Note_on_c, 1, 36, 0
10, 27648, Note_on_c, 1, 35, 110
10, 27742, Note_on_c, 1, 35, 0
10, 27744, Note_on_c, 1, 35, 110
10, 27838, Note_on_c, 1, 35, 0
10, 27840, Note_on_c, 1, 35, 110
10, 27934, Note_on_c, 1, 35, 0
10, 27936, Note_on_c, 1, 35, 110
10, 28030, Note_on_c, 1, 35, 0
10, 28032, Note_on_c, 1, 35, 110
10, 28126, Note_on_c, 1, 35, 0
10, 28128, Note_on_c, 1, 35, 110
10, 28222, Note_on_c, 1, 35, 0
10, 28224, Note_on_c, 1, 35, 110
10, 28318, Note_on_c, 1, 35, 0
10, 28320, Note_on_c, 1, 35, 110
10, 28414, Note_on_c, 1, 35, 0
10, 28416, Note_on_c, 1, 33, 110
10, 28510, Note_on_c, 1, 33, 0
10, 28512, Note_on_c, 1, 33, 110
10, 28606, Note_on_c, 1, 33, 0
10, 28608, Note_on_c, 1, 33, 110
10, 28702, Note_on_c, 1, 33, 0
10, 28704, Note_on_c, 1, 33, 110
10, 28798, Note_on_c, 1, 33, 0
10, 28800, Note_on_c, 1, 33, 110
10, 28894, Note_on_c, 1, 33, 0
10, 28896, Note_on_c, 1, 33, 110
10, 28990, Note_on_c, 1, 33, 0
10, 28992, Note_on_c, 1, 33, 110
10, 29086, Note_on_c, 1, 33, 0
10, 29088, Note_on_c, 1, 33, 110
10, 29182, Note_on_c, 1, 33, 0
10, 29184, Note_on_c, 1, 33, 110
10, 29278, Note_on_c, 1, 33, 0
10, 29280, Note_on_c, 1, 33, 110
10, 29374, Note_on_c, 1, 33, 0
10, 29376, Note_on_c, 1, 36, 110
10, 29470, Note_on_c, 1, 36, 0
10, 29472, Note_on_c, 1, 33, 110
10, 29566, Note_on_c, 1, 33, 0
10, 29568, Note_on_c, 1, 33, 110
10, 29662, Note_on_c, 1, 33, 0
10, 29664, Note_on_c, 1, 33, 110
10, 29758, Note_on_c, 1, 33, 0
10, 29760, Note_on_c, 1, 31, 110
10, 29854, Note_on_c, 1, 31, 0
10, 29856, Note_on_c, 1, 31, 110
10, 29950, Note_on_c, 1, 31, 0
10, 29952, Note_on_c, 1, 29, 110
10, 30046, Note_on_c, 1, 29, 0
10, 30048, Note_on_c, 1, 29, 110
10, 30142, Note_on_c, 1, 29, 0
10, 30144, Note_on_c, 1, 29, 110
10, 30238, Note_on_c, 1, 29, 0
10, 30240, Note_on_c, 1, 29, 110
10, 30334, Note_on_c, 1, 29, 0
10, 30336, Note_on_c, 1, 29, 110
10, 30430, Note_on_c, 1, 29, 0
10, 30432, Note_on_c, 1, 29, 110
10, 30526, Note_on_c, 1, 29, 0
10, 30528, Note_on_c, 1, 29, 110
10, 30622, Note_on_c, 1, 29, 0
10, 30624, Note_on_c, 1, 29, 110
10, 30718, Note_on_c, 1, 29, 0
10, 30720, Note_on_c, 1, 26, 110
10, 30814, Note_on_c, 1, 26, 0
10, 30816, Note_on_c, 1, 26, 110
10, 30910, Note_on_c, 1, 26, 0
10, 30912, Note_on_c, 1, 26, 110
10, 31006, Note_on_c, 1, 26, 0
10, 31008, Note_on_c, 1, 26, 110
10, 31102, Note_on_c, 1, 26, 0
10, 31104, Note_on_c, 1, 26, 110
10, 31198, Note_on_c, 1, 26, 0
10, 31200, Note_on_c, 1, 26, 110
10, 31294, Note_on_c, 1, 26, 0
10, 31296, Note_on_c, 1, 26, 110
10, 31390, Note_on_c, 1, 26, 0
10, 31392, Note_on_c, 1, 26, 110
10, 31486, Note_on_c, 1, 26, 0
10, 31488, Note_on_c, 1, 31, 110
10, 31582, Note_on_c, 1, 31, 0
10, 31584, Note_on_c, 1, 31, 110
10, 31678, Note_on_c, 1, 31, 0
10, 31680, Note_on_c, 1, 31, 110
10, 31774, Note_on_c, 1, 31, 0
10, 31776, Note_on_c, 1, 31, 110
10, 31870, Note_on_c, 1, 31, 0
10, 31872, Note_on_c, 1, 31, 110
10, 31966, Note_on_c, 1, 31, 0
10, 31968, Note_on_c, 1, 31, 110
10, 32062, Note_on_c, 1, 31, 0
10, 32064, Note_on_c, 1, 31, 110
10, 32158, Note_on_c, 1, 31, 0
10, 32160, Note_on_c, 1, 31, 110
10, 32254, Note_on_c, 1, 31, 0
10, 32256, Note_on_c, 1, 29, 110
10, 32592, Note_on_c, 1, 29, 0
10, 32640, Note_on_c, 1, 29, 110
10, 32800, Note_on_c, 1, 29, 0
10, 32832, Note_on_c, 1, 31, 110
10, 32992, Note_on_c, 1, 31, 0
10, 33024, Note_on_c, 1, 29, 110
10, 33360, Note_on_c, 1, 29, 0
10, 33408, Note_on_c, 1, 29, 110
10, 33744, Note_on_c, 1, 29, 0
10, 33888, Note_on_c, 1, 31, 110
10, 34144, Note_on_c, 1, 31, 0
10, 34176, Note_on_c, 1, 31, 110
10, 34318, Note_on_c, 1, 31, 0
10, 34320, Note_on_c, 1, 31, 110
10, 34462, Note_on_c, 1, 31, 0
10, 34464, Note_on_c, 1, 31, 110
10, 34558, Note_on_c, 1, 31, 0
10, 34560, Note_on_c, 1, 33, 110
10, 34896, Note_on_c, 1, 33, 0
10, 34944, Note_on_c, 1, 31, 110
10, 35280, Note_on_c, 1, 31, 0
10, 35328, Note_on_c, 1, 29, 110
10, 36190, Note_on_c, 1, 29, 0
10, 36192, Note_on_c, 1, 29, 110
10, 36286, Note_on_c, 1, 29, 0
10, 36288, Note_on_c, 1, 29, 110
10, 36382, Note_on_c, 1, 29, 0
10, 36384, Note_on_c, 1, 29, 110
10, 36478, Note_on_c, 1, 29, 0
10, 36480, Note_on_c, 1, 29, 110
10, 36574, Note_on_c, 1, 29, 0
10, 36576, Note_on_c, 1, 29, 110
10, 36670, Note_on_c, 1, 29, 0
10, 36672, Note_on_c, 1, 29, 110
10, 36766, Note_on_c, 1, 29, 0
10, 36768, Note_on_c, 1, 29, 110
10, 37584, Note_on_c, 1, 29, 0
10, 37632, Note_on_c, 1, 26, 110
10, 37726, Note_on_c, 1, 26, 0
10, 37728, Note_on_c, 1, 26, 110
10, 37822, Note_on_c, 1, 26, 0
10, 37824, Note_on_c, 1, 29, 110
10, 37918, Note_on_c, 1, 29, 0
10, 37920, Note_on_c, 1, 26, 110
10, 38014, Note_on_c, 1, 26, 0
10, 38016, Note_on_c, 1, 26, 110
10, 38110, Note_on_c, 1, 26, 0
10, 38112, Note_on_c, 1, 26, 110
10, 38206, Note_on_c, 1, 26, 0
10, 38208, Note_on_c, 1, 29, 110
10, 38302, Note_on_c, 1, 29, 0
10, 38304, Note_on_c, 1, 26, 110
10, 38398, Note_on_c, 1, 26, 0
10, 38400, Note_on_c, 1, 26, 110
10, 38494, Note_on_c, 1, 26, 0
10, 38496, Note_on_c, 1, 26, 110
10, 38590, Note_on_c, 1, 26, 0
10, 38592, Note_on_c, 1, 29, 110
10, 38686, Note_on_c, 1, 29, 0
10, 38688, Note_on_c, 1, 26, 110
10, 38782, Note_on_c, 1, 26, 0
10, 38784, Note_on_c, 1, 26, 110
10, 38878, Note_on_c, 1, 26, 0
10, 38880, Note_on_c, 1, 26, 110
10, 38974, Note_on_c, 1, 26, 0
10, 38976, Note_on_c, 1, 29, 110
10, 39070, Note_on_c, 1, 29, 0
10, 39072, Note_on_c, 1, 26, 110
10, 39166, Note_on_c, 1, 26, 0
10, 39168, Note_on_c, 1, 26, 110
10, 39262, Note_on_c, 1, 26, 0
10, 39264, Note_on_c, 1, 26, 110
10, 39358, Note_on_c, 1, 26, 0
10, 39360, Note_on_c, 1, 31, 110
10, 39454, Note_on_c, 1, 31, 0
10, 39456, Note_on_c, 1, 26, 110
10, 39550, Note_on_c, 1, 26, 0
10, 39552, Note_on_c, 1, 26, 110
10, 39646, Note_on_c, 1, 26, 0
10, 39648, Note_on_c, 1, 26, 110
10, 39742, Note_on_c, 1, 26, 0
10, 39744, Note_on_c, 1, 31, 110
10, 39904, Note_on_c, 1, 31, 0
10, 39936, Note_on_c, 1, 31, 110
10, 40030, Note_on_c, 1, 31, 0
10, 40032, Note_on_c, 1, 29, 110
10, 40126, Note_on_c, 1, 29, 0
10, 40128, Note_on_c, 1, 29, 110
10, 40222, Note_on_c, 1, 29, 0
10, 40224, Note_on_c, 1, 31, 110
10, 40318, Note_on_c, 1, 31, 0
10, 40320, Note_on_c, 1, 31, 110
10, 40480, Note_on_c, 1, 31, 0
10, 40512, Note_on_c, 1, 31, 110
10, 40672, Note_on_c, 1, 31, 0
10, 40704, Note_on_c, 1, 36, 110
10, 40798, Note_on_c, 1, 36, 0
10, 40800, Note_on_c, 1, 36, 110
10, 40894, Note_on_c, 1, 36, 0
10, 40896, Note_on_c, 1, 36, 110
10, 40990, Note_on_c, 1, 36, 0
10, 40992, Note_on_c, 1, 36, 110
10, 41086, Note_on_c, 1, 36, 0
10, 41088, Note_on_c, 1, 36, 110
10, 41182, Note_on_c, 1, 36, 0
10, 41184, Note_on_c, 1, 36, 110
10, 41278, Note_on_c, 1, 36, 0
10, 41280, Note_on_c, 1, 36, 110
10, 41374, Note_on_c, 1, 36, 0
10, 41376, Note_on_c, 1, 36, 110
10, 41470, Note_on_c, 1, 36, 0
10, 41472, Note_on_c, 1, 35, 110
10, 41566, Note_on_c, 1, 35, 0
10, 41568, Note_on_c, 1, 35, 110
10, 41662, Note_on_c, 1, 35, 0
10, 41664, Note_on_c, 1, 35, 110
10, 41758, Note_on_c, 1, 35, 0
10, 41760, Note_on_c, 1, 35, 110
10, 41854, Note_on_c, 1, 35, 0
10, 41856, Note_on_c, 1, 35, 110
10, 41950, Note_on_c, 1, 35, 0
10, 41952, Note_on_c, 1, 35, 110
10, 42046, Note_on_c, 1, 35, 0
10, 42048, Note_on_c, 1, 35, 110
10, 42142, Note_on_c, 1, 35, 0
10, 42144, Note_on_c, 1, 35, 110
10, 42238, Note_on_c, 1, 35, 0
10, 42240, Note_on_c, 1, 33, 110
10, 42334, Note_on_c, 1, 33, 0
10, 42336, Note_on_c, 1, 33, 110
10, 42430, Note_on_c, 1, 33, 0
10, 42432, Note_on_c, 1, 33, 110
10, 42526, Note_on_c, 1, 33, 0
10, 42528, Note_on_c, 1, 33, 110
10, 42622, Note_on_c, 1, 33, 0
10, 42624, Note_on_c, 1, 33, 110
10, 42718, Note_on_c, 1, 33, 0
10, 42720, Note_on_c, 1, 33, 110
10, 42814, Note_on_c, 1, 33, 0
10, 42816, Note_on_c, 1, 33, 110
10, 42910, Note_on_c, 1, 33, 0
10, 42912, Note_on_c, 1, 33, 110
10, 43006, Note_on_c, 1, 33, 0
10, 43008, Note_on_c, 1, 33, 110
10, 43102, Note_on_c, 1, 33, 0
10, 43104, Note_on_c, 1, 33, 110
10, 43198, Note_on_c, 1, 33, 0
10, 43200, Note_on_c, 1, 36, 110
10, 43294, Note_on_c, 1, 36, 0
10, 43296, Note_on_c, 1, 33, 110
10, 43390, Note_on_c, 1, 33, 0
10, 43392, Note_on_c, 1, 33, 110
10, 43486, Note_on_c, 1, 33, 0
10, 43488, Note_on_c, 1, 33, 110
10, 43582, Note_on_c, 1, 33, 0
10, 43584, Note_on_c, 1, 31, 110
10, 43678, Note_on_c, 1, 31, 0
10, 43680, Note_on_c, 1, 31, 110
10, 43774, Note_on_c, 1, 31, 0
10, 43776, Note_on_c, 1, 29, 110
10, 43870, Note_on_c, 1, 29, 0
10, 43872, Note_on_c, 1, 29, 110
10, 43966, Note_on_c, 1, 29, 0
10, 43968, Note_on_c, 1, 29, 110
10, 44062, Note_on_c, 1, 29, 0
10, 44064, Note_on_c, 1, 29, 110
10, 44158, Note_on_c, 1, 29, 0
10, 44160, Note_on_c, 1, 29, 110
10, 44254, Note_on_c, 1, 29, 0
10, 44256, Note_on_c, 1, 29, 110
10, 44350, Note_on_c, 1, 29, 0
10, 44352, Note_on_c, 1, 29, 110
10, 44446, Note_on_c, 1, 29, 0
10, 44448, Note_on_c, 1, 29, 110
10, 44542, Note_on_c, 1, 29, 0
10, 44544, Note_on_c, 1, 26, 110
10, 44638, Note_on_c, 1, 26, 0
10, 44640, Note_on_c, 1, 26, 110
10, 44734, Note_on_c, 1, 26, 0
10, 44736, Note_on_c, 1, 26, 110
10, 44830, Note_on_c, 1, 26, 0
10, 44832, Note_on_c, 1, 26, 110
10, 44926, Note_on_c, 1, 26, 0
10, 44928, Note_on_c, 1, 26, 110
10, 45022, Note_on_c, 1, 26, 0
10, 45024, Note_on_c, 1, 26, 110
10, 45118, Note_on_c, 1, 26, 0
10, 45120, Note_on_c, 1, 26, 110
10, 45214, Note_on_c, 1, 26, 0
10, 45216, Note_on_c, 1, 26, 110
10, 45310, Note_on_c, 1, 26, 0
10, 45312, Note_on_c, 1, 31, 110
10, 45406, Note_on_c, 1, 31, 0
10, 45408, Note_on_c, 1, 31, 110
10, 45502, Note_on_c, 1, 31, 0
10, 45504, Note_on_c, 1, 31, 110
10, 45598, Note_on_c, 1, 31, 0
10, 45600, Note_on_c, 1, 31, 110
10, 45694, Note_on_c, 1, 31, 0
10, 45696, Note_on_c, 1, 31, 110
10, 45790, Note_on_c, 1, 31, 0
10, 45792, Note_on_c, 1, 31, 110
10, 45886, Note_on_c, 1, 31, 0
10, 45888, Note_on_c, 1, 31, 110
10, 45982, Note_on_c, 1, 31, 0
10, 45984, Note_on_c, 1, 31, 110
10, 46078, Note_on_c, 1, 31, 0
10, 46080, Note_on_c, 1, 31, 110
10, 46174, Note_on_c, 1, 31, 0
10, 46176, Note_on_c, 1, 31, 110
10, 46270, Note_on_c, 1, 31, 0
10, 46272, Note_on_c, 1, 31, 110
10, 46366, Note_on_c, 1, 31, 0
10, 46368, Note_on_c, 1, 31, 110
10, 46462, Note_on_c, 1, 31, 0
10, 46464, Note_on_c, 1, 31, 110
10, 46558, Note_on_c, 1, 31, 0
10, 46560, Note_on_c, 1, 31, 110
10, 46654, Note_on_c, 1, 31, 0
10, 46656, Note_on_c, 1, 31, 110
10, 46750, Note_on_c, 1, 31, 0
10, 46752, Note_on_c, 1, 31, 110
10, 46846, Note_on_c, 1, 31, 0
10, 46848, Note_on_c, 1, 36, 110
10, 46942, Note_on_c, 1, 36, 0
10, 46944, Note_on_c, 1, 36, 110
10, 47038, Note_on_c, 1, 36, 0
10, 47040, Note_on_c, 1, 36, 110
10, 47134, Note_on_c, 1, 36, 0
10, 47136, Note_on_c, 1, 36, 110
10, 47230, Note_on_c, 1, 36, 0
10, 47232, Note_on_c, 1, 36, 110
10, 47326, Note_on_c, 1, 36, 0
10, 47328, Note_on_c, 1, 36, 110
10, 47422, Note_on_c, 1, 36, 0
10, 47424, Note_on_c, 1, 36, 110
10, 47518, Note_on_c, 1, 36, 0
10, 47520, Note_on_c, 1, 36, 110
10, 47614, Note_on_c, 1, 36, 0
10, 47616, Note_on_c, 1, 35, 110
10, 47710, Note_on_c, 1, 35, 0
10, 47712, Note_on_c, 1, 35, 110
10, 47806, Note_on_c, 1, 35, 0
10, 47808, Note_on_c, 1, 35, 110
10, 47902, Note_on_c, 1, 35, 0
10, 47904, Note_on_c, 1, 35, 110
10, 47998, Note_on_c, 1, 35, 0
10, 48000, Note_on_c, 1, 35, 110
10, 48094, Note_on_c, 1, 35, 0
10, 48096, Note_on_c, 1, 35, 110
10, 48190, Note_on_c, 1, 35, 0
10, 48192, Note_on_c, 1, 35, 110
10, 48286, Note_on_c, 1, 35, 0
10, 48288, Note_on_c, 1, 35, 110
10, 48382, Note_on_c, 1, 35, 0
10, 48384, Note_on_c, 1, 33, 110
10, 48478, Note_on_c, 1, 33, 0
10, 48480, Note_on_c, 1, 33, 110
10, 48574, Note_on_c, 1, 33, 0
10, 48576, Note_on_c, 1, 33, 110
10, 48670, Note_on_c, 1, 33, 0
10, 48672, Note_on_c, 1, 33, 110
10, 48766, Note_on_c, 1, 33, 0
10, 48768, Note_on_c, 1, 33, 110
10, 48862, Note_on_c, 1, 33, 0
10, 48864, Note_on_c, 1, 33, 110
10, 48958, Note_on_c, 1, 33, 0
10, 48960, Note_on_c, 1, 33, 110
10, 49054, Note_on_c, 1, 33, 0
10, 49056, Note_on_c, 1, 33, 110
10, 49150, Note_on_c, 1, 33, 0
10, 49152, Note_on_c, 1, 33, 110
10, 49246, Note_on_c, 1, 33, 0
10, 49248, Note_on_c, 1, 33, 110
10, 49342, Note_on_c, 1, 33, 0
10, 49344, Note_on_c, 1, 36, 110
10, 49438, Note_on_c, 1, 36, 0
10, 49440, Note_on_c, 1, 33, 110
10, 49534, Note_on_c, 1, 33, 0
10, 49536, Note_on_c, 1, 33, 110
10, 49630, Note_on_c, 1, 33, 0
10, 49632, Note_on_c, 1, 33, 110
10, 49726, Note_on_c, 1, 33, 0
10, 49728, Note_on_c, 1, 31, 110
10, 49822, Note_on_c, 1, 31, 0
10, 49824, Note_on_c, 1, 31, 110
10, 49918, Note_on_c, 1, 31, 0
10, 49920, Note_on_c, 1, 29, 110
10, 50014, Note_on_c, 1, 29, 0
10, 50016, Note_on_c, 1, 29, 110
10, 50110, Note_on_c, 1, 29, 0
10, 50112, Note_on_c, 1, 29, 110
10, 50206, Note_on_c, 1, 29, 0
10, 50208, Note_on_c, 1, 29, 110
10, 50302, Note_on_c, 1, 29, 0
10, 50304, Note_on_c, 1, 29, 110
10, 50398, Note_on_c, 1, 29, 0
10, 50400, Note_on_c, 1, 29, 110
10, 50494, Note_on_c, 1, 29, 0
10, 50496, Note_on_c, 1, 29, 110
10, 50590, Note_on_c, 1, 29, 0
10, 50592, Note_on_c, 1, 29, 110
10, 50686, Note_on_c, 1, 29, 0
10, 50688, Note_on_c, 1, 26, 110
10, 50782, Note_on_c, 1, 26, 0
10, 50784, Note_on_c, 1, 26, 110
10, 50878, Note_on_c, 1, 26, 0
10, 50880, Note_on_c, 1, 26, 110
10, 50974, Note_on_c, 1, 26, 0
10, 50976, Note_on_c, 1, 26, 110
10, 51070, Note_on_c, 1, 26, 0
10, 51072, Note_on_c, 1, 26, 110
10, 51166, Note_on_c, 1, 26, 0
10, 51168, Note_on_c, 1, 26, 110
10, 51262, Note_on_c, 1, 26, 0
10, 51264, Note_on_c, 1, 26, 110
10, 51358, Note_on_c, 1, 26, 0
10, 51360, Note_on_c, 1, 26, 110
10, 51454, Note_on_c, 1, 26, 0
10, 51456, Note_on_c, 1, 31, 110
10, 51550, Note_on_c, 1, 31, 0
10, 51552, Note_on_c, 1, 31, 110
10, 51646, Note_on_c, 1, 31, 0
10, 51648, Note_on_c, 1, 31, 110
10, 51742, Note_on_c, 1, 31, 0
10, 51744, Note_on_c, 1, 31, 110
10, 51838, Note_on_c, 1, 31, 0
10, 51840, Note_on_c, 1, 31, 110
10, 51934, Note_on_c, 1, 31, 0
10, 51936, Note_on_c, 1, 31, 110
10, 52030, Note_on_c, 1, 31, 0
10, 52032, Note_on_c, 1, 31, 110
10, 52126, Note_on_c, 1, 31, 0
10, 52128, Note_on_c, 1, 31, 110
10, 52222, Note_on_c, 1, 31, 0
10, 52224, Note_on_c, 1, 31, 110
10, 52318, Note_on_c, 1, 31, 0
10, 52320, Note_on_c, 1, 29, 110
10, 52414, Note_on_c, 1, 29, 0
10, 52416, Note_on_c, 1, 29, 110
10, 52510, Note_on_c, 1, 29, 0
10, 52512, Note_on_c, 1, 31, 110
10, 52606, Note_on_c, 1, 31, 0
10, 52608, Note_on_c, 1, 31, 110
10, 52944, Note_on_c, 1, 31, 0
10, 52992, Note_on_c, 1, 36, 110
10, 53086, Note_on_c, 1, 36, 0
10, 53088, Note_on_c, 1, 36, 110
10, 53182, Note_on_c, 1, 36, 0
10, 53184, Note_on_c, 1, 36, 110
10, 53278, Note_on_c, 1, 36, 0
10, 53280, Note_on_c, 1, 36, 110
10, 53374, Note_on_c, 1, 36, 0
10, 53376, Note_on_c, 1, 36, 110
10, 53470, Note_on_c, 1, 36, 0
10, 53472, Note_on_c, 1, 36, 110
10, 53566, Note_on_c, 1, 36, 0
10, 53568, Note_on_c, 1, 36, 110
10, 53662, Note_on_c, 1, 36, 0
10, 53664, Note_on_c, 1, 36, 110
10, 53758, Note_on_c, 1, 36, 0
10, 53760, Note_on_c, 1, 35, 110
10, 53854, Note_on_c, 1, 35, 0
10, 53856, Note_on_c, 1, 35, 110
10, 53950, Note_on_c, 1, 35, 0
10, 53952, Note_on_c, 1, 35, 110
10, 54046, Note_on_c, 1, 35, 0
10, 54048, Note_on_c, 1, 35, 110
10, 54142, Note_on_c, 1, 35, 0
10, 54144, Note_on_c, 1, 35, 110
10, 54238, Note_on_c, 1, 35, 0
10, 54240, Note_on_c, 1, 35, 110
10, 54334, Note_on_c, 1, 35, 0
10, 54336, Note_on_c, 1, 35, 110
10, 54430, Note_on_c, 1, 35, 0
10, 54432, Note_on_c, 1, 35, 110
10, 54526, Note_on_c, 1, 35, 0
10, 54528, Note_on_c, 1, 33, 110
10, 54622, Note_on_c, 1, 33, 0
10, 54624, Note_on_c, 1, 33, 110
10, 54718, Note_on_c, 1, 33, 0
10, 54720, Note_on_c, 1, 33, 110
10, 54814, Note_on_c, 1, 33, 0
10, 54816, Note_on_c, 1, 33, 110
10, 54910, Note_on_c, 1, 33, 0
10, 54912, Note_on_c, 1, 33, 110
10, 55006, Note_on_c, 1, 33, 0
10, 55008, Note_on_c, 1, 33, 110
10, 55102, Note_on_c, 1, 33, 0
10, 55104, Note_on_c, 1, 33, 110
10, 55198, Note_on_c, 1, 33, 0
10, 55200, Note_on_c, 1, 33, 110
10, 55294, Note_on_c, 1, 33, 0
10, 55296, Note_on_c, 1, 33, 110
10, 55390, Note_on_c, 1, 33, 0
10, 55392, Note_on_c, 1, 33, 110
10, 55486, Note_on_c, 1, 33, 0
10, 55488, Note_on_c, 1, 36, 110
10, 55582, Note_on_c, 1, 36, 0
10, 55584, Note_on_c, 1, 33, 110
10, 55678, Note_on_c, 1, 33, 0
10, 55680, Note_on_c, 1, 33, 110
10, 55774, Note_on_c, 1, 33, 0
10, 55776, Note_on_c, 1, 33, 110
10, 55870, Note_on_c, 1, 33, 0
10, 55872, Note_on_c, 1, 31, 110
10, 55966, Note_on_c, 1, 31, 0
10, 55968, Note_on_c, 1, 31, 110
10, 56062, Note_on_c, 1, 31, 0
10, 56064, Note_on_c, 1, 29, 110
10, 56158, Note_on_c, 1, 29, 0
10, 56160, Note_on_c, 1, 29, 110
10, 56254, Note_on_c, 1, 29, 0
10, 56256, Note_on_c, 1, 29, 110
10, 56350, Note_on_c, 1, 29, 0
10, 56352, Note_on_c, 1, 29, 110
10, 56446, Note_on_c, 1, 29, 0
10, 56448, Note_on_c, 1, 29, 110
10, 56542, Note_on_c, 1, 29, 0
10, 56544, Note_on_c, 1, 29, 110
10, 56638, Note_on_c, 1, 29, 0
10, 56640, Note_on_c, 1, 29, 110
10, 56734, Note_on_c, 1, 29, 0
10, 56736, Note_on_c, 1, 29, 110
10, 56830, Note_on_c, 1, 29, 0
10, 56832, Note_on_c, 1, 26, 110
10, 56926, Note_on_c, 1, 26, 0
10, 56928, Note_on_c, 1, 26, 110
10, 57022, Note_on_c, 1, 26, 0
10, 57024, Note_on_c, 1, 26, 110
10, 57118, Note_on_c, 1, 26, 0
10, 57120, Note_on_c, 1, 26, 110
10, 57214, Note_on_c, 1, 26, 0
10, 57216, Note_on_c, 1, 26, 110
10, 57310, Note_on_c, 1, 26, 0
10, 57312, Note_on_c, 1, 26, 110
10, 57406, Note_on_c, 1, 26, 0
10, 57408, Note_on_c, 1, 26, 110
10, 57502, Note_on_c, 1, 26, 0
10, 57504, Note_on_c, 1, 26, 110
10, 57598, Note_on_c, 1, 26, 0
10, 57600, Note_on_c, 1, 31, 110
10, 57694, Note_on_c, 1, 31, 0
10, 57696, Note_on_c, 1, 31, 110
10, 57790, Note_on_c, 1, 31, 0
10, 57792, Note_on_c, 1, 31, 110
10, 57886, Note_on_c, 1, 31, 0
10, 57888, Note_on_c, 1, 31, 110
10, 57982, Note_on_c, 1, 31, 0
10, 57984, Note_on_c, 1, 31, 110
10, 58078, Note_on_c, 1, 31, 0
10, 58080, Note_on_c, 1, 31, 110
10, 58174, Note_on_c, 1, 31, 0
10, 58176, Note_on_c, 1, 31, 110
10, 58270, Note_on_c, 1, 31, 0
10, 58272, Note_on_c, 1, 31, 110
10, 58366, Note_on_c, 1, 31, 0
10, 58368, Note_on_c, 1, 31, 110
10, 58462, Note_on_c, 1, 31, 0
10, 58464, Note_on_c, 1, 31, 110
10, 58558, Note_on_c, 1, 31, 0
10, 58560, Note_on_c, 1, 31, 110
10, 58654, Note_on_c, 1, 31, 0
10, 58656, Note_on_c, 1, 31, 110
10, 58750, Note_on_c, 1, 31, 0
10, 58752, Note_on_c, 1, 31, 110
10, 58846, Note_on_c, 1, 31, 0
10, 58848, Note_on_c, 1, 31, 110
10, 58942, Note_on_c, 1, 31, 0
10, 58944, Note_on_c, 1, 31, 110
10, 59038, Note_on_c, 1, 31, 0
10, 59040, Note_on_c, 1, 31, 110
10, 59134, Note_on_c, 1, 31, 0
10, 59136, Note_on_c, 1, 36, 110
10, 59230, Note_on_c, 1, 36, 0
10, 59232, Note_on_c, 1, 36, 110
10, 59326, Note_on_c, 1, 36, 0
10, 59328, Note_on_c, 1, 36, 110
10, 59422, Note_on_c, 1, 36, 0
10, 59424, Note_on_c, 1, 36, 110
10, 59518, Note_on_c, 1, 36, 0
10, 59520, Note_on_c, 1, 36, 110
10, 59614, Note_on_c, 1, 36, 0
10, 59616, Note_on_c, 1, 36, 110
10, 59710, Note_on_c, 1, 36, 0
10, 59712, Note_on_c, 1, 36, 110
10, 59806, Note_on_c, 1, 36, 0
10, 59808, Note_on_c, 1, 36, 110
10, 59902, Note_on_c, 1, 36, 0
10, 59904, Note_on_c, 1, 35, 110
10, 59998, Note_on_c, 1, 35, 0
10, 60000, Note_on_c, 1, 35, 110
10, 60094, Note_on_c, 1, 35, 0
10, 60096, Note_on_c, 1, 35, 110
10, 60190, Note_on_c, 1, 35, 0
10, 60192, Note_on_c, 1, 35, 110
10, 60286, Note_on_c, 1, 35, 0
10, 60288, Note_on_c, 1, 35, 110
10, 60382, Note_on_c, 1, 35, 0
10, 60384, Note_on_c, 1, 35, 110
10, 60478, Note_on_c, 1, 35, 0
10, 60480, Note_on_c, 1, 35, 110
10, 60574, Note_on_c, 1, 35, 0
10, 60576, Note_on_c, 1, 35, 110
10, 60670, Note_on_c, 1, 35, 0
10, 60672, Note_on_c, 1, 33, 110
10, 60766, Note_on_c, 1, 33, 0
10, 60768, Note_on_c, 1, 33, 110
10, 60862, Note_on_c, 1, 33, 0
10, 60864, Note_on_c, 1, 33, 110
10, 60958, Note_on_c, 1, 33, 0
10, 60960, Note_on_c, 1, 33, 110
10, 61054, Note_on_c, 1, 33, 0
10, 61056, Note_on_c, 1, 33, 110
10, 61150, Note_on_c, 1, 33, 0
10, 61152, Note_on_c, 1, 33, 110
10, 61246, Note_on_c, 1, 33, 0
10, 61248, Note_on_c, 1, 33, 110
10, 61342, Note_on_c, 1, 33, 0
10, 61344, Note_on_c, 1, 33, 110
10, 61438, Note_on_c, 1, 33, 0
10, 61440, Note_on_c, 1, 33, 110
10, 61534, Note_on_c, 1, 33, 0
10, 61536, Note_on_c, 1, 33, 110
10, 61630, Note_on_c, 1, 33, 0
10, 61632, Note_on_c, 1, 36, 110
10, 61726, Note_on_c, 1, 36, 0
10, 61728, Note_on_c, 1, 33, 110
10, 61822, Note_on_c, 1, 33, 0
10, 61824, Note_on_c, 1, 33, 110
10, 61918, Note_on_c, 1, 33, 0
10, 61920, Note_on_c, 1, 33, 110
10, 62014, Note_on_c, 1, 33, 0
10, 62016, Note_on_c, 1, 31, 110
10, 62110, Note_on_c, 1, 31, 0
10, 62112, Note_on_c, 1, 31, 110
10, 62206, Note_on_c, 1, 31, 0
10, 62208, Note_on_c, 1, 29, 110
10, 62302, Note_on_c, 1, 29, 0
10, 62304, Note_on_c, 1, 29, 110
10, 62398, Note_on_c, 1, 29, 0
10, 62400, Note_on_c, 1, 29, 110
10, 62494, Note_on_c, 1, 29, 0
10, 62496, Note_on_c, 1, 29, 110
10, 62590, Note_on_c, 1, 29, 0
10, 62592, Note_on_c, 1, 29, 110
10, 62686, Note_on_c, 1, 29, 0
10, 62688, Note_on_c, 1, 29, 110
10, 62782, Note_on_c, 1, 29, 0
10, 62784, Note_on_c, 1, 29, 110
10, 62878, Note_on_c, 1, 29, 0
10, 62880, Note_on_c, 1, 29, 110
10, 62974, Note_on_c, 1, 29, 0
10, 62976, Note_on_c, 1, 26, 110
10, 63070, Note_on_c, 1, 26, 0
10, 63072, Note_on_c, 1, 26, 110
10, 63166, Note_on_c, 1, 26, 0
10, 63168, Note_on_c, 1, 26, 110
10, 63262, Note_on_c, 1, 26, 0
10, 63264, Note_on_c, 1, 26, 110
10, 63358, Note_on_c, 1, 26, 0
10, 63360, Note_on_c, 1, 26, 110
10, 63454, Note_on_c, 1, 26, 0
10, 63456, Note_on_c, 1, 26, 110
10, 63550, Note_on_c, 1, 26, 0
10, 63552, Note_on_c, 1, 26, 110
10, 63646, Note_on_c, 1, 26, 0
10, 63648, Note_on_c, 1, 26, 110
10, 63742, Note_on_c, 1, 26, 0
10, 63744, Note_on_c, 1, 31, 110
10, 63838, Note_on_c, 1, 31, 0
10, 63840, Note_on_c, 1, 31, 110
10, 63934, Note_on_c, 1, 31, 0
10, 63936, Note_on_c, 1, 31, 110
10, 64030, Note_on_c, 1, 31, 0
10, 64032, Note_on_c, 1, 31, 110
10, 64126, Note_on_c, 1, 31, 0
10, 64128, Note_on_c, 1, 31, 110
10, 64222, Note_on_c, 1, 31, 0
10, 64224, Note_on_c, 1, 31, 110
10, 64318, Note_on_c, 1, 31, 0
10, 64320, Note_on_c, 1, 31, 110
10, 64414, Note_on_c, 1, 31, 0
10, 64416, Note_on_c, 1, 31, 110
10, 64510, Note_on_c, 1, 31, 0
10, 64608, Note_on_c, 1, 29, 110
10, 64864, Note_on_c, 1, 29, 0
10, 64896, Note_on_c, 1, 29, 110
10, 65056, Note_on_c, 1, 29, 0
10, 65088, Note_on_c, 1, 31, 110
10, 65248, Note_on_c, 1, 31, 0
10, 65280, Note_on_c, 1, 29, 110
10, 65616, Note_on_c, 1, 29, 0
10, 65664, Note_on_c, 1, 29, 110
10, 66000, Note_on_c, 1, 29, 0
10, 66144, Note_on_c, 1, 31, 110
10, 66400, Note_on_c, 1, 31, 0
10, 66432, Note_on_c, 1, 31, 110
10, 66574, Note_on_c, 1, 31, 0
10, 66576, Note_on_c, 1, 31, 110
10, 66718, Note_on_c, 1, 31, 0
10, 66720, Note_on_c, 1, 31, 110
10, 66814, Note_on_c, 1, 31, 0
10, 66816, Note_on_c, 1, 33, 110
10, 67152, Note_on_c, 1, 33, 0
10, 67200, Note_on_c, 1, 31, 110
10, 67536, Note_on_c, 1, 31, 0
10, 67584, Note_on_c, 1, 29, 110
10, 68446, Note_on_c, 1, 29, 0
10, 68448, Note_on_c, 1, 29, 110
10, 68542, Note_on_c, 1, 29, 0
10, 68544, Note_on_c, 1, 29, 110
10, 68638, Note_on_c, 1, 29, 0
10, 68640, Note_on_c, 1, 29, 110
10, 68734, Note_on_c, 1, 29, 0
10, 68736, Note_on_c, 1, 29, 110
10, 68830, Note_on_c, 1, 29, 0
10, 68832, Note_on_c, 1, 29, 110
10, 68926, Note_on_c, 1, 29, 0
10, 68928, Note_on_c, 1, 29, 110
10, 69022, Note_on_c, 1, 29, 0
10, 69024, Note_on_c, 1, 29, 110
10, 69840, Note_on_c, 1, 29, 0
10, 69888, Note_on_c, 1, 26, 110
10, 69982, Note_on_c, 1, 26, 0
10, 69984, Note_on_c, 1, 26, 110
10, 70078, Note_on_c, 1, 26, 0
10, 70080, Note_on_c, 1, 29, 110
10, 70174, Note_on_c, 1, 29, 0
10, 70176, Note_on_c, 1, 26, 110
10, 70270, Note_on_c, 1, 26, 0
10, 70272, Note_on_c, 1, 26, 110
10, 70366, Note_on_c, 1, 26, 0
10, 70368, Note_on_c, 1, 26, 110
10, 70462, Note_on_c, 1, 26, 0
10, 70464, Note_on_c, 1, 29, 110
10, 70558, Note_on_c, 1, 29, 0
10, 70560, Note_on_c, 1, 26, 110
10, 70654, Note_on_c, 1, 26, 0
10, 70656, Note_on_c, 1, 26, 110
10, 70750, Note_on_c, 1, 26, 0
10, 70752, Note_on_c, 1, 26, 110
10, 70846, Note_on_c, 1, 26, 0
10, 70848, Note_on_c, 1, 29, 110
10, 70942, Note_on_c, 1, 29, 0
10, 70944, Note_on_c, 1, 26, 110
10, 71038, Note_on_c, 1, 26, 0
10, 71040, Note_on_c, 1, 26, 110
10, 71134, Note_on_c, 1, 26, 0
10, 71136, Note_on_c, 1, 26, 110
10, 71230, Note_on_c, 1, 26, 0
10, 71232, Note_on_c, 1, 29, 110
10, 71326, Note_on_c, 1, 29, 0
10, 71328, Note_on_c, 1, 26, 110
10, 71422, Note_on_c, 1, 26, 0
10, 71520, Note_on_c, 1, 31, 110
10, 71614, Note_on_c, 1, 31, 0
10, 71616, Note_on_c, 1, 31, 110
10, 71776, Note_on_c, 1, 31, 0
10, 71808, Note_on_c, 1, 31, 110
10, 71902, Note_on_c, 1, 31, 0
10, 71904, Note_on_c, 1, 31, 110
10, 71998, Note_on_c, 1, 31, 0
10, 72096, Note_on_c, 1, 31, 110
10, 72286, Note_on_c, 1, 31, 0
10, 72288, Note_on_c, 1, 29, 110
10, 72382, Note_on_c, 1, 29, 0
10, 72384, Note_on_c, 1, 29, 110
10, 72478, Note_on_c, 1, 29, 0
10, 72480, Note_on_c, 1, 31, 110
10, 72574, Note_on_c, 1, 31, 0
10, 72576, Note_on_c, 1, 31, 110
10, 72736, Note_on_c, 1, 31, 0
10, 79104, Note_on_c, 1, 37, 110
10, 79198, Note_on_c, 1, 37, 0
10, 79200, Note_on_c, 1, 37, 110
10, 79294, Note_on_c, 1, 37, 0
10, 79296, Note_on_c, 1, 37, 110
10, 79390, Note_on_c, 1, 37, 0
10, 79392, Note_on_c, 1, 37, 110
10, 79486, Note_on_c, 1, 37, 0
10, 79488, Note_on_c, 1, 37, 110
10, 79582, Note_on_c, 1, 37, 0
10, 79584, Note_on_c, 1, 37, 110
10, 79678, Note_on_c, 1, 37, 0
10, 79680, Note_on_c, 1, 37, 110
10, 79774, Note_on_c, 1, 37, 0
10, 79776, Note_on_c, 1, 37, 110
10, 79870, Note_on_c, 1, 37, 0
10, 79872, Note_on_c, 1, 36, 110
10, 79966, Note_on_c, 1, 36, 0
10, 79968, Note_on_c, 1, 36, 110
10, 80062, Note_on_c, 1, 36, 0
10, 80064, Note_on_c, 1, 36, 110
10, 80158, Note_on_c, 1, 36, 0
10, 80160, Note_on_c, 1, 36, 110
10, 80254, Note_on_c, 1, 36, 0
10, 80256, Note_on_c, 1, 36, 110
10, 80350, Note_on_c, 1, 36, 0
10, 80352, Note_on_c, 1, 36, 110
10, 80446, Note_on_c, 1, 36, 0
10, 80448, Note_on_c, 1, 36, 110
10, 80542, Note_on_c, 1, 36, 0
10, 80544, Note_on_c, 1, 36, 110
10, 80638, Note_on_c, 1, 36, 0
10, 80640, Note_on_c, 1, 34, 110
10, 80734, Note_on_c, 1, 34, 0
10, 80736, Note_on_c, 1, 34, 110
10, 80830, Note_on_c, 1, 34, 0
10, 80832, Note_on_c, 1, 34, 110
10, 80926, Note_on_c, 1, 34, 0
10, 80928, Note_on_c, 1, 34, 110
10, 81022, Note_on_c, 1, 34, 0
10, 81024, Note_on_c, 1, 34, 110
10, 81118, Note_on_c, 1, 34, 0
10, 81120, Note_on_c, 1, 34, 110
10, 81214, Note_on_c, 1, 34, 0
10, 81216, Note_on_c, 1, 34, 110
10, 81310, Note_on_c, 1, 34, 0
10, 81312, Note_on_c, 1, 34, 110
10, 81406, Note_on_c, 1, 34, 0
10, 81408, Note_on_c, 1, 34, 110
10, 81502, Note_on_c, 1, 34, 0
10, 81504, Note_on_c, 1, 34, 110
10, 81598, Note_on_c, 1, 34, 0
10, 81600, Note_on_c, 1, 37, 110
10, 81694, Note_on_c, 1, 37, 0
10, 81696, Note_on_c, 1, 34, 110
10, 81790, Note_on_c, 1, 34, 0
10, 81792, Note_on_c, 1, 34, 110
10, 81886, Note_on_c, 1, 34, 0
10, 81888, Note_on_c, 1, 34, 110
10, 81982, Note_on_c, 1, 34, 0
10, 81984, Note_on_c, 1, 32, 110
10, 82078, Note_on_c, 1, 32, 0
10, 82080, Note_on_c, 1, 32, 110
10, 82174, Note_on_c, 1, 32, 0
10, 82176, Note_on_c, 1, 30, 110
10, 82270, Note_on_c, 1, 30, 0
10, 82272, Note_on_c, 1, 30, 110
10, 82366, Note_on_c, 1, 30, 0
10, 82368, Note_on_c, 1, 30, 110
10, 82462, Note_on_c, 1, 30, 0
10, 82464, Note_on_c, 1, 30, 110
10, 82558, Note_on_c, 1, 30, 0
10, 82560, Note_on_c, 1, 30, 110
10, 82654, Note_on_c, 1, 30, 0
10, 82656, Note_on_c, 1, 30, 110
10, 82750, Note_on_c, 1, 30, 0
10, 82752, Note_on_c, 1, 30, 110
10, 82846, Note_on_c, 1, 30, 0
10, 82848, Note_on_c, 1, 30, 110
10, 82942, Note_on_c, 1, 30, 0
10, 82944, Note_on_c, 1, 27, 110
10, 83038, Note_on_c, 1, 27, 0
10, 83040, Note_on_c, 1, 27, 110
10, 83134, Note_on_c, 1, 27, 0
10, 83136, Note_on_c, 1, 27, 110
10, 83230, Note_on_c, 1, 27, 0
10, 83232, Note_on_c, 1, 27, 110
10, 83326, Note_on_c, 1, 27, 0
10, 83328, Note_on_c, 1, 27, 110
10, 83422, Note_on_c, 1, 27, 0
10, 83424, Note_on_c, 1, 27, 110
10, 83518, Note_on_c, 1, 27, 0
10, 83520, Note_on_c, 1, 27, 110
10, 83614, Note_on_c, 1, 27, 0
10, 83616, Note_on_c, 1, 27, 110
10, 83710, Note_on_c, 1, 27, 0
10, 83712, Note_on_c, 1, 32, 110
10, 83806, Note_on_c, 1, 32, 0
10, 83808, Note_on_c, 1, 32, 110
10, 83902, Note_on_c, 1, 32, 0
10, 83904, Note_on_c, 1, 32, 110
10, 83998, Note_on_c, 1, 32, 0
10, 84000, Note_on_c, 1, 32, 110
10, 84094, Note_on_c, 1, 32, 0
10, 84096, Note_on_c, 1, 32, 110
10, 84190, Note_on_c, 1, 32, 0
10, 84192, Note_on_c, 1, 32, 110
10, 84286, Note_on_c, 1, 32, 0
10, 84288, Note_on_c, 1, 32, 110
10, 84382, Note_on_c, 1, 32, 0
10, 84384, Note_on_c, 1, 32, 110
10, 84478, Note_on_c, 1, 32, 0
10, 84480, Note_on_c, 1, 32, 110
10, 84574, Note_on_c, 1, 32, 0
10, 84576, Note_on_c, 1, 32, 110
10, 84670, Note_on_c, 1, 32, 0
10, 84672, Note_on_c, 1, 32, 110
10, 84766, Note_on_c, 1, 32, 0
10, 84768, Note_on_c, 1, 32, 110
10, 84862, Note_on_c, 1, 32, 0
10, 84864, Note_on_c, 1, 32, 110
10, 84958, Note_on_c, 1, 32, 0
10, 84960, Note_on_c, 1, 32, 110
10, 85054, Note_on_c, 1, 32, 0
10, 85056, Note_on_c, 1, 32, 110
10, 85150, Note_on_c, 1, 32, 0
10, 85152, Note_on_c, 1, 32, 110
10, 85246, Note_on_c, 1, 32, 0
10, 85248, Note_on_c, 1, 37, 110
10, 85342, Note_on_c, 1, 37, 0
10, 85344, Note_on_c, 1, 37, 110
10, 85438, Note_on_c, 1, 37, 0
10, 85440, Note_on_c, 1, 37, 110
10, 85534, Note_on_c, 1, 37, 0
10, 85536, Note_on_c, 1, 37, 110
10, 85630, Note_on_c, 1, 37, 0
10, 85632, Note_on_c, 1, 37, 110
10, 85726, Note_on_c, 1, 37, 0
10, 85728, Note_on_c, 1, 37, 110
10, 85822, Note_on_c, 1, 37, 0
10, 85824, Note_on_c, 1, 37, 110
10, 85918, Note_on_c, 1, 37, 0
10, 85920, Note_on_c, 1, 37, 110
10, 86014, Note_on_c, 1, 37, 0
10, 86016, Note_on_c, 1, 36, 110
10, 86110, Note_on_c, 1, 36, 0
10, 86112, Note_on_c, 1, 36, 110
10, 86206, Note_on_c, 1, 36, 0
10, 86208, Note_on_c, 1, 36, 110
10, 86302, Note_on_c, 1, 36, 0
10, 86304, Note_on_c, 1, 36, 110
10, 86398, Note_on_c, 1, 36, 0
10, 86400, Note_on_c, 1, 36, 110
10, 86494, Note_on_c, 1, 36, 0
10, 86496, Note_on_c, 1, 36, 110
10, 86590, Note_on_c, 1, 36, 0
10, 86592, Note_on_c, 1, 36, 110
10, 86686, Note_on_c, 1, 36, 0
10, 86688, Note_on_c, 1, 36, 110
10, 86782, Note_on_c, 1, 36, 0
10, 86784, Note_on_c, 1, 34, 110
10, 86878, Note_on_c, 1, 34, 0
10, 86880, Note_on_c, 1, 34, 110
10, 86974, Note_on_c, 1, 34, 0
10, 86976, Note_on_c, 1, 34, 110
10, 87070, Note_on_c, 1, 34, 0
10, 87072, Note_on_c, 1, 34, 110
10, 87166, Note_on_c, 1, 34, 0
10, 87168, Note_on_c, 1, 34, 110
10, 87262, Note_on_c, 1, 34, 0
10, 87264, Note_on_c, 1, 34, 110
10, 87358, Note_on_c, 1, 34, 0
10, 87360, Note_on_c, 1, 34, 110
10, 87454, Note_on_c, 1, 34, 0
10, 87456, Note_on_c, 1, 34, 110
10, 87550, Note_on_c, 1, 34, 0
10, 87552, Note_on_c, 1, 34, 110
10, 87646, Note_on_c, 1, 34, 0
10, 87648, Note_on_c, 1, 34, 110
10, 87742, Note_on_c, 1, 34, 0
10, 87744, Note_on_c, 1, 37, 110
10, 87838, Note_on_c, 1, 37, 0
10, 87840, Note_on_c, 1, 34, 110
10, 87934, Note_on_c, 1, 34, 0
10, 87936, Note_on_c, 1, 34, 110
10, 88030, Note_on_c, 1, 34, 0
10, 88032, Note_on_c, 1, 34, 110
10, 88126, Note_on_c, 1, 34, 0
10, 88128, Note_on_c, 1, 32, 110
10, 88222, Note_on_c, 1, 32, 0
10, 88224, Note_on_c, 1, 32, 110
10, 88318, Note_on_c, 1, 32, 0
10, 88320, Note_on_c, 1, 30, 110
10, 88414, Note_on_c, 1, 30, 0
10, 88416, Note_on_c, 1, 30, 110
10, 88510, Note_on_c, 1, 30, 0
10, 88512, Note_on_c, 1, 30, 110
10, 88606, Note_on_c, 1, 30, 0
10, 88608, Note_on_c, 1, 30, 110
10, 88702, Note_on_c, 1, 30, 0
10, 88704, Note_on_c, 1, 30, 110
10, 88798, Note_on_c, 1, 30, 0
10, 88800, Note_on_c, 1, 30, 110
10, 88894, Note_on_c, 1, 30, 0
10, 88896, Note_on_c, 1, 30, 110
10, 88990, Note_on_c, 1, 30, 0
10, 88992, Note_on_c, 1, 30, 110
10, 89086, Note_on_c, 1, 30, 0
10, 89088, Note_on_c, 1, 27, 110
10, 89182, Note_on_c, 1, 27, 0
10, 89184, Note_on_c, 1, 27, 110
10, 89278, Note_on_c, 1, 27, 0
10, 89280, Note_on_c, 1, 27, 110
10, 89374, Note_on_c, 1, 27, 0
10, 89376, Note_on_c, 1, 27, 110
10, 89470, Note_on_c, 1, 27, 0
10, 89472, Note_on_c, 1, 27, 110
10, 89566, Note_on_c, 1, 27, 0
10, 89568, Note_on_c, 1, 27, 110
10, 89662, Note_on_c, 1, 27, 0
10, 89664, Note_on_c, 1, 27, 110
10, 89758, Note_on_c, 1, 27, 0
10, 89760, Note_on_c, 1, 27, 110
10, 89854, Note_on_c, 1, 27, 0
10, 89856, Note_on_c, 1, 32, 110
10, 89950, Note_on_c, 1, 32, 0
10, 89952, Note_on_c, 1, 32, 110
10, 90046, Note_on_c, 1, 32, 0
10, 90048, Note_on_c, 1, 32, 110
10, 90142, Note_on_c, 1, 32, 0
10, 90144, Note_on_c, 1, 32, 110
10, 90238, Note_on_c, 1, 32, 0
10, 90240, Note_on_c, 1, 32, 110
10, 90334, Note_on_c, 1, 32, 0
10, 90336, Note_on_c, 1, 32, 110
10, 90430, Note_on_c, 1, 32, 0
10, 90432, Note_on_c, 1, 32, 110
10, 90526, Note_on_c, 1, 32, 0
10, 90528, Note_on_c, 1, 32, 110
10, 90622, Note_on_c, 1, 32, 0
10, 90624, Note_on_c, 1, 32, 110
10, 90718, Note_on_c, 1, 32, 0
10, 90720, Note_on_c, 1, 30, 110
10, 90814, Note_on_c, 1, 30, 0
10, 90816, Note_on_c, 1, 30, 110
10, 90910, Note_on_c, 1, 30, 0
10, 90912, Note_on_c, 1, 32, 110
10, 91006, Note_on_c, 1, 32, 0
10, 91008, Note_on_c, 1, 32, 110
10, 91344, Note_on_c, 1, 32, 0
10, 91392, Note_on_c, 1, 49, 110
10, 92496, Note_on_c, 1, 49, 0
10, 92736, Note_on_c, 1, 49, 110
10, 92896, Note_on_c, 1, 49, 0
10, 92928, Note_on_c, 1, 47, 110
10, 94032, Note_on_c, 1, 47, 0
10, 94272, Note_on_c, 1, 47, 110
10, 94432, Note_on_c, 1, 47, 0
10, 94464, Note_on_c, 1, 45, 110
10, 95184, Note_on_c, 1, 45, 0
10, 95232, Note_on_c, 1, 44, 110
10, 95952, Note_on_c, 1, 44, 0
10, 96000, Note_on_c, 1, 42, 110
10, 96720, Note_on_c, 1, 42, 0
10, 96768, Note_on_c, 1, 41, 110
10, 97104, Note_on_c, 1, 41, 0
10, 97152, Note_on_c, 1, 39, 110
10, 97488, Note_on_c, 1, 39, 0
10, 97536, Note_on_c, 1, 37, 110
10, 99232, Note_on_c, 1, 37, 0
10, 99232, End_track
11, 0, Start_track
11, 0, MIDI_port, 0
11, 0, Title_t, "POWER DRUMS"
11, 0, Program_c, 9, 16
11, 0, Pitch_bend_c, 9, 8192
11, 0, Control_c, 9, 7, 127
11, 0, Control_c, 9, 10, 64
11, 3072, Note_on_c, 9, 55, 110
11, 3232, Note_on_c, 9, 55, 0
11, 3264, Note_on_c, 9, 55, 110
11, 3424, Note_on_c, 9, 55, 0
11, 3456, Note_on_c, 9, 55, 110
11, 3616, Note_on_c, 9, 55, 0
11, 3648, Note_on_c, 9, 57, 110
11, 3808, Note_on_c, 9, 57, 0
11, 3840, Note_on_c, 9, 57, 110
11, 4000, Note_on_c, 9, 57, 0
11, 4224, Note_on_c, 9, 49, 110
11, 4384, Note_on_c, 9, 49, 0
11, 4608, Note_on_c, 9, 57, 110
11, 4768, Note_on_c, 9, 57, 0
11, 5184, Note_on_c, 9, 49, 110
11, 5344, Note_on_c, 9, 49, 0
11, 5376, Note_on_c, 9, 57, 110
11, 5536, Note_on_c, 9, 57, 0
11, 5760, Note_on_c, 9, 50, 110
11, 5818, Note_on_c, 9, 50, 0
11, 5820, Note_on_c, 9, 50, 110
11, 5890, Note_on_c, 9, 50, 0
11, 5892, Note_on_c, 9, 48, 110
11, 5950, Note_on_c, 9, 48, 0
11, 5952, Note_on_c, 9, 47, 110
11, 6112, Note_on_c, 9, 47, 0
11, 6144, Note_on_c, 9, 57, 110
11, 6304, Note_on_c, 9, 57, 0
11, 6528, Note_on_c, 9, 50, 110
11, 6670, Note_on_c, 9, 50, 0
11, 6672, Note_on_c, 9, 48, 110
11, 6862, Note_on_c, 9, 48, 0
11, 6864, Note_on_c, 9, 47, 110
11, 7072, Note_on_c, 9, 47, 0
11, 7680, Note_on_c, 9, 57, 110
11, 7840, Note_on_c, 9, 57, 0
11, 8064, Note_on_c, 9, 50, 110
11, 8122, Note_on_c, 9, 50, 0
11, 8124, Note_on_c, 9, 50, 110
11, 8194, Note_on_c, 9, 50, 0
11, 8196, Note_on_c, 9, 47, 110
11, 8254, Note_on_c, 9, 47, 0
11, 8256, Note_on_c, 9, 45, 110
11, 8416, Note_on_c, 9, 45, 0
11, 8448, Note_on_c, 9, 57, 110
11, 8608, Note_on_c, 9, 57, 0
11, 8832, Note_on_c, 9, 49, 110
11, 8992, Note_on_c, 9, 49, 0
11, 9216, Note_on_c, 9, 57, 110
11, 9376, Note_on_c, 9, 57, 0
11, 9792, Note_on_c, 9, 49, 110
11, 9952, Note_on_c, 9, 49, 0
11, 20736, Note_on_c, 9, 49, 110
11, 20896, Note_on_c, 9, 49, 0
11, 23520, Note_on_c, 9, 46, 110
11, 23710, Note_on_c, 9, 46, 0
11, 23712, Note_on_c, 9, 46, 110
11, 23968, Note_on_c, 9, 46, 0
11, 26592, Note_on_c, 9, 46, 110
11, 26782, Note_on_c, 9, 46, 0
11, 26784, Note_on_c, 9, 46, 110
11, 27040, Note_on_c, 9, 46, 0
11, 29664, Note_on_c, 9, 46, 110
11, 29854, Note_on_c, 9, 46, 0
11, 29856, Note_on_c, 9, 46, 110
11, 30112, Note_on_c, 9, 46, 0
11, 32736, Note_on_c, 9, 50, 110
11, 32830, Note_on_c, 9, 50, 0
11, 32832, Note_on_c, 9, 48, 110
11, 32926, Note_on_c, 9, 48, 0
11, 32928, Note_on_c, 9, 47, 110
11, 33022, Note_on_c, 9, 47, 0
11, 33024, Note_on_c, 9, 49, 110
11, 33024, Note_on_c, 9, 57, 110
11, 33184, Note_on_c, 9, 49, 0
11, 33184, Note_on_c, 9, 57, 0
11, 34560, Note_on_c, 9, 49, 110
11, 34720, Note_on_c, 9, 49, 0
11, 34944, Note_on_c, 9, 57, 110
11, 35104, Note_on_c, 9, 57, 0
11, 35424, Note_on_c, 9, 49, 110
11, 35518, Note_on_c, 9, 49, 0
11, 36192, Note_on_c, 9, 50, 110
11, 36238, Note_on_c, 9, 50, 0
11, 36240, Note_on_c, 9, 50, 110
11, 36286, Note_on_c, 9, 50, 0
11, 36288, Note_on_c, 9, 50, 110
11, 36382, Note_on_c, 9, 50, 0
11, 36384, Note_on_c, 9, 48, 110
11, 36478, Note_on_c, 9, 48, 0
11, 36480, Note_on_c, 9, 47, 110
11, 36640, Note_on_c, 9, 47, 0
11, 36672, Note_on_c, 9, 45, 110
11, 36766, Note_on_c, 9, 45, 0
11, 36768, Note_on_c, 9, 49, 110
11, 36768, Note_on_c, 9, 57, 110
11, 36862, Note_on_c, 9, 49, 0
11, 36862, Note_on_c, 9, 57, 0
11, 40704, Note_on_c, 9, 49, 110
11, 40704, Note_on_c, 9, 57, 110
11, 40864, Note_on_c, 9, 49, 0
11, 40864, Note_on_c, 9, 57, 0
11, 43488, Note_on_c, 9, 46, 110
11, 43582, Note_on_c, 9, 46, 0
11, 43680, Note_on_c, 9, 46, 110
11, 43774, Note_on_c, 9, 46, 0
11, 46560, Note_on_c, 9, 46, 110
11, 46654, Note_on_c, 9, 46, 0
11, 46752, Note_on_c, 9, 46, 110
11, 46846, Note_on_c, 9, 46, 0
11, 49632, Note_on_c, 9, 46, 110
11, 49726, Note_on_c, 9, 46, 0
11, 49824, Note_on_c, 9, 46, 110
11, 49918, Note_on_c, 9, 46, 0
11, 52896, Note_on_c, 9, 49, 110
11, 52896, Note_on_c, 9, 57, 110
11, 52990, Note_on_c, 9, 49, 0
11, 52990, Note_on_c, 9, 57, 0
11, 52992, Note_on_c, 9, 49, 110
11, 52992, Note_on_c, 9, 57, 110
11, 53152, Note_on_c, 9, 49, 0
11, 53152, Note_on_c, 9, 57, 0
11, 55776, Note_on_c, 9, 46, 110
11, 55870, Note_on_c, 9, 46, 0
11, 55968, Note_on_c, 9, 46, 110
11, 56062, Note_on_c, 9, 46, 0
11, 58848, Note_on_c, 9, 46, 110
11, 58942, Note_on_c, 9, 46, 0
11, 59040, Note_on_c, 9, 46, 110
11, 59134, Note_on_c, 9, 46, 0
11, 61920, Note_on_c, 9, 46, 110
11, 62014, Note_on_c, 9, 46, 0
11, 62112, Note_on_c, 9, 46, 110
11, 62206, Note_on_c, 9, 46, 0
11, 64992, Note_on_c, 9, 50, 110
11, 65086, Note_on_c, 9, 50, 0
11, 65088, Note_on_c, 9, 48, 110
11, 65182, Note_on_c, 9, 48, 0
11, 65184, Note_on_c, 9, 47, 110
11, 65278, Note_on_c, 9, 47, 0
11, 65280, Note_on_c, 9, 49, 110
11, 65280, Note_on_c, 9, 57, 110
11, 65440, Note_on_c, 9, 49, 0
11, 65440, Note_on_c, 9, 57, 0
11, 66816, Note_on_c, 9, 49, 110
11, 66976, Note_on_c, 9, 49, 0
11, 67200, Note_on_c, 9, 57, 110
11, 67360, Note_on_c, 9, 57, 0
11, 67680, Note_on_c, 9, 49, 110
11, 67774, Note_on_c, 9, 49, 0
11, 68448, Note_on_c, 9, 50, 110
11, 68494, Note_on_c, 9, 50, 0
11, 68496, Note_on_c, 9, 50, 110
11, 68542, Note_on_c, 9, 50, 0
11, 68544, Note_on_c, 9, 50, 110
11, 68638, Note_on_c, 9, 50, 0
11, 68640, Note_on_c, 9, 48, 110
11, 68734, Note_on_c, 9, 48, 0
11, 68736, Note_on_c, 9, 47, 110
11, 68896, Note_on_c, 9, 47, 0
11, 68928, Note_on_c, 9, 45, 110
11, 69022, Note_on_c, 9, 45, 0
11, 69024, Note_on_c, 9, 49, 110
11, 69024, Note_on_c, 9, 57, 110
11, 69118, Note_on_c, 9, 49, 0
11, 69118, Note_on_c, 9, 57, 0
11, 78720, Note_on_c, 9, 47, 110
11, 78766, Note_on_c, 9, 47, 0
11, 78768, Note_on_c, 9, 47, 110
11, 78814, Note_on_c, 9, 47, 0
11, 78816, Note_on_c, 9, 45, 110
11, 78862, Note_on_c, 9, 45, 0
11, 78864, Note_on_c, 9, 45, 110
11, 78910, Note_on_c, 9, 45, 0
11, 79104, Note_on_c, 9, 49, 110
11, 79104, Note_on_c, 9, 57, 110
11, 79264, Note_on_c, 9, 49, 0
11, 79264, Note_on_c, 9, 57, 0
11, 81888, Note_on_c, 9, 46, 110
11, 81982, Note_on_c, 9, 46, 0
11, 82080, Note_on_c, 9, 46, 110
11, 82174, Note_on_c, 9, 46, 0
11, 84960, Note_on_c, 9, 46, 110
11, 85054, Note_on_c, 9, 46, 0
11, 85152, Note_on_c, 9, 46, 110
11, 85246, Note_on_c, 9, 46, 0
11, 88032, Note_on_c, 9, 46, 110
11, 88126, Note_on_c, 9, 46, 0
11, 88224, Note_on_c, 9, 46, 110
11, 88318, Note_on_c, 9, 46, 0
11, 92544, Note_on_c, 9, 47, 110
11, 92602, Note_on_c, 9, 47, 0
11, 92604, Note_on_c, 9, 47, 110
11, 92674, Note_on_c, 9, 47, 0
11, 92676, Note_on_c, 9, 45, 110
11, 92734, Note_on_c, 9, 45, 0
11, 93696, Note_on_c, 9, 48, 110
11, 93754, Note_on_c, 9, 48, 0
11, 93756, Note_on_c, 9, 48, 110
11, 93826, Note_on_c, 9, 48, 0
11, 93828, Note_on_c, 9, 48, 110
11, 93886, Note_on_c, 9, 48, 0
11, 93888, Note_on_c, 9, 47, 110
11, 93946, Note_on_c, 9, 47, 0
11, 93948, Note_on_c, 9, 47, 110
11, 94018, Note_on_c, 9, 47, 0
11, 94020, Note_on_c, 9, 47, 110
11, 94078, Note_on_c, 9, 47, 0
11, 94080, Note_on_c, 9, 45, 110
11, 94138, Note_on_c, 9, 45, 0
11, 94140, Note_on_c, 9, 45, 110
11, 94270, Note_on_c, 9, 45, 0
11, 96000, Note_on_c, 9, 49, 110
11, 96528, Note_on_c, 9, 49, 0
11, 96768, Note_on_c, 9, 57, 110
11, 97104, Note_on_c, 9, 57, 0
11, 97152, Note_on_c, 9, 49, 110
11, 97312, Note_on_c, 9, 49, 0
11, 97536, Note_on_c, 9, 49, 110
11, 97536, Note_on_c, 9, 57, 110
11, 98064, Note_on_c, 9, 49, 0
11, 98064, Note_on_c, 9, 57, 0
11, 98976, Note_on_c, 9, 51, 110
11, 99022, Note_on_c, 9, 51, 0
11, 99024, Note_on_c, 9, 51, 110
11, 99070, Note_on_c, 9, 51, 0
11, 99072, Note_on_c, 9, 51, 110
11, 99232, Note_on_c, 9, 51, 0
11, 99232, End_track
12, 0, Start_track
12, 0, MIDI_port, 0
12, 0, Title_t, "POWER DRUMS-2"
12, 0, Program_c, 9, 16
12, 0, Pitch_bend_c, 9, 8192
12, 0, Control_c, 9, 7, 127
12, 0, Control_c, 9, 10, 64
12, 3648, Note_on_c, 9, 38, 110
12, 3808, Note_on_c, 9, 38, 0
12, 6012, Note_on_c, 9, 43, 110
12, 6082, Note_on_c, 9, 43, 0
12, 6084, Note_on_c, 9, 41, 110
12, 6304, Note_on_c, 9, 41, 0
12, 6912, Note_on_c, 9, 38, 110
12, 7072, Note_on_c, 9, 38, 0
12, 7200, Note_on_c, 9, 38, 110
12, 7246, Note_on_c, 9, 38, 0
12, 7248, Note_on_c, 9, 38, 110
12, 7294, Note_on_c, 9, 38, 0
12, 7296, Note_on_c, 9, 38, 110
12, 7456, Note_on_c, 9, 38, 0
12, 7488, Note_on_c, 9, 38, 110
12, 7648, Note_on_c, 9, 38, 0
12, 7680, Note_on_c, 9, 38, 110
12, 7840, Note_on_c, 9, 38, 0
12, 8316, Note_on_c, 9, 43, 110
12, 8386, Note_on_c, 9, 43, 0
12, 8388, Note_on_c, 9, 41, 110
12, 8608, Note_on_c, 9, 41, 0
12, 10176, Note_on_c, 9, 38, 110
12, 10336, Note_on_c, 9, 38, 0
12, 10560, Note_on_c, 9, 38, 110
12, 10720, Note_on_c, 9, 38, 0
12, 10944, Note_on_c, 9, 38, 110
12, 11104, Note_on_c, 9, 38, 0
12, 11328, Note_on_c, 9, 38, 110
12, 11488, Note_on_c, 9, 38, 0
12, 11520, Note_on_c, 9, 38, 110
12, 11680, Note_on_c, 9, 38, 0
12, 12288, Note_on_c, 9, 38, 110
12, 12448, Note_on_c, 9, 38, 0
12, 13056, Note_on_c, 9, 38, 110
12, 13114, Note_on_c, 9, 38, 0
12, 13116, Note_on_c, 9, 38, 110
12, 13186, Note_on_c, 9, 38, 0
12, 13188, Note_on_c, 9, 38, 110
12, 13246, Note_on_c, 9, 38, 0
12, 13248, Note_on_c, 9, 38, 110
12, 13306, Note_on_c, 9, 38, 0
12, 13308, Note_on_c, 9, 38, 110
12, 13378, Note_on_c, 9, 38, 0
12, 13380, Note_on_c, 9, 38, 110
12, 13438, Note_on_c, 9, 38, 0
12, 13440, Note_on_c, 9, 38, 110
12, 13582, Note_on_c, 9, 38, 0
12, 13584, Note_on_c, 9, 38, 110
12, 13630, Note_on_c, 9, 38, 0
12, 13776, Note_on_c, 9, 38, 110
12, 13822, Note_on_c, 9, 38, 0
12, 13824, Note_on_c, 9, 38, 110
12, 13984, Note_on_c, 9, 38, 0
12, 14400, Note_on_c, 9, 38, 110
12, 14560, Note_on_c, 9, 38, 0
12, 14592, Note_on_c, 9, 36, 110
12, 14592, Note_on_c, 9, 42, 110
12, 14686, Note_on_c, 9, 36, 0
12, 14686, Note_on_c, 9, 42, 0
12, 14688, Note_on_c, 9, 42, 110
12, 14782, Note_on_c, 9, 42, 0
12, 14784, Note_on_c, 9, 38, 110
12, 14784, Note_on_c, 9, 42, 110
12, 14878, Note_on_c, 9, 38, 0
12, 14878, Note_on_c, 9, 42, 0
12, 14880, Note_on_c, 9, 42, 110
12, 14974, Note_on_c, 9, 42, 0
12, 14976, Note_on_c, 9, 36, 110
12, 14976, Note_on_c, 9, 42, 110
12, 15070, Note_on_c, 9, 36, 0
12, 15070, Note_on_c, 9, 42, 0
12, 15072, Note_on_c, 9, 36, 110
12, 15072, Note_on_c, 9, 42, 110
12, 15166, Note_on_c, 9, 36, 0
12, 15166, Note_on_c, 9, 42, 0
12, 15168, Note_on_c, 9, 38, 110
12, 15168, Note_on_c, 9, 42, 110
12, 15262, Note_on_c, 9, 38, 0
12, 15262, Note_on_c, 9, 42, 0
12, 15264, Note_on_c, 9, 36, 110
12, 15264, Note_on_c, 9, 42, 110
12, 15358, Note_on_c, 9, 36, 0
12, 15358, Note_on_c, 9, 42, 0
12, 15360, Note_on_c, 9, 36, 110
12, 15360, Note_on_c, 9, 42, 110
12, 15454, Note_on_c, 9, 36, 0
12, 15454, Note_on_c, 9, 42, 0
12, 15456, Note_on_c, 9, 42, 110
12, 15550, Note_on_c, 9, 42, 0
12, 15552, Note_on_c, 9, 38, 110
12, 15552, Note_on_c, 9, 42, 110
12, 15646, Note_on_c, 9, 38, 0
12, 15646, Note_on_c, 9, 42, 0
12, 15648, Note_on_c, 9, 42, 110
12, 15742, Note_on_c, 9, 42, 0
12, 15744, Note_on_c, 9, 36, 110
12, 15744, Note_on_c, 9, 42, 110
12, 15838, Note_on_c, 9, 36, 0
12, 15838, Note_on_c, 9, 42, 0
12, 15840, Note_on_c, 9, 36, 110
12, 15840, Note_on_c, 9, 42, 110
12, 15934, Note_on_c, 9, 36, 0
12, 15934, Note_on_c, 9, 42, 0
12, 15936, Note_on_c, 9, 38, 110
12, 15936, Note_on_c, 9, 42, 110
12, 16030, Note_on_c, 9, 38, 0
12, 16030, Note_on_c, 9, 42, 0
12, 16032, Note_on_c, 9, 36, 110
12, 16032, Note_on_c, 9, 42, 110
12, 16126, Note_on_c, 9, 36, 0
12, 16126, Note_on_c, 9, 42, 0
12, 16128, Note_on_c, 9, 36, 110
12, 16128, Note_on_c, 9, 42, 110
12, 16222, Note_on_c, 9, 36, 0
12, 16222, Note_on_c, 9, 42, 0
12, 16224, Note_on_c, 9, 42, 110
12, 16318, Note_on_c, 9, 42, 0
12, 16320, Note_on_c, 9, 38, 110
12, 16320, Note_on_c, 9, 42, 110
12, 16414, Note_on_c, 9, 38, 0
12, 16414, Note_on_c, 9, 42, 0
12, 16416, Note_on_c, 9, 42, 110
12, 16510, Note_on_c, 9, 42, 0
12, 16512, Note_on_c, 9, 36, 110
12, 16512, Note_on_c, 9, 42, 110
12, 16606, Note_on_c, 9, 36, 0
12, 16606, Note_on_c, 9, 42, 0
12, 16608, Note_on_c, 9, 36, 110
12, 16608, Note_on_c, 9, 42, 110
12, 16702, Note_on_c, 9, 36, 0
12, 16702, Note_on_c, 9, 42, 0
12, 16704, Note_on_c, 9, 38, 110
12, 16704, Note_on_c, 9, 42, 110
12, 16798, Note_on_c, 9, 38, 0
12, 16798, Note_on_c, 9, 42, 0
12, 16800, Note_on_c, 9, 36, 110
12, 16800, Note_on_c, 9, 42, 110
12, 16894, Note_on_c, 9, 36, 0
12, 16894, Note_on_c, 9, 42, 0
12, 16896, Note_on_c, 9, 36, 110
12, 16896, Note_on_c, 9, 42, 110
12, 16990, Note_on_c, 9, 36, 0
12, 16990, Note_on_c, 9, 42, 0
12, 16992, Note_on_c, 9, 42, 110
12, 17086, Note_on_c, 9, 42, 0
12, 17088, Note_on_c, 9, 38, 110
12, 17088, Note_on_c, 9, 42, 110
12, 17182, Note_on_c, 9, 38, 0
12, 17182, Note_on_c, 9, 42, 0
12, 17184, Note_on_c, 9, 42, 110
12, 17278, Note_on_c, 9, 42, 0
12, 17280, Note_on_c, 9, 36, 110
12, 17280, Note_on_c, 9, 42, 110
12, 17374, Note_on_c, 9, 36, 0
12, 17374, Note_on_c, 9, 42, 0
12, 17376, Note_on_c, 9, 36, 110
12, 17376, Note_on_c, 9, 42, 110
12, 17470, Note_on_c, 9, 36, 0
12, 17470, Note_on_c, 9, 42, 0
12, 17472, Note_on_c, 9, 38, 110
12, 17472, Note_on_c, 9, 42, 110
12, 17566, Note_on_c, 9, 38, 0
12, 17566, Note_on_c, 9, 42, 0
12, 17568, Note_on_c, 9, 36, 110
12, 17568, Note_on_c, 9, 42, 110
12, 17662, Note_on_c, 9, 36, 0
12, 17662, Note_on_c, 9, 42, 0
12, 17664, Note_on_c, 9, 36, 110
12, 17664, Note_on_c, 9, 42, 110
12, 17758, Note_on_c, 9, 36, 0
12, 17758, Note_on_c, 9, 42, 0
12, 17760, Note_on_c, 9, 42, 110
12, 17854, Note_on_c, 9, 42, 0
12, 17856, Note_on_c, 9, 38, 110
12, 17856, Note_on_c, 9, 42, 110
12, 17950, Note_on_c, 9, 38, 0
12, 17950, Note_on_c, 9, 42, 0
12, 17952, Note_on_c, 9, 42, 110
12, 18046, Note_on_c, 9, 42, 0
12, 18048, Note_on_c, 9, 36, 110
12, 18048, Note_on_c, 9, 42, 110
12, 18142, Note_on_c, 9, 36, 0
12, 18142, Note_on_c, 9, 42, 0
12, 18144, Note_on_c, 9, 36, 110
12, 18144, Note_on_c, 9, 42, 110
12, 18238, Note_on_c, 9, 36, 0
12, 18238, Note_on_c, 9, 42, 0
12, 18240, Note_on_c, 9, 38, 110
12, 18240, Note_on_c, 9, 42, 110
12, 18334, Note_on_c, 9, 38, 0
12, 18334, Note_on_c, 9, 42, 0
12, 18336, Note_on_c, 9, 36, 110
12, 18336, Note_on_c, 9, 42, 110
12, 18430, Note_on_c, 9, 36, 0
12, 18430, Note_on_c, 9, 42, 0
12, 18432, Note_on_c, 9, 36, 110
12, 18432, Note_on_c, 9, 42, 110
12, 18526, Note_on_c, 9, 36, 0
12, 18526, Note_on_c, 9, 42, 0
12, 18528, Note_on_c, 9, 42, 110
12, 18622, Note_on_c, 9, 42, 0
12, 18624, Note_on_c, 9, 38, 110
12, 18624, Note_on_c, 9, 42, 110
12, 18718, Note_on_c, 9, 38, 0
12, 18718, Note_on_c, 9, 42, 0
12, 18720, Note_on_c, 9, 42, 110
12, 18814, Note_on_c, 9, 42, 0
12, 18816, Note_on_c, 9, 36, 110
12, 18816, Note_on_c, 9, 42, 110
12, 18910, Note_on_c, 9, 36, 0
12, 18910, Note_on_c, 9, 42, 0
12, 18912, Note_on_c, 9, 36, 110
12, 18912, Note_on_c, 9, 42, 110
12, 19006, Note_on_c, 9, 36, 0
12, 19006, Note_on_c, 9, 42, 0
12, 19008, Note_on_c, 9, 38, 110
12, 19008, Note_on_c, 9, 42, 110
12, 19102, Note_on_c, 9, 38, 0
12, 19102, Note_on_c, 9, 42, 0
12, 19104, Note_on_c, 9, 36, 110
12, 19104, Note_on_c, 9, 42, 110
12, 19198, Note_on_c, 9, 36, 0
12, 19198, Note_on_c, 9, 42, 0
12, 19200, Note_on_c, 9, 36, 110
12, 19200, Note_on_c, 9, 42, 110
12, 19294, Note_on_c, 9, 36, 0
12, 19294, Note_on_c, 9, 42, 0
12, 19296, Note_on_c, 9, 42, 110
12, 19390, Note_on_c, 9, 42, 0
12, 19392, Note_on_c, 9, 38, 110
12, 19392, Note_on_c, 9, 42, 110
12, 19486, Note_on_c, 9, 38, 0
12, 19486, Note_on_c, 9, 42, 0
12, 19488, Note_on_c, 9, 42, 110
12, 19582, Note_on_c, 9, 42, 0
12, 19584, Note_on_c, 9, 36, 110
12, 19584, Note_on_c, 9, 42, 110
12, 19678, Note_on_c, 9, 36, 0
12, 19678, Note_on_c, 9, 42, 0
12, 19680, Note_on_c, 9, 36, 110
12, 19680, Note_on_c, 9, 42, 110
12, 19774, Note_on_c, 9, 36, 0
12, 19774, Note_on_c, 9, 42, 0
12, 19776, Note_on_c, 9, 38, 110
12, 19776, Note_on_c, 9, 42, 110
12, 19870, Note_on_c, 9, 38, 0
12, 19870, Note_on_c, 9, 42, 0
12, 19872, Note_on_c, 9, 36, 110
12, 19872, Note_on_c, 9, 42, 110
12, 19966, Note_on_c, 9, 36, 0
12, 19966, Note_on_c, 9, 42, 0
12, 19968, Note_on_c, 9, 36, 110
12, 19968, Note_on_c, 9, 42, 110
12, 20062, Note_on_c, 9, 36, 0
12, 20062, Note_on_c, 9, 42, 0
12, 20064, Note_on_c, 9, 38, 110
12, 20158, Note_on_c, 9, 38, 0
12, 20160, Note_on_c, 9, 38, 110
12, 20254, Note_on_c, 9, 38, 0
12, 20256, Note_on_c, 9, 38, 110
12, 20350, Note_on_c, 9, 38, 0
12, 20352, Note_on_c, 9, 38, 110
12, 20446, Note_on_c, 9, 38, 0
12, 20448, Note_on_c, 9, 38, 110
12, 20494, Note_on_c, 9, 38, 0
12, 20496, Note_on_c, 9, 38, 110
12, 20542, Note_on_c, 9, 38, 0
12, 20544, Note_on_c, 9, 38, 110
12, 20638, Note_on_c, 9, 38, 0
12, 20640, Note_on_c, 9, 38, 110
12, 20734, Note_on_c, 9, 38, 0
12, 20736, Note_on_c, 9, 36, 110
12, 20736, Note_on_c, 9, 42, 110
12, 20830, Note_on_c, 9, 36, 0
12, 20830, Note_on_c, 9, 42, 0
12, 20832, Note_on_c, 9, 42, 110
12, 20926, Note_on_c, 9, 42, 0
12, 20928, Note_on_c, 9, 38, 110
12, 20928, Note_on_c, 9, 42, 110
12, 21022, Note_on_c, 9, 38, 0
12, 21022, Note_on_c, 9, 42, 0
12, 21024, Note_on_c, 9, 42, 110
12, 21118, Note_on_c, 9, 42, 0
12, 21120, Note_on_c, 9, 36, 110
12, 21120, Note_on_c, 9, 42, 110
12, 21214, Note_on_c, 9, 36, 0
12, 21214, Note_on_c, 9, 42, 0
12, 21216, Note_on_c, 9, 36, 110
12, 21216, Note_on_c, 9, 42, 110
12, 21310, Note_on_c, 9, 36, 0
12, 21310, Note_on_c, 9, 42, 0
12, 21312, Note_on_c, 9, 38, 110
12, 21312, Note_on_c, 9, 42, 110
12, 21406, Note_on_c, 9, 38, 0
12, 21406, Note_on_c, 9, 42, 0
12, 21408, Note_on_c, 9, 36, 110
12, 21408, Note_on_c, 9, 42, 110
12, 21502, Note_on_c, 9, 36, 0
12, 21502, Note_on_c, 9, 42, 0
12, 21504, Note_on_c, 9, 36, 110
12, 21504, Note_on_c, 9, 42, 110
12, 21598, Note_on_c, 9, 36, 0
12, 21598, Note_on_c, 9, 42, 0
12, 21600, Note_on_c, 9, 42, 110
12, 21694, Note_on_c, 9, 42, 0
12, 21696, Note_on_c, 9, 38, 110
12, 21696, Note_on_c, 9, 42, 110
12, 21790, Note_on_c, 9, 38, 0
12, 21790, Note_on_c, 9, 42, 0
12, 21792, Note_on_c, 9, 42, 110
12, 21886, Note_on_c, 9, 42, 0
12, 21888, Note_on_c, 9, 36, 110
12, 21888, Note_on_c, 9, 42, 110
12, 21982, Note_on_c, 9, 36, 0
12, 21982, Note_on_c, 9, 42, 0
12, 21984, Note_on_c, 9, 36, 110
12, 21984, Note_on_c, 9, 42, 110
12, 22078, Note_on_c, 9, 36, 0
12, 22078, Note_on_c, 9, 42, 0
12, 22080, Note_on_c, 9, 38, 110
12, 22080, Note_on_c, 9, 42, 110
12, 22174, Note_on_c, 9, 38, 0
12, 22174, Note_on_c, 9, 42, 0
12, 22176, Note_on_c, 9, 36, 110
12, 22176, Note_on_c, 9, 42, 110
12, 22270, Note_on_c, 9, 36, 0
12, 22270, Note_on_c, 9, 42, 0
12, 22272, Note_on_c, 9, 36, 110
12, 22272, Note_on_c, 9, 42, 110
12, 22366, Note_on_c, 9, 36, 0
12, 22366, Note_on_c, 9, 42, 0
12, 22368, Note_on_c, 9, 42, 110
12, 22462, Note_on_c, 9, 42, 0
12, 22464, Note_on_c, 9, 38, 110
12, 22464, Note_on_c, 9, 42, 110
12, 22558, Note_on_c, 9, 38, 0
12, 22558, Note_on_c, 9, 42, 0
12, 22560, Note_on_c, 9, 42, 110
12, 22654, Note_on_c, 9, 42, 0
12, 22656, Note_on_c, 9, 36, 110
12, 22656, Note_on_c, 9, 42, 110
12, 22750, Note_on_c, 9, 36, 0
12, 22750, Note_on_c, 9, 42, 0
12, 22752, Note_on_c, 9, 36, 110
12, 22752, Note_on_c, 9, 42, 110
12, 22846, Note_on_c, 9, 36, 0
12, 22846, Note_on_c, 9, 42, 0
12, 22848, Note_on_c, 9, 38, 110
12, 22848, Note_on_c, 9, 42, 110
12, 22942, Note_on_c, 9, 38, 0
12, 22942, Note_on_c, 9, 42, 0
12, 22944, Note_on_c, 9, 36, 110
12, 22944, Note_on_c, 9, 42, 110
12, 23038, Note_on_c, 9, 36, 0
12, 23038, Note_on_c, 9, 42, 0
12, 23040, Note_on_c, 9, 36, 110
12, 23040, Note_on_c, 9, 42, 110
12, 23134, Note_on_c, 9, 36, 0
12, 23134, Note_on_c, 9, 42, 0
12, 23136, Note_on_c, 9, 42, 110
12, 23230, Note_on_c, 9, 42, 0
12, 23232, Note_on_c, 9, 38, 110
12, 23232, Note_on_c, 9, 42, 110
12, 23326, Note_on_c, 9, 38, 0
12, 23326, Note_on_c, 9, 42, 0
12, 23328, Note_on_c, 9, 42, 110
12, 23422, Note_on_c, 9, 42, 0
12, 23424, Note_on_c, 9, 36, 110
12, 23424, Note_on_c, 9, 42, 110
12, 23518, Note_on_c, 9, 36, 0
12, 23518, Note_on_c, 9, 42, 0
12, 23520, Note_on_c, 9, 36, 110
12, 23614, Note_on_c, 9, 36, 0
12, 23712, Note_on_c, 9, 36, 110
12, 23806, Note_on_c, 9, 36, 0
12, 23808, Note_on_c, 9, 36, 110
12, 23808, Note_on_c, 9, 42, 110
12, 23902, Note_on_c, 9, 36, 0
12, 23902, Note_on_c, 9, 42, 0
12, 23904, Note_on_c, 9, 42, 110
12, 23998, Note_on_c, 9, 42, 0
12, 24000, Note_on_c, 9, 38, 110
12, 24000, Note_on_c, 9, 42, 110
12, 24094, Note_on_c, 9, 38, 0
12, 24094, Note_on_c, 9, 42, 0
12, 24096, Note_on_c, 9, 42, 110
12, 24190, Note_on_c, 9, 42, 0
12, 24192, Note_on_c, 9, 36, 110
12, 24192, Note_on_c, 9, 42, 110
12, 24286, Note_on_c, 9, 36, 0
12, 24286, Note_on_c, 9, 42, 0
12, 24288, Note_on_c, 9, 36, 110
12, 24288, Note_on_c, 9, 42, 110
12, 24382, Note_on_c, 9, 36, 0
12, 24382, Note_on_c, 9, 42, 0
12, 24384, Note_on_c, 9, 38, 110
12, 24384, Note_on_c, 9, 42, 110
12, 24478, Note_on_c, 9, 38, 0
12, 24478, Note_on_c, 9, 42, 0
12, 24480, Note_on_c, 9, 36, 110
12, 24480, Note_on_c, 9, 42, 110
12, 24574, Note_on_c, 9, 36, 0
12, 24574, Note_on_c, 9, 42, 0
12, 24576, Note_on_c, 9, 36, 110
12, 24576, Note_on_c, 9, 42, 110
12, 24670, Note_on_c, 9, 36, 0
12, 24670, Note_on_c, 9, 42, 0
12, 24672, Note_on_c, 9, 42, 110
12, 24766, Note_on_c, 9, 42, 0
12, 24768, Note_on_c, 9, 38, 110
12, 24768, Note_on_c, 9, 42, 110
12, 24862, Note_on_c, 9, 38, 0
12, 24862, Note_on_c, 9, 42, 0
12, 24864, Note_on_c, 9, 42, 110
12, 24958, Note_on_c, 9, 42, 0
12, 24960, Note_on_c, 9, 36, 110
12, 24960, Note_on_c, 9, 42, 110
12, 25054, Note_on_c, 9, 36, 0
12, 25054, Note_on_c, 9, 42, 0
12, 25056, Note_on_c, 9, 36, 110
12, 25056, Note_on_c, 9, 42, 110
12, 25150, Note_on_c, 9, 36, 0
12, 25150, Note_on_c, 9, 42, 0
12, 25152, Note_on_c, 9, 38, 110
12, 25152, Note_on_c, 9, 42, 110
12, 25246, Note_on_c, 9, 38, 0
12, 25246, Note_on_c, 9, 42, 0
12, 25248, Note_on_c, 9, 36, 110
12, 25248, Note_on_c, 9, 42, 110
12, 25342, Note_on_c, 9, 36, 0
12, 25342, Note_on_c, 9, 42, 0
12, 25344, Note_on_c, 9, 36, 110
12, 25344, Note_on_c, 9, 42, 110
12, 25438, Note_on_c, 9, 36, 0
12, 25438, Note_on_c, 9, 42, 0
12, 25440, Note_on_c, 9, 42, 110
12, 25534, Note_on_c, 9, 42, 0
12, 25536, Note_on_c, 9, 38, 110
12, 25536, Note_on_c, 9, 42, 110
12, 25630, Note_on_c, 9, 38, 0
12, 25630, Note_on_c, 9, 42, 0
12, 25632, Note_on_c, 9, 42, 110
12, 25726, Note_on_c, 9, 42, 0
12, 25728, Note_on_c, 9, 36, 110
12, 25728, Note_on_c, 9, 42, 110
12, 25822, Note_on_c, 9, 36, 0
12, 25822, Note_on_c, 9, 42, 0
12, 25824, Note_on_c, 9, 36, 110
12, 25824, Note_on_c, 9, 42, 110
12, 25918, Note_on_c, 9, 36, 0
12, 25918, Note_on_c, 9, 42, 0
12, 25920, Note_on_c, 9, 38, 110
12, 25920, Note_on_c, 9, 42, 110
12, 26014, Note_on_c, 9, 38, 0
12, 26014, Note_on_c, 9, 42, 0
12, 26016, Note_on_c, 9, 36, 110
12, 26016, Note_on_c, 9, 42, 110
12, 26110, Note_on_c, 9, 36, 0
12, 26110, Note_on_c, 9, 42, 0
12, 26112, Note_on_c, 9, 36, 110
12, 26112, Note_on_c, 9, 42, 110
12, 26206, Note_on_c, 9, 36, 0
12, 26206, Note_on_c, 9, 42, 0
12, 26208, Note_on_c, 9, 42, 110
12, 26302, Note_on_c, 9, 42, 0
12, 26304, Note_on_c, 9, 38, 110
12, 26304, Note_on_c, 9, 42, 110
12, 26398, Note_on_c, 9, 38, 0
12, 26398, Note_on_c, 9, 42, 0
12, 26400, Note_on_c, 9, 42, 110
12, 26494, Note_on_c, 9, 42, 0
12, 26496, Note_on_c, 9, 36, 110
12, 26496, Note_on_c, 9, 42, 110
12, 26590, Note_on_c, 9, 36, 0
12, 26590, Note_on_c, 9, 42, 0
12, 26592, Note_on_c, 9, 36, 110
12, 26686, Note_on_c, 9, 36, 0
12, 26784, Note_on_c, 9, 36, 110
12, 26878, Note_on_c, 9, 36, 0
12, 26880, Note_on_c, 9, 36, 110
12, 26880, Note_on_c, 9, 42, 110
12, 26974, Note_on_c, 9, 36, 0
12, 26974, Note_on_c, 9, 42, 0
12, 26976, Note_on_c, 9, 42, 110
12, 27070, Note_on_c, 9, 42, 0
12, 27072, Note_on_c, 9, 38, 110
12, 27072, Note_on_c, 9, 42, 110
12, 27166, Note_on_c, 9, 38, 0
12, 27166, Note_on_c, 9, 42, 0
12, 27168, Note_on_c, 9, 42, 110
12, 27262, Note_on_c, 9, 42, 0
12, 27264, Note_on_c, 9, 36, 110
12, 27264, Note_on_c, 9, 42, 110
12, 27358, Note_on_c, 9, 36, 0
12, 27358, Note_on_c, 9, 42, 0
12, 27360, Note_on_c, 9, 36, 110
12, 27360, Note_on_c, 9, 42, 110
12, 27454, Note_on_c, 9, 36, 0
12, 27454, Note_on_c, 9, 42, 0
12, 27456, Note_on_c, 9, 38, 110
12, 27456, Note_on_c, 9, 42, 110
12, 27550, Note_on_c, 9, 38, 0
12, 27550, Note_on_c, 9, 42, 0
12, 27552, Note_on_c, 9, 36, 110
12, 27552, Note_on_c, 9, 42, 110
12, 27646, Note_on_c, 9, 36, 0
12, 27646, Note_on_c, 9, 42, 0
12, 27648, Note_on_c, 9, 36, 110
12, 27648, Note_on_c, 9, 42, 110
12, 27742, Note_on_c, 9, 36, 0
12, 27742, Note_on_c, 9, 42, 0
12, 27744, Note_on_c, 9, 42, 110
12, 27838, Note_on_c, 9, 42, 0
12, 27840, Note_on_c, 9, 38, 110
12, 27840, Note_on_c, 9, 42, 110
12, 27934, Note_on_c, 9, 38, 0
12, 27934, Note_on_c, 9, 42, 0
12, 27936, Note_on_c, 9, 42, 110
12, 28030, Note_on_c, 9, 42, 0
12, 28032, Note_on_c, 9, 36, 110
12, 28032, Note_on_c, 9, 42, 110
12, 28126, Note_on_c, 9, 36, 0
12, 28126, Note_on_c, 9, 42, 0
12, 28128, Note_on_c, 9, 36, 110
12, 28128, Note_on_c, 9, 42, 110
12, 28222, Note_on_c, 9, 36, 0
12, 28222, Note_on_c, 9, 42, 0
12, 28224, Note_on_c, 9, 38, 110
12, 28224, Note_on_c, 9, 42, 110
12, 28318, Note_on_c, 9, 38, 0
12, 28318, Note_on_c, 9, 42, 0
12, 28320, Note_on_c, 9, 36, 110
12, 28320, Note_on_c, 9, 42, 110
12, 28414, Note_on_c, 9, 36, 0
12, 28414, Note_on_c, 9, 42, 0
12, 28416, Note_on_c, 9, 36, 110
12, 28416, Note_on_c, 9, 42, 110
12, 28510, Note_on_c, 9, 36, 0
12, 28510, Note_on_c, 9, 42, 0
12, 28512, Note_on_c, 9, 42, 110
12, 28606, Note_on_c, 9, 42, 0
12, 28608, Note_on_c, 9, 38, 110
12, 28608, Note_on_c, 9, 42, 110
12, 28702, Note_on_c, 9, 38, 0
12, 28702, Note_on_c, 9, 42, 0
12, 28704, Note_on_c, 9, 42, 110
12, 28798, Note_on_c, 9, 42, 0
12, 28800, Note_on_c, 9, 36, 110
12, 28800, Note_on_c, 9, 42, 110
12, 28894, Note_on_c, 9, 36, 0
12, 28894, Note_on_c, 9, 42, 0
12, 28896, Note_on_c, 9, 36, 110
12, 28896, Note_on_c, 9, 42, 110
12, 28990, Note_on_c, 9, 36, 0
12, 28990, Note_on_c, 9, 42, 0
12, 28992, Note_on_c, 9, 38, 110
12, 28992, Note_on_c, 9, 42, 110
12, 29086, Note_on_c, 9, 38, 0
12, 29086, Note_on_c, 9, 42, 0
12, 29088, Note_on_c, 9, 36, 110
12, 29088, Note_on_c, 9, 42, 110
12, 29182, Note_on_c, 9, 36, 0
12, 29182, Note_on_c, 9, 42, 0
12, 29184, Note_on_c, 9, 36, 110
12, 29184, Note_on_c, 9, 42, 110
12, 29278, Note_on_c, 9, 36, 0
12, 29278, Note_on_c, 9, 42, 0
12, 29280, Note_on_c, 9, 42, 110
12, 29374, Note_on_c, 9, 42, 0
12, 29376, Note_on_c, 9, 38, 110
12, 29376, Note_on_c, 9, 42, 110
12, 29470, Note_on_c, 9, 38, 0
12, 29470, Note_on_c, 9, 42, 0
12, 29472, Note_on_c, 9, 42, 110
12, 29566, Note_on_c, 9, 42, 0
12, 29568, Note_on_c, 9, 36, 110
12, 29568, Note_on_c, 9, 42, 110
12, 29662, Note_on_c, 9, 36, 0
12, 29662, Note_on_c, 9, 42, 0
12, 29664, Note_on_c, 9, 36, 110
12, 29758, Note_on_c, 9, 36, 0
12, 29856, Note_on_c, 9, 36, 110
12, 29950, Note_on_c, 9, 36, 0
12, 29952, Note_on_c, 9, 36, 110
12, 29952, Note_on_c, 9, 42, 110
12, 30046, Note_on_c, 9, 36, 0
12, 30046, Note_on_c, 9, 42, 0
12, 30048, Note_on_c, 9, 42, 110
12, 30142, Note_on_c, 9, 42, 0
12, 30144, Note_on_c, 9, 38, 110
12, 30144, Note_on_c, 9, 42, 110
12, 30238, Note_on_c, 9, 38, 0
12, 30238, Note_on_c, 9, 42, 0
12, 30240, Note_on_c, 9, 42, 110
12, 30334, Note_on_c, 9, 42, 0
12, 30336, Note_on_c, 9, 36, 110
12, 30336, Note_on_c, 9, 42, 110
12, 30430, Note_on_c, 9, 36, 0
12, 30430, Note_on_c, 9, 42, 0
12, 30432, Note_on_c, 9, 36, 110
12, 30432, Note_on_c, 9, 42, 110
12, 30526, Note_on_c, 9, 36, 0
12, 30526, Note_on_c, 9, 42, 0
12, 30528, Note_on_c, 9, 38, 110
12, 30528, Note_on_c, 9, 42, 110
12, 30622, Note_on_c, 9, 38, 0
12, 30622, Note_on_c, 9, 42, 0
12, 30624, Note_on_c, 9, 36, 110
12, 30624, Note_on_c, 9, 42, 110
12, 30718, Note_on_c, 9, 36, 0
12, 30718, Note_on_c, 9, 42, 0
12, 30720, Note_on_c, 9, 36, 110
12, 30720, Note_on_c, 9, 42, 110
12, 30814, Note_on_c, 9, 36, 0
12, 30814, Note_on_c, 9, 42, 0
12, 30816, Note_on_c, 9, 42, 110
12, 30910, Note_on_c, 9, 42, 0
12, 30912, Note_on_c, 9, 38, 110
12, 30912, Note_on_c, 9, 42, 110
12, 31006, Note_on_c, 9, 38, 0
12, 31006, Note_on_c, 9, 42, 0
12, 31008, Note_on_c, 9, 42, 110
12, 31102, Note_on_c, 9, 42, 0
12, 31104, Note_on_c, 9, 36, 110
12, 31104, Note_on_c, 9, 42, 110
12, 31198, Note_on_c, 9, 36, 0
12, 31198, Note_on_c, 9, 42, 0
12, 31200, Note_on_c, 9, 36, 110
12, 31200, Note_on_c, 9, 42, 110
12, 31294, Note_on_c, 9, 36, 0
12, 31294, Note_on_c, 9, 42, 0
12, 31296, Note_on_c, 9, 38, 110
12, 31296, Note_on_c, 9, 42, 110
12, 31390, Note_on_c, 9, 38, 0
12, 31390, Note_on_c, 9, 42, 0
12, 31392, Note_on_c, 9, 36, 110
12, 31392, Note_on_c, 9, 42, 110
12, 31486, Note_on_c, 9, 36, 0
12, 31486, Note_on_c, 9, 42, 0
12, 31488, Note_on_c, 9, 36, 110
12, 31488, Note_on_c, 9, 42, 110
12, 31582, Note_on_c, 9, 36, 0
12, 31582, Note_on_c, 9, 42, 0
12, 31584, Note_on_c, 9, 42, 110
12, 31678, Note_on_c, 9, 42, 0
12, 31680, Note_on_c, 9, 38, 110
12, 31680, Note_on_c, 9, 42, 110
12, 31774, Note_on_c, 9, 38, 0
12, 31774, Note_on_c, 9, 42, 0
12, 31776, Note_on_c, 9, 42, 110
12, 31870, Note_on_c, 9, 42, 0
12, 31872, Note_on_c, 9, 36, 110
12, 31872, Note_on_c, 9, 42, 110
12, 31966, Note_on_c, 9, 36, 0
12, 31966, Note_on_c, 9, 42, 0
12, 31968, Note_on_c, 9, 36, 110
12, 31968, Note_on_c, 9, 42, 110
12, 32062, Note_on_c, 9, 36, 0
12, 32062, Note_on_c, 9, 42, 0
12, 32064, Note_on_c, 9, 38, 110
12, 32064, Note_on_c, 9, 42, 110
12, 32158, Note_on_c, 9, 38, 0
12, 32158, Note_on_c, 9, 42, 0
12, 32160, Note_on_c, 9, 36, 110
12, 32160, Note_on_c, 9, 42, 110
12, 32254, Note_on_c, 9, 36, 0
12, 32254, Note_on_c, 9, 42, 0
12, 32256, Note_on_c, 9, 36, 110
12, 32256, Note_on_c, 9, 42, 110
12, 32350, Note_on_c, 9, 36, 0
12, 32350, Note_on_c, 9, 42, 0
12, 32352, Note_on_c, 9, 42, 110
12, 32446, Note_on_c, 9, 42, 0
12, 32448, Note_on_c, 9, 38, 110
12, 32448, Note_on_c, 9, 42, 110
12, 32542, Note_on_c, 9, 38, 0
12, 32542, Note_on_c, 9, 42, 0
12, 32544, Note_on_c, 9, 42, 110
12, 32638, Note_on_c, 9, 42, 0
12, 32640, Note_on_c, 9, 36, 110
12, 32640, Note_on_c, 9, 42, 110
12, 32734, Note_on_c, 9, 36, 0
12, 32734, Note_on_c, 9, 42, 0
12, 32736, Note_on_c, 9, 42, 110
12, 32830, Note_on_c, 9, 42, 0
12, 32832, Note_on_c, 9, 42, 110
12, 32926, Note_on_c, 9, 42, 0
12, 32928, Note_on_c, 9, 42, 110
12, 33022, Note_on_c, 9, 42, 0
12, 33024, Note_on_c, 9, 36, 110
12, 33184, Note_on_c, 9, 36, 0
12, 33312, Note_on_c, 9, 36, 110
12, 33406, Note_on_c, 9, 36, 0
12, 33408, Note_on_c, 9, 38, 110
12, 33502, Note_on_c, 9, 38, 0
12, 33504, Note_on_c, 9, 36, 110
12, 33598, Note_on_c, 9, 36, 0
12, 33792, Note_on_c, 9, 36, 110
12, 33952, Note_on_c, 9, 36, 0
12, 34080, Note_on_c, 9, 36, 110
12, 34174, Note_on_c, 9, 36, 0
12, 34176, Note_on_c, 9, 38, 110
12, 34270, Note_on_c, 9, 38, 0
12, 34272, Note_on_c, 9, 38, 110
12, 34366, Note_on_c, 9, 38, 0
12, 34560, Note_on_c, 9, 38, 110
12, 34720, Note_on_c, 9, 38, 0
12, 34944, Note_on_c, 9, 38, 110
12, 35104, Note_on_c, 9, 38, 0
12, 35424, Note_on_c, 9, 38, 110
12, 35518, Note_on_c, 9, 38, 0
12, 36576, Note_on_c, 9, 43, 110
12, 36670, Note_on_c, 9, 43, 0
12, 37056, Note_on_c, 9, 38, 110
12, 37216, Note_on_c, 9, 38, 0
12, 37248, Note_on_c, 9, 36, 110
12, 37342, Note_on_c, 9, 36, 0
12, 37344, Note_on_c, 9, 35, 110
12, 37438, Note_on_c, 9, 35, 0
12, 37440, Note_on_c, 9, 38, 110
12, 37534, Note_on_c, 9, 38, 0
12, 37536, Note_on_c, 9, 36, 110
12, 37630, Note_on_c, 9, 36, 0
12, 37632, Note_on_c, 9, 36, 110
12, 37726, Note_on_c, 9, 36, 0
12, 37728, Note_on_c, 9, 35, 110
12, 37822, Note_on_c, 9, 35, 0
12, 37824, Note_on_c, 9, 38, 110
12, 37918, Note_on_c, 9, 38, 0
12, 37920, Note_on_c, 9, 36, 110
12, 38014, Note_on_c, 9, 36, 0
12, 38016, Note_on_c, 9, 36, 110
12, 38110, Note_on_c, 9, 36, 0
12, 38112, Note_on_c, 9, 35, 110
12, 38206, Note_on_c, 9, 35, 0
12, 38208, Note_on_c, 9, 38, 110
12, 38302, Note_on_c, 9, 38, 0
12, 38304, Note_on_c, 9, 36, 110
12, 38398, Note_on_c, 9, 36, 0
12, 38400, Note_on_c, 9, 36, 110
12, 38494, Note_on_c, 9, 36, 0
12, 38496, Note_on_c, 9, 35, 110
12, 38590, Note_on_c, 9, 35, 0
12, 38592, Note_on_c, 9, 38, 110
12, 38686, Note_on_c, 9, 38, 0
12, 38688, Note_on_c, 9, 36, 110
12, 38782, Note_on_c, 9, 36, 0
12, 38784, Note_on_c, 9, 36, 110
12, 38878, Note_on_c, 9, 36, 0
12, 38880, Note_on_c, 9, 35, 110
12, 38974, Note_on_c, 9, 35, 0
12, 38976, Note_on_c, 9, 38, 110
12, 39070, Note_on_c, 9, 38, 0
12, 39072, Note_on_c, 9, 36, 110
12, 39166, Note_on_c, 9, 36, 0
12, 39168, Note_on_c, 9, 36, 110
12, 39262, Note_on_c, 9, 36, 0
12, 39264, Note_on_c, 9, 35, 110
12, 39358, Note_on_c, 9, 35, 0
12, 39360, Note_on_c, 9, 38, 110
12, 39454, Note_on_c, 9, 38, 0
12, 39456, Note_on_c, 9, 36, 110
12, 39550, Note_on_c, 9, 36, 0
12, 39552, Note_on_c, 9, 36, 110
12, 39646, Note_on_c, 9, 36, 0
12, 39648, Note_on_c, 9, 35, 110
12, 39742, Note_on_c, 9, 35, 0
12, 39744, Note_on_c, 9, 38, 110
12, 39838, Note_on_c, 9, 38, 0
12, 39840, Note_on_c, 9, 36, 110
12, 39934, Note_on_c, 9, 36, 0
12, 39936, Note_on_c, 9, 35, 110
12, 39936, Note_on_c, 9, 38, 110
12, 40030, Note_on_c, 9, 35, 0
12, 40030, Note_on_c, 9, 38, 0
12, 40032, Note_on_c, 9, 38, 110
12, 40126, Note_on_c, 9, 38, 0
12, 40128, Note_on_c, 9, 38, 110
12, 40222, Note_on_c, 9, 38, 0
12, 40224, Note_on_c, 9, 38, 110
12, 40318, Note_on_c, 9, 38, 0
12, 40320, Note_on_c, 9, 38, 110
12, 40414, Note_on_c, 9, 38, 0
12, 40416, Note_on_c, 9, 38, 110
12, 40462, Note_on_c, 9, 38, 0
12, 40464, Note_on_c, 9, 38, 110
12, 40510, Note_on_c, 9, 38, 0
12, 40512, Note_on_c, 9, 38, 110
12, 40606, Note_on_c, 9, 38, 0
12, 40608, Note_on_c, 9, 38, 110
12, 40702, Note_on_c, 9, 38, 0
12, 40704, Note_on_c, 9, 36, 110
12, 40704, Note_on_c, 9, 38, 110
12, 40798, Note_on_c, 9, 36, 0
12, 40798, Note_on_c, 9, 38, 0
12, 40800, Note_on_c, 9, 35, 110
12, 40894, Note_on_c, 9, 35, 0
12, 40896, Note_on_c, 9, 38, 110
12, 40990, Note_on_c, 9, 38, 0
12, 40992, Note_on_c, 9, 36, 110
12, 41086, Note_on_c, 9, 36, 0
12, 41088, Note_on_c, 9, 36, 110
12, 41182, Note_on_c, 9, 36, 0
12, 41184, Note_on_c, 9, 35, 110
12, 41278, Note_on_c, 9, 35, 0
12, 41280, Note_on_c, 9, 38, 110
12, 41374, Note_on_c, 9, 38, 0
12, 41376, Note_on_c, 9, 36, 110
12, 41470, Note_on_c, 9, 36, 0
12, 41472, Note_on_c, 9, 36, 110
12, 41566, Note_on_c, 9, 36, 0
12, 41568, Note_on_c, 9, 35, 110
12, 41662, Note_on_c, 9, 35, 0
12, 41664, Note_on_c, 9, 38, 110
12, 41758, Note_on_c, 9, 38, 0
12, 41760, Note_on_c, 9, 36, 110
12, 41854, Note_on_c, 9, 36, 0
12, 41856, Note_on_c, 9, 36, 110
12, 41950, Note_on_c, 9, 36, 0
12, 41952, Note_on_c, 9, 35, 110
12, 42046, Note_on_c, 9, 35, 0
12, 42048, Note_on_c, 9, 38, 110
12, 42142, Note_on_c, 9, 38, 0
12, 42144, Note_on_c, 9, 36, 110
12, 42238, Note_on_c, 9, 36, 0
12, 42240, Note_on_c, 9, 36, 110
12, 42334, Note_on_c, 9, 36, 0
12, 42336, Note_on_c, 9, 35, 110
12, 42430, Note_on_c, 9, 35, 0
12, 42432, Note_on_c, 9, 38, 110
12, 42526, Note_on_c, 9, 38, 0
12, 42528, Note_on_c, 9, 36, 110
12, 42622, Note_on_c, 9, 36, 0
12, 42624, Note_on_c, 9, 36, 110
12, 42718, Note_on_c, 9, 36, 0
12, 42720, Note_on_c, 9, 35, 110
12, 42814, Note_on_c, 9, 35, 0
12, 42816, Note_on_c, 9, 38, 110
12, 42910, Note_on_c, 9, 38, 0
12, 42912, Note_on_c, 9, 36, 110
12, 43006, Note_on_c, 9, 36, 0
12, 43008, Note_on_c, 9, 36, 110
12, 43102, Note_on_c, 9, 36, 0
12, 43104, Note_on_c, 9, 35, 110
12, 43198, Note_on_c, 9, 35, 0
12, 43200, Note_on_c, 9, 38, 110
12, 43294, Note_on_c, 9, 38, 0
12, 43296, Note_on_c, 9, 36, 110
12, 43390, Note_on_c, 9, 36, 0
12, 43392, Note_on_c, 9, 36, 110
12, 43552, Note_on_c, 9, 36, 0
12, 43584, Note_on_c, 9, 36, 110
12, 43744, Note_on_c, 9, 36, 0
12, 43776, Note_on_c, 9, 36, 110
12, 43870, Note_on_c, 9, 36, 0
12, 43872, Note_on_c, 9, 35, 110
12, 43966, Note_on_c, 9, 35, 0
12, 43968, Note_on_c, 9, 38, 110
12, 44062, Note_on_c, 9, 38, 0
12, 44064, Note_on_c, 9, 36, 110
12, 44158, Note_on_c, 9, 36, 0
12, 44160, Note_on_c, 9, 36, 110
12, 44254, Note_on_c, 9, 36, 0
12, 44256, Note_on_c, 9, 35, 110
12, 44350, Note_on_c, 9, 35, 0
12, 44352, Note_on_c, 9, 38, 110
12, 44446, Note_on_c, 9, 38, 0
12, 44448, Note_on_c, 9, 36, 110
12, 44542, Note_on_c, 9, 36, 0
12, 44544, Note_on_c, 9, 36, 110
12, 44638, Note_on_c, 9, 36, 0
12, 44640, Note_on_c, 9, 35, 110
12, 44734, Note_on_c, 9, 35, 0
12, 44736, Note_on_c, 9, 38, 110
12, 44830, Note_on_c, 9, 38, 0
12, 44832, Note_on_c, 9, 36, 110
12, 44926, Note_on_c, 9, 36, 0
12, 44928, Note_on_c, 9, 36, 110
12, 45022, Note_on_c, 9, 36, 0
12, 45024, Note_on_c, 9, 35, 110
12, 45118, Note_on_c, 9, 35, 0
12, 45120, Note_on_c, 9, 38, 110
12, 45214, Note_on_c, 9, 38, 0
12, 45216, Note_on_c, 9, 36, 110
12, 45310, Note_on_c, 9, 36, 0
12, 45312, Note_on_c, 9, 36, 110
12, 45406, Note_on_c, 9, 36, 0
12, 45408, Note_on_c, 9, 35, 110
12, 45502, Note_on_c, 9, 35, 0
12, 45504, Note_on_c, 9, 38, 110
12, 45598, Note_on_c, 9, 38, 0
12, 45600, Note_on_c, 9, 36, 110
12, 45694, Note_on_c, 9, 36, 0
12, 45696, Note_on_c, 9, 36, 110
12, 45790, Note_on_c, 9, 36, 0
12, 45792, Note_on_c, 9, 35, 110
12, 45886, Note_on_c, 9, 35, 0
12, 45888, Note_on_c, 9, 38, 110
12, 45982, Note_on_c, 9, 38, 0
12, 45984, Note_on_c, 9, 36, 110
12, 46078, Note_on_c, 9, 36, 0
12, 46080, Note_on_c, 9, 36, 110
12, 46174, Note_on_c, 9, 36, 0
12, 46176, Note_on_c, 9, 35, 110
12, 46270, Note_on_c, 9, 35, 0
12, 46272, Note_on_c, 9, 38, 110
12, 46366, Note_on_c, 9, 38, 0
12, 46368, Note_on_c, 9, 36, 110
12, 46462, Note_on_c, 9, 36, 0
12, 46464, Note_on_c, 9, 36, 110
12, 46624, Note_on_c, 9, 36, 0
12, 46656, Note_on_c, 9, 36, 110
12, 46816, Note_on_c, 9, 36, 0
12, 46848, Note_on_c, 9, 36, 110
12, 46942, Note_on_c, 9, 36, 0
12, 46944, Note_on_c, 9, 35, 110
12, 47038, Note_on_c, 9, 35, 0
12, 47040, Note_on_c, 9, 38, 110
12, 47134, Note_on_c, 9, 38, 0
12, 47136, Note_on_c, 9, 36, 110
12, 47230, Note_on_c, 9, 36, 0
12, 47232, Note_on_c, 9, 36, 110
12, 47326, Note_on_c, 9, 36, 0
12, 47328, Note_on_c, 9, 35, 110
12, 47422, Note_on_c, 9, 35, 0
12, 47424, Note_on_c, 9, 38, 110
12, 47518, Note_on_c, 9, 38, 0
12, 47520, Note_on_c, 9, 36, 110
12, 47614, Note_on_c, 9, 36, 0
12, 47616, Note_on_c, 9, 36, 110
12, 47710, Note_on_c, 9, 36, 0
12, 47712, Note_on_c, 9, 35, 110
12, 47806, Note_on_c, 9, 35, 0
12, 47808, Note_on_c, 9, 38, 110
12, 47902, Note_on_c, 9, 38, 0
12, 47904, Note_on_c, 9, 36, 110
12, 47998, Note_on_c, 9, 36, 0
12, 48000, Note_on_c, 9, 36, 110
12, 48094, Note_on_c, 9, 36, 0
12, 48096, Note_on_c, 9, 35, 110
12, 48190, Note_on_c, 9, 35, 0
12, 48192, Note_on_c, 9, 38, 110
12, 48286, Note_on_c, 9, 38, 0
12, 48288, Note_on_c, 9, 36, 110
12, 48382, Note_on_c, 9, 36, 0
12, 48384, Note_on_c, 9, 36, 110
12, 48478, Note_on_c, 9, 36, 0
12, 48480, Note_on_c, 9, 35, 110
12, 48574, Note_on_c, 9, 35, 0
12, 48576, Note_on_c, 9, 38, 110
12, 48670, Note_on_c, 9, 38, 0
12, 48672, Note_on_c, 9, 36, 110
12, 48766, Note_on_c, 9, 36, 0
12, 48768, Note_on_c, 9, 36, 110
12, 48862, Note_on_c, 9, 36, 0
12, 48864, Note_on_c, 9, 35, 110
12, 48958, Note_on_c, 9, 35, 0
12, 48960, Note_on_c, 9, 38, 110
12, 49054, Note_on_c, 9, 38, 0
12, 49056, Note_on_c, 9, 36, 110
12, 49150, Note_on_c, 9, 36, 0
12, 49152, Note_on_c, 9, 36, 110
12, 49246, Note_on_c, 9, 36, 0
12, 49248, Note_on_c, 9, 35, 110
12, 49342, Note_on_c, 9, 35, 0
12, 49344, Note_on_c, 9, 38, 110
12, 49438, Note_on_c, 9, 38, 0
12, 49440, Note_on_c, 9, 36, 110
12, 49534, Note_on_c, 9, 36, 0
12, 49536, Note_on_c, 9, 36, 110
12, 49696, Note_on_c, 9, 36, 0
12, 49728, Note_on_c, 9, 36, 110
12, 49888, Note_on_c, 9, 36, 0
12, 49920, Note_on_c, 9, 36, 110
12, 50014, Note_on_c, 9, 36, 0
12, 50016, Note_on_c, 9, 35, 110
12, 50110, Note_on_c, 9, 35, 0
12, 50112, Note_on_c, 9, 38, 110
12, 50206, Note_on_c, 9, 38, 0
12, 50208, Note_on_c, 9, 36, 110
12, 50302, Note_on_c, 9, 36, 0
12, 50304, Note_on_c, 9, 36, 110
12, 50398, Note_on_c, 9, 36, 0
12, 50400, Note_on_c, 9, 35, 110
12, 50494, Note_on_c, 9, 35, 0
12, 50496, Note_on_c, 9, 38, 110
12, 50590, Note_on_c, 9, 38, 0
12, 50592, Note_on_c, 9, 36, 110
12, 50686, Note_on_c, 9, 36, 0
12, 50688, Note_on_c, 9, 36, 110
12, 50782, Note_on_c, 9, 36, 0
12, 50784, Note_on_c, 9, 35, 110
12, 50878, Note_on_c, 9, 35, 0
12, 50880, Note_on_c, 9, 38, 110
12, 50974, Note_on_c, 9, 38, 0
12, 50976, Note_on_c, 9, 36, 110
12, 51070, Note_on_c, 9, 36, 0
12, 51072, Note_on_c, 9, 36, 110
12, 51166, Note_on_c, 9, 36, 0
12, 51168, Note_on_c, 9, 35, 110
12, 51262, Note_on_c, 9, 35, 0
12, 51264, Note_on_c, 9, 38, 110
12, 51358, Note_on_c, 9, 38, 0
12, 51360, Note_on_c, 9, 36, 110
12, 51454, Note_on_c, 9, 36, 0
12, 51456, Note_on_c, 9, 36, 110
12, 51550, Note_on_c, 9, 36, 0
12, 51552, Note_on_c, 9, 35, 110
12, 51646, Note_on_c, 9, 35, 0
12, 51648, Note_on_c, 9, 38, 110
12, 51742, Note_on_c, 9, 38, 0
12, 51744, Note_on_c, 9, 36, 110
12, 51838, Note_on_c, 9, 36, 0
12, 51840, Note_on_c, 9, 36, 110
12, 51934, Note_on_c, 9, 36, 0
12, 51936, Note_on_c, 9, 35, 110
12, 52030, Note_on_c, 9, 35, 0
12, 52032, Note_on_c, 9, 38, 110
12, 52126, Note_on_c, 9, 38, 0
12, 52128, Note_on_c, 9, 36, 110
12, 52222, Note_on_c, 9, 36, 0
12, 52224, Note_on_c, 9, 36, 110
12, 52318, Note_on_c, 9, 36, 0
12, 52320, Note_on_c, 9, 38, 110
12, 52414, Note_on_c, 9, 38, 0
12, 52416, Note_on_c, 9, 38, 110
12, 52510, Note_on_c, 9, 38, 0
12, 52512, Note_on_c, 9, 38, 110
12, 52606, Note_on_c, 9, 38, 0
12, 52608, Note_on_c, 9, 38, 110
12, 52702, Note_on_c, 9, 38, 0
12, 52704, Note_on_c, 9, 38, 110
12, 52750, Note_on_c, 9, 38, 0
12, 52752, Note_on_c, 9, 38, 110
12, 52798, Note_on_c, 9, 38, 0
12, 52800, Note_on_c, 9, 38, 110
12, 52894, Note_on_c, 9, 38, 0
12, 52896, Note_on_c, 9, 38, 110
12, 52990, Note_on_c, 9, 38, 0
12, 52992, Note_on_c, 9, 36, 110
12, 53086, Note_on_c, 9, 36, 0
12, 53088, Note_on_c, 9, 35, 110
12, 53182, Note_on_c, 9, 35, 0
12, 53184, Note_on_c, 9, 38, 110
12, 53278, Note_on_c, 9, 38, 0
12, 53280, Note_on_c, 9, 36, 110
12, 53374, Note_on_c, 9, 36, 0
12, 53376, Note_on_c, 9, 36, 110
12, 53470, Note_on_c, 9, 36, 0
12, 53472, Note_on_c, 9, 35, 110
12, 53566, Note_on_c, 9, 35, 0
12, 53568, Note_on_c, 9, 38, 110
12, 53662, Note_on_c, 9, 38, 0
12, 53664, Note_on_c, 9, 36, 110
12, 53758, Note_on_c, 9, 36, 0
12, 53760, Note_on_c, 9, 36, 110
12, 53854, Note_on_c, 9, 36, 0
12, 53856, Note_on_c, 9, 35, 110
12, 53950, Note_on_c, 9, 35, 0
12, 53952, Note_on_c, 9, 38, 110
12, 54046, Note_on_c, 9, 38, 0
12, 54048, Note_on_c, 9, 36, 110
12, 54142, Note_on_c, 9, 36, 0
12, 54144, Note_on_c, 9, 36, 110
12, 54238, Note_on_c, 9, 36, 0
12, 54240, Note_on_c, 9, 35, 110
12, 54334, Note_on_c, 9, 35, 0
12, 54336, Note_on_c, 9, 38, 110
12, 54430, Note_on_c, 9, 38, 0
12, 54432, Note_on_c, 9, 36, 110
12, 54526, Note_on_c, 9, 36, 0
12, 54528, Note_on_c, 9, 36, 110
12, 54622, Note_on_c, 9, 36, 0
12, 54624, Note_on_c, 9, 35, 110
12, 54718, Note_on_c, 9, 35, 0
12, 54720, Note_on_c, 9, 38, 110
12, 54814, Note_on_c, 9, 38, 0
12, 54816, Note_on_c, 9, 36, 110
12, 54910, Note_on_c, 9, 36, 0
12, 54912, Note_on_c, 9, 36, 110
12, 55006, Note_on_c, 9, 36, 0
12, 55008, Note_on_c, 9, 35, 110
12, 55102, Note_on_c, 9, 35, 0
12, 55104, Note_on_c, 9, 38, 110
12, 55198, Note_on_c, 9, 38, 0
12, 55200, Note_on_c, 9, 36, 110
12, 55294, Note_on_c, 9, 36, 0
12, 55296, Note_on_c, 9, 36, 110
12, 55390, Note_on_c, 9, 36, 0
12, 55392, Note_on_c, 9, 35, 110
12, 55486, Note_on_c, 9, 35, 0
12, 55488, Note_on_c, 9, 38, 110
12, 55582, Note_on_c, 9, 38, 0
12, 55584, Note_on_c, 9, 36, 110
12, 55678, Note_on_c, 9, 36, 0
12, 55680, Note_on_c, 9, 36, 110
12, 55840, Note_on_c, 9, 36, 0
12, 55872, Note_on_c, 9, 36, 110
12, 56032, Note_on_c, 9, 36, 0
12, 56064, Note_on_c, 9, 36, 110
12, 56158, Note_on_c, 9, 36, 0
12, 56160, Note_on_c, 9, 35, 110
12, 56254, Note_on_c, 9, 35, 0
12, 56256, Note_on_c, 9, 38, 110
12, 56350, Note_on_c, 9, 38, 0
12, 56352, Note_on_c, 9, 36, 110
12, 56446, Note_on_c, 9, 36, 0
12, 56448, Note_on_c, 9, 36, 110
12, 56542, Note_on_c, 9, 36, 0
12, 56544, Note_on_c, 9, 35, 110
12, 56638, Note_on_c, 9, 35, 0
12, 56640, Note_on_c, 9, 38, 110
12, 56734, Note_on_c, 9, 38, 0
12, 56736, Note_on_c, 9, 36, 110
12, 56830, Note_on_c, 9, 36, 0
12, 56832, Note_on_c, 9, 36, 110
12, 56926, Note_on_c, 9, 36, 0
12, 56928, Note_on_c, 9, 35, 110
12, 57022, Note_on_c, 9, 35, 0
12, 57024, Note_on_c, 9, 38, 110
12, 57118, Note_on_c, 9, 38, 0
12, 57120, Note_on_c, 9, 36, 110
12, 57214, Note_on_c, 9, 36, 0
12, 57216, Note_on_c, 9, 36, 110
12, 57310, Note_on_c, 9, 36, 0
12, 57312, Note_on_c, 9, 35, 110
12, 57406, Note_on_c, 9, 35, 0
12, 57408, Note_on_c, 9, 38, 110
12, 57502, Note_on_c, 9, 38, 0
12, 57504, Note_on_c, 9, 36, 110
12, 57598, Note_on_c, 9, 36, 0
12, 57600, Note_on_c, 9, 36, 110
12, 57694, Note_on_c, 9, 36, 0
12, 57696, Note_on_c, 9, 35, 110
12, 57790, Note_on_c, 9, 35, 0
12, 57792, Note_on_c, 9, 38, 110
12, 57886, Note_on_c, 9, 38, 0
12, 57888, Note_on_c, 9, 36, 110
12, 57982, Note_on_c, 9, 36, 0
12, 57984, Note_on_c, 9, 36, 110
12, 58078, Note_on_c, 9, 36, 0
12, 58080, Note_on_c, 9, 35, 110
12, 58174, Note_on_c, 9, 35, 0
12, 58176, Note_on_c, 9, 38, 110
12, 58270, Note_on_c, 9, 38, 0
12, 58272, Note_on_c, 9, 36, 110
12, 58366, Note_on_c, 9, 36, 0
12, 58368, Note_on_c, 9, 36, 110
12, 58462, Note_on_c, 9, 36, 0
12, 58464, Note_on_c, 9, 35, 110
12, 58558, Note_on_c, 9, 35, 0
12, 58560, Note_on_c, 9, 38, 110
12, 58654, Note_on_c, 9, 38, 0
12, 58656, Note_on_c, 9, 36, 110
12, 58750, Note_on_c, 9, 36, 0
12, 58752, Note_on_c, 9, 36, 110
12, 58912, Note_on_c, 9, 36, 0
12, 58944, Note_on_c, 9, 36, 110
12, 59104, Note_on_c, 9, 36, 0
12, 59136, Note_on_c, 9, 36, 110
12, 59230, Note_on_c, 9, 36, 0
12, 59232, Note_on_c, 9, 35, 110
12, 59326, Note_on_c, 9, 35, 0
12, 59328, Note_on_c, 9, 38, 110
12, 59422, Note_on_c, 9, 38, 0
12, 59424, Note_on_c, 9, 36, 110
12, 59518, Note_on_c, 9, 36, 0
12, 59520, Note_on_c, 9, 36, 110
12, 59614, Note_on_c, 9, 36, 0
12, 59616, Note_on_c, 9, 35, 110
12, 59710, Note_on_c, 9, 35, 0
12, 59712, Note_on_c, 9, 38, 110
12, 59806, Note_on_c, 9, 38, 0
12, 59808, Note_on_c, 9, 36, 110
12, 59902, Note_on_c, 9, 36, 0
12, 59904, Note_on_c, 9, 36, 110
12, 59998, Note_on_c, 9, 36, 0
12, 60000, Note_on_c, 9, 35, 110
12, 60094, Note_on_c, 9, 35, 0
12, 60096, Note_on_c, 9, 38, 110
12, 60190, Note_on_c, 9, 38, 0
12, 60192, Note_on_c, 9, 36, 110
12, 60286, Note_on_c, 9, 36, 0
12, 60288, Note_on_c, 9, 36, 110
12, 60382, Note_on_c, 9, 36, 0
12, 60384, Note_on_c, 9, 35, 110
12, 60478, Note_on_c, 9, 35, 0
12, 60480, Note_on_c, 9, 38, 110
12, 60574, Note_on_c, 9, 38, 0
12, 60576, Note_on_c, 9, 36, 110
12, 60670, Note_on_c, 9, 36, 0
12, 60672, Note_on_c, 9, 36, 110
12, 60766, Note_on_c, 9, 36, 0
12, 60768, Note_on_c, 9, 35, 110
12, 60862, Note_on_c, 9, 35, 0
12, 60864, Note_on_c, 9, 38, 110
12, 60958, Note_on_c, 9, 38, 0
12, 60960, Note_on_c, 9, 36, 110
12, 61054, Note_on_c, 9, 36, 0
12, 61056, Note_on_c, 9, 36, 110
12, 61150, Note_on_c, 9, 36, 0
12, 61152, Note_on_c, 9, 35, 110
12, 61246, Note_on_c, 9, 35, 0
12, 61248, Note_on_c, 9, 38, 110
12, 61342, Note_on_c, 9, 38, 0
12, 61344, Note_on_c, 9, 36, 110
12, 61438, Note_on_c, 9, 36, 0
12, 61440, Note_on_c, 9, 36, 110
12, 61534, Note_on_c, 9, 36, 0
12, 61536, Note_on_c, 9, 35, 110
12, 61630, Note_on_c, 9, 35, 0
12, 61632, Note_on_c, 9, 38, 110
12, 61726, Note_on_c, 9, 38, 0
12, 61728, Note_on_c, 9, 36, 110
12, 61822, Note_on_c, 9, 36, 0
12, 61824, Note_on_c, 9, 36, 110
12, 61984, Note_on_c, 9, 36, 0
12, 62016, Note_on_c, 9, 36, 110
12, 62176, Note_on_c, 9, 36, 0
12, 62208, Note_on_c, 9, 36, 110
12, 62302, Note_on_c, 9, 36, 0
12, 62304, Note_on_c, 9, 35, 110
12, 62398, Note_on_c, 9, 35, 0
12, 62400, Note_on_c, 9, 38, 110
12, 62494, Note_on_c, 9, 38, 0
12, 62496, Note_on_c, 9, 36, 110
12, 62590, Note_on_c, 9, 36, 0
12, 62592, Note_on_c, 9, 36, 110
12, 62686, Note_on_c, 9, 36, 0
12, 62688, Note_on_c, 9, 35, 110
12, 62782, Note_on_c, 9, 35, 0
12, 62784, Note_on_c, 9, 38, 110
12, 62878, Note_on_c, 9, 38, 0
12, 62880, Note_on_c, 9, 36, 110
12, 62974, Note_on_c, 9, 36, 0
12, 62976, Note_on_c, 9, 36, 110
12, 63070, Note_on_c, 9, 36, 0
12, 63072, Note_on_c, 9, 35, 110
12, 63166, Note_on_c, 9, 35, 0
12, 63168, Note_on_c, 9, 38, 110
12, 63262, Note_on_c, 9, 38, 0
12, 63264, Note_on_c, 9, 36, 110
12, 63358, Note_on_c, 9, 36, 0
12, 63360, Note_on_c, 9, 36, 110
12, 63454, Note_on_c, 9, 36, 0
12, 63456, Note_on_c, 9, 35, 110
12, 63550, Note_on_c, 9, 35, 0
12, 63552, Note_on_c, 9, 38, 110
12, 63646, Note_on_c, 9, 38, 0
12, 63648, Note_on_c, 9, 36, 110
12, 63742, Note_on_c, 9, 36, 0
12, 63744, Note_on_c, 9, 36, 110
12, 63838, Note_on_c, 9, 36, 0
12, 63840, Note_on_c, 9, 35, 110
12, 63934, Note_on_c, 9, 35, 0
12, 63936, Note_on_c, 9, 38, 110
12, 64030, Note_on_c, 9, 38, 0
12, 64032, Note_on_c, 9, 36, 110
12, 64126, Note_on_c, 9, 36, 0
12, 64128, Note_on_c, 9, 36, 110
12, 64222, Note_on_c, 9, 36, 0
12, 64224, Note_on_c, 9, 35, 110
12, 64318, Note_on_c, 9, 35, 0
12, 64320, Note_on_c, 9, 38, 110
12, 64414, Note_on_c, 9, 38, 0
12, 64416, Note_on_c, 9, 36, 110
12, 64510, Note_on_c, 9, 36, 0
12, 64512, Note_on_c, 9, 36, 110
12, 64606, Note_on_c, 9, 36, 0
12, 64608, Note_on_c, 9, 38, 110
12, 64702, Note_on_c, 9, 38, 0
12, 64704, Note_on_c, 9, 38, 110
12, 64864, Note_on_c, 9, 38, 0
12, 64896, Note_on_c, 9, 36, 110
12, 65056, Note_on_c, 9, 36, 0
12, 65280, Note_on_c, 9, 36, 110
12, 65440, Note_on_c, 9, 36, 0
12, 65568, Note_on_c, 9, 36, 110
12, 65662, Note_on_c, 9, 36, 0
12, 65664, Note_on_c, 9, 38, 110
12, 65758, Note_on_c, 9, 38, 0
12, 65760, Note_on_c, 9, 36, 110
12, 65854, Note_on_c, 9, 36, 0
12, 66048, Note_on_c, 9, 36, 110
12, 66208, Note_on_c, 9, 36, 0
12, 66336, Note_on_c, 9, 36, 110
12, 66430, Note_on_c, 9, 36, 0
12, 66432, Note_on_c, 9, 38, 110
12, 66526, Note_on_c, 9, 38, 0
12, 66528, Note_on_c, 9, 38, 110
12, 66622, Note_on_c, 9, 38, 0
12, 66816, Note_on_c, 9, 38, 110
12, 66976, Note_on_c, 9, 38, 0
12, 67200, Note_on_c, 9, 38, 110
12, 67360, Note_on_c, 9, 38, 0
12, 67680, Note_on_c, 9, 38, 110
12, 67774, Note_on_c, 9, 38, 0
12, 68832, Note_on_c, 9, 43, 110
12, 68926, Note_on_c, 9, 43, 0
12, 69312, Note_on_c, 9, 38, 110
12, 69472, Note_on_c, 9, 38, 0
12, 69504, Note_on_c, 9, 36, 110
12, 69598, Note_on_c, 9, 36, 0
12, 69600, Note_on_c, 9, 35, 110
12, 69694, Note_on_c, 9, 35, 0
12, 69696, Note_on_c, 9, 38, 110
12, 69790, Note_on_c, 9, 38, 0
12, 69792, Note_on_c, 9, 36, 110
12, 69886, Note_on_c, 9, 36, 0
12, 69888, Note_on_c, 9, 36, 110
12, 69982, Note_on_c, 9, 36, 0
12, 69984, Note_on_c, 9, 35, 110
12, 70078, Note_on_c, 9, 35, 0
12, 70080, Note_on_c, 9, 38, 110
12, 70174, Note_on_c, 9, 38, 0
12, 70176, Note_on_c, 9, 36, 110
12, 70270, Note_on_c, 9, 36, 0
12, 70272, Note_on_c, 9, 36, 110
12, 70366, Note_on_c, 9, 36, 0
12, 70368, Note_on_c, 9, 35, 110
12, 70462, Note_on_c, 9, 35, 0
12, 70464, Note_on_c, 9, 38, 110
12, 70558, Note_on_c, 9, 38, 0
12, 70560, Note_on_c, 9, 36, 110
12, 70654, Note_on_c, 9, 36, 0
12, 70656, Note_on_c, 9, 36, 110
12, 70750, Note_on_c, 9, 36, 0
12, 70752, Note_on_c, 9, 35, 110
12, 70846, Note_on_c, 9, 35, 0
12, 70848, Note_on_c, 9, 38, 110
12, 70942, Note_on_c, 9, 38, 0
12, 70944, Note_on_c, 9, 36, 110
12, 71038, Note_on_c, 9, 36, 0
12, 71040, Note_on_c, 9, 36, 110
12, 71134, Note_on_c, 9, 36, 0
12, 71136, Note_on_c, 9, 35, 110
12, 71230, Note_on_c, 9, 35, 0
12, 71232, Note_on_c, 9, 38, 110
12, 71326, Note_on_c, 9, 38, 0
12, 71328, Note_on_c, 9, 36, 110
12, 71422, Note_on_c, 9, 36, 0
12, 71520, Note_on_c, 9, 38, 110
12, 71614, Note_on_c, 9, 38, 0
12, 71616, Note_on_c, 9, 38, 110
12, 71776, Note_on_c, 9, 38, 0
12, 71808, Note_on_c, 9, 38, 110
12, 71902, Note_on_c, 9, 38, 0
12, 71904, Note_on_c, 9, 38, 110
12, 71998, Note_on_c, 9, 38, 0
12, 72096, Note_on_c, 9, 38, 110
12, 72286, Note_on_c, 9, 38, 0
12, 72288, Note_on_c, 9, 38, 110
12, 72382, Note_on_c, 9, 38, 0
12, 72384, Note_on_c, 9, 38, 110
12, 72478, Note_on_c, 9, 38, 0
12, 72480, Note_on_c, 9, 38, 110
12, 72574, Note_on_c, 9, 38, 0
12, 72576, Note_on_c, 9, 38, 110
12, 72736, Note_on_c, 9, 38, 0
12, 72960, Note_on_c, 9, 36, 110
12, 73054, Note_on_c, 9, 36, 0
12, 73056, Note_on_c, 9, 36, 110
12, 73150, Note_on_c, 9, 36, 0
12, 73152, Note_on_c, 9, 39, 110
12, 73246, Note_on_c, 9, 39, 0
12, 73248, Note_on_c, 9, 36, 110
12, 73342, Note_on_c, 9, 36, 0
12, 73344, Note_on_c, 9, 36, 110
12, 73438, Note_on_c, 9, 36, 0
12, 73440, Note_on_c, 9, 39, 110
12, 73534, Note_on_c, 9, 39, 0
12, 73536, Note_on_c, 9, 39, 110
12, 73630, Note_on_c, 9, 39, 0
12, 73632, Note_on_c, 9, 36, 110
12, 73726, Note_on_c, 9, 36, 0
12, 73728, Note_on_c, 9, 36, 110
12, 73822, Note_on_c, 9, 36, 0
12, 73824, Note_on_c, 9, 36, 110
12, 73918, Note_on_c, 9, 36, 0
12, 73920, Note_on_c, 9, 39, 110
12, 74014, Note_on_c, 9, 39, 0
12, 74016, Note_on_c, 9, 36, 110
12, 74110, Note_on_c, 9, 36, 0
12, 74112, Note_on_c, 9, 36, 110
12, 74206, Note_on_c, 9, 36, 0
12, 74208, Note_on_c, 9, 39, 110
12, 74302, Note_on_c, 9, 39, 0
12, 74304, Note_on_c, 9, 39, 110
12, 74398, Note_on_c, 9, 39, 0
12, 74400, Note_on_c, 9, 36, 110
12, 74494, Note_on_c, 9, 36, 0
12, 74496, Note_on_c, 9, 36, 110
12, 74590, Note_on_c, 9, 36, 0
12, 74592, Note_on_c, 9, 36, 110
12, 74686, Note_on_c, 9, 36, 0
12, 74688, Note_on_c, 9, 39, 110
12, 74782, Note_on_c, 9, 39, 0
12, 74784, Note_on_c, 9, 36, 110
12, 74878, Note_on_c, 9, 36, 0
12, 74880, Note_on_c, 9, 36, 110
12, 74974, Note_on_c, 9, 36, 0
12, 74976, Note_on_c, 9, 39, 110
12, 75070, Note_on_c, 9, 39, 0
12, 75072, Note_on_c, 9, 39, 110
12, 75166, Note_on_c, 9, 39, 0
12, 75168, Note_on_c, 9, 36, 110
12, 75262, Note_on_c, 9, 36, 0
12, 75264, Note_on_c, 9, 36, 110
12, 75358, Note_on_c, 9, 36, 0
12, 75360, Note_on_c, 9, 36, 110
12, 75454, Note_on_c, 9, 36, 0
12, 75456, Note_on_c, 9, 39, 110
12, 75550, Note_on_c, 9, 39, 0
12, 75552, Note_on_c, 9, 36, 110
12, 75646, Note_on_c, 9, 36, 0
12, 75648, Note_on_c, 9, 36, 110
12, 75742, Note_on_c, 9, 36, 0
12, 75744, Note_on_c, 9, 39, 110
12, 75838, Note_on_c, 9, 39, 0
12, 75840, Note_on_c, 9, 39, 110
12, 75934, Note_on_c, 9, 39, 0
12, 75936, Note_on_c, 9, 36, 110
12, 76030, Note_on_c, 9, 36, 0
12, 76032, Note_on_c, 9, 36, 110
12, 76126, Note_on_c, 9, 36, 0
12, 76128, Note_on_c, 9, 36, 110
12, 76222, Note_on_c, 9, 36, 0
12, 76224, Note_on_c, 9, 39, 110
12, 76318, Note_on_c, 9, 39, 0
12, 76320, Note_on_c, 9, 36, 110
12, 76414, Note_on_c, 9, 36, 0
12, 76416, Note_on_c, 9, 36, 110
12, 76510, Note_on_c, 9, 36, 0
12, 76512, Note_on_c, 9, 39, 110
12, 76606, Note_on_c, 9, 39, 0
12, 76608, Note_on_c, 9, 39, 110
12, 76702, Note_on_c, 9, 39, 0
12, 76704, Note_on_c, 9, 36, 110
12, 76798, Note_on_c, 9, 36, 0
12, 76800, Note_on_c, 9, 36, 110
12, 76894, Note_on_c, 9, 36, 0
12, 76896, Note_on_c, 9, 36, 110
12, 76990, Note_on_c, 9, 36, 0
12, 76992, Note_on_c, 9, 39, 110
12, 77086, Note_on_c, 9, 39, 0
12, 77088, Note_on_c, 9, 36, 110
12, 77182, Note_on_c, 9, 36, 0
12, 77184, Note_on_c, 9, 36, 110
12, 77278, Note_on_c, 9, 36, 0
12, 77280, Note_on_c, 9, 39, 110
12, 77374, Note_on_c, 9, 39, 0
12, 77376, Note_on_c, 9, 39, 110
12, 77470, Note_on_c, 9, 39, 0
12, 77472, Note_on_c, 9, 36, 110
12, 77566, Note_on_c, 9, 36, 0
12, 77568, Note_on_c, 9, 36, 110
12, 77662, Note_on_c, 9, 36, 0
12, 77664, Note_on_c, 9, 36, 110
12, 77758, Note_on_c, 9, 36, 0
12, 77760, Note_on_c, 9, 39, 110
12, 77854, Note_on_c, 9, 39, 0
12, 77856, Note_on_c, 9, 36, 110
12, 77950, Note_on_c, 9, 36, 0
12, 77952, Note_on_c, 9, 36, 110
12, 78046, Note_on_c, 9, 36, 0
12, 78048, Note_on_c, 9, 39, 110
12, 78142, Note_on_c, 9, 39, 0
12, 78144, Note_on_c, 9, 39, 110
12, 78238, Note_on_c, 9, 39, 0
12, 78240, Note_on_c, 9, 36, 110
12, 78334, Note_on_c, 9, 36, 0
12, 78336, Note_on_c, 9, 38, 110
12, 78382, Note_on_c, 9, 38, 0
12, 78384, Note_on_c, 9, 38, 110
12, 78430, Note_on_c, 9, 38, 0
12, 78432, Note_on_c, 9, 38, 110
12, 78526, Note_on_c, 9, 38, 0
12, 78912, Note_on_c, 9, 43, 110
12, 78958, Note_on_c, 9, 43, 0
12, 78960, Note_on_c, 9, 43, 110
12, 79006, Note_on_c, 9, 43, 0
12, 79008, Note_on_c, 9, 41, 110
12, 79054, Note_on_c, 9, 41, 0
12, 79056, Note_on_c, 9, 41, 110
12, 79102, Note_on_c, 9, 41, 0
12, 79104, Note_on_c, 9, 36, 110
12, 79104, Note_on_c, 9, 38, 110
12, 79198, Note_on_c, 9, 36, 0
12, 79198, Note_on_c, 9, 38, 0
12, 79200, Note_on_c, 9, 35, 110
12, 79294, Note_on_c, 9, 35, 0
12, 79296, Note_on_c, 9, 38, 110
12, 79390, Note_on_c, 9, 38, 0
12, 79392, Note_on_c, 9, 36, 110
12, 79486, Note_on_c, 9, 36, 0
12, 79488, Note_on_c, 9, 36, 110
12, 79582, Note_on_c, 9, 36, 0
12, 79584, Note_on_c, 9, 35, 110
12, 79678, Note_on_c, 9, 35, 0
12, 79680, Note_on_c, 9, 38, 110
12, 79774, Note_on_c, 9, 38, 0
12, 79776, Note_on_c, 9, 36, 110
12, 79870, Note_on_c, 9, 36, 0
12, 79872, Note_on_c, 9, 36, 110
12, 79966, Note_on_c, 9, 36, 0
12, 79968, Note_on_c, 9, 35, 110
12, 80062, Note_on_c, 9, 35, 0
12, 80064, Note_on_c, 9, 38, 110
12, 80158, Note_on_c, 9, 38, 0
12, 80160, Note_on_c, 9, 36, 110
12, 80254, Note_on_c, 9, 36, 0
12, 80256, Note_on_c, 9, 36, 110
12, 80350, Note_on_c, 9, 36, 0
12, 80352, Note_on_c, 9, 35, 110
12, 80446, Note_on_c, 9, 35, 0
12, 80448, Note_on_c, 9, 38, 110
12, 80542, Note_on_c, 9, 38, 0
12, 80544, Note_on_c, 9, 36, 110
12, 80638, Note_on_c, 9, 36, 0
12, 80640, Note_on_c, 9, 36, 110
12, 80734, Note_on_c, 9, 36, 0
12, 80736, Note_on_c, 9, 35, 110
12, 80830, Note_on_c, 9, 35, 0
12, 80832, Note_on_c, 9, 38, 110
12, 80926, Note_on_c, 9, 38, 0
12, 80928, Note_on_c, 9, 36, 110
12, 81022, Note_on_c, 9, 36, 0
12, 81024, Note_on_c, 9, 36, 110
12, 81118, Note_on_c, 9, 36, 0
12, 81120, Note_on_c, 9, 35, 110
12, 81214, Note_on_c, 9, 35, 0
12, 81216, Note_on_c, 9, 38, 110
12, 81310, Note_on_c, 9, 38, 0
12, 81312, Note_on_c, 9, 36, 110
12, 81406, Note_on_c, 9, 36, 0
12, 81408, Note_on_c, 9, 36, 110
12, 81502, Note_on_c, 9, 36, 0
12, 81504, Note_on_c, 9, 35, 110
12, 81598, Note_on_c, 9, 35, 0
12, 81600, Note_on_c, 9, 38, 110
12, 81694, Note_on_c, 9, 38, 0
12, 81696, Note_on_c, 9, 36, 110
12, 81790, Note_on_c, 9, 36, 0
12, 81792, Note_on_c, 9, 36, 110
12, 81952, Note_on_c, 9, 36, 0
12, 81984, Note_on_c, 9, 36, 110
12, 82144, Note_on_c, 9, 36, 0
12, 82176, Note_on_c, 9, 36, 110
12, 82270, Note_on_c, 9, 36, 0
12, 82272, Note_on_c, 9, 35, 110
12, 82366, Note_on_c, 9, 35, 0
12, 82368, Note_on_c, 9, 38, 110
12, 82462, Note_on_c, 9, 38, 0
12, 82464, Note_on_c, 9, 36, 110
12, 82558, Note_on_c, 9, 36, 0
12, 82560, Note_on_c, 9, 36, 110
12, 82654, Note_on_c, 9, 36, 0
12, 82656, Note_on_c, 9, 35, 110
12, 82750, Note_on_c, 9, 35, 0
12, 82752, Note_on_c, 9, 38, 110
12, 82846, Note_on_c, 9, 38, 0
12, 82848, Note_on_c, 9, 36, 110
12, 82942, Note_on_c, 9, 36, 0
12, 82944, Note_on_c, 9, 36, 110
12, 83038, Note_on_c, 9, 36, 0
12, 83040, Note_on_c, 9, 35, 110
12, 83134, Note_on_c, 9, 35, 0
12, 83136, Note_on_c, 9, 38, 110
12, 83230, Note_on_c, 9, 38, 0
12, 83232, Note_on_c, 9, 36, 110
12, 83326, Note_on_c, 9, 36, 0
12, 83328, Note_on_c, 9, 36, 110
12, 83422, Note_on_c, 9, 36, 0
12, 83424, Note_on_c, 9, 35, 110
12, 83518, Note_on_c, 9, 35, 0
12, 83520, Note_on_c, 9, 38, 110
12, 83614, Note_on_c, 9, 38, 0
12, 83616, Note_on_c, 9, 36, 110
12, 83710, Note_on_c, 9, 36, 0
12, 83712, Note_on_c, 9, 36, 110
12, 83806, Note_on_c, 9, 36, 0
12, 83808, Note_on_c, 9, 35, 110
12, 83902, Note_on_c, 9, 35, 0
12, 83904, Note_on_c, 9, 38, 110
12, 83998, Note_on_c, 9, 38, 0
12, 84000, Note_on_c, 9, 36, 110
12, 84094, Note_on_c, 9, 36, 0
12, 84096, Note_on_c, 9, 36, 110
12, 84190, Note_on_c, 9, 36, 0
12, 84192, Note_on_c, 9, 35, 110
12, 84286, Note_on_c, 9, 35, 0
12, 84288, Note_on_c, 9, 38, 110
12, 84382, Note_on_c, 9, 38, 0
12, 84384, Note_on_c, 9, 36, 110
12, 84478, Note_on_c, 9, 36, 0
12, 84480, Note_on_c, 9, 36, 110
12, 84574, Note_on_c, 9, 36, 0
12, 84576, Note_on_c, 9, 35, 110
12, 84670, Note_on_c, 9, 35, 0
12, 84672, Note_on_c, 9, 38, 110
12, 84766, Note_on_c, 9, 38, 0
12, 84768, Note_on_c, 9, 36, 110
12, 84862, Note_on_c, 9, 36, 0
12, 84864, Note_on_c, 9, 36, 110
12, 85024, Note_on_c, 9, 36, 0
12, 85056, Note_on_c, 9, 36, 110
12, 85216, Note_on_c, 9, 36, 0
12, 85248, Note_on_c, 9, 36, 110
12, 85342, Note_on_c, 9, 36, 0
12, 85344, Note_on_c, 9, 35, 110
12, 85438, Note_on_c, 9, 35, 0
12, 85440, Note_on_c, 9, 38, 110
12, 85534, Note_on_c, 9, 38, 0
12, 85536, Note_on_c, 9, 36, 110
12, 85630, Note_on_c, 9, 36, 0
12, 85632, Note_on_c, 9, 36, 110
12, 85726, Note_on_c, 9, 36, 0
12, 85728, Note_on_c, 9, 35, 110
12, 85822, Note_on_c, 9, 35, 0
12, 85824, Note_on_c, 9, 38, 110
12, 85918, Note_on_c, 9, 38, 0
12, 85920, Note_on_c, 9, 36, 110
12, 86014, Note_on_c, 9, 36, 0
12, 86016, Note_on_c, 9, 36, 110
12, 86110, Note_on_c, 9, 36, 0
12, 86112, Note_on_c, 9, 35, 110
12, 86206, Note_on_c, 9, 35, 0
12, 86208, Note_on_c, 9, 38, 110
12, 86302, Note_on_c, 9, 38, 0
12, 86304, Note_on_c, 9, 36, 110
12, 86398, Note_on_c, 9, 36, 0
12, 86400, Note_on_c, 9, 36, 110
12, 86494, Note_on_c, 9, 36, 0
12, 86496, Note_on_c, 9, 35, 110
12, 86590, Note_on_c, 9, 35, 0
12, 86592, Note_on_c, 9, 38, 110
12, 86686, Note_on_c, 9, 38, 0
12, 86688, Note_on_c, 9, 36, 110
12, 86782, Note_on_c, 9, 36, 0
12, 86784, Note_on_c, 9, 36, 110
12, 86878, Note_on_c, 9, 36, 0
12, 86880, Note_on_c, 9, 35, 110
12, 86974, Note_on_c, 9, 35, 0
12, 86976, Note_on_c, 9, 38, 110
12, 87070, Note_on_c, 9, 38, 0
12, 87072, Note_on_c, 9, 36, 110
12, 87166, Note_on_c, 9, 36, 0
12, 87168, Note_on_c, 9, 36, 110
12, 87262, Note_on_c, 9, 36, 0
12, 87264, Note_on_c, 9, 35, 110
12, 87358, Note_on_c, 9, 35, 0
12, 87360, Note_on_c, 9, 38, 110
12, 87454, Note_on_c, 9, 38, 0
12, 87456, Note_on_c, 9, 36, 110
12, 87550, Note_on_c, 9, 36, 0
12, 87552, Note_on_c, 9, 36, 110
12, 87646, Note_on_c, 9, 36, 0
12, 87648, Note_on_c, 9, 35, 110
12, 87742, Note_on_c, 9, 35, 0
12, 87744, Note_on_c, 9, 38, 110
12, 87838, Note_on_c, 9, 38, 0
12, 87840, Note_on_c, 9, 36, 110
12, 87934, Note_on_c, 9, 36, 0
12, 87936, Note_on_c, 9, 36, 110
12, 88096, Note_on_c, 9, 36, 0
12, 88128, Note_on_c, 9, 36, 110
12, 88288, Note_on_c, 9, 36, 0
12, 88320, Note_on_c, 9, 36, 110
12, 88414, Note_on_c, 9, 36, 0
12, 88416, Note_on_c, 9, 35, 110
12, 88510, Note_on_c, 9, 35, 0
12, 88512, Note_on_c, 9, 38, 110
12, 88606, Note_on_c, 9, 38, 0
12, 88608, Note_on_c, 9, 36, 110
12, 88702, Note_on_c, 9, 36, 0
12, 88704, Note_on_c, 9, 36, 110
12, 88798, Note_on_c, 9, 36, 0
12, 88800, Note_on_c, 9, 35, 110
12, 88894, Note_on_c, 9, 35, 0
12, 88896, Note_on_c, 9, 38, 110
12, 88990, Note_on_c, 9, 38, 0
12, 88992, Note_on_c, 9, 36, 110
12, 89086, Note_on_c, 9, 36, 0
12, 89088, Note_on_c, 9, 36, 110
12, 89182, Note_on_c, 9, 36, 0
12, 89184, Note_on_c, 9, 35, 110
12, 89278, Note_on_c, 9, 35, 0
12, 89280, Note_on_c, 9, 38, 110
12, 89374, Note_on_c, 9, 38, 0
12, 89376, Note_on_c, 9, 36, 110
12, 89470, Note_on_c, 9, 36, 0
12, 89472, Note_on_c, 9, 36, 110
12, 89566, Note_on_c, 9, 36, 0
12, 89568, Note_on_c, 9, 35, 110
12, 89662, Note_on_c, 9, 35, 0
12, 89664, Note_on_c, 9, 38, 110
12, 89758, Note_on_c, 9, 38, 0
12, 89760, Note_on_c, 9, 36, 110
12, 89854, Note_on_c, 9, 36, 0
12, 89856, Note_on_c, 9, 36, 110
12, 89950, Note_on_c, 9, 36, 0
12, 89952, Note_on_c, 9, 35, 110
12, 90046, Note_on_c, 9, 35, 0
12, 90048, Note_on_c, 9, 38, 110
12, 90142, Note_on_c, 9, 38, 0
12, 90144, Note_on_c, 9, 36, 110
12, 90238, Note_on_c, 9, 36, 0
12, 90240, Note_on_c, 9, 36, 110
12, 90334, Note_on_c, 9, 36, 0
12, 90336, Note_on_c, 9, 35, 110
12, 90430, Note_on_c, 9, 35, 0
12, 90432, Note_on_c, 9, 38, 110
12, 90526, Note_on_c, 9, 38, 0
12, 90528, Note_on_c, 9, 36, 110
12, 90622, Note_on_c, 9, 36, 0
12, 90624, Note_on_c, 9, 36, 110
12, 90718, Note_on_c, 9, 36, 0
12, 90720, Note_on_c, 9, 38, 110
12, 90814, Note_on_c, 9, 38, 0
12, 90816, Note_on_c, 9, 38, 110
12, 90910, Note_on_c, 9, 38, 0
12, 90912, Note_on_c, 9, 38, 110
12, 91006, Note_on_c, 9, 38, 0
12, 91008, Note_on_c, 9, 38, 110
12, 91168, Note_on_c, 9, 38, 0
12, 91392, Note_on_c, 9, 36, 110
12, 91552, Note_on_c, 9, 36, 0
12, 91584, Note_on_c, 9, 36, 110
12, 91744, Note_on_c, 9, 36, 0
12, 91776, Note_on_c, 9, 36, 110
12, 91936, Note_on_c, 9, 36, 0
12, 91968, Note_on_c, 9, 36, 110
12, 92128, Note_on_c, 9, 36, 0
12, 92160, Note_on_c, 9, 36, 110
12, 92320, Note_on_c, 9, 36, 0
12, 92352, Note_on_c, 9, 36, 110
12, 92512, Note_on_c, 9, 36, 0
12, 92736, Note_on_c, 9, 43, 110
12, 92794, Note_on_c, 9, 43, 0
12, 92796, Note_on_c, 9, 43, 110
12, 92866, Note_on_c, 9, 43, 0
12, 92868, Note_on_c, 9, 41, 110
12, 92926, Note_on_c, 9, 41, 0
12, 92928, Note_on_c, 9, 36, 110
12, 93088, Note_on_c, 9, 36, 0
12, 93120, Note_on_c, 9, 36, 110
12, 93280, Note_on_c, 9, 36, 0
12, 93312, Note_on_c, 9, 36, 110
12, 93472, Note_on_c, 9, 36, 0
12, 93504, Note_on_c, 9, 36, 110
12, 93664, Note_on_c, 9, 36, 0
12, 93696, Note_on_c, 9, 36, 110
12, 93856, Note_on_c, 9, 36, 0
12, 93888, Note_on_c, 9, 36, 110
12, 94048, Note_on_c, 9, 36, 0
12, 94080, Note_on_c, 9, 36, 110
12, 94210, Note_on_c, 9, 36, 0
12, 94212, Note_on_c, 9, 43, 110
12, 94270, Note_on_c, 9, 43, 0
12, 94272, Note_on_c, 9, 36, 110
12, 94272, Note_on_c, 9, 41, 110
12, 94330, Note_on_c, 9, 36, 0
12, 94330, Note_on_c, 9, 41, 0
12, 94332, Note_on_c, 9, 41, 110
12, 94402, Note_on_c, 9, 41, 0
12, 94404, Note_on_c, 9, 41, 110
12, 94462, Note_on_c, 9, 41, 0
12, 94464, Note_on_c, 9, 36, 110
12, 94624, Note_on_c, 9, 36, 0
12, 94848, Note_on_c, 9, 36, 110
12, 95008, Note_on_c, 9, 36, 0
12, 95232, Note_on_c, 9, 36, 110
12, 95568, Note_on_c, 9, 36, 0
12, 95568, End_track
13, 0, Start_track
13, 0, MIDI_port, 0
13, 0, Title_t, "STRINGS"
13, 0, Program_c, 2, 48
13, 0, Pitch_bend_c, 2, 8192
13, 0, Control_c, 2, 7, 127
13, 0, Control_c, 2, 10, 64
13, 3840, Note_on_c, 2, 72, 110
13, 4176, Note_on_c, 2, 72, 0
13, 4224, Note_on_c, 2, 71, 110
13, 4560, Note_on_c, 2, 71, 0
13, 4608, Note_on_c, 2, 69, 110
13, 5136, Note_on_c, 2, 69, 0
13, 5184, Note_on_c, 2, 67, 110
13, 5344, Note_on_c, 2, 67, 0
13, 5376, Note_on_c, 2, 65, 110
13, 6096, Note_on_c, 2, 65, 0
13, 6144, Note_on_c, 2, 62, 110
13, 6864, Note_on_c, 2, 62, 0
13, 6912, Note_on_c, 2, 67, 110
13, 8400, Note_on_c, 2, 67, 0
13, 8448, Note_on_c, 2, 72, 110
13, 8784, Note_on_c, 2, 72, 0
13, 8832, Note_on_c, 2, 71, 110
13, 9168, Note_on_c, 2, 71, 0
13, 9216, Note_on_c, 2, 69, 110
13, 9744, Note_on_c, 2, 69, 0
13, 9792, Note_on_c, 2, 67, 110
13, 9952, Note_on_c, 2, 67, 0
13, 9984, Note_on_c, 2, 65, 110
13, 10704, Note_on_c, 2, 65, 0
13, 10752, Note_on_c, 2, 62, 110
13, 11472, Note_on_c, 2, 62, 0
13, 11520, Note_on_c, 2, 67, 110
13, 13008, Note_on_c, 2, 67, 0
13, 14592, Note_on_c, 2, 72, 110
13, 15312, Note_on_c, 2, 72, 0
13, 15360, Note_on_c, 2, 71, 110
13, 16080, Note_on_c, 2, 71, 0
13, 16128, Note_on_c, 2, 69, 110
13, 17232, Note_on_c, 2, 69, 0
13, 17280, Note_on_c, 2, 67, 110
13, 17616, Note_on_c, 2, 67, 0
13, 17664, Note_on_c, 2, 65, 110
13, 18384, Note_on_c, 2, 65, 0
13, 18432, Note_on_c, 2, 62, 110
13, 19152, Note_on_c, 2, 62, 0
13, 19200, Note_on_c, 2, 67, 110
13, 19920, Note_on_c, 2, 67, 0
13, 40704, Note_on_c, 2, 84, 110
13, 40750, Note_on_c, 2, 84, 0
13, 40752, Note_on_c, 2, 83, 110
13, 40798, Note_on_c, 2, 83, 0
13, 40800, Note_on_c, 2, 84, 110
13, 40846, Note_on_c, 2, 84, 0
13, 40848, Note_on_c, 2, 83, 110
13, 40894, Note_on_c, 2, 83, 0
13, 40896, Note_on_c, 2, 84, 110
13, 40942, Note_on_c, 2, 84, 0
13, 40944, Note_on_c, 2, 79, 110
13, 40990, Note_on_c, 2, 79, 0
13, 40992, Note_on_c, 2, 76, 110
13, 41038, Note_on_c, 2, 76, 0
13, 41040, Note_on_c, 2, 79, 110
13, 41086, Note_on_c, 2, 79, 0
13, 41088, Note_on_c, 2, 84, 110
13, 41134, Note_on_c, 2, 84, 0
13, 41136, Note_on_c, 2, 83, 110
13, 41182, Note_on_c, 2, 83, 0
13, 41184, Note_on_c, 2, 84, 110
13, 41230, Note_on_c, 2, 84, 0
13, 41232, Note_on_c, 2, 83, 110
13, 41278, Note_on_c, 2, 83, 0
13, 41280, Note_on_c, 2, 84, 110
13, 41326, Note_on_c, 2, 84, 0
13, 41328, Note_on_c, 2, 79, 110
13, 41374, Note_on_c, 2, 79, 0
13, 41376, Note_on_c, 2, 76, 110
13, 41422, Note_on_c, 2, 76, 0
13, 41424, Note_on_c, 2, 79, 110
13, 41470, Note_on_c, 2, 79, 0
13, 41472, Note_on_c, 2, 84, 110
13, 41518, Note_on_c, 2, 84, 0
13, 41520, Note_on_c, 2, 83, 110
13, 41566, Note_on_c, 2, 83, 0
13, 41568, Note_on_c, 2, 84, 110
13, 41614, Note_on_c, 2, 84, 0
13, 41616, Note_on_c, 2, 83, 110
13, 41662, Note_on_c, 2, 83, 0
13, 41664, Note_on_c, 2, 84, 110
13, 41710, Note_on_c, 2, 84, 0
13, 41712, Note_on_c, 2, 79, 110
13, 41758, Note_on_c, 2, 79, 0
13, 41760, Note_on_c, 2, 76, 110
13, 41806, Note_on_c, 2, 76, 0
13, 41808, Note_on_c, 2, 79, 110
13, 41854, Note_on_c, 2, 79, 0
13, 41856, Note_on_c, 2, 84, 110
13, 41902, Note_on_c, 2, 84, 0
13, 41904, Note_on_c, 2, 83, 110
13, 41950, Note_on_c, 2, 83, 0
13, 41952, Note_on_c, 2, 84, 110
13, 41998, Note_on_c, 2, 84, 0
13, 42000, Note_on_c, 2, 83, 110
13, 42046, Note_on_c, 2, 83, 0
13, 42048, Note_on_c, 2, 84, 110
13, 42094, Note_on_c, 2, 84, 0
13, 42096, Note_on_c, 2, 79, 110
13, 42142, Note_on_c, 2, 79, 0
13, 42144, Note_on_c, 2, 76, 110
13, 42190, Note_on_c, 2, 76, 0
13, 42192, Note_on_c, 2, 79, 110
13, 42238, Note_on_c, 2, 79, 0
13, 42240, Note_on_c, 2, 84, 110
13, 42286, Note_on_c, 2, 84, 0
13, 42288, Note_on_c, 2, 83, 110
13, 42334, Note_on_c, 2, 83, 0
13, 42336, Note_on_c, 2, 84, 110
13, 42382, Note_on_c, 2, 84, 0
13, 42384, Note_on_c, 2, 83, 110
13, 42430, Note_on_c, 2, 83, 0
13, 42432, Note_on_c, 2, 84, 110
13, 42478, Note_on_c, 2, 84, 0
13, 42480, Note_on_c, 2, 79, 110
13, 42526, Note_on_c, 2, 79, 0
13, 42528, Note_on_c, 2, 76, 110
13, 42574, Note_on_c, 2, 76, 0
13, 42576, Note_on_c, 2, 79, 110
13, 42622, Note_on_c, 2, 79, 0
13, 42624, Note_on_c, 2, 84, 110
13, 42670, Note_on_c, 2, 84, 0
13, 42672, Note_on_c, 2, 83, 110
13, 42718, Note_on_c, 2, 83, 0
13, 42720, Note_on_c, 2, 84, 110
13, 42766, Note_on_c, 2, 84, 0
13, 42768, Note_on_c, 2, 83, 110
13, 42814, Note_on_c, 2, 83, 0
13, 42816, Note_on_c, 2, 84, 110
13, 42862, Note_on_c, 2, 84, 0
13, 42864, Note_on_c, 2, 79, 110
13, 42910, Note_on_c, 2, 79, 0
13, 42912, Note_on_c, 2, 76, 110
13, 42958, Note_on_c, 2, 76, 0
13, 42960, Note_on_c, 2, 79, 110
13, 43006, Note_on_c, 2, 79, 0
13, 43008, Note_on_c, 2, 84, 110
13, 43054, Note_on_c, 2, 84, 0
13, 43056, Note_on_c, 2, 83, 110
13, 43102, Note_on_c, 2, 83, 0
13, 43104, Note_on_c, 2, 84, 110
13, 43150, Note_on_c, 2, 84, 0
13, 43152, Note_on_c, 2, 83, 110
13, 43198, Note_on_c, 2, 83, 0
13, 43200, Note_on_c, 2, 84, 110
13, 43246, Note_on_c, 2, 84, 0
13, 43248, Note_on_c, 2, 79, 110
13, 43294, Note_on_c, 2, 79, 0
13, 43296, Note_on_c, 2, 76, 110
13, 43342, Note_on_c, 2, 76, 0
13, 43344, Note_on_c, 2, 79, 110
13, 43390, Note_on_c, 2, 79, 0
13, 43392, Note_on_c, 2, 84, 110
13, 43438, Note_on_c, 2, 84, 0
13, 43440, Note_on_c, 2, 83, 110
13, 43486, Note_on_c, 2, 83, 0
13, 43488, Note_on_c, 2, 84, 110
13, 43534, Note_on_c, 2, 84, 0
13, 43536, Note_on_c, 2, 83, 110
13, 43582, Note_on_c, 2, 83, 0
13, 43584, Note_on_c, 2, 84, 110
13, 43630, Note_on_c, 2, 84, 0
13, 43632, Note_on_c, 2, 79, 110
13, 43678, Note_on_c, 2, 79, 0
13, 43680, Note_on_c, 2, 76, 110
13, 43726, Note_on_c, 2, 76, 0
13, 43728, Note_on_c, 2, 79, 110
13, 43774, Note_on_c, 2, 79, 0
13, 43776, Note_on_c, 2, 89, 110
13, 43822, Note_on_c, 2, 89, 0
13, 43824, Note_on_c, 2, 88, 110
13, 43870, Note_on_c, 2, 88, 0
13, 43872, Note_on_c, 2, 89, 110
13, 43918, Note_on_c, 2, 89, 0
13, 43920, Note_on_c, 2, 88, 110
13, 43966, Note_on_c, 2, 88, 0
13, 43968, Note_on_c, 2, 89, 110
13, 44014, Note_on_c, 2, 89, 0
13, 44016, Note_on_c, 2, 84, 110
13, 44062, Note_on_c, 2, 84, 0
13, 44064, Note_on_c, 2, 81, 110
13, 44110, Note_on_c, 2, 81, 0
13, 44112, Note_on_c, 2, 84, 110
13, 44158, Note_on_c, 2, 84, 0
13, 44160, Note_on_c, 2, 89, 110
13, 44206, Note_on_c, 2, 89, 0
13, 44208, Note_on_c, 2, 88, 110
13, 44254, Note_on_c, 2, 88, 0
13, 44256, Note_on_c, 2, 89, 110
13, 44302, Note_on_c, 2, 89, 0
13, 44304, Note_on_c, 2, 88, 110
13, 44350, Note_on_c, 2, 88, 0
13, 44352, Note_on_c, 2, 89, 110
13, 44398, Note_on_c, 2, 89, 0
13, 44400, Note_on_c, 2, 84, 110
13, 44446, Note_on_c, 2, 84, 0
13, 44448, Note_on_c, 2, 81, 110
13, 44494, Note_on_c, 2, 81, 0
13, 44496, Note_on_c, 2, 84, 110
13, 44542, Note_on_c, 2, 84, 0
13, 44544, Note_on_c, 2, 89, 110
13, 44590, Note_on_c, 2, 89, 0
13, 44592, Note_on_c, 2, 88, 110
13, 44638, Note_on_c, 2, 88, 0
13, 44640, Note_on_c, 2, 89, 110
13, 44686, Note_on_c, 2, 89, 0
13, 44688, Note_on_c, 2, 88, 110
13, 44734, Note_on_c, 2, 88, 0
13, 44736, Note_on_c, 2, 89, 110
13, 44782, Note_on_c, 2, 89, 0
13, 44784, Note_on_c, 2, 84, 110
13, 44830, Note_on_c, 2, 84, 0
13, 44832, Note_on_c, 2, 81, 110
13, 44878, Note_on_c, 2, 81, 0
13, 44880, Note_on_c, 2, 84, 110
13, 44926, Note_on_c, 2, 84, 0
13, 44928, Note_on_c, 2, 89, 110
13, 44974, Note_on_c, 2, 89, 0
13, 44976, Note_on_c, 2, 88, 110
13, 45022, Note_on_c, 2, 88, 0
13, 45024, Note_on_c, 2, 89, 110
13, 45070, Note_on_c, 2, 89, 0
13, 45072, Note_on_c, 2, 88, 110
13, 45118, Note_on_c, 2, 88, 0
13, 45120, Note_on_c, 2, 89, 110
13, 45166, Note_on_c, 2, 89, 0
13, 45168, Note_on_c, 2, 84, 110
13, 45214, Note_on_c, 2, 84, 0
13, 45216, Note_on_c, 2, 81, 110
13, 45262, Note_on_c, 2, 81, 0
13, 45264, Note_on_c, 2, 84, 110
13, 45310, Note_on_c, 2, 84, 0
13, 45312, Note_on_c, 2, 91, 110
13, 45358, Note_on_c, 2, 91, 0
13, 45360, Note_on_c, 2, 90, 110
13, 45406, Note_on_c, 2, 90, 0
13, 45408, Note_on_c, 2, 91, 110
13, 45454, Note_on_c, 2, 91, 0
13, 45456, Note_on_c, 2, 90, 110
13, 45502, Note_on_c, 2, 90, 0
13, 45504, Note_on_c, 2, 91, 110
13, 45550, Note_on_c, 2, 91, 0
13, 45552, Note_on_c, 2, 86, 110
13, 45598, Note_on_c, 2, 86, 0
13, 45600, Note_on_c, 2, 83, 110
13, 45646, Note_on_c, 2, 83, 0
13, 45648, Note_on_c, 2, 86, 110
13, 45694, Note_on_c, 2, 86, 0
13, 45696, Note_on_c, 2, 91, 110
13, 45742, Note_on_c, 2, 91, 0
13, 45744, Note_on_c, 2, 90, 110
13, 45790, Note_on_c, 2, 90, 0
13, 45792, Note_on_c, 2, 91, 110
13, 45838, Note_on_c, 2, 91, 0
13, 45840, Note_on_c, 2, 90, 110
13, 45886, Note_on_c, 2, 90, 0
13, 45888, Note_on_c, 2, 91, 110
13, 45934, Note_on_c, 2, 91, 0
13, 45936, Note_on_c, 2, 86, 110
13, 45982, Note_on_c, 2, 86, 0
13, 45984, Note_on_c, 2, 83, 110
13, 46030, Note_on_c, 2, 83, 0
13, 46032, Note_on_c, 2, 86, 110
13, 46078, Note_on_c, 2, 86, 0
13, 46080, Note_on_c, 2, 91, 110
13, 46126, Note_on_c, 2, 91, 0
13, 46128, Note_on_c, 2, 90, 110
13, 46174, Note_on_c, 2, 90, 0
13, 46176, Note_on_c, 2, 91, 110
13, 46222, Note_on_c, 2, 91, 0
13, 46224, Note_on_c, 2, 90, 110
13, 46270, Note_on_c, 2, 90, 0
13, 46272, Note_on_c, 2, 91, 110
13, 46318, Note_on_c, 2, 91, 0
13, 46320, Note_on_c, 2, 86, 110
13, 46366, Note_on_c, 2, 86, 0
13, 46368, Note_on_c, 2, 83, 110
13, 46414, Note_on_c, 2, 83, 0
13, 46416, Note_on_c, 2, 86, 110
13, 46462, Note_on_c, 2, 86, 0
13, 46464, Note_on_c, 2, 79, 110
13, 46510, Note_on_c, 2, 79, 0
13, 46512, Note_on_c, 2, 81, 110
13, 46558, Note_on_c, 2, 81, 0
13, 46560, Note_on_c, 2, 83, 110
13, 46606, Note_on_c, 2, 83, 0
13, 46608, Note_on_c, 2, 84, 110
13, 46654, Note_on_c, 2, 84, 0
13, 46656, Note_on_c, 2, 81, 110
13, 46702, Note_on_c, 2, 81, 0
13, 46704, Note_on_c, 2, 83, 110
13, 46750, Note_on_c, 2, 83, 0
13, 46752, Note_on_c, 2, 84, 110
13, 46798, Note_on_c, 2, 84, 0
13, 46800, Note_on_c, 2, 86, 110
13, 46846, Note_on_c, 2, 86, 0
13, 46848, Note_on_c, 2, 84, 110
13, 46894, Note_on_c, 2, 84, 0
13, 46896, Note_on_c, 2, 83, 110
13, 46942, Note_on_c, 2, 83, 0
13, 46944, Note_on_c, 2, 84, 110
13, 46990, Note_on_c, 2, 84, 0
13, 46992, Note_on_c, 2, 83, 110
13, 47038, Note_on_c, 2, 83, 0
13, 47040, Note_on_c, 2, 84, 110
13, 47086, Note_on_c, 2, 84, 0
13, 47088, Note_on_c, 2, 79, 110
13, 47088, Note_on_c, 2, 83, 110
13, 47134, Note_on_c, 2, 79, 0
13, 47134, Note_on_c, 2, 83, 0
13, 47136, Note_on_c, 2, 76, 110
13, 47182, Note_on_c, 2, 76, 0
13, 47184, Note_on_c, 2, 79, 110
13, 47230, Note_on_c, 2, 79, 0
13, 47232, Note_on_c, 2, 84, 110
13, 47278, Note_on_c, 2, 84, 0
13, 47280, Note_on_c, 2, 83, 110
13, 47326, Note_on_c, 2, 83, 0
13, 47328, Note_on_c, 2, 84, 110
13, 47374, Note_on_c, 2, 84, 0
13, 47376, Note_on_c, 2, 83, 110
13, 47422, Note_on_c, 2, 83, 0
13, 47424, Note_on_c, 2, 84, 110
13, 47470, Note_on_c, 2, 84, 0
13, 47472, Note_on_c, 2, 79, 110
13, 47518, Note_on_c, 2, 79, 0
13, 47520, Note_on_c, 2, 76, 110
13, 47566, Note_on_c, 2, 76, 0
13, 47568, Note_on_c, 2, 79, 110
13, 47614, Note_on_c, 2, 79, 0
13, 47616, Note_on_c, 2, 86, 110
13, 47662, Note_on_c, 2, 86, 0
13, 47664, Note_on_c, 2, 84, 110
13, 47710, Note_on_c, 2, 84, 0
13, 47712, Note_on_c, 2, 86, 110
13, 47758, Note_on_c, 2, 86, 0
13, 47760, Note_on_c, 2, 84, 110
13, 47806, Note_on_c, 2, 84, 0
13, 47808, Note_on_c, 2, 86, 110
13, 47854, Note_on_c, 2, 86, 0
13, 47856, Note_on_c, 2, 81, 110
13, 47902, Note_on_c, 2, 81, 0
13, 47904, Note_on_c, 2, 77, 110
13, 47950, Note_on_c, 2, 77, 0
13, 47952, Note_on_c, 2, 81, 110
13, 47998, Note_on_c, 2, 81, 0
13, 48000, Note_on_c, 2, 86, 110
13, 48046, Note_on_c, 2, 86, 0
13, 48048, Note_on_c, 2, 84, 110
13, 48094, Note_on_c, 2, 84, 0
13, 48096, Note_on_c, 2, 86, 110
13, 48142, Note_on_c, 2, 86, 0
13, 48144, Note_on_c, 2, 84, 110
13, 48190, Note_on_c, 2, 84, 0
13, 48192, Note_on_c, 2, 86, 110
13, 48238, Note_on_c, 2, 86, 0
13, 48240, Note_on_c, 2, 81, 110
13, 48286, Note_on_c, 2, 81, 0
13, 48288, Note_on_c, 2, 77, 110
13, 48334, Note_on_c, 2, 77, 0
13, 48336, Note_on_c, 2, 81, 110
13, 48382, Note_on_c, 2, 81, 0
13, 48384, Note_on_c, 2, 84, 110
13, 48430, Note_on_c, 2, 84, 0
13, 48432, Note_on_c, 2, 83, 110
13, 48478, Note_on_c, 2, 83, 0
13, 48480, Note_on_c, 2, 84, 110
13, 48526, Note_on_c, 2, 84, 0
13, 48528, Note_on_c, 2, 83, 110
13, 48574, Note_on_c, 2, 83, 0
13, 48576, Note_on_c, 2, 84, 110
13, 48622, Note_on_c, 2, 84, 0
13, 48624, Note_on_c, 2, 79, 110
13, 48670, Note_on_c, 2, 79, 0
13, 48672, Note_on_c, 2, 76, 110
13, 48718, Note_on_c, 2, 76, 0
13, 48720, Note_on_c, 2, 79, 110
13, 48766, Note_on_c, 2, 79, 0
13, 48768, Note_on_c, 2, 84, 110
13, 48814, Note_on_c, 2, 84, 0
13, 48816, Note_on_c, 2, 83, 110
13, 48862, Note_on_c, 2, 83, 0
13, 48864, Note_on_c, 2, 84, 110
13, 48910, Note_on_c, 2, 84, 0
13, 48912, Note_on_c, 2, 83, 110
13, 48958, Note_on_c, 2, 83, 0
13, 48960, Note_on_c, 2, 84, 110
13, 49006, Note_on_c, 2, 84, 0
13, 49008, Note_on_c, 2, 79, 110
13, 49054, Note_on_c, 2, 79, 0
13, 49056, Note_on_c, 2, 76, 110
13, 49102, Note_on_c, 2, 76, 0
13, 49104, Note_on_c, 2, 79, 110
13, 49150, Note_on_c, 2, 79, 0
13, 49152, Note_on_c, 2, 84, 110
13, 49198, Note_on_c, 2, 84, 0
13, 49200, Note_on_c, 2, 83, 110
13, 49246, Note_on_c, 2, 83, 0
13, 49248, Note_on_c, 2, 84, 110
13, 49294, Note_on_c, 2, 84, 0
13, 49296, Note_on_c, 2, 83, 110
13, 49342, Note_on_c, 2, 83, 0
13, 49344, Note_on_c, 2, 84, 110
13, 49390, Note_on_c, 2, 84, 0
13, 49392, Note_on_c, 2, 79, 110
13, 49438, Note_on_c, 2, 79, 0
13, 49440, Note_on_c, 2, 76, 110
13, 49486, Note_on_c, 2, 76, 0
13, 49488, Note_on_c, 2, 79, 110
13, 49534, Note_on_c, 2, 79, 0
13, 49536, Note_on_c, 2, 84, 110
13, 49582, Note_on_c, 2, 84, 0
13, 49584, Note_on_c, 2, 83, 110
13, 49630, Note_on_c, 2, 83, 0
13, 49632, Note_on_c, 2, 84, 110
13, 49678, Note_on_c, 2, 84, 0
13, 49680, Note_on_c, 2, 83, 110
13, 49726, Note_on_c, 2, 83, 0
13, 49728, Note_on_c, 2, 84, 110
13, 49774, Note_on_c, 2, 84, 0
13, 49776, Note_on_c, 2, 79, 110
13, 49822, Note_on_c, 2, 79, 0
13, 49824, Note_on_c, 2, 76, 110
13, 49870, Note_on_c, 2, 76, 0
13, 49872, Note_on_c, 2, 79, 110
13, 49918, Note_on_c, 2, 79, 0
13, 49920, Note_on_c, 2, 89, 110
13, 49966, Note_on_c, 2, 89, 0
13, 49968, Note_on_c, 2, 88, 110
13, 50014, Note_on_c, 2, 88, 0
13, 50016, Note_on_c, 2, 89, 110
13, 50062, Note_on_c, 2, 89, 0
13, 50064, Note_on_c, 2, 88, 110
13, 50110, Note_on_c, 2, 88, 0
13, 50112, Note_on_c, 2, 89, 110
13, 50158, Note_on_c, 2, 89, 0
13, 50160, Note_on_c, 2, 84, 110
13, 50206, Note_on_c, 2, 84, 0
13, 50208, Note_on_c, 2, 81, 110
13, 50254, Note_on_c, 2, 81, 0
13, 50256, Note_on_c, 2, 84, 110
13, 50302, Note_on_c, 2, 84, 0
13, 50304, Note_on_c, 2, 89, 110
13, 50350, Note_on_c, 2, 89, 0
13, 50352, Note_on_c, 2, 88, 110
13, 50398, Note_on_c, 2, 88, 0
13, 50400, Note_on_c, 2, 89, 110
13, 50446, Note_on_c, 2, 89, 0
13, 50448, Note_on_c, 2, 88, 110
13, 50494, Note_on_c, 2, 88, 0
13, 50496, Note_on_c, 2, 89, 110
13, 50542, Note_on_c, 2, 89, 0
13, 50544, Note_on_c, 2, 84, 110
13, 50590, Note_on_c, 2, 84, 0
13, 50592, Note_on_c, 2, 81, 110
13, 50638, Note_on_c, 2, 81, 0
13, 50640, Note_on_c, 2, 84, 110
13, 50686, Note_on_c, 2, 84, 0
13, 50688, Note_on_c, 2, 89, 110
13, 50734, Note_on_c, 2, 89, 0
13, 50736, Note_on_c, 2, 88, 110
13, 50782, Note_on_c, 2, 88, 0
13, 50784, Note_on_c, 2, 89, 110
13, 50830, Note_on_c, 2, 89, 0
13, 50832, Note_on_c, 2, 88, 110
13, 50878, Note_on_c, 2, 88, 0
13, 50880, Note_on_c, 2, 89, 110
13, 50926, Note_on_c, 2, 89, 0
13, 50928, Note_on_c, 2, 84, 110
13, 50974, Note_on_c, 2, 84, 0
13, 50976, Note_on_c, 2, 81, 110
13, 51022, Note_on_c, 2, 81, 0
13, 51024, Note_on_c, 2, 84, 110
13, 51070, Note_on_c, 2, 84, 0
13, 51072, Note_on_c, 2, 89, 110
13, 51118, Note_on_c, 2, 89, 0
13, 51120, Note_on_c, 2, 88, 110
13, 51166, Note_on_c, 2, 88, 0
13, 51168, Note_on_c, 2, 89, 110
13, 51214, Note_on_c, 2, 89, 0
13, 51216, Note_on_c, 2, 88, 110
13, 51262, Note_on_c, 2, 88, 0
13, 51264, Note_on_c, 2, 89, 110
13, 51310, Note_on_c, 2, 89, 0
13, 51312, Note_on_c, 2, 84, 110
13, 51358, Note_on_c, 2, 84, 0
13, 51360, Note_on_c, 2, 81, 110
13, 51406, Note_on_c, 2, 81, 0
13, 51408, Note_on_c, 2, 84, 110
13, 51454, Note_on_c, 2, 84, 0
13, 51456, Note_on_c, 2, 91, 110
13, 51502, Note_on_c, 2, 91, 0
13, 51504, Note_on_c, 2, 90, 110
13, 51550, Note_on_c, 2, 90, 0
13, 51552, Note_on_c, 2, 91, 110
13, 51598, Note_on_c, 2, 91, 0
13, 51600, Note_on_c, 2, 90, 110
13, 51646, Note_on_c, 2, 90, 0
13, 51648, Note_on_c, 2, 91, 110
13, 51694, Note_on_c, 2, 91, 0
13, 51696, Note_on_c, 2, 86, 110
13, 51742, Note_on_c, 2, 86, 0
13, 51744, Note_on_c, 2, 83, 110
13, 51790, Note_on_c, 2, 83, 0
13, 51792, Note_on_c, 2, 86, 110
13, 51838, Note_on_c, 2, 86, 0
13, 51840, Note_on_c, 2, 91, 110
13, 51886, Note_on_c, 2, 91, 0
13, 51888, Note_on_c, 2, 90, 110
13, 51934, Note_on_c, 2, 90, 0
13, 51936, Note_on_c, 2, 91, 110
13, 51982, Note_on_c, 2, 91, 0
13, 51984, Note_on_c, 2, 90, 110
13, 52030, Note_on_c, 2, 90, 0
13, 52032, Note_on_c, 2, 91, 110
13, 52078, Note_on_c, 2, 91, 0
13, 52080, Note_on_c, 2, 86, 110
13, 52126, Note_on_c, 2, 86, 0
13, 52128, Note_on_c, 2, 83, 110
13, 52174, Note_on_c, 2, 83, 0
13, 52176, Note_on_c, 2, 86, 110
13, 52222, Note_on_c, 2, 86, 0
13, 52224, Note_on_c, 2, 79, 110
13, 52270, Note_on_c, 2, 79, 0
13, 52272, Note_on_c, 2, 81, 110
13, 52318, Note_on_c, 2, 81, 0
13, 52320, Note_on_c, 2, 83, 110
13, 52366, Note_on_c, 2, 83, 0
13, 52368, Note_on_c, 2, 84, 110
13, 52414, Note_on_c, 2, 84, 0
13, 52416, Note_on_c, 2, 79, 110
13, 52462, Note_on_c, 2, 79, 0
13, 52464, Note_on_c, 2, 81, 110
13, 52510, Note_on_c, 2, 81, 0
13, 52512, Note_on_c, 2, 83, 110
13, 52558, Note_on_c, 2, 83, 0
13, 52560, Note_on_c, 2, 84, 110
13, 52606, Note_on_c, 2, 84, 0
13, 52608, Note_on_c, 2, 86, 110
13, 52768, Note_on_c, 2, 86, 0
13, 79104, Note_on_c, 2, 85, 110
13, 79150, Note_on_c, 2, 85, 0
13, 79152, Note_on_c, 2, 84, 110
13, 79198, Note_on_c, 2, 84, 0
13, 79200, Note_on_c, 2, 85, 110
13, 79246, Note_on_c, 2, 85, 0
13, 79248, Note_on_c, 2, 84, 110
13, 79294, Note_on_c, 2, 84, 0
13, 79296, Note_on_c, 2, 85, 110
13, 79342, Note_on_c, 2, 85, 0
13, 79344, Note_on_c, 2, 80, 110
13, 79390, Note_on_c, 2, 80, 0
13, 79392, Note_on_c, 2, 77, 110
13, 79438, Note_on_c, 2, 77, 0
13, 79440, Note_on_c, 2, 80, 110
13, 79486, Note_on_c, 2, 80, 0
13, 79488, Note_on_c, 2, 85, 110
13, 79534, Note_on_c, 2, 85, 0
13, 79536, Note_on_c, 2, 84, 110
13, 79582, Note_on_c, 2, 84, 0
13, 79584, Note_on_c, 2, 85, 110
13, 79630, Note_on_c, 2, 85, 0
13, 79632, Note_on_c, 2, 84, 110
13, 79678, Note_on_c, 2, 84, 0
13, 79680, Note_on_c, 2, 85, 110
13, 79726, Note_on_c, 2, 85, 0
13, 79728, Note_on_c, 2, 80, 110
13, 79774, Note_on_c, 2, 80, 0
13, 79776, Note_on_c, 2, 77, 110
13, 79822, Note_on_c, 2, 77, 0
13, 79824, Note_on_c, 2, 80, 110
13, 79870, Note_on_c, 2, 80, 0
13, 79872, Note_on_c, 2, 85, 110
13, 79918, Note_on_c, 2, 85, 0
13, 79920, Note_on_c, 2, 84, 110
13, 79966, Note_on_c, 2, 84, 0
13, 79968, Note_on_c, 2, 85, 110
13, 80014, Note_on_c, 2, 85, 0
13, 80016, Note_on_c, 2, 84, 110
13, 80062, Note_on_c, 2, 84, 0
13, 80064, Note_on_c, 2, 85, 110
13, 80110, Note_on_c, 2, 85, 0
13, 80112, Note_on_c, 2, 80, 110
13, 80158, Note_on_c, 2, 80, 0
13, 80160, Note_on_c, 2, 77, 110
13, 80206, Note_on_c, 2, 77, 0
13, 80208, Note_on_c, 2, 80, 110
13, 80254, Note_on_c, 2, 80, 0
13, 80256, Note_on_c, 2, 85, 110
13, 80302, Note_on_c, 2, 85, 0
13, 80304, Note_on_c, 2, 84, 110
13, 80350, Note_on_c, 2, 84, 0
13, 80352, Note_on_c, 2, 85, 110
13, 80398, Note_on_c, 2, 85, 0
13, 80400, Note_on_c, 2, 84, 110
13, 80446, Note_on_c, 2, 84, 0
13, 80448, Note_on_c, 2, 85, 110
13, 80494, Note_on_c, 2, 85, 0
13, 80496, Note_on_c, 2, 80, 110
13, 80542, Note_on_c, 2, 80, 0
13, 80544, Note_on_c, 2, 77, 110
13, 80590, Note_on_c, 2, 77, 0
13, 80592, Note_on_c, 2, 80, 110
13, 80638, Note_on_c, 2, 80, 0
13, 80640, Note_on_c, 2, 85, 110
13, 80686, Note_on_c, 2, 85, 0
13, 80688, Note_on_c, 2, 84, 110
13, 80734, Note_on_c, 2, 84, 0
13, 80736, Note_on_c, 2, 85, 110
13, 80782, Note_on_c, 2, 85, 0
13, 80784, Note_on_c, 2, 84, 110
13, 80830, Note_on_c, 2, 84, 0
13, 80832, Note_on_c, 2, 85, 110
13, 80878, Note_on_c, 2, 85, 0
13, 80880, Note_on_c, 2, 80, 110
13, 80926, Note_on_c, 2, 80, 0
13, 80928, Note_on_c, 2, 77, 110
13, 80974, Note_on_c, 2, 77, 0
13, 80976, Note_on_c, 2, 80, 110
13, 81022, Note_on_c, 2, 80, 0
13, 81024, Note_on_c, 2, 85, 110
13, 81070, Note_on_c, 2, 85, 0
13, 81072, Note_on_c, 2, 84, 110
13, 81118, Note_on_c, 2, 84, 0
13, 81120, Note_on_c, 2, 85, 110
13, 81166, Note_on_c, 2, 85, 0
13, 81168, Note_on_c, 2, 84, 110
13, 81214, Note_on_c, 2, 84, 0
13, 81216, Note_on_c, 2, 85, 110
13, 81262, Note_on_c, 2, 85, 0
13, 81264, Note_on_c, 2, 80, 110
13, 81310, Note_on_c, 2, 80, 0
13, 81312, Note_on_c, 2, 77, 110
13, 81358, Note_on_c, 2, 77, 0
13, 81360, Note_on_c, 2, 80, 110
13, 81406, Note_on_c, 2, 80, 0
13, 81408, Note_on_c, 2, 85, 110
13, 81454, Note_on_c, 2, 85, 0
13, 81456, Note_on_c, 2, 84, 110
13, 81502, Note_on_c, 2, 84, 0
13, 81504, Note_on_c, 2, 85, 110
13, 81550, Note_on_c, 2, 85, 0
13, 81552, Note_on_c, 2, 84, 110
13, 81598, Note_on_c, 2, 84, 0
13, 81600, Note_on_c, 2, 85, 110
13, 81646, Note_on_c, 2, 85, 0
13, 81648, Note_on_c, 2, 80, 110
13, 81694, Note_on_c, 2, 80, 0
13, 81696, Note_on_c, 2, 77, 110
13, 81742, Note_on_c, 2, 77, 0
13, 81744, Note_on_c, 2, 80, 110
13, 81790, Note_on_c, 2, 80, 0
13, 81792, Note_on_c, 2, 85, 110
13, 81838, Note_on_c, 2, 85, 0
13, 81840, Note_on_c, 2, 84, 110
13, 81886, Note_on_c, 2, 84, 0
13, 81888, Note_on_c, 2, 85, 110
13, 81934, Note_on_c, 2, 85, 0
13, 81936, Note_on_c, 2, 84, 110
13, 81982, Note_on_c, 2, 84, 0
13, 81984, Note_on_c, 2, 85, 110
13, 82030, Note_on_c, 2, 85, 0
13, 82032, Note_on_c, 2, 80, 110
13, 82078, Note_on_c, 2, 80, 0
13, 82080, Note_on_c, 2, 77, 110
13, 82126, Note_on_c, 2, 77, 0
13, 82128, Note_on_c, 2, 80, 110
13, 82174, Note_on_c, 2, 80, 0
13, 82176, Note_on_c, 2, 90, 110
13, 82222, Note_on_c, 2, 90, 0
13, 82224, Note_on_c, 2, 89, 110
13, 82270, Note_on_c, 2, 89, 0
13, 82272, Note_on_c, 2, 90, 110
13, 82318, Note_on_c, 2, 90, 0
13, 82320, Note_on_c, 2, 89, 110
13, 82366, Note_on_c, 2, 89, 0
13, 82368, Note_on_c, 2, 90, 110
13, 82414, Note_on_c, 2, 90, 0
13, 82416, Note_on_c, 2, 85, 110
13, 82462, Note_on_c, 2, 85, 0
13, 82464, Note_on_c, 2, 82, 110
13, 82510, Note_on_c, 2, 82, 0
13, 82512, Note_on_c, 2, 85, 110
13, 82558, Note_on_c, 2, 85, 0
13, 82560, Note_on_c, 2, 90, 110
13, 82606, Note_on_c, 2, 90, 0
13, 82608, Note_on_c, 2, 89, 110
13, 82654, Note_on_c, 2, 89, 0
13, 82656, Note_on_c, 2, 90, 110
13, 82702, Note_on_c, 2, 90, 0
13, 82704, Note_on_c, 2, 89, 110
13, 82750, Note_on_c, 2, 89, 0
13, 82752, Note_on_c, 2, 90, 110
13, 82798, Note_on_c, 2, 90, 0
13, 82800, Note_on_c, 2, 85, 110
13, 82846, Note_on_c, 2, 85, 0
13, 82848, Note_on_c, 2, 82, 110
13, 82894, Note_on_c, 2, 82, 0
13, 82896, Note_on_c, 2, 85, 110
13, 82942, Note_on_c, 2, 85, 0
13, 82944, Note_on_c, 2, 90, 110
13, 82990, Note_on_c, 2, 90, 0
13, 82992, Note_on_c, 2, 89, 110
13, 83038, Note_on_c, 2, 89, 0
13, 83040, Note_on_c, 2, 90, 110
13, 83086, Note_on_c, 2, 90, 0
13, 83088, Note_on_c, 2, 89, 110
13, 83134, Note_on_c, 2, 89, 0
13, 83136, Note_on_c, 2, 90, 110
13, 83182, Note_on_c, 2, 90, 0
13, 83184, Note_on_c, 2, 85, 110
13, 83230, Note_on_c, 2, 85, 0
13, 83232, Note_on_c, 2, 82, 110
13, 83278, Note_on_c, 2, 82, 0
13, 83280, Note_on_c, 2, 85, 110
13, 83326, Note_on_c, 2, 85, 0
13, 83328, Note_on_c, 2, 90, 110
13, 83374, Note_on_c, 2, 90, 0
13, 83376, Note_on_c, 2, 89, 110
13, 83422, Note_on_c, 2, 89, 0
13, 83424, Note_on_c, 2, 90, 110
13, 83470, Note_on_c, 2, 90, 0
13, 83472, Note_on_c, 2, 89, 110
13, 83518, Note_on_c, 2, 89, 0
13, 83520, Note_on_c, 2, 90, 110
13, 83566, Note_on_c, 2, 90, 0
13, 83568, Note_on_c, 2, 85, 110
13, 83614, Note_on_c, 2, 85, 0
13, 83616, Note_on_c, 2, 82, 110
13, 83662, Note_on_c, 2, 82, 0
13, 83664, Note_on_c, 2, 85, 110
13, 83710, Note_on_c, 2, 85, 0
13, 83712, Note_on_c, 2, 92, 110
13, 83758, Note_on_c, 2, 92, 0
13, 83760, Note_on_c, 2, 91, 110
13, 83806, Note_on_c, 2, 91, 0
13, 83808, Note_on_c, 2, 92, 110
13, 83854, Note_on_c, 2, 92, 0
13, 83856, Note_on_c, 2, 91, 110
13, 83902, Note_on_c, 2, 91, 0
13, 83904, Note_on_c, 2, 92, 110
13, 83950, Note_on_c, 2, 92, 0
13, 83952, Note_on_c, 2, 87, 110
13, 83998, Note_on_c, 2, 87, 0
13, 84000, Note_on_c, 2, 84, 110
13, 84046, Note_on_c, 2, 84, 0
13, 84048, Note_on_c, 2, 87, 110
13, 84094, Note_on_c, 2, 87, 0
13, 84096, Note_on_c, 2, 92, 110
13, 84142, Note_on_c, 2, 92, 0
13, 84144, Note_on_c, 2, 91, 110
13, 84190, Note_on_c, 2, 91, 0
13, 84192, Note_on_c, 2, 92, 110
13, 84238, Note_on_c, 2, 92, 0
13, 84240, Note_on_c, 2, 91, 110
13, 84286, Note_on_c, 2, 91, 0
13, 84288, Note_on_c, 2, 92, 110
13, 84334, Note_on_c, 2, 92, 0
13, 84336, Note_on_c, 2, 87, 110
13, 84382, Note_on_c, 2, 87, 0
13, 84384, Note_on_c, 2, 84, 110
13, 84430, Note_on_c, 2, 84, 0
13, 84432, Note_on_c, 2, 87, 110
13, 84478, Note_on_c, 2, 87, 0
13, 84480, Note_on_c, 2, 92, 110
13, 84526, Note_on_c, 2, 92, 0
13, 84528, Note_on_c, 2, 91, 110
13, 84574, Note_on_c, 2, 91, 0
13, 84576, Note_on_c, 2, 92, 110
13, 84622, Note_on_c, 2, 92, 0
13, 84624, Note_on_c, 2, 91, 110
13, 84670, Note_on_c, 2, 91, 0
13, 84672, Note_on_c, 2, 92, 110
13, 84718, Note_on_c, 2, 92, 0
13, 84720, Note_on_c, 2, 87, 110
13, 84766, Note_on_c, 2, 87, 0
13, 84768, Note_on_c, 2, 84, 110
13, 84814, Note_on_c, 2, 84, 0
13, 84816, Note_on_c, 2, 87, 110
13, 84862, Note_on_c, 2, 87, 0
13, 84864, Note_on_c, 2, 80, 110
13, 84910, Note_on_c, 2, 80, 0
13, 84912, Note_on_c, 2, 82, 110
13, 84958, Note_on_c, 2, 82, 0
13, 84960, Note_on_c, 2, 84, 110
13, 85006, Note_on_c, 2, 84, 0
13, 85008, Note_on_c, 2, 85, 110
13, 85054, Note_on_c, 2, 85, 0
13, 85056, Note_on_c, 2, 82, 110
13, 85102, Note_on_c, 2, 82, 0
13, 85104, Note_on_c, 2, 84, 110
13, 85150, Note_on_c, 2, 84, 0
13, 85152, Note_on_c, 2, 85, 110
13, 85198, Note_on_c, 2, 85, 0
13, 85200, Note_on_c, 2, 87, 110
13, 85246, Note_on_c, 2, 87, 0
13, 85248, Note_on_c, 2, 85, 110
13, 85294, Note_on_c, 2, 85, 0
13, 85296, Note_on_c, 2, 84, 110
13, 85342, Note_on_c, 2, 84, 0
13, 85344, Note_on_c, 2, 85, 110
13, 85390, Note_on_c, 2, 85, 0
13, 85392, Note_on_c, 2, 84, 110
13, 85438, Note_on_c, 2, 84, 0
13, 85440, Note_on_c, 2, 85, 110
13, 85486, Note_on_c, 2, 85, 0
13, 85488, Note_on_c, 2, 80, 110
13, 85488, Note_on_c, 2, 84, 110
13, 85534, Note_on_c, 2, 80, 0
13, 85534, Note_on_c, 2, 84, 0
13, 85536, Note_on_c, 2, 77, 110
13, 85582, Note_on_c, 2, 77, 0
13, 85584, Note_on_c, 2, 80, 110
13, 85630, Note_on_c, 2, 80, 0
13, 85632, Note_on_c, 2, 85, 110
13, 85678, Note_on_c, 2, 85, 0
13, 85680, Note_on_c, 2, 84, 110
13, 85726, Note_on_c, 2, 84, 0
13, 85728, Note_on_c, 2, 85, 110
13, 85774, Note_on_c, 2, 85, 0
13, 85776, Note_on_c, 2, 84, 110
13, 85822, Note_on_c, 2, 84, 0
13, 85824, Note_on_c, 2, 85, 110
13, 85870, Note_on_c, 2, 85, 0
13, 85872, Note_on_c, 2, 80, 110
13, 85918, Note_on_c, 2, 80, 0
13, 85920, Note_on_c, 2, 77, 110
13, 85966, Note_on_c, 2, 77, 0
13, 85968, Note_on_c, 2, 80, 110
13, 86014, Note_on_c, 2, 80, 0
13, 86016, Note_on_c, 2, 87, 110
13, 86062, Note_on_c, 2, 87, 0
13, 86064, Note_on_c, 2, 85, 110
13, 86110, Note_on_c, 2, 85, 0
13, 86112, Note_on_c, 2, 87, 110
13, 86158, Note_on_c, 2, 87, 0
13, 86160, Note_on_c, 2, 85, 110
13, 86206, Note_on_c, 2, 85, 0
13, 86208, Note_on_c, 2, 87, 110
13, 86254, Note_on_c, 2, 87, 0
13, 86256, Note_on_c, 2, 82, 110
13, 86302, Note_on_c, 2, 82, 0
13, 86304, Note_on_c, 2, 78, 110
13, 86350, Note_on_c, 2, 78, 0
13, 86352, Note_on_c, 2, 82, 110
13, 86398, Note_on_c, 2, 82, 0
13, 86400, Note_on_c, 2, 87, 110
13, 86446, Note_on_c, 2, 87, 0
13, 86448, Note_on_c, 2, 85, 110
13, 86494, Note_on_c, 2, 85, 0
13, 86496, Note_on_c, 2, 87, 110
13, 86542, Note_on_c, 2, 87, 0
13, 86544, Note_on_c, 2, 85, 110
13, 86590, Note_on_c, 2, 85, 0
13, 86592, Note_on_c, 2, 87, 110
13, 86638, Note_on_c, 2, 87, 0
13, 86640, Note_on_c, 2, 82, 110
13, 86686, Note_on_c, 2, 82, 0
13, 86688, Note_on_c, 2, 78, 110
13, 86734, Note_on_c, 2, 78, 0
13, 86736, Note_on_c, 2, 82, 110
13, 86782, Note_on_c, 2, 82, 0
13, 86784, Note_on_c, 2, 85, 110
13, 86830, Note_on_c, 2, 85, 0
13, 86832, Note_on_c, 2, 84, 110
13, 86878, Note_on_c, 2, 84, 0
13, 86880, Note_on_c, 2, 85, 110
13, 86926, Note_on_c, 2, 85, 0
13, 86928, Note_on_c, 2, 84, 110
13, 86974, Note_on_c, 2, 84, 0
13, 86976, Note_on_c, 2, 85, 110
13, 87022, Note_on_c, 2, 85, 0
13, 87024, Note_on_c, 2, 80, 110
13, 87070, Note_on_c, 2, 80, 0
13, 87072, Note_on_c, 2, 77, 110
13, 87118, Note_on_c, 2, 77, 0
13, 87120, Note_on_c, 2, 80, 110
13, 87166, Note_on_c, 2, 80, 0
13, 87168, Note_on_c, 2, 85, 110
13, 87214, Note_on_c, 2, 85, 0
13, 87216, Note_on_c, 2, 84, 110
13, 87262, Note_on_c, 2, 84, 0
13, 87264, Note_on_c, 2, 85, 110
13, 87310, Note_on_c, 2, 85, 0
13, 87312, Note_on_c, 2, 84, 110
13, 87358, Note_on_c, 2, 84, 0
13, 87360, Note_on_c, 2, 85, 110
13, 87406, Note_on_c, 2, 85, 0
13, 87408, Note_on_c, 2, 80, 110
13, 87454, Note_on_c, 2, 80, 0
13, 87456, Note_on_c, 2, 77, 110
13, 87502, Note_on_c, 2, 77, 0
13, 87504, Note_on_c, 2, 80, 110
13, 87550, Note_on_c, 2, 80, 0
13, 87552, Note_on_c, 2, 85, 110
13, 87598, Note_on_c, 2, 85, 0
13, 87600, Note_on_c, 2, 84, 110
13, 87646, Note_on_c, 2, 84, 0
13, 87648, Note_on_c, 2, 85, 110
13, 87694, Note_on_c, 2, 85, 0
13, 87696, Note_on_c, 2, 84, 110
13, 87742, Note_on_c, 2, 84, 0
13, 87744, Note_on_c, 2, 85, 110
13, 87790, Note_on_c, 2, 85, 0
13, 87792, Note_on_c, 2, 80, 110
13, 87838, Note_on_c, 2, 80, 0
13, 87840, Note_on_c, 2, 77, 110
13, 87886, Note_on_c, 2, 77, 0
13, 87888, Note_on_c, 2, 80, 110
13, 87934, Note_on_c, 2, 80, 0
13, 87936, Note_on_c, 2, 85, 110
13, 87982, Note_on_c, 2, 85, 0
13, 87984, Note_on_c, 2, 84, 110
13, 88030, Note_on_c, 2, 84, 0
13, 88032, Note_on_c, 2, 85, 110
13, 88078, Note_on_c, 2, 85, 0
13, 88080, Note_on_c, 2, 84, 110
13, 88126, Note_on_c, 2, 84, 0
13, 88128, Note_on_c, 2, 85, 110
13, 88174, Note_on_c, 2, 85, 0
13, 88176, Note_on_c, 2, 80, 110
13, 88222, Note_on_c, 2, 80, 0
13, 88224, Note_on_c, 2, 77, 110
13, 88270, Note_on_c, 2, 77, 0
13, 88272, Note_on_c, 2, 80, 110
13, 88318, Note_on_c, 2, 80, 0
13, 88320, Note_on_c, 2, 90, 110
13, 88366, Note_on_c, 2, 90, 0
13, 88368, Note_on_c, 2, 89, 110
13, 88414, Note_on_c, 2, 89, 0
13, 88416, Note_on_c, 2, 90, 110
13, 88462, Note_on_c, 2, 90, 0
13, 88464, Note_on_c, 2, 89, 110
13, 88510, Note_on_c, 2, 89, 0
13, 88512, Note_on_c, 2, 90, 110
13, 88558, Note_on_c, 2, 90, 0
13, 88560, Note_on_c, 2, 85, 110
13, 88606, Note_on_c, 2, 85, 0
13, 88608, Note_on_c, 2, 82, 110
13, 88654, Note_on_c, 2, 82, 0
13, 88656, Note_on_c, 2, 85, 110
13, 88702, Note_on_c, 2, 85, 0
13, 88704, Note_on_c, 2, 90, 110
13, 88750, Note_on_c, 2, 90, 0
13, 88752, Note_on_c, 2, 89, 110
13, 88798, Note_on_c, 2, 89, 0
13, 88800, Note_on_c, 2, 90, 110
13, 88846, Note_on_c, 2, 90, 0
13, 88848, Note_on_c, 2, 89, 110
13, 88894, Note_on_c, 2, 89, 0
13, 88896, Note_on_c, 2, 90, 110
13, 88942, Note_on_c, 2, 90, 0
13, 88944, Note_on_c, 2, 85, 110
13, 88990, Note_on_c, 2, 85, 0
13, 88992, Note_on_c, 2, 82, 110
13, 89038, Note_on_c, 2, 82, 0
13, 89040, Note_on_c, 2, 85, 110
13, 89086, Note_on_c, 2, 85, 0
13, 89088, Note_on_c, 2, 90, 110
13, 89134, Note_on_c, 2, 90, 0
13, 89136, Note_on_c, 2, 89, 110
13, 89182, Note_on_c, 2, 89, 0
13, 89184, Note_on_c, 2, 90, 110
13, 89230, Note_on_c, 2, 90, 0
13, 89232, Note_on_c, 2, 89, 110
13, 89278, Note_on_c, 2, 89, 0
13, 89280, Note_on_c, 2, 90, 110
13, 89326, Note_on_c, 2, 90, 0
13, 89328, Note_on_c, 2, 85, 110
13, 89374, Note_on_c, 2, 85, 0
13, 89376, Note_on_c, 2, 82, 110
13, 89422, Note_on_c, 2, 82, 0
13, 89424, Note_on_c, 2, 85, 110
13, 89470, Note_on_c, 2, 85, 0
13, 89472, Note_on_c, 2, 90, 110
13, 89518, Note_on_c, 2, 90, 0
13, 89520, Note_on_c, 2, 89, 110
13, 89566, Note_on_c, 2, 89, 0
13, 89568, Note_on_c, 2, 90, 110
13, 89614, Note_on_c, 2, 90, 0
13, 89616, Note_on_c, 2, 89, 110
13, 89662, Note_on_c, 2, 89, 0
13, 89664, Note_on_c, 2, 90, 110
13, 89710, Note_on_c, 2, 90, 0
13, 89712, Note_on_c, 2, 85, 110
13, 89758, Note_on_c, 2, 85, 0
13, 89760, Note_on_c, 2, 82, 110
13, 89806, Note_on_c, 2, 82, 0
13, 89808, Note_on_c, 2, 85, 110
13, 89854, Note_on_c, 2, 85, 0
13, 89856, Note_on_c, 2, 92, 110
13, 89902, Note_on_c, 2, 92, 0
13, 89904, Note_on_c, 2, 91, 110
13, 89950, Note_on_c, 2, 91, 0
13, 89952, Note_on_c, 2, 92, 110
13, 89998, Note_on_c, 2, 92, 0
13, 90000, Note_on_c, 2, 91, 110
13, 90046, Note_on_c, 2, 91, 0
13, 90048, Note_on_c, 2, 92, 110
13, 90094, Note_on_c, 2, 92, 0
13, 90096, Note_on_c, 2, 87, 110
13, 90142, Note_on_c, 2, 87, 0
13, 90144, Note_on_c, 2, 84, 110
13, 90190, Note_on_c, 2, 84, 0
13, 90192, Note_on_c, 2, 87, 110
13, 90238, Note_on_c, 2, 87, 0
13, 90240, Note_on_c, 2, 92, 110
13, 90286, Note_on_c, 2, 92, 0
13, 90288, Note_on_c, 2, 91, 110
13, 90334, Note_on_c, 2, 91, 0
13, 90336, Note_on_c, 2, 92, 110
13, 90382, Note_on_c, 2, 92, 0
13, 90384, Note_on_c, 2, 91, 110
13, 90430, Note_on_c, 2, 91, 0
13, 90432, Note_on_c, 2, 92, 110
13, 90478, Note_on_c, 2, 92, 0
13, 90480, Note_on_c, 2, 87, 110
13, 90526, Note_on_c, 2, 87, 0
13, 90528, Note_on_c, 2, 84, 110
13, 90574, Note_on_c, 2, 84, 0
13, 90576, Note_on_c, 2, 87, 110
13, 90622, Note_on_c, 2, 87, 0
13, 90624, Note_on_c, 2, 80, 110
13, 90670, Note_on_c, 2, 80, 0
13, 90672, Note_on_c, 2, 82, 110
13, 90718, Note_on_c, 2, 82, 0
13, 90720, Note_on_c, 2, 84, 110
13, 90766, Note_on_c, 2, 84, 0
13, 90768, Note_on_c, 2, 85, 110
13, 90814, Note_on_c, 2, 85, 0
13, 90816, Note_on_c, 2, 80, 110
13, 90862, Note_on_c, 2, 80, 0
13, 90864, Note_on_c, 2, 82, 110
13, 90910, Note_on_c, 2, 82, 0
13, 90912, Note_on_c, 2, 84, 110
13, 90958, Note_on_c, 2, 84, 0
13, 90960, Note_on_c, 2, 85, 110
13, 91006, Note_on_c, 2, 85, 0
13, 91008, Note_on_c, 2, 87, 110
13, 91168, Note_on_c, 2, 87, 0
13, 91168, End_track
14, 0, Start_track
14, 0, MIDI_port, 0
14, 0, Title_t, "PIPE ORGANS"
14, 0, Program_c, 3, 19
14, 0, Pitch_bend_c, 3, 8192
14, 0, Control_c, 3, 7, 127
14, 0, Control_c, 3, 10, 64
14, 104448, Note_on_c, 3, 32, 110
14, 104448, Note_on_c, 3, 44, 110
14, 105168, Note_on_c, 3, 32, 0
14, 105168, Note_on_c, 3, 44, 0
14, 105216, Note_on_c, 3, 34, 110
14, 105216, Note_on_c, 3, 46, 110
14, 105552, Note_on_c, 3, 34, 0
14, 105552, Note_on_c, 3, 46, 0
14, 105600, Note_on_c, 3, 32, 110
14, 105600, Note_on_c, 3, 44, 110
14, 105936, Note_on_c, 3, 32, 0
14, 105936, Note_on_c, 3, 44, 0
14, 105984, Note_on_c, 3, 42, 110
14, 106320, Note_on_c, 3, 42, 0
14, 106368, Note_on_c, 3, 41, 110
14, 106704, Note_on_c, 3, 41, 0
14, 106752, Note_on_c, 3, 39, 110
14, 107472, Note_on_c, 3, 39, 0
14, 107520, Note_on_c, 3, 44, 110
14, 109008, Note_on_c, 3, 44, 0
14, 109056, Note_on_c, 3, 37, 110
14, 110752, Note_on_c, 3, 37, 0
14, 110752, End_track
15, 0, Start_track
15, 0, MIDI_port, 0
15, 0, Title_t, "PIPE ORGANS-2"
15, 0, Program_c, 3, 19
15, 0, Pitch_bend_c, 3, 8192
15, 0, Control_c, 3, 7, 127
15, 0, Control_c, 3, 10, 64
15, 105984, Note_on_c, 3, 30, 110
15, 106320, Note_on_c, 3, 30, 0
15, 106368, Note_on_c, 3, 29, 110
15, 106704, Note_on_c, 3, 29, 0
15, 106752, Note_on_c, 3, 27, 110
15, 107472, Note_on_c, 3, 27, 0
15, 107520, Note_on_c, 3, 20, 110
15, 109008, Note_on_c, 3, 20, 0
15, 109056, Note_on_c, 3, 25, 110
15, 110752, Note_on_c, 3, 25, 0
15, 110752, End_track
16, 0, Start_track
16, 0, MIDI_port, 0
16, 0, Title_t, "BELLS"
16, 0, Program_c, 4, 88
16, 0, Pitch_bend_c, 4, 8192
16, 0, Control_c, 4, 7, 127
16, 0, Control_c, 4, 10, 64
16, 99840, Note_on_c, 4, 84, 110
16, 100368, Note_on_c, 4, 84, 0
16, 100416, Note_on_c, 4, 85, 110
16, 100510, Note_on_c, 4, 85, 0
16, 100512, Note_on_c, 4, 87, 110
16, 100606, Note_on_c, 4, 87, 0
16, 100608, Note_on_c, 4, 89, 110
16, 100768, Note_on_c, 4, 89, 0
16, 100800, Note_on_c, 4, 87, 110
16, 100960, Note_on_c, 4, 87, 0
16, 100992, Note_on_c, 4, 85, 110
16, 101152, Note_on_c, 4, 85, 0
16, 101184, Note_on_c, 4, 84, 110
16, 101344, Note_on_c, 4, 84, 0
16, 101376, Note_on_c, 4, 82, 110
16, 101536, Note_on_c, 4, 82, 0
16, 101568, Note_on_c, 4, 85, 110
16, 101728, Note_on_c, 4, 85, 0
16, 101760, Note_on_c, 4, 80, 110
16, 101920, Note_on_c, 4, 80, 0
16, 101952, Note_on_c, 4, 85, 110
16, 102304, Note_on_c, 4, 85, 0
16, 102336, Note_on_c, 4, 90, 110
16, 102430, Note_on_c, 4, 90, 0
16, 102432, Note_on_c, 4, 89, 110
16, 102526, Note_on_c, 4, 89, 0
16, 102528, Note_on_c, 4, 87, 110
16, 102688, Note_on_c, 4, 87, 0
16, 102720, Note_on_c, 4, 85, 110
16, 102880, Note_on_c, 4, 85, 0
16, 102912, Note_on_c, 4, 87, 110
16, 103840, Note_on_c, 4, 87, 0
16, 104448, Note_on_c, 4, 84, 110
16, 104976, Note_on_c, 4, 84, 0
16, 105024, Note_on_c, 4, 85, 110
16, 105118, Note_on_c, 4, 85, 0
16, 105120, Note_on_c, 4, 87, 110
16, 105214, Note_on_c, 4, 87, 0
16, 105216, Note_on_c, 4, 89, 110
16, 105376, Note_on_c, 4, 89, 0
16, 105408, Note_on_c, 4, 87, 110
16, 105568, Note_on_c, 4, 87, 0
16, 105600, Note_on_c, 4, 85, 110
16, 105760, Note_on_c, 4, 85, 0
16, 105792, Note_on_c, 4, 84, 110
16, 105952, Note_on_c, 4, 84, 0
16, 105984, Note_on_c, 4, 82, 110
16, 106144, Note_on_c, 4, 82, 0
16, 106176, Note_on_c, 4, 85, 110
16, 106336, Note_on_c, 4, 85, 0
16, 106368, Note_on_c, 4, 80, 110
16, 106528, Note_on_c, 4, 80, 0
16, 106560, Note_on_c, 4, 85, 110
16, 106912, Note_on_c, 4, 85, 0
16, 106944, Note_on_c, 4, 90, 110
16, 107038, Note_on_c, 4, 90, 0
16, 107040, Note_on_c, 4, 89, 110
16, 107134, Note_on_c, 4, 89, 0
16, 107136, Note_on_c, 4, 87, 110
16, 107296, Note_on_c, 4, 87, 0
16, 107328, Note_on_c, 4, 85, 110
16, 107488, Note_on_c, 4, 85, 0
16, 107520, Note_on_c, 4, 87, 110
16, 108240, Note_on_c, 4, 87, 0
16, 108288, Note_on_c, 4, 89, 110
16, 108624, Note_on_c, 4, 89, 0
16, 108672, Note_on_c, 4, 90, 110
16, 109008, Note_on_c, 4, 90, 0
16, 109056, Note_on_c, 4, 92, 110
16, 110752, Note_on_c, 4, 92, 0
16, 110752, End_track
17, 0, Start_track
17, 0, MIDI_port, 0
17, 0, Title_t, "MELODY"
17, 0, Program_c, 5, 73
17, 0, Pitch_bend_c, 5, 8192
17, 0, Control_c, 5, 7, 127
17, 0, Control_c, 5, 10, 64
17, 20928, Note_on_c, 5, 64, 110
17, 21022, Note_on_c, 5, 64, 0
17, 21024, Note_on_c, 5, 62, 110
17, 21118, Note_on_c, 5, 62, 0
17, 21120, Note_on_c, 5, 64, 110
17, 21214, Note_on_c, 5, 64, 0
17, 21216, Note_on_c, 5, 65, 110
17, 21406, Note_on_c, 5, 65, 0
17, 21408, Note_on_c, 5, 67, 110
17, 21598, Note_on_c, 5, 67, 0
17, 21600, Note_on_c, 5, 67, 110
17, 21694, Note_on_c, 5, 67, 0
17, 21696, Note_on_c, 5, 65, 110
17, 21856, Note_on_c, 5, 65, 0
17, 21888, Note_on_c, 5, 64, 110
17, 21982, Note_on_c, 5, 64, 0
17, 21984, Note_on_c, 5, 65, 110
17, 22240, Note_on_c, 5, 65, 0
17, 22272, Note_on_c, 5, 64, 110
17, 22432, Note_on_c, 5, 64, 0
17, 22464, Note_on_c, 5, 62, 110
17, 22558, Note_on_c, 5, 62, 0
17, 22560, Note_on_c, 5, 60, 110
17, 23376, Note_on_c, 5, 60, 0
17, 23808, Note_on_c, 5, 69, 110
17, 23968, Note_on_c, 5, 69, 0
17, 24000, Note_on_c, 5, 67, 110
17, 24160, Note_on_c, 5, 67, 0
17, 24192, Note_on_c, 5, 65, 110
17, 24352, Note_on_c, 5, 65, 0
17, 24384, Note_on_c, 5, 64, 110
17, 24478, Note_on_c, 5, 64, 0
17, 24480, Note_on_c, 5, 67, 110
17, 24670, Note_on_c, 5, 67, 0
17, 24672, Note_on_c, 5, 67, 110
17, 24766, Note_on_c, 5, 67, 0
17, 24768, Note_on_c, 5, 65, 110
17, 24928, Note_on_c, 5, 65, 0
17, 24960, Note_on_c, 5, 64, 110
17, 25054, Note_on_c, 5, 64, 0
17, 25056, Note_on_c, 5, 65, 110
17, 25312, Note_on_c, 5, 65, 0
17, 25344, Note_on_c, 5, 64, 110
17, 25600, Note_on_c, 5, 64, 0
17, 25632, Note_on_c, 5, 62, 110
17, 25726, Note_on_c, 5, 62, 0
17, 25728, Note_on_c, 5, 62, 110
17, 26832, Note_on_c, 5, 62, 0
17, 27072, Note_on_c, 5, 64, 110
17, 27166, Note_on_c, 5, 64, 0
17, 27168, Note_on_c, 5, 62, 110
17, 27262, Note_on_c, 5, 62, 0
17, 27264, Note_on_c, 5, 64, 110
17, 27358, Note_on_c, 5, 64, 0
17, 27360, Note_on_c, 5, 65, 110
17, 27550, Note_on_c, 5, 65, 0
17, 27552, Note_on_c, 5, 67, 110
17, 27742, Note_on_c, 5, 67, 0
17, 27744, Note_on_c, 5, 67, 110
17, 27838, Note_on_c, 5, 67, 0
17, 27840, Note_on_c, 5, 65, 110
17, 28000, Note_on_c, 5, 65, 0
17, 28032, Note_on_c, 5, 64, 110
17, 28126, Note_on_c, 5, 64, 0
17, 28128, Note_on_c, 5, 65, 110
17, 28384, Note_on_c, 5, 65, 0
17, 28416, Note_on_c, 5, 64, 110
17, 28576, Note_on_c, 5, 64, 0
17, 28608, Note_on_c, 5, 62, 110
17, 28702, Note_on_c, 5, 62, 0
17, 28704, Note_on_c, 5, 60, 110
17, 29712, Note_on_c, 5, 60, 0
17, 29952, Note_on_c, 5, 69, 110
17, 30094, Note_on_c, 5, 69, 0
17, 30096, Note_on_c, 5, 69, 110
17, 30238, Note_on_c, 5, 69, 0
17, 30240, Note_on_c, 5, 69, 110
17, 30334, Note_on_c, 5, 69, 0
17, 30336, Note_on_c, 5, 69, 110
17, 30478, Note_on_c, 5, 69, 0
17, 30480, Note_on_c, 5, 71, 110
17, 30622, Note_on_c, 5, 71, 0
17, 30624, Note_on_c, 5, 72, 110
17, 30814, Note_on_c, 5, 72, 0
17, 30816, Note_on_c, 5, 69, 110
17, 30910, Note_on_c, 5, 69, 0
17, 30912, Note_on_c, 5, 69, 110
17, 31006, Note_on_c, 5, 69, 0
17, 31008, Note_on_c, 5, 69, 110
17, 31102, Note_on_c, 5, 69, 0
17, 31104, Note_on_c, 5, 69, 110
17, 31246, Note_on_c, 5, 69, 0
17, 31248, Note_on_c, 5, 72, 110
17, 31438, Note_on_c, 5, 72, 0
17, 31440, Note_on_c, 5, 76, 110
17, 31744, Note_on_c, 5, 76, 0
17, 31776, Note_on_c, 5, 74, 110
17, 32416, Note_on_c, 5, 74, 0
17, 33024, Note_on_c, 5, 69, 110
17, 33360, Note_on_c, 5, 69, 0
17, 33408, Note_on_c, 5, 69, 110
17, 33568, Note_on_c, 5, 69, 0
17, 33600, Note_on_c, 5, 76, 110
17, 33694, Note_on_c, 5, 76, 0
17, 33696, Note_on_c, 5, 76, 110
17, 33934, Note_on_c, 5, 76, 0
17, 33936, Note_on_c, 5, 74, 110
17, 34144, Note_on_c, 5, 74, 0
17, 34176, Note_on_c, 5, 74, 110
17, 34318, Note_on_c, 5, 74, 0
17, 34320, Note_on_c, 5, 76, 110
17, 34462, Note_on_c, 5, 76, 0
17, 34464, Note_on_c, 5, 77, 110
17, 34558, Note_on_c, 5, 77, 0
17, 34560, Note_on_c, 5, 79, 110
17, 34702, Note_on_c, 5, 79, 0
17, 34704, Note_on_c, 5, 77, 110
17, 34846, Note_on_c, 5, 77, 0
17, 34848, Note_on_c, 5, 76, 110
17, 34942, Note_on_c, 5, 76, 0
17, 34992, Note_on_c, 5, 77, 110
17, 35134, Note_on_c, 5, 77, 0
17, 35136, Note_on_c, 5, 76, 110
17, 35278, Note_on_c, 5, 76, 0
17, 35280, Note_on_c, 5, 74, 110
17, 35374, Note_on_c, 5, 74, 0
17, 35376, Note_on_c, 5, 74, 110
17, 35518, Note_on_c, 5, 74, 0
17, 35568, Note_on_c, 5, 72, 110
17, 35854, Note_on_c, 5, 72, 0
17, 35856, Note_on_c, 5, 69, 110
17, 35998, Note_on_c, 5, 69, 0
17, 36000, Note_on_c, 5, 71, 110
17, 36094, Note_on_c, 5, 71, 0
17, 36096, Note_on_c, 5, 72, 110
17, 36816, Note_on_c, 5, 72, 0
17, 37248, Note_on_c, 5, 72, 110
17, 37390, Note_on_c, 5, 72, 0
17, 37392, Note_on_c, 5, 74, 110
17, 37534, Note_on_c, 5, 74, 0
17, 37536, Note_on_c, 5, 76, 110
17, 37630, Note_on_c, 5, 76, 0
17, 37680, Note_on_c, 5, 77, 110
17, 38736, Note_on_c, 5, 77, 0
17, 38784, Note_on_c, 5, 74, 110
17, 38926, Note_on_c, 5, 74, 0
17, 38928, Note_on_c, 5, 76, 110
17, 39070, Note_on_c, 5, 76, 0
17, 39072, Note_on_c, 5, 77, 110
17, 39166, Note_on_c, 5, 77, 0
17, 39168, Note_on_c, 5, 79, 110
17, 40096, Note_on_c, 5, 79, 0
17, 40896, Note_on_c, 5, 67, 110
17, 41056, Note_on_c, 5, 67, 0
17, 41088, Note_on_c, 5, 65, 110
17, 41248, Note_on_c, 5, 65, 0
17, 41280, Note_on_c, 5, 64, 110
17, 41374, Note_on_c, 5, 64, 0
17, 41376, Note_on_c, 5, 74, 110
17, 41632, Note_on_c, 5, 74, 0
17, 41664, Note_on_c, 5, 72, 110
17, 41824, Note_on_c, 5, 72, 0
17, 41856, Note_on_c, 5, 71, 110
17, 42016, Note_on_c, 5, 71, 0
17, 42048, Note_on_c, 5, 72, 110
17, 42190, Note_on_c, 5, 72, 0
17, 42192, Note_on_c, 5, 71, 110
17, 42496, Note_on_c, 5, 71, 0
17, 42528, Note_on_c, 5, 69, 110
17, 43728, Note_on_c, 5, 69, 0
17, 43776, Note_on_c, 5, 77, 110
17, 43936, Note_on_c, 5, 77, 0
17, 43968, Note_on_c, 5, 76, 110
17, 44128, Note_on_c, 5, 76, 0
17, 44160, Note_on_c, 5, 72, 110
17, 44302, Note_on_c, 5, 72, 0
17, 44304, Note_on_c, 5, 74, 110
17, 44446, Note_on_c, 5, 74, 0
17, 44448, Note_on_c, 5, 76, 110
17, 44542, Note_on_c, 5, 76, 0
17, 44544, Note_on_c, 5, 77, 110
17, 44704, Note_on_c, 5, 77, 0
17, 44736, Note_on_c, 5, 76, 110
17, 44896, Note_on_c, 5, 76, 0
17, 44928, Note_on_c, 5, 72, 110
17, 45070, Note_on_c, 5, 72, 0
17, 45072, Note_on_c, 5, 74, 110
17, 45214, Note_on_c, 5, 74, 0
17, 45216, Note_on_c, 5, 76, 110
17, 45310, Note_on_c, 5, 76, 0
17, 45360, Note_on_c, 5, 76, 110
17, 45598, Note_on_c, 5, 76, 0
17, 45600, Note_on_c, 5, 74, 110
17, 45694, Note_on_c, 5, 74, 0
17, 45696, Note_on_c, 5, 74, 110
17, 46800, Note_on_c, 5, 74, 0
17, 47040, Note_on_c, 5, 67, 110
17, 47200, Note_on_c, 5, 67, 0
17, 47232, Note_on_c, 5, 65, 110
17, 47392, Note_on_c, 5, 65, 0
17, 47424, Note_on_c, 5, 64, 110
17, 47518, Note_on_c, 5, 64, 0
17, 47520, Note_on_c, 5, 74, 110
17, 47776, Note_on_c, 5, 74, 0
17, 47808, Note_on_c, 5, 72, 110
17, 47968, Note_on_c, 5, 72, 0
17, 48000, Note_on_c, 5, 71, 110
17, 48160, Note_on_c, 5, 71, 0
17, 48192, Note_on_c, 5, 72, 110
17, 48286, Note_on_c, 5, 72, 0
17, 48288, Note_on_c, 5, 71, 110
17, 49054, Note_on_c, 5, 71, 0
17, 49056, Note_on_c, 5, 72, 110
17, 49102, Note_on_c, 5, 72, 0
17, 49104, Note_on_c, 5, 74, 110
17, 49150, Note_on_c, 5, 74, 0
17, 49152, Note_on_c, 5, 72, 110
17, 49872, Note_on_c, 5, 72, 0
17, 49920, Note_on_c, 5, 77, 110
17, 50080, Note_on_c, 5, 77, 0
17, 50112, Note_on_c, 5, 76, 110
17, 50272, Note_on_c, 5, 76, 0
17, 50304, Note_on_c, 5, 72, 110
17, 50446, Note_on_c, 5, 72, 0
17, 50448, Note_on_c, 5, 74, 110
17, 50590, Note_on_c, 5, 74, 0
17, 50592, Note_on_c, 5, 76, 110
17, 50686, Note_on_c, 5, 76, 0
17, 50688, Note_on_c, 5, 77, 110
17, 50848, Note_on_c, 5, 77, 0
17, 50880, Note_on_c, 5, 76, 110
17, 51022, Note_on_c, 5, 76, 0
17, 51024, Note_on_c, 5, 79, 110
17, 51214, Note_on_c, 5, 79, 0
17, 51216, Note_on_c, 5, 77, 110
17, 51406, Note_on_c, 5, 77, 0
17, 51408, Note_on_c, 5, 76, 110
17, 51454, Note_on_c, 5, 76, 0
17, 51504, Note_on_c, 5, 76, 110
17, 51742, Note_on_c, 5, 76, 0
17, 51744, Note_on_c, 5, 74, 110
17, 51838, Note_on_c, 5, 74, 0
17, 51888, Note_on_c, 5, 74, 110
17, 52944, Note_on_c, 5, 74, 0
17, 65280, Note_on_c, 5, 69, 110
17, 65616, Note_on_c, 5, 69, 0
17, 65664, Note_on_c, 5, 69, 110
17, 65824, Note_on_c, 5, 69, 0
17, 65856, Note_on_c, 5, 76, 110
17, 65950, Note_on_c, 5, 76, 0
17, 65952, Note_on_c, 5, 76, 110
17, 66190, Note_on_c, 5, 76, 0
17, 66192, Note_on_c, 5, 74, 110
17, 66400, Note_on_c, 5, 74, 0
17, 66432, Note_on_c, 5, 74, 110
17, 66574, Note_on_c, 5, 74, 0
17, 66576, Note_on_c, 5, 76, 110
17, 66718, Note_on_c, 5, 76, 0
17, 66720, Note_on_c, 5, 77, 110
17, 66814, Note_on_c, 5, 77, 0
17, 66816, Note_on_c, 5, 79, 110
17, 66958, Note_on_c, 5, 79, 0
17, 66960, Note_on_c, 5, 77, 110
17, 67102, Note_on_c, 5, 77, 0
17, 67104, Note_on_c, 5, 76, 110
17, 67198, Note_on_c, 5, 76, 0
17, 67248, Note_on_c, 5, 77, 110
17, 67390, Note_on_c, 5, 77, 0
17, 67392, Note_on_c, 5, 76, 110
17, 67534, Note_on_c, 5, 76, 0
17, 67536, Note_on_c, 5, 74, 110
17, 67630, Note_on_c, 5, 74, 0
17, 67632, Note_on_c, 5, 74, 110
17, 67774, Note_on_c, 5, 74, 0
17, 67824, Note_on_c, 5, 72, 110
17, 68110, Note_on_c, 5, 72, 0
17, 68112, Note_on_c, 5, 69, 110
17, 68254, Note_on_c, 5, 69, 0
17, 68256, Note_on_c, 5, 71, 110
17, 68350, Note_on_c, 5, 71, 0
17, 68352, Note_on_c, 5, 72, 110
17, 69072, Note_on_c, 5, 72, 0
17, 69504, Note_on_c, 5, 72, 110
17, 69646, Note_on_c, 5, 72, 0
17, 69648, Note_on_c, 5, 74, 110
17, 69790, Note_on_c, 5, 74, 0
17, 69792, Note_on_c, 5, 76, 110
17, 69886, Note_on_c, 5, 76, 0
17, 69936, Note_on_c, 5, 77, 110
17, 70992, Note_on_c, 5, 77, 0
17, 71040, Note_on_c, 5, 74, 110
17, 71182, Note_on_c, 5, 74, 0
17, 71184, Note_on_c, 5, 76, 110
17, 71326, Note_on_c, 5, 76, 0
17, 71328, Note_on_c, 5, 77, 110
17, 71422, Note_on_c, 5, 77, 0
17, 71424, Note_on_c, 5, 79, 110
17, 72352, Note_on_c, 5, 79, 0
17, 73152, Note_on_c, 5, 67, 110
17, 73312, Note_on_c, 5, 67, 0
17, 73344, Note_on_c, 5, 65, 110
17, 73504, Note_on_c, 5, 65, 0
17, 73536, Note_on_c, 5, 64, 110
17, 73630, Note_on_c, 5, 64, 0
17, 73632, Note_on_c, 5, 74, 110
17, 73888, Note_on_c, 5, 74, 0
17, 73920, Note_on_c, 5, 72, 110
17, 74080, Note_on_c, 5, 72, 0
17, 74112, Note_on_c, 5, 71, 110
17, 74272, Note_on_c, 5, 71, 0
17, 74304, Note_on_c, 5, 72, 110
17, 74446, Note_on_c, 5, 72, 0
17, 74448, Note_on_c, 5, 71, 110
17, 74752, Note_on_c, 5, 71, 0
17, 74784, Note_on_c, 5, 69, 110
17, 75984, Note_on_c, 5, 69, 0
17, 76032, Note_on_c, 5, 77, 110
17, 76192, Note_on_c, 5, 77, 0
17, 76224, Note_on_c, 5, 76, 110
17, 76384, Note_on_c, 5, 76, 0
17, 76416, Note_on_c, 5, 72, 110
17, 76558, Note_on_c, 5, 72, 0
17, 76560, Note_on_c, 5, 74, 110
17, 76702, Note_on_c, 5, 74, 0
17, 76704, Note_on_c, 5, 76, 110
17, 76798, Note_on_c, 5, 76, 0
17, 76800, Note_on_c, 5, 77, 110
17, 76960, Note_on_c, 5, 77, 0
17, 76992, Note_on_c, 5, 76, 110
17, 77152, Note_on_c, 5, 76, 0
17, 77184, Note_on_c, 5, 72, 110
17, 77326, Note_on_c, 5, 72, 0
17, 77328, Note_on_c, 5, 74, 110
17, 77470, Note_on_c, 5, 74, 0
17, 77472, Note_on_c, 5, 76, 110
17, 77566, Note_on_c, 5, 76, 0
17, 77616, Note_on_c, 5, 76, 110
17, 77854, Note_on_c, 5, 76, 0
17, 77856, Note_on_c, 5, 74, 110
17, 77950, Note_on_c, 5, 74, 0
17, 77952, Note_on_c, 5, 74, 110
17, 79056, Note_on_c, 5, 74, 0
17, 79296, Note_on_c, 5, 68, 110
17, 79456, Note_on_c, 5, 68, 0
17, 79488, Note_on_c, 5, 66, 110
17, 79648, Note_on_c, 5, 66, 0
17, 79680, Note_on_c, 5, 65, 110
17, 79774, Note_on_c, 5, 65, 0
17, 79776, Note_on_c, 5, 75, 110
17, 80032, Note_on_c, 5, 75, 0
17, 80064, Note_on_c, 5, 73, 110
17, 80224, Note_on_c, 5, 73, 0
17, 80256, Note_on_c, 5, 72, 110
17, 80416, Note_on_c, 5, 72, 0
17, 80448, Note_on_c, 5, 73, 110
17, 80590, Note_on_c, 5, 73, 0
17, 80592, Note_on_c, 5, 72, 110
17, 80896, Note_on_c, 5, 72, 0
17, 80928, Note_on_c, 5, 70, 110
17, 82128, Note_on_c, 5, 70, 0
17, 82176, Note_on_c, 5, 78, 110
17, 82336, Note_on_c, 5, 78, 0
17, 82368, Note_on_c, 5, 77, 110
17, 82528, Note_on_c, 5, 77, 0
17, 82560, Note_on_c, 5, 73, 110
17, 82702, Note_on_c, 5, 73, 0
17, 82704, Note_on_c, 5, 75, 110
17, 82846, Note_on_c, 5, 75, 0
17, 82848, Note_on_c, 5, 77, 110
17, 82942, Note_on_c, 5, 77, 0
17, 82944, Note_on_c, 5, 78, 110
17, 83104, Note_on_c, 5, 78, 0
17, 83136, Note_on_c, 5, 77, 110
17, 83296, Note_on_c, 5, 77, 0
17, 83328, Note_on_c, 5, 73, 110
17, 83470, Note_on_c, 5, 73, 0
17, 83472, Note_on_c, 5, 75, 110
17, 83614, Note_on_c, 5, 75, 0
17, 83616, Note_on_c, 5, 77, 110
17, 83710, Note_on_c, 5, 77, 0
17, 83760, Note_on_c, 5, 77, 110
17, 83998, Note_on_c, 5, 77, 0
17, 84000, Note_on_c, 5, 75, 110
17, 84094, Note_on_c, 5, 75, 0
17, 84096, Note_on_c, 5, 75, 110
17, 85200, Note_on_c, 5, 75, 0
17, 85440, Note_on_c, 5, 68, 110
17, 85600, Note_on_c, 5, 68, 0
17, 85632, Note_on_c, 5, 66, 110
17, 85792, Note_on_c, 5, 66, 0
17, 85824, Note_on_c, 5, 65, 110
17, 85918, Note_on_c, 5, 65, 0
17, 85920, Note_on_c, 5, 75, 110
17, 86176, Note_on_c, 5, 75, 0
17, 86208, Note_on_c, 5, 73, 110
17, 86368, Note_on_c, 5, 73, 0
17, 86400, Note_on_c, 5, 72, 110
17, 86560, Note_on_c, 5, 72, 0
17, 86592, Note_on_c, 5, 73, 110
17, 86686, Note_on_c, 5, 73, 0
17, 86688, Note_on_c, 5, 72, 110
17, 87454, Note_on_c, 5, 72, 0
17, 87456, Note_on_c, 5, 73, 110
17, 87502, Note_on_c, 5, 73, 0
17, 87504, Note_on_c, 5, 75, 110
17, 87550, Note_on_c, 5, 75, 0
17, 87552, Note_on_c, 5, 73, 110
17, 88272, Note_on_c, 5, 73, 0
17, 88320, Note_on_c, 5, 78, 110
17, 88480, Note_on_c, 5, 78, 0
17, 88512, Note_on_c, 5, 77, 110
17, 88672, Note_on_c, 5, 77, 0
17, 88704, Note_on_c, 5, 73, 110
17, 88846, Note_on_c, 5, 73, 0
17, 88848, Note_on_c, 5, 75, 110
17, 88990, Note_on_c, 5, 75, 0
17, 88992, Note_on_c, 5, 77, 110
17, 89086, Note_on_c, 5, 77, 0
17, 89088, Note_on_c, 5, 78, 110
17, 89248, Note_on_c, 5, 78, 0
17, 89280, Note_on_c, 5, 77, 110
17, 89422, Note_on_c, 5, 77, 0
17, 89424, Note_on_c, 5, 80, 110
17, 89614, Note_on_c, 5, 80, 0
17, 89616, Note_on_c, 5, 78, 110
17, 89806, Note_on_c, 5, 78, 0
17, 89808, Note_on_c, 5, 77, 110
17, 89854, Note_on_c, 5, 77, 0
17, 89904, Note_on_c, 5, 77, 110
17, 90142, Note_on_c, 5, 77, 0
17, 90144, Note_on_c, 5, 75, 110
17, 90238, Note_on_c, 5, 75, 0
17, 90288, Note_on_c, 5, 75, 110
17, 91344, Note_on_c, 5, 75, 0
17, 91344, End_track
18, 0, Start_track
18, 0, MIDI_port, 0
18, 0, Title_t, "TIMPANI"
18, 0, Program_c, 6, 47
18, 0, Pitch_bend_c, 6, 8192
18, 0, Control_c, 6, 7, 127
18, 0, Control_c, 6, 10, 64
18, 2304, Note_on_c, 6, 48, 110
18, 2326, Note_on_c, 6, 48, 0
18, 2328, Note_on_c, 6, 48, 110
18, 2350, Note_on_c, 6, 48, 0
18, 2352, Note_on_c, 6, 48, 110
18, 2374, Note_on_c, 6, 48, 0
18, 2376, Note_on_c, 6, 48, 110
18, 2398, Note_on_c, 6, 48, 0
18, 2400, Note_on_c, 6, 48, 110
18, 2422, Note_on_c, 6, 48, 0
18, 2424, Note_on_c, 6, 48, 110
18, 2446, Note_on_c, 6, 48, 0
18, 2448, Note_on_c, 6, 48, 110
18, 2470, Note_on_c, 6, 48, 0
18, 2472, Note_on_c, 6, 48, 110
18, 2494, Note_on_c, 6, 48, 0
18, 2496, Note_on_c, 6, 48, 110
18, 2518, Note_on_c, 6, 48, 0
18, 2520, Note_on_c, 6, 48, 110
18, 2542, Note_on_c, 6, 48, 0
18, 2544, Note_on_c, 6, 48, 110
18, 2566, Note_on_c, 6, 48, 0
18, 2568, Note_on_c, 6, 48, 110
18, 2590, Note_on_c, 6, 48, 0
18, 2592, Note_on_c, 6, 48, 110
18, 2614, Note_on_c, 6, 48, 0
18, 2616, Note_on_c, 6, 48, 110
18, 2638, Note_on_c, 6, 48, 0
18, 2640, Note_on_c, 6, 48, 110
18, 2662, Note_on_c, 6, 48, 0
18, 2664, Note_on_c, 6, 48, 110
18, 2686, Note_on_c, 6, 48, 0
18, 2688, Note_on_c, 6, 48, 110
18, 2710, Note_on_c, 6, 48, 0
18, 2712, Note_on_c, 6, 48, 110
18, 2734, Note_on_c, 6, 48, 0
18, 2736, Note_on_c, 6, 48, 110
18, 2758, Note_on_c, 6, 48, 0
18, 2760, Note_on_c, 6, 48, 110
18, 2782, Note_on_c, 6, 48, 0
18, 2784, Note_on_c, 6, 48, 110
18, 2806, Note_on_c, 6, 48, 0
18, 2808, Note_on_c, 6, 48, 110
18, 2830, Note_on_c, 6, 48, 0
18, 2832, Note_on_c, 6, 48, 110
18, 2854, Note_on_c, 6, 48, 0
18, 2856, Note_on_c, 6, 48, 110
18, 2878, Note_on_c, 6, 48, 0
18, 2880, Note_on_c, 6, 48, 110
18, 2926, Note_on_c, 6, 48, 0
18, 2928, Note_on_c, 6, 48, 110
18, 2974, Note_on_c, 6, 48, 0
18, 2976, Note_on_c, 6, 48, 110
18, 3022, Note_on_c, 6, 48, 0
18, 3024, Note_on_c, 6, 48, 110
18, 3070, Note_on_c, 6, 48, 0
18, 3070, End_track
19, 0, Start_track
19, 0, MIDI_port, 0
19, 0, Title_t, "DRUMS"
19, 0, Program_c, 9, 0
19, 0, Pitch_bend_c, 9, 8192
19, 0, Control_c, 9, 7, 127
19, 0, Control_c, 9, 10, 64
19, 3840, Note_on_c, 9, 36, 110
19, 4000, Note_on_c, 9, 36, 0
19, 4032, Note_on_c, 9, 36, 110
19, 4192, Note_on_c, 9, 36, 0
19, 4224, Note_on_c, 9, 36, 110
19, 4384, Note_on_c, 9, 36, 0
19, 4416, Note_on_c, 9, 36, 110
19, 4576, Note_on_c, 9, 36, 0
19, 4608, Note_on_c, 9, 36, 110
19, 4768, Note_on_c, 9, 36, 0
19, 4800, Note_on_c, 9, 36, 110
19, 4960, Note_on_c, 9, 36, 0
19, 4992, Note_on_c, 9, 36, 110
19, 5152, Note_on_c, 9, 36, 0
19, 5184, Note_on_c, 9, 36, 110
19, 5344, Note_on_c, 9, 36, 0
19, 5376, Note_on_c, 9, 36, 110
19, 5536, Note_on_c, 9, 36, 0
19, 5568, Note_on_c, 9, 36, 110
19, 5728, Note_on_c, 9, 36, 0
19, 6144, Note_on_c, 9, 36, 110
19, 6304, Note_on_c, 9, 36, 0
19, 6336, Note_on_c, 9, 36, 110
19, 6496, Note_on_c, 9, 36, 0
19, 8448, Note_on_c, 9, 36, 110
19, 8608, Note_on_c, 9, 36, 0
19, 8640, Note_on_c, 9, 36, 110
19, 8800, Note_on_c, 9, 36, 0
19, 8832, Note_on_c, 9, 36, 110
19, 8992, Note_on_c, 9, 36, 0
19, 9024, Note_on_c, 9, 36, 110
19, 9184, Note_on_c, 9, 36, 0
19, 9216, Note_on_c, 9, 36, 110
19, 9376, Note_on_c, 9, 36, 0
19, 9408, Note_on_c, 9, 36, 110
19, 9568, Note_on_c, 9, 36, 0
19, 9600, Note_on_c, 9, 36, 110
19, 9760, Note_on_c, 9, 36, 0
19, 9792, Note_on_c, 9, 36, 110
19, 9952, Note_on_c, 9, 36, 0
19, 9984, Note_on_c, 9, 36, 110
19, 9984, Note_on_c, 9, 42, 110
19, 10144, Note_on_c, 9, 36, 0
19, 10144, Note_on_c, 9, 42, 0
19, 10176, Note_on_c, 9, 42, 110
19, 10336, Note_on_c, 9, 42, 0
19, 10368, Note_on_c, 9, 36, 110
19, 10368, Note_on_c, 9, 42, 110
19, 10528, Note_on_c, 9, 36, 0
19, 10528, Note_on_c, 9, 42, 0
19, 10560, Note_on_c, 9, 42, 110
19, 10720, Note_on_c, 9, 42, 0
19, 10752, Note_on_c, 9, 36, 110
19, 10752, Note_on_c, 9, 42, 110
19, 10912, Note_on_c, 9, 36, 0
19, 10912, Note_on_c, 9, 42, 0
19, 10944, Note_on_c, 9, 42, 110
19, 11104, Note_on_c, 9, 42, 0
19, 11136, Note_on_c, 9, 36, 110
19, 11136, Note_on_c, 9, 42, 110
19, 11296, Note_on_c, 9, 36, 0
19, 11296, Note_on_c, 9, 42, 0
19, 11328, Note_on_c, 9, 42, 110
19, 11488, Note_on_c, 9, 42, 0
19, 11712, Note_on_c, 9, 36, 110
19, 11872, Note_on_c, 9, 36, 0
19, 11904, Note_on_c, 9, 36, 110
19, 12064, Note_on_c, 9, 36, 0
19, 12096, Note_on_c, 9, 36, 110
19, 12256, Note_on_c, 9, 36, 0
19, 12480, Note_on_c, 9, 36, 110
19, 12640, Note_on_c, 9, 36, 0
19, 12672, Note_on_c, 9, 36, 110
19, 12832, Note_on_c, 9, 36, 0
19, 12864, Note_on_c, 9, 36, 110
19, 13024, Note_on_c, 9, 36, 0
19, 36960, Note_on_c, 9, 42, 110
19, 37054, Note_on_c, 9, 42, 0
19, 37056, Note_on_c, 9, 42, 110
19, 37150, Note_on_c, 9, 42, 0
19, 37152, Note_on_c, 9, 42, 110
19, 37246, Note_on_c, 9, 42, 0
19, 37248, Note_on_c, 9, 42, 110
19, 37342, Note_on_c, 9, 42, 0
19, 37344, Note_on_c, 9, 42, 110
19, 37438, Note_on_c, 9, 42, 0
19, 37440, Note_on_c, 9, 42, 110
19, 37534, Note_on_c, 9, 42, 0
19, 37536, Note_on_c, 9, 42, 110
19, 37630, Note_on_c, 9, 42, 0
19, 37632, Note_on_c, 9, 42, 110
19, 37726, Note_on_c, 9, 42, 0
19, 37728, Note_on_c, 9, 42, 110
19, 37822, Note_on_c, 9, 42, 0
19, 37824, Note_on_c, 9, 42, 110
19, 37918, Note_on_c, 9, 42, 0
19, 37920, Note_on_c, 9, 42, 110
19, 38014, Note_on_c, 9, 42, 0
19, 38016, Note_on_c, 9, 42, 110
19, 38110, Note_on_c, 9, 42, 0
19, 38112, Note_on_c, 9, 42, 110
19, 38206, Note_on_c, 9, 42, 0
19, 38208, Note_on_c, 9, 42, 110
19, 38302, Note_on_c, 9, 42, 0
19, 38304, Note_on_c, 9, 42, 110
19, 38398, Note_on_c, 9, 42, 0
19, 38400, Note_on_c, 9, 42, 110
19, 38494, Note_on_c, 9, 42, 0
19, 38496, Note_on_c, 9, 42, 110
19, 38590, Note_on_c, 9, 42, 0
19, 38592, Note_on_c, 9, 42, 110
19, 38686, Note_on_c, 9, 42, 0
19, 38688, Note_on_c, 9, 42, 110
19, 38782, Note_on_c, 9, 42, 0
19, 38784, Note_on_c, 9, 42, 110
19, 38878, Note_on_c, 9, 42, 0
19, 38880, Note_on_c, 9, 42, 110
19, 38974, Note_on_c, 9, 42, 0
19, 38976, Note_on_c, 9, 42, 110
19, 39070, Note_on_c, 9, 42, 0
19, 39072, Note_on_c, 9, 42, 110
19, 39166, Note_on_c, 9, 42, 0
19, 39168, Note_on_c, 9, 42, 110
19, 39262, Note_on_c, 9, 42, 0
19, 39264, Note_on_c, 9, 42, 110
19, 39358, Note_on_c, 9, 42, 0
19, 39360, Note_on_c, 9, 42, 110
19, 39454, Note_on_c, 9, 42, 0
19, 39456, Note_on_c, 9, 42, 110
19, 39550, Note_on_c, 9, 42, 0
19, 39552, Note_on_c, 9, 42, 110
19, 39646, Note_on_c, 9, 42, 0
19, 39648, Note_on_c, 9, 42, 110
19, 39742, Note_on_c, 9, 42, 0
19, 39744, Note_on_c, 9, 42, 110
19, 39838, Note_on_c, 9, 42, 0
19, 39840, Note_on_c, 9, 42, 110
19, 39934, Note_on_c, 9, 42, 0
19, 39936, Note_on_c, 9, 42, 110
19, 40030, Note_on_c, 9, 42, 0
19, 40032, Note_on_c, 9, 42, 110
19, 40126, Note_on_c, 9, 42, 0
19, 40128, Note_on_c, 9, 42, 110
19, 40222, Note_on_c, 9, 42, 0
19, 40224, Note_on_c, 9, 42, 110
19, 40318, Note_on_c, 9, 42, 0
19, 40320, Note_on_c, 9, 42, 110
19, 40480, Note_on_c, 9, 42, 0
19, 40704, Note_on_c, 9, 42, 110
19, 40798, Note_on_c, 9, 42, 0
19, 40800, Note_on_c, 9, 42, 110
19, 40894, Note_on_c, 9, 42, 0
19, 40896, Note_on_c, 9, 42, 110
19, 40990, Note_on_c, 9, 42, 0
19, 40992, Note_on_c, 9, 42, 110
19, 41086, Note_on_c, 9, 42, 0
19, 41088, Note_on_c, 9, 42, 110
19, 41182, Note_on_c, 9, 42, 0
19, 41184, Note_on_c, 9, 42, 110
19, 41278, Note_on_c, 9, 42, 0
19, 41280, Note_on_c, 9, 42, 110
19, 41374, Note_on_c, 9, 42, 0
19, 41376, Note_on_c, 9, 42, 110
19, 41470, Note_on_c, 9, 42, 0
19, 41472, Note_on_c, 9, 42, 110
19, 41566, Note_on_c, 9, 42, 0
19, 41568, Note_on_c, 9, 42, 110
19, 41662, Note_on_c, 9, 42, 0
19, 41664, Note_on_c, 9, 42, 110
19, 41758, Note_on_c, 9, 42, 0
19, 41760, Note_on_c, 9, 42, 110
19, 41854, Note_on_c, 9, 42, 0
19, 41856, Note_on_c, 9, 42, 110
19, 41950, Note_on_c, 9, 42, 0
19, 41952, Note_on_c, 9, 42, 110
19, 42046, Note_on_c, 9, 42, 0
19, 42048, Note_on_c, 9, 42, 110
19, 42142, Note_on_c, 9, 42, 0
19, 42144, Note_on_c, 9, 42, 110
19, 42238, Note_on_c, 9, 42, 0
19, 42240, Note_on_c, 9, 42, 110
19, 42334, Note_on_c, 9, 42, 0
19, 42336, Note_on_c, 9, 42, 110
19, 42430, Note_on_c, 9, 42, 0
19, 42432, Note_on_c, 9, 42, 110
19, 42526, Note_on_c, 9, 42, 0
19, 42528, Note_on_c, 9, 42, 110
19, 42622, Note_on_c, 9, 42, 0
19, 42624, Note_on_c, 9, 42, 110
19, 42718, Note_on_c, 9, 42, 0
19, 42720, Note_on_c, 9, 42, 110
19, 42814, Note_on_c, 9, 42, 0
19, 42816, Note_on_c, 9, 42, 110
19, 42910, Note_on_c, 9, 42, 0
19, 42912, Note_on_c, 9, 42, 110
19, 43006, Note_on_c, 9, 42, 0
19, 43008, Note_on_c, 9, 42, 110
19, 43102, Note_on_c, 9, 42, 0
19, 43104, Note_on_c, 9, 42, 110
19, 43198, Note_on_c, 9, 42, 0
19, 43200, Note_on_c, 9, 42, 110
19, 43294, Note_on_c, 9, 42, 0
19, 43296, Note_on_c, 9, 42, 110
19, 43390, Note_on_c, 9, 42, 0
19, 43392, Note_on_c, 9, 42, 110
19, 43552, Note_on_c, 9, 42, 0
19, 43776, Note_on_c, 9, 42, 110
19, 43870, Note_on_c, 9, 42, 0
19, 43872, Note_on_c, 9, 42, 110
19, 43966, Note_on_c, 9, 42, 0
19, 43968, Note_on_c, 9, 42, 110
19, 44062, Note_on_c, 9, 42, 0
19, 44064, Note_on_c, 9, 42, 110
19, 44158, Note_on_c, 9, 42, 0
19, 44160, Note_on_c, 9, 42, 110
19, 44254, Note_on_c, 9, 42, 0
19, 44256, Note_on_c, 9, 42, 110
19, 44350, Note_on_c, 9, 42, 0
19, 44352, Note_on_c, 9, 42, 110
19, 44446, Note_on_c, 9, 42, 0
19, 44448, Note_on_c, 9, 42, 110
19, 44542, Note_on_c, 9, 42, 0
19, 44544, Note_on_c, 9, 42, 110
19, 44638, Note_on_c, 9, 42, 0
19, 44640, Note_on_c, 9, 42, 110
19, 44734, Note_on_c, 9, 42, 0
19, 44736, Note_on_c, 9, 42, 110
19, 44830, Note_on_c, 9, 42, 0
19, 44832, Note_on_c, 9, 42, 110
19, 44926, Note_on_c, 9, 42, 0
19, 44928, Note_on_c, 9, 42, 110
19, 45022, Note_on_c, 9, 42, 0
19, 45024, Note_on_c, 9, 42, 110
19, 45118, Note_on_c, 9, 42, 0
19, 45120, Note_on_c, 9, 42, 110
19, 45214, Note_on_c, 9, 42, 0
19, 45216, Note_on_c, 9, 42, 110
19, 45310, Note_on_c, 9, 42, 0
19, 45312, Note_on_c, 9, 42, 110
19, 45406, Note_on_c, 9, 42, 0
19, 45408, Note_on_c, 9, 42, 110
19, 45502, Note_on_c, 9, 42, 0
19, 45504, Note_on_c, 9, 42, 110
19, 45598, Note_on_c, 9, 42, 0
19, 45600, Note_on_c, 9, 42, 110
19, 45694, Note_on_c, 9, 42, 0
19, 45696, Note_on_c, 9, 42, 110
19, 45790, Note_on_c, 9, 42, 0
19, 45792, Note_on_c, 9, 42, 110
19, 45886, Note_on_c, 9, 42, 0
19, 45888, Note_on_c, 9, 42, 110
19, 45982, Note_on_c, 9, 42, 0
19, 45984, Note_on_c, 9, 42, 110
19, 46078, Note_on_c, 9, 42, 0
19, 46080, Note_on_c, 9, 42, 110
19, 46174, Note_on_c, 9, 42, 0
19, 46176, Note_on_c, 9, 42, 110
19, 46270, Note_on_c, 9, 42, 0
19, 46272, Note_on_c, 9, 42, 110
19, 46366, Note_on_c, 9, 42, 0
19, 46368, Note_on_c, 9, 42, 110
19, 46462, Note_on_c, 9, 42, 0
19, 46464, Note_on_c, 9, 42, 110
19, 46624, Note_on_c, 9, 42, 0
19, 46848, Note_on_c, 9, 42, 110
19, 46942, Note_on_c, 9, 42, 0
19, 46944, Note_on_c, 9, 42, 110
19, 47038, Note_on_c, 9, 42, 0
19, 47040, Note_on_c, 9, 42, 110
19, 47134, Note_on_c, 9, 42, 0
19, 47136, Note_on_c, 9, 42, 110
19, 47230, Note_on_c, 9, 42, 0
19, 47232, Note_on_c, 9, 42, 110
19, 47326, Note_on_c, 9, 42, 0
19, 47328, Note_on_c, 9, 42, 110
19, 47422, Note_on_c, 9, 42, 0
19, 47424, Note_on_c, 9, 42, 110
19, 47518, Note_on_c, 9, 42, 0
19, 47520, Note_on_c, 9, 42, 110
19, 47614, Note_on_c, 9, 42, 0
19, 47616, Note_on_c, 9, 42, 110
19, 47710, Note_on_c, 9, 42, 0
19, 47712, Note_on_c, 9, 42, 110
19, 47806, Note_on_c, 9, 42, 0
19, 47808, Note_on_c, 9, 42, 110
19, 47902, Note_on_c, 9, 42, 0
19, 47904, Note_on_c, 9, 42, 110
19, 47998, Note_on_c, 9, 42, 0
19, 48000, Note_on_c, 9, 42, 110
19, 48094, Note_on_c, 9, 42, 0
19, 48096, Note_on_c, 9, 42, 110
19, 48190, Note_on_c, 9, 42, 0
19, 48192, Note_on_c, 9, 42, 110
19, 48286, Note_on_c, 9, 42, 0
19, 48288, Note_on_c, 9, 42, 110
19, 48382, Note_on_c, 9, 42, 0
19, 48384, Note_on_c, 9, 42, 110
19, 48478, Note_on_c, 9, 42, 0
19, 48480, Note_on_c, 9, 42, 110
19, 48574, Note_on_c, 9, 42, 0
19, 48576, Note_on_c, 9, 42, 110
19, 48670, Note_on_c, 9, 42, 0
19, 48672, Note_on_c, 9, 42, 110
19, 48766, Note_on_c, 9, 42, 0
19, 48768, Note_on_c, 9, 42, 110
19, 48862, Note_on_c, 9, 42, 0
19, 48864, Note_on_c, 9, 42, 110
19, 48958, Note_on_c, 9, 42, 0
19, 48960, Note_on_c, 9, 42, 110
19, 49054, Note_on_c, 9, 42, 0
19, 49056, Note_on_c, 9, 42, 110
19, 49150, Note_on_c, 9, 42, 0
19, 49152, Note_on_c, 9, 42, 110
19, 49246, Note_on_c, 9, 42, 0
19, 49248, Note_on_c, 9, 42, 110
19, 49342, Note_on_c, 9, 42, 0
19, 49344, Note_on_c, 9, 42, 110
19, 49438, Note_on_c, 9, 42, 0
19, 49440, Note_on_c, 9, 42, 110
19, 49534, Note_on_c, 9, 42, 0
19, 49536, Note_on_c, 9, 42, 110
19, 49696, Note_on_c, 9, 42, 0
19, 49920, Note_on_c, 9, 42, 110
19, 50014, Note_on_c, 9, 42, 0
19, 50016, Note_on_c, 9, 42, 110
19, 50110, Note_on_c, 9, 42, 0
19, 50112, Note_on_c, 9, 42, 110
19, 50206, Note_on_c, 9, 42, 0
19, 50208, Note_on_c, 9, 42, 110
19, 50302, Note_on_c, 9, 42, 0
19, 50304, Note_on_c, 9, 42, 110
19, 50398, Note_on_c, 9, 42, 0
19, 50400, Note_on_c, 9, 42, 110
19, 50494, Note_on_c, 9, 42, 0
19, 50496, Note_on_c, 9, 42, 110
19, 50590, Note_on_c, 9, 42, 0
19, 50592, Note_on_c, 9, 42, 110
19, 50686, Note_on_c, 9, 42, 0
19, 50688, Note_on_c, 9, 42, 110
19, 50782, Note_on_c, 9, 42, 0
19, 50784, Note_on_c, 9, 42, 110
19, 50878, Note_on_c, 9, 42, 0
19, 50880, Note_on_c, 9, 42, 110
19, 50974, Note_on_c, 9, 42, 0
19, 50976, Note_on_c, 9, 42, 110
19, 51070, Note_on_c, 9, 42, 0
19, 51072, Note_on_c, 9, 42, 110
19, 51166, Note_on_c, 9, 42, 0
19, 51168, Note_on_c, 9, 42, 110
19, 51262, Note_on_c, 9, 42, 0
19, 51264, Note_on_c, 9, 42, 110
19, 51358, Note_on_c, 9, 42, 0
19, 51360, Note_on_c, 9, 42, 110
19, 51454, Note_on_c, 9, 42, 0
19, 51456, Note_on_c, 9, 42, 110
19, 51550, Note_on_c, 9, 42, 0
19, 51552, Note_on_c, 9, 42, 110
19, 51646, Note_on_c, 9, 42, 0
19, 51648, Note_on_c, 9, 42, 110
19, 51742, Note_on_c, 9, 42, 0
19, 51744, Note_on_c, 9, 42, 110
19, 51838, Note_on_c, 9, 42, 0
19, 51840, Note_on_c, 9, 42, 110
19, 51934, Note_on_c, 9, 42, 0
19, 51936, Note_on_c, 9, 42, 110
19, 52030, Note_on_c, 9, 42, 0
19, 52032, Note_on_c, 9, 42, 110
19, 52126, Note_on_c, 9, 42, 0
19, 52128, Note_on_c, 9, 42, 110
19, 52222, Note_on_c, 9, 42, 0
19, 52224, Note_on_c, 9, 42, 110
19, 52318, Note_on_c, 9, 42, 0
19, 52320, Note_on_c, 9, 42, 110
19, 52414, Note_on_c, 9, 42, 0
19, 52416, Note_on_c, 9, 42, 110
19, 52510, Note_on_c, 9, 42, 0
19, 52512, Note_on_c, 9, 42, 110
19, 52606, Note_on_c, 9, 42, 0
19, 52608, Note_on_c, 9, 42, 110
19, 52768, Note_on_c, 9, 42, 0
19, 52992, Note_on_c, 9, 42, 110
19, 53086, Note_on_c, 9, 42, 0
19, 53088, Note_on_c, 9, 42, 110
19, 53182, Note_on_c, 9, 42, 0
19, 53184, Note_on_c, 9, 42, 110
19, 53278, Note_on_c, 9, 42, 0
19, 53280, Note_on_c, 9, 42, 110
19, 53374, Note_on_c, 9, 42, 0
19, 53376, Note_on_c, 9, 42, 110
19, 53470, Note_on_c, 9, 42, 0
19, 53472, Note_on_c, 9, 42, 110
19, 53566, Note_on_c, 9, 42, 0
19, 53568, Note_on_c, 9, 42, 110
19, 53662, Note_on_c, 9, 42, 0
19, 53664, Note_on_c, 9, 42, 110
19, 53758, Note_on_c, 9, 42, 0
19, 53760, Note_on_c, 9, 42, 110
19, 53854, Note_on_c, 9, 42, 0
19, 53856, Note_on_c, 9, 42, 110
19, 53950, Note_on_c, 9, 42, 0
19, 53952, Note_on_c, 9, 42, 110
19, 54046, Note_on_c, 9, 42, 0
19, 54048, Note_on_c, 9, 42, 110
19, 54142, Note_on_c, 9, 42, 0
19, 54144, Note_on_c, 9, 42, 110
19, 54238, Note_on_c, 9, 42, 0
19, 54240, Note_on_c, 9, 42, 110
19, 54334, Note_on_c, 9, 42, 0
19, 54336, Note_on_c, 9, 42, 110
19, 54430, Note_on_c, 9, 42, 0
19, 54432, Note_on_c, 9, 42, 110
19, 54526, Note_on_c, 9, 42, 0
19, 54528, Note_on_c, 9, 42, 110
19, 54622, Note_on_c, 9, 42, 0
19, 54624, Note_on_c, 9, 42, 110
19, 54718, Note_on_c, 9, 42, 0
19, 54720, Note_on_c, 9, 42, 110
19, 54814, Note_on_c, 9, 42, 0
19, 54816, Note_on_c, 9, 42, 110
19, 54910, Note_on_c, 9, 42, 0
19, 54912, Note_on_c, 9, 42, 110
19, 55006, Note_on_c, 9, 42, 0
19, 55008, Note_on_c, 9, 42, 110
19, 55102, Note_on_c, 9, 42, 0
19, 55104, Note_on_c, 9, 42, 110
19, 55198, Note_on_c, 9, 42, 0
19, 55200, Note_on_c, 9, 42, 110
19, 55294, Note_on_c, 9, 42, 0
19, 55296, Note_on_c, 9, 42, 110
19, 55390, Note_on_c, 9, 42, 0
19, 55392, Note_on_c, 9, 42, 110
19, 55486, Note_on_c, 9, 42, 0
19, 55488, Note_on_c, 9, 42, 110
19, 55582, Note_on_c, 9, 42, 0
19, 55584, Note_on_c, 9, 42, 110
19, 55678, Note_on_c, 9, 42, 0
19, 55680, Note_on_c, 9, 42, 110
19, 55840, Note_on_c, 9, 42, 0
19, 56064, Note_on_c, 9, 42, 110
19, 56158, Note_on_c, 9, 42, 0
19, 56160, Note_on_c, 9, 42, 110
19, 56254, Note_on_c, 9, 42, 0
19, 56256, Note_on_c, 9, 42, 110
19, 56350, Note_on_c, 9, 42, 0
19, 56352, Note_on_c, 9, 42, 110
19, 56446, Note_on_c, 9, 42, 0
19, 56448, Note_on_c, 9, 42, 110
19, 56542, Note_on_c, 9, 42, 0
19, 56544, Note_on_c, 9, 42, 110
19, 56638, Note_on_c, 9, 42, 0
19, 56640, Note_on_c, 9, 42, 110
19, 56734, Note_on_c, 9, 42, 0
19, 56736, Note_on_c, 9, 42, 110
19, 56830, Note_on_c, 9, 42, 0
19, 56832, Note_on_c, 9, 42, 110
19, 56926, Note_on_c, 9, 42, 0
19, 56928, Note_on_c, 9, 42, 110
19, 57022, Note_on_c, 9, 42, 0
19, 57024, Note_on_c, 9, 42, 110
19, 57118, Note_on_c, 9, 42, 0
19, 57120, Note_on_c, 9, 42, 110
19, 57214, Note_on_c, 9, 42, 0
19, 57216, Note_on_c, 9, 42, 110
19, 57310, Note_on_c, 9, 42, 0
19, 57312, Note_on_c, 9, 42, 110
19, 57406, Note_on_c, 9, 42, 0
19, 57408, Note_on_c, 9, 42, 110
19, 57502, Note_on_c, 9, 42, 0
19, 57504, Note_on_c, 9, 42, 110
19, 57598, Note_on_c, 9, 42, 0
19, 57600, Note_on_c, 9, 42, 110
19, 57694, Note_on_c, 9, 42, 0
19, 57696, Note_on_c, 9, 42, 110
19, 57790, Note_on_c, 9, 42, 0
19, 57792, Note_on_c, 9, 42, 110
19, 57886, Note_on_c, 9, 42, 0
19, 57888, Note_on_c, 9, 42, 110
19, 57982, Note_on_c, 9, 42, 0
19, 57984, Note_on_c, 9, 42, 110
19, 58078, Note_on_c, 9, 42, 0
19, 58080, Note_on_c, 9, 42, 110
19, 58174, Note_on_c, 9, 42, 0
19, 58176, Note_on_c, 9, 42, 110
19, 58270, Note_on_c, 9, 42, 0
19, 58272, Note_on_c, 9, 42, 110
19, 58366, Note_on_c, 9, 42, 0
19, 58368, Note_on_c, 9, 42, 110
19, 58462, Note_on_c, 9, 42, 0
19, 58464, Note_on_c, 9, 42, 110
19, 58558, Note_on_c, 9, 42, 0
19, 58560, Note_on_c, 9, 42, 110
19, 58654, Note_on_c, 9, 42, 0
19, 58656, Note_on_c, 9, 42, 110
19, 58750, Note_on_c, 9, 42, 0
19, 58752, Note_on_c, 9, 42, 110
19, 58912, Note_on_c, 9, 42, 0
19, 59136, Note_on_c, 9, 42, 110
19, 59230, Note_on_c, 9, 42, 0
19, 59232, Note_on_c, 9, 42, 110
19, 59326, Note_on_c, 9, 42, 0
19, 59328, Note_on_c, 9, 42, 110
19, 59422, Note_on_c, 9, 42, 0
19, 59424, Note_on_c, 9, 42, 110
19, 59518, Note_on_c, 9, 42, 0
19, 59520, Note_on_c, 9, 42, 110
19, 59614, Note_on_c, 9, 42, 0
19, 59616, Note_on_c, 9, 42, 110
19, 59710, Note_on_c, 9, 42, 0
19, 59712, Note_on_c, 9, 42, 110
19, 59806, Note_on_c, 9, 42, 0
19, 59808, Note_on_c, 9, 42, 110
19, 59902, Note_on_c, 9, 42, 0
19, 59904, Note_on_c, 9, 42, 110
19, 59998, Note_on_c, 9, 42, 0
19, 60000, Note_on_c, 9, 42, 110
19, 60094, Note_on_c, 9, 42, 0
19, 60096, Note_on_c, 9, 42, 110
19, 60190, Note_on_c, 9, 42, 0
19, 60192, Note_on_c, 9, 42, 110
19, 60286, Note_on_c, 9, 42, 0
19, 60288, Note_on_c, 9, 42, 110
19, 60382, Note_on_c, 9, 42, 0
19, 60384, Note_on_c, 9, 42, 110
19, 60478, Note_on_c, 9, 42, 0
19, 60480, Note_on_c, 9, 42, 110
19, 60574, Note_on_c, 9, 42, 0
19, 60576, Note_on_c, 9, 42, 110
19, 60670, Note_on_c, 9, 42, 0
19, 60672, Note_on_c, 9, 42, 110
19, 60766, Note_on_c, 9, 42, 0
19, 60768, Note_on_c, 9, 42, 110
19, 60862, Note_on_c, 9, 42, 0
19, 60864, Note_on_c, 9, 42, 110
19, 60958, Note_on_c, 9, 42, 0
19, 60960, Note_on_c, 9, 42, 110
19, 61054, Note_on_c, 9, 42, 0
19, 61056, Note_on_c, 9, 42, 110
19, 61150, Note_on_c, 9, 42, 0
19, 61152, Note_on_c, 9, 42, 110
19, 61246, Note_on_c, 9, 42, 0
19, 61248, Note_on_c, 9, 42, 110
19, 61342, Note_on_c, 9, 42, 0
19, 61344, Note_on_c, 9, 42, 110
19, 61438, Note_on_c, 9, 42, 0
19, 61440, Note_on_c, 9, 42, 110
19, 61534, Note_on_c, 9, 42, 0
19, 61536, Note_on_c, 9, 42, 110
19, 61630, Note_on_c, 9, 42, 0
19, 61632, Note_on_c, 9, 42, 110
19, 61726, Note_on_c, 9, 42, 0
19, 61728, Note_on_c, 9, 42, 110
19, 61822, Note_on_c, 9, 42, 0
19, 61824, Note_on_c, 9, 42, 110
19, 61984, Note_on_c, 9, 42, 0
19, 62208, Note_on_c, 9, 42, 110
19, 62302, Note_on_c, 9, 42, 0
19, 62304, Note_on_c, 9, 42, 110
19, 62398, Note_on_c, 9, 42, 0
19, 62400, Note_on_c, 9, 42, 110
19, 62494, Note_on_c, 9, 42, 0
19, 62496, Note_on_c, 9, 42, 110
19, 62590, Note_on_c, 9, 42, 0
19, 62592, Note_on_c, 9, 42, 110
19, 62686, Note_on_c, 9, 42, 0
19, 62688, Note_on_c, 9, 42, 110
19, 62782, Note_on_c, 9, 42, 0
19, 62784, Note_on_c, 9, 42, 110
19, 62878, Note_on_c, 9, 42, 0
19, 62880, Note_on_c, 9, 42, 110
19, 62974, Note_on_c, 9, 42, 0
19, 62976, Note_on_c, 9, 42, 110
19, 63070, Note_on_c, 9, 42, 0
19, 63072, Note_on_c, 9, 42, 110
19, 63166, Note_on_c, 9, 42, 0
19, 63168, Note_on_c, 9, 42, 110
19, 63262, Note_on_c, 9, 42, 0
19, 63264, Note_on_c, 9, 42, 110
19, 63358, Note_on_c, 9, 42, 0
19, 63360, Note_on_c, 9, 42, 110
19, 63454, Note_on_c, 9, 42, 0
19, 63456, Note_on_c, 9, 42, 110
19, 63550, Note_on_c, 9, 42, 0
19, 63552, Note_on_c, 9, 42, 110
19, 63646, Note_on_c, 9, 42, 0
19, 63648, Note_on_c, 9, 42, 110
19, 63742, Note_on_c, 9, 42, 0
19, 63744, Note_on_c, 9, 42, 110
19, 63838, Note_on_c, 9, 42, 0
19, 63840, Note_on_c, 9, 42, 110
19, 63934, Note_on_c, 9, 42, 0
19, 63936, Note_on_c, 9, 42, 110
19, 64030, Note_on_c, 9, 42, 0
19, 64032, Note_on_c, 9, 42, 110
19, 64126, Note_on_c, 9, 42, 0
19, 64128, Note_on_c, 9, 42, 110
19, 64222, Note_on_c, 9, 42, 0
19, 64224, Note_on_c, 9, 42, 110
19, 64318, Note_on_c, 9, 42, 0
19, 64320, Note_on_c, 9, 42, 110
19, 64414, Note_on_c, 9, 42, 0
19, 64416, Note_on_c, 9, 42, 110
19, 64510, Note_on_c, 9, 42, 0
19, 64512, Note_on_c, 9, 42, 110
19, 64606, Note_on_c, 9, 42, 0
19, 64608, Note_on_c, 9, 42, 110
19, 64702, Note_on_c, 9, 42, 0
19, 64704, Note_on_c, 9, 42, 110
19, 64798, Note_on_c, 9, 42, 0
19, 64800, Note_on_c, 9, 42, 110
19, 64894, Note_on_c, 9, 42, 0
19, 64896, Note_on_c, 9, 42, 110
19, 65056, Note_on_c, 9, 42, 0
19, 69216, Note_on_c, 9, 42, 110
19, 69310, Note_on_c, 9, 42, 0
19, 69312, Note_on_c, 9, 42, 110
19, 69406, Note_on_c, 9, 42, 0
19, 69408, Note_on_c, 9, 42, 110
19, 69502, Note_on_c, 9, 42, 0
19, 69504, Note_on_c, 9, 42, 110
19, 69598, Note_on_c, 9, 42, 0
19, 69600, Note_on_c, 9, 42, 110
19, 69694, Note_on_c, 9, 42, 0
19, 69696, Note_on_c, 9, 42, 110
19, 69790, Note_on_c, 9, 42, 0
19, 69792, Note_on_c, 9, 42, 110
19, 69886, Note_on_c, 9, 42, 0
19, 69888, Note_on_c, 9, 42, 110
19, 69982, Note_on_c, 9, 42, 0
19, 69984, Note_on_c, 9, 42, 110
19, 70078, Note_on_c, 9, 42, 0
19, 70080, Note_on_c, 9, 42, 110
19, 70174, Note_on_c, 9, 42, 0
19, 70176, Note_on_c, 9, 42, 110
19, 70270, Note_on_c, 9, 42, 0
19, 70272, Note_on_c, 9, 42, 110
19, 70366, Note_on_c, 9, 42, 0
19, 70368, Note_on_c, 9, 42, 110
19, 70462, Note_on_c, 9, 42, 0
19, 70464, Note_on_c, 9, 42, 110
19, 70558, Note_on_c, 9, 42, 0
19, 70560, Note_on_c, 9, 42, 110
19, 70654, Note_on_c, 9, 42, 0
19, 70656, Note_on_c, 9, 42, 110
19, 70750, Note_on_c, 9, 42, 0
19, 70752, Note_on_c, 9, 42, 110
19, 70846, Note_on_c, 9, 42, 0
19, 70848, Note_on_c, 9, 42, 110
19, 70942, Note_on_c, 9, 42, 0
19, 70944, Note_on_c, 9, 42, 110
19, 71038, Note_on_c, 9, 42, 0
19, 71040, Note_on_c, 9, 42, 110
19, 71134, Note_on_c, 9, 42, 0
19, 71136, Note_on_c, 9, 42, 110
19, 71230, Note_on_c, 9, 42, 0
19, 71232, Note_on_c, 9, 42, 110
19, 71326, Note_on_c, 9, 42, 0
19, 71328, Note_on_c, 9, 42, 110
19, 71422, Note_on_c, 9, 42, 0
19, 71424, Note_on_c, 9, 42, 110
19, 71518, Note_on_c, 9, 42, 0
19, 71520, Note_on_c, 9, 42, 110
19, 71614, Note_on_c, 9, 42, 0
19, 71616, Note_on_c, 9, 42, 110
19, 71710, Note_on_c, 9, 42, 0
19, 71712, Note_on_c, 9, 42, 110
19, 71806, Note_on_c, 9, 42, 0
19, 71808, Note_on_c, 9, 42, 110
19, 71902, Note_on_c, 9, 42, 0
19, 71904, Note_on_c, 9, 42, 110
19, 71998, Note_on_c, 9, 42, 0
19, 72000, Note_on_c, 9, 42, 110
19, 72094, Note_on_c, 9, 42, 0
19, 72096, Note_on_c, 9, 42, 110
19, 72190, Note_on_c, 9, 42, 0
19, 72192, Note_on_c, 9, 42, 110
19, 72286, Note_on_c, 9, 42, 0
19, 72288, Note_on_c, 9, 42, 110
19, 72382, Note_on_c, 9, 42, 0
19, 72384, Note_on_c, 9, 42, 110
19, 72478, Note_on_c, 9, 42, 0
19, 72480, Note_on_c, 9, 42, 110
19, 72574, Note_on_c, 9, 42, 0
19, 72576, Note_on_c, 9, 42, 110
19, 72736, Note_on_c, 9, 42, 0
19, 79104, Note_on_c, 9, 42, 110
19, 79198, Note_on_c, 9, 42, 0
19, 79200, Note_on_c, 9, 42, 110
19, 79294, Note_on_c, 9, 42, 0
19, 79296, Note_on_c, 9, 42, 110
19, 79390, Note_on_c, 9, 42, 0
19, 79392, Note_on_c, 9, 42, 110
19, 79486, Note_on_c, 9, 42, 0
19, 79488, Note_on_c, 9, 42, 110
19, 79582, Note_on_c, 9, 42, 0
19, 79584, Note_on_c, 9, 42, 110
19, 79678, Note_on_c, 9, 42, 0
19, 79680, Note_on_c, 9, 42, 110
19, 79774, Note_on_c, 9, 42, 0
19, 79776, Note_on_c, 9, 42, 110
19, 79870, Note_on_c, 9, 42, 0
19, 79872, Note_on_c, 9, 42, 110
19, 79966, Note_on_c, 9, 42, 0
19, 79968, Note_on_c, 9, 42, 110
19, 80062, Note_on_c, 9, 42, 0
19, 80064, Note_on_c, 9, 42, 110
19, 80158, Note_on_c, 9, 42, 0
19, 80160, Note_on_c, 9, 42, 110
19, 80254, Note_on_c, 9, 42, 0
19, 80256, Note_on_c, 9, 42, 110
19, 80350, Note_on_c, 9, 42, 0
19, 80352, Note_on_c, 9, 42, 110
19, 80446, Note_on_c, 9, 42, 0
19, 80448, Note_on_c, 9, 42, 110
19, 80542, Note_on_c, 9, 42, 0
19, 80544, Note_on_c, 9, 42, 110
19, 80638, Note_on_c, 9, 42, 0
19, 80640, Note_on_c, 9, 42, 110
19, 80734, Note_on_c, 9, 42, 0
19, 80736, Note_on_c, 9, 42, 110
19, 80830, Note_on_c, 9, 42, 0
19, 80832, Note_on_c, 9, 42, 110
19, 80926, Note_on_c, 9, 42, 0
19, 80928, Note_on_c, 9, 42, 110
19, 81022, Note_on_c, 9, 42, 0
19, 81024, Note_on_c, 9, 42, 110
19, 81118, Note_on_c, 9, 42, 0
19, 81120, Note_on_c, 9, 42, 110
19, 81214, Note_on_c, 9, 42, 0
19, 81216, Note_on_c, 9, 42, 110
19, 81310, Note_on_c, 9, 42, 0
19, 81312, Note_on_c, 9, 42, 110
19, 81406, Note_on_c, 9, 42, 0
19, 81408, Note_on_c, 9, 42, 110
19, 81502, Note_on_c, 9, 42, 0
19, 81504, Note_on_c, 9, 42, 110
19, 81598, Note_on_c, 9, 42, 0
19, 81600, Note_on_c, 9, 42, 110
19, 81694, Note_on_c, 9, 42, 0
19, 81696, Note_on_c, 9, 42, 110
19, 81790, Note_on_c, 9, 42, 0
19, 81792, Note_on_c, 9, 42, 110
19, 81952, Note_on_c, 9, 42, 0
19, 82176, Note_on_c, 9, 42, 110
19, 82270, Note_on_c, 9, 42, 0
19, 82272, Note_on_c, 9, 42, 110
19, 82366, Note_on_c, 9, 42, 0
19, 82368, Note_on_c, 9, 42, 110
19, 82462, Note_on_c, 9, 42, 0
19, 82464, Note_on_c, 9, 42, 110
19, 82558, Note_on_c, 9, 42, 0
19, 82560, Note_on_c, 9, 42, 110
19, 82654, Note_on_c, 9, 42, 0
19, 82656, Note_on_c, 9, 42, 110
19, 82750, Note_on_c, 9, 42, 0
19, 82752, Note_on_c, 9, 42, 110
19, 82846, Note_on_c, 9, 42, 0
19, 82848, Note_on_c, 9, 42, 110
19, 82942, Note_on_c, 9, 42, 0
19, 82944, Note_on_c, 9, 42, 110
19, 83038, Note_on_c, 9, 42, 0
19, 83040, Note_on_c, 9, 42, 110
19, 83134, Note_on_c, 9, 42, 0
19, 83136, Note_on_c, 9, 42, 110
19, 83230, Note_on_c, 9, 42, 0
19, 83232, Note_on_c, 9, 42, 110
19, 83326, Note_on_c, 9, 42, 0
19, 83328, Note_on_c, 9, 42, 110
19, 83422, Note_on_c, 9, 42, 0
19, 83424, Note_on_c, 9, 42, 110
19, 83518, Note_on_c, 9, 42, 0
19, 83520, Note_on_c, 9, 42, 110
19, 83614, Note_on_c, 9, 42, 0
19, 83616, Note_on_c, 9, 42, 110
19, 83710, Note_on_c, 9, 42, 0
19, 83712, Note_on_c, 9, 42, 110
19, 83806, Note_on_c, 9, 42, 0
19, 83808, Note_on_c, 9, 42, 110
19, 83902, Note_on_c, 9, 42, 0
19, 83904, Note_on_c, 9, 42, 110
19, 83998, Note_on_c, 9, 42, 0
19, 84000, Note_on_c, 9, 42, 110
19, 84094, Note_on_c, 9, 42, 0
19, 84096, Note_on_c, 9, 42, 110
19, 84190, Note_on_c, 9, 42, 0
19, 84192, Note_on_c, 9, 42, 110
19, 84286, Note_on_c, 9, 42, 0
19, 84288, Note_on_c, 9, 42, 110
19, 84382, Note_on_c, 9, 42, 0
19, 84384, Note_on_c, 9, 42, 110
19, 84478, Note_on_c, 9, 42, 0
19, 84480, Note_on_c, 9, 42, 110
19, 84574, Note_on_c, 9, 42, 0
19, 84576, Note_on_c, 9, 42, 110
19, 84670, Note_on_c, 9, 42, 0
19, 84672, Note_on_c, 9, 42, 110
19, 84766, Note_on_c, 9, 42, 0
19, 84768, Note_on_c, 9, 42, 110
19, 84862, Note_on_c, 9, 42, 0
19, 84864, Note_on_c, 9, 42, 110
19, 85024, Note_on_c, 9, 42, 0
19, 85248, Note_on_c, 9, 42, 110
19, 85342, Note_on_c, 9, 42, 0
19, 85344, Note_on_c, 9, 42, 110
19, 85438, Note_on_c, 9, 42, 0
19, 85440, Note_on_c, 9, 42, 110
19, 85534, Note_on_c, 9, 42, 0
19, 85536, Note_on_c, 9, 42, 110
19, 85630, Note_on_c, 9, 42, 0
19, 85632, Note_on_c, 9, 42, 110
19, 85726, Note_on_c, 9, 42, 0
19, 85728, Note_on_c, 9, 42, 110
19, 85822, Note_on_c, 9, 42, 0
19, 85824, Note_on_c, 9, 42, 110
19, 85918, Note_on_c, 9, 42, 0
19, 85920, Note_on_c, 9, 42, 110
19, 86014, Note_on_c, 9, 42, 0
19, 86016, Note_on_c, 9, 42, 110
19, 86110, Note_on_c, 9, 42, 0
19, 86112, Note_on_c, 9, 42, 110
19, 86206, Note_on_c, 9, 42, 0
19, 86208, Note_on_c, 9, 42, 110
19, 86302, Note_on_c, 9, 42, 0
19, 86304, Note_on_c, 9, 42, 110
19, 86398, Note_on_c, 9, 42, 0
19, 86400, Note_on_c, 9, 42, 110
19, 86494, Note_on_c, 9, 42, 0
19, 86496, Note_on_c, 9, 42, 110
19, 86590, Note_on_c, 9, 42, 0
19, 86592, Note_on_c, 9, 42, 110
19, 86686, Note_on_c, 9, 42, 0
19, 86688, Note_on_c, 9, 42, 110
19, 86782, Note_on_c, 9, 42, 0
19, 86784, Note_on_c, 9, 42, 110
19, 86878, Note_on_c, 9, 42, 0
19, 86880, Note_on_c, 9, 42, 110
19, 86974, Note_on_c, 9, 42, 0
19, 86976, Note_on_c, 9, 42, 110
19, 87070, Note_on_c, 9, 42, 0
19, 87072, Note_on_c, 9, 42, 110
19, 87166, Note_on_c, 9, 42, 0
19, 87168, Note_on_c, 9, 42, 110
19, 87262, Note_on_c, 9, 42, 0
19, 87264, Note_on_c, 9, 42, 110
19, 87358, Note_on_c, 9, 42, 0
19, 87360, Note_on_c, 9, 42, 110
19, 87454, Note_on_c, 9, 42, 0
19, 87456, Note_on_c, 9, 42, 110
19, 87550, Note_on_c, 9, 42, 0
19, 87552, Note_on_c, 9, 42, 110
19, 87646, Note_on_c, 9, 42, 0
19, 87648, Note_on_c, 9, 42, 110
19, 87742, Note_on_c, 9, 42, 0
19, 87744, Note_on_c, 9, 42, 110
19, 87838, Note_on_c, 9, 42, 0
19, 87840, Note_on_c, 9, 42, 110
19, 87934, Note_on_c, 9, 42, 0
19, 87936, Note_on_c, 9, 42, 110
19, 88096, Note_on_c, 9, 42, 0
19, 88320, Note_on_c, 9, 42, 110
19, 88414, Note_on_c, 9, 42, 0
19, 88416, Note_on_c, 9, 42, 110
19, 88510, Note_on_c, 9, 42, 0
19, 88512, Note_on_c, 9, 42, 110
19, 88606, Note_on_c, 9, 42, 0
19, 88608, Note_on_c, 9, 42, 110
19, 88702, Note_on_c, 9, 42, 0
19, 88704, Note_on_c, 9, 42, 110
19, 88798, Note_on_c, 9, 42, 0
19, 88800, Note_on_c, 9, 42, 110
19, 88894, Note_on_c, 9, 42, 0
19, 88896, Note_on_c, 9, 42, 110
19, 88990, Note_on_c, 9, 42, 0
19, 88992, Note_on_c, 9, 42, 110
19, 89086, Note_on_c, 9, 42, 0
19, 89088, Note_on_c, 9, 42, 110
19, 89182, Note_on_c, 9, 42, 0
19, 89184, Note_on_c, 9, 42, 110
19, 89278, Note_on_c, 9, 42, 0
19, 89280, Note_on_c, 9, 42, 110
19, 89374, Note_on_c, 9, 42, 0
19, 89376, Note_on_c, 9, 42, 110
19, 89470, Note_on_c, 9, 42, 0
19, 89472, Note_on_c, 9, 42, 110
19, 89566, Note_on_c, 9, 42, 0
19, 89568, Note_on_c, 9, 42, 110
19, 89662, Note_on_c, 9, 42, 0
19, 89664, Note_on_c, 9, 42, 110
19, 89758, Note_on_c, 9, 42, 0
19, 89760, Note_on_c, 9, 42, 110
19, 89854, Note_on_c, 9, 42, 0
19, 89856, Note_on_c, 9, 42, 110
19, 89950, Note_on_c, 9, 42, 0
19, 89952, Note_on_c, 9, 42, 110
19, 90046, Note_on_c, 9, 42, 0
19, 90048, Note_on_c, 9, 42, 110
19, 90142, Note_on_c, 9, 42, 0
19, 90144, Note_on_c, 9, 42, 110
19, 90238, Note_on_c, 9, 42, 0
19, 90240, Note_on_c, 9, 42, 110
19, 90334, Note_on_c, 9, 42, 0
19, 90336, Note_on_c, 9, 42, 110
19, 90430, Note_on_c, 9, 42, 0
19, 90432, Note_on_c, 9, 42, 110
19, 90526, Note_on_c, 9, 42, 0
19, 90528, Note_on_c, 9, 42, 110
19, 90622, Note_on_c, 9, 42, 0
19, 90624, Note_on_c, 9, 42, 110
19, 90718, Note_on_c, 9, 42, 0
19, 90720, Note_on_c, 9, 42, 110
19, 90814, Note_on_c, 9, 42, 0
19, 90816, Note_on_c, 9, 42, 110
19, 90910, Note_on_c, 9, 42, 0
19, 90912, Note_on_c, 9, 42, 110
19, 91006, Note_on_c, 9, 42, 0
19, 91008, Note_on_c, 9, 42, 110
19, 91168, Note_on_c, 9, 42, 0
19, 109728, Note_on_c, 9, 51, 110
19, 109750, Note_on_c, 9, 51, 0
19, 109752, Note_on_c, 9, 51, 110
19, 109774, Note_on_c, 9, 51, 0
19, 109776, Note_on_c, 9, 51, 110
19, 109822, Note_on_c, 9, 51, 0
19, 109822, End_track
20, 0, Start_track
20, 0, MIDI_port, 0
20, 0, Title_t, "SLOWSTRINGS"
20, 0, Program_c, 7, 49
20, 0, Pitch_bend_c, 7, 8192
20, 0, Control_c, 7, 7, 127
20, 0, Control_c, 7, 10, 64
20, 9984, Note_on_c, 7, 65, 110
20, 10320, Note_on_c, 7, 65, 0
20, 10368, Note_on_c, 7, 69, 110
20, 10704, Note_on_c, 7, 69, 0
20, 10752, Note_on_c, 7, 74, 110
20, 11472, Note_on_c, 7, 74, 0
20, 20736, Note_on_c, 7, 60, 110
20, 21456, Note_on_c, 7, 60, 0
20, 21504, Note_on_c, 7, 59, 110
20, 22224, Note_on_c, 7, 59, 0
20, 22272, Note_on_c, 7, 57, 110
20, 23760, Note_on_c, 7, 57, 0
20, 26880, Note_on_c, 7, 60, 110
20, 27600, Note_on_c, 7, 60, 0
20, 27648, Note_on_c, 7, 59, 110
20, 28368, Note_on_c, 7, 59, 0
20, 28416, Note_on_c, 7, 57, 110
20, 29904, Note_on_c, 7, 57, 0
20, 34560, Note_on_c, 7, 57, 110
20, 35088, Note_on_c, 7, 57, 0
20, 40704, Note_on_c, 7, 60, 110
20, 41424, Note_on_c, 7, 60, 0
20, 41472, Note_on_c, 7, 59, 110
20, 42192, Note_on_c, 7, 59, 0
20, 42240, Note_on_c, 7, 57, 110
20, 43536, Note_on_c, 7, 57, 0
20, 46848, Note_on_c, 7, 60, 110
20, 47568, Note_on_c, 7, 60, 0
20, 47616, Note_on_c, 7, 59, 110
20, 48336, Note_on_c, 7, 59, 0
20, 48384, Note_on_c, 7, 57, 110
20, 49680, Note_on_c, 7, 57, 0
20, 66816, Note_on_c, 7, 57, 110
20, 67344, Note_on_c, 7, 57, 0
20, 79104, Note_on_c, 7, 61, 110
20, 79824, Note_on_c, 7, 61, 0
20, 79872, Note_on_c, 7, 60, 110
20, 80592, Note_on_c, 7, 60, 0
20, 80640, Note_on_c, 7, 58, 110
20, 81936, Note_on_c, 7, 58, 0
20, 81984, Note_on_c, 7, 56, 110
20, 82144, Note_on_c, 7, 56, 0
20, 83712, Note_on_c, 7, 56, 110
20, 85200, Note_on_c, 7, 56, 0
20, 85248, Note_on_c, 7, 61, 110
20, 85968, Note_on_c, 7, 61, 0
20, 86016, Note_on_c, 7, 60, 110
20, 86736, Note_on_c, 7, 60, 0
20, 86784, Note_on_c, 7, 58, 110
20, 88080, Note_on_c, 7, 58, 0
20, 88128, Note_on_c, 7, 56, 110
20, 88288, Note_on_c, 7, 56, 0
20, 99840, Note_on_c, 7, 56, 110
20, 100560, Note_on_c, 7, 56, 0
20, 100608, Note_on_c, 7, 61, 110
20, 100944, Note_on_c, 7, 61, 0
20, 100992, Note_on_c, 7, 60, 110
20, 101328, Note_on_c, 7, 60, 0
20, 101376, Note_on_c, 7, 61, 110
20, 101712, Note_on_c, 7, 61, 0
20, 101760, Note_on_c, 7, 56, 110
20, 102304, Note_on_c, 7, 56, 0
20, 102912, Note_on_c, 7, 56, 110
20, 104208, Note_on_c, 7, 56, 0
20, 104448, Note_on_c, 7, 56, 110
20, 104448, Note_on_c, 7, 60, 110
20, 105168, Note_on_c, 7, 56, 0
20, 105168, Note_on_c, 7, 60, 0
20, 105216, Note_on_c, 7, 58, 110
20, 105216, Note_on_c, 7, 61, 110
20, 105552, Note_on_c, 7, 58, 0
20, 105552, Note_on_c, 7, 61, 0
20, 105600, Note_on_c, 7, 56, 110
20, 105600, Note_on_c, 7, 60, 110
20, 106144, Note_on_c, 7, 56, 0
20, 106144, Note_on_c, 7, 60, 0
20, 106368, Note_on_c, 7, 56, 110
20, 106704, Note_on_c, 7, 56, 0
20, 107520, Note_on_c, 7, 56, 110
20, 109216, Note_on_c, 7, 56, 0
20, 109216, End_track
21, 0, Start_track
21, 0, MIDI_port, 0
21, 0, Title_t, "SLOWSTRINGS-2"
21, 0, Program_c, 7, 49
21, 0, Pitch_bend_c, 7, 8192
21, 0, Control_c, 7, 7, 127
21, 0, Control_c, 7, 10, 64
21, 3840, Note_on_c, 7, 48, 110
21, 4176, Note_on_c, 7, 48, 0
21, 4224, Note_on_c, 7, 47, 110
21, 4560, Note_on_c, 7, 47, 0
21, 4608, Note_on_c, 7, 45, 110
21, 5136, Note_on_c, 7, 45, 0
21, 5184, Note_on_c, 7, 43, 110
21, 5344, Note_on_c, 7, 43, 0
21, 5376, Note_on_c, 7, 41, 110
21, 6096, Note_on_c, 7, 41, 0
21, 6144, Note_on_c, 7, 38, 110
21, 6864, Note_on_c, 7, 38, 0
21, 6912, Note_on_c, 7, 43, 110
21, 8400, Note_on_c, 7, 43, 0
21, 8448, Note_on_c, 7, 48, 110
21, 8784, Note_on_c, 7, 48, 0
21, 8832, Note_on_c, 7, 47, 110
21, 9168, Note_on_c, 7, 47, 0
21, 9216, Note_on_c, 7, 45, 110
21, 9744, Note_on_c, 7, 45, 0
21, 9792, Note_on_c, 7, 43, 110
21, 9952, Note_on_c, 7, 43, 0
21, 9984, Note_on_c, 7, 41, 110
21, 10704, Note_on_c, 7, 41, 0
21, 10752, Note_on_c, 7, 38, 110
21, 11472, Note_on_c, 7, 38, 0
21, 11520, Note_on_c, 7, 43, 110
21, 13008, Note_on_c, 7, 43, 0
21, 23616, Note_on_c, 7, 55, 110
21, 23776, Note_on_c, 7, 55, 0
21, 23808, Note_on_c, 7, 53, 110
21, 24528, Note_on_c, 7, 53, 0
21, 24576, Note_on_c, 7, 50, 110
21, 25296, Note_on_c, 7, 50, 0
21, 25344, Note_on_c, 7, 55, 110
21, 26832, Note_on_c, 7, 55, 0
21, 29760, Note_on_c, 7, 55, 110
21, 29920, Note_on_c, 7, 55, 0
21, 29952, Note_on_c, 7, 53, 110
21, 30672, Note_on_c, 7, 53, 0
21, 30720, Note_on_c, 7, 50, 110
21, 31440, Note_on_c, 7, 50, 0
21, 31488, Note_on_c, 7, 55, 110
21, 32784, Note_on_c, 7, 55, 0
21, 33024, Note_on_c, 7, 53, 110
21, 33744, Note_on_c, 7, 53, 0
21, 33792, Note_on_c, 7, 55, 110
21, 34720, Note_on_c, 7, 55, 0
21, 34944, Note_on_c, 7, 55, 110
21, 35422, Note_on_c, 7, 55, 0
21, 35424, Note_on_c, 7, 53, 110
21, 37584, Note_on_c, 7, 53, 0
21, 37632, Note_on_c, 7, 50, 110
21, 39120, Note_on_c, 7, 50, 0
21, 39168, Note_on_c, 7, 55, 110
21, 40656, Note_on_c, 7, 55, 0
21, 43584, Note_on_c, 7, 55, 110
21, 43744, Note_on_c, 7, 55, 0
21, 43776, Note_on_c, 7, 53, 110
21, 44496, Note_on_c, 7, 53, 0
21, 44544, Note_on_c, 7, 50, 110
21, 45264, Note_on_c, 7, 50, 0
21, 45312, Note_on_c, 7, 55, 110
21, 46800, Note_on_c, 7, 55, 0
21, 49728, Note_on_c, 7, 55, 110
21, 49888, Note_on_c, 7, 55, 0
21, 49920, Note_on_c, 7, 53, 110
21, 50640, Note_on_c, 7, 53, 0
21, 50688, Note_on_c, 7, 50, 110
21, 51408, Note_on_c, 7, 50, 0
21, 51456, Note_on_c, 7, 43, 110
21, 52752, Note_on_c, 7, 43, 0
21, 65280, Note_on_c, 7, 53, 110
21, 66000, Note_on_c, 7, 53, 0
21, 66048, Note_on_c, 7, 55, 110
21, 66976, Note_on_c, 7, 55, 0
21, 67200, Note_on_c, 7, 55, 110
21, 67678, Note_on_c, 7, 55, 0
21, 67680, Note_on_c, 7, 53, 110
21, 69840, Note_on_c, 7, 53, 0
21, 69888, Note_on_c, 7, 50, 110
21, 71376, Note_on_c, 7, 50, 0
21, 71424, Note_on_c, 7, 55, 110
21, 72912, Note_on_c, 7, 55, 0
21, 82176, Note_on_c, 7, 54, 110
21, 82896, Note_on_c, 7, 54, 0
21, 82944, Note_on_c, 7, 51, 110
21, 83872, Note_on_c, 7, 51, 0
21, 88320, Note_on_c, 7, 54, 110
21, 89040, Note_on_c, 7, 54, 0
21, 89088, Note_on_c, 7, 51, 110
21, 89808, Note_on_c, 7, 51, 0
21, 89856, Note_on_c, 7, 44, 110
21, 91152, Note_on_c, 7, 44, 0
21, 101376, Note_on_c, 7, 54, 110
21, 101712, Note_on_c, 7, 54, 0
21, 101760, Note_on_c, 7, 49, 110
21, 102096, Note_on_c, 7, 49, 0
21, 102144, Note_on_c, 7, 51, 110
21, 102144, Note_on_c, 7, 54, 110
21, 102864, Note_on_c, 7, 51, 0
21, 102864, Note_on_c, 7, 54, 0
21, 105984, Note_on_c, 7, 49, 110
21, 105984, Note_on_c, 7, 54, 110
21, 106320, Note_on_c, 7, 49, 0
21, 106320, Note_on_c, 7, 54, 0
21, 106368, Note_on_c, 7, 49, 110
21, 106528, Note_on_c, 7, 49, 0
21, 106752, Note_on_c, 7, 51, 110
21, 107680, Note_on_c, 7, 51, 0
21, 109056, Note_on_c, 7, 49, 110
21, 110752, Note_on_c, 7, 49, 0
21, 110752, End_track
22, 0, Start_track
22, 0, MIDI_port, 0
22, 0, Title_t, "CHOIR AAHS"
22, 0, Program_c, 8, 52
22, 0, Pitch_bend_c, 8, 8192
22, 0, Control_c, 8, 7, 127
22, 0, Control_c, 8, 10, 64
22, 8448, Note_on_c, 8, 72, 110
22, 8784, Note_on_c, 8, 72, 0
22, 8832, Note_on_c, 8, 71, 110
22, 9168, Note_on_c, 8, 71, 0
22, 9216, Note_on_c, 8, 69, 110
22, 9744, Note_on_c, 8, 69, 0
22, 9792, Note_on_c, 8, 67, 110
22, 9952, Note_on_c, 8, 67, 0
22, 9984, Note_on_c, 8, 65, 110
22, 10704, Note_on_c, 8, 65, 0
22, 10752, Note_on_c, 8, 62, 110
22, 11472, Note_on_c, 8, 62, 0
22, 11520, Note_on_c, 8, 67, 110
22, 12240, Note_on_c, 8, 67, 0
22, 12240, End_track
23, 0, Start_track
23, 0, MIDI_port, 0
23, 0, Title_t, "DISTOTION GT"
23, 0, Program_c, 11, 30
23, 0, Pitch_bend_c, 11, 8192
23, 0, Control_c, 11, 7, 127
23, 0, Control_c, 11, 10, 64
23, 8448, Note_on_c, 11, 48, 110
23, 8784, Note_on_c, 11, 48, 0
23, 8832, Note_on_c, 11, 47, 110
23, 9168, Note_on_c, 11, 47, 0
23, 9216, Note_on_c, 11, 45, 110
23, 9552, Note_on_c, 11, 45, 0
23, 9792, Note_on_c, 11, 43, 110
23, 9952, Note_on_c, 11, 43, 0
23, 9984, Note_on_c, 11, 41, 110
23, 10144, Note_on_c, 11, 41, 0
23, 10176, Note_on_c, 11, 41, 110
23, 10336, Note_on_c, 11, 41, 0
23, 10368, Note_on_c, 11, 41, 110
23, 10528, Note_on_c, 11, 41, 0
23, 10560, Note_on_c, 11, 41, 110
23, 10720, Note_on_c, 11, 41, 0
23, 10752, Note_on_c, 11, 50, 110
23, 10912, Note_on_c, 11, 50, 0
23, 10944, Note_on_c, 11, 50, 110
23, 11104, Note_on_c, 11, 50, 0
23, 11136, Note_on_c, 11, 50, 110
23, 11296, Note_on_c, 11, 50, 0
23, 11328, Note_on_c, 11, 50, 110
23, 11488, Note_on_c, 11, 50, 0
23, 11520, Note_on_c, 11, 43, 110
23, 11680, Note_on_c, 11, 43, 0
23, 12288, Note_on_c, 11, 43, 110
23, 12448, Note_on_c, 11, 43, 0
23, 52800, Note_on_c, 11, 55, 110
23, 52960, Note_on_c, 11, 55, 0
23, 52992, Note_on_c, 11, 60, 110
23, 53470, Note_on_c, 11, 60, 0
23, 53472, Note_on_c, 11, 55, 110
23, 53566, Note_on_c, 11, 55, 0
23, 53568, Note_on_c, 11, 60, 110
23, 53662, Note_on_c, 11, 60, 0
23, 53664, Note_on_c, 11, 62, 110
23, 53758, Note_on_c, 11, 62, 0
23, 53760, Note_on_c, 11, 64, 110
23, 53854, Note_on_c, 11, 64, 0
23, 53856, Note_on_c, 11, 62, 110
23, 53902, Note_on_c, 11, 62, 0
23, 53904, Note_on_c, 11, 60, 110
23, 53950, Note_on_c, 11, 60, 0
23, 53952, Note_on_c, 11, 62, 110
23, 54208, Note_on_c, 11, 62, 0
23, 54240, Note_on_c, 11, 60, 110
23, 54334, Note_on_c, 11, 60, 0
23, 54336, Note_on_c, 11, 59, 110
23, 54430, Note_on_c, 11, 59, 0
23, 54432, Note_on_c, 11, 60, 110
23, 54526, Note_on_c, 11, 60, 0
23, 54528, Note_on_c, 11, 59, 110
23, 54622, Note_on_c, 11, 59, 0
23, 54624, Note_on_c, 11, 60, 110
23, 54718, Note_on_c, 11, 60, 0
23, 54720, Note_on_c, 11, 59, 110
23, 54766, Note_on_c, 11, 59, 0
23, 54768, Note_on_c, 11, 60, 110
23, 54814, Note_on_c, 11, 60, 0
23, 54816, Note_on_c, 11, 59, 110
23, 54862, Note_on_c, 11, 59, 0
23, 54864, Note_on_c, 11, 57, 110
23, 54910, Note_on_c, 11, 57, 0
23, 54912, Note_on_c, 11, 59, 110
23, 55006, Note_on_c, 11, 59, 0
23, 55008, Note_on_c, 11, 57, 110
23, 55102, Note_on_c, 11, 57, 0
23, 55104, Note_on_c, 11, 52, 110
23, 55198, Note_on_c, 11, 52, 0
23, 55200, Note_on_c, 11, 55, 110
23, 55294, Note_on_c, 11, 55, 0
23, 55296, Note_on_c, 11, 57, 110
23, 56016, Note_on_c, 11, 57, 0
23, 56064, Note_on_c, 11, 74, 110
23, 56110, Note_on_c, 11, 74, 0
23, 56112, Note_on_c, 11, 76, 110
23, 56158, Note_on_c, 11, 76, 0
23, 56160, Note_on_c, 11, 81, 110
23, 56206, Note_on_c, 11, 81, 0
23, 56208, Note_on_c, 11, 76, 110
23, 56254, Note_on_c, 11, 76, 0
23, 56256, Note_on_c, 11, 74, 110
23, 56302, Note_on_c, 11, 74, 0
23, 56304, Note_on_c, 11, 76, 110
23, 56350, Note_on_c, 11, 76, 0
23, 56352, Note_on_c, 11, 81, 110
23, 56398, Note_on_c, 11, 81, 0
23, 56400, Note_on_c, 11, 76, 110
23, 56446, Note_on_c, 11, 76, 0
23, 56448, Note_on_c, 11, 81, 110
23, 56494, Note_on_c, 11, 81, 0
23, 56496, Note_on_c, 11, 79, 110
23, 56542, Note_on_c, 11, 79, 0
23, 56544, Note_on_c, 11, 77, 110
23, 56590, Note_on_c, 11, 77, 0
23, 56592, Note_on_c, 11, 76, 110
23, 56638, Note_on_c, 11, 76, 0
23, 56640, Note_on_c, 11, 81, 110
23, 56686, Note_on_c, 11, 81, 0
23, 56688, Note_on_c, 11, 79, 110
23, 56734, Note_on_c, 11, 79, 0
23, 56736, Note_on_c, 11, 77, 110
23, 56782, Note_on_c, 11, 77, 0
23, 56784, Note_on_c, 11, 76, 110
23, 56830, Note_on_c, 11, 76, 0
23, 56832, Note_on_c, 11, 74, 110
23, 56878, Note_on_c, 11, 74, 0
23, 56880, Note_on_c, 11, 72, 110
23, 56926, Note_on_c, 11, 72, 0
23, 56928, Note_on_c, 11, 71, 110
23, 56974, Note_on_c, 11, 71, 0
23, 56976, Note_on_c, 11, 69, 110
23, 57022, Note_on_c, 11, 69, 0
23, 57024, Note_on_c, 11, 69, 110
23, 57070, Note_on_c, 11, 69, 0
23, 57072, Note_on_c, 11, 71, 110
23, 57118, Note_on_c, 11, 71, 0
23, 57120, Note_on_c, 11, 69, 110
23, 57472, Note_on_c, 11, 69, 0
23, 57504, Note_on_c, 11, 67, 110
23, 57550, Note_on_c, 11, 67, 0
23, 57552, Note_on_c, 11, 69, 110
23, 57598, Note_on_c, 11, 69, 0
23, 57600, Note_on_c, 11, 72, 110
23, 58270, Note_on_c, 11, 72, 0
23, 58272, Note_on_c, 11, 69, 110
23, 58318, Note_on_c, 11, 69, 0
23, 58320, Note_on_c, 11, 67, 110
23, 58366, Note_on_c, 11, 67, 0
23, 58368, Note_on_c, 11, 69, 110
23, 58510, Note_on_c, 11, 69, 0
23, 58512, Note_on_c, 11, 67, 110
23, 58654, Note_on_c, 11, 67, 0
23, 58656, Note_on_c, 11, 67, 110
23, 59088, Note_on_c, 11, 67, 0
23, 59136, Note_on_c, 11, 79, 110
23, 59472, Note_on_c, 11, 79, 0
23, 59520, Note_on_c, 11, 81, 110
23, 59662, Note_on_c, 11, 81, 0
23, 59664, Note_on_c, 11, 79, 110
23, 59806, Note_on_c, 11, 79, 0
23, 59808, Note_on_c, 11, 77, 110
23, 59902, Note_on_c, 11, 77, 0
23, 59904, Note_on_c, 11, 76, 110
23, 59998, Note_on_c, 11, 76, 0
23, 60000, Note_on_c, 11, 77, 110
23, 60190, Note_on_c, 11, 77, 0
23, 60192, Note_on_c, 11, 79, 110
23, 60382, Note_on_c, 11, 79, 0
23, 60384, Note_on_c, 11, 79, 110
23, 60478, Note_on_c, 11, 79, 0
23, 60480, Note_on_c, 11, 77, 110
23, 60574, Note_on_c, 11, 77, 0
23, 60576, Note_on_c, 11, 76, 110
23, 60670, Note_on_c, 11, 76, 0
23, 60672, Note_on_c, 11, 74, 110
23, 60766, Note_on_c, 11, 74, 0
23, 60768, Note_on_c, 11, 76, 110
23, 60862, Note_on_c, 11, 76, 0
23, 60864, Note_on_c, 11, 76, 110
23, 60958, Note_on_c, 11, 76, 0
23, 60960, Note_on_c, 11, 74, 110
23, 61006, Note_on_c, 11, 74, 0
23, 61008, Note_on_c, 11, 72, 110
23, 61054, Note_on_c, 11, 72, 0
23, 61056, Note_on_c, 11, 74, 110
23, 61150, Note_on_c, 11, 74, 0
23, 61152, Note_on_c, 11, 72, 110
23, 61246, Note_on_c, 11, 72, 0
23, 61248, Note_on_c, 11, 71, 110
23, 61342, Note_on_c, 11, 71, 0
23, 61344, Note_on_c, 11, 72, 110
23, 61438, Note_on_c, 11, 72, 0
23, 61440, Note_on_c, 11, 71, 110
23, 61534, Note_on_c, 11, 71, 0
23, 61536, Note_on_c, 11, 72, 110
23, 61630, Note_on_c, 11, 72, 0
23, 61632, Note_on_c, 11, 71, 110
23, 61726, Note_on_c, 11, 71, 0
23, 61728, Note_on_c, 11, 69, 110
23, 61822, Note_on_c, 11, 69, 0
23, 61824, Note_on_c, 11, 71, 110
23, 61918, Note_on_c, 11, 71, 0
23, 61920, Note_on_c, 11, 69, 110
23, 62302, Note_on_c, 11, 69, 0
23, 62304, Note_on_c, 11, 65, 110
23, 62350, Note_on_c, 11, 65, 0
23, 62352, Note_on_c, 11, 67, 110
23, 62398, Note_on_c, 11, 67, 0
23, 62400, Note_on_c, 11, 69, 110
23, 62446, Note_on_c, 11, 69, 0
23, 62448, Note_on_c, 11, 65, 110
23, 62494, Note_on_c, 11, 65, 0
23, 62496, Note_on_c, 11, 67, 110
23, 62542, Note_on_c, 11, 67, 0
23, 62544, Note_on_c, 11, 69, 110
23, 62590, Note_on_c, 11, 69, 0
23, 62592, Note_on_c, 11, 72, 110
23, 62638, Note_on_c, 11, 72, 0
23, 62640, Note_on_c, 11, 65, 110
23, 62686, Note_on_c, 11, 65, 0
23, 62688, Note_on_c, 11, 69, 110
23, 62734, Note_on_c, 11, 69, 0
23, 62736, Note_on_c, 11, 74, 110
23, 62782, Note_on_c, 11, 74, 0
23, 62784, Note_on_c, 11, 72, 110
23, 62830, Note_on_c, 11, 72, 0
23, 62832, Note_on_c, 11, 69, 110
23, 62878, Note_on_c, 11, 69, 0
23, 62880, Note_on_c, 11, 72, 110
23, 62974, Note_on_c, 11, 72, 0
23, 62976, Note_on_c, 11, 74, 110
23, 63070, Note_on_c, 11, 74, 0
23, 63072, Note_on_c, 11, 76, 110
23, 63166, Note_on_c, 11, 76, 0
23, 63168, Note_on_c, 11, 81, 110
23, 63262, Note_on_c, 11, 81, 0
23, 63264, Note_on_c, 11, 76, 110
23, 63358, Note_on_c, 11, 76, 0
23, 63360, Note_on_c, 11, 79, 110
23, 63454, Note_on_c, 11, 79, 0
23, 63456, Note_on_c, 11, 81, 110
23, 63712, Note_on_c, 11, 81, 0
23, 63744, Note_on_c, 11, 84, 110
23, 64222, Note_on_c, 11, 84, 0
23, 64224, Note_on_c, 11, 86, 110
23, 64318, Note_on_c, 11, 86, 0
23, 64320, Note_on_c, 11, 84, 110
23, 64414, Note_on_c, 11, 84, 0
23, 64416, Note_on_c, 11, 83, 110
23, 64606, Note_on_c, 11, 83, 0
23, 64608, Note_on_c, 11, 81, 110
23, 65040, Note_on_c, 11, 81, 0
23, 65088, Note_on_c, 11, 79, 110
23, 65440, Note_on_c, 11, 79, 0
23, 65440, End_track
24, 0, Start_track
24, 0, MIDI_port, 0
24, 0, Title_t, "SFX"
24, 0, Program_c, 12, 120
24, 0, Pitch_bend_c, 12, 8192
24, 0, Control_c, 12, 7, 127
24, 0, Control_c, 12, 10, 64
24, 9984, Note_on_c, 12, 43, 110
24, 10144, Note_on_c, 12, 43, 0
24, 10176, Note_on_c, 12, 43, 110
24, 10336, Note_on_c, 12, 43, 0
24, 10368, Note_on_c, 12, 43, 110
24, 10528, Note_on_c, 12, 43, 0
24, 10560, Note_on_c, 12, 43, 110
24, 10720, Note_on_c, 12, 43, 0
24, 10752, Note_on_c, 12, 43, 110
24, 10912, Note_on_c, 12, 43, 0
24, 10944, Note_on_c, 12, 43, 110
24, 11104, Note_on_c, 12, 43, 0
24, 11136, Note_on_c, 12, 43, 110
24, 11296, Note_on_c, 12, 43, 0
24, 11328, Note_on_c, 12, 43, 110
24, 11488, Note_on_c, 12, 43, 0
24, 103872, Note_on_c, 12, 63, 110
24, 104032, Note_on_c, 12, 63, 0
24, 104064, Note_on_c, 12, 65, 110
24, 104224, Note_on_c, 12, 65, 0
24, 104256, Note_on_c, 12, 66, 110
24, 104416, Note_on_c, 12, 66, 0
24, 104448, Note_on_c, 12, 68, 110
24, 104976, Note_on_c, 12, 68, 0
24, 105024, Note_on_c, 12, 70, 110
24, 105118, Note_on_c, 12, 70, 0
24, 105120, Note_on_c, 12, 72, 110
24, 105214, Note_on_c, 12, 72, 0
24, 105216, Note_on_c, 12, 73, 110
24, 105376, Note_on_c, 12, 73, 0
24, 105408, Note_on_c, 12, 72, 110
24, 105568, Note_on_c, 12, 72, 0
24, 105600, Note_on_c, 12, 70, 110
24, 105760, Note_on_c, 12, 70, 0
24, 105792, Note_on_c, 12, 68, 110
24, 105952, Note_on_c, 12, 68, 0
24, 105984, Note_on_c, 12, 66, 110
24, 106144, Note_on_c, 12, 66, 0
24, 106176, Note_on_c, 12, 70, 110
24, 106336, Note_on_c, 12, 70, 0
24, 106368, Note_on_c, 12, 65, 110
24, 106528, Note_on_c, 12, 65, 0
24, 106560, Note_on_c, 12, 68, 110
24, 106720, Note_on_c, 12, 68, 0
24, 106752, Note_on_c, 12, 63, 110
24, 106912, Note_on_c, 12, 63, 0
24, 106944, Note_on_c, 12, 75, 110
24, 107038, Note_on_c, 12, 75, 0
24, 107040, Note_on_c, 12, 73, 110
24, 107134, Note_on_c, 12, 73, 0
24, 107136, Note_on_c, 12, 72, 110
24, 107296, Note_on_c, 12, 72, 0
24, 107328, Note_on_c, 12, 70, 110
24, 107488, Note_on_c, 12, 70, 0
24, 107520, Note_on_c, 12, 68, 110
24, 108240, Note_on_c, 12, 68, 0
24, 108288, Note_on_c, 12, 65, 110
24, 108624, Note_on_c, 12, 65, 0
24, 108672, Note_on_c, 12, 66, 110
24, 109008, Note_on_c, 12, 66, 0
24, 109056, Note_on_c, 12, 68, 110
24, 110752, Note_on_c, 12, 68, 0
24, 110752, End_track
25, 0, Start_track
25, 0, MIDI_port, 0
25, 0, Title_t, "BRASS2"
25, 0, Program_c, 14, 61
25, 0, Pitch_bend_c, 14, 8192
25, 0, Control_c, 14, 7, 127
25, 0, Control_c, 14, 10, 64
25, 1440, Note_on_c, 14, 72, 110
25, 1486, Note_on_c, 14, 72, 0
25, 1488, Note_on_c, 14, 72, 110
25, 1534, Note_on_c, 14, 72, 0
25, 1536, Note_on_c, 14, 72, 110
25, 1594, Note_on_c, 14, 72, 0
25, 1596, Note_on_c, 14, 67, 110
25, 1666, Note_on_c, 14, 67, 0
25, 1668, Note_on_c, 14, 72, 110
25, 1726, Note_on_c, 14, 72, 0
25, 1728, Note_on_c, 14, 74, 110
25, 1786, Note_on_c, 14, 74, 0
25, 1788, Note_on_c, 14, 72, 110
25, 1858, Note_on_c, 14, 72, 0
25, 1860, Note_on_c, 14, 74, 110
25, 1918, Note_on_c, 14, 74, 0
25, 1920, Note_on_c, 14, 79, 110
25, 3408, Note_on_c, 14, 79, 0
25, 11520, Note_on_c, 14, 67, 110
25, 11520, Note_on_c, 14, 72, 110
25, 11680, Note_on_c, 14, 67, 0
25, 11680, Note_on_c, 14, 72, 0
25, 12288, Note_on_c, 14, 67, 110
25, 12288, Note_on_c, 14, 72, 110
25, 12448, Note_on_c, 14, 67, 0
25, 12448, Note_on_c, 14, 72, 0
25, 13056, Note_on_c, 14, 67, 110
25, 13056, Note_on_c, 14, 72, 110
25, 13216, Note_on_c, 14, 67, 0
25, 13216, Note_on_c, 14, 72, 0
25, 13824, Note_on_c, 14, 67, 110
25, 13824, Note_on_c, 14, 71, 110
25, 13984, Note_on_c, 14, 67, 0
25, 13984, Note_on_c, 14, 71, 0
25, 20928, Note_on_c, 14, 60, 110
25, 20928, Note_on_c, 14, 64, 110
25, 21088, Note_on_c, 14, 60, 0
25, 21088, Note_on_c, 14, 64, 0
25, 21216, Note_on_c, 14, 60, 110
25, 21216, Note_on_c, 14, 64, 110
25, 21310, Note_on_c, 14, 60, 0
25, 21310, Note_on_c, 14, 64, 0
25, 21696, Note_on_c, 14, 60, 110
25, 21696, Note_on_c, 14, 64, 110
25, 21856, Note_on_c, 14, 60, 0
25, 21856, Note_on_c, 14, 64, 0
25, 21984, Note_on_c, 14, 59, 110
25, 21984, Note_on_c, 14, 62, 110
25, 22078, Note_on_c, 14, 59, 0
25, 22078, Note_on_c, 14, 62, 0
25, 22464, Note_on_c, 14, 60, 110
25, 22464, Note_on_c, 14, 64, 110
25, 22624, Note_on_c, 14, 60, 0
25, 22624, Note_on_c, 14, 64, 0
25, 22752, Note_on_c, 14, 59, 110
25, 22752, Note_on_c, 14, 62, 110
25, 23008, Note_on_c, 14, 59, 0
25, 23008, Note_on_c, 14, 62, 0
25, 23040, Note_on_c, 14, 60, 110
25, 23040, Note_on_c, 14, 64, 110
25, 23134, Note_on_c, 14, 60, 0
25, 23134, Note_on_c, 14, 64, 0
25, 23136, Note_on_c, 14, 60, 110
25, 23136, Note_on_c, 14, 64, 110
25, 23230, Note_on_c, 14, 60, 0
25, 23230, Note_on_c, 14, 64, 0
25, 23328, Note_on_c, 14, 59, 110
25, 23328, Note_on_c, 14, 62, 110
25, 23422, Note_on_c, 14, 59, 0
25, 23422, Note_on_c, 14, 62, 0
25, 23520, Note_on_c, 14, 60, 110
25, 23520, Note_on_c, 14, 64, 110
25, 23776, Note_on_c, 14, 60, 0
25, 23776, Note_on_c, 14, 64, 0
25, 24000, Note_on_c, 14, 62, 110
25, 24000, Note_on_c, 14, 65, 110
25, 24160, Note_on_c, 14, 62, 0
25, 24160, Note_on_c, 14, 65, 0
25, 24288, Note_on_c, 14, 62, 110
25, 24288, Note_on_c, 14, 65, 110
25, 24382, Note_on_c, 14, 62, 0
25, 24382, Note_on_c, 14, 65, 0
25, 24768, Note_on_c, 14, 62, 110
25, 24768, Note_on_c, 14, 65, 110
25, 24928, Note_on_c, 14, 62, 0
25, 24928, Note_on_c, 14, 65, 0
25, 25056, Note_on_c, 14, 62, 110
25, 25056, Note_on_c, 14, 65, 110
25, 25150, Note_on_c, 14, 62, 0
25, 25150, Note_on_c, 14, 65, 0
25, 25536, Note_on_c, 14, 62, 110
25, 25536, Note_on_c, 14, 65, 110
25, 25696, Note_on_c, 14, 62, 0
25, 25696, Note_on_c, 14, 65, 0
25, 25824, Note_on_c, 14, 69, 110
25, 25824, Note_on_c, 14, 72, 110
25, 25918, Note_on_c, 14, 69, 0
25, 25918, Note_on_c, 14, 72, 0
25, 26112, Note_on_c, 14, 67, 110
25, 26112, Note_on_c, 14, 71, 110
25, 26206, Note_on_c, 14, 67, 0
25, 26206, Note_on_c, 14, 71, 0
25, 26208, Note_on_c, 14, 67, 110
25, 26208, Note_on_c, 14, 71, 110
25, 26302, Note_on_c, 14, 67, 0
25, 26302, Note_on_c, 14, 71, 0
25, 26400, Note_on_c, 14, 65, 110
25, 26400, Note_on_c, 14, 69, 110
25, 26494, Note_on_c, 14, 65, 0
25, 26494, Note_on_c, 14, 69, 0
25, 26592, Note_on_c, 14, 67, 110
25, 26592, Note_on_c, 14, 71, 110
25, 26848, Note_on_c, 14, 67, 0
25, 26848, Note_on_c, 14, 71, 0
25, 27072, Note_on_c, 14, 60, 110
25, 27072, Note_on_c, 14, 64, 110
25, 27232, Note_on_c, 14, 60, 0
25, 27232, Note_on_c, 14, 64, 0
25, 27360, Note_on_c, 14, 60, 110
25, 27360, Note_on_c, 14, 64, 110
25, 27454, Note_on_c, 14, 60, 0
25, 27454, Note_on_c, 14, 64, 0
25, 27840, Note_on_c, 14, 60, 110
25, 27840, Note_on_c, 14, 64, 110
25, 28000, Note_on_c, 14, 60, 0
25, 28000, Note_on_c, 14, 64, 0
25, 28128, Note_on_c, 14, 59, 110
25, 28128, Note_on_c, 14, 62, 110
25, 28222, Note_on_c, 14, 59, 0
25, 28222, Note_on_c, 14, 62, 0
25, 28608, Note_on_c, 14, 60, 110
25, 28608, Note_on_c, 14, 64, 110
25, 28768, Note_on_c, 14, 60, 0
25, 28768, Note_on_c, 14, 64, 0
25, 28896, Note_on_c, 14, 59, 110
25, 28896, Note_on_c, 14, 62, 110
25, 29152, Note_on_c, 14, 59, 0
25, 29152, Note_on_c, 14, 62, 0
25, 29184, Note_on_c, 14, 60, 110
25, 29184, Note_on_c, 14, 64, 110
25, 29278, Note_on_c, 14, 60, 0
25, 29278, Note_on_c, 14, 64, 0
25, 29280, Note_on_c, 14, 60, 110
25, 29280, Note_on_c, 14, 64, 110
25, 29374, Note_on_c, 14, 60, 0
25, 29374, Note_on_c, 14, 64, 0
25, 29472, Note_on_c, 14, 59, 110
25, 29472, Note_on_c, 14, 62, 110
25, 29566, Note_on_c, 14, 59, 0
25, 29566, Note_on_c, 14, 62, 0
25, 29664, Note_on_c, 14, 60, 110
25, 29664, Note_on_c, 14, 64, 110
25, 29920, Note_on_c, 14, 60, 0
25, 29920, Note_on_c, 14, 64, 0
25, 30144, Note_on_c, 14, 62, 110
25, 30144, Note_on_c, 14, 65, 110
25, 30304, Note_on_c, 14, 62, 0
25, 30304, Note_on_c, 14, 65, 0
25, 30432, Note_on_c, 14, 62, 110
25, 30432, Note_on_c, 14, 65, 110
25, 30526, Note_on_c, 14, 62, 0
25, 30526, Note_on_c, 14, 65, 0
25, 30912, Note_on_c, 14, 62, 110
25, 30912, Note_on_c, 14, 65, 110
25, 31072, Note_on_c, 14, 62, 0
25, 31072, Note_on_c, 14, 65, 0
25, 31200, Note_on_c, 14, 62, 110
25, 31200, Note_on_c, 14, 65, 110
25, 31294, Note_on_c, 14, 62, 0
25, 31294, Note_on_c, 14, 65, 0
25, 31680, Note_on_c, 14, 69, 110
25, 31680, Note_on_c, 14, 72, 110
25, 31840, Note_on_c, 14, 69, 0
25, 31840, Note_on_c, 14, 72, 0
25, 31968, Note_on_c, 14, 67, 110
25, 31968, Note_on_c, 14, 71, 110
25, 32224, Note_on_c, 14, 67, 0
25, 32224, Note_on_c, 14, 71, 0
25, 32352, Note_on_c, 14, 69, 110
25, 32352, Note_on_c, 14, 72, 110
25, 32352, Note_on_c, 14, 77, 110
25, 32608, Note_on_c, 14, 69, 0
25, 32608, Note_on_c, 14, 72, 0
25, 32608, Note_on_c, 14, 77, 0
25, 32640, Note_on_c, 14, 69, 110
25, 32640, Note_on_c, 14, 72, 110
25, 32640, Note_on_c, 14, 77, 110
25, 32800, Note_on_c, 14, 69, 0
25, 32800, Note_on_c, 14, 72, 0
25, 32800, Note_on_c, 14, 77, 0
25, 32832, Note_on_c, 14, 71, 110
25, 32832, Note_on_c, 14, 74, 110
25, 32832, Note_on_c, 14, 79, 110
25, 32992, Note_on_c, 14, 71, 0
25, 32992, Note_on_c, 14, 74, 0
25, 32992, Note_on_c, 14, 79, 0
25, 40704, Note_on_c, 14, 84, 110
25, 40750, Note_on_c, 14, 84, 0
25, 40752, Note_on_c, 14, 83, 110
25, 40798, Note_on_c, 14, 83, 0
25, 40800, Note_on_c, 14, 84, 110
25, 40846, Note_on_c, 14, 84, 0
25, 40848, Note_on_c, 14, 83, 110
25, 40894, Note_on_c, 14, 83, 0
25, 40896, Note_on_c, 14, 84, 110
25, 40942, Note_on_c, 14, 84, 0
25, 40944, Note_on_c, 14, 79, 110
25, 40990, Note_on_c, 14, 79, 0
25, 40992, Note_on_c, 14, 76, 110
25, 41038, Note_on_c, 14, 76, 0
25, 41040, Note_on_c, 14, 79, 110
25, 41086, Note_on_c, 14, 79, 0
25, 41088, Note_on_c, 14, 84, 110
25, 41134, Note_on_c, 14, 84, 0
25, 41136, Note_on_c, 14, 83, 110
25, 41182, Note_on_c, 14, 83, 0
25, 41184, Note_on_c, 14, 84, 110
25, 41230, Note_on_c, 14, 84, 0
25, 41232, Note_on_c, 14, 83, 110
25, 41278, Note_on_c, 14, 83, 0
25, 41280, Note_on_c, 14, 84, 110
25, 41326, Note_on_c, 14, 84, 0
25, 41328, Note_on_c, 14, 79, 110
25, 41374, Note_on_c, 14, 79, 0
25, 41376, Note_on_c, 14, 76, 110
25, 41422, Note_on_c, 14, 76, 0
25, 41424, Note_on_c, 14, 79, 110
25, 41470, Note_on_c, 14, 79, 0
25, 41472, Note_on_c, 14, 84, 110
25, 41518, Note_on_c, 14, 84, 0
25, 41520, Note_on_c, 14, 83, 110
25, 41566, Note_on_c, 14, 83, 0
25, 41568, Note_on_c, 14, 84, 110
25, 41614, Note_on_c, 14, 84, 0
25, 41616, Note_on_c, 14, 83, 110
25, 41662, Note_on_c, 14, 83, 0
25, 41664, Note_on_c, 14, 84, 110
25, 41710, Note_on_c, 14, 84, 0
25, 41712, Note_on_c, 14, 79, 110
25, 41758, Note_on_c, 14, 79, 0
25, 41760, Note_on_c, 14, 76, 110
25, 41806, Note_on_c, 14, 76, 0
25, 41808, Note_on_c, 14, 79, 110
25, 41854, Note_on_c, 14, 79, 0
25, 41856, Note_on_c, 14, 84, 110
25, 41902, Note_on_c, 14, 84, 0
25, 41904, Note_on_c, 14, 83, 110
25, 41950, Note_on_c, 14, 83, 0
25, 41952, Note_on_c, 14, 84, 110
25, 41998, Note_on_c, 14, 84, 0
25, 42000, Note_on_c, 14, 83, 110
25, 42046, Note_on_c, 14, 83, 0
25, 42048, Note_on_c, 14, 84, 110
25, 42094, Note_on_c, 14, 84, 0
25, 42096, Note_on_c, 14, 79, 110
25, 42142, Note_on_c, 14, 79, 0
25, 42144, Note_on_c, 14, 76, 110
25, 42190, Note_on_c, 14, 76, 0
25, 42192, Note_on_c, 14, 79, 110
25, 42238, Note_on_c, 14, 79, 0
25, 42240, Note_on_c, 14, 84, 110
25, 42286, Note_on_c, 14, 84, 0
25, 42288, Note_on_c, 14, 83, 110
25, 42334, Note_on_c, 14, 83, 0
25, 42336, Note_on_c, 14, 84, 110
25, 42382, Note_on_c, 14, 84, 0
25, 42384, Note_on_c, 14, 83, 110
25, 42430, Note_on_c, 14, 83, 0
25, 42432, Note_on_c, 14, 84, 110
25, 42478, Note_on_c, 14, 84, 0
25, 42480, Note_on_c, 14, 79, 110
25, 42526, Note_on_c, 14, 79, 0
25, 42528, Note_on_c, 14, 76, 110
25, 42574, Note_on_c, 14, 76, 0
25, 42576, Note_on_c, 14, 79, 110
25, 42622, Note_on_c, 14, 79, 0
25, 42624, Note_on_c, 14, 84, 110
25, 42670, Note_on_c, 14, 84, 0
25, 42672, Note_on_c, 14, 83, 110
25, 42718, Note_on_c, 14, 83, 0
25, 42720, Note_on_c, 14, 84, 110
25, 42766, Note_on_c, 14, 84, 0
25, 42768, Note_on_c, 14, 83, 110
25, 42814, Note_on_c, 14, 83, 0
25, 42816, Note_on_c, 14, 84, 110
25, 42862, Note_on_c, 14, 84, 0
25, 42864, Note_on_c, 14, 79, 110
25, 42910, Note_on_c, 14, 79, 0
25, 42912, Note_on_c, 14, 76, 110
25, 42958, Note_on_c, 14, 76, 0
25, 42960, Note_on_c, 14, 79, 110
25, 43006, Note_on_c, 14, 79, 0
25, 43008, Note_on_c, 14, 84, 110
25, 43054, Note_on_c, 14, 84, 0
25, 43056, Note_on_c, 14, 83, 110
25, 43102, Note_on_c, 14, 83, 0
25, 43104, Note_on_c, 14, 84, 110
25, 43150, Note_on_c, 14, 84, 0
25, 43152, Note_on_c, 14, 83, 110
25, 43198, Note_on_c, 14, 83, 0
25, 43200, Note_on_c, 14, 84, 110
25, 43246, Note_on_c, 14, 84, 0
25, 43248, Note_on_c, 14, 79, 110
25, 43294, Note_on_c, 14, 79, 0
25, 43296, Note_on_c, 14, 76, 110
25, 43342, Note_on_c, 14, 76, 0
25, 43344, Note_on_c, 14, 79, 110
25, 43390, Note_on_c, 14, 79, 0
25, 43392, Note_on_c, 14, 84, 110
25, 43438, Note_on_c, 14, 84, 0
25, 43440, Note_on_c, 14, 83, 110
25, 43486, Note_on_c, 14, 83, 0
25, 43488, Note_on_c, 14, 84, 110
25, 43534, Note_on_c, 14, 84, 0
25, 43536, Note_on_c, 14, 83, 110
25, 43582, Note_on_c, 14, 83, 0
25, 43584, Note_on_c, 14, 84, 110
25, 43630, Note_on_c, 14, 84, 0
25, 43632, Note_on_c, 14, 79, 110
25, 43678, Note_on_c, 14, 79, 0
25, 43680, Note_on_c, 14, 76, 110
25, 43726, Note_on_c, 14, 76, 0
25, 43728, Note_on_c, 14, 79, 110
25, 43774, Note_on_c, 14, 79, 0
25, 43776, Note_on_c, 14, 89, 110
25, 43822, Note_on_c, 14, 89, 0
25, 43824, Note_on_c, 14, 88, 110
25, 43870, Note_on_c, 14, 88, 0
25, 43872, Note_on_c, 14, 89, 110
25, 43918, Note_on_c, 14, 89, 0
25, 43920, Note_on_c, 14, 88, 110
25, 43966, Note_on_c, 14, 88, 0
25, 43968, Note_on_c, 14, 89, 110
25, 44014, Note_on_c, 14, 89, 0
25, 44016, Note_on_c, 14, 84, 110
25, 44062, Note_on_c, 14, 84, 0
25, 44064, Note_on_c, 14, 81, 110
25, 44110, Note_on_c, 14, 81, 0
25, 44112, Note_on_c, 14, 84, 110
25, 44158, Note_on_c, 14, 84, 0
25, 44160, Note_on_c, 14, 89, 110
25, 44206, Note_on_c, 14, 89, 0
25, 44208, Note_on_c, 14, 88, 110
25, 44254, Note_on_c, 14, 88, 0
25, 44256, Note_on_c, 14, 89, 110
25, 44302, Note_on_c, 14, 89, 0
25, 44304, Note_on_c, 14, 88, 110
25, 44350, Note_on_c, 14, 88, 0
25, 44352, Note_on_c, 14, 89, 110
25, 44398, Note_on_c, 14, 89, 0
25, 44400, Note_on_c, 14, 84, 110
25, 44446, Note_on_c, 14, 84, 0
25, 44448, Note_on_c, 14, 81, 110
25, 44494, Note_on_c, 14, 81, 0
25, 44496, Note_on_c, 14, 84, 110
25, 44542, Note_on_c, 14, 84, 0
25, 44544, Note_on_c, 14, 89, 110
25, 44590, Note_on_c, 14, 89, 0
25, 44592, Note_on_c, 14, 88, 110
25, 44638, Note_on_c, 14, 88, 0
25, 44640, Note_on_c, 14, 89, 110
25, 44686, Note_on_c, 14, 89, 0
25, 44688, Note_on_c, 14, 88, 110
25, 44734, Note_on_c, 14, 88, 0
25, 44736, Note_on_c, 14, 89, 110
25, 44782, Note_on_c, 14, 89, 0
25, 44784, Note_on_c, 14, 84, 110
25, 44830, Note_on_c, 14, 84, 0
25, 44832, Note_on_c, 14, 81, 110
25, 44878, Note_on_c, 14, 81, 0
25, 44880, Note_on_c, 14, 84, 110
25, 44926, Note_on_c, 14, 84, 0
25, 44928, Note_on_c, 14, 89, 110
25, 44974, Note_on_c, 14, 89, 0
25, 44976, Note_on_c, 14, 88, 110
25, 45022, Note_on_c, 14, 88, 0
25, 45024, Note_on_c, 14, 89, 110
25, 45070, Note_on_c, 14, 89, 0
25, 45072, Note_on_c, 14, 88, 110
25, 45118, Note_on_c, 14, 88, 0
25, 45120, Note_on_c, 14, 89, 110
25, 45166, Note_on_c, 14, 89, 0
25, 45168, Note_on_c, 14, 84, 110
25, 45214, Note_on_c, 14, 84, 0
25, 45216, Note_on_c, 14, 81, 110
25, 45262, Note_on_c, 14, 81, 0
25, 45264, Note_on_c, 14, 84, 110
25, 45310, Note_on_c, 14, 84, 0
25, 45312, Note_on_c, 14, 91, 110
25, 45358, Note_on_c, 14, 91, 0
25, 45360, Note_on_c, 14, 90, 110
25, 45406, Note_on_c, 14, 90, 0
25, 45408, Note_on_c, 14, 91, 110
25, 45454, Note_on_c, 14, 91, 0
25, 45456, Note_on_c, 14, 90, 110
25, 45502, Note_on_c, 14, 90, 0
25, 45504, Note_on_c, 14, 91, 110
25, 45550, Note_on_c, 14, 91, 0
25, 45552, Note_on_c, 14, 86, 110
25, 45598, Note_on_c, 14, 86, 0
25, 45600, Note_on_c, 14, 83, 110
25, 45646, Note_on_c, 14, 83, 0
25, 45648, Note_on_c, 14, 86, 110
25, 45694, Note_on_c, 14, 86, 0
25, 45696, Note_on_c, 14, 91, 110
25, 45742, Note_on_c, 14, 91, 0
25, 45744, Note_on_c, 14, 90, 110
25, 45790, Note_on_c, 14, 90, 0
25, 45792, Note_on_c, 14, 91, 110
25, 45838, Note_on_c, 14, 91, 0
25, 45840, Note_on_c, 14, 90, 110
25, 45886, Note_on_c, 14, 90, 0
25, 45888, Note_on_c, 14, 91, 110
25, 45934, Note_on_c, 14, 91, 0
25, 45936, Note_on_c, 14, 86, 110
25, 45982, Note_on_c, 14, 86, 0
25, 45984, Note_on_c, 14, 83, 110
25, 46030, Note_on_c, 14, 83, 0
25, 46032, Note_on_c, 14, 86, 110
25, 46078, Note_on_c, 14, 86, 0
25, 46080, Note_on_c, 14, 91, 110
25, 46126, Note_on_c, 14, 91, 0
25, 46128, Note_on_c, 14, 90, 110
25, 46174, Note_on_c, 14, 90, 0
25, 46176, Note_on_c, 14, 91, 110
25, 46222, Note_on_c, 14, 91, 0
25, 46224, Note_on_c, 14, 90, 110
25, 46270, Note_on_c, 14, 90, 0
25, 46272, Note_on_c, 14, 91, 110
25, 46318, Note_on_c, 14, 91, 0
25, 46320, Note_on_c, 14, 86, 110
25, 46366, Note_on_c, 14, 86, 0
25, 46368, Note_on_c, 14, 83, 110
25, 46414, Note_on_c, 14, 83, 0
25, 46416, Note_on_c, 14, 86, 110
25, 46462, Note_on_c, 14, 86, 0
25, 46464, Note_on_c, 14, 79, 110
25, 46510, Note_on_c, 14, 79, 0
25, 46512, Note_on_c, 14, 81, 110
25, 46558, Note_on_c, 14, 81, 0
25, 46560, Note_on_c, 14, 83, 110
25, 46606, Note_on_c, 14, 83, 0
25, 46608, Note_on_c, 14, 84, 110
25, 46654, Note_on_c, 14, 84, 0
25, 46656, Note_on_c, 14, 81, 110
25, 46702, Note_on_c, 14, 81, 0
25, 46704, Note_on_c, 14, 83, 110
25, 46750, Note_on_c, 14, 83, 0
25, 46752, Note_on_c, 14, 84, 110
25, 46798, Note_on_c, 14, 84, 0
25, 46800, Note_on_c, 14, 86, 110
25, 46846, Note_on_c, 14, 86, 0
25, 46848, Note_on_c, 14, 84, 110
25, 46894, Note_on_c, 14, 84, 0
25, 46896, Note_on_c, 14, 83, 110
25, 46942, Note_on_c, 14, 83, 0
25, 46944, Note_on_c, 14, 84, 110
25, 46990, Note_on_c, 14, 84, 0
25, 46992, Note_on_c, 14, 83, 110
25, 47038, Note_on_c, 14, 83, 0
25, 47040, Note_on_c, 14, 84, 110
25, 47086, Note_on_c, 14, 84, 0
25, 47088, Note_on_c, 14, 79, 110
25, 47088, Note_on_c, 14, 83, 110
25, 47134, Note_on_c, 14, 79, 0
25, 47134, Note_on_c, 14, 83, 0
25, 47136, Note_on_c, 14, 76, 110
25, 47182, Note_on_c, 14, 76, 0
25, 47184, Note_on_c, 14, 79, 110
25, 47230, Note_on_c, 14, 79, 0
25, 47232, Note_on_c, 14, 84, 110
25, 47278, Note_on_c, 14, 84, 0
25, 47280, Note_on_c, 14, 83, 110
25, 47326, Note_on_c, 14, 83, 0
25, 47328, Note_on_c, 14, 84, 110
25, 47374, Note_on_c, 14, 84, 0
25, 47376, Note_on_c, 14, 83, 110
25, 47422, Note_on_c, 14, 83, 0
25, 47424, Note_on_c, 14, 84, 110
25, 47470, Note_on_c, 14, 84, 0
25, 47472, Note_on_c, 14, 79, 110
25, 47518, Note_on_c, 14, 79, 0
25, 47520, Note_on_c, 14, 76, 110
25, 47566, Note_on_c, 14, 76, 0
25, 47568, Note_on_c, 14, 79, 110
25, 47614, Note_on_c, 14, 79, 0
25, 47616, Note_on_c, 14, 86, 110
25, 47662, Note_on_c, 14, 86, 0
25, 47664, Note_on_c, 14, 84, 110
25, 47710, Note_on_c, 14, 84, 0
25, 47712, Note_on_c, 14, 86, 110
25, 47758, Note_on_c, 14, 86, 0
25, 47760, Note_on_c, 14, 84, 110
25, 47806, Note_on_c, 14, 84, 0
25, 47808, Note_on_c, 14, 86, 110
25, 47854, Note_on_c, 14, 86, 0
25, 47856, Note_on_c, 14, 81, 110
25, 47902, Note_on_c, 14, 81, 0
25, 47904, Note_on_c, 14, 77, 110
25, 47950, Note_on_c, 14, 77, 0
25, 47952, Note_on_c, 14, 81, 110
25, 47998, Note_on_c, 14, 81, 0
25, 48000, Note_on_c, 14, 86, 110
25, 48046, Note_on_c, 14, 86, 0
25, 48048, Note_on_c, 14, 84, 110
25, 48094, Note_on_c, 14, 84, 0
25, 48096, Note_on_c, 14, 86, 110
25, 48142, Note_on_c, 14, 86, 0
25, 48144, Note_on_c, 14, 84, 110
25, 48190, Note_on_c, 14, 84, 0
25, 48192, Note_on_c, 14, 86, 110
25, 48238, Note_on_c, 14, 86, 0
25, 48240, Note_on_c, 14, 81, 110
25, 48286, Note_on_c, 14, 81, 0
25, 48288, Note_on_c, 14, 77, 110
25, 48334, Note_on_c, 14, 77, 0
25, 48336, Note_on_c, 14, 81, 110
25, 48382, Note_on_c, 14, 81, 0
25, 48384, Note_on_c, 14, 84, 110
25, 48430, Note_on_c, 14, 84, 0
25, 48432, Note_on_c, 14, 83, 110
25, 48478, Note_on_c, 14, 83, 0
25, 48480, Note_on_c, 14, 84, 110
25, 48526, Note_on_c, 14, 84, 0
25, 48528, Note_on_c, 14, 83, 110
25, 48574, Note_on_c, 14, 83, 0
25, 48576, Note_on_c, 14, 84, 110
25, 48622, Note_on_c, 14, 84, 0
25, 48624, Note_on_c, 14, 79, 110
25, 48670, Note_on_c, 14, 79, 0
25, 48672, Note_on_c, 14, 76, 110
25, 48718, Note_on_c, 14, 76, 0
25, 48720, Note_on_c, 14, 79, 110
25, 48766, Note_on_c, 14, 79, 0
25, 48768, Note_on_c, 14, 84, 110
25, 48814, Note_on_c, 14, 84, 0
25, 48816, Note_on_c, 14, 83, 110
25, 48862, Note_on_c, 14, 83, 0
25, 48864, Note_on_c, 14, 84, 110
25, 48910, Note_on_c, 14, 84, 0
25, 48912, Note_on_c, 14, 83, 110
25, 48958, Note_on_c, 14, 83, 0
25, 48960, Note_on_c, 14, 84, 110
25, 49006, Note_on_c, 14, 84, 0
25, 49008, Note_on_c, 14, 79, 110
25, 49054, Note_on_c, 14, 79, 0
25, 49056, Note_on_c, 14, 76, 110
25, 49102, Note_on_c, 14, 76, 0
25, 49104, Note_on_c, 14, 79, 110
25, 49150, Note_on_c, 14, 79, 0
25, 49152, Note_on_c, 14, 84, 110
25, 49198, Note_on_c, 14, 84, 0
25, 49200, Note_on_c, 14, 83, 110
25, 49246, Note_on_c, 14, 83, 0
25, 49248, Note_on_c, 14, 84, 110
25, 49294, Note_on_c, 14, 84, 0
25, 49296, Note_on_c, 14, 83, 110
25, 49342, Note_on_c, 14, 83, 0
25, 49344, Note_on_c, 14, 84, 110
25, 49390, Note_on_c, 14, 84, 0
25, 49392, Note_on_c, 14, 79, 110
25, 49438, Note_on_c, 14, 79, 0
25, 49440, Note_on_c, 14, 76, 110
25, 49486, Note_on_c, 14, 76, 0
25, 49488, Note_on_c, 14, 79, 110
25, 49534, Note_on_c, 14, 79, 0
25, 49536, Note_on_c, 14, 84, 110
25, 49582, Note_on_c, 14, 84, 0
25, 49584, Note_on_c, 14, 83, 110
25, 49630, Note_on_c, 14, 83, 0
25, 49632, Note_on_c, 14, 84, 110
25, 49678, Note_on_c, 14, 84, 0
25, 49680, Note_on_c, 14, 83, 110
25, 49726, Note_on_c, 14, 83, 0
25, 49728, Note_on_c, 14, 84, 110
25, 49774, Note_on_c, 14, 84, 0
25, 49776, Note_on_c, 14, 79, 110
25, 49822, Note_on_c, 14, 79, 0
25, 49824, Note_on_c, 14, 76, 110
25, 49870, Note_on_c, 14, 76, 0
25, 49872, Note_on_c, 14, 79, 110
25, 49918, Note_on_c, 14, 79, 0
25, 49920, Note_on_c, 14, 89, 110
25, 49966, Note_on_c, 14, 89, 0
25, 49968, Note_on_c, 14, 88, 110
25, 50014, Note_on_c, 14, 88, 0
25, 50016, Note_on_c, 14, 89, 110
25, 50062, Note_on_c, 14, 89, 0
25, 50064, Note_on_c, 14, 88, 110
25, 50110, Note_on_c, 14, 88, 0
25, 50112, Note_on_c, 14, 89, 110
25, 50158, Note_on_c, 14, 89, 0
25, 50160, Note_on_c, 14, 84, 110
25, 50206, Note_on_c, 14, 84, 0
25, 50208, Note_on_c, 14, 81, 110
25, 50254, Note_on_c, 14, 81, 0
25, 50256, Note_on_c, 14, 84, 110
25, 50302, Note_on_c, 14, 84, 0
25, 50304, Note_on_c, 14, 89, 110
25, 50350, Note_on_c, 14, 89, 0
25, 50352, Note_on_c, 14, 88, 110
25, 50398, Note_on_c, 14, 88, 0
25, 50400, Note_on_c, 14, 89, 110
25, 50446, Note_on_c, 14, 89, 0
25, 50448, Note_on_c, 14, 88, 110
25, 50494, Note_on_c, 14, 88, 0
25, 50496, Note_on_c, 14, 89, 110
25, 50542, Note_on_c, 14, 89, 0
25, 50544, Note_on_c, 14, 84, 110
25, 50590, Note_on_c, 14, 84, 0
25, 50592, Note_on_c, 14, 81, 110
25, 50638, Note_on_c, 14, 81, 0
25, 50640, Note_on_c, 14, 84, 110
25, 50686, Note_on_c, 14, 84, 0
25, 50688, Note_on_c, 14, 89, 110
25, 50734, Note_on_c, 14, 89, 0
25, 50736, Note_on_c, 14, 88, 110
25, 50782, Note_on_c, 14, 88, 0
25, 50784, Note_on_c, 14, 89, 110
25, 50830, Note_on_c, 14, 89, 0
25, 50832, Note_on_c, 14, 88, 110
25, 50878, Note_on_c, 14, 88, 0
25, 50880, Note_on_c, 14, 89, 110
25, 50926, Note_on_c, 14, 89, 0
25, 50928, Note_on_c, 14, 84, 110
25, 50974, Note_on_c, 14, 84, 0
25, 50976, Note_on_c, 14, 81, 110
25, 51022, Note_on_c, 14, 81, 0
25, 51024, Note_on_c, 14, 84, 110
25, 51070, Note_on_c, 14, 84, 0
25, 51072, Note_on_c, 14, 89, 110
25, 51118, Note_on_c, 14, 89, 0
25, 51120, Note_on_c, 14, 88, 110
25, 51166, Note_on_c, 14, 88, 0
25, 51168, Note_on_c, 14, 89, 110
25, 51214, Note_on_c, 14, 89, 0
25, 51216, Note_on_c, 14, 88, 110
25, 51262, Note_on_c, 14, 88, 0
25, 51264, Note_on_c, 14, 89, 110
25, 51310, Note_on_c, 14, 89, 0
25, 51312, Note_on_c, 14, 84, 110
25, 51358, Note_on_c, 14, 84, 0
25, 51360, Note_on_c, 14, 81, 110
25, 51406, Note_on_c, 14, 81, 0
25, 51408, Note_on_c, 14, 84, 110
25, 51454, Note_on_c, 14, 84, 0
25, 51456, Note_on_c, 14, 91, 110
25, 51502, Note_on_c, 14, 91, 0
25, 51504, Note_on_c, 14, 90, 110
25, 51550, Note_on_c, 14, 90, 0
25, 51552, Note_on_c, 14, 91, 110
25, 51598, Note_on_c, 14, 91, 0
25, 51600, Note_on_c, 14, 90, 110
25, 51646, Note_on_c, 14, 90, 0
25, 51648, Note_on_c, 14, 91, 110
25, 51694, Note_on_c, 14, 91, 0
25, 51696, Note_on_c, 14, 86, 110
25, 51742, Note_on_c, 14, 86, 0
25, 51744, Note_on_c, 14, 83, 110
25, 51790, Note_on_c, 14, 83, 0
25, 51792, Note_on_c, 14, 86, 110
25, 51838, Note_on_c, 14, 86, 0
25, 51840, Note_on_c, 14, 91, 110
25, 51886, Note_on_c, 14, 91, 0
25, 51888, Note_on_c, 14, 90, 110
25, 51934, Note_on_c, 14, 90, 0
25, 51936, Note_on_c, 14, 91, 110
25, 51982, Note_on_c, 14, 91, 0
25, 51984, Note_on_c, 14, 90, 110
25, 52030, Note_on_c, 14, 90, 0
25, 52032, Note_on_c, 14, 91, 110
25, 52078, Note_on_c, 14, 91, 0
25, 52080, Note_on_c, 14, 86, 110
25, 52126, Note_on_c, 14, 86, 0
25, 52128, Note_on_c, 14, 83, 110
25, 52174, Note_on_c, 14, 83, 0
25, 52176, Note_on_c, 14, 86, 110
25, 52222, Note_on_c, 14, 86, 0
25, 52224, Note_on_c, 14, 79, 110
25, 52270, Note_on_c, 14, 79, 0
25, 52272, Note_on_c, 14, 81, 110
25, 52318, Note_on_c, 14, 81, 0
25, 52320, Note_on_c, 14, 83, 110
25, 52366, Note_on_c, 14, 83, 0
25, 52368, Note_on_c, 14, 84, 110
25, 52414, Note_on_c, 14, 84, 0
25, 52416, Note_on_c, 14, 79, 110
25, 52462, Note_on_c, 14, 79, 0
25, 52464, Note_on_c, 14, 81, 110
25, 52510, Note_on_c, 14, 81, 0
25, 52512, Note_on_c, 14, 83, 110
25, 52558, Note_on_c, 14, 83, 0
25, 52560, Note_on_c, 14, 84, 110
25, 52606, Note_on_c, 14, 84, 0
25, 52608, Note_on_c, 14, 86, 110
25, 52768, Note_on_c, 14, 86, 0
25, 79104, Note_on_c, 14, 86, 110
25, 79150, Note_on_c, 14, 86, 0
25, 79152, Note_on_c, 14, 85, 110
25, 79198, Note_on_c, 14, 85, 0
25, 79200, Note_on_c, 14, 86, 110
25, 79246, Note_on_c, 14, 86, 0
25, 79248, Note_on_c, 14, 85, 110
25, 79294, Note_on_c, 14, 85, 0
25, 79296, Note_on_c, 14, 86, 110
25, 79342, Note_on_c, 14, 86, 0
25, 79344, Note_on_c, 14, 81, 110
25, 79390, Note_on_c, 14, 81, 0
25, 79392, Note_on_c, 14, 78, 110
25, 79438, Note_on_c, 14, 78, 0
25, 79440, Note_on_c, 14, 81, 110
25, 79486, Note_on_c, 14, 81, 0
25, 79488, Note_on_c, 14, 86, 110
25, 79534, Note_on_c, 14, 86, 0
25, 79536, Note_on_c, 14, 85, 110
25, 79582, Note_on_c, 14, 85, 0
25, 79584, Note_on_c, 14, 86, 110
25, 79630, Note_on_c, 14, 86, 0
25, 79632, Note_on_c, 14, 85, 110
25, 79678, Note_on_c, 14, 85, 0
25, 79680, Note_on_c, 14, 86, 110
25, 79726, Note_on_c, 14, 86, 0
25, 79728, Note_on_c, 14, 81, 110
25, 79774, Note_on_c, 14, 81, 0
25, 79776, Note_on_c, 14, 78, 110
25, 79822, Note_on_c, 14, 78, 0
25, 79824, Note_on_c, 14, 81, 110
25, 79870, Note_on_c, 14, 81, 0
25, 79872, Note_on_c, 14, 86, 110
25, 79918, Note_on_c, 14, 86, 0
25, 79920, Note_on_c, 14, 85, 110
25, 79966, Note_on_c, 14, 85, 0
25, 79968, Note_on_c, 14, 86, 110
25, 80014, Note_on_c, 14, 86, 0
25, 80016, Note_on_c, 14, 85, 110
25, 80062, Note_on_c, 14, 85, 0
25, 80064, Note_on_c, 14, 86, 110
25, 80110, Note_on_c, 14, 86, 0
25, 80112, Note_on_c, 14, 81, 110
25, 80158, Note_on_c, 14, 81, 0
25, 80160, Note_on_c, 14, 78, 110
25, 80206, Note_on_c, 14, 78, 0
25, 80208, Note_on_c, 14, 81, 110
25, 80254, Note_on_c, 14, 81, 0
25, 80256, Note_on_c, 14, 86, 110
25, 80302, Note_on_c, 14, 86, 0
25, 80304, Note_on_c, 14, 85, 110
25, 80350, Note_on_c, 14, 85, 0
25, 80352, Note_on_c, 14, 86, 110
25, 80398, Note_on_c, 14, 86, 0
25, 80400, Note_on_c, 14, 85, 110
25, 80446, Note_on_c, 14, 85, 0
25, 80448, Note_on_c, 14, 86, 110
25, 80494, Note_on_c, 14, 86, 0
25, 80496, Note_on_c, 14, 81, 110
25, 80542, Note_on_c, 14, 81, 0
25, 80544, Note_on_c, 14, 78, 110
25, 80590, Note_on_c, 14, 78, 0
25, 80592, Note_on_c, 14, 81, 110
25, 80638, Note_on_c, 14, 81, 0
25, 80640, Note_on_c, 14, 86, 110
25, 80686, Note_on_c, 14, 86, 0
25, 80688, Note_on_c, 14, 85, 110
25, 80734, Note_on_c, 14, 85, 0
25, 80736, Note_on_c, 14, 86, 110
25, 80782, Note_on_c, 14, 86, 0
25, 80784, Note_on_c, 14, 85, 110
25, 80830, Note_on_c, 14, 85, 0
25, 80832, Note_on_c, 14, 86, 110
25, 80878, Note_on_c, 14, 86, 0
25, 80880, Note_on_c, 14, 81, 110
25, 80926, Note_on_c, 14, 81, 0
25, 80928, Note_on_c, 14, 78, 110
25, 80974, Note_on_c, 14, 78, 0
25, 80976, Note_on_c, 14, 81, 110
25, 81022, Note_on_c, 14, 81, 0
25, 81024, Note_on_c, 14, 86, 110
25, 81070, Note_on_c, 14, 86, 0
25, 81072, Note_on_c, 14, 85, 110
25, 81118, Note_on_c, 14, 85, 0
25, 81120, Note_on_c, 14, 86, 110
25, 81166, Note_on_c, 14, 86, 0
25, 81168, Note_on_c, 14, 85, 110
25, 81214, Note_on_c, 14, 85, 0
25, 81216, Note_on_c, 14, 86, 110
25, 81262, Note_on_c, 14, 86, 0
25, 81264, Note_on_c, 14, 81, 110
25, 81310, Note_on_c, 14, 81, 0
25, 81312, Note_on_c, 14, 78, 110
25, 81358, Note_on_c, 14, 78, 0
25, 81360, Note_on_c, 14, 81, 110
25, 81406, Note_on_c, 14, 81, 0
25, 81408, Note_on_c, 14, 86, 110
25, 81454, Note_on_c, 14, 86, 0
25, 81456, Note_on_c, 14, 85, 110
25, 81502, Note_on_c, 14, 85, 0
25, 81504, Note_on_c, 14, 86, 110
25, 81550, Note_on_c, 14, 86, 0
25, 81552, Note_on_c, 14, 85, 110
25, 81598, Note_on_c, 14, 85, 0
25, 81600, Note_on_c, 14, 86, 110
25, 81646, Note_on_c, 14, 86, 0
25, 81648, Note_on_c, 14, 81, 110
25, 81694, Note_on_c, 14, 81, 0
25, 81696, Note_on_c, 14, 78, 110
25, 81742, Note_on_c, 14, 78, 0
25, 81744, Note_on_c, 14, 81, 110
25, 81790, Note_on_c, 14, 81, 0
25, 81792, Note_on_c, 14, 86, 110
25, 81838, Note_on_c, 14, 86, 0
25, 81840, Note_on_c, 14, 85, 110
25, 81886, Note_on_c, 14, 85, 0
25, 81888, Note_on_c, 14, 86, 110
25, 81934, Note_on_c, 14, 86, 0
25, 81936, Note_on_c, 14, 85, 110
25, 81982, Note_on_c, 14, 85, 0
25, 81984, Note_on_c, 14, 86, 110
25, 82030, Note_on_c, 14, 86, 0
25, 82032, Note_on_c, 14, 81, 110
25, 82078, Note_on_c, 14, 81, 0
25, 82080, Note_on_c, 14, 78, 110
25, 82126, Note_on_c, 14, 78, 0
25, 82128, Note_on_c, 14, 81, 110
25, 82174, Note_on_c, 14, 81, 0
25, 82176, Note_on_c, 14, 91, 110
25, 82222, Note_on_c, 14, 91, 0
25, 82224, Note_on_c, 14, 90, 110
25, 82270, Note_on_c, 14, 90, 0
25, 82272, Note_on_c, 14, 91, 110
25, 82318, Note_on_c, 14, 91, 0
25, 82320, Note_on_c, 14, 90, 110
25, 82366, Note_on_c, 14, 90, 0
25, 82368, Note_on_c, 14, 91, 110
25, 82414, Note_on_c, 14, 91, 0
25, 82416, Note_on_c, 14, 86, 110
25, 82462, Note_on_c, 14, 86, 0
25, 82464, Note_on_c, 14, 83, 110
25, 82510, Note_on_c, 14, 83, 0
25, 82512, Note_on_c, 14, 86, 110
25, 82558, Note_on_c, 14, 86, 0
25, 82560, Note_on_c, 14, 91, 110
25, 82606, Note_on_c, 14, 91, 0
25, 82608, Note_on_c, 14, 90, 110
25, 82654, Note_on_c, 14, 90, 0
25, 82656, Note_on_c, 14, 91, 110
25, 82702, Note_on_c, 14, 91, 0
25, 82704, Note_on_c, 14, 90, 110
25, 82750, Note_on_c, 14, 90, 0
25, 82752, Note_on_c, 14, 91, 110
25, 82798, Note_on_c, 14, 91, 0
25, 82800, Note_on_c, 14, 86, 110
25, 82846, Note_on_c, 14, 86, 0
25, 82848, Note_on_c, 14, 83, 110
25, 82894, Note_on_c, 14, 83, 0
25, 82896, Note_on_c, 14, 86, 110
25, 82942, Note_on_c, 14, 86, 0
25, 82944, Note_on_c, 14, 91, 110
25, 82990, Note_on_c, 14, 91, 0
25, 82992, Note_on_c, 14, 90, 110
25, 83038, Note_on_c, 14, 90, 0
25, 83040, Note_on_c, 14, 91, 110
25, 83086, Note_on_c, 14, 91, 0
25, 83088, Note_on_c, 14, 90, 110
25, 83134, Note_on_c, 14, 90, 0
25, 83136, Note_on_c, 14, 91, 110
25, 83182, Note_on_c, 14, 91, 0
25, 83184, Note_on_c, 14, 86, 110
25, 83230, Note_on_c, 14, 86, 0
25, 83232, Note_on_c, 14, 83, 110
25, 83278, Note_on_c, 14, 83, 0
25, 83280, Note_on_c, 14, 86, 110
25, 83326, Note_on_c, 14, 86, 0
25, 83328, Note_on_c, 14, 91, 110
25, 83374, Note_on_c, 14, 91, 0
25, 83376, Note_on_c, 14, 90, 110
25, 83422, Note_on_c, 14, 90, 0
25, 83424, Note_on_c, 14, 91, 110
25, 83470, Note_on_c, 14, 91, 0
25, 83472, Note_on_c, 14, 90, 110
25, 83518, Note_on_c, 14, 90, 0
25, 83520, Note_on_c, 14, 91, 110
25, 83566, Note_on_c, 14, 91, 0
25, 83568, Note_on_c, 14, 86, 110
25, 83614, Note_on_c, 14, 86, 0
25, 83616, Note_on_c, 14, 83, 110
25, 83662, Note_on_c, 14, 83, 0
25, 83664, Note_on_c, 14, 86, 110
25, 83710, Note_on_c, 14, 86, 0
25, 83712, Note_on_c, 14, 93, 110
25, 83758, Note_on_c, 14, 93, 0
25, 83760, Note_on_c, 14, 92, 110
25, 83806, Note_on_c, 14, 92, 0
25, 83808, Note_on_c, 14, 93, 110
25, 83854, Note_on_c, 14, 93, 0
25, 83856, Note_on_c, 14, 92, 110
25, 83902, Note_on_c, 14, 92, 0
25, 83904, Note_on_c, 14, 93, 110
25, 83950, Note_on_c, 14, 93, 0
25, 83952, Note_on_c, 14, 88, 110
25, 83998, Note_on_c, 14, 88, 0
25, 84000, Note_on_c, 14, 85, 110
25, 84046, Note_on_c, 14, 85, 0
25, 84048, Note_on_c, 14, 88, 110
25, 84094, Note_on_c, 14, 88, 0
25, 84096, Note_on_c, 14, 93, 110
25, 84142, Note_on_c, 14, 93, 0
25, 84144, Note_on_c, 14, 92, 110
25, 84190, Note_on_c, 14, 92, 0
25, 84192, Note_on_c, 14, 93, 110
25, 84238, Note_on_c, 14, 93, 0
25, 84240, Note_on_c, 14, 92, 110
25, 84286, Note_on_c, 14, 92, 0
25, 84288, Note_on_c, 14, 93, 110
25, 84334, Note_on_c, 14, 93, 0
25, 84336, Note_on_c, 14, 88, 110
25, 84382, Note_on_c, 14, 88, 0
25, 84384, Note_on_c, 14, 85, 110
25, 84430, Note_on_c, 14, 85, 0
25, 84432, Note_on_c, 14, 88, 110
25, 84478, Note_on_c, 14, 88, 0
25, 84480, Note_on_c, 14, 93, 110
25, 84526, Note_on_c, 14, 93, 0
25, 84528, Note_on_c, 14, 92, 110
25, 84574, Note_on_c, 14, 92, 0
25, 84576, Note_on_c, 14, 93, 110
25, 84622, Note_on_c, 14, 93, 0
25, 84624, Note_on_c, 14, 92, 110
25, 84670, Note_on_c, 14, 92, 0
25, 84672, Note_on_c, 14, 93, 110
25, 84718, Note_on_c, 14, 93, 0
25, 84720, Note_on_c, 14, 88, 110
25, 84766, Note_on_c, 14, 88, 0
25, 84768, Note_on_c, 14, 85, 110
25, 84814, Note_on_c, 14, 85, 0
25, 84816, Note_on_c, 14, 88, 110
25, 84862, Note_on_c, 14, 88, 0
25, 84864, Note_on_c, 14, 81, 110
25, 84910, Note_on_c, 14, 81, 0
25, 84912, Note_on_c, 14, 83, 110
25, 84958, Note_on_c, 14, 83, 0
25, 84960, Note_on_c, 14, 85, 110
25, 85006, Note_on_c, 14, 85, 0
25, 85008, Note_on_c, 14, 86, 110
25, 85054, Note_on_c, 14, 86, 0
25, 85056, Note_on_c, 14, 83, 110
25, 85102, Note_on_c, 14, 83, 0
25, 85104, Note_on_c, 14, 85, 110
25, 85150, Note_on_c, 14, 85, 0
25, 85152, Note_on_c, 14, 86, 110
25, 85198, Note_on_c, 14, 86, 0
25, 85200, Note_on_c, 14, 88, 110
25, 85246, Note_on_c, 14, 88, 0
25, 85248, Note_on_c, 14, 86, 110
25, 85294, Note_on_c, 14, 86, 0
25, 85296, Note_on_c, 14, 85, 110
25, 85342, Note_on_c, 14, 85, 0
25, 85344, Note_on_c, 14, 86, 110
25, 85390, Note_on_c, 14, 86, 0
25, 85392, Note_on_c, 14, 85, 110
25, 85438, Note_on_c, 14, 85, 0
25, 85440, Note_on_c, 14, 86, 110
25, 85486, Note_on_c, 14, 86, 0
25, 85488, Note_on_c, 14, 81, 110
25, 85488, Note_on_c, 14, 85, 110
25, 85534, Note_on_c, 14, 81, 0
25, 85534, Note_on_c, 14, 85, 0
25, 85536, Note_on_c, 14, 78, 110
25, 85582, Note_on_c, 14, 78, 0
25, 85584, Note_on_c, 14, 81, 110
25, 85630, Note_on_c, 14, 81, 0
25, 85632, Note_on_c, 14, 86, 110
25, 85678, Note_on_c, 14, 86, 0
25, 85680, Note_on_c, 14, 85, 110
25, 85726, Note_on_c, 14, 85, 0
25, 85728, Note_on_c, 14, 86, 110
25, 85774, Note_on_c, 14, 86, 0
25, 85776, Note_on_c, 14, 85, 110
25, 85822, Note_on_c, 14, 85, 0
25, 85824, Note_on_c, 14, 86, 110
25, 85870, Note_on_c, 14, 86, 0
25, 85872, Note_on_c, 14, 81, 110
25, 85918, Note_on_c, 14, 81, 0
25, 85920, Note_on_c, 14, 78, 110
25, 85966, Note_on_c, 14, 78, 0
25, 85968, Note_on_c, 14, 81, 110
25, 86014, Note_on_c, 14, 81, 0
25, 86016, Note_on_c, 14, 88, 110
25, 86062, Note_on_c, 14, 88, 0
25, 86064, Note_on_c, 14, 86, 110
25, 86110, Note_on_c, 14, 86, 0
25, 86112, Note_on_c, 14, 88, 110
25, 86158, Note_on_c, 14, 88, 0
25, 86160, Note_on_c, 14, 86, 110
25, 86206, Note_on_c, 14, 86, 0
25, 86208, Note_on_c, 14, 88, 110
25, 86254, Note_on_c, 14, 88, 0
25, 86256, Note_on_c, 14, 83, 110
25, 86302, Note_on_c, 14, 83, 0
25, 86304, Note_on_c, 14, 79, 110
25, 86350, Note_on_c, 14, 79, 0
25, 86352, Note_on_c, 14, 83, 110
25, 86398, Note_on_c, 14, 83, 0
25, 86400, Note_on_c, 14, 88, 110
25, 86446, Note_on_c, 14, 88, 0
25, 86448, Note_on_c, 14, 86, 110
25, 86494, Note_on_c, 14, 86, 0
25, 86496, Note_on_c, 14, 88, 110
25, 86542, Note_on_c, 14, 88, 0
25, 86544, Note_on_c, 14, 86, 110
25, 86590, Note_on_c, 14, 86, 0
25, 86592, Note_on_c, 14, 88, 110
25, 86638, Note_on_c, 14, 88, 0
25, 86640, Note_on_c, 14, 83, 110
25, 86686, Note_on_c, 14, 83, 0
25, 86688, Note_on_c, 14, 79, 110
25, 86734, Note_on_c, 14, 79, 0
25, 86736, Note_on_c, 14, 83, 110
25, 86782, Note_on_c, 14, 83, 0
25, 86784, Note_on_c, 14, 86, 110
25, 86830, Note_on_c, 14, 86, 0
25, 86832, Note_on_c, 14, 85, 110
25, 86878, Note_on_c, 14, 85, 0
25, 86880, Note_on_c, 14, 86, 110
25, 86926, Note_on_c, 14, 86, 0
25, 86928, Note_on_c, 14, 85, 110
25, 86974, Note_on_c, 14, 85, 0
25, 86976, Note_on_c, 14, 86, 110
25, 87022, Note_on_c, 14, 86, 0
25, 87024, Note_on_c, 14, 81, 110
25, 87070, Note_on_c, 14, 81, 0
25, 87072, Note_on_c, 14, 78, 110
25, 87118, Note_on_c, 14, 78, 0
25, 87120, Note_on_c, 14, 81, 110
25, 87166, Note_on_c, 14, 81, 0
25, 87168, Note_on_c, 14, 86, 110
25, 87214, Note_on_c, 14, 86, 0
25, 87216, Note_on_c, 14, 85, 110
25, 87262, Note_on_c, 14, 85, 0
25, 87264, Note_on_c, 14, 86, 110
25, 87310, Note_on_c, 14, 86, 0
25, 87312, Note_on_c, 14, 85, 110
25, 87358, Note_on_c, 14, 85, 0
25, 87360, Note_on_c, 14, 86, 110
25, 87406, Note_on_c, 14, 86, 0
25, 87408, Note_on_c, 14, 81, 110
25, 87454, Note_on_c, 14, 81, 0
25, 87456, Note_on_c, 14, 78, 110
25, 87502, Note_on_c, 14, 78, 0
25, 87504, Note_on_c, 14, 81, 110
25, 87550, Note_on_c, 14, 81, 0
25, 87552, Note_on_c, 14, 86, 110
25, 87598, Note_on_c, 14, 86, 0
25, 87600, Note_on_c, 14, 85, 110
25, 87646, Note_on_c, 14, 85, 0
25, 87648, Note_on_c, 14, 86, 110
25, 87694, Note_on_c, 14, 86, 0
25, 87696, Note_on_c, 14, 85, 110
25, 87742, Note_on_c, 14, 85, 0
25, 87744, Note_on_c, 14, 86, 110
25, 87790, Note_on_c, 14, 86, 0
25, 87792, Note_on_c, 14, 81, 110
25, 87838, Note_on_c, 14, 81, 0
25, 87840, Note_on_c, 14, 78, 110
25, 87886, Note_on_c, 14, 78, 0
25, 87888, Note_on_c, 14, 81, 110
25, 87934, Note_on_c, 14, 81, 0
25, 87936, Note_on_c, 14, 86, 110
25, 87982, Note_on_c, 14, 86, 0
25, 87984, Note_on_c, 14, 85, 110
25, 88030, Note_on_c, 14, 85, 0
25, 88032, Note_on_c, 14, 86, 110
25, 88078, Note_on_c, 14, 86, 0
25, 88080, Note_on_c, 14, 85, 110
25, 88126, Note_on_c, 14, 85, 0
25, 88128, Note_on_c, 14, 86, 110
25, 88174, Note_on_c, 14, 86, 0
25, 88176, Note_on_c, 14, 81, 110
25, 88222, Note_on_c, 14, 81, 0
25, 88224, Note_on_c, 14, 78, 110
25, 88270, Note_on_c, 14, 78, 0
25, 88272, Note_on_c, 14, 81, 110
25, 88318, Note_on_c, 14, 81, 0
25, 88320, Note_on_c, 14, 91, 110
25, 88366, Note_on_c, 14, 91, 0
25, 88368, Note_on_c, 14, 90, 110
25, 88414, Note_on_c, 14, 90, 0
25, 88416, Note_on_c, 14, 91, 110
25, 88462, Note_on_c, 14, 91, 0
25, 88464, Note_on_c, 14, 90, 110
25, 88510, Note_on_c, 14, 90, 0
25, 88512, Note_on_c, 14, 91, 110
25, 88558, Note_on_c, 14, 91, 0
25, 88560, Note_on_c, 14, 86, 110
25, 88606, Note_on_c, 14, 86, 0
25, 88608, Note_on_c, 14, 83, 110
25, 88654, Note_on_c, 14, 83, 0
25, 88656, Note_on_c, 14, 86, 110
25, 88702, Note_on_c, 14, 86, 0
25, 88704, Note_on_c, 14, 91, 110
25, 88750, Note_on_c, 14, 91, 0
25, 88752, Note_on_c, 14, 90, 110
25, 88798, Note_on_c, 14, 90, 0
25, 88800, Note_on_c, 14, 91, 110
25, 88846, Note_on_c, 14, 91, 0
25, 88848, Note_on_c, 14, 90, 110
25, 88894, Note_on_c, 14, 90, 0
25, 88896, Note_on_c, 14, 91, 110
25, 88942, Note_on_c, 14, 91, 0
25, 88944, Note_on_c, 14, 86, 110
25, 88990, Note_on_c, 14, 86, 0
25, 88992, Note_on_c, 14, 83, 110
25, 89038, Note_on_c, 14, 83, 0
25, 89040, Note_on_c, 14, 86, 110
25, 89086, Note_on_c, 14, 86, 0
25, 89088, Note_on_c, 14, 91, 110
25, 89134, Note_on_c, 14, 91, 0
25, 89136, Note_on_c, 14, 90, 110
25, 89182, Note_on_c, 14, 90, 0
25, 89184, Note_on_c, 14, 91, 110
25, 89230, Note_on_c, 14, 91, 0
25, 89232, Note_on_c, 14, 90, 110
25, 89278, Note_on_c, 14, 90, 0
25, 89280, Note_on_c, 14, 91, 110
25, 89326, Note_on_c, 14, 91, 0
25, 89328, Note_on_c, 14, 86, 110
25, 89374, Note_on_c, 14, 86, 0
25, 89376, Note_on_c, 14, 83, 110
25, 89422, Note_on_c, 14, 83, 0
25, 89424, Note_on_c, 14, 86, 110
25, 89470, Note_on_c, 14, 86, 0
25, 89472, Note_on_c, 14, 91, 110
25, 89518, Note_on_c, 14, 91, 0
25, 89520, Note_on_c, 14, 90, 110
25, 89566, Note_on_c, 14, 90, 0
25, 89568, Note_on_c, 14, 91, 110
25, 89614, Note_on_c, 14, 91, 0
25, 89616, Note_on_c, 14, 90, 110
25, 89662, Note_on_c, 14, 90, 0
25, 89664, Note_on_c, 14, 91, 110
25, 89710, Note_on_c, 14, 91, 0
25, 89712, Note_on_c, 14, 86, 110
25, 89758, Note_on_c, 14, 86, 0
25, 89760, Note_on_c, 14, 83, 110
25, 89806, Note_on_c, 14, 83, 0
25, 89808, Note_on_c, 14, 86, 110
25, 89854, Note_on_c, 14, 86, 0
25, 89856, Note_on_c, 14, 93, 110
25, 89902, Note_on_c, 14, 93, 0
25, 89904, Note_on_c, 14, 92, 110
25, 89950, Note_on_c, 14, 92, 0
25, 89952, Note_on_c, 14, 93, 110
25, 89998, Note_on_c, 14, 93, 0
25, 90000, Note_on_c, 14, 92, 110
25, 90046, Note_on_c, 14, 92, 0
25, 90048, Note_on_c, 14, 93, 110
25, 90094, Note_on_c, 14, 93, 0
25, 90096, Note_on_c, 14, 88, 110
25, 90142, Note_on_c, 14, 88, 0
25, 90144, Note_on_c, 14, 85, 110
25, 90190, Note_on_c, 14, 85, 0
25, 90192, Note_on_c, 14, 88, 110
25, 90238, Note_on_c, 14, 88, 0
25, 90240, Note_on_c, 14, 93, 110
25, 90286, Note_on_c, 14, 93, 0
25, 90288, Note_on_c, 14, 92, 110
25, 90334, Note_on_c, 14, 92, 0
25, 90336, Note_on_c, 14, 93, 110
25, 90382, Note_on_c, 14, 93, 0
25, 90384, Note_on_c, 14, 92, 110
25, 90430, Note_on_c, 14, 92, 0
25, 90432, Note_on_c, 14, 93, 110
25, 90478, Note_on_c, 14, 93, 0
25, 90480, Note_on_c, 14, 88, 110
25, 90526, Note_on_c, 14, 88, 0
25, 90528, Note_on_c, 14, 85, 110
25, 90574, Note_on_c, 14, 85, 0
25, 90576, Note_on_c, 14, 88, 110
25, 90622, Note_on_c, 14, 88, 0
25, 90624, Note_on_c, 14, 81, 110
25, 90670, Note_on_c, 14, 81, 0
25, 90672, Note_on_c, 14, 83, 110
25, 90718, Note_on_c, 14, 83, 0
25, 90720, Note_on_c, 14, 85, 110
25, 90766, Note_on_c, 14, 85, 0
25, 90768, Note_on_c, 14, 86, 110
25, 90814, Note_on_c, 14, 86, 0
25, 90816, Note_on_c, 14, 81, 110
25, 90862, Note_on_c, 14, 81, 0
25, 90864, Note_on_c, 14, 83, 110
25, 90910, Note_on_c, 14, 83, 0
25, 90912, Note_on_c, 14, 85, 110
25, 90958, Note_on_c, 14, 85, 0
25, 90960, Note_on_c, 14, 86, 110
25, 91006, Note_on_c, 14, 86, 0
25, 91008, Note_on_c, 14, 88, 110
25, 91168, Note_on_c, 14, 88, 0
25, 91392, Note_on_c, 14, 62, 110
25, 91450, Note_on_c, 14, 62, 0
25, 91452, Note_on_c, 14, 57, 110
25, 91522, Note_on_c, 14, 57, 0
25, 91524, Note_on_c, 14, 62, 110
25, 91582, Note_on_c, 14, 62, 0
25, 91584, Note_on_c, 14, 64, 110
25, 91642, Note_on_c, 14, 64, 0
25, 91644, Note_on_c, 14, 62, 110
25, 91714, Note_on_c, 14, 62, 0
25, 91716, Note_on_c, 14, 64, 110
25, 91774, Note_on_c, 14, 64, 0
25, 91776, Note_on_c, 14, 69, 110
25, 91936, Note_on_c, 14, 69, 0
25, 91968, Note_on_c, 14, 67, 110
25, 92128, Note_on_c, 14, 67, 0
25, 92160, Note_on_c, 14, 66, 110
25, 92218, Note_on_c, 14, 66, 0
25, 92220, Note_on_c, 14, 64, 110
25, 92290, Note_on_c, 14, 64, 0
25, 92292, Note_on_c, 14, 62, 110
25, 92350, Note_on_c, 14, 62, 0
25, 92352, Note_on_c, 14, 64, 110
25, 92482, Note_on_c, 14, 64, 0
25, 92484, Note_on_c, 14, 66, 110
25, 92542, Note_on_c, 14, 66, 0
25, 92544, Note_on_c, 14, 62, 110
25, 92880, Note_on_c, 14, 62, 0
25, 92928, Note_on_c, 14, 62, 110
25, 92986, Note_on_c, 14, 62, 0
25, 92988, Note_on_c, 14, 57, 110
25, 93058, Note_on_c, 14, 57, 0
25, 93060, Note_on_c, 14, 62, 110
25, 93118, Note_on_c, 14, 62, 0
25, 93120, Note_on_c, 14, 64, 110
25, 93178, Note_on_c, 14, 64, 0
25, 93180, Note_on_c, 14, 62, 110
25, 93250, Note_on_c, 14, 62, 0
25, 93252, Note_on_c, 14, 64, 110
25, 93310, Note_on_c, 14, 64, 0
25, 93312, Note_on_c, 14, 69, 110
25, 93472, Note_on_c, 14, 69, 0
25, 93504, Note_on_c, 14, 67, 110
25, 93664, Note_on_c, 14, 67, 0
25, 93696, Note_on_c, 14, 66, 110
25, 93754, Note_on_c, 14, 66, 0
25, 93756, Note_on_c, 14, 64, 110
25, 93826, Note_on_c, 14, 64, 0
25, 93828, Note_on_c, 14, 62, 110
25, 93886, Note_on_c, 14, 62, 0
25, 93888, Note_on_c, 14, 64, 110
25, 94018, Note_on_c, 14, 64, 0
25, 94020, Note_on_c, 14, 66, 110
25, 94078, Note_on_c, 14, 66, 0
25, 94080, Note_on_c, 14, 62, 110
25, 94416, Note_on_c, 14, 62, 0
25, 94464, Note_on_c, 14, 62, 110
25, 94522, Note_on_c, 14, 62, 0
25, 94524, Note_on_c, 14, 57, 110
25, 94594, Note_on_c, 14, 57, 0
25, 94596, Note_on_c, 14, 62, 110
25, 94654, Note_on_c, 14, 62, 0
25, 94656, Note_on_c, 14, 64, 110
25, 94714, Note_on_c, 14, 64, 0
25, 94716, Note_on_c, 14, 62, 110
25, 94786, Note_on_c, 14, 62, 0
25, 94788, Note_on_c, 14, 64, 110
25, 94846, Note_on_c, 14, 64, 0
25, 94848, Note_on_c, 14, 69, 110
25, 95008, Note_on_c, 14, 69, 0
25, 95040, Note_on_c, 14, 67, 110
25, 95200, Note_on_c, 14, 67, 0
25, 95232, Note_on_c, 14, 66, 110
25, 95290, Note_on_c, 14, 66, 0
25, 95292, Note_on_c, 14, 64, 110
25, 95362, Note_on_c, 14, 64, 0
25, 95364, Note_on_c, 14, 62, 110
25, 95422, Note_on_c, 14, 62, 0
25, 95424, Note_on_c, 14, 64, 110
25, 95578, Note_on_c, 14, 64, 0
25, 95580, Note_on_c, 14, 66, 110
25, 95952, Note_on_c, 14, 66, 0
25, 96000, Note_on_c, 14, 59, 110
25, 96000, Note_on_c, 14, 62, 110
25, 96000, Note_on_c, 14, 67, 110
25, 96720, Note_on_c, 14, 59, 0
25, 96720, Note_on_c, 14, 62, 0
25, 96720, Note_on_c, 14, 67, 0
25, 96768, Note_on_c, 14, 57, 110
25, 96768, Note_on_c, 14, 62, 110
25, 96768, Note_on_c, 14, 66, 110
25, 97104, Note_on_c, 14, 57, 0
25, 97104, Note_on_c, 14, 62, 0
25, 97104, Note_on_c, 14, 66, 0
25, 97152, Note_on_c, 14, 61, 110
25, 97152, Note_on_c, 14, 64, 110
25, 97488, Note_on_c, 14, 61, 0
25, 97488, Note_on_c, 14, 64, 0
25, 97536, Note_on_c, 14, 54, 110
25, 97536, Note_on_c, 14, 57, 110
25, 97536, Note_on_c, 14, 62, 110
25, 99232, Note_on_c, 14, 54, 0
25, 99232, Note_on_c, 14, 57, 0
25, 99232, Note_on_c, 14, 62, 0
25, 99232, End_track
26, 0, Start_track
26, 0, MIDI_port, 0
26, 0, Title_t, "BRASS2-2"
26, 0, Program_c, 15, 61
26, 0, Pitch_bend_c, 15, 8192
26, 0, Control_c, 15, 7, 127
26, 0, Control_c, 15, 10, 64
26, 768, Note_on_c, 15, 60, 110
26, 826, Note_on_c, 15, 60, 0
26, 828, Note_on_c, 15, 55, 110
26, 898, Note_on_c, 15, 55, 0
26, 900, Note_on_c, 15, 60, 110
26, 958, Note_on_c, 15, 60, 0
26, 960, Note_on_c, 15, 62, 110
26, 1018, Note_on_c, 15, 62, 0
26, 1020, Note_on_c, 15, 60, 110
26, 1090, Note_on_c, 15, 60, 0
26, 1092, Note_on_c, 15, 62, 110
26, 1150, Note_on_c, 15, 62, 0
26, 1152, Note_on_c, 15, 67, 110
26, 2064, Note_on_c, 15, 67, 0
26, 3840, Note_on_c, 15, 60, 110
26, 3898, Note_on_c, 15, 60, 0
26, 3900, Note_on_c, 15, 55, 110
26, 3970, Note_on_c, 15, 55, 0
26, 3972, Note_on_c, 15, 60, 110
26, 4030, Note_on_c, 15, 60, 0
26, 4032, Note_on_c, 15, 62, 110
26, 4090, Note_on_c, 15, 62, 0
26, 4092, Note_on_c, 15, 60, 110
26, 4162, Note_on_c, 15, 60, 0
26, 4164, Note_on_c, 15, 62, 110
26, 4222, Note_on_c, 15, 62, 0
26, 4224, Note_on_c, 15, 67, 110
26, 4384, Note_on_c, 15, 67, 0
26, 4416, Note_on_c, 15, 65, 110
26, 4576, Note_on_c, 15, 65, 0
26, 4608, Note_on_c, 15, 64, 110
26, 4666, Note_on_c, 15, 64, 0
26, 4668, Note_on_c, 15, 62, 110
26, 4738, Note_on_c, 15, 62, 0
26, 4740, Note_on_c, 15, 60, 110
26, 4798, Note_on_c, 15, 60, 0
26, 4800, Note_on_c, 15, 62, 110
26, 4930, Note_on_c, 15, 62, 0
26, 4932, Note_on_c, 15, 64, 110
26, 4990, Note_on_c, 15, 64, 0
26, 4992, Note_on_c, 15, 60, 110
26, 5328, Note_on_c, 15, 60, 0
26, 5376, Note_on_c, 15, 77, 110
26, 5434, Note_on_c, 15, 77, 0
26, 5436, Note_on_c, 15, 76, 110
26, 5506, Note_on_c, 15, 76, 0
26, 5508, Note_on_c, 15, 72, 110
26, 5566, Note_on_c, 15, 72, 0
26, 5568, Note_on_c, 15, 72, 110
26, 5626, Note_on_c, 15, 72, 0
26, 5628, Note_on_c, 15, 74, 110
26, 5698, Note_on_c, 15, 74, 0
26, 5700, Note_on_c, 15, 76, 110
26, 5758, Note_on_c, 15, 76, 0
26, 5760, Note_on_c, 15, 77, 110
26, 5920, Note_on_c, 15, 77, 0
26, 5952, Note_on_c, 15, 76, 110
26, 6082, Note_on_c, 15, 76, 0
26, 6084, Note_on_c, 15, 72, 110
26, 6142, Note_on_c, 15, 72, 0
26, 6144, Note_on_c, 15, 77, 110
26, 6202, Note_on_c, 15, 77, 0
26, 6204, Note_on_c, 15, 76, 110
26, 6274, Note_on_c, 15, 76, 0
26, 6276, Note_on_c, 15, 72, 110
26, 6334, Note_on_c, 15, 72, 0
26, 6336, Note_on_c, 15, 72, 110
26, 6394, Note_on_c, 15, 72, 0
26, 6396, Note_on_c, 15, 74, 110
26, 6466, Note_on_c, 15, 74, 0
26, 6468, Note_on_c, 15, 76, 110
26, 6526, Note_on_c, 15, 76, 0
26, 6528, Note_on_c, 15, 77, 110
26, 6688, Note_on_c, 15, 77, 0
26, 6720, Note_on_c, 15, 76, 110
26, 6850, Note_on_c, 15, 76, 0
26, 6852, Note_on_c, 15, 72, 110
26, 6910, Note_on_c, 15, 72, 0
26, 6912, Note_on_c, 15, 72, 110
26, 6970, Note_on_c, 15, 72, 0
26, 6972, Note_on_c, 15, 67, 110
26, 7042, Note_on_c, 15, 67, 0
26, 7044, Note_on_c, 15, 72, 110
26, 7102, Note_on_c, 15, 72, 0
26, 7104, Note_on_c, 15, 74, 110
26, 7162, Note_on_c, 15, 74, 0
26, 7164, Note_on_c, 15, 72, 110
26, 7234, Note_on_c, 15, 72, 0
26, 7236, Note_on_c, 15, 74, 110
26, 7294, Note_on_c, 15, 74, 0
26, 7296, Note_on_c, 15, 76, 110
26, 7354, Note_on_c, 15, 76, 0
26, 7356, Note_on_c, 15, 74, 110
26, 7426, Note_on_c, 15, 74, 0
26, 7428, Note_on_c, 15, 76, 110
26, 7486, Note_on_c, 15, 76, 0
26, 7488, Note_on_c, 15, 77, 110
26, 7546, Note_on_c, 15, 77, 0
26, 7548, Note_on_c, 15, 76, 110
26, 7618, Note_on_c, 15, 76, 0
26, 7620, Note_on_c, 15, 77, 110
26, 7678, Note_on_c, 15, 77, 0
26, 7680, Note_on_c, 15, 79, 110
26, 7840, Note_on_c, 15, 79, 0
26, 7968, Note_on_c, 15, 79, 110
26, 8014, Note_on_c, 15, 79, 0
26, 8016, Note_on_c, 15, 79, 110
26, 8062, Note_on_c, 15, 79, 0
26, 8064, Note_on_c, 15, 79, 110
26, 8224, Note_on_c, 15, 79, 0
26, 8448, Note_on_c, 15, 60, 110
26, 8506, Note_on_c, 15, 60, 0
26, 8508, Note_on_c, 15, 55, 110
26, 8578, Note_on_c, 15, 55, 0
26, 8580, Note_on_c, 15, 60, 110
26, 8638, Note_on_c, 15, 60, 0
26, 8640, Note_on_c, 15, 62, 110
26, 8698, Note_on_c, 15, 62, 0
26, 8700, Note_on_c, 15, 60, 110
26, 8770, Note_on_c, 15, 60, 0
26, 8772, Note_on_c, 15, 62, 110
26, 8830, Note_on_c, 15, 62, 0
26, 8832, Note_on_c, 15, 67, 110
26, 8992, Note_on_c, 15, 67, 0
26, 9024, Note_on_c, 15, 65, 110
26, 9184, Note_on_c, 15, 65, 0
26, 9216, Note_on_c, 15, 64, 110
26, 9274, Note_on_c, 15, 64, 0
26, 9276, Note_on_c, 15, 62, 110
26, 9346, Note_on_c, 15, 62, 0
26, 9348, Note_on_c, 15, 60, 110
26, 9406, Note_on_c, 15, 60, 0
26, 9408, Note_on_c, 15, 62, 110
26, 9538, Note_on_c, 15, 62, 0
26, 9540, Note_on_c, 15, 64, 110
26, 9598, Note_on_c, 15, 64, 0
26, 9600, Note_on_c, 15, 60, 110
26, 9936, Note_on_c, 15, 60, 0
26, 9984, Note_on_c, 15, 77, 110
26, 10042, Note_on_c, 15, 77, 0
26, 10044, Note_on_c, 15, 76, 110
26, 10114, Note_on_c, 15, 76, 0
26, 10116, Note_on_c, 15, 72, 110
26, 10174, Note_on_c, 15, 72, 0
26, 10176, Note_on_c, 15, 72, 110
26, 10234, Note_on_c, 15, 72, 0
26, 10236, Note_on_c, 15, 74, 110
26, 10306, Note_on_c, 15, 74, 0
26, 10308, Note_on_c, 15, 76, 110
26, 10366, Note_on_c, 15, 76, 0
26, 10368, Note_on_c, 15, 77, 110
26, 10528, Note_on_c, 15, 77, 0
26, 10560, Note_on_c, 15, 76, 110
26, 10690, Note_on_c, 15, 76, 0
26, 10692, Note_on_c, 15, 72, 110
26, 10750, Note_on_c, 15, 72, 0
26, 10752, Note_on_c, 15, 77, 110
26, 10810, Note_on_c, 15, 77, 0
26, 10812, Note_on_c, 15, 76, 110
26, 10882, Note_on_c, 15, 76, 0
26, 10884, Note_on_c, 15, 72, 110
26, 10942, Note_on_c, 15, 72, 0
26, 10944, Note_on_c, 15, 72, 110
26, 11002, Note_on_c, 15, 72, 0
26, 11004, Note_on_c, 15, 74, 110
26, 11074, Note_on_c, 15, 74, 0
26, 11076, Note_on_c, 15, 76, 110
26, 11134, Note_on_c, 15, 76, 0
26, 11136, Note_on_c, 15, 77, 110
26, 11296, Note_on_c, 15, 77, 0
26, 11328, Note_on_c, 15, 76, 110
26, 11458, Note_on_c, 15, 76, 0
26, 11460, Note_on_c, 15, 72, 110
26, 11518, Note_on_c, 15, 72, 0
26, 11520, Note_on_c, 15, 72, 110
26, 11578, Note_on_c, 15, 72, 0
26, 11580, Note_on_c, 15, 67, 110
26, 11650, Note_on_c, 15, 67, 0
26, 11652, Note_on_c, 15, 72, 110
26, 11710, Note_on_c, 15, 72, 0
26, 11712, Note_on_c, 15, 74, 110
26, 11770, Note_on_c, 15, 74, 0
26, 11772, Note_on_c, 15, 72, 110
26, 11842, Note_on_c, 15, 72, 0
26, 11844, Note_on_c, 15, 74, 110
26, 11902, Note_on_c, 15, 74, 0
26, 11904, Note_on_c, 15, 76, 110
26, 11962, Note_on_c, 15, 76, 0
26, 11964, Note_on_c, 15, 74, 110
26, 12034, Note_on_c, 15, 74, 0
26, 12036, Note_on_c, 15, 76, 110
26, 12094, Note_on_c, 15, 76, 0
26, 12096, Note_on_c, 15, 77, 110
26, 12154, Note_on_c, 15, 77, 0
26, 12156, Note_on_c, 15, 76, 110
26, 12226, Note_on_c, 15, 76, 0
26, 12228, Note_on_c, 15, 77, 110
26, 12286, Note_on_c, 15, 77, 0
26, 12288, Note_on_c, 15, 72, 110
26, 12288, Note_on_c, 15, 76, 110
26, 12346, Note_on_c, 15, 72, 0
26, 12346, Note_on_c, 15, 76, 0
26, 12348, Note_on_c, 15, 67, 110
26, 12348, Note_on_c, 15, 72, 110
26, 12418, Note_on_c, 15, 67, 0
26, 12418, Note_on_c, 15, 72, 0
26, 12420, Note_on_c, 15, 72, 110
26, 12420, Note_on_c, 15, 76, 110
26, 12478, Note_on_c, 15, 72, 0
26, 12478, Note_on_c, 15, 76, 0
26, 12480, Note_on_c, 15, 74, 110
26, 12480, Note_on_c, 15, 77, 110
26, 12538, Note_on_c, 15, 74, 0
26, 12538, Note_on_c, 15, 77, 0
26, 12540, Note_on_c, 15, 72, 110
26, 12540, Note_on_c, 15, 76, 110
26, 12610, Note_on_c, 15, 72, 0
26, 12610, Note_on_c, 15, 76, 0
26, 12612, Note_on_c, 15, 74, 110
26, 12612, Note_on_c, 15, 77, 110
26, 12670, Note_on_c, 15, 74, 0
26, 12670, Note_on_c, 15, 77, 0
26, 12672, Note_on_c, 15, 76, 110
26, 12672, Note_on_c, 15, 79, 110
26, 12730, Note_on_c, 15, 76, 0
26, 12730, Note_on_c, 15, 79, 0
26, 12732, Note_on_c, 15, 74, 110
26, 12732, Note_on_c, 15, 77, 110
26, 12802, Note_on_c, 15, 74, 0
26, 12802, Note_on_c, 15, 77, 0
26, 12804, Note_on_c, 15, 76, 110
26, 12804, Note_on_c, 15, 79, 110
26, 12862, Note_on_c, 15, 76, 0
26, 12862, Note_on_c, 15, 79, 0
26, 12864, Note_on_c, 15, 77, 110
26, 12864, Note_on_c, 15, 81, 110
26, 12922, Note_on_c, 15, 77, 0
26, 12922, Note_on_c, 15, 81, 0
26, 12924, Note_on_c, 15, 76, 110
26, 12924, Note_on_c, 15, 79, 110
26, 12994, Note_on_c, 15, 76, 0
26, 12994, Note_on_c, 15, 79, 0
26, 12996, Note_on_c, 15, 77, 110
26, 12996, Note_on_c, 15, 81, 110
26, 13054, Note_on_c, 15, 77, 0
26, 13054, Note_on_c, 15, 81, 0
26, 13116, Note_on_c, 15, 67, 110
26, 13116, Note_on_c, 15, 72, 110
26, 13186, Note_on_c, 15, 67, 0
26, 13186, Note_on_c, 15, 72, 0
26, 13188, Note_on_c, 15, 72, 110
26, 13188, Note_on_c, 15, 76, 110
26, 13246, Note_on_c, 15, 72, 0
26, 13246, Note_on_c, 15, 76, 0
26, 13248, Note_on_c, 15, 74, 110
26, 13248, Note_on_c, 15, 77, 110
26, 13306, Note_on_c, 15, 74, 0
26, 13306, Note_on_c, 15, 77, 0
26, 13308, Note_on_c, 15, 72, 110
26, 13308, Note_on_c, 15, 76, 110
26, 13378, Note_on_c, 15, 72, 0
26, 13378, Note_on_c, 15, 76, 0
26, 13380, Note_on_c, 15, 74, 110
26, 13380, Note_on_c, 15, 77, 110
26, 13438, Note_on_c, 15, 74, 0
26, 13438, Note_on_c, 15, 77, 0
26, 13440, Note_on_c, 15, 76, 110
26, 13440, Note_on_c, 15, 79, 110
26, 13498, Note_on_c, 15, 76, 0
26, 13498, Note_on_c, 15, 79, 0
26, 13500, Note_on_c, 15, 74, 110
26, 13500, Note_on_c, 15, 77, 110
26, 13570, Note_on_c, 15, 74, 0
26, 13570, Note_on_c, 15, 77, 0
26, 13572, Note_on_c, 15, 76, 110
26, 13572, Note_on_c, 15, 79, 110
26, 13630, Note_on_c, 15, 76, 0
26, 13630, Note_on_c, 15, 79, 0
26, 13632, Note_on_c, 15, 77, 110
26, 13632, Note_on_c, 15, 81, 110
26, 13690, Note_on_c, 15, 77, 0
26, 13690, Note_on_c, 15, 81, 0
26, 13692, Note_on_c, 15, 76, 110
26, 13692, Note_on_c, 15, 79, 110
26, 13762, Note_on_c, 15, 76, 0
26, 13762, Note_on_c, 15, 79, 0
26, 13764, Note_on_c, 15, 77, 110
26, 13764, Note_on_c, 15, 81, 110
26, 13822, Note_on_c, 15, 77, 0
26, 13822, Note_on_c, 15, 81, 0
26, 13824, Note_on_c, 15, 79, 110
26, 13824, Note_on_c, 15, 83, 110
26, 14352, Note_on_c, 15, 79, 0
26, 14352, Note_on_c, 15, 83, 0
26, 33024, Note_on_c, 15, 65, 110
26, 33024, Note_on_c, 15, 69, 110
26, 33360, Note_on_c, 15, 65, 0
26, 33360, Note_on_c, 15, 69, 0
26, 33408, Note_on_c, 15, 65, 110
26, 33408, Note_on_c, 15, 69, 110
26, 33502, Note_on_c, 15, 65, 0
26, 33502, Note_on_c, 15, 69, 0
26, 33504, Note_on_c, 15, 67, 110
26, 33504, Note_on_c, 15, 71, 110
26, 33694, Note_on_c, 15, 67, 0
26, 33694, Note_on_c, 15, 71, 0
26, 33696, Note_on_c, 15, 69, 110
26, 33696, Note_on_c, 15, 72, 110
26, 33886, Note_on_c, 15, 69, 0
26, 33886, Note_on_c, 15, 72, 0
26, 33888, Note_on_c, 15, 67, 110
26, 33888, Note_on_c, 15, 71, 110
26, 34144, Note_on_c, 15, 67, 0
26, 34144, Note_on_c, 15, 71, 0
26, 34176, Note_on_c, 15, 67, 110
26, 34176, Note_on_c, 15, 71, 110
26, 34176, Note_on_c, 15, 74, 110
26, 34318, Note_on_c, 15, 67, 0
26, 34318, Note_on_c, 15, 71, 0
26, 34318, Note_on_c, 15, 74, 0
26, 34320, Note_on_c, 15, 69, 110
26, 34320, Note_on_c, 15, 72, 110
26, 34320, Note_on_c, 15, 76, 110
26, 34462, Note_on_c, 15, 69, 0
26, 34462, Note_on_c, 15, 72, 0
26, 34462, Note_on_c, 15, 76, 0
26, 34464, Note_on_c, 15, 71, 110
26, 34464, Note_on_c, 15, 74, 110
26, 34464, Note_on_c, 15, 77, 110
26, 34558, Note_on_c, 15, 71, 0
26, 34558, Note_on_c, 15, 74, 0
26, 34558, Note_on_c, 15, 77, 0
26, 34560, Note_on_c, 15, 71, 110
26, 34560, Note_on_c, 15, 74, 110
26, 34560, Note_on_c, 15, 79, 110
26, 34702, Note_on_c, 15, 71, 0
26, 34702, Note_on_c, 15, 74, 0
26, 34702, Note_on_c, 15, 79, 0
26, 34704, Note_on_c, 15, 69, 110
26, 34704, Note_on_c, 15, 72, 110
26, 34704, Note_on_c, 15, 77, 110
26, 34846, Note_on_c, 15, 69, 0
26, 34846, Note_on_c, 15, 72, 0
26, 34846, Note_on_c, 15, 77, 0
26, 34848, Note_on_c, 15, 67, 110
26, 34848, Note_on_c, 15, 72, 110
26, 34848, Note_on_c, 15, 76, 110
26, 34942, Note_on_c, 15, 67, 0
26, 34942, Note_on_c, 15, 72, 0
26, 34942, Note_on_c, 15, 76, 0
26, 34992, Note_on_c, 15, 69, 110
26, 34992, Note_on_c, 15, 72, 110
26, 34992, Note_on_c, 15, 77, 110
26, 35134, Note_on_c, 15, 69, 0
26, 35134, Note_on_c, 15, 72, 0
26, 35134, Note_on_c, 15, 77, 0
26, 35136, Note_on_c, 15, 69, 110
26, 35136, Note_on_c, 15, 72, 110
26, 35136, Note_on_c, 15, 76, 110
26, 35278, Note_on_c, 15, 69, 0
26, 35278, Note_on_c, 15, 72, 0
26, 35278, Note_on_c, 15, 76, 0
26, 35280, Note_on_c, 15, 67, 110
26, 35280, Note_on_c, 15, 71, 110
26, 35280, Note_on_c, 15, 72, 110
26, 35280, Note_on_c, 15, 74, 110
26, 35326, Note_on_c, 15, 67, 0
26, 35326, Note_on_c, 15, 71, 0
26, 35326, Note_on_c, 15, 72, 0
26, 35326, Note_on_c, 15, 74, 0
26, 35376, Note_on_c, 15, 67, 110
26, 35376, Note_on_c, 15, 71, 110
26, 35376, Note_on_c, 15, 74, 110
26, 35518, Note_on_c, 15, 67, 0
26, 35518, Note_on_c, 15, 71, 0
26, 35518, Note_on_c, 15, 74, 0
26, 35568, Note_on_c, 15, 65, 110
26, 35568, Note_on_c, 15, 69, 110
26, 35568, Note_on_c, 15, 72, 110
26, 36048, Note_on_c, 15, 65, 0
26, 36048, Note_on_c, 15, 69, 0
26, 36048, Note_on_c, 15, 72, 0
26, 36816, Note_on_c, 15, 69, 110
26, 36816, Note_on_c, 15, 72, 110
26, 36816, Note_on_c, 15, 77, 110
26, 37584, Note_on_c, 15, 69, 0
26, 37584, Note_on_c, 15, 72, 0
26, 37584, Note_on_c, 15, 77, 0
26, 37824, Note_on_c, 15, 69, 110
26, 37824, Note_on_c, 15, 74, 110
26, 37824, Note_on_c, 15, 77, 110
26, 37984, Note_on_c, 15, 69, 0
26, 37984, Note_on_c, 15, 74, 0
26, 37984, Note_on_c, 15, 77, 0
26, 38112, Note_on_c, 15, 69, 110
26, 38112, Note_on_c, 15, 74, 110
26, 38112, Note_on_c, 15, 77, 110
26, 38206, Note_on_c, 15, 69, 0
26, 38206, Note_on_c, 15, 74, 0
26, 38206, Note_on_c, 15, 77, 0
26, 38592, Note_on_c, 15, 69, 110
26, 38592, Note_on_c, 15, 74, 110
26, 38592, Note_on_c, 15, 77, 110
26, 38752, Note_on_c, 15, 69, 0
26, 38752, Note_on_c, 15, 74, 0
26, 38752, Note_on_c, 15, 77, 0
26, 38880, Note_on_c, 15, 69, 110
26, 38880, Note_on_c, 15, 74, 110
26, 38880, Note_on_c, 15, 77, 110
26, 38974, Note_on_c, 15, 69, 0
26, 38974, Note_on_c, 15, 74, 0
26, 38974, Note_on_c, 15, 77, 0
26, 39360, Note_on_c, 15, 71, 110
26, 39360, Note_on_c, 15, 74, 110
26, 39360, Note_on_c, 15, 79, 110
26, 39520, Note_on_c, 15, 71, 0
26, 39520, Note_on_c, 15, 74, 0
26, 39520, Note_on_c, 15, 79, 0
26, 39648, Note_on_c, 15, 71, 110
26, 39648, Note_on_c, 15, 74, 110
26, 39648, Note_on_c, 15, 79, 110
26, 39742, Note_on_c, 15, 71, 0
26, 39742, Note_on_c, 15, 74, 0
26, 39742, Note_on_c, 15, 79, 0
26, 39984, Note_on_c, 15, 69, 110
26, 39984, Note_on_c, 15, 72, 110
26, 39984, Note_on_c, 15, 77, 110
26, 40078, Note_on_c, 15, 69, 0
26, 40078, Note_on_c, 15, 72, 0
26, 40078, Note_on_c, 15, 77, 0
26, 40080, Note_on_c, 15, 69, 110
26, 40080, Note_on_c, 15, 72, 110
26, 40080, Note_on_c, 15, 77, 110
26, 40126, Note_on_c, 15, 69, 0
26, 40126, Note_on_c, 15, 72, 0
26, 40126, Note_on_c, 15, 77, 0
26, 40176, Note_on_c, 15, 71, 110
26, 40176, Note_on_c, 15, 74, 110
26, 40176, Note_on_c, 15, 79, 110
26, 40270, Note_on_c, 15, 71, 0
26, 40270, Note_on_c, 15, 74, 0
26, 40270, Note_on_c, 15, 79, 0
26, 40272, Note_on_c, 15, 71, 110
26, 40272, Note_on_c, 15, 74, 110
26, 40272, Note_on_c, 15, 79, 110
26, 40480, Note_on_c, 15, 71, 0
26, 40480, Note_on_c, 15, 74, 0
26, 40480, Note_on_c, 15, 79, 0
26, 40896, Note_on_c, 15, 60, 110
26, 40896, Note_on_c, 15, 64, 110
26, 41056, Note_on_c, 15, 60, 0
26, 41056, Note_on_c, 15, 64, 0
26, 41184, Note_on_c, 15, 60, 110
26, 41184, Note_on_c, 15, 64, 110
26, 41278, Note_on_c, 15, 60, 0
26, 41278, Note_on_c, 15, 64, 0
26, 41664, Note_on_c, 15, 60, 110
26, 41664, Note_on_c, 15, 64, 110
26, 41824, Note_on_c, 15, 60, 0
26, 41824, Note_on_c, 15, 64, 0
26, 41952, Note_on_c, 15, 59, 110
26, 41952, Note_on_c, 15, 62, 110
26, 42046, Note_on_c, 15, 59, 0
26, 42046, Note_on_c, 15, 62, 0
26, 42432, Note_on_c, 15, 60, 110
26, 42432, Note_on_c, 15, 64, 110
26, 42592, Note_on_c, 15, 60, 0
26, 42592, Note_on_c, 15, 64, 0
26, 42720, Note_on_c, 15, 59, 110
26, 42720, Note_on_c, 15, 62, 110
26, 42976, Note_on_c, 15, 59, 0
26, 42976, Note_on_c, 15, 62, 0
26, 43008, Note_on_c, 15, 60, 110
26, 43008, Note_on_c, 15, 64, 110
26, 43102, Note_on_c, 15, 60, 0
26, 43102, Note_on_c, 15, 64, 0
26, 43104, Note_on_c, 15, 60, 110
26, 43104, Note_on_c, 15, 64, 110
26, 43198, Note_on_c, 15, 60, 0
26, 43198, Note_on_c, 15, 64, 0
26, 43296, Note_on_c, 15, 59, 110
26, 43296, Note_on_c, 15, 62, 110
26, 43390, Note_on_c, 15, 59, 0
26, 43390, Note_on_c, 15, 62, 0
26, 43488, Note_on_c, 15, 60, 110
26, 43488, Note_on_c, 15, 64, 110
26, 43744, Note_on_c, 15, 60, 0
26, 43744, Note_on_c, 15, 64, 0
26, 43968, Note_on_c, 15, 62, 110
26, 43968, Note_on_c, 15, 65, 110
26, 44128, Note_on_c, 15, 62, 0
26, 44128, Note_on_c, 15, 65, 0
26, 44256, Note_on_c, 15, 62, 110
26, 44256, Note_on_c, 15, 65, 110
26, 44350, Note_on_c, 15, 62, 0
26, 44350, Note_on_c, 15, 65, 0
26, 44736, Note_on_c, 15, 62, 110
26, 44736, Note_on_c, 15, 65, 110
26, 44896, Note_on_c, 15, 62, 0
26, 44896, Note_on_c, 15, 65, 0
26, 45024, Note_on_c, 15, 62, 110
26, 45024, Note_on_c, 15, 65, 110
26, 45118, Note_on_c, 15, 62, 0
26, 45118, Note_on_c, 15, 65, 0
26, 45504, Note_on_c, 15, 62, 110
26, 45504, Note_on_c, 15, 65, 110
26, 45664, Note_on_c, 15, 62, 0
26, 45664, Note_on_c, 15, 65, 0
26, 45792, Note_on_c, 15, 69, 110
26, 45792, Note_on_c, 15, 72, 110
26, 45886, Note_on_c, 15, 69, 0
26, 45886, Note_on_c, 15, 72, 0
26, 46080, Note_on_c, 15, 67, 110
26, 46080, Note_on_c, 15, 71, 110
26, 46174, Note_on_c, 15, 67, 0
26, 46174, Note_on_c, 15, 71, 0
26, 46176, Note_on_c, 15, 67, 110
26, 46176, Note_on_c, 15, 71, 110
26, 46270, Note_on_c, 15, 67, 0
26, 46270, Note_on_c, 15, 71, 0
26, 46368, Note_on_c, 15, 65, 110
26, 46368, Note_on_c, 15, 69, 110
26, 46462, Note_on_c, 15, 65, 0
26, 46462, Note_on_c, 15, 69, 0
26, 46560, Note_on_c, 15, 67, 110
26, 46560, Note_on_c, 15, 71, 110
26, 46816, Note_on_c, 15, 67, 0
26, 46816, Note_on_c, 15, 71, 0
26, 47040, Note_on_c, 15, 60, 110
26, 47040, Note_on_c, 15, 64, 110
26, 47200, Note_on_c, 15, 60, 0
26, 47200, Note_on_c, 15, 64, 0
26, 47328, Note_on_c, 15, 60, 110
26, 47328, Note_on_c, 15, 64, 110
26, 47422, Note_on_c, 15, 60, 0
26, 47422, Note_on_c, 15, 64, 0
26, 47808, Note_on_c, 15, 60, 110
26, 47808, Note_on_c, 15, 64, 110
26, 47968, Note_on_c, 15, 60, 0
26, 47968, Note_on_c, 15, 64, 0
26, 48096, Note_on_c, 15, 59, 110
26, 48096, Note_on_c, 15, 62, 110
26, 48190, Note_on_c, 15, 59, 0
26, 48190, Note_on_c, 15, 62, 0
26, 48576, Note_on_c, 15, 60, 110
26, 48576, Note_on_c, 15, 64, 110
26, 48736, Note_on_c, 15, 60, 0
26, 48736, Note_on_c, 15, 64, 0
26, 48864, Note_on_c, 15, 59, 110
26, 48864, Note_on_c, 15, 62, 110
26, 49120, Note_on_c, 15, 59, 0
26, 49120, Note_on_c, 15, 62, 0
26, 49152, Note_on_c, 15, 60, 110
26, 49152, Note_on_c, 15, 64, 110
26, 49246, Note_on_c, 15, 60, 0
26, 49246, Note_on_c, 15, 64, 0
26, 49248, Note_on_c, 15, 60, 110
26, 49248, Note_on_c, 15, 64, 110
26, 49342, Note_on_c, 15, 60, 0
26, 49342, Note_on_c, 15, 64, 0
26, 49440, Note_on_c, 15, 59, 110
26, 49440, Note_on_c, 15, 62, 110
26, 49534, Note_on_c, 15, 59, 0
26, 49534, Note_on_c, 15, 62, 0
26, 49632, Note_on_c, 15, 60, 110
26, 49632, Note_on_c, 15, 64, 110
26, 49888, Note_on_c, 15, 60, 0
26, 49888, Note_on_c, 15, 64, 0
26, 50112, Note_on_c, 15, 62, 110
26, 50112, Note_on_c, 15, 65, 110
26, 50272, Note_on_c, 15, 62, 0
26, 50272, Note_on_c, 15, 65, 0
26, 50400, Note_on_c, 15, 62, 110
26, 50400, Note_on_c, 15, 65, 110
26, 50494, Note_on_c, 15, 62, 0
26, 50494, Note_on_c, 15, 65, 0
26, 50880, Note_on_c, 15, 62, 110
26, 50880, Note_on_c, 15, 65, 110
26, 51040, Note_on_c, 15, 62, 0
26, 51040, Note_on_c, 15, 65, 0
26, 51168, Note_on_c, 15, 62, 110
26, 51168, Note_on_c, 15, 65, 110
26, 51262, Note_on_c, 15, 62, 0
26, 51262, Note_on_c, 15, 65, 0
26, 51648, Note_on_c, 15, 69, 110
26, 51648, Note_on_c, 15, 72, 110
26, 51808, Note_on_c, 15, 69, 0
26, 51808, Note_on_c, 15, 72, 0
26, 51936, Note_on_c, 15, 67, 110
26, 51936, Note_on_c, 15, 71, 110
26, 52192, Note_on_c, 15, 67, 0
26, 52192, Note_on_c, 15, 71, 0
26, 52320, Note_on_c, 15, 69, 110
26, 52320, Note_on_c, 15, 72, 110
26, 52320, Note_on_c, 15, 77, 110
26, 52414, Note_on_c, 15, 69, 0
26, 52414, Note_on_c, 15, 72, 0
26, 52414, Note_on_c, 15, 77, 0
26, 52416, Note_on_c, 15, 69, 110
26, 52416, Note_on_c, 15, 72, 110
26, 52416, Note_on_c, 15, 77, 110
26, 52510, Note_on_c, 15, 69, 0
26, 52510, Note_on_c, 15, 72, 0
26, 52510, Note_on_c, 15, 77, 0
26, 52512, Note_on_c, 15, 71, 110
26, 52512, Note_on_c, 15, 74, 110
26, 52512, Note_on_c, 15, 79, 110
26, 52606, Note_on_c, 15, 71, 0
26, 52606, Note_on_c, 15, 74, 0
26, 52606, Note_on_c, 15, 79, 0
26, 52608, Note_on_c, 15, 71, 110
26, 52608, Note_on_c, 15, 74, 110
26, 52608, Note_on_c, 15, 79, 110
26, 52768, Note_on_c, 15, 71, 0
26, 52768, Note_on_c, 15, 74, 0
26, 52768, Note_on_c, 15, 79, 0
26, 64608, Note_on_c, 15, 69, 110
26, 64608, Note_on_c, 15, 72, 110
26, 64608, Note_on_c, 15, 77, 110
26, 64864, Note_on_c, 15, 69, 0
26, 64864, Note_on_c, 15, 72, 0
26, 64864, Note_on_c, 15, 77, 0
26, 64896, Note_on_c, 15, 69, 110
26, 64896, Note_on_c, 15, 72, 110
26, 64896, Note_on_c, 15, 77, 110
26, 65056, Note_on_c, 15, 69, 0
26, 65056, Note_on_c, 15, 72, 0
26, 65056, Note_on_c, 15, 77, 0
26, 65088, Note_on_c, 15, 71, 110
26, 65088, Note_on_c, 15, 74, 110
26, 65088, Note_on_c, 15, 79, 110
26, 65248, Note_on_c, 15, 71, 0
26, 65248, Note_on_c, 15, 74, 0
26, 65248, Note_on_c, 15, 79, 0
26, 65280, Note_on_c, 15, 65, 110
26, 65280, Note_on_c, 15, 69, 110
26, 65440, Note_on_c, 15, 65, 0
26, 65440, Note_on_c, 15, 69, 0
26, 65664, Note_on_c, 15, 65, 110
26, 65664, Note_on_c, 15, 69, 110
26, 65758, Note_on_c, 15, 65, 0
26, 65758, Note_on_c, 15, 69, 0
26, 65760, Note_on_c, 15, 67, 110
26, 65760, Note_on_c, 15, 71, 110
26, 65950, Note_on_c, 15, 67, 0
26, 65950, Note_on_c, 15, 71, 0
26, 65952, Note_on_c, 15, 69, 110
26, 65952, Note_on_c, 15, 72, 110
26, 66142, Note_on_c, 15, 69, 0
26, 66142, Note_on_c, 15, 72, 0
26, 66144, Note_on_c, 15, 67, 110
26, 66144, Note_on_c, 15, 71, 110
26, 66400, Note_on_c, 15, 67, 0
26, 66400, Note_on_c, 15, 71, 0
26, 66432, Note_on_c, 15, 67, 110
26, 66432, Note_on_c, 15, 71, 110
26, 66432, Note_on_c, 15, 74, 110
26, 66574, Note_on_c, 15, 67, 0
26, 66574, Note_on_c, 15, 71, 0
26, 66574, Note_on_c, 15, 74, 0
26, 66576, Note_on_c, 15, 69, 110
26, 66576, Note_on_c, 15, 72, 110
26, 66576, Note_on_c, 15, 76, 110
26, 66718, Note_on_c, 15, 69, 0
26, 66718, Note_on_c, 15, 72, 0
26, 66718, Note_on_c, 15, 76, 0
26, 66720, Note_on_c, 15, 71, 110
26, 66720, Note_on_c, 15, 74, 110
26, 66720, Note_on_c, 15, 77, 110
26, 66814, Note_on_c, 15, 71, 0
26, 66814, Note_on_c, 15, 74, 0
26, 66814, Note_on_c, 15, 77, 0
26, 66816, Note_on_c, 15, 71, 110
26, 66816, Note_on_c, 15, 74, 110
26, 66816, Note_on_c, 15, 79, 110
26, 66958, Note_on_c, 15, 71, 0
26, 66958, Note_on_c, 15, 74, 0
26, 66958, Note_on_c, 15, 79, 0
26, 66960, Note_on_c, 15, 69, 110
26, 66960, Note_on_c, 15, 72, 110
26, 66960, Note_on_c, 15, 77, 110
26, 67102, Note_on_c, 15, 69, 0
26, 67102, Note_on_c, 15, 72, 0
26, 67102, Note_on_c, 15, 77, 0
26, 67104, Note_on_c, 15, 67, 110
26, 67104, Note_on_c, 15, 72, 110
26, 67104, Note_on_c, 15, 76, 110
26, 67198, Note_on_c, 15, 67, 0
26, 67198, Note_on_c, 15, 72, 0
26, 67198, Note_on_c, 15, 76, 0
26, 67248, Note_on_c, 15, 69, 110
26, 67248, Note_on_c, 15, 72, 110
26, 67248, Note_on_c, 15, 77, 110
26, 67390, Note_on_c, 15, 69, 0
26, 67390, Note_on_c, 15, 72, 0
26, 67390, Note_on_c, 15, 77, 0
26, 67392, Note_on_c, 15, 69, 110
26, 67392, Note_on_c, 15, 72, 110
26, 67392, Note_on_c, 15, 76, 110
26, 67534, Note_on_c, 15, 69, 0
26, 67534, Note_on_c, 15, 72, 0
26, 67534, Note_on_c, 15, 76, 0
26, 67536, Note_on_c, 15, 67, 110
26, 67536, Note_on_c, 15, 71, 110
26, 67536, Note_on_c, 15, 72, 110
26, 67536, Note_on_c, 15, 74, 110
26, 67582, Note_on_c, 15, 67, 0
26, 67582, Note_on_c, 15, 71, 0
26, 67582, Note_on_c, 15, 72, 0
26, 67582, Note_on_c, 15, 74, 0
26, 67632, Note_on_c, 15, 67, 110
26, 67632, Note_on_c, 15, 71, 110
26, 67632, Note_on_c, 15, 74, 110
26, 67774, Note_on_c, 15, 67, 0
26, 67774, Note_on_c, 15, 71, 0
26, 67774, Note_on_c, 15, 74, 0
26, 67824, Note_on_c, 15, 65, 110
26, 67824, Note_on_c, 15, 69, 110
26, 67824, Note_on_c, 15, 72, 110
26, 68304, Note_on_c, 15, 65, 0
26, 68304, Note_on_c, 15, 69, 0
26, 68304, Note_on_c, 15, 72, 0
26, 69072, Note_on_c, 15, 69, 110
26, 69072, Note_on_c, 15, 72, 110
26, 69072, Note_on_c, 15, 77, 110
26, 69840, Note_on_c, 15, 69, 0
26, 69840, Note_on_c, 15, 72, 0
26, 69840, Note_on_c, 15, 77, 0
26, 70080, Note_on_c, 15, 69, 110
26, 70080, Note_on_c, 15, 74, 110
26, 70080, Note_on_c, 15, 77, 110
26, 70240, Note_on_c, 15, 69, 0
26, 70240, Note_on_c, 15, 74, 0
26, 70240, Note_on_c, 15, 77, 0
26, 70368, Note_on_c, 15, 69, 110
26, 70368, Note_on_c, 15, 74, 110
26, 70368, Note_on_c, 15, 77, 110
26, 70462, Note_on_c, 15, 69, 0
26, 70462, Note_on_c, 15, 74, 0
26, 70462, Note_on_c, 15, 77, 0
26, 70848, Note_on_c, 15, 69, 110
26, 70848, Note_on_c, 15, 74, 110
26, 70848, Note_on_c, 15, 77, 110
26, 71008, Note_on_c, 15, 69, 0
26, 71008, Note_on_c, 15, 74, 0
26, 71008, Note_on_c, 15, 77, 0
26, 71136, Note_on_c, 15, 69, 110
26, 71136, Note_on_c, 15, 74, 110
26, 71136, Note_on_c, 15, 77, 110
26, 71230, Note_on_c, 15, 69, 0
26, 71230, Note_on_c, 15, 74, 0
26, 71230, Note_on_c, 15, 77, 0
26, 71520, Note_on_c, 15, 71, 110
26, 71520, Note_on_c, 15, 74, 110
26, 71520, Note_on_c, 15, 79, 110
26, 71614, Note_on_c, 15, 71, 0
26, 71614, Note_on_c, 15, 74, 0
26, 71614, Note_on_c, 15, 79, 0
26, 71616, Note_on_c, 15, 71, 110
26, 71616, Note_on_c, 15, 74, 110
26, 71616, Note_on_c, 15, 79, 110
26, 71776, Note_on_c, 15, 71, 0
26, 71776, Note_on_c, 15, 74, 0
26, 71776, Note_on_c, 15, 79, 0
26, 71808, Note_on_c, 15, 71, 110
26, 71808, Note_on_c, 15, 74, 110
26, 71808, Note_on_c, 15, 79, 110
26, 71902, Note_on_c, 15, 71, 0
26, 71902, Note_on_c, 15, 74, 0
26, 71902, Note_on_c, 15, 79, 0
26, 71904, Note_on_c, 15, 71, 110
26, 71904, Note_on_c, 15, 74, 110
26, 71904, Note_on_c, 15, 79, 110
26, 71998, Note_on_c, 15, 71, 0
26, 71998, Note_on_c, 15, 74, 0
26, 71998, Note_on_c, 15, 79, 0
26, 72096, Note_on_c, 15, 71, 110
26, 72096, Note_on_c, 15, 74, 110
26, 72096, Note_on_c, 15, 79, 110
26, 72190, Note_on_c, 15, 71, 0
26, 72190, Note_on_c, 15, 74, 0
26, 72190, Note_on_c, 15, 79, 0
26, 72288, Note_on_c, 15, 69, 110
26, 72288, Note_on_c, 15, 72, 110
26, 72288, Note_on_c, 15, 77, 110
26, 72382, Note_on_c, 15, 69, 0
26, 72382, Note_on_c, 15, 72, 0
26, 72382, Note_on_c, 15, 77, 0
26, 72384, Note_on_c, 15, 69, 110
26, 72384, Note_on_c, 15, 72, 110
26, 72384, Note_on_c, 15, 77, 110
26, 72478, Note_on_c, 15, 69, 0
26, 72478, Note_on_c, 15, 72, 0
26, 72478, Note_on_c, 15, 77, 0
26, 72480, Note_on_c, 15, 71, 110
26, 72480, Note_on_c, 15, 74, 110
26, 72480, Note_on_c, 15, 79, 110
26, 72574, Note_on_c, 15, 71, 0
26, 72574, Note_on_c, 15, 74, 0
26, 72574, Note_on_c, 15, 79, 0
26, 72576, Note_on_c, 15, 71, 110
26, 72576, Note_on_c, 15, 74, 110
26, 72576, Note_on_c, 15, 79, 110
26, 72736, Note_on_c, 15, 71, 0
26, 72736, Note_on_c, 15, 74, 0
26, 72736, Note_on_c, 15, 79, 0
26, 79296, Note_on_c, 15, 61, 110
26, 79296, Note_on_c, 15, 65, 110
26, 79456, Note_on_c, 15, 61, 0
26, 79456, Note_on_c, 15, 65, 0
26, 79584, Note_on_c, 15, 61, 110
26, 79584, Note_on_c, 15, 65, 110
26, 79678, Note_on_c, 15, 61, 0
26, 79678, Note_on_c, 15, 65, 0
26, 80064, Note_on_c, 15, 61, 110
26, 80064, Note_on_c, 15, 65, 110
26, 80224, Note_on_c, 15, 61, 0
26, 80224, Note_on_c, 15, 65, 0
26, 80352, Note_on_c, 15, 60, 110
26, 80352, Note_on_c, 15, 63, 110
26, 80446, Note_on_c, 15, 60, 0
26, 80446, Note_on_c, 15, 63, 0
26, 80832, Note_on_c, 15, 61, 110
26, 80832, Note_on_c, 15, 65, 110
26, 80992, Note_on_c, 15, 61, 0
26, 80992, Note_on_c, 15, 65, 0
26, 81120, Note_on_c, 15, 60, 110
26, 81120, Note_on_c, 15, 63, 110
26, 81376, Note_on_c, 15, 60, 0
26, 81376, Note_on_c, 15, 63, 0
26, 81408, Note_on_c, 15, 61, 110
26, 81408, Note_on_c, 15, 65, 110
26, 81502, Note_on_c, 15, 61, 0
26, 81502, Note_on_c, 15, 65, 0
26, 81504, Note_on_c, 15, 61, 110
26, 81504, Note_on_c, 15, 65, 110
26, 81598, Note_on_c, 15, 61, 0
26, 81598, Note_on_c, 15, 65, 0
26, 81696, Note_on_c, 15, 60, 110
26, 81696, Note_on_c, 15, 63, 110
26, 81790, Note_on_c, 15, 60, 0
26, 81790, Note_on_c, 15, 63, 0
26, 81888, Note_on_c, 15, 61, 110
26, 81888, Note_on_c, 15, 65, 110
26, 82144, Note_on_c, 15, 61, 0
26, 82144, Note_on_c, 15, 65, 0
26, 82368, Note_on_c, 15, 63, 110
26, 82368, Note_on_c, 15, 66, 110
26, 82528, Note_on_c, 15, 63, 0
26, 82528, Note_on_c, 15, 66, 0
26, 82656, Note_on_c, 15, 63, 110
26, 82656, Note_on_c, 15, 66, 110
26, 82750, Note_on_c, 15, 63, 0
26, 82750, Note_on_c, 15, 66, 0
26, 83136, Note_on_c, 15, 63, 110
26, 83136, Note_on_c, 15, 66, 110
26, 83296, Note_on_c, 15, 63, 0
26, 83296, Note_on_c, 15, 66, 0
26, 83424, Note_on_c, 15, 63, 110
26, 83424, Note_on_c, 15, 66, 110
26, 83518, Note_on_c, 15, 63, 0
26, 83518, Note_on_c, 15, 66, 0
26, 83904, Note_on_c, 15, 63, 110
26, 83904, Note_on_c, 15, 66, 110
26, 84064, Note_on_c, 15, 63, 0
26, 84064, Note_on_c, 15, 66, 0
26, 84192, Note_on_c, 15, 70, 110
26, 84192, Note_on_c, 15, 73, 110
26, 84286, Note_on_c, 15, 70, 0
26, 84286, Note_on_c, 15, 73, 0
26, 84480, Note_on_c, 15, 68, 110
26, 84480, Note_on_c, 15, 72, 110
26, 84574, Note_on_c, 15, 68, 0
26, 84574, Note_on_c, 15, 72, 0
26, 84576, Note_on_c, 15, 68, 110
26, 84576, Note_on_c, 15, 72, 110
26, 84670, Note_on_c, 15, 68, 0
26, 84670, Note_on_c, 15, 72, 0
26, 84768, Note_on_c, 15, 66, 110
26, 84768, Note_on_c, 15, 70, 110
26, 84862, Note_on_c, 15, 66, 0
26, 84862, Note_on_c, 15, 70, 0
26, 84960, Note_on_c, 15, 68, 110
26, 84960, Note_on_c, 15, 72, 110
26, 85216, Note_on_c, 15, 68, 0
26, 85216, Note_on_c, 15, 72, 0
26, 85440, Note_on_c, 15, 61, 110
26, 85440, Note_on_c, 15, 65, 110
26, 85600, Note_on_c, 15, 61, 0
26, 85600, Note_on_c, 15, 65, 0
26, 85728, Note_on_c, 15, 61, 110
26, 85728, Note_on_c, 15, 65, 110
26, 85822, Note_on_c, 15, 61, 0
26, 85822, Note_on_c, 15, 65, 0
26, 86208, Note_on_c, 15, 61, 110
26, 86208, Note_on_c, 15, 65, 110
26, 86368, Note_on_c, 15, 61, 0
26, 86368, Note_on_c, 15, 65, 0
26, 86496, Note_on_c, 15, 60, 110
26, 86496, Note_on_c, 15, 63, 110
26, 86590, Note_on_c, 15, 60, 0
26, 86590, Note_on_c, 15, 63, 0
26, 86976, Note_on_c, 15, 61, 110
26, 86976, Note_on_c, 15, 65, 110
26, 87136, Note_on_c, 15, 61, 0
26, 87136, Note_on_c, 15, 65, 0
26, 87264, Note_on_c, 15, 60, 110
26, 87264, Note_on_c, 15, 63, 110
26, 87520, Note_on_c, 15, 60, 0
26, 87520, Note_on_c, 15, 63, 0
26, 87552, Note_on_c, 15, 61, 110
26, 87552, Note_on_c, 15, 65, 110
26, 87646, Note_on_c, 15, 61, 0
26, 87646, Note_on_c, 15, 65, 0
26, 87648, Note_on_c, 15, 61, 110
26, 87648, Note_on_c, 15, 65, 110
26, 87742, Note_on_c, 15, 61, 0
26, 87742, Note_on_c, 15, 65, 0
26, 87840, Note_on_c, 15, 60, 110
26, 87840, Note_on_c, 15, 63, 110
26, 87934, Note_on_c, 15, 60, 0
26, 87934, Note_on_c, 15, 63, 0
26, 88032, Note_on_c, 15, 61, 110
26, 88032, Note_on_c, 15, 65, 110
26, 88288, Note_on_c, 15, 61, 0
26, 88288, Note_on_c, 15, 65, 0
26, 88512, Note_on_c, 15, 63, 110
26, 88512, Note_on_c, 15, 66, 110
26, 88672, Note_on_c, 15, 63, 0
26, 88672, Note_on_c, 15, 66, 0
26, 88800, Note_on_c, 15, 63, 110
26, 88800, Note_on_c, 15, 66, 110
26, 88894, Note_on_c, 15, 63, 0
26, 88894, Note_on_c, 15, 66, 0
26, 89280, Note_on_c, 15, 63, 110
26, 89280, Note_on_c, 15, 66, 110
26, 89440, Note_on_c, 15, 63, 0
26, 89440, Note_on_c, 15, 66, 0
26, 89568, Note_on_c, 15, 63, 110
26, 89568, Note_on_c, 15, 66, 110
26, 89662, Note_on_c, 15, 63, 0
26, 89662, Note_on_c, 15, 66, 0
26, 90048, Note_on_c, 15, 70, 110
26, 90048, Note_on_c, 15, 73, 110
26, 90208, Note_on_c, 15, 70, 0
26, 90208, Note_on_c, 15, 73, 0
26, 90336, Note_on_c, 15, 68, 110
26, 90336, Note_on_c, 15, 72, 110
26, 90592, Note_on_c, 15, 68, 0
26, 90592, Note_on_c, 15, 72, 0
26, 90720, Note_on_c, 15, 70, 110
26, 90720, Note_on_c, 15, 73, 110
26, 90720, Note_on_c, 15, 78, 110
26, 90814, Note_on_c, 15, 70, 0
26, 90814, Note_on_c, 15, 73, 0
26, 90814, Note_on_c, 15, 78, 0
26, 90816, Note_on_c, 15, 70, 110
26, 90816, Note_on_c, 15, 73, 110
26, 90816, Note_on_c, 15, 78, 110
26, 90910, Note_on_c, 15, 70, 0
26, 90910, Note_on_c, 15, 73, 0
26, 90910, Note_on_c, 15, 78, 0
26, 90912, Note_on_c, 15, 72, 110
26, 90912, Note_on_c, 15, 75, 110
26, 90912, Note_on_c, 15, 80, 110
26, 91006, Note_on_c, 15, 72, 0
26, 91006, Note_on_c, 15, 75, 0
26, 91006, Note_on_c, 15, 80, 0
26, 91008, Note_on_c, 15, 72, 110
26, 91008, Note_on_c, 15, 75, 110
26, 91008, Note_on_c, 15, 80, 110
26, 91168, Note_on_c, 15, 72, 0
26, 91168, Note_on_c, 15, 75, 0
26, 91168, Note_on_c, 15, 80, 0
26, 91168, End_track
27, 0, Start_track
27, 0, MIDI_port, 0
27, 0, Title_t, "Distotion GT"
27, 0, Program_c, 2, 30
27, 0, Pitch_bend_c, 2, 8192
27, 0, Control_c, 2, 7, 127
27, 0, Control_c, 2, 10, 64
27, 91392, Note_on_c, 2, 37, 110
27, 91392, Note_on_c, 2, 49, 110
27, 92880, Note_on_c, 2, 37, 0
27, 92880, Note_on_c, 2, 49, 0
27, 92928, Note_on_c, 2, 35, 110
27, 92928, Note_on_c, 2, 47, 110
27, 94416, Note_on_c, 2, 35, 0
27, 94416, Note_on_c, 2, 47, 0
27, 94464, Note_on_c, 2, 33, 110
27, 94464, Note_on_c, 2, 45, 110
27, 95184, Note_on_c, 2, 33, 0
27, 95184, Note_on_c, 2, 45, 0
27, 95232, Note_on_c, 2, 32, 110
27, 95232, Note_on_c, 2, 44, 110
27, 95952, Note_on_c, 2, 32, 0
27, 95952, Note_on_c, 2, 44, 0
27, 96000, Note_on_c, 2, 30, 110
27, 96000, Note_on_c, 2, 42, 110
27, 96720, Note_on_c, 2, 30, 0
27, 96720, Note_on_c, 2, 42, 0
27, 96768, Note_on_c, 2, 29, 110
27, 96768, Note_on_c, 2, 41, 110
27, 97104, Note_on_c, 2, 29, 0
27, 97104, Note_on_c, 2, 41, 0
27, 97152, Note_on_c, 2, 27, 110
27, 97152, Note_on_c, 2, 39, 110
27, 97488, Note_on_c, 2, 27, 0
27, 97488, Note_on_c, 2, 39, 0
27, 97536, Note_on_c, 2, 25, 110
27, 97536, Note_on_c, 2, 37, 110
27, 99232, Note_on_c, 2, 25, 0
27, 99232, Note_on_c, 2, 37, 0
27, 99232, End_track
28, 0, Start_track
28, 0, MIDI_port, 0
28, 0, Title_t, "Tempo Track"
28, 0, Control_c, 0, 7, 127
28, 0, Control_c, 0, 10, 64
28, 0, End_track
0, 0, End_of_file
