0, 0, Header, 1, 16, 192
1, 0, Start_track
1, 0, Title_t, "Travel"
1, 0, Tempo, 472440
1, 0, Key_signature, 5, "major"
1, 0, Time_signature, 4, 2, 24, 8
1, 0, End_track
2, 0, Start_track
2, 0, MIDI_port, 0
2, 0, Title_t, "Staff"
2, 0, Program_c, 2, 73
2, 0, Pitch_bend_c, 2, 8192
2, 0, Control_c, 2, 7, 127
2, 0, Control_c, 2, 10, 64
2, 7776, Note_on_c, 2, 78, 110
2, 7870, Note_on_c, 2, 78, 0
2, 7872, Note_on_c, 2, 71, 110
2, 7966, Note_on_c, 2, 71, 0
2, 7968, Note_on_c, 2, 71, 110
2, 8062, Note_on_c, 2, 71, 0
2, 8064, Note_on_c, 2, 71, 110
2, 8158, Note_on_c, 2, 71, 0
2, 8160, Note_on_c, 2, 71, 110
2, 8254, Note_on_c, 2, 71, 0
2, 8256, Note_on_c, 2, 78, 110
2, 8416, Note_on_c, 2, 78, 0
2, 8448, Note_on_c, 2, 71, 110
2, 8542, Note_on_c, 2, 71, 0
2, 8544, Note_on_c, 2, 71, 110
2, 8638, Note_on_c, 2, 71, 0
2, 8640, Note_on_c, 2, 71, 110
2, 8734, Note_on_c, 2, 71, 0
2, 8736, Note_on_c, 2, 66, 110
2, 8926, Note_on_c, 2, 66, 0
2, 8928, Note_on_c, 2, 71, 110
2, 9022, Note_on_c, 2, 71, 0
2, 9024, Note_on_c, 2, 71, 110
2, 9118, Note_on_c, 2, 71, 0
2, 9120, Note_on_c, 2, 71, 110
2, 9214, Note_on_c, 2, 71, 0
2, 9216, Note_on_c, 2, 71, 110
2, 9310, Note_on_c, 2, 71, 0
2, 9312, Note_on_c, 2, 71, 110
2, 9406, Note_on_c, 2, 71, 0
2, 9408, Note_on_c, 2, 78, 110
2, 9568, Note_on_c, 2, 78, 0
2, 9600, Note_on_c, 2, 71, 110
2, 9694, Note_on_c, 2, 71, 0
2, 9696, Note_on_c, 2, 71, 110
2, 9790, Note_on_c, 2, 71, 0
2, 9792, Note_on_c, 2, 71, 110
2, 9934, Note_on_c, 2, 71, 0
2, 9936, Note_on_c, 2, 66, 110
2, 9982, Note_on_c, 2, 66, 0
2, 9984, Note_on_c, 2, 76, 110
2, 10078, Note_on_c, 2, 76, 0
2, 10080, Note_on_c, 2, 75, 110
2, 10174, Note_on_c, 2, 75, 0
2, 10176, Note_on_c, 2, 71, 110
2, 10270, Note_on_c, 2, 71, 0
2, 10272, Note_on_c, 2, 71, 110
2, 10366, Note_on_c, 2, 71, 0
2, 10464, Note_on_c, 2, 66, 110
2, 10558, Note_on_c, 2, 66, 0
2, 10560, Note_on_c, 2, 75, 110
2, 10654, Note_on_c, 2, 75, 0
2, 10656, Note_on_c, 2, 73, 110
2, 10846, Note_on_c, 2, 73, 0
2, 10848, Note_on_c, 2, 73, 110
2, 10942, Note_on_c, 2, 73, 0
2, 10944, Note_on_c, 2, 75, 110
2, 11038, Note_on_c, 2, 75, 0
2, 11040, Note_on_c, 2, 73, 110
2, 11134, Note_on_c, 2, 73, 0
2, 11136, Note_on_c, 2, 75, 110
2, 11230, Note_on_c, 2, 75, 0
2, 11232, Note_on_c, 2, 73, 110
2, 11326, Note_on_c, 2, 73, 0
2, 11328, Note_on_c, 2, 76, 110
2, 11422, Note_on_c, 2, 76, 0
2, 11424, Note_on_c, 2, 75, 110
2, 11518, Note_on_c, 2, 75, 0
2, 11616, Note_on_c, 2, 71, 110
2, 11710, Note_on_c, 2, 71, 0
2, 11712, Note_on_c, 2, 71, 110
2, 11854, Note_on_c, 2, 71, 0
2, 11856, Note_on_c, 2, 66, 110
2, 11902, Note_on_c, 2, 66, 0
2, 11904, Note_on_c, 2, 71, 110
2, 11998, Note_on_c, 2, 71, 0
2, 12000, Note_on_c, 2, 73, 110
2, 12094, Note_on_c, 2, 73, 0
2, 12096, Note_on_c, 2, 75, 110
2, 12238, Note_on_c, 2, 75, 0
2, 12240, Note_on_c, 2, 66, 110
2, 12286, Note_on_c, 2, 66, 0
2, 12288, Note_on_c, 2, 66, 110
2, 12382, Note_on_c, 2, 66, 0
2, 12384, Note_on_c, 2, 71, 110
2, 12478, Note_on_c, 2, 71, 0
2, 12480, Note_on_c, 2, 71, 110
2, 12574, Note_on_c, 2, 71, 0
2, 12576, Note_on_c, 2, 71, 110
2, 12670, Note_on_c, 2, 71, 0
2, 12672, Note_on_c, 2, 71, 110
2, 12766, Note_on_c, 2, 71, 0
2, 12768, Note_on_c, 2, 71, 110
2, 12862, Note_on_c, 2, 71, 0
2, 12864, Note_on_c, 2, 71, 110
2, 13006, Note_on_c, 2, 71, 0
2, 13008, Note_on_c, 2, 66, 110
2, 13054, Note_on_c, 2, 66, 0
2, 13056, Note_on_c, 2, 76, 110
2, 13150, Note_on_c, 2, 76, 0
2, 13152, Note_on_c, 2, 75, 110
2, 13408, Note_on_c, 2, 75, 0
2, 13632, Note_on_c, 2, 71, 110
2, 13726, Note_on_c, 2, 71, 0
2, 13728, Note_on_c, 2, 71, 110
2, 13822, Note_on_c, 2, 71, 0
2, 13824, Note_on_c, 2, 71, 110
2, 13918, Note_on_c, 2, 71, 0
2, 13920, Note_on_c, 2, 73, 110
2, 14014, Note_on_c, 2, 73, 0
2, 14016, Note_on_c, 2, 73, 110
2, 14110, Note_on_c, 2, 73, 0
2, 14112, Note_on_c, 2, 71, 110
2, 14206, Note_on_c, 2, 71, 0
2, 14208, Note_on_c, 2, 71, 110
2, 14302, Note_on_c, 2, 71, 0
2, 14304, Note_on_c, 2, 73, 110
2, 14398, Note_on_c, 2, 73, 0
2, 14400, Note_on_c, 2, 73, 110
2, 14494, Note_on_c, 2, 73, 0
2, 14496, Note_on_c, 2, 71, 110
2, 14590, Note_on_c, 2, 71, 0
2, 14592, Note_on_c, 2, 71, 110
2, 14686, Note_on_c, 2, 71, 0
2, 14688, Note_on_c, 2, 73, 110
2, 14782, Note_on_c, 2, 73, 0
2, 14784, Note_on_c, 2, 73, 110
2, 14944, Note_on_c, 2, 73, 0
2, 15168, Note_on_c, 2, 71, 110
2, 15262, Note_on_c, 2, 71, 0
2, 15264, Note_on_c, 2, 71, 110
2, 15358, Note_on_c, 2, 71, 0
2, 15360, Note_on_c, 2, 71, 110
2, 15454, Note_on_c, 2, 71, 0
2, 15456, Note_on_c, 2, 73, 110
2, 15550, Note_on_c, 2, 73, 0
2, 15552, Note_on_c, 2, 73, 110
2, 15646, Note_on_c, 2, 73, 0
2, 15648, Note_on_c, 2, 71, 110
2, 15742, Note_on_c, 2, 71, 0
2, 15744, Note_on_c, 2, 71, 110
2, 15838, Note_on_c, 2, 71, 0
2, 15840, Note_on_c, 2, 73, 110
2, 15934, Note_on_c, 2, 73, 0
2, 15936, Note_on_c, 2, 73, 110
2, 16030, Note_on_c, 2, 73, 0
2, 16032, Note_on_c, 2, 71, 110
2, 16126, Note_on_c, 2, 71, 0
2, 16128, Note_on_c, 2, 76, 110
2, 16222, Note_on_c, 2, 76, 0
2, 16224, Note_on_c, 2, 75, 110
2, 16318, Note_on_c, 2, 75, 0
2, 16320, Note_on_c, 2, 71, 110
2, 16480, Note_on_c, 2, 71, 0
2, 16656, Note_on_c, 2, 66, 110
2, 16702, Note_on_c, 2, 66, 0
2, 16704, Note_on_c, 2, 71, 110
2, 16798, Note_on_c, 2, 71, 0
2, 16800, Note_on_c, 2, 71, 110
2, 16894, Note_on_c, 2, 71, 0
2, 16896, Note_on_c, 2, 71, 110
2, 17056, Note_on_c, 2, 71, 0
2, 17088, Note_on_c, 2, 71, 110
2, 17182, Note_on_c, 2, 71, 0
2, 17184, Note_on_c, 2, 71, 110
2, 17278, Note_on_c, 2, 71, 0
2, 17280, Note_on_c, 2, 71, 110
2, 17440, Note_on_c, 2, 71, 0
2, 17472, Note_on_c, 2, 71, 110
2, 17566, Note_on_c, 2, 71, 0
2, 17568, Note_on_c, 2, 71, 110
2, 17662, Note_on_c, 2, 71, 0
2, 17664, Note_on_c, 2, 66, 110
2, 17806, Note_on_c, 2, 66, 0
2, 17808, Note_on_c, 2, 66, 110
2, 17854, Note_on_c, 2, 66, 0
2, 17856, Note_on_c, 2, 71, 110
2, 17950, Note_on_c, 2, 71, 0
2, 17952, Note_on_c, 2, 71, 110
2, 18046, Note_on_c, 2, 71, 0
2, 18144, Note_on_c, 2, 71, 110
2, 18238, Note_on_c, 2, 71, 0
2, 18240, Note_on_c, 2, 71, 110
2, 18334, Note_on_c, 2, 71, 0
2, 18336, Note_on_c, 2, 73, 110
2, 18430, Note_on_c, 2, 73, 0
2, 18432, Note_on_c, 2, 76, 110
2, 18526, Note_on_c, 2, 76, 0
2, 18528, Note_on_c, 2, 75, 110
2, 18622, Note_on_c, 2, 75, 0
2, 18624, Note_on_c, 2, 71, 110
2, 18718, Note_on_c, 2, 71, 0
2, 18720, Note_on_c, 2, 76, 110
2, 18814, Note_on_c, 2, 76, 0
2, 18816, Note_on_c, 2, 75, 110
2, 18910, Note_on_c, 2, 75, 0
2, 18912, Note_on_c, 2, 71, 110
2, 19006, Note_on_c, 2, 71, 0
2, 19008, Note_on_c, 2, 76, 110
2, 19102, Note_on_c, 2, 76, 0
2, 19104, Note_on_c, 2, 75, 110
2, 19360, Note_on_c, 2, 75, 0
2, 19680, Note_on_c, 2, 78, 110
2, 19774, Note_on_c, 2, 78, 0
2, 19776, Note_on_c, 2, 80, 110
2, 19870, Note_on_c, 2, 80, 0
2, 19872, Note_on_c, 2, 83, 110
2, 19966, Note_on_c, 2, 83, 0
2, 19968, Note_on_c, 2, 83, 110
2, 20128, Note_on_c, 2, 83, 0
2, 20160, Note_on_c, 2, 80, 110
2, 20320, Note_on_c, 2, 80, 0
2, 20352, Note_on_c, 2, 78, 110
2, 20446, Note_on_c, 2, 78, 0
2, 20448, Note_on_c, 2, 75, 110
2, 20638, Note_on_c, 2, 75, 0
2, 20640, Note_on_c, 2, 75, 110
2, 20734, Note_on_c, 2, 75, 0
2, 20736, Note_on_c, 2, 73, 110
2, 20830, Note_on_c, 2, 73, 0
2, 20832, Note_on_c, 2, 71, 110
2, 20926, Note_on_c, 2, 71, 0
2, 20928, Note_on_c, 2, 73, 110
2, 21022, Note_on_c, 2, 73, 0
2, 21024, Note_on_c, 2, 75, 110
2, 21214, Note_on_c, 2, 75, 0
2, 21216, Note_on_c, 2, 78, 110
2, 21310, Note_on_c, 2, 78, 0
2, 21312, Note_on_c, 2, 80, 110
2, 21406, Note_on_c, 2, 80, 0
2, 21408, Note_on_c, 2, 83, 110
2, 21502, Note_on_c, 2, 83, 0
2, 21504, Note_on_c, 2, 83, 110
2, 21664, Note_on_c, 2, 83, 0
2, 21696, Note_on_c, 2, 80, 110
2, 21856, Note_on_c, 2, 80, 0
2, 21888, Note_on_c, 2, 78, 110
2, 21982, Note_on_c, 2, 78, 0
2, 21984, Note_on_c, 2, 75, 110
2, 22030, Note_on_c, 2, 75, 0
2, 22032, Note_on_c, 2, 73, 110
2, 22174, Note_on_c, 2, 73, 0
2, 22176, Note_on_c, 2, 73, 110
2, 22270, Note_on_c, 2, 73, 0
2, 22272, Note_on_c, 2, 73, 110
2, 22366, Note_on_c, 2, 73, 0
2, 22368, Note_on_c, 2, 71, 110
2, 22462, Note_on_c, 2, 71, 0
2, 22464, Note_on_c, 2, 78, 110
2, 22558, Note_on_c, 2, 78, 0
2, 22560, Note_on_c, 2, 73, 110
2, 22606, Note_on_c, 2, 73, 0
2, 22608, Note_on_c, 2, 75, 110
2, 22654, Note_on_c, 2, 75, 0
2, 22656, Note_on_c, 2, 73, 110
2, 22750, Note_on_c, 2, 73, 0
2, 22752, Note_on_c, 2, 75, 110
2, 22846, Note_on_c, 2, 75, 0
2, 22848, Note_on_c, 2, 73, 110
2, 22942, Note_on_c, 2, 73, 0
2, 22944, Note_on_c, 2, 71, 110
2, 23038, Note_on_c, 2, 71, 0
2, 23040, Note_on_c, 2, 73, 110
2, 23134, Note_on_c, 2, 73, 0
2, 23136, Note_on_c, 2, 74, 110
2, 23230, Note_on_c, 2, 74, 0
2, 23328, Note_on_c, 2, 73, 110
2, 23422, Note_on_c, 2, 73, 0
2, 23424, Note_on_c, 2, 74, 110
2, 23518, Note_on_c, 2, 74, 0
2, 23520, Note_on_c, 2, 75, 110
2, 23614, Note_on_c, 2, 75, 0
2, 23616, Note_on_c, 2, 73, 110
2, 23710, Note_on_c, 2, 73, 0
2, 23712, Note_on_c, 2, 71, 110
2, 23806, Note_on_c, 2, 71, 0
2, 23808, Note_on_c, 2, 71, 110
2, 23902, Note_on_c, 2, 71, 0
2, 23904, Note_on_c, 2, 73, 110
2, 23998, Note_on_c, 2, 73, 0
2, 24000, Note_on_c, 2, 75, 110
2, 24094, Note_on_c, 2, 75, 0
2, 24096, Note_on_c, 2, 73, 110
2, 24190, Note_on_c, 2, 73, 0
2, 24288, Note_on_c, 2, 71, 110
2, 24382, Note_on_c, 2, 71, 0
2, 24384, Note_on_c, 2, 71, 110
2, 24478, Note_on_c, 2, 71, 0
2, 24480, Note_on_c, 2, 68, 110
2, 24574, Note_on_c, 2, 68, 0
2, 24576, Note_on_c, 2, 71, 110
2, 24670, Note_on_c, 2, 71, 0
2, 24672, Note_on_c, 2, 68, 110
2, 24766, Note_on_c, 2, 68, 0
2, 24768, Note_on_c, 2, 71, 110
2, 24928, Note_on_c, 2, 71, 0
2, 24960, Note_on_c, 2, 66, 110
2, 25102, Note_on_c, 2, 66, 0
2, 25104, Note_on_c, 2, 66, 110
2, 25150, Note_on_c, 2, 66, 0
2, 25152, Note_on_c, 2, 68, 110
2, 25246, Note_on_c, 2, 68, 0
2, 25248, Note_on_c, 2, 71, 110
2, 25342, Note_on_c, 2, 71, 0
2, 25344, Note_on_c, 2, 68, 110
2, 25504, Note_on_c, 2, 68, 0
2, 25824, Note_on_c, 2, 78, 110
2, 25918, Note_on_c, 2, 78, 0
2, 25920, Note_on_c, 2, 80, 110
2, 26014, Note_on_c, 2, 80, 0
2, 26016, Note_on_c, 2, 83, 110
2, 26110, Note_on_c, 2, 83, 0
2, 26112, Note_on_c, 2, 83, 110
2, 26272, Note_on_c, 2, 83, 0
2, 26304, Note_on_c, 2, 80, 110
2, 26464, Note_on_c, 2, 80, 0
2, 26496, Note_on_c, 2, 78, 110
2, 26590, Note_on_c, 2, 78, 0
2, 26592, Note_on_c, 2, 75, 110
2, 26782, Note_on_c, 2, 75, 0
2, 26784, Note_on_c, 2, 73, 110
2, 26974, Note_on_c, 2, 73, 0
2, 26976, Note_on_c, 2, 71, 110
2, 27070, Note_on_c, 2, 71, 0
2, 27072, Note_on_c, 2, 73, 110
2, 27166, Note_on_c, 2, 73, 0
2, 27168, Note_on_c, 2, 75, 110
2, 27358, Note_on_c, 2, 75, 0
2, 27360, Note_on_c, 2, 78, 110
2, 27454, Note_on_c, 2, 78, 0
2, 27456, Note_on_c, 2, 80, 110
2, 27550, Note_on_c, 2, 80, 0
2, 27552, Note_on_c, 2, 83, 110
2, 27646, Note_on_c, 2, 83, 0
2, 27648, Note_on_c, 2, 83, 110
2, 27808, Note_on_c, 2, 83, 0
2, 27840, Note_on_c, 2, 80, 110
2, 28000, Note_on_c, 2, 80, 0
2, 28032, Note_on_c, 2, 78, 110
2, 28126, Note_on_c, 2, 78, 0
2, 28128, Note_on_c, 2, 73, 110
2, 28318, Note_on_c, 2, 73, 0
2, 28320, Note_on_c, 2, 73, 110
2, 28414, Note_on_c, 2, 73, 0
2, 28416, Note_on_c, 2, 73, 110
2, 28510, Note_on_c, 2, 73, 0
2, 28512, Note_on_c, 2, 71, 110
2, 28606, Note_on_c, 2, 71, 0
2, 28608, Note_on_c, 2, 78, 110
2, 28702, Note_on_c, 2, 78, 0
2, 28704, Note_on_c, 2, 75, 110
2, 28894, Note_on_c, 2, 75, 0
2, 28896, Note_on_c, 2, 75, 110
2, 28990, Note_on_c, 2, 75, 0
2, 28992, Note_on_c, 2, 73, 110
2, 29086, Note_on_c, 2, 73, 0
2, 29088, Note_on_c, 2, 71, 110
2, 29182, Note_on_c, 2, 71, 0
2, 29184, Note_on_c, 2, 73, 110
2, 29278, Note_on_c, 2, 73, 0
2, 29280, Note_on_c, 2, 75, 110
2, 29374, Note_on_c, 2, 75, 0
2, 29472, Note_on_c, 2, 73, 110
2, 29566, Note_on_c, 2, 73, 0
2, 29568, Note_on_c, 2, 75, 110
2, 29662, Note_on_c, 2, 75, 0
2, 29664, Note_on_c, 2, 75, 110
2, 29758, Note_on_c, 2, 75, 0
2, 29760, Note_on_c, 2, 73, 110
2, 29854, Note_on_c, 2, 73, 0
2, 29856, Note_on_c, 2, 71, 110
2, 29950, Note_on_c, 2, 71, 0
2, 29952, Note_on_c, 2, 71, 110
2, 30046, Note_on_c, 2, 71, 0
2, 30048, Note_on_c, 2, 73, 110
2, 30142, Note_on_c, 2, 73, 0
2, 30144, Note_on_c, 2, 75, 110
2, 30304, Note_on_c, 2, 75, 0
2, 30432, Note_on_c, 2, 68, 110
2, 30526, Note_on_c, 2, 68, 0
2, 30528, Note_on_c, 2, 71, 110
2, 30622, Note_on_c, 2, 71, 0
2, 30624, Note_on_c, 2, 68, 110
2, 30718, Note_on_c, 2, 68, 0
2, 30720, Note_on_c, 2, 71, 110
2, 30880, Note_on_c, 2, 71, 0
2, 30912, Note_on_c, 2, 71, 110
2, 31072, Note_on_c, 2, 71, 0
2, 31104, Note_on_c, 2, 66, 110
2, 31264, Note_on_c, 2, 66, 0
2, 31296, Note_on_c, 2, 68, 110
2, 31390, Note_on_c, 2, 68, 0
2, 31392, Note_on_c, 2, 71, 110
2, 31486, Note_on_c, 2, 71, 0
2, 31488, Note_on_c, 2, 71, 110
2, 31582, Note_on_c, 2, 71, 0
2, 31584, Note_on_c, 2, 66, 110
2, 31678, Note_on_c, 2, 66, 0
2, 31680, Note_on_c, 2, 68, 110
2, 31840, Note_on_c, 2, 68, 0
2, 32256, Note_on_c, 2, 71, 110
2, 32416, Note_on_c, 2, 71, 0
2, 32448, Note_on_c, 2, 78, 110
2, 32542, Note_on_c, 2, 78, 0
2, 32544, Note_on_c, 2, 75, 110
2, 32638, Note_on_c, 2, 75, 0
2, 32736, Note_on_c, 2, 73, 110
2, 32830, Note_on_c, 2, 73, 0
2, 33024, Note_on_c, 2, 71, 110
2, 33184, Note_on_c, 2, 71, 0
2, 33216, Note_on_c, 2, 78, 110
2, 33310, Note_on_c, 2, 78, 0
2, 33312, Note_on_c, 2, 75, 110
2, 33406, Note_on_c, 2, 75, 0
2, 33504, Note_on_c, 2, 73, 110
2, 33598, Note_on_c, 2, 73, 0
2, 33792, Note_on_c, 2, 71, 110
2, 33952, Note_on_c, 2, 71, 0
2, 33984, Note_on_c, 2, 78, 110
2, 34078, Note_on_c, 2, 78, 0
2, 34080, Note_on_c, 2, 75, 110
2, 34174, Note_on_c, 2, 75, 0
2, 34272, Note_on_c, 2, 71, 110
2, 34366, Note_on_c, 2, 71, 0
2, 34464, Note_on_c, 2, 71, 110
2, 34720, Note_on_c, 2, 71, 0
2, 35328, Note_on_c, 2, 71, 110
2, 35488, Note_on_c, 2, 71, 0
2, 35520, Note_on_c, 2, 78, 110
2, 35614, Note_on_c, 2, 78, 0
2, 35616, Note_on_c, 2, 75, 110
2, 35710, Note_on_c, 2, 75, 0
2, 35808, Note_on_c, 2, 73, 110
2, 35902, Note_on_c, 2, 73, 0
2, 36096, Note_on_c, 2, 71, 110
2, 36256, Note_on_c, 2, 71, 0
2, 36288, Note_on_c, 2, 78, 110
2, 36382, Note_on_c, 2, 78, 0
2, 36384, Note_on_c, 2, 75, 110
2, 36478, Note_on_c, 2, 75, 0
2, 36576, Note_on_c, 2, 73, 110
2, 36670, Note_on_c, 2, 73, 0
2, 36864, Note_on_c, 2, 71, 110
2, 37024, Note_on_c, 2, 71, 0
2, 37056, Note_on_c, 2, 78, 110
2, 37150, Note_on_c, 2, 78, 0
2, 37152, Note_on_c, 2, 75, 110
2, 37246, Note_on_c, 2, 75, 0
2, 37344, Note_on_c, 2, 71, 110
2, 37438, Note_on_c, 2, 71, 0
2, 37536, Note_on_c, 2, 71, 110
2, 37792, Note_on_c, 2, 71, 0
2, 41568, Note_on_c, 2, 78, 110
2, 41662, Note_on_c, 2, 78, 0
2, 41664, Note_on_c, 2, 71, 110
2, 41758, Note_on_c, 2, 71, 0
2, 41760, Note_on_c, 2, 71, 110
2, 41854, Note_on_c, 2, 71, 0
2, 41856, Note_on_c, 2, 71, 110
2, 41950, Note_on_c, 2, 71, 0
2, 41952, Note_on_c, 2, 71, 110
2, 42046, Note_on_c, 2, 71, 0
2, 42048, Note_on_c, 2, 78, 110
2, 42208, Note_on_c, 2, 78, 0
2, 42240, Note_on_c, 2, 71, 110
2, 42334, Note_on_c, 2, 71, 0
2, 42336, Note_on_c, 2, 71, 110
2, 42430, Note_on_c, 2, 71, 0
2, 42432, Note_on_c, 2, 71, 110
2, 42526, Note_on_c, 2, 71, 0
2, 42528, Note_on_c, 2, 66, 110
2, 42718, Note_on_c, 2, 66, 0
2, 42720, Note_on_c, 2, 71, 110
2, 42814, Note_on_c, 2, 71, 0
2, 42816, Note_on_c, 2, 71, 110
2, 42910, Note_on_c, 2, 71, 0
2, 42912, Note_on_c, 2, 71, 110
2, 43006, Note_on_c, 2, 71, 0
2, 43008, Note_on_c, 2, 71, 110
2, 43102, Note_on_c, 2, 71, 0
2, 43104, Note_on_c, 2, 71, 110
2, 43198, Note_on_c, 2, 71, 0
2, 43200, Note_on_c, 2, 78, 110
2, 43360, Note_on_c, 2, 78, 0
2, 43392, Note_on_c, 2, 71, 110
2, 43486, Note_on_c, 2, 71, 0
2, 43488, Note_on_c, 2, 71, 110
2, 43582, Note_on_c, 2, 71, 0
2, 43584, Note_on_c, 2, 71, 110
2, 43726, Note_on_c, 2, 71, 0
2, 43728, Note_on_c, 2, 66, 110
2, 43774, Note_on_c, 2, 66, 0
2, 43776, Note_on_c, 2, 76, 110
2, 43870, Note_on_c, 2, 76, 0
2, 43872, Note_on_c, 2, 75, 110
2, 43966, Note_on_c, 2, 75, 0
2, 43968, Note_on_c, 2, 71, 110
2, 44062, Note_on_c, 2, 71, 0
2, 44064, Note_on_c, 2, 71, 110
2, 44158, Note_on_c, 2, 71, 0
2, 44256, Note_on_c, 2, 66, 110
2, 44350, Note_on_c, 2, 66, 0
2, 44352, Note_on_c, 2, 73, 110
2, 44446, Note_on_c, 2, 73, 0
2, 44448, Note_on_c, 2, 75, 110
2, 44638, Note_on_c, 2, 75, 0
2, 44640, Note_on_c, 2, 73, 110
2, 44734, Note_on_c, 2, 73, 0
2, 44736, Note_on_c, 2, 75, 110
2, 44830, Note_on_c, 2, 75, 0
2, 44832, Note_on_c, 2, 73, 110
2, 44926, Note_on_c, 2, 73, 0
2, 44928, Note_on_c, 2, 75, 110
2, 45022, Note_on_c, 2, 75, 0
2, 45024, Note_on_c, 2, 73, 110
2, 45118, Note_on_c, 2, 73, 0
2, 45120, Note_on_c, 2, 76, 110
2, 45214, Note_on_c, 2, 76, 0
2, 45216, Note_on_c, 2, 75, 110
2, 45310, Note_on_c, 2, 75, 0
2, 45408, Note_on_c, 2, 71, 110
2, 45502, Note_on_c, 2, 71, 0
2, 45504, Note_on_c, 2, 71, 110
2, 45646, Note_on_c, 2, 71, 0
2, 45648, Note_on_c, 2, 66, 110
2, 45694, Note_on_c, 2, 66, 0
2, 45696, Note_on_c, 2, 71, 110
2, 45790, Note_on_c, 2, 71, 0
2, 45792, Note_on_c, 2, 73, 110
2, 45886, Note_on_c, 2, 73, 0
2, 45888, Note_on_c, 2, 75, 110
2, 46030, Note_on_c, 2, 75, 0
2, 46032, Note_on_c, 2, 66, 110
2, 46078, Note_on_c, 2, 66, 0
2, 46080, Note_on_c, 2, 66, 110
2, 46174, Note_on_c, 2, 66, 0
2, 46176, Note_on_c, 2, 71, 110
2, 46270, Note_on_c, 2, 71, 0
2, 46272, Note_on_c, 2, 71, 110
2, 46366, Note_on_c, 2, 71, 0
2, 46368, Note_on_c, 2, 71, 110
2, 46462, Note_on_c, 2, 71, 0
2, 46464, Note_on_c, 2, 71, 110
2, 46558, Note_on_c, 2, 71, 0
2, 46560, Note_on_c, 2, 71, 110
2, 46654, Note_on_c, 2, 71, 0
2, 46656, Note_on_c, 2, 66, 110
2, 46816, Note_on_c, 2, 66, 0
2, 46848, Note_on_c, 2, 76, 110
2, 46942, Note_on_c, 2, 76, 0
2, 46944, Note_on_c, 2, 75, 110
2, 47200, Note_on_c, 2, 75, 0
2, 47424, Note_on_c, 2, 71, 110
2, 47518, Note_on_c, 2, 71, 0
2, 47520, Note_on_c, 2, 71, 110
2, 47614, Note_on_c, 2, 71, 0
2, 47616, Note_on_c, 2, 71, 110
2, 47710, Note_on_c, 2, 71, 0
2, 47712, Note_on_c, 2, 73, 110
2, 47806, Note_on_c, 2, 73, 0
2, 47808, Note_on_c, 2, 73, 110
2, 47902, Note_on_c, 2, 73, 0
2, 47904, Note_on_c, 2, 71, 110
2, 47998, Note_on_c, 2, 71, 0
2, 48000, Note_on_c, 2, 71, 110
2, 48094, Note_on_c, 2, 71, 0
2, 48096, Note_on_c, 2, 73, 110
2, 48190, Note_on_c, 2, 73, 0
2, 48192, Note_on_c, 2, 73, 110
2, 48286, Note_on_c, 2, 73, 0
2, 48288, Note_on_c, 2, 71, 110
2, 48382, Note_on_c, 2, 71, 0
2, 48384, Note_on_c, 2, 71, 110
2, 48478, Note_on_c, 2, 71, 0
2, 48480, Note_on_c, 2, 73, 110
2, 48574, Note_on_c, 2, 73, 0
2, 48576, Note_on_c, 2, 73, 110
2, 48736, Note_on_c, 2, 73, 0
2, 48960, Note_on_c, 2, 71, 110
2, 49054, Note_on_c, 2, 71, 0
2, 49056, Note_on_c, 2, 71, 110
2, 49150, Note_on_c, 2, 71, 0
2, 49152, Note_on_c, 2, 71, 110
2, 49246, Note_on_c, 2, 71, 0
2, 49248, Note_on_c, 2, 73, 110
2, 49342, Note_on_c, 2, 73, 0
2, 49344, Note_on_c, 2, 73, 110
2, 49438, Note_on_c, 2, 73, 0
2, 49440, Note_on_c, 2, 71, 110
2, 49534, Note_on_c, 2, 71, 0
2, 49536, Note_on_c, 2, 71, 110
2, 49630, Note_on_c, 2, 71, 0
2, 49632, Note_on_c, 2, 73, 110
2, 49726, Note_on_c, 2, 73, 0
2, 49728, Note_on_c, 2, 73, 110
2, 49822, Note_on_c, 2, 73, 0
2, 49824, Note_on_c, 2, 71, 110
2, 49918, Note_on_c, 2, 71, 0
2, 49920, Note_on_c, 2, 76, 110
2, 50014, Note_on_c, 2, 76, 0
2, 50016, Note_on_c, 2, 75, 110
2, 50110, Note_on_c, 2, 75, 0
2, 50112, Note_on_c, 2, 71, 110
2, 50272, Note_on_c, 2, 71, 0
2, 50448, Note_on_c, 2, 66, 110
2, 50494, Note_on_c, 2, 66, 0
2, 50496, Note_on_c, 2, 71, 110
2, 50590, Note_on_c, 2, 71, 0
2, 50592, Note_on_c, 2, 71, 110
2, 50686, Note_on_c, 2, 71, 0
2, 50688, Note_on_c, 2, 71, 110
2, 50848, Note_on_c, 2, 71, 0
2, 50880, Note_on_c, 2, 71, 110
2, 50974, Note_on_c, 2, 71, 0
2, 50976, Note_on_c, 2, 71, 110
2, 51070, Note_on_c, 2, 71, 0
2, 51072, Note_on_c, 2, 71, 110
2, 51232, Note_on_c, 2, 71, 0
2, 51264, Note_on_c, 2, 71, 110
2, 51358, Note_on_c, 2, 71, 0
2, 51360, Note_on_c, 2, 71, 110
2, 51454, Note_on_c, 2, 71, 0
2, 51456, Note_on_c, 2, 66, 110
2, 51598, Note_on_c, 2, 66, 0
2, 51600, Note_on_c, 2, 66, 110
2, 51646, Note_on_c, 2, 66, 0
2, 51648, Note_on_c, 2, 71, 110
2, 51742, Note_on_c, 2, 71, 0
2, 51744, Note_on_c, 2, 71, 110
2, 51838, Note_on_c, 2, 71, 0
2, 51936, Note_on_c, 2, 71, 110
2, 52030, Note_on_c, 2, 71, 0
2, 52032, Note_on_c, 2, 71, 110
2, 52126, Note_on_c, 2, 71, 0
2, 52128, Note_on_c, 2, 73, 110
2, 52222, Note_on_c, 2, 73, 0
2, 52224, Note_on_c, 2, 76, 110
2, 52318, Note_on_c, 2, 76, 0
2, 52320, Note_on_c, 2, 75, 110
2, 52414, Note_on_c, 2, 75, 0
2, 52416, Note_on_c, 2, 71, 110
2, 52510, Note_on_c, 2, 71, 0
2, 52512, Note_on_c, 2, 76, 110
2, 52606, Note_on_c, 2, 76, 0
2, 52608, Note_on_c, 2, 75, 110
2, 52702, Note_on_c, 2, 75, 0
2, 52704, Note_on_c, 2, 71, 110
2, 52798, Note_on_c, 2, 71, 0
2, 52800, Note_on_c, 2, 76, 110
2, 52894, Note_on_c, 2, 76, 0
2, 52896, Note_on_c, 2, 75, 110
2, 53152, Note_on_c, 2, 75, 0
2, 53472, Note_on_c, 2, 78, 110
2, 53566, Note_on_c, 2, 78, 0
2, 53568, Note_on_c, 2, 80, 110
2, 53662, Note_on_c, 2, 80, 0
2, 53664, Note_on_c, 2, 83, 110
2, 53758, Note_on_c, 2, 83, 0
2, 53760, Note_on_c, 2, 83, 110
2, 53920, Note_on_c, 2, 83, 0
2, 53952, Note_on_c, 2, 80, 110
2, 54112, Note_on_c, 2, 80, 0
2, 54144, Note_on_c, 2, 78, 110
2, 54238, Note_on_c, 2, 78, 0
2, 54240, Note_on_c, 2, 75, 110
2, 54430, Note_on_c, 2, 75, 0
2, 54432, Note_on_c, 2, 75, 110
2, 54526, Note_on_c, 2, 75, 0
2, 54528, Note_on_c, 2, 73, 110
2, 54622, Note_on_c, 2, 73, 0
2, 54624, Note_on_c, 2, 71, 110
2, 54718, Note_on_c, 2, 71, 0
2, 54720, Note_on_c, 2, 73, 110
2, 54814, Note_on_c, 2, 73, 0
2, 54816, Note_on_c, 2, 75, 110
2, 55006, Note_on_c, 2, 75, 0
2, 55008, Note_on_c, 2, 78, 110
2, 55102, Note_on_c, 2, 78, 0
2, 55104, Note_on_c, 2, 80, 110
2, 55198, Note_on_c, 2, 80, 0
2, 55200, Note_on_c, 2, 83, 110
2, 55294, Note_on_c, 2, 83, 0
2, 55296, Note_on_c, 2, 83, 110
2, 55456, Note_on_c, 2, 83, 0
2, 55488, Note_on_c, 2, 80, 110
2, 55648, Note_on_c, 2, 80, 0
2, 55680, Note_on_c, 2, 78, 110
2, 55774, Note_on_c, 2, 78, 0
2, 55776, Note_on_c, 2, 75, 110
2, 55822, Note_on_c, 2, 75, 0
2, 55824, Note_on_c, 2, 73, 110
2, 55966, Note_on_c, 2, 73, 0
2, 55968, Note_on_c, 2, 73, 110
2, 56062, Note_on_c, 2, 73, 0
2, 56064, Note_on_c, 2, 73, 110
2, 56158, Note_on_c, 2, 73, 0
2, 56160, Note_on_c, 2, 71, 110
2, 56254, Note_on_c, 2, 71, 0
2, 56256, Note_on_c, 2, 78, 110
2, 56350, Note_on_c, 2, 78, 0
2, 56352, Note_on_c, 2, 73, 110
2, 56398, Note_on_c, 2, 73, 0
2, 56400, Note_on_c, 2, 75, 110
2, 56446, Note_on_c, 2, 75, 0
2, 56448, Note_on_c, 2, 73, 110
2, 56542, Note_on_c, 2, 73, 0
2, 56544, Note_on_c, 2, 75, 110
2, 56638, Note_on_c, 2, 75, 0
2, 56640, Note_on_c, 2, 73, 110
2, 56734, Note_on_c, 2, 73, 0
2, 56736, Note_on_c, 2, 71, 110
2, 56830, Note_on_c, 2, 71, 0
2, 56832, Note_on_c, 2, 73, 110
2, 56926, Note_on_c, 2, 73, 0
2, 56928, Note_on_c, 2, 74, 110
2, 57022, Note_on_c, 2, 74, 0
2, 57120, Note_on_c, 2, 73, 110
2, 57214, Note_on_c, 2, 73, 0
2, 57216, Note_on_c, 2, 74, 110
2, 57310, Note_on_c, 2, 74, 0
2, 57312, Note_on_c, 2, 75, 110
2, 57406, Note_on_c, 2, 75, 0
2, 57408, Note_on_c, 2, 73, 110
2, 57502, Note_on_c, 2, 73, 0
2, 57504, Note_on_c, 2, 71, 110
2, 57598, Note_on_c, 2, 71, 0
2, 57600, Note_on_c, 2, 71, 110
2, 57694, Note_on_c, 2, 71, 0
2, 57696, Note_on_c, 2, 73, 110
2, 57790, Note_on_c, 2, 73, 0
2, 57792, Note_on_c, 2, 75, 110
2, 57886, Note_on_c, 2, 75, 0
2, 57888, Note_on_c, 2, 73, 110
2, 57982, Note_on_c, 2, 73, 0
2, 58080, Note_on_c, 2, 71, 110
2, 58174, Note_on_c, 2, 71, 0
2, 58176, Note_on_c, 2, 71, 110
2, 58270, Note_on_c, 2, 71, 0
2, 58272, Note_on_c, 2, 68, 110
2, 58366, Note_on_c, 2, 68, 0
2, 58368, Note_on_c, 2, 71, 110
2, 58462, Note_on_c, 2, 71, 0
2, 58464, Note_on_c, 2, 68, 110
2, 58558, Note_on_c, 2, 68, 0
2, 58560, Note_on_c, 2, 71, 110
2, 58720, Note_on_c, 2, 71, 0
2, 58752, Note_on_c, 2, 66, 110
2, 58894, Note_on_c, 2, 66, 0
2, 58896, Note_on_c, 2, 66, 110
2, 58942, Note_on_c, 2, 66, 0
2, 58944, Note_on_c, 2, 68, 110
2, 59038, Note_on_c, 2, 68, 0
2, 59040, Note_on_c, 2, 71, 110
2, 59134, Note_on_c, 2, 71, 0
2, 59136, Note_on_c, 2, 68, 110
2, 59296, Note_on_c, 2, 68, 0
2, 59616, Note_on_c, 2, 78, 110
2, 59710, Note_on_c, 2, 78, 0
2, 59712, Note_on_c, 2, 80, 110
2, 59806, Note_on_c, 2, 80, 0
2, 59808, Note_on_c, 2, 83, 110
2, 59902, Note_on_c, 2, 83, 0
2, 59904, Note_on_c, 2, 83, 110
2, 60064, Note_on_c, 2, 83, 0
2, 60096, Note_on_c, 2, 80, 110
2, 60256, Note_on_c, 2, 80, 0
2, 60288, Note_on_c, 2, 78, 110
2, 60382, Note_on_c, 2, 78, 0
2, 60384, Note_on_c, 2, 75, 110
2, 60574, Note_on_c, 2, 75, 0
2, 60576, Note_on_c, 2, 73, 110
2, 60766, Note_on_c, 2, 73, 0
2, 60768, Note_on_c, 2, 71, 110
2, 60862, Note_on_c, 2, 71, 0
2, 60864, Note_on_c, 2, 73, 110
2, 60958, Note_on_c, 2, 73, 0
2, 60960, Note_on_c, 2, 75, 110
2, 61150, Note_on_c, 2, 75, 0
2, 61152, Note_on_c, 2, 78, 110
2, 61246, Note_on_c, 2, 78, 0
2, 61248, Note_on_c, 2, 80, 110
2, 61342, Note_on_c, 2, 80, 0
2, 61344, Note_on_c, 2, 83, 110
2, 61438, Note_on_c, 2, 83, 0
2, 61440, Note_on_c, 2, 83, 110
2, 61600, Note_on_c, 2, 83, 0
2, 61632, Note_on_c, 2, 80, 110
2, 61792, Note_on_c, 2, 80, 0
2, 61824, Note_on_c, 2, 78, 110
2, 61918, Note_on_c, 2, 78, 0
2, 61920, Note_on_c, 2, 73, 110
2, 62110, Note_on_c, 2, 73, 0
2, 62112, Note_on_c, 2, 73, 110
2, 62206, Note_on_c, 2, 73, 0
2, 62208, Note_on_c, 2, 73, 110
2, 62302, Note_on_c, 2, 73, 0
2, 62304, Note_on_c, 2, 71, 110
2, 62398, Note_on_c, 2, 71, 0
2, 62400, Note_on_c, 2, 78, 110
2, 62494, Note_on_c, 2, 78, 0
2, 62496, Note_on_c, 2, 75, 110
2, 62686, Note_on_c, 2, 75, 0
2, 62688, Note_on_c, 2, 75, 110
2, 62782, Note_on_c, 2, 75, 0
2, 62784, Note_on_c, 2, 73, 110
2, 62878, Note_on_c, 2, 73, 0
2, 62880, Note_on_c, 2, 71, 110
2, 62974, Note_on_c, 2, 71, 0
2, 62976, Note_on_c, 2, 73, 110
2, 63070, Note_on_c, 2, 73, 0
2, 63072, Note_on_c, 2, 75, 110
2, 63166, Note_on_c, 2, 75, 0
2, 63264, Note_on_c, 2, 73, 110
2, 63358, Note_on_c, 2, 73, 0
2, 63360, Note_on_c, 2, 75, 110
2, 63454, Note_on_c, 2, 75, 0
2, 63456, Note_on_c, 2, 75, 110
2, 63550, Note_on_c, 2, 75, 0
2, 63552, Note_on_c, 2, 73, 110
2, 63646, Note_on_c, 2, 73, 0
2, 63648, Note_on_c, 2, 71, 110
2, 63742, Note_on_c, 2, 71, 0
2, 63744, Note_on_c, 2, 71, 110
2, 63838, Note_on_c, 2, 71, 0
2, 63840, Note_on_c, 2, 73, 110
2, 63934, Note_on_c, 2, 73, 0
2, 63936, Note_on_c, 2, 75, 110
2, 64096, Note_on_c, 2, 75, 0
2, 64224, Note_on_c, 2, 68, 110
2, 64318, Note_on_c, 2, 68, 0
2, 64320, Note_on_c, 2, 71, 110
2, 64414, Note_on_c, 2, 71, 0
2, 64416, Note_on_c, 2, 68, 110
2, 64510, Note_on_c, 2, 68, 0
2, 64512, Note_on_c, 2, 71, 110
2, 64672, Note_on_c, 2, 71, 0
2, 64704, Note_on_c, 2, 71, 110
2, 64864, Note_on_c, 2, 71, 0
2, 64896, Note_on_c, 2, 66, 110
2, 65056, Note_on_c, 2, 66, 0
2, 65088, Note_on_c, 2, 68, 110
2, 65182, Note_on_c, 2, 68, 0
2, 65184, Note_on_c, 2, 71, 110
2, 65278, Note_on_c, 2, 71, 0
2, 65280, Note_on_c, 2, 71, 110
2, 65374, Note_on_c, 2, 71, 0
2, 65376, Note_on_c, 2, 66, 110
2, 65470, Note_on_c, 2, 66, 0
2, 65472, Note_on_c, 2, 68, 110
2, 65632, Note_on_c, 2, 68, 0
2, 65856, Note_on_c, 2, 75, 110
2, 65950, Note_on_c, 2, 75, 0
2, 65952, Note_on_c, 2, 76, 110
2, 66046, Note_on_c, 2, 76, 0
2, 66048, Note_on_c, 2, 78, 110
2, 66304, Note_on_c, 2, 78, 0
2, 66336, Note_on_c, 2, 75, 110
2, 66592, Note_on_c, 2, 75, 0
2, 66624, Note_on_c, 2, 73, 110
2, 66718, Note_on_c, 2, 73, 0
2, 66720, Note_on_c, 2, 71, 110
2, 67152, Note_on_c, 2, 71, 0
2, 67488, Note_on_c, 2, 71, 110
2, 67582, Note_on_c, 2, 71, 0
2, 67584, Note_on_c, 2, 78, 110
2, 67840, Note_on_c, 2, 78, 0
2, 67872, Note_on_c, 2, 75, 110
2, 68128, Note_on_c, 2, 75, 0
2, 68160, Note_on_c, 2, 76, 110
2, 68254, Note_on_c, 2, 76, 0
2, 68256, Note_on_c, 2, 75, 110
2, 68688, Note_on_c, 2, 75, 0
2, 69120, Note_on_c, 2, 78, 110
2, 69376, Note_on_c, 2, 78, 0
2, 69408, Note_on_c, 2, 75, 110
2, 69664, Note_on_c, 2, 75, 0
2, 69696, Note_on_c, 2, 73, 110
2, 69790, Note_on_c, 2, 73, 0
2, 69792, Note_on_c, 2, 71, 110
2, 69886, Note_on_c, 2, 71, 0
2, 69888, Note_on_c, 2, 73, 110
2, 69982, Note_on_c, 2, 73, 0
2, 69984, Note_on_c, 2, 71, 110
2, 70240, Note_on_c, 2, 71, 0
2, 70464, Note_on_c, 2, 73, 110
2, 70558, Note_on_c, 2, 73, 0
2, 70560, Note_on_c, 2, 71, 110
2, 70816, Note_on_c, 2, 71, 0
2, 70848, Note_on_c, 2, 73, 110
2, 70942, Note_on_c, 2, 73, 0
2, 70944, Note_on_c, 2, 71, 110
2, 71200, Note_on_c, 2, 71, 0
2, 71232, Note_on_c, 2, 73, 110
2, 71326, Note_on_c, 2, 73, 0
2, 71328, Note_on_c, 2, 71, 110
2, 71760, Note_on_c, 2, 71, 0
2, 71904, Note_on_c, 2, 78, 110
2, 71998, Note_on_c, 2, 78, 0
2, 72000, Note_on_c, 2, 82, 110
2, 72094, Note_on_c, 2, 82, 0
2, 72096, Note_on_c, 2, 83, 110
2, 72190, Note_on_c, 2, 83, 0
2, 72192, Note_on_c, 2, 85, 110
2, 72286, Note_on_c, 2, 85, 0
2, 72288, Note_on_c, 2, 83, 110
2, 72720, Note_on_c, 2, 83, 0
2, 73440, Note_on_c, 2, 78, 110
2, 73534, Note_on_c, 2, 78, 0
2, 73536, Note_on_c, 2, 80, 110
2, 73630, Note_on_c, 2, 80, 0
2, 73632, Note_on_c, 2, 83, 110
2, 73726, Note_on_c, 2, 83, 0
2, 73728, Note_on_c, 2, 83, 110
2, 73888, Note_on_c, 2, 83, 0
2, 73920, Note_on_c, 2, 80, 110
2, 74080, Note_on_c, 2, 80, 0
2, 74112, Note_on_c, 2, 78, 110
2, 74206, Note_on_c, 2, 78, 0
2, 74208, Note_on_c, 2, 75, 110
2, 74398, Note_on_c, 2, 75, 0
2, 74400, Note_on_c, 2, 73, 110
2, 74590, Note_on_c, 2, 73, 0
2, 74592, Note_on_c, 2, 71, 110
2, 74686, Note_on_c, 2, 71, 0
2, 74688, Note_on_c, 2, 73, 110
2, 74782, Note_on_c, 2, 73, 0
2, 74784, Note_on_c, 2, 75, 110
2, 74974, Note_on_c, 2, 75, 0
2, 74976, Note_on_c, 2, 78, 110
2, 75070, Note_on_c, 2, 78, 0
2, 75072, Note_on_c, 2, 80, 110
2, 75166, Note_on_c, 2, 80, 0
2, 75168, Note_on_c, 2, 83, 110
2, 75262, Note_on_c, 2, 83, 0
2, 75264, Note_on_c, 2, 83, 110
2, 75424, Note_on_c, 2, 83, 0
2, 75456, Note_on_c, 2, 80, 110
2, 75616, Note_on_c, 2, 80, 0
2, 75648, Note_on_c, 2, 78, 110
2, 75742, Note_on_c, 2, 78, 0
2, 75744, Note_on_c, 2, 73, 110
2, 75934, Note_on_c, 2, 73, 0
2, 75936, Note_on_c, 2, 73, 110
2, 76030, Note_on_c, 2, 73, 0
2, 76032, Note_on_c, 2, 73, 110
2, 76126, Note_on_c, 2, 73, 0
2, 76128, Note_on_c, 2, 71, 110
2, 76222, Note_on_c, 2, 71, 0
2, 76224, Note_on_c, 2, 78, 110
2, 76318, Note_on_c, 2, 78, 0
2, 76320, Note_on_c, 2, 75, 110
2, 76510, Note_on_c, 2, 75, 0
2, 76512, Note_on_c, 2, 75, 110
2, 76606, Note_on_c, 2, 75, 0
2, 76608, Note_on_c, 2, 73, 110
2, 76702, Note_on_c, 2, 73, 0
2, 76704, Note_on_c, 2, 71, 110
2, 76798, Note_on_c, 2, 71, 0
2, 76800, Note_on_c, 2, 73, 110
2, 76894, Note_on_c, 2, 73, 0
2, 76896, Note_on_c, 2, 75, 110
2, 76990, Note_on_c, 2, 75, 0
2, 77088, Note_on_c, 2, 73, 110
2, 77182, Note_on_c, 2, 73, 0
2, 77184, Note_on_c, 2, 75, 110
2, 77278, Note_on_c, 2, 75, 0
2, 77280, Note_on_c, 2, 75, 110
2, 77374, Note_on_c, 2, 75, 0
2, 77376, Note_on_c, 2, 73, 110
2, 77470, Note_on_c, 2, 73, 0
2, 77472, Note_on_c, 2, 71, 110
2, 77566, Note_on_c, 2, 71, 0
2, 77568, Note_on_c, 2, 71, 110
2, 77662, Note_on_c, 2, 71, 0
2, 77664, Note_on_c, 2, 73, 110
2, 77758, Note_on_c, 2, 73, 0
2, 77760, Note_on_c, 2, 75, 110
2, 77920, Note_on_c, 2, 75, 0
2, 78048, Note_on_c, 2, 68, 110
2, 78142, Note_on_c, 2, 68, 0
2, 78144, Note_on_c, 2, 71, 110
2, 78238, Note_on_c, 2, 71, 0
2, 78240, Note_on_c, 2, 68, 110
2, 78334, Note_on_c, 2, 68, 0
2, 78336, Note_on_c, 2, 71, 110
2, 78496, Note_on_c, 2, 71, 0
2, 78528, Note_on_c, 2, 71, 110
2, 78688, Note_on_c, 2, 71, 0
2, 78720, Note_on_c, 2, 66, 110
2, 78880, Note_on_c, 2, 66, 0
2, 78912, Note_on_c, 2, 68, 110
2, 79006, Note_on_c, 2, 68, 0
2, 79008, Note_on_c, 2, 71, 110
2, 79102, Note_on_c, 2, 71, 0
2, 79104, Note_on_c, 2, 71, 110
2, 79198, Note_on_c, 2, 71, 0
2, 79200, Note_on_c, 2, 66, 110
2, 79294, Note_on_c, 2, 66, 0
2, 79296, Note_on_c, 2, 68, 110
2, 79456, Note_on_c, 2, 68, 0
2, 79872, Note_on_c, 2, 71, 110
2, 80032, Note_on_c, 2, 71, 0
2, 80064, Note_on_c, 2, 78, 110
2, 80158, Note_on_c, 2, 78, 0
2, 80160, Note_on_c, 2, 75, 110
2, 80254, Note_on_c, 2, 75, 0
2, 80352, Note_on_c, 2, 73, 110
2, 80446, Note_on_c, 2, 73, 0
2, 80640, Note_on_c, 2, 71, 110
2, 80800, Note_on_c, 2, 71, 0
2, 80832, Note_on_c, 2, 78, 110
2, 80926, Note_on_c, 2, 78, 0
2, 80928, Note_on_c, 2, 75, 110
2, 81022, Note_on_c, 2, 75, 0
2, 81120, Note_on_c, 2, 73, 110
2, 81214, Note_on_c, 2, 73, 0
2, 81408, Note_on_c, 2, 71, 110
2, 81568, Note_on_c, 2, 71, 0
2, 81600, Note_on_c, 2, 78, 110
2, 81694, Note_on_c, 2, 78, 0
2, 81696, Note_on_c, 2, 75, 110
2, 81790, Note_on_c, 2, 75, 0
2, 81888, Note_on_c, 2, 71, 110
2, 81982, Note_on_c, 2, 71, 0
2, 82080, Note_on_c, 2, 71, 110
2, 82336, Note_on_c, 2, 71, 0
2, 82944, Note_on_c, 2, 71, 110
2, 83104, Note_on_c, 2, 71, 0
2, 83136, Note_on_c, 2, 78, 110
2, 83230, Note_on_c, 2, 78, 0
2, 83232, Note_on_c, 2, 75, 110
2, 83326, Note_on_c, 2, 75, 0
2, 83424, Note_on_c, 2, 73, 110
2, 83518, Note_on_c, 2, 73, 0
2, 83712, Note_on_c, 2, 71, 110
2, 83872, Note_on_c, 2, 71, 0
2, 83904, Note_on_c, 2, 78, 110
2, 83998, Note_on_c, 2, 78, 0
2, 84000, Note_on_c, 2, 75, 110
2, 84094, Note_on_c, 2, 75, 0
2, 84192, Note_on_c, 2, 73, 110
2, 84286, Note_on_c, 2, 73, 0
2, 84480, Note_on_c, 2, 71, 110
2, 84640, Note_on_c, 2, 71, 0
2, 84672, Note_on_c, 2, 78, 110
2, 84766, Note_on_c, 2, 78, 0
2, 84768, Note_on_c, 2, 75, 110
2, 84862, Note_on_c, 2, 75, 0
2, 84960, Note_on_c, 2, 71, 110
2, 85054, Note_on_c, 2, 71, 0
2, 85152, Note_on_c, 2, 71, 110
2, 85408, Note_on_c, 2, 71, 0
2, 86016, Note_on_c, 2, 71, 110
2, 86176, Note_on_c, 2, 71, 0
2, 86208, Note_on_c, 2, 78, 110
2, 86302, Note_on_c, 2, 78, 0
2, 86304, Note_on_c, 2, 75, 110
2, 86398, Note_on_c, 2, 75, 0
2, 86496, Note_on_c, 2, 71, 110
2, 86590, Note_on_c, 2, 71, 0
2, 86688, Note_on_c, 2, 71, 110
2, 87120, Note_on_c, 2, 71, 0
2, 87120, End_track
3, 0, Start_track
3, 0, MIDI_port, 0
3, 0, Title_t, "Staff-2"
3, 0, Program_c, 0, 73
3, 0, Pitch_bend_c, 0, 8192
3, 0, Control_c, 0, 7, 127
3, 0, Control_c, 0, 10, 64
3, 19680, Note_on_c, 0, 78, 110
3, 19774, Note_on_c, 0, 78, 0
3, 19776, Note_on_c, 0, 80, 110
3, 19870, Note_on_c, 0, 80, 0
3, 19872, Note_on_c, 0, 83, 110
3, 19966, Note_on_c, 0, 83, 0
3, 19968, Note_on_c, 0, 83, 110
3, 20128, Note_on_c, 0, 83, 0
3, 20160, Note_on_c, 0, 83, 110
3, 20320, Note_on_c, 0, 83, 0
3, 20352, Note_on_c, 0, 83, 110
3, 20446, Note_on_c, 0, 83, 0
3, 20448, Note_on_c, 0, 83, 110
3, 20638, Note_on_c, 0, 83, 0
3, 20640, Note_on_c, 0, 83, 110
3, 20734, Note_on_c, 0, 83, 0
3, 20736, Note_on_c, 0, 82, 110
3, 20830, Note_on_c, 0, 82, 0
3, 20832, Note_on_c, 0, 80, 110
3, 20926, Note_on_c, 0, 80, 0
3, 20928, Note_on_c, 0, 82, 110
3, 21022, Note_on_c, 0, 82, 0
3, 21024, Note_on_c, 0, 83, 110
3, 21280, Note_on_c, 0, 83, 0
3, 25824, Note_on_c, 0, 78, 110
3, 25918, Note_on_c, 0, 78, 0
3, 25920, Note_on_c, 0, 80, 110
3, 26014, Note_on_c, 0, 80, 0
3, 26016, Note_on_c, 0, 83, 110
3, 26110, Note_on_c, 0, 83, 0
3, 26112, Note_on_c, 0, 83, 110
3, 26272, Note_on_c, 0, 83, 0
3, 26304, Note_on_c, 0, 83, 110
3, 26464, Note_on_c, 0, 83, 0
3, 26496, Note_on_c, 0, 83, 110
3, 26590, Note_on_c, 0, 83, 0
3, 26592, Note_on_c, 0, 83, 110
3, 26782, Note_on_c, 0, 83, 0
3, 26784, Note_on_c, 0, 83, 110
3, 26878, Note_on_c, 0, 83, 0
3, 26880, Note_on_c, 0, 82, 110
3, 26974, Note_on_c, 0, 82, 0
3, 26976, Note_on_c, 0, 80, 110
3, 27070, Note_on_c, 0, 80, 0
3, 27072, Note_on_c, 0, 82, 110
3, 27166, Note_on_c, 0, 82, 0
3, 27168, Note_on_c, 0, 83, 110
3, 27424, Note_on_c, 0, 83, 0
3, 52992, Note_on_c, 0, 75, 110
3, 53152, Note_on_c, 0, 75, 0
3, 53472, Note_on_c, 0, 78, 110
3, 53566, Note_on_c, 0, 78, 0
3, 53568, Note_on_c, 0, 80, 110
3, 53662, Note_on_c, 0, 80, 0
3, 53664, Note_on_c, 0, 83, 110
3, 53758, Note_on_c, 0, 83, 0
3, 53760, Note_on_c, 0, 83, 110
3, 53920, Note_on_c, 0, 83, 0
3, 53952, Note_on_c, 0, 83, 110
3, 54112, Note_on_c, 0, 83, 0
3, 54144, Note_on_c, 0, 83, 110
3, 54238, Note_on_c, 0, 83, 0
3, 54240, Note_on_c, 0, 83, 110
3, 54430, Note_on_c, 0, 83, 0
3, 54432, Note_on_c, 0, 83, 110
3, 54526, Note_on_c, 0, 83, 0
3, 54528, Note_on_c, 0, 82, 110
3, 54622, Note_on_c, 0, 82, 0
3, 54624, Note_on_c, 0, 80, 110
3, 54718, Note_on_c, 0, 80, 0
3, 54720, Note_on_c, 0, 82, 110
3, 54814, Note_on_c, 0, 82, 0
3, 54816, Note_on_c, 0, 83, 110
3, 55072, Note_on_c, 0, 83, 0
3, 59616, Note_on_c, 0, 78, 110
3, 59710, Note_on_c, 0, 78, 0
3, 59712, Note_on_c, 0, 80, 110
3, 59806, Note_on_c, 0, 80, 0
3, 59808, Note_on_c, 0, 83, 110
3, 59902, Note_on_c, 0, 83, 0
3, 59904, Note_on_c, 0, 83, 110
3, 60064, Note_on_c, 0, 83, 0
3, 60096, Note_on_c, 0, 83, 110
3, 60256, Note_on_c, 0, 83, 0
3, 60288, Note_on_c, 0, 83, 110
3, 60382, Note_on_c, 0, 83, 0
3, 60384, Note_on_c, 0, 83, 110
3, 60574, Note_on_c, 0, 83, 0
3, 60576, Note_on_c, 0, 83, 110
3, 60670, Note_on_c, 0, 83, 0
3, 60672, Note_on_c, 0, 82, 110
3, 60766, Note_on_c, 0, 82, 0
3, 60768, Note_on_c, 0, 80, 110
3, 60862, Note_on_c, 0, 80, 0
3, 60864, Note_on_c, 0, 82, 110
3, 60958, Note_on_c, 0, 82, 0
3, 60960, Note_on_c, 0, 83, 110
3, 61216, Note_on_c, 0, 83, 0
3, 73440, Note_on_c, 0, 78, 110
3, 73534, Note_on_c, 0, 78, 0
3, 73536, Note_on_c, 0, 80, 110
3, 73630, Note_on_c, 0, 80, 0
3, 73632, Note_on_c, 0, 83, 110
3, 73726, Note_on_c, 0, 83, 0
3, 73728, Note_on_c, 0, 83, 110
3, 73888, Note_on_c, 0, 83, 0
3, 73920, Note_on_c, 0, 83, 110
3, 74080, Note_on_c, 0, 83, 0
3, 74112, Note_on_c, 0, 83, 110
3, 74206, Note_on_c, 0, 83, 0
3, 74208, Note_on_c, 0, 83, 110
3, 74398, Note_on_c, 0, 83, 0
3, 74400, Note_on_c, 0, 83, 110
3, 74494, Note_on_c, 0, 83, 0
3, 74496, Note_on_c, 0, 82, 110
3, 74590, Note_on_c, 0, 82, 0
3, 74592, Note_on_c, 0, 80, 110
3, 74686, Note_on_c, 0, 80, 0
3, 74688, Note_on_c, 0, 82, 110
3, 74782, Note_on_c, 0, 82, 0
3, 74784, Note_on_c, 0, 83, 110
3, 75040, Note_on_c, 0, 83, 0
3, 75264, Note_on_c, 0, 87, 110
3, 75984, Note_on_c, 0, 87, 0
3, 76032, Note_on_c, 0, 83, 110
3, 76288, Note_on_c, 0, 83, 0
3, 76320, Note_on_c, 0, 82, 110
3, 76576, Note_on_c, 0, 82, 0
3, 76608, Note_on_c, 0, 83, 110
3, 76768, Note_on_c, 0, 83, 0
3, 77568, Note_on_c, 0, 83, 110
3, 77662, Note_on_c, 0, 83, 0
3, 77664, Note_on_c, 0, 85, 110
3, 77758, Note_on_c, 0, 85, 0
3, 77760, Note_on_c, 0, 87, 110
3, 77854, Note_on_c, 0, 87, 0
3, 77856, Note_on_c, 0, 85, 110
3, 78288, Note_on_c, 0, 85, 0
3, 78912, Note_on_c, 0, 80, 110
3, 79006, Note_on_c, 0, 80, 0
3, 79008, Note_on_c, 0, 83, 110
3, 79102, Note_on_c, 0, 83, 0
3, 79104, Note_on_c, 0, 83, 110
3, 79198, Note_on_c, 0, 83, 0
3, 79200, Note_on_c, 0, 78, 110
3, 79294, Note_on_c, 0, 78, 0
3, 79296, Note_on_c, 0, 80, 110
3, 79774, Note_on_c, 0, 80, 0
3, 79776, Note_on_c, 0, 82, 110
3, 79870, Note_on_c, 0, 82, 0
3, 79872, Note_on_c, 0, 83, 110
3, 81360, Note_on_c, 0, 83, 0
3, 81360, End_track
4, 0, Start_track
4, 0, MIDI_port, 0
4, 0, Title_t, "Staff-3"
4, 0, Program_c, 0, 0
4, 0, Pitch_bend_c, 0, 8192
4, 0, Control_c, 0, 7, 127
4, 0, Control_c, 0, 10, 64
4, 1536, Note_on_c, 0, 66, 110
4, 3024, Note_on_c, 0, 66, 0
4, 3072, Note_on_c, 0, 59, 110
4, 4560, Note_on_c, 0, 59, 0
4, 4608, Note_on_c, 0, 66, 110
4, 6096, Note_on_c, 0, 66, 0
4, 6144, Note_on_c, 0, 59, 110
4, 7632, Note_on_c, 0, 59, 0
4, 7680, Note_on_c, 0, 66, 110
4, 9168, Note_on_c, 0, 66, 0
4, 9216, Note_on_c, 0, 59, 110
4, 10704, Note_on_c, 0, 59, 0
4, 10752, Note_on_c, 0, 66, 110
4, 12240, Note_on_c, 0, 66, 0
4, 12288, Note_on_c, 0, 59, 110
4, 13776, Note_on_c, 0, 59, 0
4, 13824, Note_on_c, 0, 76, 110
4, 14160, Note_on_c, 0, 76, 0
4, 14208, Note_on_c, 0, 75, 110
4, 14544, Note_on_c, 0, 75, 0
4, 14592, Note_on_c, 0, 73, 110
4, 15312, Note_on_c, 0, 73, 0
4, 15360, Note_on_c, 0, 76, 110
4, 15696, Note_on_c, 0, 76, 0
4, 15744, Note_on_c, 0, 75, 110
4, 16080, Note_on_c, 0, 75, 0
4, 16128, Note_on_c, 0, 73, 110
4, 16848, Note_on_c, 0, 73, 0
4, 16896, Note_on_c, 0, 76, 110
4, 17232, Note_on_c, 0, 76, 0
4, 17280, Note_on_c, 0, 75, 110
4, 17616, Note_on_c, 0, 75, 0
4, 17664, Note_on_c, 0, 73, 110
4, 18384, Note_on_c, 0, 73, 0
4, 18720, Note_on_c, 0, 68, 110
4, 18814, Note_on_c, 0, 68, 0
4, 18816, Note_on_c, 0, 71, 110
4, 18910, Note_on_c, 0, 71, 0
4, 18912, Note_on_c, 0, 75, 110
4, 19168, Note_on_c, 0, 75, 0
4, 19200, Note_on_c, 0, 66, 110
4, 19200, Note_on_c, 0, 73, 110
4, 19920, Note_on_c, 0, 66, 0
4, 19920, Note_on_c, 0, 73, 0
4, 19968, Note_on_c, 0, 76, 110
4, 20062, Note_on_c, 0, 76, 0
4, 20064, Note_on_c, 0, 71, 110
4, 20158, Note_on_c, 0, 71, 0
4, 20160, Note_on_c, 0, 66, 110
4, 20254, Note_on_c, 0, 66, 0
4, 20256, Note_on_c, 0, 76, 110
4, 20350, Note_on_c, 0, 76, 0
4, 20352, Note_on_c, 0, 71, 110
4, 20446, Note_on_c, 0, 71, 0
4, 20448, Note_on_c, 0, 66, 110
4, 20542, Note_on_c, 0, 66, 0
4, 20544, Note_on_c, 0, 76, 110
4, 20638, Note_on_c, 0, 76, 0
4, 20640, Note_on_c, 0, 71, 110
4, 20734, Note_on_c, 0, 71, 0
4, 20736, Note_on_c, 0, 73, 110
4, 20830, Note_on_c, 0, 73, 0
4, 20832, Note_on_c, 0, 70, 110
4, 20926, Note_on_c, 0, 70, 0
4, 20928, Note_on_c, 0, 66, 110
4, 21022, Note_on_c, 0, 66, 0
4, 21024, Note_on_c, 0, 73, 110
4, 21118, Note_on_c, 0, 73, 0
4, 21120, Note_on_c, 0, 70, 110
4, 21214, Note_on_c, 0, 70, 0
4, 21216, Note_on_c, 0, 66, 110
4, 21310, Note_on_c, 0, 66, 0
4, 21312, Note_on_c, 0, 73, 110
4, 21406, Note_on_c, 0, 73, 0
4, 21408, Note_on_c, 0, 70, 110
4, 21502, Note_on_c, 0, 70, 0
4, 21504, Note_on_c, 0, 75, 110
4, 21598, Note_on_c, 0, 75, 0
4, 21600, Note_on_c, 0, 71, 110
4, 21694, Note_on_c, 0, 71, 0
4, 21696, Note_on_c, 0, 66, 110
4, 21790, Note_on_c, 0, 66, 0
4, 21792, Note_on_c, 0, 75, 110
4, 21886, Note_on_c, 0, 75, 0
4, 21888, Note_on_c, 0, 71, 110
4, 21982, Note_on_c, 0, 71, 0
4, 21984, Note_on_c, 0, 66, 110
4, 22078, Note_on_c, 0, 66, 0
4, 22080, Note_on_c, 0, 75, 110
4, 22174, Note_on_c, 0, 75, 0
4, 22176, Note_on_c, 0, 71, 110
4, 22270, Note_on_c, 0, 71, 0
4, 22272, Note_on_c, 0, 75, 110
4, 22366, Note_on_c, 0, 75, 0
4, 22368, Note_on_c, 0, 71, 110
4, 22462, Note_on_c, 0, 71, 0
4, 22464, Note_on_c, 0, 66, 110
4, 22558, Note_on_c, 0, 66, 0
4, 22560, Note_on_c, 0, 75, 110
4, 22654, Note_on_c, 0, 75, 0
4, 22656, Note_on_c, 0, 71, 110
4, 22750, Note_on_c, 0, 71, 0
4, 22752, Note_on_c, 0, 66, 110
4, 22846, Note_on_c, 0, 66, 0
4, 22848, Note_on_c, 0, 75, 110
4, 22942, Note_on_c, 0, 75, 0
4, 22944, Note_on_c, 0, 71, 110
4, 23038, Note_on_c, 0, 71, 0
4, 23040, Note_on_c, 0, 76, 110
4, 23134, Note_on_c, 0, 76, 0
4, 23136, Note_on_c, 0, 71, 110
4, 23230, Note_on_c, 0, 71, 0
4, 23232, Note_on_c, 0, 66, 110
4, 23326, Note_on_c, 0, 66, 0
4, 23328, Note_on_c, 0, 76, 110
4, 23422, Note_on_c, 0, 76, 0
4, 23424, Note_on_c, 0, 71, 110
4, 23518, Note_on_c, 0, 71, 0
4, 23520, Note_on_c, 0, 66, 110
4, 23614, Note_on_c, 0, 66, 0
4, 23616, Note_on_c, 0, 76, 110
4, 23710, Note_on_c, 0, 76, 0
4, 23712, Note_on_c, 0, 71, 110
4, 23806, Note_on_c, 0, 71, 0
4, 23808, Note_on_c, 0, 73, 110
4, 23902, Note_on_c, 0, 73, 0
4, 23904, Note_on_c, 0, 70, 110
4, 23998, Note_on_c, 0, 70, 0
4, 24000, Note_on_c, 0, 66, 110
4, 24094, Note_on_c, 0, 66, 0
4, 24096, Note_on_c, 0, 73, 110
4, 24190, Note_on_c, 0, 73, 0
4, 24192, Note_on_c, 0, 70, 110
4, 24286, Note_on_c, 0, 70, 0
4, 24288, Note_on_c, 0, 66, 110
4, 24382, Note_on_c, 0, 66, 0
4, 24384, Note_on_c, 0, 73, 110
4, 24478, Note_on_c, 0, 73, 0
4, 24480, Note_on_c, 0, 70, 110
4, 24574, Note_on_c, 0, 70, 0
4, 24576, Note_on_c, 0, 75, 110
4, 24670, Note_on_c, 0, 75, 0
4, 24672, Note_on_c, 0, 71, 110
4, 24766, Note_on_c, 0, 71, 0
4, 24768, Note_on_c, 0, 66, 110
4, 24862, Note_on_c, 0, 66, 0
4, 24864, Note_on_c, 0, 75, 110
4, 24958, Note_on_c, 0, 75, 0
4, 24960, Note_on_c, 0, 71, 110
4, 25054, Note_on_c, 0, 71, 0
4, 25056, Note_on_c, 0, 66, 110
4, 25150, Note_on_c, 0, 66, 0
4, 25152, Note_on_c, 0, 75, 110
4, 25246, Note_on_c, 0, 75, 0
4, 25248, Note_on_c, 0, 71, 110
4, 25342, Note_on_c, 0, 71, 0
4, 25344, Note_on_c, 0, 75, 110
4, 25438, Note_on_c, 0, 75, 0
4, 25440, Note_on_c, 0, 71, 110
4, 25534, Note_on_c, 0, 71, 0
4, 25536, Note_on_c, 0, 66, 110
4, 25630, Note_on_c, 0, 66, 0
4, 25632, Note_on_c, 0, 75, 110
4, 25726, Note_on_c, 0, 75, 0
4, 25728, Note_on_c, 0, 71, 110
4, 25822, Note_on_c, 0, 71, 0
4, 25824, Note_on_c, 0, 66, 110
4, 25918, Note_on_c, 0, 66, 0
4, 25920, Note_on_c, 0, 75, 110
4, 26014, Note_on_c, 0, 75, 0
4, 26016, Note_on_c, 0, 71, 110
4, 26110, Note_on_c, 0, 71, 0
4, 26112, Note_on_c, 0, 76, 110
4, 26206, Note_on_c, 0, 76, 0
4, 26208, Note_on_c, 0, 71, 110
4, 26302, Note_on_c, 0, 71, 0
4, 26304, Note_on_c, 0, 66, 110
4, 26398, Note_on_c, 0, 66, 0
4, 26400, Note_on_c, 0, 76, 110
4, 26494, Note_on_c, 0, 76, 0
4, 26496, Note_on_c, 0, 71, 110
4, 26590, Note_on_c, 0, 71, 0
4, 26592, Note_on_c, 0, 66, 110
4, 26686, Note_on_c, 0, 66, 0
4, 26688, Note_on_c, 0, 76, 110
4, 26782, Note_on_c, 0, 76, 0
4, 26784, Note_on_c, 0, 71, 110
4, 26878, Note_on_c, 0, 71, 0
4, 26880, Note_on_c, 0, 73, 110
4, 26974, Note_on_c, 0, 73, 0
4, 26976, Note_on_c, 0, 70, 110
4, 27070, Note_on_c, 0, 70, 0
4, 27072, Note_on_c, 0, 66, 110
4, 27166, Note_on_c, 0, 66, 0
4, 27168, Note_on_c, 0, 73, 110
4, 27262, Note_on_c, 0, 73, 0
4, 27264, Note_on_c, 0, 70, 110
4, 27358, Note_on_c, 0, 70, 0
4, 27360, Note_on_c, 0, 66, 110
4, 27454, Note_on_c, 0, 66, 0
4, 27456, Note_on_c, 0, 73, 110
4, 27550, Note_on_c, 0, 73, 0
4, 27552, Note_on_c, 0, 70, 110
4, 27646, Note_on_c, 0, 70, 0
4, 27648, Note_on_c, 0, 75, 110
4, 27742, Note_on_c, 0, 75, 0
4, 27744, Note_on_c, 0, 71, 110
4, 27838, Note_on_c, 0, 71, 0
4, 27840, Note_on_c, 0, 66, 110
4, 27934, Note_on_c, 0, 66, 0
4, 27936, Note_on_c, 0, 75, 110
4, 28030, Note_on_c, 0, 75, 0
4, 28032, Note_on_c, 0, 71, 110
4, 28126, Note_on_c, 0, 71, 0
4, 28128, Note_on_c, 0, 66, 110
4, 28222, Note_on_c, 0, 66, 0
4, 28224, Note_on_c, 0, 75, 110
4, 28318, Note_on_c, 0, 75, 0
4, 28320, Note_on_c, 0, 71, 110
4, 28414, Note_on_c, 0, 71, 0
4, 28416, Note_on_c, 0, 75, 110
4, 28510, Note_on_c, 0, 75, 0
4, 28512, Note_on_c, 0, 71, 110
4, 28606, Note_on_c, 0, 71, 0
4, 28608, Note_on_c, 0, 66, 110
4, 28702, Note_on_c, 0, 66, 0
4, 28704, Note_on_c, 0, 75, 110
4, 28798, Note_on_c, 0, 75, 0
4, 28800, Note_on_c, 0, 71, 110
4, 28894, Note_on_c, 0, 71, 0
4, 28896, Note_on_c, 0, 66, 110
4, 28990, Note_on_c, 0, 66, 0
4, 28992, Note_on_c, 0, 75, 110
4, 29086, Note_on_c, 0, 75, 0
4, 29088, Note_on_c, 0, 71, 110
4, 29182, Note_on_c, 0, 71, 0
4, 29184, Note_on_c, 0, 76, 110
4, 29278, Note_on_c, 0, 76, 0
4, 29280, Note_on_c, 0, 71, 110
4, 29374, Note_on_c, 0, 71, 0
4, 29376, Note_on_c, 0, 66, 110
4, 29470, Note_on_c, 0, 66, 0
4, 29472, Note_on_c, 0, 76, 110
4, 29566, Note_on_c, 0, 76, 0
4, 29568, Note_on_c, 0, 71, 110
4, 29662, Note_on_c, 0, 71, 0
4, 29664, Note_on_c, 0, 66, 110
4, 29758, Note_on_c, 0, 66, 0
4, 29760, Note_on_c, 0, 76, 110
4, 29854, Note_on_c, 0, 76, 0
4, 29856, Note_on_c, 0, 71, 110
4, 29950, Note_on_c, 0, 71, 0
4, 29952, Note_on_c, 0, 73, 110
4, 30046, Note_on_c, 0, 73, 0
4, 30048, Note_on_c, 0, 70, 110
4, 30142, Note_on_c, 0, 70, 0
4, 30144, Note_on_c, 0, 66, 110
4, 30238, Note_on_c, 0, 66, 0
4, 30240, Note_on_c, 0, 73, 110
4, 30334, Note_on_c, 0, 73, 0
4, 30336, Note_on_c, 0, 70, 110
4, 30430, Note_on_c, 0, 70, 0
4, 30432, Note_on_c, 0, 66, 110
4, 30526, Note_on_c, 0, 66, 0
4, 30528, Note_on_c, 0, 73, 110
4, 30622, Note_on_c, 0, 73, 0
4, 30624, Note_on_c, 0, 70, 110
4, 30718, Note_on_c, 0, 70, 0
4, 30720, Note_on_c, 0, 75, 110
4, 30814, Note_on_c, 0, 75, 0
4, 30816, Note_on_c, 0, 71, 110
4, 30910, Note_on_c, 0, 71, 0
4, 30912, Note_on_c, 0, 66, 110
4, 31006, Note_on_c, 0, 66, 0
4, 31008, Note_on_c, 0, 75, 110
4, 31102, Note_on_c, 0, 75, 0
4, 31104, Note_on_c, 0, 71, 110
4, 31198, Note_on_c, 0, 71, 0
4, 31200, Note_on_c, 0, 66, 110
4, 31294, Note_on_c, 0, 66, 0
4, 31296, Note_on_c, 0, 75, 110
4, 31390, Note_on_c, 0, 75, 0
4, 31392, Note_on_c, 0, 71, 110
4, 31486, Note_on_c, 0, 71, 0
4, 31488, Note_on_c, 0, 75, 110
4, 31582, Note_on_c, 0, 75, 0
4, 31584, Note_on_c, 0, 71, 110
4, 31678, Note_on_c, 0, 71, 0
4, 31680, Note_on_c, 0, 66, 110
4, 31774, Note_on_c, 0, 66, 0
4, 31776, Note_on_c, 0, 75, 110
4, 31870, Note_on_c, 0, 75, 0
4, 31872, Note_on_c, 0, 71, 110
4, 31966, Note_on_c, 0, 71, 0
4, 31968, Note_on_c, 0, 66, 110
4, 32062, Note_on_c, 0, 66, 0
4, 32064, Note_on_c, 0, 75, 110
4, 32158, Note_on_c, 0, 75, 0
4, 32160, Note_on_c, 0, 71, 110
4, 32254, Note_on_c, 0, 71, 0
4, 32256, Note_on_c, 0, 78, 110
4, 32398, Note_on_c, 0, 78, 0
4, 32400, Note_on_c, 0, 71, 110
4, 32542, Note_on_c, 0, 71, 0
4, 32544, Note_on_c, 0, 78, 110
4, 32734, Note_on_c, 0, 78, 0
4, 32736, Note_on_c, 0, 71, 110
4, 32926, Note_on_c, 0, 71, 0
4, 32928, Note_on_c, 0, 71, 110
4, 33022, Note_on_c, 0, 71, 0
4, 33024, Note_on_c, 0, 78, 110
4, 33166, Note_on_c, 0, 78, 0
4, 33168, Note_on_c, 0, 71, 110
4, 33310, Note_on_c, 0, 71, 0
4, 33312, Note_on_c, 0, 78, 110
4, 33502, Note_on_c, 0, 78, 0
4, 33504, Note_on_c, 0, 71, 110
4, 33694, Note_on_c, 0, 71, 0
4, 33696, Note_on_c, 0, 71, 110
4, 33790, Note_on_c, 0, 71, 0
4, 33792, Note_on_c, 0, 78, 110
4, 33934, Note_on_c, 0, 78, 0
4, 33936, Note_on_c, 0, 71, 110
4, 34078, Note_on_c, 0, 71, 0
4, 34080, Note_on_c, 0, 78, 110
4, 34270, Note_on_c, 0, 78, 0
4, 34272, Note_on_c, 0, 71, 110
4, 34462, Note_on_c, 0, 71, 0
4, 34464, Note_on_c, 0, 71, 110
4, 34558, Note_on_c, 0, 71, 0
4, 34560, Note_on_c, 0, 78, 110
4, 34702, Note_on_c, 0, 78, 0
4, 34704, Note_on_c, 0, 71, 110
4, 34846, Note_on_c, 0, 71, 0
4, 34848, Note_on_c, 0, 78, 110
4, 35038, Note_on_c, 0, 78, 0
4, 35040, Note_on_c, 0, 71, 110
4, 35230, Note_on_c, 0, 71, 0
4, 35232, Note_on_c, 0, 71, 110
4, 35326, Note_on_c, 0, 71, 0
4, 35328, Note_on_c, 0, 78, 110
4, 35470, Note_on_c, 0, 78, 0
4, 35472, Note_on_c, 0, 71, 110
4, 35614, Note_on_c, 0, 71, 0
4, 35616, Note_on_c, 0, 78, 110
4, 35806, Note_on_c, 0, 78, 0
4, 35808, Note_on_c, 0, 71, 110
4, 35998, Note_on_c, 0, 71, 0
4, 36000, Note_on_c, 0, 71, 110
4, 36094, Note_on_c, 0, 71, 0
4, 36096, Note_on_c, 0, 78, 110
4, 36238, Note_on_c, 0, 78, 0
4, 36240, Note_on_c, 0, 71, 110
4, 36382, Note_on_c, 0, 71, 0
4, 36384, Note_on_c, 0, 78, 110
4, 36574, Note_on_c, 0, 78, 0
4, 36576, Note_on_c, 0, 71, 110
4, 36766, Note_on_c, 0, 71, 0
4, 36768, Note_on_c, 0, 71, 110
4, 36862, Note_on_c, 0, 71, 0
4, 36864, Note_on_c, 0, 78, 110
4, 37006, Note_on_c, 0, 78, 0
4, 37008, Note_on_c, 0, 71, 110
4, 37150, Note_on_c, 0, 71, 0
4, 37152, Note_on_c, 0, 78, 110
4, 37342, Note_on_c, 0, 78, 0
4, 37344, Note_on_c, 0, 71, 110
4, 37534, Note_on_c, 0, 71, 0
4, 37536, Note_on_c, 0, 71, 110
4, 37630, Note_on_c, 0, 71, 0
4, 37632, Note_on_c, 0, 78, 110
4, 37774, Note_on_c, 0, 78, 0
4, 37776, Note_on_c, 0, 71, 110
4, 37918, Note_on_c, 0, 71, 0
4, 37920, Note_on_c, 0, 78, 110
4, 38110, Note_on_c, 0, 78, 0
4, 38112, Note_on_c, 0, 71, 110
4, 38302, Note_on_c, 0, 71, 0
4, 38304, Note_on_c, 0, 71, 110
4, 39120, Note_on_c, 0, 71, 0
4, 47616, Note_on_c, 0, 76, 110
4, 47952, Note_on_c, 0, 76, 0
4, 48000, Note_on_c, 0, 75, 110
4, 48336, Note_on_c, 0, 75, 0
4, 48384, Note_on_c, 0, 73, 110
4, 49104, Note_on_c, 0, 73, 0
4, 49152, Note_on_c, 0, 76, 110
4, 49488, Note_on_c, 0, 76, 0
4, 49536, Note_on_c, 0, 64, 110
4, 49872, Note_on_c, 0, 64, 0
4, 49920, Note_on_c, 0, 65, 110
4, 50176, Note_on_c, 0, 65, 0
4, 50208, Note_on_c, 0, 66, 110
4, 50640, Note_on_c, 0, 66, 0
4, 50688, Note_on_c, 0, 76, 110
4, 51024, Note_on_c, 0, 76, 0
4, 51072, Note_on_c, 0, 75, 110
4, 51408, Note_on_c, 0, 75, 0
4, 51456, Note_on_c, 0, 73, 110
4, 52176, Note_on_c, 0, 73, 0
4, 52512, Note_on_c, 0, 68, 110
4, 52606, Note_on_c, 0, 68, 0
4, 52608, Note_on_c, 0, 71, 110
4, 52702, Note_on_c, 0, 71, 0
4, 52704, Note_on_c, 0, 75, 110
4, 52960, Note_on_c, 0, 75, 0
4, 52992, Note_on_c, 0, 66, 110
4, 52992, Note_on_c, 0, 73, 110
4, 53152, Note_on_c, 0, 66, 0
4, 53152, Note_on_c, 0, 73, 0
4, 53184, Note_on_c, 0, 66, 110
4, 53184, Note_on_c, 0, 73, 110
4, 53712, Note_on_c, 0, 66, 0
4, 53712, Note_on_c, 0, 73, 0
4, 53760, Note_on_c, 0, 76, 110
4, 53854, Note_on_c, 0, 76, 0
4, 53856, Note_on_c, 0, 71, 110
4, 53950, Note_on_c, 0, 71, 0
4, 53952, Note_on_c, 0, 66, 110
4, 54046, Note_on_c, 0, 66, 0
4, 54048, Note_on_c, 0, 76, 110
4, 54142, Note_on_c, 0, 76, 0
4, 54144, Note_on_c, 0, 71, 110
4, 54238, Note_on_c, 0, 71, 0
4, 54240, Note_on_c, 0, 66, 110
4, 54334, Note_on_c, 0, 66, 0
4, 54336, Note_on_c, 0, 76, 110
4, 54430, Note_on_c, 0, 76, 0
4, 54432, Note_on_c, 0, 71, 110
4, 54526, Note_on_c, 0, 71, 0
4, 54528, Note_on_c, 0, 73, 110
4, 54622, Note_on_c, 0, 73, 0
4, 54624, Note_on_c, 0, 70, 110
4, 54718, Note_on_c, 0, 70, 0
4, 54720, Note_on_c, 0, 66, 110
4, 54814, Note_on_c, 0, 66, 0
4, 54816, Note_on_c, 0, 73, 110
4, 54910, Note_on_c, 0, 73, 0
4, 54912, Note_on_c, 0, 70, 110
4, 55006, Note_on_c, 0, 70, 0
4, 55008, Note_on_c, 0, 66, 110
4, 55102, Note_on_c, 0, 66, 0
4, 55104, Note_on_c, 0, 73, 110
4, 55198, Note_on_c, 0, 73, 0
4, 55200, Note_on_c, 0, 70, 110
4, 55294, Note_on_c, 0, 70, 0
4, 55296, Note_on_c, 0, 75, 110
4, 55390, Note_on_c, 0, 75, 0
4, 55392, Note_on_c, 0, 71, 110
4, 55486, Note_on_c, 0, 71, 0
4, 55488, Note_on_c, 0, 66, 110
4, 55582, Note_on_c, 0, 66, 0
4, 55584, Note_on_c, 0, 75, 110
4, 55678, Note_on_c, 0, 75, 0
4, 55680, Note_on_c, 0, 71, 110
4, 55774, Note_on_c, 0, 71, 0
4, 55776, Note_on_c, 0, 66, 110
4, 55870, Note_on_c, 0, 66, 0
4, 55872, Note_on_c, 0, 75, 110
4, 55966, Note_on_c, 0, 75, 0
4, 55968, Note_on_c, 0, 71, 110
4, 56062, Note_on_c, 0, 71, 0
4, 56064, Note_on_c, 0, 75, 110
4, 56158, Note_on_c, 0, 75, 0
4, 56160, Note_on_c, 0, 71, 110
4, 56254, Note_on_c, 0, 71, 0
4, 56256, Note_on_c, 0, 66, 110
4, 56350, Note_on_c, 0, 66, 0
4, 56352, Note_on_c, 0, 75, 110
4, 56446, Note_on_c, 0, 75, 0
4, 56448, Note_on_c, 0, 71, 110
4, 56542, Note_on_c, 0, 71, 0
4, 56544, Note_on_c, 0, 66, 110
4, 56638, Note_on_c, 0, 66, 0
4, 56640, Note_on_c, 0, 75, 110
4, 56734, Note_on_c, 0, 75, 0
4, 56736, Note_on_c, 0, 71, 110
4, 56830, Note_on_c, 0, 71, 0
4, 56832, Note_on_c, 0, 76, 110
4, 56926, Note_on_c, 0, 76, 0
4, 56928, Note_on_c, 0, 71, 110
4, 57022, Note_on_c, 0, 71, 0
4, 57024, Note_on_c, 0, 66, 110
4, 57118, Note_on_c, 0, 66, 0
4, 57120, Note_on_c, 0, 76, 110
4, 57214, Note_on_c, 0, 76, 0
4, 57216, Note_on_c, 0, 71, 110
4, 57310, Note_on_c, 0, 71, 0
4, 57312, Note_on_c, 0, 66, 110
4, 57406, Note_on_c, 0, 66, 0
4, 57408, Note_on_c, 0, 76, 110
4, 57502, Note_on_c, 0, 76, 0
4, 57504, Note_on_c, 0, 71, 110
4, 57598, Note_on_c, 0, 71, 0
4, 57600, Note_on_c, 0, 73, 110
4, 57694, Note_on_c, 0, 73, 0
4, 57696, Note_on_c, 0, 70, 110
4, 57790, Note_on_c, 0, 70, 0
4, 57792, Note_on_c, 0, 66, 110
4, 57886, Note_on_c, 0, 66, 0
4, 57888, Note_on_c, 0, 73, 110
4, 57982, Note_on_c, 0, 73, 0
4, 57984, Note_on_c, 0, 70, 110
4, 58078, Note_on_c, 0, 70, 0
4, 58080, Note_on_c, 0, 66, 110
4, 58174, Note_on_c, 0, 66, 0
4, 58176, Note_on_c, 0, 73, 110
4, 58270, Note_on_c, 0, 73, 0
4, 58272, Note_on_c, 0, 70, 110
4, 58366, Note_on_c, 0, 70, 0
4, 58368, Note_on_c, 0, 75, 110
4, 58462, Note_on_c, 0, 75, 0
4, 58464, Note_on_c, 0, 71, 110
4, 58558, Note_on_c, 0, 71, 0
4, 58560, Note_on_c, 0, 66, 110
4, 58654, Note_on_c, 0, 66, 0
4, 58656, Note_on_c, 0, 75, 110
4, 58750, Note_on_c, 0, 75, 0
4, 58752, Note_on_c, 0, 71, 110
4, 58846, Note_on_c, 0, 71, 0
4, 58848, Note_on_c, 0, 66, 110
4, 58942, Note_on_c, 0, 66, 0
4, 58944, Note_on_c, 0, 75, 110
4, 59038, Note_on_c, 0, 75, 0
4, 59040, Note_on_c, 0, 71, 110
4, 59134, Note_on_c, 0, 71, 0
4, 59136, Note_on_c, 0, 75, 110
4, 59230, Note_on_c, 0, 75, 0
4, 59232, Note_on_c, 0, 71, 110
4, 59326, Note_on_c, 0, 71, 0
4, 59328, Note_on_c, 0, 66, 110
4, 59422, Note_on_c, 0, 66, 0
4, 59424, Note_on_c, 0, 75, 110
4, 59518, Note_on_c, 0, 75, 0
4, 59520, Note_on_c, 0, 71, 110
4, 59614, Note_on_c, 0, 71, 0
4, 59616, Note_on_c, 0, 66, 110
4, 59710, Note_on_c, 0, 66, 0
4, 59712, Note_on_c, 0, 75, 110
4, 59806, Note_on_c, 0, 75, 0
4, 59808, Note_on_c, 0, 71, 110
4, 59902, Note_on_c, 0, 71, 0
4, 59904, Note_on_c, 0, 76, 110
4, 59998, Note_on_c, 0, 76, 0
4, 60000, Note_on_c, 0, 71, 110
4, 60094, Note_on_c, 0, 71, 0
4, 60096, Note_on_c, 0, 66, 110
4, 60190, Note_on_c, 0, 66, 0
4, 60192, Note_on_c, 0, 76, 110
4, 60286, Note_on_c, 0, 76, 0
4, 60288, Note_on_c, 0, 71, 110
4, 60382, Note_on_c, 0, 71, 0
4, 60384, Note_on_c, 0, 66, 110
4, 60478, Note_on_c, 0, 66, 0
4, 60480, Note_on_c, 0, 76, 110
4, 60574, Note_on_c, 0, 76, 0
4, 60576, Note_on_c, 0, 71, 110
4, 60670, Note_on_c, 0, 71, 0
4, 60672, Note_on_c, 0, 73, 110
4, 60766, Note_on_c, 0, 73, 0
4, 60768, Note_on_c, 0, 70, 110
4, 60862, Note_on_c, 0, 70, 0
4, 60864, Note_on_c, 0, 66, 110
4, 60958, Note_on_c, 0, 66, 0
4, 60960, Note_on_c, 0, 73, 110
4, 61054, Note_on_c, 0, 73, 0
4, 61056, Note_on_c, 0, 70, 110
4, 61150, Note_on_c, 0, 70, 0
4, 61152, Note_on_c, 0, 66, 110
4, 61246, Note_on_c, 0, 66, 0
4, 61248, Note_on_c, 0, 73, 110
4, 61342, Note_on_c, 0, 73, 0
4, 61344, Note_on_c, 0, 70, 110
4, 61438, Note_on_c, 0, 70, 0
4, 61440, Note_on_c, 0, 75, 110
4, 61534, Note_on_c, 0, 75, 0
4, 61536, Note_on_c, 0, 71, 110
4, 61630, Note_on_c, 0, 71, 0
4, 61632, Note_on_c, 0, 66, 110
4, 61726, Note_on_c, 0, 66, 0
4, 61728, Note_on_c, 0, 75, 110
4, 61822, Note_on_c, 0, 75, 0
4, 61824, Note_on_c, 0, 71, 110
4, 61918, Note_on_c, 0, 71, 0
4, 61920, Note_on_c, 0, 66, 110
4, 62014, Note_on_c, 0, 66, 0
4, 62016, Note_on_c, 0, 75, 110
4, 62110, Note_on_c, 0, 75, 0
4, 62112, Note_on_c, 0, 71, 110
4, 62206, Note_on_c, 0, 71, 0
4, 62208, Note_on_c, 0, 75, 110
4, 62302, Note_on_c, 0, 75, 0
4, 62304, Note_on_c, 0, 71, 110
4, 62398, Note_on_c, 0, 71, 0
4, 62400, Note_on_c, 0, 66, 110
4, 62494, Note_on_c, 0, 66, 0
4, 62496, Note_on_c, 0, 75, 110
4, 62590, Note_on_c, 0, 75, 0
4, 62592, Note_on_c, 0, 71, 110
4, 62686, Note_on_c, 0, 71, 0
4, 62688, Note_on_c, 0, 66, 110
4, 62782, Note_on_c, 0, 66, 0
4, 62784, Note_on_c, 0, 75, 110
4, 62878, Note_on_c, 0, 75, 0
4, 62880, Note_on_c, 0, 71, 110
4, 62974, Note_on_c, 0, 71, 0
4, 62976, Note_on_c, 0, 76, 110
4, 63070, Note_on_c, 0, 76, 0
4, 63072, Note_on_c, 0, 71, 110
4, 63166, Note_on_c, 0, 71, 0
4, 63168, Note_on_c, 0, 66, 110
4, 63262, Note_on_c, 0, 66, 0
4, 63264, Note_on_c, 0, 76, 110
4, 63358, Note_on_c, 0, 76, 0
4, 63360, Note_on_c, 0, 71, 110
4, 63454, Note_on_c, 0, 71, 0
4, 63456, Note_on_c, 0, 66, 110
4, 63550, Note_on_c, 0, 66, 0
4, 63552, Note_on_c, 0, 76, 110
4, 63646, Note_on_c, 0, 76, 0
4, 63648, Note_on_c, 0, 71, 110
4, 63742, Note_on_c, 0, 71, 0
4, 63744, Note_on_c, 0, 73, 110
4, 63838, Note_on_c, 0, 73, 0
4, 63840, Note_on_c, 0, 70, 110
4, 63934, Note_on_c, 0, 70, 0
4, 63936, Note_on_c, 0, 66, 110
4, 64030, Note_on_c, 0, 66, 0
4, 64032, Note_on_c, 0, 73, 110
4, 64126, Note_on_c, 0, 73, 0
4, 64128, Note_on_c, 0, 70, 110
4, 64222, Note_on_c, 0, 70, 0
4, 64224, Note_on_c, 0, 66, 110
4, 64318, Note_on_c, 0, 66, 0
4, 64320, Note_on_c, 0, 73, 110
4, 64414, Note_on_c, 0, 73, 0
4, 64416, Note_on_c, 0, 70, 110
4, 64510, Note_on_c, 0, 70, 0
4, 64512, Note_on_c, 0, 75, 110
4, 64606, Note_on_c, 0, 75, 0
4, 64608, Note_on_c, 0, 71, 110
4, 64702, Note_on_c, 0, 71, 0
4, 64704, Note_on_c, 0, 66, 110
4, 64798, Note_on_c, 0, 66, 0
4, 64800, Note_on_c, 0, 75, 110
4, 64894, Note_on_c, 0, 75, 0
4, 64896, Note_on_c, 0, 71, 110
4, 64990, Note_on_c, 0, 71, 0
4, 64992, Note_on_c, 0, 66, 110
4, 65086, Note_on_c, 0, 66, 0
4, 65088, Note_on_c, 0, 75, 110
4, 65182, Note_on_c, 0, 75, 0
4, 65184, Note_on_c, 0, 71, 110
4, 65278, Note_on_c, 0, 71, 0
4, 65280, Note_on_c, 0, 75, 110
4, 65374, Note_on_c, 0, 75, 0
4, 65376, Note_on_c, 0, 71, 110
4, 65470, Note_on_c, 0, 71, 0
4, 65472, Note_on_c, 0, 66, 110
4, 65566, Note_on_c, 0, 66, 0
4, 65568, Note_on_c, 0, 75, 110
4, 65662, Note_on_c, 0, 75, 0
4, 65664, Note_on_c, 0, 71, 110
4, 65758, Note_on_c, 0, 71, 0
4, 65760, Note_on_c, 0, 66, 110
4, 65854, Note_on_c, 0, 66, 0
4, 65856, Note_on_c, 0, 75, 110
4, 65950, Note_on_c, 0, 75, 0
4, 65952, Note_on_c, 0, 71, 110
4, 66046, Note_on_c, 0, 71, 0
4, 66048, Note_on_c, 0, 80, 110
4, 66190, Note_on_c, 0, 80, 0
4, 66192, Note_on_c, 0, 71, 110
4, 66334, Note_on_c, 0, 71, 0
4, 66336, Note_on_c, 0, 80, 110
4, 66526, Note_on_c, 0, 80, 0
4, 66528, Note_on_c, 0, 71, 110
4, 66718, Note_on_c, 0, 71, 0
4, 66720, Note_on_c, 0, 71, 110
4, 66814, Note_on_c, 0, 71, 0
4, 66816, Note_on_c, 0, 73, 110
4, 66958, Note_on_c, 0, 73, 0
4, 66960, Note_on_c, 0, 73, 110
4, 67102, Note_on_c, 0, 73, 0
4, 67104, Note_on_c, 0, 82, 110
4, 67294, Note_on_c, 0, 82, 0
4, 67296, Note_on_c, 0, 73, 110
4, 67486, Note_on_c, 0, 73, 0
4, 67488, Note_on_c, 0, 73, 110
4, 67582, Note_on_c, 0, 73, 0
4, 67584, Note_on_c, 0, 78, 110
4, 67726, Note_on_c, 0, 78, 0
4, 67728, Note_on_c, 0, 73, 110
4, 67870, Note_on_c, 0, 73, 0
4, 67872, Note_on_c, 0, 78, 110
4, 68062, Note_on_c, 0, 78, 0
4, 68064, Note_on_c, 0, 73, 110
4, 68254, Note_on_c, 0, 73, 0
4, 68256, Note_on_c, 0, 73, 110
4, 68350, Note_on_c, 0, 73, 0
4, 68352, Note_on_c, 0, 78, 110
4, 68494, Note_on_c, 0, 78, 0
4, 68496, Note_on_c, 0, 71, 110
4, 68638, Note_on_c, 0, 71, 0
4, 68640, Note_on_c, 0, 78, 110
4, 68830, Note_on_c, 0, 78, 0
4, 68832, Note_on_c, 0, 71, 110
4, 69022, Note_on_c, 0, 71, 0
4, 69024, Note_on_c, 0, 71, 110
4, 69118, Note_on_c, 0, 71, 0
4, 69120, Note_on_c, 0, 80, 110
4, 69262, Note_on_c, 0, 80, 0
4, 69264, Note_on_c, 0, 71, 110
4, 69406, Note_on_c, 0, 71, 0
4, 69408, Note_on_c, 0, 80, 110
4, 69598, Note_on_c, 0, 80, 0
4, 69600, Note_on_c, 0, 71, 110
4, 69790, Note_on_c, 0, 71, 0
4, 69792, Note_on_c, 0, 71, 110
4, 69886, Note_on_c, 0, 71, 0
4, 69888, Note_on_c, 0, 73, 110
4, 70030, Note_on_c, 0, 73, 0
4, 70032, Note_on_c, 0, 73, 110
4, 70174, Note_on_c, 0, 73, 0
4, 70176, Note_on_c, 0, 82, 110
4, 70366, Note_on_c, 0, 82, 0
4, 70368, Note_on_c, 0, 73, 110
4, 70558, Note_on_c, 0, 73, 0
4, 70560, Note_on_c, 0, 73, 110
4, 70654, Note_on_c, 0, 73, 0
4, 70656, Note_on_c, 0, 78, 110
4, 70798, Note_on_c, 0, 78, 0
4, 70800, Note_on_c, 0, 73, 110
4, 70942, Note_on_c, 0, 73, 0
4, 70944, Note_on_c, 0, 78, 110
4, 71134, Note_on_c, 0, 78, 0
4, 71136, Note_on_c, 0, 73, 110
4, 71326, Note_on_c, 0, 73, 0
4, 71328, Note_on_c, 0, 73, 110
4, 71422, Note_on_c, 0, 73, 0
4, 71424, Note_on_c, 0, 78, 110
4, 71566, Note_on_c, 0, 78, 0
4, 71568, Note_on_c, 0, 71, 110
4, 71710, Note_on_c, 0, 71, 0
4, 71712, Note_on_c, 0, 78, 110
4, 71902, Note_on_c, 0, 78, 0
4, 71904, Note_on_c, 0, 71, 110
4, 72352, Note_on_c, 0, 71, 0
4, 73728, Note_on_c, 0, 76, 110
4, 73822, Note_on_c, 0, 76, 0
4, 73824, Note_on_c, 0, 71, 110
4, 73918, Note_on_c, 0, 71, 0
4, 73920, Note_on_c, 0, 66, 110
4, 74014, Note_on_c, 0, 66, 0
4, 74016, Note_on_c, 0, 76, 110
4, 74110, Note_on_c, 0, 76, 0
4, 74112, Note_on_c, 0, 71, 110
4, 74206, Note_on_c, 0, 71, 0
4, 74208, Note_on_c, 0, 66, 110
4, 74302, Note_on_c, 0, 66, 0
4, 74304, Note_on_c, 0, 76, 110
4, 74398, Note_on_c, 0, 76, 0
4, 74400, Note_on_c, 0, 71, 110
4, 74494, Note_on_c, 0, 71, 0
4, 74496, Note_on_c, 0, 73, 110
4, 74590, Note_on_c, 0, 73, 0
4, 74592, Note_on_c, 0, 70, 110
4, 74686, Note_on_c, 0, 70, 0
4, 74688, Note_on_c, 0, 66, 110
4, 74782, Note_on_c, 0, 66, 0
4, 74784, Note_on_c, 0, 73, 110
4, 74878, Note_on_c, 0, 73, 0
4, 74880, Note_on_c, 0, 70, 110
4, 74974, Note_on_c, 0, 70, 0
4, 74976, Note_on_c, 0, 66, 110
4, 75070, Note_on_c, 0, 66, 0
4, 75072, Note_on_c, 0, 73, 110
4, 75166, Note_on_c, 0, 73, 0
4, 75168, Note_on_c, 0, 70, 110
4, 75262, Note_on_c, 0, 70, 0
4, 75264, Note_on_c, 0, 75, 110
4, 75358, Note_on_c, 0, 75, 0
4, 75360, Note_on_c, 0, 71, 110
4, 75454, Note_on_c, 0, 71, 0
4, 75456, Note_on_c, 0, 66, 110
4, 75550, Note_on_c, 0, 66, 0
4, 75552, Note_on_c, 0, 75, 110
4, 75646, Note_on_c, 0, 75, 0
4, 75648, Note_on_c, 0, 71, 110
4, 75742, Note_on_c, 0, 71, 0
4, 75744, Note_on_c, 0, 66, 110
4, 75838, Note_on_c, 0, 66, 0
4, 75840, Note_on_c, 0, 75, 110
4, 75934, Note_on_c, 0, 75, 0
4, 75936, Note_on_c, 0, 71, 110
4, 76030, Note_on_c, 0, 71, 0
4, 76032, Note_on_c, 0, 75, 110
4, 76126, Note_on_c, 0, 75, 0
4, 76128, Note_on_c, 0, 71, 110
4, 76222, Note_on_c, 0, 71, 0
4, 76224, Note_on_c, 0, 66, 110
4, 76318, Note_on_c, 0, 66, 0
4, 76320, Note_on_c, 0, 75, 110
4, 76414, Note_on_c, 0, 75, 0
4, 76416, Note_on_c, 0, 71, 110
4, 76510, Note_on_c, 0, 71, 0
4, 76512, Note_on_c, 0, 66, 110
4, 76606, Note_on_c, 0, 66, 0
4, 76608, Note_on_c, 0, 75, 110
4, 76702, Note_on_c, 0, 75, 0
4, 76704, Note_on_c, 0, 71, 110
4, 76798, Note_on_c, 0, 71, 0
4, 76800, Note_on_c, 0, 76, 110
4, 76894, Note_on_c, 0, 76, 0
4, 76896, Note_on_c, 0, 71, 110
4, 76990, Note_on_c, 0, 71, 0
4, 76992, Note_on_c, 0, 66, 110
4, 77086, Note_on_c, 0, 66, 0
4, 77088, Note_on_c, 0, 76, 110
4, 77182, Note_on_c, 0, 76, 0
4, 77184, Note_on_c, 0, 71, 110
4, 77278, Note_on_c, 0, 71, 0
4, 77280, Note_on_c, 0, 66, 110
4, 77374, Note_on_c, 0, 66, 0
4, 77376, Note_on_c, 0, 76, 110
4, 77470, Note_on_c, 0, 76, 0
4, 77472, Note_on_c, 0, 71, 110
4, 77566, Note_on_c, 0, 71, 0
4, 77568, Note_on_c, 0, 73, 110
4, 77662, Note_on_c, 0, 73, 0
4, 77664, Note_on_c, 0, 70, 110
4, 77758, Note_on_c, 0, 70, 0
4, 77760, Note_on_c, 0, 66, 110
4, 77854, Note_on_c, 0, 66, 0
4, 77856, Note_on_c, 0, 73, 110
4, 77950, Note_on_c, 0, 73, 0
4, 77952, Note_on_c, 0, 70, 110
4, 78046, Note_on_c, 0, 70, 0
4, 78048, Note_on_c, 0, 66, 110
4, 78142, Note_on_c, 0, 66, 0
4, 78144, Note_on_c, 0, 73, 110
4, 78238, Note_on_c, 0, 73, 0
4, 78240, Note_on_c, 0, 70, 110
4, 78334, Note_on_c, 0, 70, 0
4, 78336, Note_on_c, 0, 75, 110
4, 78430, Note_on_c, 0, 75, 0
4, 78432, Note_on_c, 0, 71, 110
4, 78526, Note_on_c, 0, 71, 0
4, 78528, Note_on_c, 0, 66, 110
4, 78622, Note_on_c, 0, 66, 0
4, 78624, Note_on_c, 0, 75, 110
4, 78718, Note_on_c, 0, 75, 0
4, 78720, Note_on_c, 0, 71, 110
4, 78814, Note_on_c, 0, 71, 0
4, 78816, Note_on_c, 0, 66, 110
4, 78910, Note_on_c, 0, 66, 0
4, 78912, Note_on_c, 0, 75, 110
4, 79006, Note_on_c, 0, 75, 0
4, 79008, Note_on_c, 0, 71, 110
4, 79102, Note_on_c, 0, 71, 0
4, 79104, Note_on_c, 0, 75, 110
4, 79198, Note_on_c, 0, 75, 0
4, 79200, Note_on_c, 0, 71, 110
4, 79294, Note_on_c, 0, 71, 0
4, 79296, Note_on_c, 0, 66, 110
4, 79390, Note_on_c, 0, 66, 0
4, 79392, Note_on_c, 0, 75, 110
4, 79486, Note_on_c, 0, 75, 0
4, 79488, Note_on_c, 0, 71, 110
4, 79582, Note_on_c, 0, 71, 0
4, 79584, Note_on_c, 0, 66, 110
4, 79678, Note_on_c, 0, 66, 0
4, 79680, Note_on_c, 0, 75, 110
4, 79774, Note_on_c, 0, 75, 0
4, 79776, Note_on_c, 0, 71, 110
4, 79870, Note_on_c, 0, 71, 0
4, 79872, Note_on_c, 0, 78, 110
4, 80014, Note_on_c, 0, 78, 0
4, 80016, Note_on_c, 0, 71, 110
4, 80158, Note_on_c, 0, 71, 0
4, 80160, Note_on_c, 0, 78, 110
4, 80350, Note_on_c, 0, 78, 0
4, 80352, Note_on_c, 0, 71, 110
4, 80542, Note_on_c, 0, 71, 0
4, 80544, Note_on_c, 0, 71, 110
4, 80638, Note_on_c, 0, 71, 0
4, 80640, Note_on_c, 0, 78, 110
4, 80782, Note_on_c, 0, 78, 0
4, 80784, Note_on_c, 0, 71, 110
4, 80926, Note_on_c, 0, 71, 0
4, 80928, Note_on_c, 0, 78, 110
4, 81118, Note_on_c, 0, 78, 0
4, 81120, Note_on_c, 0, 71, 110
4, 81310, Note_on_c, 0, 71, 0
4, 81312, Note_on_c, 0, 71, 110
4, 81406, Note_on_c, 0, 71, 0
4, 81408, Note_on_c, 0, 78, 110
4, 81550, Note_on_c, 0, 78, 0
4, 81552, Note_on_c, 0, 71, 110
4, 81694, Note_on_c, 0, 71, 0
4, 81696, Note_on_c, 0, 78, 110
4, 81886, Note_on_c, 0, 78, 0
4, 81888, Note_on_c, 0, 71, 110
4, 82078, Note_on_c, 0, 71, 0
4, 82080, Note_on_c, 0, 71, 110
4, 82174, Note_on_c, 0, 71, 0
4, 82176, Note_on_c, 0, 78, 110
4, 82318, Note_on_c, 0, 78, 0
4, 82320, Note_on_c, 0, 71, 110
4, 82462, Note_on_c, 0, 71, 0
4, 82464, Note_on_c, 0, 78, 110
4, 82654, Note_on_c, 0, 78, 0
4, 82656, Note_on_c, 0, 71, 110
4, 82846, Note_on_c, 0, 71, 0
4, 82848, Note_on_c, 0, 71, 110
4, 82942, Note_on_c, 0, 71, 0
4, 82944, Note_on_c, 0, 78, 110
4, 83086, Note_on_c, 0, 78, 0
4, 83088, Note_on_c, 0, 71, 110
4, 83230, Note_on_c, 0, 71, 0
4, 83232, Note_on_c, 0, 78, 110
4, 83422, Note_on_c, 0, 78, 0
4, 83424, Note_on_c, 0, 71, 110
4, 83614, Note_on_c, 0, 71, 0
4, 83616, Note_on_c, 0, 71, 110
4, 83710, Note_on_c, 0, 71, 0
4, 83712, Note_on_c, 0, 78, 110
4, 83854, Note_on_c, 0, 78, 0
4, 83856, Note_on_c, 0, 71, 110
4, 83998, Note_on_c, 0, 71, 0
4, 84000, Note_on_c, 0, 78, 110
4, 84190, Note_on_c, 0, 78, 0
4, 84192, Note_on_c, 0, 71, 110
4, 84382, Note_on_c, 0, 71, 0
4, 84384, Note_on_c, 0, 71, 110
4, 84478, Note_on_c, 0, 71, 0
4, 84480, Note_on_c, 0, 78, 110
4, 84622, Note_on_c, 0, 78, 0
4, 84624, Note_on_c, 0, 71, 110
4, 84766, Note_on_c, 0, 71, 0
4, 84768, Note_on_c, 0, 78, 110
4, 84958, Note_on_c, 0, 78, 0
4, 84960, Note_on_c, 0, 71, 110
4, 85150, Note_on_c, 0, 71, 0
4, 85152, Note_on_c, 0, 71, 110
4, 85246, Note_on_c, 0, 71, 0
4, 85248, Note_on_c, 0, 78, 110
4, 85390, Note_on_c, 0, 78, 0
4, 85392, Note_on_c, 0, 71, 110
4, 85534, Note_on_c, 0, 71, 0
4, 85536, Note_on_c, 0, 78, 110
4, 85726, Note_on_c, 0, 78, 0
4, 85728, Note_on_c, 0, 71, 110
4, 85918, Note_on_c, 0, 71, 0
4, 85920, Note_on_c, 0, 71, 110
4, 86736, Note_on_c, 0, 71, 0
4, 86736, End_track
5, 0, Start_track
5, 0, MIDI_port, 0
5, 0, Title_t, "Staff-4"
5, 0, Control_c, 0, 7, 127
5, 0, Control_c, 0, 10, 64
5, 1536, Note_on_c, 0, 47, 110
5, 1536, Note_on_c, 0, 54, 110
5, 1536, Note_on_c, 0, 59, 110
5, 3024, Note_on_c, 0, 47, 0
5, 3024, Note_on_c, 0, 54, 0
5, 3024, Note_on_c, 0, 59, 0
5, 3072, Note_on_c, 0, 40, 110
5, 3072, Note_on_c, 0, 47, 110
5, 3072, Note_on_c, 0, 52, 110
5, 4560, Note_on_c, 0, 40, 0
5, 4560, Note_on_c, 0, 47, 0
5, 4560, Note_on_c, 0, 52, 0
5, 4608, Note_on_c, 0, 47, 110
5, 4608, Note_on_c, 0, 54, 110
5, 4608, Note_on_c, 0, 59, 110
5, 6096, Note_on_c, 0, 47, 0
5, 6096, Note_on_c, 0, 54, 0
5, 6096, Note_on_c, 0, 59, 0
5, 6144, Note_on_c, 0, 40, 110
5, 6144, Note_on_c, 0, 47, 110
5, 6144, Note_on_c, 0, 52, 110
5, 7632, Note_on_c, 0, 40, 0
5, 7632, Note_on_c, 0, 47, 0
5, 7632, Note_on_c, 0, 52, 0
5, 7680, Note_on_c, 0, 47, 110
5, 7680, Note_on_c, 0, 54, 110
5, 7680, Note_on_c, 0, 59, 110
5, 9168, Note_on_c, 0, 47, 0
5, 9168, Note_on_c, 0, 54, 0
5, 9168, Note_on_c, 0, 59, 0
5, 9216, Note_on_c, 0, 40, 110
5, 9216, Note_on_c, 0, 47, 110
5, 9216, Note_on_c, 0, 52, 110
5, 10704, Note_on_c, 0, 40, 0
5, 10704, Note_on_c, 0, 47, 0
5, 10704, Note_on_c, 0, 52, 0
5, 10752, Note_on_c, 0, 47, 110
5, 10752, Note_on_c, 0, 54, 110
5, 10752, Note_on_c, 0, 59, 110
5, 12240, Note_on_c, 0, 47, 0
5, 12240, Note_on_c, 0, 54, 0
5, 12240, Note_on_c, 0, 59, 0
5, 12288, Note_on_c, 0, 40, 110
5, 12288, Note_on_c, 0, 47, 110
5, 12288, Note_on_c, 0, 52, 110
5, 13776, Note_on_c, 0, 40, 0
5, 13776, Note_on_c, 0, 47, 0
5, 13776, Note_on_c, 0, 52, 0
5, 13824, Note_on_c, 0, 56, 110
5, 13824, Note_on_c, 0, 59, 110
5, 13824, Note_on_c, 0, 61, 110
5, 14160, Note_on_c, 0, 56, 0
5, 14160, Note_on_c, 0, 59, 0
5, 14160, Note_on_c, 0, 61, 0
5, 14208, Note_on_c, 0, 54, 110
5, 14208, Note_on_c, 0, 59, 110
5, 14208, Note_on_c, 0, 63, 110
5, 14544, Note_on_c, 0, 54, 0
5, 14544, Note_on_c, 0, 59, 0
5, 14544, Note_on_c, 0, 63, 0
5, 14592, Note_on_c, 0, 54, 110
5, 14592, Note_on_c, 0, 58, 110
5, 14592, Note_on_c, 0, 61, 110
5, 15312, Note_on_c, 0, 54, 0
5, 15312, Note_on_c, 0, 58, 0
5, 15312, Note_on_c, 0, 61, 0
5, 15360, Note_on_c, 0, 56, 110
5, 15360, Note_on_c, 0, 59, 110
5, 15360, Note_on_c, 0, 61, 110
5, 15696, Note_on_c, 0, 56, 0
5, 15696, Note_on_c, 0, 59, 0
5, 15696, Note_on_c, 0, 61, 0
5, 15744, Note_on_c, 0, 54, 110
5, 15744, Note_on_c, 0, 59, 110
5, 15744, Note_on_c, 0, 63, 110
5, 16080, Note_on_c, 0, 54, 0
5, 16080, Note_on_c, 0, 59, 0
5, 16080, Note_on_c, 0, 63, 0
5, 16128, Note_on_c, 0, 54, 110
5, 16128, Note_on_c, 0, 58, 110
5, 16128, Note_on_c, 0, 61, 110
5, 16848, Note_on_c, 0, 54, 0
5, 16848, Note_on_c, 0, 58, 0
5, 16848, Note_on_c, 0, 61, 0
5, 16896, Note_on_c, 0, 56, 110
5, 16896, Note_on_c, 0, 59, 110
5, 16896, Note_on_c, 0, 61, 110
5, 17232, Note_on_c, 0, 56, 0
5, 17232, Note_on_c, 0, 59, 0
5, 17232, Note_on_c, 0, 61, 0
5, 17280, Note_on_c, 0, 59, 110
5, 17616, Note_on_c, 0, 59, 0
5, 17664, Note_on_c, 0, 54, 110
5, 18384, Note_on_c, 0, 54, 0
5, 18432, Note_on_c, 0, 40, 110
5, 18432, Note_on_c, 0, 47, 110
5, 18432, Note_on_c, 0, 52, 110
5, 19152, Note_on_c, 0, 40, 0
5, 19152, Note_on_c, 0, 47, 0
5, 19152, Note_on_c, 0, 52, 0
5, 19200, Note_on_c, 0, 54, 110
5, 19200, Note_on_c, 0, 61, 110
5, 19920, Note_on_c, 0, 54, 0
5, 19920, Note_on_c, 0, 61, 0
5, 41472, Note_on_c, 0, 59, 110
5, 42960, Note_on_c, 0, 59, 0
5, 43008, Note_on_c, 0, 64, 110
5, 44496, Note_on_c, 0, 64, 0
5, 44544, Note_on_c, 0, 59, 110
5, 46032, Note_on_c, 0, 59, 0
5, 46080, Note_on_c, 0, 64, 110
5, 47568, Note_on_c, 0, 64, 0
5, 47616, Note_on_c, 0, 56, 110
5, 47616, Note_on_c, 0, 59, 110
5, 47616, Note_on_c, 0, 61, 110
5, 47952, Note_on_c, 0, 56, 0
5, 47952, Note_on_c, 0, 59, 0
5, 47952, Note_on_c, 0, 61, 0
5, 48000, Note_on_c, 0, 54, 110
5, 48000, Note_on_c, 0, 59, 110
5, 48000, Note_on_c, 0, 63, 110
5, 48336, Note_on_c, 0, 54, 0
5, 48336, Note_on_c, 0, 59, 0
5, 48336, Note_on_c, 0, 63, 0
5, 48384, Note_on_c, 0, 54, 110
5, 48384, Note_on_c, 0, 58, 110
5, 48384, Note_on_c, 0, 61, 110
5, 49104, Note_on_c, 0, 54, 0
5, 49104, Note_on_c, 0, 58, 0
5, 49104, Note_on_c, 0, 61, 0
5, 49152, Note_on_c, 0, 56, 110
5, 49152, Note_on_c, 0, 59, 110
5, 49152, Note_on_c, 0, 61, 110
5, 49488, Note_on_c, 0, 56, 0
5, 49488, Note_on_c, 0, 59, 0
5, 49488, Note_on_c, 0, 61, 0
5, 49536, Note_on_c, 0, 47, 110
5, 49536, Note_on_c, 0, 52, 110
5, 49536, Note_on_c, 0, 56, 110
5, 49872, Note_on_c, 0, 47, 0
5, 49872, Note_on_c, 0, 52, 0
5, 49872, Note_on_c, 0, 56, 0
5, 49920, Note_on_c, 0, 53, 110
5, 49920, Note_on_c, 0, 57, 110
5, 49920, Note_on_c, 0, 60, 110
5, 50176, Note_on_c, 0, 53, 0
5, 50176, Note_on_c, 0, 57, 0
5, 50176, Note_on_c, 0, 60, 0
5, 50208, Note_on_c, 0, 54, 110
5, 50208, Note_on_c, 0, 58, 110
5, 50208, Note_on_c, 0, 61, 110
5, 50640, Note_on_c, 0, 54, 0
5, 50640, Note_on_c, 0, 58, 0
5, 50640, Note_on_c, 0, 61, 0
5, 50688, Note_on_c, 0, 56, 110
5, 50688, Note_on_c, 0, 59, 110
5, 50688, Note_on_c, 0, 61, 110
5, 51024, Note_on_c, 0, 56, 0
5, 51024, Note_on_c, 0, 59, 0
5, 51024, Note_on_c, 0, 61, 0
5, 51072, Note_on_c, 0, 54, 110
5, 51072, Note_on_c, 0, 59, 110
5, 51072, Note_on_c, 0, 63, 110
5, 51408, Note_on_c, 0, 54, 0
5, 51408, Note_on_c, 0, 59, 0
5, 51408, Note_on_c, 0, 63, 0
5, 51456, Note_on_c, 0, 54, 110
5, 51456, Note_on_c, 0, 58, 110
5, 51456, Note_on_c, 0, 61, 110
5, 52176, Note_on_c, 0, 54, 0
5, 52176, Note_on_c, 0, 58, 0
5, 52176, Note_on_c, 0, 61, 0
5, 52224, Note_on_c, 0, 52, 110
5, 52224, Note_on_c, 0, 59, 110
5, 52224, Note_on_c, 0, 64, 110
5, 52944, Note_on_c, 0, 52, 0
5, 52944, Note_on_c, 0, 59, 0
5, 52944, Note_on_c, 0, 64, 0
5, 52992, Note_on_c, 0, 54, 110
5, 52992, Note_on_c, 0, 58, 110
5, 52992, Note_on_c, 0, 61, 110
5, 53152, Note_on_c, 0, 54, 0
5, 53152, Note_on_c, 0, 58, 0
5, 53152, Note_on_c, 0, 61, 0
5, 53184, Note_on_c, 0, 54, 110
5, 53184, Note_on_c, 0, 58, 110
5, 53184, Note_on_c, 0, 61, 110
5, 53712, Note_on_c, 0, 54, 0
5, 53712, Note_on_c, 0, 58, 0
5, 53712, Note_on_c, 0, 61, 0
5, 66048, Note_on_c, 0, 52, 110
5, 66768, Note_on_c, 0, 52, 0
5, 66816, Note_on_c, 0, 54, 110
5, 67536, Note_on_c, 0, 54, 0
5, 67584, Note_on_c, 0, 51, 110
5, 68304, Note_on_c, 0, 51, 0
5, 68352, Note_on_c, 0, 56, 110
5, 69072, Note_on_c, 0, 56, 0
5, 69120, Note_on_c, 0, 52, 110
5, 69840, Note_on_c, 0, 52, 0
5, 69888, Note_on_c, 0, 54, 110
5, 70608, Note_on_c, 0, 54, 0
5, 70656, Note_on_c, 0, 51, 110
5, 71376, Note_on_c, 0, 51, 0
5, 71376, End_track
6, 0, Start_track
6, 0, MIDI_port, 0
6, 0, Title_t, "Staff-5"
6, 0, Program_c, 0, 30
6, 0, Pitch_bend_c, 0, 8192
6, 0, Control_c, 0, 7, 127
6, 0, Control_c, 0, 10, 64
6, 0, Note_on_c, 0, 66, 110
6, 142, Note_on_c, 0, 66, 0
6, 144, Note_on_c, 0, 59, 110
6, 286, Note_on_c, 0, 59, 0
6, 288, Note_on_c, 0, 66, 110
6, 478, Note_on_c, 0, 66, 0
6, 480, Note_on_c, 0, 59, 110
6, 670, Note_on_c, 0, 59, 0
6, 672, Note_on_c, 0, 59, 110
6, 766, Note_on_c, 0, 59, 0
6, 768, Note_on_c, 0, 66, 110
6, 910, Note_on_c, 0, 66, 0
6, 912, Note_on_c, 0, 59, 110
6, 1054, Note_on_c, 0, 59, 0
6, 1056, Note_on_c, 0, 66, 110
6, 1246, Note_on_c, 0, 66, 0
6, 1248, Note_on_c, 0, 59, 110
6, 1438, Note_on_c, 0, 59, 0
6, 1440, Note_on_c, 0, 59, 110
6, 1534, Note_on_c, 0, 59, 0
6, 1536, Note_on_c, 0, 66, 110
6, 1678, Note_on_c, 0, 66, 0
6, 1680, Note_on_c, 0, 59, 110
6, 1822, Note_on_c, 0, 59, 0
6, 1824, Note_on_c, 0, 66, 110
6, 2014, Note_on_c, 0, 66, 0
6, 2016, Note_on_c, 0, 59, 110
6, 2206, Note_on_c, 0, 59, 0
6, 2208, Note_on_c, 0, 59, 110
6, 2302, Note_on_c, 0, 59, 0
6, 2304, Note_on_c, 0, 66, 110
6, 2446, Note_on_c, 0, 66, 0
6, 2448, Note_on_c, 0, 59, 110
6, 2590, Note_on_c, 0, 59, 0
6, 2592, Note_on_c, 0, 66, 110
6, 2782, Note_on_c, 0, 66, 0
6, 2784, Note_on_c, 0, 59, 110
6, 2974, Note_on_c, 0, 59, 0
6, 2976, Note_on_c, 0, 59, 110
6, 3070, Note_on_c, 0, 59, 0
6, 3072, Note_on_c, 0, 66, 110
6, 3214, Note_on_c, 0, 66, 0
6, 3216, Note_on_c, 0, 59, 110
6, 3358, Note_on_c, 0, 59, 0
6, 3360, Note_on_c, 0, 66, 110
6, 3550, Note_on_c, 0, 66, 0
6, 3552, Note_on_c, 0, 59, 110
6, 3742, Note_on_c, 0, 59, 0
6, 3744, Note_on_c, 0, 59, 110
6, 3838, Note_on_c, 0, 59, 0
6, 3840, Note_on_c, 0, 66, 110
6, 3982, Note_on_c, 0, 66, 0
6, 3984, Note_on_c, 0, 59, 110
6, 4126, Note_on_c, 0, 59, 0
6, 4128, Note_on_c, 0, 66, 110
6, 4318, Note_on_c, 0, 66, 0
6, 4320, Note_on_c, 0, 59, 110
6, 4510, Note_on_c, 0, 59, 0
6, 4512, Note_on_c, 0, 59, 110
6, 4606, Note_on_c, 0, 59, 0
6, 4608, Note_on_c, 0, 66, 110
6, 4750, Note_on_c, 0, 66, 0
6, 4752, Note_on_c, 0, 59, 110
6, 4894, Note_on_c, 0, 59, 0
6, 4896, Note_on_c, 0, 66, 110
6, 5086, Note_on_c, 0, 66, 0
6, 5088, Note_on_c, 0, 59, 110
6, 5278, Note_on_c, 0, 59, 0
6, 5280, Note_on_c, 0, 59, 110
6, 5374, Note_on_c, 0, 59, 0
6, 5376, Note_on_c, 0, 66, 110
6, 5518, Note_on_c, 0, 66, 0
6, 5520, Note_on_c, 0, 59, 110
6, 5662, Note_on_c, 0, 59, 0
6, 5664, Note_on_c, 0, 66, 110
6, 5854, Note_on_c, 0, 66, 0
6, 5856, Note_on_c, 0, 59, 110
6, 6046, Note_on_c, 0, 59, 0
6, 6048, Note_on_c, 0, 59, 110
6, 6142, Note_on_c, 0, 59, 0
6, 6144, Note_on_c, 0, 66, 110
6, 6286, Note_on_c, 0, 66, 0
6, 6288, Note_on_c, 0, 59, 110
6, 6430, Note_on_c, 0, 59, 0
6, 6432, Note_on_c, 0, 66, 110
6, 6622, Note_on_c, 0, 66, 0
6, 6624, Note_on_c, 0, 59, 110
6, 6814, Note_on_c, 0, 59, 0
6, 6816, Note_on_c, 0, 59, 110
6, 6910, Note_on_c, 0, 59, 0
6, 6912, Note_on_c, 0, 66, 110
6, 7054, Note_on_c, 0, 66, 0
6, 7056, Note_on_c, 0, 59, 110
6, 7198, Note_on_c, 0, 59, 0
6, 7200, Note_on_c, 0, 66, 110
6, 7390, Note_on_c, 0, 66, 0
6, 7392, Note_on_c, 0, 59, 110
6, 7582, Note_on_c, 0, 59, 0
6, 7584, Note_on_c, 0, 59, 110
6, 7678, Note_on_c, 0, 59, 0
6, 7680, Note_on_c, 0, 66, 110
6, 7822, Note_on_c, 0, 66, 0
6, 7824, Note_on_c, 0, 59, 110
6, 7966, Note_on_c, 0, 59, 0
6, 7968, Note_on_c, 0, 66, 110
6, 8158, Note_on_c, 0, 66, 0
6, 8160, Note_on_c, 0, 59, 110
6, 8350, Note_on_c, 0, 59, 0
6, 8352, Note_on_c, 0, 59, 110
6, 8446, Note_on_c, 0, 59, 0
6, 8448, Note_on_c, 0, 66, 110
6, 8590, Note_on_c, 0, 66, 0
6, 8592, Note_on_c, 0, 59, 110
6, 8734, Note_on_c, 0, 59, 0
6, 8736, Note_on_c, 0, 66, 110
6, 8926, Note_on_c, 0, 66, 0
6, 8928, Note_on_c, 0, 59, 110
6, 9118, Note_on_c, 0, 59, 0
6, 9120, Note_on_c, 0, 59, 110
6, 9214, Note_on_c, 0, 59, 0
6, 9216, Note_on_c, 0, 66, 110
6, 9358, Note_on_c, 0, 66, 0
6, 9360, Note_on_c, 0, 59, 110
6, 9502, Note_on_c, 0, 59, 0
6, 9504, Note_on_c, 0, 66, 110
6, 9694, Note_on_c, 0, 66, 0
6, 9696, Note_on_c, 0, 59, 110
6, 9886, Note_on_c, 0, 59, 0
6, 9888, Note_on_c, 0, 59, 110
6, 9982, Note_on_c, 0, 59, 0
6, 9984, Note_on_c, 0, 66, 110
6, 10126, Note_on_c, 0, 66, 0
6, 10128, Note_on_c, 0, 59, 110
6, 10270, Note_on_c, 0, 59, 0
6, 10272, Note_on_c, 0, 66, 110
6, 10462, Note_on_c, 0, 66, 0
6, 10464, Note_on_c, 0, 59, 110
6, 10654, Note_on_c, 0, 59, 0
6, 10656, Note_on_c, 0, 59, 110
6, 10750, Note_on_c, 0, 59, 0
6, 10752, Note_on_c, 0, 66, 110
6, 10894, Note_on_c, 0, 66, 0
6, 10896, Note_on_c, 0, 59, 110
6, 11038, Note_on_c, 0, 59, 0
6, 11040, Note_on_c, 0, 66, 110
6, 11230, Note_on_c, 0, 66, 0
6, 11232, Note_on_c, 0, 59, 110
6, 11422, Note_on_c, 0, 59, 0
6, 11424, Note_on_c, 0, 59, 110
6, 11518, Note_on_c, 0, 59, 0
6, 11520, Note_on_c, 0, 66, 110
6, 11662, Note_on_c, 0, 66, 0
6, 11664, Note_on_c, 0, 59, 110
6, 11806, Note_on_c, 0, 59, 0
6, 11808, Note_on_c, 0, 66, 110
6, 11998, Note_on_c, 0, 66, 0
6, 12000, Note_on_c, 0, 59, 110
6, 12190, Note_on_c, 0, 59, 0
6, 12192, Note_on_c, 0, 59, 110
6, 12286, Note_on_c, 0, 59, 0
6, 12288, Note_on_c, 0, 66, 110
6, 12430, Note_on_c, 0, 66, 0
6, 12432, Note_on_c, 0, 59, 110
6, 12574, Note_on_c, 0, 59, 0
6, 12576, Note_on_c, 0, 66, 110
6, 12766, Note_on_c, 0, 66, 0
6, 12768, Note_on_c, 0, 59, 110
6, 12958, Note_on_c, 0, 59, 0
6, 12960, Note_on_c, 0, 59, 110
6, 13054, Note_on_c, 0, 59, 0
6, 13056, Note_on_c, 0, 66, 110
6, 13198, Note_on_c, 0, 66, 0
6, 13200, Note_on_c, 0, 59, 110
6, 13342, Note_on_c, 0, 59, 0
6, 13344, Note_on_c, 0, 66, 110
6, 13534, Note_on_c, 0, 66, 0
6, 13536, Note_on_c, 0, 59, 110
6, 13726, Note_on_c, 0, 59, 0
6, 13728, Note_on_c, 0, 59, 110
6, 13822, Note_on_c, 0, 59, 0
6, 13824, Note_on_c, 0, 64, 110
6, 13918, Note_on_c, 0, 64, 0
6, 13920, Note_on_c, 0, 63, 110
6, 14014, Note_on_c, 0, 63, 0
6, 14016, Note_on_c, 0, 59, 110
6, 14110, Note_on_c, 0, 59, 0
6, 14112, Note_on_c, 0, 64, 110
6, 14206, Note_on_c, 0, 64, 0
6, 14208, Note_on_c, 0, 63, 110
6, 14302, Note_on_c, 0, 63, 0
6, 14304, Note_on_c, 0, 59, 110
6, 14398, Note_on_c, 0, 59, 0
6, 14400, Note_on_c, 0, 64, 110
6, 14494, Note_on_c, 0, 64, 0
6, 14496, Note_on_c, 0, 63, 110
6, 14590, Note_on_c, 0, 63, 0
6, 14592, Note_on_c, 0, 64, 110
6, 14686, Note_on_c, 0, 64, 0
6, 14688, Note_on_c, 0, 63, 110
6, 14782, Note_on_c, 0, 63, 0
6, 14784, Note_on_c, 0, 56, 110
6, 14878, Note_on_c, 0, 56, 0
6, 14880, Note_on_c, 0, 54, 110
6, 15312, Note_on_c, 0, 54, 0
6, 15360, Note_on_c, 0, 64, 110
6, 15454, Note_on_c, 0, 64, 0
6, 15456, Note_on_c, 0, 63, 110
6, 15550, Note_on_c, 0, 63, 0
6, 15552, Note_on_c, 0, 59, 110
6, 15646, Note_on_c, 0, 59, 0
6, 15648, Note_on_c, 0, 64, 110
6, 15742, Note_on_c, 0, 64, 0
6, 15744, Note_on_c, 0, 63, 110
6, 15838, Note_on_c, 0, 63, 0
6, 15840, Note_on_c, 0, 59, 110
6, 15934, Note_on_c, 0, 59, 0
6, 15936, Note_on_c, 0, 64, 110
6, 16030, Note_on_c, 0, 64, 0
6, 16032, Note_on_c, 0, 63, 110
6, 16126, Note_on_c, 0, 63, 0
6, 16128, Note_on_c, 0, 64, 110
6, 16222, Note_on_c, 0, 64, 0
6, 16224, Note_on_c, 0, 63, 110
6, 16318, Note_on_c, 0, 63, 0
6, 16320, Note_on_c, 0, 56, 110
6, 16414, Note_on_c, 0, 56, 0
6, 16416, Note_on_c, 0, 54, 110
6, 16848, Note_on_c, 0, 54, 0
6, 16896, Note_on_c, 0, 64, 110
6, 16990, Note_on_c, 0, 64, 0
6, 16992, Note_on_c, 0, 63, 110
6, 17086, Note_on_c, 0, 63, 0
6, 17088, Note_on_c, 0, 59, 110
6, 17182, Note_on_c, 0, 59, 0
6, 17184, Note_on_c, 0, 64, 110
6, 17278, Note_on_c, 0, 64, 0
6, 17280, Note_on_c, 0, 63, 110
6, 17374, Note_on_c, 0, 63, 0
6, 17376, Note_on_c, 0, 59, 110
6, 17470, Note_on_c, 0, 59, 0
6, 17472, Note_on_c, 0, 64, 110
6, 17566, Note_on_c, 0, 64, 0
6, 17568, Note_on_c, 0, 63, 110
6, 17662, Note_on_c, 0, 63, 0
6, 17664, Note_on_c, 0, 64, 110
6, 17758, Note_on_c, 0, 64, 0
6, 17760, Note_on_c, 0, 63, 110
6, 17854, Note_on_c, 0, 63, 0
6, 17856, Note_on_c, 0, 59, 110
6, 17950, Note_on_c, 0, 59, 0
6, 17952, Note_on_c, 0, 64, 110
6, 18046, Note_on_c, 0, 64, 0
6, 18048, Note_on_c, 0, 63, 110
6, 18142, Note_on_c, 0, 63, 0
6, 18144, Note_on_c, 0, 59, 110
6, 18238, Note_on_c, 0, 59, 0
6, 18240, Note_on_c, 0, 64, 110
6, 18334, Note_on_c, 0, 64, 0
6, 18336, Note_on_c, 0, 63, 110
6, 18430, Note_on_c, 0, 63, 0
6, 18432, Note_on_c, 0, 40, 110
6, 18432, Note_on_c, 0, 47, 110
6, 19152, Note_on_c, 0, 40, 0
6, 19152, Note_on_c, 0, 47, 0
6, 19200, Note_on_c, 0, 42, 110
6, 19200, Note_on_c, 0, 49, 110
6, 19920, Note_on_c, 0, 42, 0
6, 19920, Note_on_c, 0, 49, 0
6, 19968, Note_on_c, 0, 47, 110
6, 19968, Note_on_c, 0, 52, 110
6, 20128, Note_on_c, 0, 47, 0
6, 20128, Note_on_c, 0, 52, 0
6, 20160, Note_on_c, 0, 47, 110
6, 20160, Note_on_c, 0, 52, 110
6, 20416, Note_on_c, 0, 47, 0
6, 20416, Note_on_c, 0, 52, 0
6, 20448, Note_on_c, 0, 47, 110
6, 20448, Note_on_c, 0, 52, 110
6, 20638, Note_on_c, 0, 47, 0
6, 20638, Note_on_c, 0, 52, 0
6, 20640, Note_on_c, 0, 47, 110
6, 20640, Note_on_c, 0, 52, 110
6, 20830, Note_on_c, 0, 47, 0
6, 20830, Note_on_c, 0, 52, 0
6, 20832, Note_on_c, 0, 46, 110
6, 20832, Note_on_c, 0, 54, 110
6, 21022, Note_on_c, 0, 46, 0
6, 21022, Note_on_c, 0, 54, 0
6, 21024, Note_on_c, 0, 46, 110
6, 21024, Note_on_c, 0, 54, 110
6, 21214, Note_on_c, 0, 46, 0
6, 21214, Note_on_c, 0, 54, 0
6, 21216, Note_on_c, 0, 46, 110
6, 21216, Note_on_c, 0, 54, 110
6, 21406, Note_on_c, 0, 46, 0
6, 21406, Note_on_c, 0, 54, 0
6, 21408, Note_on_c, 0, 46, 110
6, 21408, Note_on_c, 0, 52, 110
6, 21502, Note_on_c, 0, 46, 0
6, 21502, Note_on_c, 0, 52, 0
6, 21504, Note_on_c, 0, 47, 110
6, 21504, Note_on_c, 0, 54, 110
6, 21664, Note_on_c, 0, 47, 0
6, 21664, Note_on_c, 0, 54, 0
6, 21696, Note_on_c, 0, 47, 110
6, 21696, Note_on_c, 0, 54, 110
6, 21952, Note_on_c, 0, 47, 0
6, 21952, Note_on_c, 0, 54, 0
6, 21984, Note_on_c, 0, 47, 110
6, 21984, Note_on_c, 0, 54, 110
6, 22174, Note_on_c, 0, 47, 0
6, 22174, Note_on_c, 0, 54, 0
6, 22176, Note_on_c, 0, 47, 110
6, 22176, Note_on_c, 0, 54, 110
6, 22366, Note_on_c, 0, 47, 0
6, 22366, Note_on_c, 0, 54, 0
6, 22368, Note_on_c, 0, 51, 110
6, 22368, Note_on_c, 0, 56, 110
6, 22558, Note_on_c, 0, 51, 0
6, 22558, Note_on_c, 0, 56, 0
6, 22560, Note_on_c, 0, 51, 110
6, 22560, Note_on_c, 0, 56, 110
6, 22750, Note_on_c, 0, 51, 0
6, 22750, Note_on_c, 0, 56, 0
6, 22752, Note_on_c, 0, 51, 110
6, 22752, Note_on_c, 0, 56, 110
6, 22846, Note_on_c, 0, 51, 0
6, 22846, Note_on_c, 0, 56, 0
6, 22848, Note_on_c, 0, 51, 110
6, 22848, Note_on_c, 0, 56, 110
6, 22942, Note_on_c, 0, 51, 0
6, 22942, Note_on_c, 0, 56, 0
6, 22944, Note_on_c, 0, 51, 110
6, 22944, Note_on_c, 0, 56, 110
6, 23038, Note_on_c, 0, 51, 0
6, 23038, Note_on_c, 0, 56, 0
6, 23040, Note_on_c, 0, 47, 110
6, 23040, Note_on_c, 0, 52, 110
6, 23200, Note_on_c, 0, 47, 0
6, 23200, Note_on_c, 0, 52, 0
6, 23232, Note_on_c, 0, 47, 110
6, 23232, Note_on_c, 0, 52, 110
6, 23488, Note_on_c, 0, 47, 0
6, 23488, Note_on_c, 0, 52, 0
6, 23520, Note_on_c, 0, 47, 110
6, 23520, Note_on_c, 0, 52, 110
6, 23710, Note_on_c, 0, 47, 0
6, 23710, Note_on_c, 0, 52, 0
6, 23712, Note_on_c, 0, 47, 110
6, 23712, Note_on_c, 0, 52, 110
6, 23902, Note_on_c, 0, 47, 0
6, 23902, Note_on_c, 0, 52, 0
6, 23904, Note_on_c, 0, 46, 110
6, 23904, Note_on_c, 0, 54, 110
6, 24094, Note_on_c, 0, 46, 0
6, 24094, Note_on_c, 0, 54, 0
6, 24096, Note_on_c, 0, 46, 110
6, 24096, Note_on_c, 0, 54, 110
6, 24286, Note_on_c, 0, 46, 0
6, 24286, Note_on_c, 0, 54, 0
6, 24288, Note_on_c, 0, 46, 110
6, 24288, Note_on_c, 0, 54, 110
6, 24478, Note_on_c, 0, 46, 0
6, 24478, Note_on_c, 0, 54, 0
6, 24480, Note_on_c, 0, 46, 110
6, 24480, Note_on_c, 0, 52, 110
6, 24574, Note_on_c, 0, 46, 0
6, 24574, Note_on_c, 0, 52, 0
6, 24576, Note_on_c, 0, 47, 110
6, 24576, Note_on_c, 0, 54, 110
6, 24736, Note_on_c, 0, 47, 0
6, 24736, Note_on_c, 0, 54, 0
6, 24768, Note_on_c, 0, 47, 110
6, 24768, Note_on_c, 0, 54, 110
6, 25024, Note_on_c, 0, 47, 0
6, 25024, Note_on_c, 0, 54, 0
6, 25056, Note_on_c, 0, 47, 110
6, 25056, Note_on_c, 0, 54, 110
6, 25246, Note_on_c, 0, 47, 0
6, 25246, Note_on_c, 0, 54, 0
6, 25248, Note_on_c, 0, 47, 110
6, 25248, Note_on_c, 0, 54, 110
6, 25438, Note_on_c, 0, 47, 0
6, 25438, Note_on_c, 0, 54, 0
6, 25440, Note_on_c, 0, 51, 110
6, 25440, Note_on_c, 0, 56, 110
6, 25630, Note_on_c, 0, 51, 0
6, 25630, Note_on_c, 0, 56, 0
6, 25632, Note_on_c, 0, 51, 110
6, 25632, Note_on_c, 0, 56, 110
6, 25822, Note_on_c, 0, 51, 0
6, 25822, Note_on_c, 0, 56, 0
6, 25824, Note_on_c, 0, 51, 110
6, 25824, Note_on_c, 0, 56, 110
6, 25918, Note_on_c, 0, 51, 0
6, 25918, Note_on_c, 0, 56, 0
6, 25920, Note_on_c, 0, 51, 110
6, 25920, Note_on_c, 0, 56, 110
6, 26014, Note_on_c, 0, 51, 0
6, 26014, Note_on_c, 0, 56, 0
6, 26016, Note_on_c, 0, 51, 110
6, 26016, Note_on_c, 0, 56, 110
6, 26110, Note_on_c, 0, 51, 0
6, 26110, Note_on_c, 0, 56, 0
6, 26112, Note_on_c, 0, 47, 110
6, 26112, Note_on_c, 0, 52, 110
6, 26272, Note_on_c, 0, 47, 0
6, 26272, Note_on_c, 0, 52, 0
6, 26304, Note_on_c, 0, 47, 110
6, 26304, Note_on_c, 0, 52, 110
6, 26560, Note_on_c, 0, 47, 0
6, 26560, Note_on_c, 0, 52, 0
6, 26592, Note_on_c, 0, 47, 110
6, 26592, Note_on_c, 0, 52, 110
6, 26782, Note_on_c, 0, 47, 0
6, 26782, Note_on_c, 0, 52, 0
6, 26784, Note_on_c, 0, 47, 110
6, 26784, Note_on_c, 0, 52, 110
6, 26974, Note_on_c, 0, 47, 0
6, 26974, Note_on_c, 0, 52, 0
6, 26976, Note_on_c, 0, 46, 110
6, 26976, Note_on_c, 0, 54, 110
6, 27166, Note_on_c, 0, 46, 0
6, 27166, Note_on_c, 0, 54, 0
6, 27168, Note_on_c, 0, 46, 110
6, 27168, Note_on_c, 0, 54, 110
6, 27358, Note_on_c, 0, 46, 0
6, 27358, Note_on_c, 0, 54, 0
6, 27360, Note_on_c, 0, 46, 110
6, 27360, Note_on_c, 0, 54, 110
6, 27550, Note_on_c, 0, 46, 0
6, 27550, Note_on_c, 0, 54, 0
6, 27552, Note_on_c, 0, 46, 110
6, 27552, Note_on_c, 0, 52, 110
6, 27646, Note_on_c, 0, 46, 0
6, 27646, Note_on_c, 0, 52, 0
6, 27648, Note_on_c, 0, 47, 110
6, 27648, Note_on_c, 0, 54, 110
6, 27808, Note_on_c, 0, 47, 0
6, 27808, Note_on_c, 0, 54, 0
6, 27840, Note_on_c, 0, 47, 110
6, 27840, Note_on_c, 0, 54, 110
6, 28096, Note_on_c, 0, 47, 0
6, 28096, Note_on_c, 0, 54, 0
6, 28128, Note_on_c, 0, 47, 110
6, 28128, Note_on_c, 0, 54, 110
6, 28318, Note_on_c, 0, 47, 0
6, 28318, Note_on_c, 0, 54, 0
6, 28320, Note_on_c, 0, 47, 110
6, 28320, Note_on_c, 0, 54, 110
6, 28510, Note_on_c, 0, 47, 0
6, 28510, Note_on_c, 0, 54, 0
6, 28512, Note_on_c, 0, 51, 110
6, 28512, Note_on_c, 0, 56, 110
6, 28702, Note_on_c, 0, 51, 0
6, 28702, Note_on_c, 0, 56, 0
6, 28704, Note_on_c, 0, 51, 110
6, 28704, Note_on_c, 0, 56, 110
6, 28894, Note_on_c, 0, 51, 0
6, 28894, Note_on_c, 0, 56, 0
6, 28896, Note_on_c, 0, 51, 110
6, 28896, Note_on_c, 0, 56, 110
6, 28990, Note_on_c, 0, 51, 0
6, 28990, Note_on_c, 0, 56, 0
6, 28992, Note_on_c, 0, 51, 110
6, 28992, Note_on_c, 0, 56, 110
6, 29086, Note_on_c, 0, 51, 0
6, 29086, Note_on_c, 0, 56, 0
6, 29088, Note_on_c, 0, 51, 110
6, 29088, Note_on_c, 0, 56, 110
6, 29182, Note_on_c, 0, 51, 0
6, 29182, Note_on_c, 0, 56, 0
6, 29184, Note_on_c, 0, 47, 110
6, 29184, Note_on_c, 0, 52, 110
6, 29344, Note_on_c, 0, 47, 0
6, 29344, Note_on_c, 0, 52, 0
6, 29376, Note_on_c, 0, 47, 110
6, 29376, Note_on_c, 0, 52, 110
6, 29632, Note_on_c, 0, 47, 0
6, 29632, Note_on_c, 0, 52, 0
6, 29664, Note_on_c, 0, 47, 110
6, 29664, Note_on_c, 0, 52, 110
6, 29854, Note_on_c, 0, 47, 0
6, 29854, Note_on_c, 0, 52, 0
6, 29856, Note_on_c, 0, 47, 110
6, 29856, Note_on_c, 0, 52, 110
6, 30046, Note_on_c, 0, 47, 0
6, 30046, Note_on_c, 0, 52, 0
6, 30048, Note_on_c, 0, 46, 110
6, 30048, Note_on_c, 0, 54, 110
6, 30238, Note_on_c, 0, 46, 0
6, 30238, Note_on_c, 0, 54, 0
6, 30240, Note_on_c, 0, 46, 110
6, 30240, Note_on_c, 0, 54, 110
6, 30430, Note_on_c, 0, 46, 0
6, 30430, Note_on_c, 0, 54, 0
6, 30432, Note_on_c, 0, 46, 110
6, 30432, Note_on_c, 0, 54, 110
6, 30622, Note_on_c, 0, 46, 0
6, 30622, Note_on_c, 0, 54, 0
6, 30624, Note_on_c, 0, 46, 110
6, 30624, Note_on_c, 0, 52, 110
6, 30718, Note_on_c, 0, 46, 0
6, 30718, Note_on_c, 0, 52, 0
6, 30720, Note_on_c, 0, 47, 110
6, 30720, Note_on_c, 0, 54, 110
6, 30880, Note_on_c, 0, 47, 0
6, 30880, Note_on_c, 0, 54, 0
6, 30912, Note_on_c, 0, 47, 110
6, 30912, Note_on_c, 0, 54, 110
6, 31168, Note_on_c, 0, 47, 0
6, 31168, Note_on_c, 0, 54, 0
6, 31200, Note_on_c, 0, 47, 110
6, 31200, Note_on_c, 0, 54, 110
6, 31390, Note_on_c, 0, 47, 0
6, 31390, Note_on_c, 0, 54, 0
6, 31392, Note_on_c, 0, 47, 110
6, 31392, Note_on_c, 0, 54, 110
6, 31582, Note_on_c, 0, 47, 0
6, 31582, Note_on_c, 0, 54, 0
6, 31584, Note_on_c, 0, 51, 110
6, 31584, Note_on_c, 0, 56, 110
6, 31774, Note_on_c, 0, 51, 0
6, 31774, Note_on_c, 0, 56, 0
6, 31776, Note_on_c, 0, 51, 110
6, 31776, Note_on_c, 0, 56, 110
6, 31966, Note_on_c, 0, 51, 0
6, 31966, Note_on_c, 0, 56, 0
6, 31968, Note_on_c, 0, 51, 110
6, 31968, Note_on_c, 0, 56, 110
6, 32062, Note_on_c, 0, 51, 0
6, 32062, Note_on_c, 0, 56, 0
6, 32064, Note_on_c, 0, 51, 110
6, 32064, Note_on_c, 0, 56, 110
6, 32158, Note_on_c, 0, 51, 0
6, 32158, Note_on_c, 0, 56, 0
6, 32160, Note_on_c, 0, 51, 110
6, 32160, Note_on_c, 0, 56, 110
6, 32254, Note_on_c, 0, 51, 0
6, 32254, Note_on_c, 0, 56, 0
6, 32256, Note_on_c, 0, 52, 110
6, 32256, Note_on_c, 0, 59, 110
6, 32416, Note_on_c, 0, 52, 0
6, 32416, Note_on_c, 0, 59, 0
6, 32448, Note_on_c, 0, 52, 110
6, 32448, Note_on_c, 0, 59, 110
6, 32608, Note_on_c, 0, 52, 0
6, 32608, Note_on_c, 0, 59, 0
6, 32640, Note_on_c, 0, 52, 110
6, 32640, Note_on_c, 0, 59, 110
6, 32734, Note_on_c, 0, 52, 0
6, 32734, Note_on_c, 0, 59, 0
6, 32736, Note_on_c, 0, 52, 110
6, 32736, Note_on_c, 0, 59, 110
6, 32830, Note_on_c, 0, 52, 0
6, 32830, Note_on_c, 0, 59, 0
6, 32928, Note_on_c, 0, 52, 110
6, 32928, Note_on_c, 0, 59, 110
6, 33022, Note_on_c, 0, 52, 0
6, 33022, Note_on_c, 0, 59, 0
6, 33120, Note_on_c, 0, 54, 110
6, 33120, Note_on_c, 0, 58, 110
6, 33214, Note_on_c, 0, 54, 0
6, 33214, Note_on_c, 0, 58, 0
6, 33216, Note_on_c, 0, 54, 110
6, 33216, Note_on_c, 0, 58, 110
6, 33376, Note_on_c, 0, 54, 0
6, 33376, Note_on_c, 0, 58, 0
6, 33408, Note_on_c, 0, 54, 110
6, 33408, Note_on_c, 0, 58, 110
6, 33502, Note_on_c, 0, 54, 0
6, 33502, Note_on_c, 0, 58, 0
6, 33504, Note_on_c, 0, 54, 110
6, 33504, Note_on_c, 0, 58, 110
6, 33598, Note_on_c, 0, 54, 0
6, 33598, Note_on_c, 0, 58, 0
6, 33696, Note_on_c, 0, 54, 110
6, 33696, Note_on_c, 0, 58, 110
6, 33790, Note_on_c, 0, 54, 0
6, 33790, Note_on_c, 0, 58, 0
6, 33792, Note_on_c, 0, 54, 110
6, 33792, Note_on_c, 0, 59, 110
6, 33952, Note_on_c, 0, 54, 0
6, 33952, Note_on_c, 0, 59, 0
6, 33984, Note_on_c, 0, 54, 110
6, 33984, Note_on_c, 0, 59, 110
6, 34144, Note_on_c, 0, 54, 0
6, 34144, Note_on_c, 0, 59, 0
6, 34272, Note_on_c, 0, 54, 110
6, 34272, Note_on_c, 0, 59, 110
6, 34366, Note_on_c, 0, 54, 0
6, 34366, Note_on_c, 0, 59, 0
6, 34464, Note_on_c, 0, 54, 110
6, 34464, Note_on_c, 0, 59, 110
6, 34558, Note_on_c, 0, 54, 0
6, 34558, Note_on_c, 0, 59, 0
6, 34656, Note_on_c, 0, 44, 110
6, 34656, Note_on_c, 0, 51, 110
6, 34750, Note_on_c, 0, 44, 0
6, 34750, Note_on_c, 0, 51, 0
6, 34752, Note_on_c, 0, 44, 110
6, 34752, Note_on_c, 0, 51, 110
6, 34912, Note_on_c, 0, 44, 0
6, 34912, Note_on_c, 0, 51, 0
6, 34944, Note_on_c, 0, 44, 110
6, 34944, Note_on_c, 0, 51, 110
6, 35038, Note_on_c, 0, 44, 0
6, 35038, Note_on_c, 0, 51, 0
6, 35040, Note_on_c, 0, 44, 110
6, 35040, Note_on_c, 0, 51, 110
6, 35134, Note_on_c, 0, 44, 0
6, 35134, Note_on_c, 0, 51, 0
6, 35232, Note_on_c, 0, 42, 110
6, 35232, Note_on_c, 0, 49, 110
6, 35326, Note_on_c, 0, 42, 0
6, 35326, Note_on_c, 0, 49, 0
6, 35328, Note_on_c, 0, 52, 110
6, 35328, Note_on_c, 0, 59, 110
6, 35488, Note_on_c, 0, 52, 0
6, 35488, Note_on_c, 0, 59, 0
6, 35520, Note_on_c, 0, 52, 110
6, 35520, Note_on_c, 0, 59, 110
6, 35680, Note_on_c, 0, 52, 0
6, 35680, Note_on_c, 0, 59, 0
6, 35712, Note_on_c, 0, 52, 110
6, 35712, Note_on_c, 0, 59, 110
6, 35806, Note_on_c, 0, 52, 0
6, 35806, Note_on_c, 0, 59, 0
6, 35808, Note_on_c, 0, 52, 110
6, 35808, Note_on_c, 0, 59, 110
6, 35902, Note_on_c, 0, 52, 0
6, 35902, Note_on_c, 0, 59, 0
6, 36000, Note_on_c, 0, 52, 110
6, 36000, Note_on_c, 0, 59, 110
6, 36094, Note_on_c, 0, 52, 0
6, 36094, Note_on_c, 0, 59, 0
6, 36192, Note_on_c, 0, 54, 110
6, 36192, Note_on_c, 0, 58, 110
6, 36286, Note_on_c, 0, 54, 0
6, 36286, Note_on_c, 0, 58, 0
6, 36288, Note_on_c, 0, 54, 110
6, 36288, Note_on_c, 0, 58, 110
6, 36448, Note_on_c, 0, 54, 0
6, 36448, Note_on_c, 0, 58, 0
6, 36480, Note_on_c, 0, 54, 110
6, 36480, Note_on_c, 0, 58, 110
6, 36574, Note_on_c, 0, 54, 0
6, 36574, Note_on_c, 0, 58, 0
6, 36576, Note_on_c, 0, 54, 110
6, 36576, Note_on_c, 0, 58, 110
6, 36670, Note_on_c, 0, 54, 0
6, 36670, Note_on_c, 0, 58, 0
6, 36768, Note_on_c, 0, 54, 110
6, 36768, Note_on_c, 0, 58, 110
6, 36862, Note_on_c, 0, 54, 0
6, 36862, Note_on_c, 0, 58, 0
6, 36864, Note_on_c, 0, 54, 110
6, 36864, Note_on_c, 0, 59, 110
6, 37024, Note_on_c, 0, 54, 0
6, 37024, Note_on_c, 0, 59, 0
6, 37056, Note_on_c, 0, 54, 110
6, 37056, Note_on_c, 0, 59, 110
6, 37216, Note_on_c, 0, 54, 0
6, 37216, Note_on_c, 0, 59, 0
6, 37344, Note_on_c, 0, 54, 110
6, 37344, Note_on_c, 0, 59, 110
6, 37438, Note_on_c, 0, 54, 0
6, 37438, Note_on_c, 0, 59, 0
6, 37536, Note_on_c, 0, 54, 110
6, 37536, Note_on_c, 0, 59, 110
6, 37630, Note_on_c, 0, 54, 0
6, 37630, Note_on_c, 0, 59, 0
6, 37728, Note_on_c, 0, 44, 110
6, 37728, Note_on_c, 0, 51, 110
6, 37822, Note_on_c, 0, 44, 0
6, 37822, Note_on_c, 0, 51, 0
6, 37824, Note_on_c, 0, 44, 110
6, 37824, Note_on_c, 0, 51, 110
6, 37984, Note_on_c, 0, 44, 0
6, 37984, Note_on_c, 0, 51, 0
6, 38016, Note_on_c, 0, 44, 110
6, 38016, Note_on_c, 0, 51, 110
6, 38110, Note_on_c, 0, 44, 0
6, 38110, Note_on_c, 0, 51, 0
6, 38112, Note_on_c, 0, 44, 110
6, 38112, Note_on_c, 0, 51, 110
6, 38206, Note_on_c, 0, 44, 0
6, 38206, Note_on_c, 0, 51, 0
6, 38304, Note_on_c, 0, 42, 110
6, 38304, Note_on_c, 0, 49, 110
6, 38398, Note_on_c, 0, 42, 0
6, 38398, Note_on_c, 0, 49, 0
6, 38400, Note_on_c, 0, 66, 110
6, 38542, Note_on_c, 0, 66, 0
6, 38544, Note_on_c, 0, 59, 110
6, 38686, Note_on_c, 0, 59, 0
6, 38688, Note_on_c, 0, 66, 110
6, 38878, Note_on_c, 0, 66, 0
6, 38880, Note_on_c, 0, 59, 110
6, 39070, Note_on_c, 0, 59, 0
6, 39072, Note_on_c, 0, 59, 110
6, 39166, Note_on_c, 0, 59, 0
6, 39168, Note_on_c, 0, 66, 110
6, 39310, Note_on_c, 0, 66, 0
6, 39312, Note_on_c, 0, 59, 110
6, 39454, Note_on_c, 0, 59, 0
6, 39456, Note_on_c, 0, 66, 110
6, 39646, Note_on_c, 0, 66, 0
6, 39648, Note_on_c, 0, 59, 110
6, 39838, Note_on_c, 0, 59, 0
6, 39840, Note_on_c, 0, 59, 110
6, 39934, Note_on_c, 0, 59, 0
6, 39936, Note_on_c, 0, 66, 110
6, 40078, Note_on_c, 0, 66, 0
6, 40080, Note_on_c, 0, 59, 110
6, 40222, Note_on_c, 0, 59, 0
6, 40224, Note_on_c, 0, 66, 110
6, 40414, Note_on_c, 0, 66, 0
6, 40416, Note_on_c, 0, 59, 110
6, 40606, Note_on_c, 0, 59, 0
6, 40608, Note_on_c, 0, 59, 110
6, 40702, Note_on_c, 0, 59, 0
6, 40704, Note_on_c, 0, 66, 110
6, 40846, Note_on_c, 0, 66, 0
6, 40848, Note_on_c, 0, 59, 110
6, 40990, Note_on_c, 0, 59, 0
6, 40992, Note_on_c, 0, 66, 110
6, 41182, Note_on_c, 0, 66, 0
6, 41184, Note_on_c, 0, 59, 110
6, 41374, Note_on_c, 0, 59, 0
6, 41376, Note_on_c, 0, 59, 110
6, 41470, Note_on_c, 0, 59, 0
6, 41472, Note_on_c, 0, 66, 110
6, 41614, Note_on_c, 0, 66, 0
6, 41616, Note_on_c, 0, 59, 110
6, 41758, Note_on_c, 0, 59, 0
6, 41760, Note_on_c, 0, 66, 110
6, 41950, Note_on_c, 0, 66, 0
6, 41952, Note_on_c, 0, 59, 110
6, 42142, Note_on_c, 0, 59, 0
6, 42144, Note_on_c, 0, 59, 110
6, 42238, Note_on_c, 0, 59, 0
6, 42240, Note_on_c, 0, 66, 110
6, 42382, Note_on_c, 0, 66, 0
6, 42384, Note_on_c, 0, 59, 110
6, 42526, Note_on_c, 0, 59, 0
6, 42528, Note_on_c, 0, 66, 110
6, 42718, Note_on_c, 0, 66, 0
6, 42720, Note_on_c, 0, 59, 110
6, 42910, Note_on_c, 0, 59, 0
6, 42912, Note_on_c, 0, 59, 110
6, 43006, Note_on_c, 0, 59, 0
6, 43008, Note_on_c, 0, 66, 110
6, 43150, Note_on_c, 0, 66, 0
6, 43152, Note_on_c, 0, 59, 110
6, 43294, Note_on_c, 0, 59, 0
6, 43296, Note_on_c, 0, 66, 110
6, 43486, Note_on_c, 0, 66, 0
6, 43488, Note_on_c, 0, 59, 110
6, 43678, Note_on_c, 0, 59, 0
6, 43680, Note_on_c, 0, 59, 110
6, 43774, Note_on_c, 0, 59, 0
6, 43776, Note_on_c, 0, 66, 110
6, 43918, Note_on_c, 0, 66, 0
6, 43920, Note_on_c, 0, 59, 110
6, 44062, Note_on_c, 0, 59, 0
6, 44064, Note_on_c, 0, 66, 110
6, 44254, Note_on_c, 0, 66, 0
6, 44256, Note_on_c, 0, 59, 110
6, 44446, Note_on_c, 0, 59, 0
6, 44448, Note_on_c, 0, 59, 110
6, 44542, Note_on_c, 0, 59, 0
6, 44544, Note_on_c, 0, 66, 110
6, 44686, Note_on_c, 0, 66, 0
6, 44688, Note_on_c, 0, 59, 110
6, 44830, Note_on_c, 0, 59, 0
6, 44832, Note_on_c, 0, 66, 110
6, 45022, Note_on_c, 0, 66, 0
6, 45024, Note_on_c, 0, 59, 110
6, 45214, Note_on_c, 0, 59, 0
6, 45216, Note_on_c, 0, 59, 110
6, 45310, Note_on_c, 0, 59, 0
6, 45312, Note_on_c, 0, 66, 110
6, 45454, Note_on_c, 0, 66, 0
6, 45456, Note_on_c, 0, 59, 110
6, 45598, Note_on_c, 0, 59, 0
6, 45600, Note_on_c, 0, 66, 110
6, 45790, Note_on_c, 0, 66, 0
6, 45792, Note_on_c, 0, 59, 110
6, 45982, Note_on_c, 0, 59, 0
6, 45984, Note_on_c, 0, 59, 110
6, 46078, Note_on_c, 0, 59, 0
6, 46080, Note_on_c, 0, 66, 110
6, 46222, Note_on_c, 0, 66, 0
6, 46224, Note_on_c, 0, 59, 110
6, 46366, Note_on_c, 0, 59, 0
6, 46368, Note_on_c, 0, 66, 110
6, 46558, Note_on_c, 0, 66, 0
6, 46560, Note_on_c, 0, 59, 110
6, 46750, Note_on_c, 0, 59, 0
6, 46752, Note_on_c, 0, 59, 110
6, 46846, Note_on_c, 0, 59, 0
6, 46848, Note_on_c, 0, 66, 110
6, 46990, Note_on_c, 0, 66, 0
6, 46992, Note_on_c, 0, 59, 110
6, 47134, Note_on_c, 0, 59, 0
6, 47136, Note_on_c, 0, 66, 110
6, 47326, Note_on_c, 0, 66, 0
6, 47328, Note_on_c, 0, 59, 110
6, 47518, Note_on_c, 0, 59, 0
6, 47520, Note_on_c, 0, 59, 110
6, 47614, Note_on_c, 0, 59, 0
6, 47616, Note_on_c, 0, 64, 110
6, 47710, Note_on_c, 0, 64, 0
6, 47712, Note_on_c, 0, 63, 110
6, 47806, Note_on_c, 0, 63, 0
6, 47808, Note_on_c, 0, 59, 110
6, 47902, Note_on_c, 0, 59, 0
6, 47904, Note_on_c, 0, 64, 110
6, 47998, Note_on_c, 0, 64, 0
6, 48000, Note_on_c, 0, 63, 110
6, 48094, Note_on_c, 0, 63, 0
6, 48096, Note_on_c, 0, 59, 110
6, 48190, Note_on_c, 0, 59, 0
6, 48192, Note_on_c, 0, 64, 110
6, 48286, Note_on_c, 0, 64, 0
6, 48288, Note_on_c, 0, 63, 110
6, 48382, Note_on_c, 0, 63, 0
6, 48384, Note_on_c, 0, 64, 110
6, 48478, Note_on_c, 0, 64, 0
6, 48480, Note_on_c, 0, 63, 110
6, 48574, Note_on_c, 0, 63, 0
6, 48576, Note_on_c, 0, 56, 110
6, 48670, Note_on_c, 0, 56, 0
6, 48672, Note_on_c, 0, 54, 110
6, 49104, Note_on_c, 0, 54, 0
6, 49152, Note_on_c, 0, 64, 110
6, 49246, Note_on_c, 0, 64, 0
6, 49248, Note_on_c, 0, 63, 110
6, 49342, Note_on_c, 0, 63, 0
6, 49344, Note_on_c, 0, 59, 110
6, 49438, Note_on_c, 0, 59, 0
6, 49440, Note_on_c, 0, 64, 110
6, 49534, Note_on_c, 0, 64, 0
6, 49536, Note_on_c, 0, 63, 110
6, 49630, Note_on_c, 0, 63, 0
6, 49632, Note_on_c, 0, 59, 110
6, 49726, Note_on_c, 0, 59, 0
6, 49728, Note_on_c, 0, 64, 110
6, 49822, Note_on_c, 0, 64, 0
6, 49824, Note_on_c, 0, 63, 110
6, 49918, Note_on_c, 0, 63, 0
6, 49920, Note_on_c, 0, 64, 110
6, 50014, Note_on_c, 0, 64, 0
6, 50016, Note_on_c, 0, 63, 110
6, 50110, Note_on_c, 0, 63, 0
6, 50112, Note_on_c, 0, 56, 110
6, 50206, Note_on_c, 0, 56, 0
6, 50208, Note_on_c, 0, 54, 110
6, 50640, Note_on_c, 0, 54, 0
6, 50688, Note_on_c, 0, 64, 110
6, 50782, Note_on_c, 0, 64, 0
6, 50784, Note_on_c, 0, 63, 110
6, 50878, Note_on_c, 0, 63, 0
6, 50880, Note_on_c, 0, 59, 110
6, 50974, Note_on_c, 0, 59, 0
6, 50976, Note_on_c, 0, 64, 110
6, 51070, Note_on_c, 0, 64, 0
6, 51072, Note_on_c, 0, 63, 110
6, 51166, Note_on_c, 0, 63, 0
6, 51168, Note_on_c, 0, 59, 110
6, 51262, Note_on_c, 0, 59, 0
6, 51264, Note_on_c, 0, 64, 110
6, 51358, Note_on_c, 0, 64, 0
6, 51360, Note_on_c, 0, 63, 110
6, 51454, Note_on_c, 0, 63, 0
6, 51456, Note_on_c, 0, 64, 110
6, 51550, Note_on_c, 0, 64, 0
6, 51552, Note_on_c, 0, 63, 110
6, 51646, Note_on_c, 0, 63, 0
6, 51648, Note_on_c, 0, 59, 110
6, 51742, Note_on_c, 0, 59, 0
6, 51744, Note_on_c, 0, 64, 110
6, 51838, Note_on_c, 0, 64, 0
6, 51840, Note_on_c, 0, 63, 110
6, 51934, Note_on_c, 0, 63, 0
6, 51936, Note_on_c, 0, 59, 110
6, 52030, Note_on_c, 0, 59, 0
6, 52032, Note_on_c, 0, 64, 110
6, 52126, Note_on_c, 0, 64, 0
6, 52128, Note_on_c, 0, 63, 110
6, 52222, Note_on_c, 0, 63, 0
6, 52224, Note_on_c, 0, 40, 110
6, 52224, Note_on_c, 0, 47, 110
6, 52944, Note_on_c, 0, 40, 0
6, 52944, Note_on_c, 0, 47, 0
6, 52992, Note_on_c, 0, 42, 110
6, 52992, Note_on_c, 0, 49, 110
6, 53152, Note_on_c, 0, 42, 0
6, 53152, Note_on_c, 0, 49, 0
6, 53184, Note_on_c, 0, 42, 110
6, 53184, Note_on_c, 0, 49, 110
6, 53712, Note_on_c, 0, 42, 0
6, 53712, Note_on_c, 0, 49, 0
6, 53760, Note_on_c, 0, 47, 110
6, 53760, Note_on_c, 0, 52, 110
6, 53920, Note_on_c, 0, 47, 0
6, 53920, Note_on_c, 0, 52, 0
6, 53952, Note_on_c, 0, 47, 110
6, 53952, Note_on_c, 0, 52, 110
6, 54208, Note_on_c, 0, 47, 0
6, 54208, Note_on_c, 0, 52, 0
6, 54240, Note_on_c, 0, 47, 110
6, 54240, Note_on_c, 0, 52, 110
6, 54430, Note_on_c, 0, 47, 0
6, 54430, Note_on_c, 0, 52, 0
6, 54432, Note_on_c, 0, 47, 110
6, 54432, Note_on_c, 0, 52, 110
6, 54622, Note_on_c, 0, 47, 0
6, 54622, Note_on_c, 0, 52, 0
6, 54624, Note_on_c, 0, 46, 110
6, 54624, Note_on_c, 0, 54, 110
6, 54814, Note_on_c, 0, 46, 0
6, 54814, Note_on_c, 0, 54, 0
6, 54816, Note_on_c, 0, 46, 110
6, 54816, Note_on_c, 0, 54, 110
6, 55006, Note_on_c, 0, 46, 0
6, 55006, Note_on_c, 0, 54, 0
6, 55008, Note_on_c, 0, 46, 110
6, 55008, Note_on_c, 0, 54, 110
6, 55198, Note_on_c, 0, 46, 0
6, 55198, Note_on_c, 0, 54, 0
6, 55200, Note_on_c, 0, 46, 110
6, 55200, Note_on_c, 0, 52, 110
6, 55294, Note_on_c, 0, 46, 0
6, 55294, Note_on_c, 0, 52, 0
6, 55296, Note_on_c, 0, 47, 110
6, 55296, Note_on_c, 0, 54, 110
6, 55456, Note_on_c, 0, 47, 0
6, 55456, Note_on_c, 0, 54, 0
6, 55488, Note_on_c, 0, 47, 110
6, 55488, Note_on_c, 0, 54, 110
6, 55744, Note_on_c, 0, 47, 0
6, 55744, Note_on_c, 0, 54, 0
6, 55776, Note_on_c, 0, 47, 110
6, 55776, Note_on_c, 0, 54, 110
6, 55966, Note_on_c, 0, 47, 0
6, 55966, Note_on_c, 0, 54, 0
6, 55968, Note_on_c, 0, 47, 110
6, 55968, Note_on_c, 0, 54, 110
6, 56158, Note_on_c, 0, 47, 0
6, 56158, Note_on_c, 0, 54, 0
6, 56160, Note_on_c, 0, 51, 110
6, 56160, Note_on_c, 0, 56, 110
6, 56350, Note_on_c, 0, 51, 0
6, 56350, Note_on_c, 0, 56, 0
6, 56352, Note_on_c, 0, 51, 110
6, 56352, Note_on_c, 0, 56, 110
6, 56542, Note_on_c, 0, 51, 0
6, 56542, Note_on_c, 0, 56, 0
6, 56544, Note_on_c, 0, 51, 110
6, 56544, Note_on_c, 0, 56, 110
6, 56638, Note_on_c, 0, 51, 0
6, 56638, Note_on_c, 0, 56, 0
6, 56640, Note_on_c, 0, 51, 110
6, 56640, Note_on_c, 0, 56, 110
6, 56734, Note_on_c, 0, 51, 0
6, 56734, Note_on_c, 0, 56, 0
6, 56736, Note_on_c, 0, 51, 110
6, 56736, Note_on_c, 0, 56, 110
6, 56830, Note_on_c, 0, 51, 0
6, 56830, Note_on_c, 0, 56, 0
6, 56832, Note_on_c, 0, 47, 110
6, 56832, Note_on_c, 0, 52, 110
6, 56992, Note_on_c, 0, 47, 0
6, 56992, Note_on_c, 0, 52, 0
6, 57024, Note_on_c, 0, 47, 110
6, 57024, Note_on_c, 0, 52, 110
6, 57280, Note_on_c, 0, 47, 0
6, 57280, Note_on_c, 0, 52, 0
6, 57312, Note_on_c, 0, 47, 110
6, 57312, Note_on_c, 0, 52, 110
6, 57502, Note_on_c, 0, 47, 0
6, 57502, Note_on_c, 0, 52, 0
6, 57504, Note_on_c, 0, 47, 110
6, 57504, Note_on_c, 0, 52, 110
6, 57694, Note_on_c, 0, 47, 0
6, 57694, Note_on_c, 0, 52, 0
6, 57696, Note_on_c, 0, 46, 110
6, 57696, Note_on_c, 0, 54, 110
6, 57886, Note_on_c, 0, 46, 0
6, 57886, Note_on_c, 0, 54, 0
6, 57888, Note_on_c, 0, 46, 110
6, 57888, Note_on_c, 0, 54, 110
6, 58078, Note_on_c, 0, 46, 0
6, 58078, Note_on_c, 0, 54, 0
6, 58080, Note_on_c, 0, 46, 110
6, 58080, Note_on_c, 0, 54, 110
6, 58270, Note_on_c, 0, 46, 0
6, 58270, Note_on_c, 0, 54, 0
6, 58272, Note_on_c, 0, 46, 110
6, 58272, Note_on_c, 0, 52, 110
6, 58366, Note_on_c, 0, 46, 0
6, 58366, Note_on_c, 0, 52, 0
6, 58368, Note_on_c, 0, 47, 110
6, 58368, Note_on_c, 0, 54, 110
6, 58528, Note_on_c, 0, 47, 0
6, 58528, Note_on_c, 0, 54, 0
6, 58560, Note_on_c, 0, 47, 110
6, 58560, Note_on_c, 0, 54, 110
6, 58816, Note_on_c, 0, 47, 0
6, 58816, Note_on_c, 0, 54, 0
6, 58848, Note_on_c, 0, 47, 110
6, 58848, Note_on_c, 0, 54, 110
6, 59038, Note_on_c, 0, 47, 0
6, 59038, Note_on_c, 0, 54, 0
6, 59040, Note_on_c, 0, 47, 110
6, 59040, Note_on_c, 0, 54, 110
6, 59230, Note_on_c, 0, 47, 0
6, 59230, Note_on_c, 0, 54, 0
6, 59232, Note_on_c, 0, 51, 110
6, 59232, Note_on_c, 0, 56, 110
6, 59422, Note_on_c, 0, 51, 0
6, 59422, Note_on_c, 0, 56, 0
6, 59424, Note_on_c, 0, 51, 110
6, 59424, Note_on_c, 0, 56, 110
6, 59614, Note_on_c, 0, 51, 0
6, 59614, Note_on_c, 0, 56, 0
6, 59616, Note_on_c, 0, 51, 110
6, 59616, Note_on_c, 0, 56, 110
6, 59710, Note_on_c, 0, 51, 0
6, 59710, Note_on_c, 0, 56, 0
6, 59712, Note_on_c, 0, 51, 110
6, 59712, Note_on_c, 0, 56, 110
6, 59806, Note_on_c, 0, 51, 0
6, 59806, Note_on_c, 0, 56, 0
6, 59808, Note_on_c, 0, 51, 110
6, 59808, Note_on_c, 0, 56, 110
6, 59902, Note_on_c, 0, 51, 0
6, 59902, Note_on_c, 0, 56, 0
6, 59904, Note_on_c, 0, 47, 110
6, 59904, Note_on_c, 0, 52, 110
6, 60064, Note_on_c, 0, 47, 0
6, 60064, Note_on_c, 0, 52, 0
6, 60096, Note_on_c, 0, 47, 110
6, 60096, Note_on_c, 0, 52, 110
6, 60352, Note_on_c, 0, 47, 0
6, 60352, Note_on_c, 0, 52, 0
6, 60384, Note_on_c, 0, 47, 110
6, 60384, Note_on_c, 0, 52, 110
6, 60574, Note_on_c, 0, 47, 0
6, 60574, Note_on_c, 0, 52, 0
6, 60576, Note_on_c, 0, 47, 110
6, 60576, Note_on_c, 0, 52, 110
6, 60766, Note_on_c, 0, 47, 0
6, 60766, Note_on_c, 0, 52, 0
6, 60768, Note_on_c, 0, 46, 110
6, 60768, Note_on_c, 0, 54, 110
6, 60958, Note_on_c, 0, 46, 0
6, 60958, Note_on_c, 0, 54, 0
6, 60960, Note_on_c, 0, 46, 110
6, 60960, Note_on_c, 0, 54, 110
6, 61150, Note_on_c, 0, 46, 0
6, 61150, Note_on_c, 0, 54, 0
6, 61152, Note_on_c, 0, 46, 110
6, 61152, Note_on_c, 0, 54, 110
6, 61342, Note_on_c, 0, 46, 0
6, 61342, Note_on_c, 0, 54, 0
6, 61344, Note_on_c, 0, 46, 110
6, 61344, Note_on_c, 0, 52, 110
6, 61438, Note_on_c, 0, 46, 0
6, 61438, Note_on_c, 0, 52, 0
6, 61440, Note_on_c, 0, 47, 110
6, 61440, Note_on_c, 0, 54, 110
6, 61600, Note_on_c, 0, 47, 0
6, 61600, Note_on_c, 0, 54, 0
6, 61632, Note_on_c, 0, 47, 110
6, 61632, Note_on_c, 0, 54, 110
6, 61888, Note_on_c, 0, 47, 0
6, 61888, Note_on_c, 0, 54, 0
6, 61920, Note_on_c, 0, 47, 110
6, 61920, Note_on_c, 0, 54, 110
6, 62110, Note_on_c, 0, 47, 0
6, 62110, Note_on_c, 0, 54, 0
6, 62112, Note_on_c, 0, 47, 110
6, 62112, Note_on_c, 0, 54, 110
6, 62302, Note_on_c, 0, 47, 0
6, 62302, Note_on_c, 0, 54, 0
6, 62304, Note_on_c, 0, 51, 110
6, 62304, Note_on_c, 0, 56, 110
6, 62494, Note_on_c, 0, 51, 0
6, 62494, Note_on_c, 0, 56, 0
6, 62496, Note_on_c, 0, 51, 110
6, 62496, Note_on_c, 0, 56, 110
6, 62686, Note_on_c, 0, 51, 0
6, 62686, Note_on_c, 0, 56, 0
6, 62688, Note_on_c, 0, 51, 110
6, 62688, Note_on_c, 0, 56, 110
6, 62782, Note_on_c, 0, 51, 0
6, 62782, Note_on_c, 0, 56, 0
6, 62784, Note_on_c, 0, 51, 110
6, 62784, Note_on_c, 0, 56, 110
6, 62878, Note_on_c, 0, 51, 0
6, 62878, Note_on_c, 0, 56, 0
6, 62880, Note_on_c, 0, 51, 110
6, 62880, Note_on_c, 0, 56, 110
6, 62974, Note_on_c, 0, 51, 0
6, 62974, Note_on_c, 0, 56, 0
6, 62976, Note_on_c, 0, 47, 110
6, 62976, Note_on_c, 0, 52, 110
6, 63136, Note_on_c, 0, 47, 0
6, 63136, Note_on_c, 0, 52, 0
6, 63168, Note_on_c, 0, 47, 110
6, 63168, Note_on_c, 0, 52, 110
6, 63424, Note_on_c, 0, 47, 0
6, 63424, Note_on_c, 0, 52, 0
6, 63456, Note_on_c, 0, 47, 110
6, 63456, Note_on_c, 0, 52, 110
6, 63646, Note_on_c, 0, 47, 0
6, 63646, Note_on_c, 0, 52, 0
6, 63648, Note_on_c, 0, 47, 110
6, 63648, Note_on_c, 0, 52, 110
6, 63838, Note_on_c, 0, 47, 0
6, 63838, Note_on_c, 0, 52, 0
6, 63840, Note_on_c, 0, 46, 110
6, 63840, Note_on_c, 0, 54, 110
6, 64030, Note_on_c, 0, 46, 0
6, 64030, Note_on_c, 0, 54, 0
6, 64032, Note_on_c, 0, 46, 110
6, 64032, Note_on_c, 0, 54, 110
6, 64222, Note_on_c, 0, 46, 0
6, 64222, Note_on_c, 0, 54, 0
6, 64224, Note_on_c, 0, 46, 110
6, 64224, Note_on_c, 0, 54, 110
6, 64414, Note_on_c, 0, 46, 0
6, 64414, Note_on_c, 0, 54, 0
6, 64416, Note_on_c, 0, 46, 110
6, 64416, Note_on_c, 0, 52, 110
6, 64510, Note_on_c, 0, 46, 0
6, 64510, Note_on_c, 0, 52, 0
6, 64512, Note_on_c, 0, 47, 110
6, 64512, Note_on_c, 0, 54, 110
6, 64672, Note_on_c, 0, 47, 0
6, 64672, Note_on_c, 0, 54, 0
6, 64704, Note_on_c, 0, 47, 110
6, 64704, Note_on_c, 0, 54, 110
6, 64960, Note_on_c, 0, 47, 0
6, 64960, Note_on_c, 0, 54, 0
6, 64992, Note_on_c, 0, 47, 110
6, 64992, Note_on_c, 0, 54, 110
6, 65182, Note_on_c, 0, 47, 0
6, 65182, Note_on_c, 0, 54, 0
6, 65184, Note_on_c, 0, 47, 110
6, 65184, Note_on_c, 0, 54, 110
6, 65374, Note_on_c, 0, 47, 0
6, 65374, Note_on_c, 0, 54, 0
6, 65376, Note_on_c, 0, 51, 110
6, 65376, Note_on_c, 0, 56, 110
6, 65566, Note_on_c, 0, 51, 0
6, 65566, Note_on_c, 0, 56, 0
6, 65568, Note_on_c, 0, 51, 110
6, 65568, Note_on_c, 0, 56, 110
6, 65758, Note_on_c, 0, 51, 0
6, 65758, Note_on_c, 0, 56, 0
6, 65760, Note_on_c, 0, 51, 110
6, 65760, Note_on_c, 0, 56, 110
6, 65854, Note_on_c, 0, 51, 0
6, 65854, Note_on_c, 0, 56, 0
6, 65856, Note_on_c, 0, 51, 110
6, 65856, Note_on_c, 0, 56, 110
6, 65950, Note_on_c, 0, 51, 0
6, 65950, Note_on_c, 0, 56, 0
6, 65952, Note_on_c, 0, 51, 110
6, 65952, Note_on_c, 0, 56, 110
6, 66046, Note_on_c, 0, 51, 0
6, 66046, Note_on_c, 0, 56, 0
6, 73728, Note_on_c, 0, 47, 110
6, 73728, Note_on_c, 0, 52, 110
6, 73888, Note_on_c, 0, 47, 0
6, 73888, Note_on_c, 0, 52, 0
6, 73920, Note_on_c, 0, 47, 110
6, 73920, Note_on_c, 0, 52, 110
6, 74176, Note_on_c, 0, 47, 0
6, 74176, Note_on_c, 0, 52, 0
6, 74208, Note_on_c, 0, 47, 110
6, 74208, Note_on_c, 0, 52, 110
6, 74398, Note_on_c, 0, 47, 0
6, 74398, Note_on_c, 0, 52, 0
6, 74400, Note_on_c, 0, 47, 110
6, 74400, Note_on_c, 0, 52, 110
6, 74590, Note_on_c, 0, 47, 0
6, 74590, Note_on_c, 0, 52, 0
6, 74592, Note_on_c, 0, 46, 110
6, 74592, Note_on_c, 0, 54, 110
6, 74782, Note_on_c, 0, 46, 0
6, 74782, Note_on_c, 0, 54, 0
6, 74784, Note_on_c, 0, 46, 110
6, 74784, Note_on_c, 0, 54, 110
6, 74974, Note_on_c, 0, 46, 0
6, 74974, Note_on_c, 0, 54, 0
6, 74976, Note_on_c, 0, 46, 110
6, 74976, Note_on_c, 0, 54, 110
6, 75166, Note_on_c, 0, 46, 0
6, 75166, Note_on_c, 0, 54, 0
6, 75168, Note_on_c, 0, 46, 110
6, 75168, Note_on_c, 0, 52, 110
6, 75262, Note_on_c, 0, 46, 0
6, 75262, Note_on_c, 0, 52, 0
6, 75264, Note_on_c, 0, 47, 110
6, 75264, Note_on_c, 0, 54, 110
6, 75424, Note_on_c, 0, 47, 0
6, 75424, Note_on_c, 0, 54, 0
6, 75456, Note_on_c, 0, 47, 110
6, 75456, Note_on_c, 0, 54, 110
6, 75712, Note_on_c, 0, 47, 0
6, 75712, Note_on_c, 0, 54, 0
6, 75744, Note_on_c, 0, 47, 110
6, 75744, Note_on_c, 0, 54, 110
6, 75934, Note_on_c, 0, 47, 0
6, 75934, Note_on_c, 0, 54, 0
6, 75936, Note_on_c, 0, 47, 110
6, 75936, Note_on_c, 0, 54, 110
6, 76126, Note_on_c, 0, 47, 0
6, 76126, Note_on_c, 0, 54, 0
6, 76128, Note_on_c, 0, 51, 110
6, 76128, Note_on_c, 0, 56, 110
6, 76318, Note_on_c, 0, 51, 0
6, 76318, Note_on_c, 0, 56, 0
6, 76320, Note_on_c, 0, 51, 110
6, 76320, Note_on_c, 0, 56, 110
6, 76510, Note_on_c, 0, 51, 0
6, 76510, Note_on_c, 0, 56, 0
6, 76512, Note_on_c, 0, 51, 110
6, 76512, Note_on_c, 0, 56, 110
6, 76768, Note_on_c, 0, 51, 0
6, 76768, Note_on_c, 0, 56, 0
6, 76800, Note_on_c, 0, 47, 110
6, 76800, Note_on_c, 0, 52, 110
6, 76960, Note_on_c, 0, 47, 0
6, 76960, Note_on_c, 0, 52, 0
6, 76992, Note_on_c, 0, 47, 110
6, 76992, Note_on_c, 0, 52, 110
6, 77248, Note_on_c, 0, 47, 0
6, 77248, Note_on_c, 0, 52, 0
6, 77280, Note_on_c, 0, 47, 110
6, 77280, Note_on_c, 0, 52, 110
6, 77470, Note_on_c, 0, 47, 0
6, 77470, Note_on_c, 0, 52, 0
6, 77472, Note_on_c, 0, 47, 110
6, 77472, Note_on_c, 0, 52, 110
6, 77662, Note_on_c, 0, 47, 0
6, 77662, Note_on_c, 0, 52, 0
6, 77664, Note_on_c, 0, 46, 110
6, 77664, Note_on_c, 0, 54, 110
6, 77854, Note_on_c, 0, 46, 0
6, 77854, Note_on_c, 0, 54, 0
6, 77856, Note_on_c, 0, 46, 110
6, 77856, Note_on_c, 0, 54, 110
6, 78046, Note_on_c, 0, 46, 0
6, 78046, Note_on_c, 0, 54, 0
6, 78048, Note_on_c, 0, 46, 110
6, 78048, Note_on_c, 0, 54, 110
6, 78238, Note_on_c, 0, 46, 0
6, 78238, Note_on_c, 0, 54, 0
6, 78240, Note_on_c, 0, 46, 110
6, 78240, Note_on_c, 0, 52, 110
6, 78334, Note_on_c, 0, 46, 0
6, 78334, Note_on_c, 0, 52, 0
6, 78336, Note_on_c, 0, 47, 110
6, 78336, Note_on_c, 0, 54, 110
6, 78496, Note_on_c, 0, 47, 0
6, 78496, Note_on_c, 0, 54, 0
6, 78528, Note_on_c, 0, 47, 110
6, 78528, Note_on_c, 0, 54, 110
6, 78784, Note_on_c, 0, 47, 0
6, 78784, Note_on_c, 0, 54, 0
6, 78816, Note_on_c, 0, 47, 110
6, 78816, Note_on_c, 0, 54, 110
6, 79006, Note_on_c, 0, 47, 0
6, 79006, Note_on_c, 0, 54, 0
6, 79008, Note_on_c, 0, 47, 110
6, 79008, Note_on_c, 0, 54, 110
6, 79198, Note_on_c, 0, 47, 0
6, 79198, Note_on_c, 0, 54, 0
6, 79200, Note_on_c, 0, 51, 110
6, 79200, Note_on_c, 0, 56, 110
6, 79390, Note_on_c, 0, 51, 0
6, 79390, Note_on_c, 0, 56, 0
6, 79392, Note_on_c, 0, 51, 110
6, 79392, Note_on_c, 0, 56, 110
6, 79582, Note_on_c, 0, 51, 0
6, 79582, Note_on_c, 0, 56, 0
6, 79584, Note_on_c, 0, 51, 110
6, 79584, Note_on_c, 0, 56, 110
6, 79840, Note_on_c, 0, 51, 0
6, 79840, Note_on_c, 0, 56, 0
6, 79872, Note_on_c, 0, 52, 110
6, 79872, Note_on_c, 0, 59, 110
6, 80032, Note_on_c, 0, 52, 0
6, 80032, Note_on_c, 0, 59, 0
6, 80064, Note_on_c, 0, 52, 110
6, 80064, Note_on_c, 0, 59, 110
6, 80224, Note_on_c, 0, 52, 0
6, 80224, Note_on_c, 0, 59, 0
6, 80256, Note_on_c, 0, 52, 110
6, 80256, Note_on_c, 0, 59, 110
6, 80350, Note_on_c, 0, 52, 0
6, 80350, Note_on_c, 0, 59, 0
6, 80352, Note_on_c, 0, 52, 110
6, 80352, Note_on_c, 0, 59, 110
6, 80446, Note_on_c, 0, 52, 0
6, 80446, Note_on_c, 0, 59, 0
6, 80544, Note_on_c, 0, 52, 110
6, 80544, Note_on_c, 0, 59, 110
6, 80638, Note_on_c, 0, 52, 0
6, 80638, Note_on_c, 0, 59, 0
6, 80736, Note_on_c, 0, 54, 110
6, 80736, Note_on_c, 0, 58, 110
6, 80830, Note_on_c, 0, 54, 0
6, 80830, Note_on_c, 0, 58, 0
6, 80832, Note_on_c, 0, 54, 110
6, 80832, Note_on_c, 0, 58, 110
6, 80992, Note_on_c, 0, 54, 0
6, 80992, Note_on_c, 0, 58, 0
6, 81024, Note_on_c, 0, 54, 110
6, 81024, Note_on_c, 0, 58, 110
6, 81118, Note_on_c, 0, 54, 0
6, 81118, Note_on_c, 0, 58, 0
6, 81120, Note_on_c, 0, 54, 110
6, 81120, Note_on_c, 0, 58, 110
6, 81214, Note_on_c, 0, 54, 0
6, 81214, Note_on_c, 0, 58, 0
6, 81312, Note_on_c, 0, 54, 110
6, 81312, Note_on_c, 0, 58, 110
6, 81406, Note_on_c, 0, 54, 0
6, 81406, Note_on_c, 0, 58, 0
6, 81408, Note_on_c, 0, 54, 110
6, 81408, Note_on_c, 0, 59, 110
6, 81568, Note_on_c, 0, 54, 0
6, 81568, Note_on_c, 0, 59, 0
6, 81600, Note_on_c, 0, 54, 110
6, 81600, Note_on_c, 0, 59, 110
6, 81760, Note_on_c, 0, 54, 0
6, 81760, Note_on_c, 0, 59, 0
6, 81888, Note_on_c, 0, 54, 110
6, 81888, Note_on_c, 0, 59, 110
6, 81982, Note_on_c, 0, 54, 0
6, 81982, Note_on_c, 0, 59, 0
6, 82080, Note_on_c, 0, 54, 110
6, 82080, Note_on_c, 0, 59, 110
6, 82174, Note_on_c, 0, 54, 0
6, 82174, Note_on_c, 0, 59, 0
6, 82272, Note_on_c, 0, 44, 110
6, 82272, Note_on_c, 0, 51, 110
6, 82366, Note_on_c, 0, 44, 0
6, 82366, Note_on_c, 0, 51, 0
6, 82368, Note_on_c, 0, 44, 110
6, 82368, Note_on_c, 0, 51, 110
6, 82528, Note_on_c, 0, 44, 0
6, 82528, Note_on_c, 0, 51, 0
6, 82560, Note_on_c, 0, 44, 110
6, 82560, Note_on_c, 0, 51, 110
6, 82654, Note_on_c, 0, 44, 0
6, 82654, Note_on_c, 0, 51, 0
6, 82656, Note_on_c, 0, 44, 110
6, 82656, Note_on_c, 0, 51, 110
6, 82750, Note_on_c, 0, 44, 0
6, 82750, Note_on_c, 0, 51, 0
6, 82848, Note_on_c, 0, 42, 110
6, 82848, Note_on_c, 0, 49, 110
6, 82942, Note_on_c, 0, 42, 0
6, 82942, Note_on_c, 0, 49, 0
6, 82944, Note_on_c, 0, 52, 110
6, 82944, Note_on_c, 0, 59, 110
6, 83104, Note_on_c, 0, 52, 0
6, 83104, Note_on_c, 0, 59, 0
6, 83136, Note_on_c, 0, 52, 110
6, 83136, Note_on_c, 0, 59, 110
6, 83296, Note_on_c, 0, 52, 0
6, 83296, Note_on_c, 0, 59, 0
6, 83328, Note_on_c, 0, 52, 110
6, 83328, Note_on_c, 0, 59, 110
6, 83422, Note_on_c, 0, 52, 0
6, 83422, Note_on_c, 0, 59, 0
6, 83424, Note_on_c, 0, 52, 110
6, 83424, Note_on_c, 0, 59, 110
6, 83518, Note_on_c, 0, 52, 0
6, 83518, Note_on_c, 0, 59, 0
6, 83616, Note_on_c, 0, 52, 110
6, 83616, Note_on_c, 0, 59, 110
6, 83710, Note_on_c, 0, 52, 0
6, 83710, Note_on_c, 0, 59, 0
6, 83808, Note_on_c, 0, 54, 110
6, 83808, Note_on_c, 0, 58, 110
6, 83902, Note_on_c, 0, 54, 0
6, 83902, Note_on_c, 0, 58, 0
6, 83904, Note_on_c, 0, 54, 110
6, 83904, Note_on_c, 0, 58, 110
6, 84064, Note_on_c, 0, 54, 0
6, 84064, Note_on_c, 0, 58, 0
6, 84096, Note_on_c, 0, 54, 110
6, 84096, Note_on_c, 0, 58, 110
6, 84190, Note_on_c, 0, 54, 0
6, 84190, Note_on_c, 0, 58, 0
6, 84192, Note_on_c, 0, 54, 110
6, 84192, Note_on_c, 0, 58, 110
6, 84286, Note_on_c, 0, 54, 0
6, 84286, Note_on_c, 0, 58, 0
6, 84384, Note_on_c, 0, 54, 110
6, 84384, Note_on_c, 0, 58, 110
6, 84478, Note_on_c, 0, 54, 0
6, 84478, Note_on_c, 0, 58, 0
6, 84480, Note_on_c, 0, 54, 110
6, 84480, Note_on_c, 0, 59, 110
6, 84640, Note_on_c, 0, 54, 0
6, 84640, Note_on_c, 0, 59, 0
6, 84672, Note_on_c, 0, 54, 110
6, 84672, Note_on_c, 0, 59, 110
6, 84832, Note_on_c, 0, 54, 0
6, 84832, Note_on_c, 0, 59, 0
6, 84960, Note_on_c, 0, 54, 110
6, 84960, Note_on_c, 0, 59, 110
6, 85054, Note_on_c, 0, 54, 0
6, 85054, Note_on_c, 0, 59, 0
6, 85152, Note_on_c, 0, 54, 110
6, 85152, Note_on_c, 0, 59, 110
6, 85246, Note_on_c, 0, 54, 0
6, 85246, Note_on_c, 0, 59, 0
6, 85344, Note_on_c, 0, 44, 110
6, 85344, Note_on_c, 0, 51, 110
6, 85438, Note_on_c, 0, 44, 0
6, 85438, Note_on_c, 0, 51, 0
6, 85440, Note_on_c, 0, 44, 110
6, 85440, Note_on_c, 0, 51, 110
6, 85600, Note_on_c, 0, 44, 0
6, 85600, Note_on_c, 0, 51, 0
6, 85632, Note_on_c, 0, 44, 110
6, 85632, Note_on_c, 0, 51, 110
6, 85726, Note_on_c, 0, 44, 0
6, 85726, Note_on_c, 0, 51, 0
6, 85728, Note_on_c, 0, 44, 110
6, 85728, Note_on_c, 0, 51, 110
6, 85822, Note_on_c, 0, 44, 0
6, 85822, Note_on_c, 0, 51, 0
6, 85920, Note_on_c, 0, 42, 110
6, 85920, Note_on_c, 0, 49, 110
6, 86014, Note_on_c, 0, 42, 0
6, 86014, Note_on_c, 0, 49, 0
6, 86016, Note_on_c, 0, 66, 110
6, 86158, Note_on_c, 0, 66, 0
6, 86160, Note_on_c, 0, 59, 110
6, 86302, Note_on_c, 0, 59, 0
6, 86304, Note_on_c, 0, 66, 110
6, 86494, Note_on_c, 0, 66, 0
6, 86496, Note_on_c, 0, 59, 110
6, 86686, Note_on_c, 0, 59, 0
6, 86688, Note_on_c, 0, 59, 110
6, 86782, Note_on_c, 0, 59, 0
6, 86784, Note_on_c, 0, 66, 110
6, 86926, Note_on_c, 0, 66, 0
6, 86928, Note_on_c, 0, 59, 110
6, 87070, Note_on_c, 0, 59, 0
6, 87072, Note_on_c, 0, 66, 110
6, 87262, Note_on_c, 0, 66, 0
6, 87264, Note_on_c, 0, 59, 110
6, 87454, Note_on_c, 0, 59, 0
6, 87456, Note_on_c, 0, 59, 110
6, 87550, Note_on_c, 0, 59, 0
6, 87552, Note_on_c, 0, 66, 110
6, 87694, Note_on_c, 0, 66, 0
6, 87696, Note_on_c, 0, 59, 110
6, 87838, Note_on_c, 0, 59, 0
6, 87840, Note_on_c, 0, 66, 110
6, 88030, Note_on_c, 0, 66, 0
6, 88032, Note_on_c, 0, 59, 110
6, 88222, Note_on_c, 0, 59, 0
6, 88224, Note_on_c, 0, 59, 110
6, 88318, Note_on_c, 0, 59, 0
6, 88320, Note_on_c, 0, 66, 110
6, 88462, Note_on_c, 0, 66, 0
6, 88464, Note_on_c, 0, 59, 110
6, 88606, Note_on_c, 0, 59, 0
6, 88608, Note_on_c, 0, 66, 110
6, 88798, Note_on_c, 0, 66, 0
6, 88800, Note_on_c, 0, 59, 110
6, 89808, Note_on_c, 0, 59, 0
6, 89808, End_track
7, 0, Start_track
7, 0, MIDI_port, 0
7, 0, Title_t, "Staff-6"
7, 0, Program_c, 7, 29
7, 0, Pitch_bend_c, 7, 8192
7, 0, Control_c, 7, 7, 127
7, 0, Control_c, 7, 10, 64
7, 20160, Note_on_c, 7, 59, 110
7, 20320, Note_on_c, 7, 59, 0
7, 20352, Note_on_c, 7, 58, 110
7, 20446, Note_on_c, 7, 58, 0
7, 20448, Note_on_c, 7, 59, 110
7, 20638, Note_on_c, 7, 59, 0
7, 20640, Note_on_c, 7, 59, 110
7, 20734, Note_on_c, 7, 59, 0
7, 20832, Note_on_c, 7, 66, 110
7, 20926, Note_on_c, 7, 66, 0
7, 20928, Note_on_c, 7, 59, 110
7, 21022, Note_on_c, 7, 59, 0
7, 21024, Note_on_c, 7, 58, 110
7, 21214, Note_on_c, 7, 58, 0
7, 21216, Note_on_c, 7, 59, 110
7, 21472, Note_on_c, 7, 59, 0
7, 21696, Note_on_c, 7, 59, 110
7, 21790, Note_on_c, 7, 59, 0
7, 21792, Note_on_c, 7, 58, 110
7, 21982, Note_on_c, 7, 58, 0
7, 21984, Note_on_c, 7, 59, 110
7, 22174, Note_on_c, 7, 59, 0
7, 22176, Note_on_c, 7, 59, 110
7, 22270, Note_on_c, 7, 59, 0
7, 22272, Note_on_c, 7, 58, 110
7, 22366, Note_on_c, 7, 58, 0
7, 22368, Note_on_c, 7, 59, 110
7, 22462, Note_on_c, 7, 59, 0
7, 22464, Note_on_c, 7, 66, 110
7, 22558, Note_on_c, 7, 66, 0
7, 22560, Note_on_c, 7, 61, 110
7, 22750, Note_on_c, 7, 61, 0
7, 22752, Note_on_c, 7, 59, 110
7, 23008, Note_on_c, 7, 59, 0
7, 23232, Note_on_c, 7, 59, 110
7, 23392, Note_on_c, 7, 59, 0
7, 23424, Note_on_c, 7, 58, 110
7, 23518, Note_on_c, 7, 58, 0
7, 23520, Note_on_c, 7, 59, 110
7, 23710, Note_on_c, 7, 59, 0
7, 23712, Note_on_c, 7, 59, 110
7, 23806, Note_on_c, 7, 59, 0
7, 23904, Note_on_c, 7, 66, 110
7, 23998, Note_on_c, 7, 66, 0
7, 24000, Note_on_c, 7, 59, 110
7, 24094, Note_on_c, 7, 59, 0
7, 24096, Note_on_c, 7, 58, 110
7, 24286, Note_on_c, 7, 58, 0
7, 24288, Note_on_c, 7, 59, 110
7, 24544, Note_on_c, 7, 59, 0
7, 24576, Note_on_c, 7, 54, 110
7, 24576, Note_on_c, 7, 59, 110
7, 24736, Note_on_c, 7, 54, 0
7, 24736, Note_on_c, 7, 59, 0
7, 24768, Note_on_c, 7, 59, 110
7, 24862, Note_on_c, 7, 59, 0
7, 24864, Note_on_c, 7, 58, 110
7, 25054, Note_on_c, 7, 58, 0
7, 25056, Note_on_c, 7, 59, 110
7, 25246, Note_on_c, 7, 59, 0
7, 25248, Note_on_c, 7, 59, 110
7, 25342, Note_on_c, 7, 59, 0
7, 25344, Note_on_c, 7, 58, 110
7, 25438, Note_on_c, 7, 58, 0
7, 25440, Note_on_c, 7, 59, 110
7, 25534, Note_on_c, 7, 59, 0
7, 25536, Note_on_c, 7, 66, 110
7, 25630, Note_on_c, 7, 66, 0
7, 25632, Note_on_c, 7, 61, 110
7, 25822, Note_on_c, 7, 61, 0
7, 25824, Note_on_c, 7, 59, 110
7, 26080, Note_on_c, 7, 59, 0
7, 26304, Note_on_c, 7, 59, 110
7, 26304, Note_on_c, 7, 66, 110
7, 26464, Note_on_c, 7, 59, 0
7, 26464, Note_on_c, 7, 66, 0
7, 26496, Note_on_c, 7, 63, 110
7, 26590, Note_on_c, 7, 63, 0
7, 26592, Note_on_c, 7, 64, 110
7, 26848, Note_on_c, 7, 64, 0
7, 26976, Note_on_c, 7, 66, 110
7, 27070, Note_on_c, 7, 66, 0
7, 27072, Note_on_c, 7, 61, 110
7, 27166, Note_on_c, 7, 61, 0
7, 27168, Note_on_c, 7, 73, 110
7, 27358, Note_on_c, 7, 73, 0
7, 27360, Note_on_c, 7, 66, 110
7, 27616, Note_on_c, 7, 66, 0
7, 27744, Note_on_c, 7, 66, 110
7, 27838, Note_on_c, 7, 66, 0
7, 27840, Note_on_c, 7, 71, 110
7, 27934, Note_on_c, 7, 71, 0
7, 27936, Note_on_c, 7, 66, 110
7, 28030, Note_on_c, 7, 66, 0
7, 28032, Note_on_c, 7, 70, 110
7, 28126, Note_on_c, 7, 70, 0
7, 28128, Note_on_c, 7, 71, 110
7, 28318, Note_on_c, 7, 71, 0
7, 28320, Note_on_c, 7, 66, 110
7, 28414, Note_on_c, 7, 66, 0
7, 28416, Note_on_c, 7, 73, 110
7, 28672, Note_on_c, 7, 73, 0
7, 28704, Note_on_c, 7, 73, 110
7, 28726, Note_on_c, 7, 73, 0
7, 28728, Note_on_c, 7, 75, 110
7, 28960, Note_on_c, 7, 75, 0
7, 28992, Note_on_c, 7, 71, 110
7, 29152, Note_on_c, 7, 71, 0
7, 29376, Note_on_c, 7, 64, 110
7, 29536, Note_on_c, 7, 64, 0
7, 29568, Note_on_c, 7, 63, 110
7, 29662, Note_on_c, 7, 63, 0
7, 29664, Note_on_c, 7, 64, 110
7, 29920, Note_on_c, 7, 64, 0
7, 30048, Note_on_c, 7, 66, 110
7, 30142, Note_on_c, 7, 66, 0
7, 30144, Note_on_c, 7, 61, 110
7, 30238, Note_on_c, 7, 61, 0
7, 30240, Note_on_c, 7, 73, 110
7, 30430, Note_on_c, 7, 73, 0
7, 30432, Note_on_c, 7, 66, 110
7, 30688, Note_on_c, 7, 66, 0
7, 30816, Note_on_c, 7, 66, 110
7, 30910, Note_on_c, 7, 66, 0
7, 30912, Note_on_c, 7, 71, 110
7, 31006, Note_on_c, 7, 71, 0
7, 31008, Note_on_c, 7, 66, 110
7, 31102, Note_on_c, 7, 66, 0
7, 31104, Note_on_c, 7, 70, 110
7, 31198, Note_on_c, 7, 70, 0
7, 31200, Note_on_c, 7, 71, 110
7, 31390, Note_on_c, 7, 71, 0
7, 31392, Note_on_c, 7, 66, 110
7, 31486, Note_on_c, 7, 66, 0
7, 31488, Note_on_c, 7, 73, 110
7, 31744, Note_on_c, 7, 73, 0
7, 31776, Note_on_c, 7, 73, 110
7, 31798, Note_on_c, 7, 73, 0
7, 31800, Note_on_c, 7, 75, 110
7, 32032, Note_on_c, 7, 75, 0
7, 32064, Note_on_c, 7, 71, 110
7, 32224, Note_on_c, 7, 71, 0
7, 32448, Note_on_c, 7, 59, 110
7, 32542, Note_on_c, 7, 59, 0
7, 32544, Note_on_c, 7, 61, 110
7, 32976, Note_on_c, 7, 61, 0
7, 33216, Note_on_c, 7, 59, 110
7, 33310, Note_on_c, 7, 59, 0
7, 33312, Note_on_c, 7, 56, 110
7, 33406, Note_on_c, 7, 56, 0
7, 33408, Note_on_c, 7, 59, 110
7, 33502, Note_on_c, 7, 59, 0
7, 33504, Note_on_c, 7, 61, 110
7, 33760, Note_on_c, 7, 61, 0
7, 33984, Note_on_c, 7, 66, 110
7, 34078, Note_on_c, 7, 66, 0
7, 34080, Note_on_c, 7, 63, 110
7, 34174, Note_on_c, 7, 63, 0
7, 34176, Note_on_c, 7, 66, 110
7, 34270, Note_on_c, 7, 66, 0
7, 34272, Note_on_c, 7, 63, 110
7, 34528, Note_on_c, 7, 63, 0
7, 34752, Note_on_c, 7, 59, 110
7, 34846, Note_on_c, 7, 59, 0
7, 34848, Note_on_c, 7, 61, 110
7, 34942, Note_on_c, 7, 61, 0
7, 34944, Note_on_c, 7, 61, 110
7, 34966, Note_on_c, 7, 61, 0
7, 34968, Note_on_c, 7, 63, 110
7, 35038, Note_on_c, 7, 63, 0
7, 35040, Note_on_c, 7, 59, 110
7, 35296, Note_on_c, 7, 59, 0
7, 35520, Note_on_c, 7, 59, 110
7, 35614, Note_on_c, 7, 59, 0
7, 35616, Note_on_c, 7, 61, 110
7, 36048, Note_on_c, 7, 61, 0
7, 36288, Note_on_c, 7, 59, 110
7, 36382, Note_on_c, 7, 59, 0
7, 36384, Note_on_c, 7, 56, 110
7, 36478, Note_on_c, 7, 56, 0
7, 36480, Note_on_c, 7, 59, 110
7, 36574, Note_on_c, 7, 59, 0
7, 36576, Note_on_c, 7, 61, 110
7, 36832, Note_on_c, 7, 61, 0
7, 37056, Note_on_c, 7, 66, 110
7, 37150, Note_on_c, 7, 66, 0
7, 37152, Note_on_c, 7, 63, 110
7, 37246, Note_on_c, 7, 63, 0
7, 37248, Note_on_c, 7, 66, 110
7, 37342, Note_on_c, 7, 66, 0
7, 37344, Note_on_c, 7, 71, 110
7, 37438, Note_on_c, 7, 71, 0
7, 37536, Note_on_c, 7, 66, 110
7, 37558, Note_on_c, 7, 66, 0
7, 37560, Note_on_c, 7, 68, 110
7, 37560, Note_on_c, 7, 71, 110
7, 37726, Note_on_c, 7, 68, 0
7, 37726, Note_on_c, 7, 71, 0
7, 37728, Note_on_c, 7, 66, 110
7, 37918, Note_on_c, 7, 66, 0
7, 37920, Note_on_c, 7, 68, 110
7, 38014, Note_on_c, 7, 68, 0
7, 38016, Note_on_c, 7, 61, 110
7, 38038, Note_on_c, 7, 61, 0
7, 38040, Note_on_c, 7, 63, 110
7, 38110, Note_on_c, 7, 63, 0
7, 38112, Note_on_c, 7, 59, 110
7, 38368, Note_on_c, 7, 59, 0
7, 38400, Note_on_c, 7, 59, 110
7, 38400, Note_on_c, 7, 66, 110
7, 39888, Note_on_c, 7, 59, 0
7, 39888, Note_on_c, 7, 66, 0
7, 53952, Note_on_c, 7, 59, 110
7, 54112, Note_on_c, 7, 59, 0
7, 54144, Note_on_c, 7, 58, 110
7, 54238, Note_on_c, 7, 58, 0
7, 54240, Note_on_c, 7, 59, 110
7, 54430, Note_on_c, 7, 59, 0
7, 54432, Note_on_c, 7, 59, 110
7, 54526, Note_on_c, 7, 59, 0
7, 54624, Note_on_c, 7, 66, 110
7, 54718, Note_on_c, 7, 66, 0
7, 54720, Note_on_c, 7, 59, 110
7, 54814, Note_on_c, 7, 59, 0
7, 54816, Note_on_c, 7, 58, 110
7, 55006, Note_on_c, 7, 58, 0
7, 55008, Note_on_c, 7, 59, 110
7, 55264, Note_on_c, 7, 59, 0
7, 55488, Note_on_c, 7, 59, 110
7, 55582, Note_on_c, 7, 59, 0
7, 55584, Note_on_c, 7, 58, 110
7, 55774, Note_on_c, 7, 58, 0
7, 55776, Note_on_c, 7, 59, 110
7, 55966, Note_on_c, 7, 59, 0
7, 55968, Note_on_c, 7, 59, 110
7, 56062, Note_on_c, 7, 59, 0
7, 56064, Note_on_c, 7, 58, 110
7, 56158, Note_on_c, 7, 58, 0
7, 56160, Note_on_c, 7, 59, 110
7, 56254, Note_on_c, 7, 59, 0
7, 56256, Note_on_c, 7, 66, 110
7, 56350, Note_on_c, 7, 66, 0
7, 56352, Note_on_c, 7, 61, 110
7, 56542, Note_on_c, 7, 61, 0
7, 56544, Note_on_c, 7, 59, 110
7, 56800, Note_on_c, 7, 59, 0
7, 57024, Note_on_c, 7, 59, 110
7, 57184, Note_on_c, 7, 59, 0
7, 57216, Note_on_c, 7, 58, 110
7, 57310, Note_on_c, 7, 58, 0
7, 57312, Note_on_c, 7, 59, 110
7, 57502, Note_on_c, 7, 59, 0
7, 57504, Note_on_c, 7, 59, 110
7, 57598, Note_on_c, 7, 59, 0
7, 57696, Note_on_c, 7, 66, 110
7, 57790, Note_on_c, 7, 66, 0
7, 57792, Note_on_c, 7, 59, 110
7, 57886, Note_on_c, 7, 59, 0
7, 57888, Note_on_c, 7, 58, 110
7, 58078, Note_on_c, 7, 58, 0
7, 58080, Note_on_c, 7, 59, 110
7, 58336, Note_on_c, 7, 59, 0
7, 58368, Note_on_c, 7, 54, 110
7, 58368, Note_on_c, 7, 59, 110
7, 58528, Note_on_c, 7, 54, 0
7, 58528, Note_on_c, 7, 59, 0
7, 58560, Note_on_c, 7, 59, 110
7, 58654, Note_on_c, 7, 59, 0
7, 58656, Note_on_c, 7, 58, 110
7, 58846, Note_on_c, 7, 58, 0
7, 58848, Note_on_c, 7, 59, 110
7, 59038, Note_on_c, 7, 59, 0
7, 59040, Note_on_c, 7, 59, 110
7, 59134, Note_on_c, 7, 59, 0
7, 59136, Note_on_c, 7, 58, 110
7, 59230, Note_on_c, 7, 58, 0
7, 59232, Note_on_c, 7, 59, 110
7, 59326, Note_on_c, 7, 59, 0
7, 59328, Note_on_c, 7, 66, 110
7, 59422, Note_on_c, 7, 66, 0
7, 59424, Note_on_c, 7, 61, 110
7, 59614, Note_on_c, 7, 61, 0
7, 59616, Note_on_c, 7, 59, 110
7, 59872, Note_on_c, 7, 59, 0
7, 60096, Note_on_c, 7, 59, 110
7, 60096, Note_on_c, 7, 66, 110
7, 60256, Note_on_c, 7, 59, 0
7, 60256, Note_on_c, 7, 66, 0
7, 60288, Note_on_c, 7, 63, 110
7, 60382, Note_on_c, 7, 63, 0
7, 60384, Note_on_c, 7, 64, 110
7, 60640, Note_on_c, 7, 64, 0
7, 60768, Note_on_c, 7, 66, 110
7, 60862, Note_on_c, 7, 66, 0
7, 60864, Note_on_c, 7, 61, 110
7, 60958, Note_on_c, 7, 61, 0
7, 60960, Note_on_c, 7, 73, 110
7, 61150, Note_on_c, 7, 73, 0
7, 61152, Note_on_c, 7, 66, 110
7, 61408, Note_on_c, 7, 66, 0
7, 61536, Note_on_c, 7, 66, 110
7, 61630, Note_on_c, 7, 66, 0
7, 61632, Note_on_c, 7, 71, 110
7, 61726, Note_on_c, 7, 71, 0
7, 61728, Note_on_c, 7, 66, 110
7, 61822, Note_on_c, 7, 66, 0
7, 61824, Note_on_c, 7, 70, 110
7, 61918, Note_on_c, 7, 70, 0
7, 61920, Note_on_c, 7, 71, 110
7, 62110, Note_on_c, 7, 71, 0
7, 62112, Note_on_c, 7, 66, 110
7, 62206, Note_on_c, 7, 66, 0
7, 62208, Note_on_c, 7, 73, 110
7, 62464, Note_on_c, 7, 73, 0
7, 62496, Note_on_c, 7, 73, 110
7, 62518, Note_on_c, 7, 73, 0
7, 62520, Note_on_c, 7, 75, 110
7, 62752, Note_on_c, 7, 75, 0
7, 62784, Note_on_c, 7, 71, 110
7, 62944, Note_on_c, 7, 71, 0
7, 63168, Note_on_c, 7, 64, 110
7, 63328, Note_on_c, 7, 64, 0
7, 63360, Note_on_c, 7, 63, 110
7, 63454, Note_on_c, 7, 63, 0
7, 63456, Note_on_c, 7, 64, 110
7, 63712, Note_on_c, 7, 64, 0
7, 63840, Note_on_c, 7, 66, 110
7, 63934, Note_on_c, 7, 66, 0
7, 63936, Note_on_c, 7, 61, 110
7, 64030, Note_on_c, 7, 61, 0
7, 64032, Note_on_c, 7, 73, 110
7, 64222, Note_on_c, 7, 73, 0
7, 64224, Note_on_c, 7, 66, 110
7, 64480, Note_on_c, 7, 66, 0
7, 64608, Note_on_c, 7, 66, 110
7, 64702, Note_on_c, 7, 66, 0
7, 64704, Note_on_c, 7, 71, 110
7, 64798, Note_on_c, 7, 71, 0
7, 64800, Note_on_c, 7, 66, 110
7, 64894, Note_on_c, 7, 66, 0
7, 64896, Note_on_c, 7, 70, 110
7, 64990, Note_on_c, 7, 70, 0
7, 64992, Note_on_c, 7, 71, 110
7, 65182, Note_on_c, 7, 71, 0
7, 65184, Note_on_c, 7, 66, 110
7, 65278, Note_on_c, 7, 66, 0
7, 65280, Note_on_c, 7, 73, 110
7, 65536, Note_on_c, 7, 73, 0
7, 65568, Note_on_c, 7, 73, 110
7, 65590, Note_on_c, 7, 73, 0
7, 65592, Note_on_c, 7, 75, 110
7, 65824, Note_on_c, 7, 75, 0
7, 65856, Note_on_c, 7, 71, 110
7, 66016, Note_on_c, 7, 71, 0
7, 73920, Note_on_c, 7, 58, 110
7, 74014, Note_on_c, 7, 58, 0
7, 74016, Note_on_c, 7, 59, 110
7, 74206, Note_on_c, 7, 59, 0
7, 74208, Note_on_c, 7, 59, 110
7, 74302, Note_on_c, 7, 59, 0
7, 74592, Note_on_c, 7, 59, 110
7, 74686, Note_on_c, 7, 59, 0
7, 74688, Note_on_c, 7, 61, 110
7, 74710, Note_on_c, 7, 61, 0
7, 74712, Note_on_c, 7, 63, 110
7, 74782, Note_on_c, 7, 63, 0
7, 74784, Note_on_c, 7, 61, 110
7, 75216, Note_on_c, 7, 61, 0
7, 75456, Note_on_c, 7, 61, 110
7, 75478, Note_on_c, 7, 61, 0
7, 75480, Note_on_c, 7, 63, 110
7, 75550, Note_on_c, 7, 63, 0
7, 75552, Note_on_c, 7, 66, 110
7, 75742, Note_on_c, 7, 66, 0
7, 75744, Note_on_c, 7, 63, 110
7, 75838, Note_on_c, 7, 63, 0
7, 75840, Note_on_c, 7, 61, 110
7, 75934, Note_on_c, 7, 61, 0
7, 75936, Note_on_c, 7, 59, 110
7, 76030, Note_on_c, 7, 59, 0
7, 76224, Note_on_c, 7, 61, 110
7, 76246, Note_on_c, 7, 61, 0
7, 76248, Note_on_c, 7, 63, 110
7, 76318, Note_on_c, 7, 63, 0
7, 76320, Note_on_c, 7, 61, 110
7, 76510, Note_on_c, 7, 61, 0
7, 76512, Note_on_c, 7, 59, 110
7, 76768, Note_on_c, 7, 59, 0
7, 77088, Note_on_c, 7, 61, 110
7, 77278, Note_on_c, 7, 61, 0
7, 77280, Note_on_c, 7, 61, 110
7, 77302, Note_on_c, 7, 61, 0
7, 77304, Note_on_c, 7, 63, 110
7, 77374, Note_on_c, 7, 63, 0
7, 77376, Note_on_c, 7, 66, 110
7, 77536, Note_on_c, 7, 66, 0
7, 77664, Note_on_c, 7, 66, 110
7, 77758, Note_on_c, 7, 66, 0
7, 77760, Note_on_c, 7, 68, 110
7, 77854, Note_on_c, 7, 68, 0
7, 77856, Note_on_c, 7, 71, 110
7, 77950, Note_on_c, 7, 71, 0
7, 77952, Note_on_c, 7, 73, 110
7, 77974, Note_on_c, 7, 73, 0
7, 77976, Note_on_c, 7, 75, 110
7, 78142, Note_on_c, 7, 75, 0
7, 78144, Note_on_c, 7, 73, 110
7, 78304, Note_on_c, 7, 73, 0
7, 78528, Note_on_c, 7, 75, 110
7, 78622, Note_on_c, 7, 75, 0
7, 78624, Note_on_c, 7, 76, 110
7, 78718, Note_on_c, 7, 76, 0
7, 78720, Note_on_c, 7, 78, 110
7, 78814, Note_on_c, 7, 78, 0
7, 78816, Note_on_c, 7, 73, 110
7, 78838, Note_on_c, 7, 73, 0
7, 78840, Note_on_c, 7, 75, 110
7, 78910, Note_on_c, 7, 75, 0
7, 78912, Note_on_c, 7, 73, 110
7, 79006, Note_on_c, 7, 73, 0
7, 79008, Note_on_c, 7, 71, 110
7, 79198, Note_on_c, 7, 71, 0
7, 79200, Note_on_c, 7, 66, 110
7, 79294, Note_on_c, 7, 66, 0
7, 79296, Note_on_c, 7, 68, 110
7, 79390, Note_on_c, 7, 68, 0
7, 79392, Note_on_c, 7, 73, 110
7, 79414, Note_on_c, 7, 73, 0
7, 79416, Note_on_c, 7, 75, 110
7, 79582, Note_on_c, 7, 75, 0
7, 79584, Note_on_c, 7, 71, 110
7, 79840, Note_on_c, 7, 71, 0
7, 79968, Note_on_c, 7, 68, 110
7, 80062, Note_on_c, 7, 68, 0
7, 80064, Note_on_c, 7, 71, 110
7, 80158, Note_on_c, 7, 71, 0
7, 80160, Note_on_c, 7, 68, 110
7, 80254, Note_on_c, 7, 68, 0
7, 80256, Note_on_c, 7, 73, 110
7, 80592, Note_on_c, 7, 73, 0
7, 80736, Note_on_c, 7, 66, 110
7, 80830, Note_on_c, 7, 66, 0
7, 80832, Note_on_c, 7, 71, 110
7, 80926, Note_on_c, 7, 71, 0
7, 80928, Note_on_c, 7, 66, 110
7, 81022, Note_on_c, 7, 66, 0
7, 81024, Note_on_c, 7, 71, 110
7, 81118, Note_on_c, 7, 71, 0
7, 81120, Note_on_c, 7, 73, 110
7, 81376, Note_on_c, 7, 73, 0
7, 81696, Note_on_c, 7, 73, 110
7, 81718, Note_on_c, 7, 73, 0
7, 81720, Note_on_c, 7, 75, 110
7, 81790, Note_on_c, 7, 75, 0
7, 81792, Note_on_c, 7, 73, 110
7, 81814, Note_on_c, 7, 73, 0
7, 81816, Note_on_c, 7, 75, 110
7, 81886, Note_on_c, 7, 75, 0
7, 81888, Note_on_c, 7, 73, 110
7, 81910, Note_on_c, 7, 73, 0
7, 81912, Note_on_c, 7, 75, 110
7, 82432, Note_on_c, 7, 75, 0
7, 82464, Note_on_c, 7, 71, 110
7, 82896, Note_on_c, 7, 71, 0
7, 83040, Note_on_c, 7, 68, 110
7, 83134, Note_on_c, 7, 68, 0
7, 83136, Note_on_c, 7, 71, 110
7, 83230, Note_on_c, 7, 71, 0
7, 83232, Note_on_c, 7, 73, 110
7, 83664, Note_on_c, 7, 73, 0
7, 83808, Note_on_c, 7, 66, 110
7, 83902, Note_on_c, 7, 66, 0
7, 83904, Note_on_c, 7, 71, 110
7, 83998, Note_on_c, 7, 71, 0
7, 84000, Note_on_c, 7, 66, 110
7, 84094, Note_on_c, 7, 66, 0
7, 84096, Note_on_c, 7, 71, 110
7, 84190, Note_on_c, 7, 71, 0
7, 84192, Note_on_c, 7, 73, 110
7, 84448, Note_on_c, 7, 73, 0
7, 84576, Note_on_c, 7, 66, 110
7, 84670, Note_on_c, 7, 66, 0
7, 84672, Note_on_c, 7, 73, 110
7, 84694, Note_on_c, 7, 73, 0
7, 84696, Note_on_c, 7, 75, 110
7, 84766, Note_on_c, 7, 75, 0
7, 84768, Note_on_c, 7, 78, 110
7, 84862, Note_on_c, 7, 78, 0
7, 84864, Note_on_c, 7, 73, 110
7, 84886, Note_on_c, 7, 73, 0
7, 84888, Note_on_c, 7, 75, 110
7, 84958, Note_on_c, 7, 75, 0
7, 84960, Note_on_c, 7, 73, 110
7, 85054, Note_on_c, 7, 73, 0
7, 85056, Note_on_c, 7, 71, 110
7, 85150, Note_on_c, 7, 71, 0
7, 85152, Note_on_c, 7, 73, 110
7, 85174, Note_on_c, 7, 73, 0
7, 85176, Note_on_c, 7, 75, 110
7, 85342, Note_on_c, 7, 75, 0
7, 85344, Note_on_c, 7, 78, 110
7, 85438, Note_on_c, 7, 78, 0
7, 85440, Note_on_c, 7, 75, 110
7, 85534, Note_on_c, 7, 75, 0
7, 85536, Note_on_c, 7, 71, 110
7, 85968, Note_on_c, 7, 71, 0
7, 86016, Note_on_c, 7, 59, 110
7, 86016, Note_on_c, 7, 66, 110
7, 86736, Note_on_c, 7, 59, 0
7, 86736, Note_on_c, 7, 66, 0
7, 86736, End_track
8, 0, Start_track
8, 0, MIDI_port, 0
8, 0, Title_t, "Staff-7"
8, 0, Program_c, 1, 28
8, 0, Pitch_bend_c, 1, 8192
8, 0, Control_c, 1, 7, 127
8, 0, Control_c, 1, 10, 64
8, 7680, Note_on_c, 1, 47, 110
8, 7680, Note_on_c, 1, 54, 110
8, 7774, Note_on_c, 1, 47, 0
8, 7774, Note_on_c, 1, 54, 0
8, 7776, Note_on_c, 1, 47, 110
8, 7776, Note_on_c, 1, 54, 110
8, 7870, Note_on_c, 1, 47, 0
8, 7870, Note_on_c, 1, 54, 0
8, 7872, Note_on_c, 1, 47, 110
8, 7872, Note_on_c, 1, 54, 110
8, 7966, Note_on_c, 1, 47, 0
8, 7966, Note_on_c, 1, 54, 0
8, 7968, Note_on_c, 1, 47, 110
8, 7968, Note_on_c, 1, 54, 110
8, 8062, Note_on_c, 1, 47, 0
8, 8062, Note_on_c, 1, 54, 0
8, 8064, Note_on_c, 1, 47, 110
8, 8064, Note_on_c, 1, 54, 110
8, 8158, Note_on_c, 1, 47, 0
8, 8158, Note_on_c, 1, 54, 0
8, 8160, Note_on_c, 1, 47, 110
8, 8160, Note_on_c, 1, 54, 110
8, 8254, Note_on_c, 1, 47, 0
8, 8254, Note_on_c, 1, 54, 0
8, 8256, Note_on_c, 1, 47, 110
8, 8256, Note_on_c, 1, 54, 110
8, 8350, Note_on_c, 1, 47, 0
8, 8350, Note_on_c, 1, 54, 0
8, 8352, Note_on_c, 1, 47, 110
8, 8352, Note_on_c, 1, 54, 110
8, 8446, Note_on_c, 1, 47, 0
8, 8446, Note_on_c, 1, 54, 0
8, 8448, Note_on_c, 1, 47, 110
8, 8448, Note_on_c, 1, 54, 110
8, 8542, Note_on_c, 1, 47, 0
8, 8542, Note_on_c, 1, 54, 0
8, 8544, Note_on_c, 1, 47, 110
8, 8544, Note_on_c, 1, 54, 110
8, 8638, Note_on_c, 1, 47, 0
8, 8638, Note_on_c, 1, 54, 0
8, 8640, Note_on_c, 1, 47, 110
8, 8640, Note_on_c, 1, 54, 110
8, 8734, Note_on_c, 1, 47, 0
8, 8734, Note_on_c, 1, 54, 0
8, 8736, Note_on_c, 1, 47, 110
8, 8736, Note_on_c, 1, 54, 110
8, 8830, Note_on_c, 1, 47, 0
8, 8830, Note_on_c, 1, 54, 0
8, 8832, Note_on_c, 1, 47, 110
8, 8832, Note_on_c, 1, 54, 110
8, 8926, Note_on_c, 1, 47, 0
8, 8926, Note_on_c, 1, 54, 0
8, 8928, Note_on_c, 1, 47, 110
8, 8928, Note_on_c, 1, 54, 110
8, 9022, Note_on_c, 1, 47, 0
8, 9022, Note_on_c, 1, 54, 0
8, 9024, Note_on_c, 1, 47, 110
8, 9024, Note_on_c, 1, 54, 110
8, 9118, Note_on_c, 1, 47, 0
8, 9118, Note_on_c, 1, 54, 0
8, 9120, Note_on_c, 1, 47, 110
8, 9120, Note_on_c, 1, 54, 110
8, 9214, Note_on_c, 1, 47, 0
8, 9214, Note_on_c, 1, 54, 0
8, 9216, Note_on_c, 1, 52, 110
8, 9216, Note_on_c, 1, 59, 110
8, 9310, Note_on_c, 1, 52, 0
8, 9310, Note_on_c, 1, 59, 0
8, 9312, Note_on_c, 1, 52, 110
8, 9312, Note_on_c, 1, 59, 110
8, 9406, Note_on_c, 1, 52, 0
8, 9406, Note_on_c, 1, 59, 0
8, 9408, Note_on_c, 1, 52, 110
8, 9408, Note_on_c, 1, 59, 110
8, 9502, Note_on_c, 1, 52, 0
8, 9502, Note_on_c, 1, 59, 0
8, 9504, Note_on_c, 1, 52, 110
8, 9504, Note_on_c, 1, 59, 110
8, 9598, Note_on_c, 1, 52, 0
8, 9598, Note_on_c, 1, 59, 0
8, 9600, Note_on_c, 1, 52, 110
8, 9600, Note_on_c, 1, 59, 110
8, 9694, Note_on_c, 1, 52, 0
8, 9694, Note_on_c, 1, 59, 0
8, 9696, Note_on_c, 1, 52, 110
8, 9696, Note_on_c, 1, 59, 110
8, 9790, Note_on_c, 1, 52, 0
8, 9790, Note_on_c, 1, 59, 0
8, 9792, Note_on_c, 1, 52, 110
8, 9792, Note_on_c, 1, 59, 110
8, 9886, Note_on_c, 1, 52, 0
8, 9886, Note_on_c, 1, 59, 0
8, 9888, Note_on_c, 1, 52, 110
8, 9888, Note_on_c, 1, 59, 110
8, 9982, Note_on_c, 1, 52, 0
8, 9982, Note_on_c, 1, 59, 0
8, 9984, Note_on_c, 1, 52, 110
8, 9984, Note_on_c, 1, 59, 110
8, 10078, Note_on_c, 1, 52, 0
8, 10078, Note_on_c, 1, 59, 0
8, 10080, Note_on_c, 1, 52, 110
8, 10080, Note_on_c, 1, 59, 110
8, 10174, Note_on_c, 1, 52, 0
8, 10174, Note_on_c, 1, 59, 0
8, 10176, Note_on_c, 1, 52, 110
8, 10176, Note_on_c, 1, 59, 110
8, 10270, Note_on_c, 1, 52, 0
8, 10270, Note_on_c, 1, 59, 0
8, 10272, Note_on_c, 1, 52, 110
8, 10272, Note_on_c, 1, 59, 110
8, 10366, Note_on_c, 1, 52, 0
8, 10366, Note_on_c, 1, 59, 0
8, 10368, Note_on_c, 1, 52, 110
8, 10368, Note_on_c, 1, 59, 110
8, 10462, Note_on_c, 1, 52, 0
8, 10462, Note_on_c, 1, 59, 0
8, 10464, Note_on_c, 1, 52, 110
8, 10464, Note_on_c, 1, 59, 110
8, 10558, Note_on_c, 1, 52, 0
8, 10558, Note_on_c, 1, 59, 0
8, 10560, Note_on_c, 1, 52, 110
8, 10560, Note_on_c, 1, 59, 110
8, 10654, Note_on_c, 1, 52, 0
8, 10654, Note_on_c, 1, 59, 0
8, 10656, Note_on_c, 1, 52, 110
8, 10656, Note_on_c, 1, 59, 110
8, 10750, Note_on_c, 1, 52, 0
8, 10750, Note_on_c, 1, 59, 0
8, 10752, Note_on_c, 1, 47, 110
8, 10752, Note_on_c, 1, 54, 110
8, 10846, Note_on_c, 1, 47, 0
8, 10846, Note_on_c, 1, 54, 0
8, 10848, Note_on_c, 1, 47, 110
8, 10848, Note_on_c, 1, 54, 110
8, 10942, Note_on_c, 1, 47, 0
8, 10942, Note_on_c, 1, 54, 0
8, 10944, Note_on_c, 1, 47, 110
8, 10944, Note_on_c, 1, 54, 110
8, 11038, Note_on_c, 1, 47, 0
8, 11038, Note_on_c, 1, 54, 0
8, 11040, Note_on_c, 1, 47, 110
8, 11040, Note_on_c, 1, 54, 110
8, 11134, Note_on_c, 1, 47, 0
8, 11134, Note_on_c, 1, 54, 0
8, 11136, Note_on_c, 1, 47, 110
8, 11136, Note_on_c, 1, 54, 110
8, 11230, Note_on_c, 1, 47, 0
8, 11230, Note_on_c, 1, 54, 0
8, 11232, Note_on_c, 1, 47, 110
8, 11232, Note_on_c, 1, 54, 110
8, 11326, Note_on_c, 1, 47, 0
8, 11326, Note_on_c, 1, 54, 0
8, 11328, Note_on_c, 1, 47, 110
8, 11328, Note_on_c, 1, 54, 110
8, 11422, Note_on_c, 1, 47, 0
8, 11422, Note_on_c, 1, 54, 0
8, 11424, Note_on_c, 1, 47, 110
8, 11424, Note_on_c, 1, 54, 110
8, 11518, Note_on_c, 1, 47, 0
8, 11518, Note_on_c, 1, 54, 0
8, 11520, Note_on_c, 1, 47, 110
8, 11520, Note_on_c, 1, 54, 110
8, 11614, Note_on_c, 1, 47, 0
8, 11614, Note_on_c, 1, 54, 0
8, 11616, Note_on_c, 1, 47, 110
8, 11616, Note_on_c, 1, 54, 110
8, 11710, Note_on_c, 1, 47, 0
8, 11710, Note_on_c, 1, 54, 0
8, 11712, Note_on_c, 1, 47, 110
8, 11712, Note_on_c, 1, 54, 110
8, 11806, Note_on_c, 1, 47, 0
8, 11806, Note_on_c, 1, 54, 0
8, 11808, Note_on_c, 1, 47, 110
8, 11808, Note_on_c, 1, 54, 110
8, 11902, Note_on_c, 1, 47, 0
8, 11902, Note_on_c, 1, 54, 0
8, 11904, Note_on_c, 1, 47, 110
8, 11904, Note_on_c, 1, 54, 110
8, 11998, Note_on_c, 1, 47, 0
8, 11998, Note_on_c, 1, 54, 0
8, 12000, Note_on_c, 1, 47, 110
8, 12000, Note_on_c, 1, 54, 110
8, 12094, Note_on_c, 1, 47, 0
8, 12094, Note_on_c, 1, 54, 0
8, 12096, Note_on_c, 1, 47, 110
8, 12096, Note_on_c, 1, 54, 110
8, 12190, Note_on_c, 1, 47, 0
8, 12190, Note_on_c, 1, 54, 0
8, 12192, Note_on_c, 1, 47, 110
8, 12192, Note_on_c, 1, 54, 110
8, 12286, Note_on_c, 1, 47, 0
8, 12286, Note_on_c, 1, 54, 0
8, 12288, Note_on_c, 1, 52, 110
8, 12288, Note_on_c, 1, 59, 110
8, 12382, Note_on_c, 1, 52, 0
8, 12382, Note_on_c, 1, 59, 0
8, 12384, Note_on_c, 1, 52, 110
8, 12384, Note_on_c, 1, 59, 110
8, 12478, Note_on_c, 1, 52, 0
8, 12478, Note_on_c, 1, 59, 0
8, 12480, Note_on_c, 1, 52, 110
8, 12480, Note_on_c, 1, 59, 110
8, 12574, Note_on_c, 1, 52, 0
8, 12574, Note_on_c, 1, 59, 0
8, 12576, Note_on_c, 1, 52, 110
8, 12576, Note_on_c, 1, 59, 110
8, 12670, Note_on_c, 1, 52, 0
8, 12670, Note_on_c, 1, 59, 0
8, 12672, Note_on_c, 1, 52, 110
8, 12672, Note_on_c, 1, 59, 110
8, 12766, Note_on_c, 1, 52, 0
8, 12766, Note_on_c, 1, 59, 0
8, 12768, Note_on_c, 1, 52, 110
8, 12768, Note_on_c, 1, 59, 110
8, 12862, Note_on_c, 1, 52, 0
8, 12862, Note_on_c, 1, 59, 0
8, 12864, Note_on_c, 1, 52, 110
8, 12864, Note_on_c, 1, 59, 110
8, 12958, Note_on_c, 1, 52, 0
8, 12958, Note_on_c, 1, 59, 0
8, 12960, Note_on_c, 1, 52, 110
8, 12960, Note_on_c, 1, 59, 110
8, 13054, Note_on_c, 1, 52, 0
8, 13054, Note_on_c, 1, 59, 0
8, 13056, Note_on_c, 1, 52, 110
8, 13056, Note_on_c, 1, 59, 110
8, 13150, Note_on_c, 1, 52, 0
8, 13150, Note_on_c, 1, 59, 0
8, 13152, Note_on_c, 1, 52, 110
8, 13152, Note_on_c, 1, 59, 110
8, 13246, Note_on_c, 1, 52, 0
8, 13246, Note_on_c, 1, 59, 0
8, 13248, Note_on_c, 1, 52, 110
8, 13248, Note_on_c, 1, 59, 110
8, 13342, Note_on_c, 1, 52, 0
8, 13342, Note_on_c, 1, 59, 0
8, 13344, Note_on_c, 1, 52, 110
8, 13344, Note_on_c, 1, 59, 110
8, 13438, Note_on_c, 1, 52, 0
8, 13438, Note_on_c, 1, 59, 0
8, 13440, Note_on_c, 1, 52, 110
8, 13440, Note_on_c, 1, 59, 110
8, 13534, Note_on_c, 1, 52, 0
8, 13534, Note_on_c, 1, 59, 0
8, 13536, Note_on_c, 1, 52, 110
8, 13536, Note_on_c, 1, 59, 110
8, 13630, Note_on_c, 1, 52, 0
8, 13630, Note_on_c, 1, 59, 0
8, 13632, Note_on_c, 1, 52, 110
8, 13632, Note_on_c, 1, 59, 110
8, 13726, Note_on_c, 1, 52, 0
8, 13726, Note_on_c, 1, 59, 0
8, 13728, Note_on_c, 1, 52, 110
8, 13728, Note_on_c, 1, 59, 110
8, 13822, Note_on_c, 1, 52, 0
8, 13822, Note_on_c, 1, 59, 0
8, 13824, Note_on_c, 1, 49, 110
8, 13824, Note_on_c, 1, 56, 110
8, 13918, Note_on_c, 1, 49, 0
8, 13918, Note_on_c, 1, 56, 0
8, 13920, Note_on_c, 1, 49, 110
8, 13920, Note_on_c, 1, 56, 110
8, 14014, Note_on_c, 1, 49, 0
8, 14014, Note_on_c, 1, 56, 0
8, 14016, Note_on_c, 1, 49, 110
8, 14016, Note_on_c, 1, 56, 110
8, 14110, Note_on_c, 1, 49, 0
8, 14110, Note_on_c, 1, 56, 0
8, 14112, Note_on_c, 1, 49, 110
8, 14112, Note_on_c, 1, 56, 110
8, 14206, Note_on_c, 1, 49, 0
8, 14206, Note_on_c, 1, 56, 0
8, 14208, Note_on_c, 1, 47, 110
8, 14208, Note_on_c, 1, 54, 110
8, 14302, Note_on_c, 1, 47, 0
8, 14302, Note_on_c, 1, 54, 0
8, 14304, Note_on_c, 1, 47, 110
8, 14304, Note_on_c, 1, 54, 110
8, 14398, Note_on_c, 1, 47, 0
8, 14398, Note_on_c, 1, 54, 0
8, 14400, Note_on_c, 1, 47, 110
8, 14400, Note_on_c, 1, 54, 110
8, 14494, Note_on_c, 1, 47, 0
8, 14494, Note_on_c, 1, 54, 0
8, 14496, Note_on_c, 1, 47, 110
8, 14496, Note_on_c, 1, 54, 110
8, 14590, Note_on_c, 1, 47, 0
8, 14590, Note_on_c, 1, 54, 0
8, 14592, Note_on_c, 1, 42, 110
8, 14592, Note_on_c, 1, 49, 110
8, 14686, Note_on_c, 1, 42, 0
8, 14686, Note_on_c, 1, 49, 0
8, 14688, Note_on_c, 1, 42, 110
8, 14688, Note_on_c, 1, 49, 110
8, 14782, Note_on_c, 1, 42, 0
8, 14782, Note_on_c, 1, 49, 0
8, 14784, Note_on_c, 1, 42, 110
8, 14784, Note_on_c, 1, 49, 110
8, 14878, Note_on_c, 1, 42, 0
8, 14878, Note_on_c, 1, 49, 0
8, 14880, Note_on_c, 1, 42, 110
8, 14880, Note_on_c, 1, 49, 110
8, 14974, Note_on_c, 1, 42, 0
8, 14974, Note_on_c, 1, 49, 0
8, 14976, Note_on_c, 1, 42, 110
8, 14976, Note_on_c, 1, 49, 110
8, 15070, Note_on_c, 1, 42, 0
8, 15070, Note_on_c, 1, 49, 0
8, 15072, Note_on_c, 1, 42, 110
8, 15072, Note_on_c, 1, 49, 110
8, 15166, Note_on_c, 1, 42, 0
8, 15166, Note_on_c, 1, 49, 0
8, 15168, Note_on_c, 1, 42, 110
8, 15168, Note_on_c, 1, 49, 110
8, 15262, Note_on_c, 1, 42, 0
8, 15262, Note_on_c, 1, 49, 0
8, 15264, Note_on_c, 1, 42, 110
8, 15264, Note_on_c, 1, 49, 110
8, 15358, Note_on_c, 1, 42, 0
8, 15358, Note_on_c, 1, 49, 0
8, 15360, Note_on_c, 1, 49, 110
8, 15360, Note_on_c, 1, 56, 110
8, 15454, Note_on_c, 1, 49, 0
8, 15454, Note_on_c, 1, 56, 0
8, 15456, Note_on_c, 1, 49, 110
8, 15456, Note_on_c, 1, 56, 110
8, 15550, Note_on_c, 1, 49, 0
8, 15550, Note_on_c, 1, 56, 0
8, 15552, Note_on_c, 1, 49, 110
8, 15552, Note_on_c, 1, 56, 110
8, 15646, Note_on_c, 1, 49, 0
8, 15646, Note_on_c, 1, 56, 0
8, 15648, Note_on_c, 1, 49, 110
8, 15648, Note_on_c, 1, 56, 110
8, 15742, Note_on_c, 1, 49, 0
8, 15742, Note_on_c, 1, 56, 0
8, 15744, Note_on_c, 1, 47, 110
8, 15744, Note_on_c, 1, 54, 110
8, 15838, Note_on_c, 1, 47, 0
8, 15838, Note_on_c, 1, 54, 0
8, 15840, Note_on_c, 1, 47, 110
8, 15840, Note_on_c, 1, 54, 110
8, 15934, Note_on_c, 1, 47, 0
8, 15934, Note_on_c, 1, 54, 0
8, 15936, Note_on_c, 1, 47, 110
8, 15936, Note_on_c, 1, 54, 110
8, 16030, Note_on_c, 1, 47, 0
8, 16030, Note_on_c, 1, 54, 0
8, 16032, Note_on_c, 1, 47, 110
8, 16032, Note_on_c, 1, 54, 110
8, 16126, Note_on_c, 1, 47, 0
8, 16126, Note_on_c, 1, 54, 0
8, 16128, Note_on_c, 1, 42, 110
8, 16128, Note_on_c, 1, 49, 110
8, 16222, Note_on_c, 1, 42, 0
8, 16222, Note_on_c, 1, 49, 0
8, 16224, Note_on_c, 1, 42, 110
8, 16224, Note_on_c, 1, 49, 110
8, 16318, Note_on_c, 1, 42, 0
8, 16318, Note_on_c, 1, 49, 0
8, 16320, Note_on_c, 1, 42, 110
8, 16320, Note_on_c, 1, 49, 110
8, 16414, Note_on_c, 1, 42, 0
8, 16414, Note_on_c, 1, 49, 0
8, 16416, Note_on_c, 1, 42, 110
8, 16416, Note_on_c, 1, 49, 110
8, 16510, Note_on_c, 1, 42, 0
8, 16510, Note_on_c, 1, 49, 0
8, 16512, Note_on_c, 1, 42, 110
8, 16512, Note_on_c, 1, 49, 110
8, 16606, Note_on_c, 1, 42, 0
8, 16606, Note_on_c, 1, 49, 0
8, 16608, Note_on_c, 1, 42, 110
8, 16608, Note_on_c, 1, 49, 110
8, 16702, Note_on_c, 1, 42, 0
8, 16702, Note_on_c, 1, 49, 0
8, 16704, Note_on_c, 1, 42, 110
8, 16704, Note_on_c, 1, 49, 110
8, 16798, Note_on_c, 1, 42, 0
8, 16798, Note_on_c, 1, 49, 0
8, 16800, Note_on_c, 1, 42, 110
8, 16800, Note_on_c, 1, 49, 110
8, 16894, Note_on_c, 1, 42, 0
8, 16894, Note_on_c, 1, 49, 0
8, 16896, Note_on_c, 1, 49, 110
8, 16896, Note_on_c, 1, 56, 110
8, 16990, Note_on_c, 1, 49, 0
8, 16990, Note_on_c, 1, 56, 0
8, 16992, Note_on_c, 1, 49, 110
8, 16992, Note_on_c, 1, 56, 110
8, 17086, Note_on_c, 1, 49, 0
8, 17086, Note_on_c, 1, 56, 0
8, 17088, Note_on_c, 1, 49, 110
8, 17088, Note_on_c, 1, 56, 110
8, 17182, Note_on_c, 1, 49, 0
8, 17182, Note_on_c, 1, 56, 0
8, 17184, Note_on_c, 1, 49, 110
8, 17184, Note_on_c, 1, 56, 110
8, 17278, Note_on_c, 1, 49, 0
8, 17278, Note_on_c, 1, 56, 0
8, 17280, Note_on_c, 1, 47, 110
8, 17280, Note_on_c, 1, 54, 110
8, 17374, Note_on_c, 1, 47, 0
8, 17374, Note_on_c, 1, 54, 0
8, 17376, Note_on_c, 1, 47, 110
8, 17376, Note_on_c, 1, 54, 110
8, 17470, Note_on_c, 1, 47, 0
8, 17470, Note_on_c, 1, 54, 0
8, 17472, Note_on_c, 1, 47, 110
8, 17472, Note_on_c, 1, 54, 110
8, 17566, Note_on_c, 1, 47, 0
8, 17566, Note_on_c, 1, 54, 0
8, 17568, Note_on_c, 1, 47, 110
8, 17568, Note_on_c, 1, 54, 110
8, 17662, Note_on_c, 1, 47, 0
8, 17662, Note_on_c, 1, 54, 0
8, 17664, Note_on_c, 1, 42, 110
8, 17664, Note_on_c, 1, 49, 110
8, 17758, Note_on_c, 1, 42, 0
8, 17758, Note_on_c, 1, 49, 0
8, 17760, Note_on_c, 1, 42, 110
8, 17760, Note_on_c, 1, 49, 110
8, 17854, Note_on_c, 1, 42, 0
8, 17854, Note_on_c, 1, 49, 0
8, 17856, Note_on_c, 1, 42, 110
8, 17856, Note_on_c, 1, 49, 110
8, 17950, Note_on_c, 1, 42, 0
8, 17950, Note_on_c, 1, 49, 0
8, 17952, Note_on_c, 1, 42, 110
8, 17952, Note_on_c, 1, 49, 110
8, 18046, Note_on_c, 1, 42, 0
8, 18046, Note_on_c, 1, 49, 0
8, 18048, Note_on_c, 1, 42, 110
8, 18048, Note_on_c, 1, 49, 110
8, 18142, Note_on_c, 1, 42, 0
8, 18142, Note_on_c, 1, 49, 0
8, 18144, Note_on_c, 1, 42, 110
8, 18144, Note_on_c, 1, 49, 110
8, 18238, Note_on_c, 1, 42, 0
8, 18238, Note_on_c, 1, 49, 0
8, 18240, Note_on_c, 1, 42, 110
8, 18240, Note_on_c, 1, 49, 110
8, 18334, Note_on_c, 1, 42, 0
8, 18334, Note_on_c, 1, 49, 0
8, 18336, Note_on_c, 1, 42, 110
8, 18336, Note_on_c, 1, 49, 110
8, 18430, Note_on_c, 1, 42, 0
8, 18430, Note_on_c, 1, 49, 0
8, 18432, Note_on_c, 1, 40, 110
8, 18432, Note_on_c, 1, 47, 110
8, 18526, Note_on_c, 1, 40, 0
8, 18526, Note_on_c, 1, 47, 0
8, 18528, Note_on_c, 1, 40, 110
8, 18528, Note_on_c, 1, 47, 110
8, 18622, Note_on_c, 1, 40, 0
8, 18622, Note_on_c, 1, 47, 0
8, 18624, Note_on_c, 1, 40, 110
8, 18624, Note_on_c, 1, 47, 110
8, 18718, Note_on_c, 1, 40, 0
8, 18718, Note_on_c, 1, 47, 0
8, 18720, Note_on_c, 1, 40, 110
8, 18720, Note_on_c, 1, 47, 110
8, 18814, Note_on_c, 1, 40, 0
8, 18814, Note_on_c, 1, 47, 0
8, 18816, Note_on_c, 1, 40, 110
8, 18816, Note_on_c, 1, 47, 110
8, 18910, Note_on_c, 1, 40, 0
8, 18910, Note_on_c, 1, 47, 0
8, 18912, Note_on_c, 1, 40, 110
8, 18912, Note_on_c, 1, 47, 110
8, 19006, Note_on_c, 1, 40, 0
8, 19006, Note_on_c, 1, 47, 0
8, 19008, Note_on_c, 1, 40, 110
8, 19008, Note_on_c, 1, 47, 110
8, 19102, Note_on_c, 1, 40, 0
8, 19102, Note_on_c, 1, 47, 0
8, 19104, Note_on_c, 1, 40, 110
8, 19104, Note_on_c, 1, 47, 110
8, 19198, Note_on_c, 1, 40, 0
8, 19198, Note_on_c, 1, 47, 0
8, 41472, Note_on_c, 1, 47, 110
8, 41472, Note_on_c, 1, 54, 110
8, 41566, Note_on_c, 1, 47, 0
8, 41566, Note_on_c, 1, 54, 0
8, 41568, Note_on_c, 1, 47, 110
8, 41568, Note_on_c, 1, 54, 110
8, 41662, Note_on_c, 1, 47, 0
8, 41662, Note_on_c, 1, 54, 0
8, 41664, Note_on_c, 1, 47, 110
8, 41664, Note_on_c, 1, 54, 110
8, 41758, Note_on_c, 1, 47, 0
8, 41758, Note_on_c, 1, 54, 0
8, 41760, Note_on_c, 1, 47, 110
8, 41760, Note_on_c, 1, 54, 110
8, 41854, Note_on_c, 1, 47, 0
8, 41854, Note_on_c, 1, 54, 0
8, 41856, Note_on_c, 1, 47, 110
8, 41856, Note_on_c, 1, 54, 110
8, 41950, Note_on_c, 1, 47, 0
8, 41950, Note_on_c, 1, 54, 0
8, 41952, Note_on_c, 1, 47, 110
8, 41952, Note_on_c, 1, 54, 110
8, 42046, Note_on_c, 1, 47, 0
8, 42046, Note_on_c, 1, 54, 0
8, 42048, Note_on_c, 1, 47, 110
8, 42048, Note_on_c, 1, 54, 110
8, 42142, Note_on_c, 1, 47, 0
8, 42142, Note_on_c, 1, 54, 0
8, 42144, Note_on_c, 1, 47, 110
8, 42144, Note_on_c, 1, 54, 110
8, 42238, Note_on_c, 1, 47, 0
8, 42238, Note_on_c, 1, 54, 0
8, 42240, Note_on_c, 1, 47, 110
8, 42240, Note_on_c, 1, 54, 110
8, 42334, Note_on_c, 1, 47, 0
8, 42334, Note_on_c, 1, 54, 0
8, 42336, Note_on_c, 1, 47, 110
8, 42336, Note_on_c, 1, 54, 110
8, 42430, Note_on_c, 1, 47, 0
8, 42430, Note_on_c, 1, 54, 0
8, 42432, Note_on_c, 1, 47, 110
8, 42432, Note_on_c, 1, 54, 110
8, 42526, Note_on_c, 1, 47, 0
8, 42526, Note_on_c, 1, 54, 0
8, 42528, Note_on_c, 1, 47, 110
8, 42528, Note_on_c, 1, 54, 110
8, 42622, Note_on_c, 1, 47, 0
8, 42622, Note_on_c, 1, 54, 0
8, 42624, Note_on_c, 1, 47, 110
8, 42624, Note_on_c, 1, 54, 110
8, 42718, Note_on_c, 1, 47, 0
8, 42718, Note_on_c, 1, 54, 0
8, 42720, Note_on_c, 1, 47, 110
8, 42720, Note_on_c, 1, 54, 110
8, 42814, Note_on_c, 1, 47, 0
8, 42814, Note_on_c, 1, 54, 0
8, 42816, Note_on_c, 1, 47, 110
8, 42816, Note_on_c, 1, 54, 110
8, 42910, Note_on_c, 1, 47, 0
8, 42910, Note_on_c, 1, 54, 0
8, 42912, Note_on_c, 1, 47, 110
8, 42912, Note_on_c, 1, 54, 110
8, 43006, Note_on_c, 1, 47, 0
8, 43006, Note_on_c, 1, 54, 0
8, 43008, Note_on_c, 1, 52, 110
8, 43008, Note_on_c, 1, 59, 110
8, 43102, Note_on_c, 1, 52, 0
8, 43102, Note_on_c, 1, 59, 0
8, 43104, Note_on_c, 1, 52, 110
8, 43104, Note_on_c, 1, 59, 110
8, 43198, Note_on_c, 1, 52, 0
8, 43198, Note_on_c, 1, 59, 0
8, 43200, Note_on_c, 1, 52, 110
8, 43200, Note_on_c, 1, 59, 110
8, 43294, Note_on_c, 1, 52, 0
8, 43294, Note_on_c, 1, 59, 0
8, 43296, Note_on_c, 1, 52, 110
8, 43296, Note_on_c, 1, 59, 110
8, 43390, Note_on_c, 1, 52, 0
8, 43390, Note_on_c, 1, 59, 0
8, 43392, Note_on_c, 1, 52, 110
8, 43392, Note_on_c, 1, 59, 110
8, 43486, Note_on_c, 1, 52, 0
8, 43486, Note_on_c, 1, 59, 0
8, 43488, Note_on_c, 1, 52, 110
8, 43488, Note_on_c, 1, 59, 110
8, 43582, Note_on_c, 1, 52, 0
8, 43582, Note_on_c, 1, 59, 0
8, 43584, Note_on_c, 1, 52, 110
8, 43584, Note_on_c, 1, 59, 110
8, 43678, Note_on_c, 1, 52, 0
8, 43678, Note_on_c, 1, 59, 0
8, 43680, Note_on_c, 1, 52, 110
8, 43680, Note_on_c, 1, 59, 110
8, 43774, Note_on_c, 1, 52, 0
8, 43774, Note_on_c, 1, 59, 0
8, 43776, Note_on_c, 1, 52, 110
8, 43776, Note_on_c, 1, 59, 110
8, 43870, Note_on_c, 1, 52, 0
8, 43870, Note_on_c, 1, 59, 0
8, 43872, Note_on_c, 1, 52, 110
8, 43872, Note_on_c, 1, 59, 110
8, 43966, Note_on_c, 1, 52, 0
8, 43966, Note_on_c, 1, 59, 0
8, 43968, Note_on_c, 1, 52, 110
8, 43968, Note_on_c, 1, 59, 110
8, 44062, Note_on_c, 1, 52, 0
8, 44062, Note_on_c, 1, 59, 0
8, 44064, Note_on_c, 1, 52, 110
8, 44064, Note_on_c, 1, 59, 110
8, 44158, Note_on_c, 1, 52, 0
8, 44158, Note_on_c, 1, 59, 0
8, 44160, Note_on_c, 1, 52, 110
8, 44160, Note_on_c, 1, 59, 110
8, 44254, Note_on_c, 1, 52, 0
8, 44254, Note_on_c, 1, 59, 0
8, 44256, Note_on_c, 1, 52, 110
8, 44256, Note_on_c, 1, 59, 110
8, 44350, Note_on_c, 1, 52, 0
8, 44350, Note_on_c, 1, 59, 0
8, 44352, Note_on_c, 1, 52, 110
8, 44352, Note_on_c, 1, 59, 110
8, 44446, Note_on_c, 1, 52, 0
8, 44446, Note_on_c, 1, 59, 0
8, 44448, Note_on_c, 1, 52, 110
8, 44448, Note_on_c, 1, 59, 110
8, 44542, Note_on_c, 1, 52, 0
8, 44542, Note_on_c, 1, 59, 0
8, 44544, Note_on_c, 1, 47, 110
8, 44544, Note_on_c, 1, 54, 110
8, 44638, Note_on_c, 1, 47, 0
8, 44638, Note_on_c, 1, 54, 0
8, 44640, Note_on_c, 1, 47, 110
8, 44640, Note_on_c, 1, 54, 110
8, 44734, Note_on_c, 1, 47, 0
8, 44734, Note_on_c, 1, 54, 0
8, 44736, Note_on_c, 1, 47, 110
8, 44736, Note_on_c, 1, 54, 110
8, 44830, Note_on_c, 1, 47, 0
8, 44830, Note_on_c, 1, 54, 0
8, 44832, Note_on_c, 1, 47, 110
8, 44832, Note_on_c, 1, 54, 110
8, 44926, Note_on_c, 1, 47, 0
8, 44926, Note_on_c, 1, 54, 0
8, 44928, Note_on_c, 1, 47, 110
8, 44928, Note_on_c, 1, 54, 110
8, 45022, Note_on_c, 1, 47, 0
8, 45022, Note_on_c, 1, 54, 0
8, 45024, Note_on_c, 1, 47, 110
8, 45024, Note_on_c, 1, 54, 110
8, 45118, Note_on_c, 1, 47, 0
8, 45118, Note_on_c, 1, 54, 0
8, 45120, Note_on_c, 1, 47, 110
8, 45120, Note_on_c, 1, 54, 110
8, 45214, Note_on_c, 1, 47, 0
8, 45214, Note_on_c, 1, 54, 0
8, 45216, Note_on_c, 1, 47, 110
8, 45216, Note_on_c, 1, 54, 110
8, 45310, Note_on_c, 1, 47, 0
8, 45310, Note_on_c, 1, 54, 0
8, 45312, Note_on_c, 1, 47, 110
8, 45312, Note_on_c, 1, 54, 110
8, 45406, Note_on_c, 1, 47, 0
8, 45406, Note_on_c, 1, 54, 0
8, 45408, Note_on_c, 1, 47, 110
8, 45408, Note_on_c, 1, 54, 110
8, 45502, Note_on_c, 1, 47, 0
8, 45502, Note_on_c, 1, 54, 0
8, 45504, Note_on_c, 1, 47, 110
8, 45504, Note_on_c, 1, 54, 110
8, 45598, Note_on_c, 1, 47, 0
8, 45598, Note_on_c, 1, 54, 0
8, 45600, Note_on_c, 1, 47, 110
8, 45600, Note_on_c, 1, 54, 110
8, 45694, Note_on_c, 1, 47, 0
8, 45694, Note_on_c, 1, 54, 0
8, 45696, Note_on_c, 1, 47, 110
8, 45696, Note_on_c, 1, 54, 110
8, 45790, Note_on_c, 1, 47, 0
8, 45790, Note_on_c, 1, 54, 0
8, 45792, Note_on_c, 1, 47, 110
8, 45792, Note_on_c, 1, 54, 110
8, 45886, Note_on_c, 1, 47, 0
8, 45886, Note_on_c, 1, 54, 0
8, 45888, Note_on_c, 1, 47, 110
8, 45888, Note_on_c, 1, 54, 110
8, 45982, Note_on_c, 1, 47, 0
8, 45982, Note_on_c, 1, 54, 0
8, 45984, Note_on_c, 1, 47, 110
8, 45984, Note_on_c, 1, 54, 110
8, 46078, Note_on_c, 1, 47, 0
8, 46078, Note_on_c, 1, 54, 0
8, 46080, Note_on_c, 1, 52, 110
8, 46080, Note_on_c, 1, 59, 110
8, 46174, Note_on_c, 1, 52, 0
8, 46174, Note_on_c, 1, 59, 0
8, 46176, Note_on_c, 1, 52, 110
8, 46176, Note_on_c, 1, 59, 110
8, 46270, Note_on_c, 1, 52, 0
8, 46270, Note_on_c, 1, 59, 0
8, 46272, Note_on_c, 1, 52, 110
8, 46272, Note_on_c, 1, 59, 110
8, 46366, Note_on_c, 1, 52, 0
8, 46366, Note_on_c, 1, 59, 0
8, 46368, Note_on_c, 1, 52, 110
8, 46368, Note_on_c, 1, 59, 110
8, 46462, Note_on_c, 1, 52, 0
8, 46462, Note_on_c, 1, 59, 0
8, 46464, Note_on_c, 1, 52, 110
8, 46464, Note_on_c, 1, 59, 110
8, 46558, Note_on_c, 1, 52, 0
8, 46558, Note_on_c, 1, 59, 0
8, 46560, Note_on_c, 1, 52, 110
8, 46560, Note_on_c, 1, 59, 110
8, 46654, Note_on_c, 1, 52, 0
8, 46654, Note_on_c, 1, 59, 0
8, 46656, Note_on_c, 1, 52, 110
8, 46656, Note_on_c, 1, 59, 110
8, 46750, Note_on_c, 1, 52, 0
8, 46750, Note_on_c, 1, 59, 0
8, 46752, Note_on_c, 1, 52, 110
8, 46752, Note_on_c, 1, 59, 110
8, 46846, Note_on_c, 1, 52, 0
8, 46846, Note_on_c, 1, 59, 0
8, 46848, Note_on_c, 1, 52, 110
8, 46848, Note_on_c, 1, 59, 110
8, 46942, Note_on_c, 1, 52, 0
8, 46942, Note_on_c, 1, 59, 0
8, 46944, Note_on_c, 1, 52, 110
8, 46944, Note_on_c, 1, 59, 110
8, 47038, Note_on_c, 1, 52, 0
8, 47038, Note_on_c, 1, 59, 0
8, 47040, Note_on_c, 1, 52, 110
8, 47040, Note_on_c, 1, 59, 110
8, 47134, Note_on_c, 1, 52, 0
8, 47134, Note_on_c, 1, 59, 0
8, 47136, Note_on_c, 1, 52, 110
8, 47136, Note_on_c, 1, 59, 110
8, 47230, Note_on_c, 1, 52, 0
8, 47230, Note_on_c, 1, 59, 0
8, 47232, Note_on_c, 1, 52, 110
8, 47232, Note_on_c, 1, 59, 110
8, 47326, Note_on_c, 1, 52, 0
8, 47326, Note_on_c, 1, 59, 0
8, 47328, Note_on_c, 1, 52, 110
8, 47328, Note_on_c, 1, 59, 110
8, 47422, Note_on_c, 1, 52, 0
8, 47422, Note_on_c, 1, 59, 0
8, 47424, Note_on_c, 1, 52, 110
8, 47424, Note_on_c, 1, 59, 110
8, 47518, Note_on_c, 1, 52, 0
8, 47518, Note_on_c, 1, 59, 0
8, 47520, Note_on_c, 1, 52, 110
8, 47520, Note_on_c, 1, 59, 110
8, 47614, Note_on_c, 1, 52, 0
8, 47614, Note_on_c, 1, 59, 0
8, 47616, Note_on_c, 1, 49, 110
8, 47616, Note_on_c, 1, 56, 110
8, 47710, Note_on_c, 1, 49, 0
8, 47710, Note_on_c, 1, 56, 0
8, 47712, Note_on_c, 1, 49, 110
8, 47712, Note_on_c, 1, 56, 110
8, 47806, Note_on_c, 1, 49, 0
8, 47806, Note_on_c, 1, 56, 0
8, 47808, Note_on_c, 1, 49, 110
8, 47808, Note_on_c, 1, 56, 110
8, 47902, Note_on_c, 1, 49, 0
8, 47902, Note_on_c, 1, 56, 0
8, 47904, Note_on_c, 1, 49, 110
8, 47904, Note_on_c, 1, 56, 110
8, 47998, Note_on_c, 1, 49, 0
8, 47998, Note_on_c, 1, 56, 0
8, 48000, Note_on_c, 1, 47, 110
8, 48000, Note_on_c, 1, 54, 110
8, 48094, Note_on_c, 1, 47, 0
8, 48094, Note_on_c, 1, 54, 0
8, 48096, Note_on_c, 1, 47, 110
8, 48096, Note_on_c, 1, 54, 110
8, 48190, Note_on_c, 1, 47, 0
8, 48190, Note_on_c, 1, 54, 0
8, 48192, Note_on_c, 1, 47, 110
8, 48192, Note_on_c, 1, 54, 110
8, 48286, Note_on_c, 1, 47, 0
8, 48286, Note_on_c, 1, 54, 0
8, 48288, Note_on_c, 1, 47, 110
8, 48288, Note_on_c, 1, 54, 110
8, 48382, Note_on_c, 1, 47, 0
8, 48382, Note_on_c, 1, 54, 0
8, 48384, Note_on_c, 1, 42, 110
8, 48384, Note_on_c, 1, 49, 110
8, 48478, Note_on_c, 1, 42, 0
8, 48478, Note_on_c, 1, 49, 0
8, 48480, Note_on_c, 1, 42, 110
8, 48480, Note_on_c, 1, 49, 110
8, 48574, Note_on_c, 1, 42, 0
8, 48574, Note_on_c, 1, 49, 0
8, 48576, Note_on_c, 1, 42, 110
8, 48576, Note_on_c, 1, 49, 110
8, 48670, Note_on_c, 1, 42, 0
8, 48670, Note_on_c, 1, 49, 0
8, 48672, Note_on_c, 1, 42, 110
8, 48672, Note_on_c, 1, 49, 110
8, 48766, Note_on_c, 1, 42, 0
8, 48766, Note_on_c, 1, 49, 0
8, 48768, Note_on_c, 1, 42, 110
8, 48768, Note_on_c, 1, 49, 110
8, 48862, Note_on_c, 1, 42, 0
8, 48862, Note_on_c, 1, 49, 0
8, 48864, Note_on_c, 1, 42, 110
8, 48864, Note_on_c, 1, 49, 110
8, 48958, Note_on_c, 1, 42, 0
8, 48958, Note_on_c, 1, 49, 0
8, 48960, Note_on_c, 1, 42, 110
8, 48960, Note_on_c, 1, 49, 110
8, 49054, Note_on_c, 1, 42, 0
8, 49054, Note_on_c, 1, 49, 0
8, 49056, Note_on_c, 1, 42, 110
8, 49056, Note_on_c, 1, 49, 110
8, 49150, Note_on_c, 1, 42, 0
8, 49150, Note_on_c, 1, 49, 0
8, 49152, Note_on_c, 1, 49, 110
8, 49152, Note_on_c, 1, 56, 110
8, 49246, Note_on_c, 1, 49, 0
8, 49246, Note_on_c, 1, 56, 0
8, 49248, Note_on_c, 1, 49, 110
8, 49248, Note_on_c, 1, 56, 110
8, 49342, Note_on_c, 1, 49, 0
8, 49342, Note_on_c, 1, 56, 0
8, 49344, Note_on_c, 1, 49, 110
8, 49344, Note_on_c, 1, 56, 110
8, 49438, Note_on_c, 1, 49, 0
8, 49438, Note_on_c, 1, 56, 0
8, 49440, Note_on_c, 1, 49, 110
8, 49440, Note_on_c, 1, 56, 110
8, 49534, Note_on_c, 1, 49, 0
8, 49534, Note_on_c, 1, 56, 0
8, 49536, Note_on_c, 1, 52, 110
8, 49536, Note_on_c, 1, 59, 110
8, 49630, Note_on_c, 1, 52, 0
8, 49630, Note_on_c, 1, 59, 0
8, 49632, Note_on_c, 1, 52, 110
8, 49632, Note_on_c, 1, 59, 110
8, 49726, Note_on_c, 1, 52, 0
8, 49726, Note_on_c, 1, 59, 0
8, 49728, Note_on_c, 1, 52, 110
8, 49728, Note_on_c, 1, 59, 110
8, 49822, Note_on_c, 1, 52, 0
8, 49822, Note_on_c, 1, 59, 0
8, 49824, Note_on_c, 1, 52, 110
8, 49824, Note_on_c, 1, 59, 110
8, 49918, Note_on_c, 1, 52, 0
8, 49918, Note_on_c, 1, 59, 0
8, 49920, Note_on_c, 1, 53, 110
8, 49920, Note_on_c, 1, 60, 110
8, 50014, Note_on_c, 1, 53, 0
8, 50014, Note_on_c, 1, 60, 0
8, 50016, Note_on_c, 1, 53, 110
8, 50016, Note_on_c, 1, 60, 110
8, 50110, Note_on_c, 1, 53, 0
8, 50110, Note_on_c, 1, 60, 0
8, 50112, Note_on_c, 1, 53, 110
8, 50112, Note_on_c, 1, 60, 110
8, 50206, Note_on_c, 1, 53, 0
8, 50206, Note_on_c, 1, 60, 0
8, 50208, Note_on_c, 1, 54, 110
8, 50208, Note_on_c, 1, 61, 110
8, 50302, Note_on_c, 1, 54, 0
8, 50302, Note_on_c, 1, 61, 0
8, 50304, Note_on_c, 1, 54, 110
8, 50304, Note_on_c, 1, 61, 110
8, 50398, Note_on_c, 1, 54, 0
8, 50398, Note_on_c, 1, 61, 0
8, 50400, Note_on_c, 1, 54, 110
8, 50400, Note_on_c, 1, 61, 110
8, 50494, Note_on_c, 1, 54, 0
8, 50494, Note_on_c, 1, 61, 0
8, 50496, Note_on_c, 1, 54, 110
8, 50496, Note_on_c, 1, 61, 110
8, 50590, Note_on_c, 1, 54, 0
8, 50590, Note_on_c, 1, 61, 0
8, 50592, Note_on_c, 1, 54, 110
8, 50592, Note_on_c, 1, 61, 110
8, 50686, Note_on_c, 1, 54, 0
8, 50686, Note_on_c, 1, 61, 0
8, 50688, Note_on_c, 1, 49, 110
8, 50688, Note_on_c, 1, 56, 110
8, 50782, Note_on_c, 1, 49, 0
8, 50782, Note_on_c, 1, 56, 0
8, 50784, Note_on_c, 1, 49, 110
8, 50784, Note_on_c, 1, 56, 110
8, 50878, Note_on_c, 1, 49, 0
8, 50878, Note_on_c, 1, 56, 0
8, 50880, Note_on_c, 1, 49, 110
8, 50880, Note_on_c, 1, 56, 110
8, 50974, Note_on_c, 1, 49, 0
8, 50974, Note_on_c, 1, 56, 0
8, 50976, Note_on_c, 1, 49, 110
8, 50976, Note_on_c, 1, 56, 110
8, 51070, Note_on_c, 1, 49, 0
8, 51070, Note_on_c, 1, 56, 0
8, 51072, Note_on_c, 1, 47, 110
8, 51072, Note_on_c, 1, 54, 110
8, 51166, Note_on_c, 1, 47, 0
8, 51166, Note_on_c, 1, 54, 0
8, 51168, Note_on_c, 1, 47, 110
8, 51168, Note_on_c, 1, 54, 110
8, 51262, Note_on_c, 1, 47, 0
8, 51262, Note_on_c, 1, 54, 0
8, 51264, Note_on_c, 1, 47, 110
8, 51264, Note_on_c, 1, 54, 110
8, 51358, Note_on_c, 1, 47, 0
8, 51358, Note_on_c, 1, 54, 0
8, 51360, Note_on_c, 1, 47, 110
8, 51360, Note_on_c, 1, 54, 110
8, 51454, Note_on_c, 1, 47, 0
8, 51454, Note_on_c, 1, 54, 0
8, 51456, Note_on_c, 1, 42, 110
8, 51456, Note_on_c, 1, 49, 110
8, 51550, Note_on_c, 1, 42, 0
8, 51550, Note_on_c, 1, 49, 0
8, 51552, Note_on_c, 1, 42, 110
8, 51552, Note_on_c, 1, 49, 110
8, 51646, Note_on_c, 1, 42, 0
8, 51646, Note_on_c, 1, 49, 0
8, 51648, Note_on_c, 1, 42, 110
8, 51648, Note_on_c, 1, 49, 110
8, 51742, Note_on_c, 1, 42, 0
8, 51742, Note_on_c, 1, 49, 0
8, 51744, Note_on_c, 1, 42, 110
8, 51744, Note_on_c, 1, 49, 110
8, 51838, Note_on_c, 1, 42, 0
8, 51838, Note_on_c, 1, 49, 0
8, 51840, Note_on_c, 1, 42, 110
8, 51840, Note_on_c, 1, 49, 110
8, 51934, Note_on_c, 1, 42, 0
8, 51934, Note_on_c, 1, 49, 0
8, 51936, Note_on_c, 1, 42, 110
8, 51936, Note_on_c, 1, 49, 110
8, 52030, Note_on_c, 1, 42, 0
8, 52030, Note_on_c, 1, 49, 0
8, 52032, Note_on_c, 1, 42, 110
8, 52032, Note_on_c, 1, 49, 110
8, 52126, Note_on_c, 1, 42, 0
8, 52126, Note_on_c, 1, 49, 0
8, 52128, Note_on_c, 1, 42, 110
8, 52128, Note_on_c, 1, 49, 110
8, 52222, Note_on_c, 1, 42, 0
8, 52222, Note_on_c, 1, 49, 0
8, 52224, Note_on_c, 1, 40, 110
8, 52224, Note_on_c, 1, 47, 110
8, 52318, Note_on_c, 1, 40, 0
8, 52318, Note_on_c, 1, 47, 0
8, 52320, Note_on_c, 1, 40, 110
8, 52320, Note_on_c, 1, 47, 110
8, 52414, Note_on_c, 1, 40, 0
8, 52414, Note_on_c, 1, 47, 0
8, 52416, Note_on_c, 1, 40, 110
8, 52416, Note_on_c, 1, 47, 110
8, 52510, Note_on_c, 1, 40, 0
8, 52510, Note_on_c, 1, 47, 0
8, 52512, Note_on_c, 1, 40, 110
8, 52512, Note_on_c, 1, 47, 110
8, 52606, Note_on_c, 1, 40, 0
8, 52606, Note_on_c, 1, 47, 0
8, 52608, Note_on_c, 1, 40, 110
8, 52608, Note_on_c, 1, 47, 110
8, 52702, Note_on_c, 1, 40, 0
8, 52702, Note_on_c, 1, 47, 0
8, 52704, Note_on_c, 1, 40, 110
8, 52704, Note_on_c, 1, 47, 110
8, 52798, Note_on_c, 1, 40, 0
8, 52798, Note_on_c, 1, 47, 0
8, 52800, Note_on_c, 1, 40, 110
8, 52800, Note_on_c, 1, 47, 110
8, 52894, Note_on_c, 1, 40, 0
8, 52894, Note_on_c, 1, 47, 0
8, 52896, Note_on_c, 1, 40, 110
8, 52896, Note_on_c, 1, 47, 110
8, 52990, Note_on_c, 1, 40, 0
8, 52990, Note_on_c, 1, 47, 0
8, 53760, Note_on_c, 1, 40, 110
8, 53760, Note_on_c, 1, 47, 110
8, 53854, Note_on_c, 1, 40, 0
8, 53854, Note_on_c, 1, 47, 0
8, 53856, Note_on_c, 1, 40, 110
8, 53856, Note_on_c, 1, 47, 110
8, 53950, Note_on_c, 1, 40, 0
8, 53950, Note_on_c, 1, 47, 0
8, 53952, Note_on_c, 1, 40, 110
8, 53952, Note_on_c, 1, 47, 110
8, 54046, Note_on_c, 1, 40, 0
8, 54046, Note_on_c, 1, 47, 0
8, 54048, Note_on_c, 1, 40, 110
8, 54048, Note_on_c, 1, 47, 110
8, 54142, Note_on_c, 1, 40, 0
8, 54142, Note_on_c, 1, 47, 0
8, 54144, Note_on_c, 1, 40, 110
8, 54144, Note_on_c, 1, 47, 110
8, 54238, Note_on_c, 1, 40, 0
8, 54238, Note_on_c, 1, 47, 0
8, 54240, Note_on_c, 1, 40, 110
8, 54240, Note_on_c, 1, 47, 110
8, 54334, Note_on_c, 1, 40, 0
8, 54334, Note_on_c, 1, 47, 0
8, 54336, Note_on_c, 1, 40, 110
8, 54336, Note_on_c, 1, 47, 110
8, 54430, Note_on_c, 1, 40, 0
8, 54430, Note_on_c, 1, 47, 0
8, 54432, Note_on_c, 1, 40, 110
8, 54432, Note_on_c, 1, 47, 110
8, 54526, Note_on_c, 1, 40, 0
8, 54526, Note_on_c, 1, 47, 0
8, 54528, Note_on_c, 1, 40, 110
8, 54528, Note_on_c, 1, 47, 110
8, 54622, Note_on_c, 1, 40, 0
8, 54622, Note_on_c, 1, 47, 0
8, 54624, Note_on_c, 1, 42, 110
8, 54624, Note_on_c, 1, 49, 110
8, 54718, Note_on_c, 1, 42, 0
8, 54718, Note_on_c, 1, 49, 0
8, 54720, Note_on_c, 1, 42, 110
8, 54720, Note_on_c, 1, 49, 110
8, 54814, Note_on_c, 1, 42, 0
8, 54814, Note_on_c, 1, 49, 0
8, 54816, Note_on_c, 1, 42, 110
8, 54816, Note_on_c, 1, 49, 110
8, 54910, Note_on_c, 1, 42, 0
8, 54910, Note_on_c, 1, 49, 0
8, 54912, Note_on_c, 1, 42, 110
8, 54912, Note_on_c, 1, 49, 110
8, 55006, Note_on_c, 1, 42, 0
8, 55006, Note_on_c, 1, 49, 0
8, 55008, Note_on_c, 1, 42, 110
8, 55008, Note_on_c, 1, 49, 110
8, 55102, Note_on_c, 1, 42, 0
8, 55102, Note_on_c, 1, 49, 0
8, 55104, Note_on_c, 1, 42, 110
8, 55104, Note_on_c, 1, 49, 110
8, 55198, Note_on_c, 1, 42, 0
8, 55198, Note_on_c, 1, 49, 0
8, 55200, Note_on_c, 1, 42, 110
8, 55200, Note_on_c, 1, 49, 110
8, 55294, Note_on_c, 1, 42, 0
8, 55294, Note_on_c, 1, 49, 0
8, 55296, Note_on_c, 1, 47, 110
8, 55296, Note_on_c, 1, 54, 110
8, 55390, Note_on_c, 1, 47, 0
8, 55390, Note_on_c, 1, 54, 0
8, 55392, Note_on_c, 1, 47, 110
8, 55392, Note_on_c, 1, 54, 110
8, 55486, Note_on_c, 1, 47, 0
8, 55486, Note_on_c, 1, 54, 0
8, 55488, Note_on_c, 1, 47, 110
8, 55488, Note_on_c, 1, 54, 110
8, 55582, Note_on_c, 1, 47, 0
8, 55582, Note_on_c, 1, 54, 0
8, 55584, Note_on_c, 1, 47, 110
8, 55584, Note_on_c, 1, 54, 110
8, 55678, Note_on_c, 1, 47, 0
8, 55678, Note_on_c, 1, 54, 0
8, 55680, Note_on_c, 1, 47, 110
8, 55680, Note_on_c, 1, 54, 110
8, 55774, Note_on_c, 1, 47, 0
8, 55774, Note_on_c, 1, 54, 0
8, 55776, Note_on_c, 1, 47, 110
8, 55776, Note_on_c, 1, 54, 110
8, 55870, Note_on_c, 1, 47, 0
8, 55870, Note_on_c, 1, 54, 0
8, 55872, Note_on_c, 1, 47, 110
8, 55872, Note_on_c, 1, 54, 110
8, 55966, Note_on_c, 1, 47, 0
8, 55966, Note_on_c, 1, 54, 0
8, 55968, Note_on_c, 1, 47, 110
8, 55968, Note_on_c, 1, 54, 110
8, 56062, Note_on_c, 1, 47, 0
8, 56062, Note_on_c, 1, 54, 0
8, 56064, Note_on_c, 1, 44, 110
8, 56064, Note_on_c, 1, 51, 110
8, 56158, Note_on_c, 1, 44, 0
8, 56158, Note_on_c, 1, 51, 0
8, 56160, Note_on_c, 1, 44, 110
8, 56160, Note_on_c, 1, 51, 110
8, 56254, Note_on_c, 1, 44, 0
8, 56254, Note_on_c, 1, 51, 0
8, 56256, Note_on_c, 1, 44, 110
8, 56256, Note_on_c, 1, 51, 110
8, 56350, Note_on_c, 1, 44, 0
8, 56350, Note_on_c, 1, 51, 0
8, 56352, Note_on_c, 1, 44, 110
8, 56352, Note_on_c, 1, 51, 110
8, 56446, Note_on_c, 1, 44, 0
8, 56446, Note_on_c, 1, 51, 0
8, 56448, Note_on_c, 1, 44, 110
8, 56448, Note_on_c, 1, 51, 110
8, 56542, Note_on_c, 1, 44, 0
8, 56542, Note_on_c, 1, 51, 0
8, 56544, Note_on_c, 1, 44, 110
8, 56544, Note_on_c, 1, 51, 110
8, 56638, Note_on_c, 1, 44, 0
8, 56638, Note_on_c, 1, 51, 0
8, 56640, Note_on_c, 1, 44, 110
8, 56640, Note_on_c, 1, 51, 110
8, 56734, Note_on_c, 1, 44, 0
8, 56734, Note_on_c, 1, 51, 0
8, 56736, Note_on_c, 1, 44, 110
8, 56736, Note_on_c, 1, 51, 110
8, 56830, Note_on_c, 1, 44, 0
8, 56830, Note_on_c, 1, 51, 0
8, 56832, Note_on_c, 1, 40, 110
8, 56832, Note_on_c, 1, 47, 110
8, 56926, Note_on_c, 1, 40, 0
8, 56926, Note_on_c, 1, 47, 0
8, 56928, Note_on_c, 1, 40, 110
8, 56928, Note_on_c, 1, 47, 110
8, 57022, Note_on_c, 1, 40, 0
8, 57022, Note_on_c, 1, 47, 0
8, 57024, Note_on_c, 1, 40, 110
8, 57024, Note_on_c, 1, 47, 110
8, 57118, Note_on_c, 1, 40, 0
8, 57118, Note_on_c, 1, 47, 0
8, 57120, Note_on_c, 1, 40, 110
8, 57120, Note_on_c, 1, 47, 110
8, 57214, Note_on_c, 1, 40, 0
8, 57214, Note_on_c, 1, 47, 0
8, 57216, Note_on_c, 1, 40, 110
8, 57216, Note_on_c, 1, 47, 110
8, 57310, Note_on_c, 1, 40, 0
8, 57310, Note_on_c, 1, 47, 0
8, 57312, Note_on_c, 1, 40, 110
8, 57312, Note_on_c, 1, 47, 110
8, 57406, Note_on_c, 1, 40, 0
8, 57406, Note_on_c, 1, 47, 0
8, 57408, Note_on_c, 1, 40, 110
8, 57408, Note_on_c, 1, 47, 110
8, 57502, Note_on_c, 1, 40, 0
8, 57502, Note_on_c, 1, 47, 0
8, 57504, Note_on_c, 1, 40, 110
8, 57504, Note_on_c, 1, 47, 110
8, 57598, Note_on_c, 1, 40, 0
8, 57598, Note_on_c, 1, 47, 0
8, 57600, Note_on_c, 1, 40, 110
8, 57600, Note_on_c, 1, 47, 110
8, 57694, Note_on_c, 1, 40, 0
8, 57694, Note_on_c, 1, 47, 0
8, 57696, Note_on_c, 1, 42, 110
8, 57696, Note_on_c, 1, 49, 110
8, 57790, Note_on_c, 1, 42, 0
8, 57790, Note_on_c, 1, 49, 0
8, 57792, Note_on_c, 1, 42, 110
8, 57792, Note_on_c, 1, 49, 110
8, 57886, Note_on_c, 1, 42, 0
8, 57886, Note_on_c, 1, 49, 0
8, 57888, Note_on_c, 1, 42, 110
8, 57888, Note_on_c, 1, 49, 110
8, 57982, Note_on_c, 1, 42, 0
8, 57982, Note_on_c, 1, 49, 0
8, 57984, Note_on_c, 1, 42, 110
8, 57984, Note_on_c, 1, 49, 110
8, 58078, Note_on_c, 1, 42, 0
8, 58078, Note_on_c, 1, 49, 0
8, 58080, Note_on_c, 1, 42, 110
8, 58080, Note_on_c, 1, 49, 110
8, 58174, Note_on_c, 1, 42, 0
8, 58174, Note_on_c, 1, 49, 0
8, 58176, Note_on_c, 1, 42, 110
8, 58176, Note_on_c, 1, 49, 110
8, 58270, Note_on_c, 1, 42, 0
8, 58270, Note_on_c, 1, 49, 0
8, 58272, Note_on_c, 1, 42, 110
8, 58272, Note_on_c, 1, 49, 110
8, 58366, Note_on_c, 1, 42, 0
8, 58366, Note_on_c, 1, 49, 0
8, 58368, Note_on_c, 1, 47, 110
8, 58368, Note_on_c, 1, 54, 110
8, 58462, Note_on_c, 1, 47, 0
8, 58462, Note_on_c, 1, 54, 0
8, 58464, Note_on_c, 1, 47, 110
8, 58464, Note_on_c, 1, 54, 110
8, 58558, Note_on_c, 1, 47, 0
8, 58558, Note_on_c, 1, 54, 0
8, 58560, Note_on_c, 1, 47, 110
8, 58560, Note_on_c, 1, 54, 110
8, 58654, Note_on_c, 1, 47, 0
8, 58654, Note_on_c, 1, 54, 0
8, 58656, Note_on_c, 1, 47, 110
8, 58656, Note_on_c, 1, 54, 110
8, 58750, Note_on_c, 1, 47, 0
8, 58750, Note_on_c, 1, 54, 0
8, 58752, Note_on_c, 1, 47, 110
8, 58752, Note_on_c, 1, 54, 110
8, 58846, Note_on_c, 1, 47, 0
8, 58846, Note_on_c, 1, 54, 0
8, 58848, Note_on_c, 1, 47, 110
8, 58848, Note_on_c, 1, 54, 110
8, 58942, Note_on_c, 1, 47, 0
8, 58942, Note_on_c, 1, 54, 0
8, 58944, Note_on_c, 1, 47, 110
8, 58944, Note_on_c, 1, 54, 110
8, 59038, Note_on_c, 1, 47, 0
8, 59038, Note_on_c, 1, 54, 0
8, 59040, Note_on_c, 1, 47, 110
8, 59040, Note_on_c, 1, 54, 110
8, 59134, Note_on_c, 1, 47, 0
8, 59134, Note_on_c, 1, 54, 0
8, 59136, Note_on_c, 1, 44, 110
8, 59136, Note_on_c, 1, 51, 110
8, 59230, Note_on_c, 1, 44, 0
8, 59230, Note_on_c, 1, 51, 0
8, 59232, Note_on_c, 1, 44, 110
8, 59232, Note_on_c, 1, 51, 110
8, 59326, Note_on_c, 1, 44, 0
8, 59326, Note_on_c, 1, 51, 0
8, 59328, Note_on_c, 1, 44, 110
8, 59328, Note_on_c, 1, 51, 110
8, 59422, Note_on_c, 1, 44, 0
8, 59422, Note_on_c, 1, 51, 0
8, 59424, Note_on_c, 1, 44, 110
8, 59424, Note_on_c, 1, 51, 110
8, 59518, Note_on_c, 1, 44, 0
8, 59518, Note_on_c, 1, 51, 0
8, 59520, Note_on_c, 1, 44, 110
8, 59520, Note_on_c, 1, 51, 110
8, 59614, Note_on_c, 1, 44, 0
8, 59614, Note_on_c, 1, 51, 0
8, 59616, Note_on_c, 1, 44, 110
8, 59616, Note_on_c, 1, 51, 110
8, 59710, Note_on_c, 1, 44, 0
8, 59710, Note_on_c, 1, 51, 0
8, 59712, Note_on_c, 1, 44, 110
8, 59712, Note_on_c, 1, 51, 110
8, 59806, Note_on_c, 1, 44, 0
8, 59806, Note_on_c, 1, 51, 0
8, 59808, Note_on_c, 1, 44, 110
8, 59808, Note_on_c, 1, 51, 110
8, 59902, Note_on_c, 1, 44, 0
8, 59902, Note_on_c, 1, 51, 0
8, 59904, Note_on_c, 1, 40, 110
8, 59904, Note_on_c, 1, 47, 110
8, 59998, Note_on_c, 1, 40, 0
8, 59998, Note_on_c, 1, 47, 0
8, 60000, Note_on_c, 1, 40, 110
8, 60000, Note_on_c, 1, 47, 110
8, 60094, Note_on_c, 1, 40, 0
8, 60094, Note_on_c, 1, 47, 0
8, 60096, Note_on_c, 1, 40, 110
8, 60096, Note_on_c, 1, 47, 110
8, 60190, Note_on_c, 1, 40, 0
8, 60190, Note_on_c, 1, 47, 0
8, 60192, Note_on_c, 1, 40, 110
8, 60192, Note_on_c, 1, 47, 110
8, 60286, Note_on_c, 1, 40, 0
8, 60286, Note_on_c, 1, 47, 0
8, 60288, Note_on_c, 1, 40, 110
8, 60288, Note_on_c, 1, 47, 110
8, 60382, Note_on_c, 1, 40, 0
8, 60382, Note_on_c, 1, 47, 0
8, 60384, Note_on_c, 1, 40, 110
8, 60384, Note_on_c, 1, 47, 110
8, 60478, Note_on_c, 1, 40, 0
8, 60478, Note_on_c, 1, 47, 0
8, 60480, Note_on_c, 1, 40, 110
8, 60480, Note_on_c, 1, 47, 110
8, 60574, Note_on_c, 1, 40, 0
8, 60574, Note_on_c, 1, 47, 0
8, 60576, Note_on_c, 1, 40, 110
8, 60576, Note_on_c, 1, 47, 110
8, 60670, Note_on_c, 1, 40, 0
8, 60670, Note_on_c, 1, 47, 0
8, 60672, Note_on_c, 1, 40, 110
8, 60672, Note_on_c, 1, 47, 110
8, 60766, Note_on_c, 1, 40, 0
8, 60766, Note_on_c, 1, 47, 0
8, 60768, Note_on_c, 1, 42, 110
8, 60768, Note_on_c, 1, 49, 110
8, 60862, Note_on_c, 1, 42, 0
8, 60862, Note_on_c, 1, 49, 0
8, 60864, Note_on_c, 1, 42, 110
8, 60864, Note_on_c, 1, 49, 110
8, 60958, Note_on_c, 1, 42, 0
8, 60958, Note_on_c, 1, 49, 0
8, 60960, Note_on_c, 1, 42, 110
8, 60960, Note_on_c, 1, 49, 110
8, 61054, Note_on_c, 1, 42, 0
8, 61054, Note_on_c, 1, 49, 0
8, 61056, Note_on_c, 1, 42, 110
8, 61056, Note_on_c, 1, 49, 110
8, 61150, Note_on_c, 1, 42, 0
8, 61150, Note_on_c, 1, 49, 0
8, 61152, Note_on_c, 1, 42, 110
8, 61152, Note_on_c, 1, 49, 110
8, 61246, Note_on_c, 1, 42, 0
8, 61246, Note_on_c, 1, 49, 0
8, 61248, Note_on_c, 1, 42, 110
8, 61248, Note_on_c, 1, 49, 110
8, 61342, Note_on_c, 1, 42, 0
8, 61342, Note_on_c, 1, 49, 0
8, 61344, Note_on_c, 1, 42, 110
8, 61344, Note_on_c, 1, 49, 110
8, 61438, Note_on_c, 1, 42, 0
8, 61438, Note_on_c, 1, 49, 0
8, 61440, Note_on_c, 1, 47, 110
8, 61440, Note_on_c, 1, 54, 110
8, 61534, Note_on_c, 1, 47, 0
8, 61534, Note_on_c, 1, 54, 0
8, 61536, Note_on_c, 1, 47, 110
8, 61536, Note_on_c, 1, 54, 110
8, 61630, Note_on_c, 1, 47, 0
8, 61630, Note_on_c, 1, 54, 0
8, 61632, Note_on_c, 1, 47, 110
8, 61632, Note_on_c, 1, 54, 110
8, 61726, Note_on_c, 1, 47, 0
8, 61726, Note_on_c, 1, 54, 0
8, 61728, Note_on_c, 1, 47, 110
8, 61728, Note_on_c, 1, 54, 110
8, 61822, Note_on_c, 1, 47, 0
8, 61822, Note_on_c, 1, 54, 0
8, 61824, Note_on_c, 1, 47, 110
8, 61824, Note_on_c, 1, 54, 110
8, 61918, Note_on_c, 1, 47, 0
8, 61918, Note_on_c, 1, 54, 0
8, 61920, Note_on_c, 1, 47, 110
8, 61920, Note_on_c, 1, 54, 110
8, 62014, Note_on_c, 1, 47, 0
8, 62014, Note_on_c, 1, 54, 0
8, 62016, Note_on_c, 1, 47, 110
8, 62016, Note_on_c, 1, 54, 110
8, 62110, Note_on_c, 1, 47, 0
8, 62110, Note_on_c, 1, 54, 0
8, 62112, Note_on_c, 1, 47, 110
8, 62112, Note_on_c, 1, 54, 110
8, 62206, Note_on_c, 1, 47, 0
8, 62206, Note_on_c, 1, 54, 0
8, 62208, Note_on_c, 1, 44, 110
8, 62208, Note_on_c, 1, 51, 110
8, 62302, Note_on_c, 1, 44, 0
8, 62302, Note_on_c, 1, 51, 0
8, 62304, Note_on_c, 1, 44, 110
8, 62304, Note_on_c, 1, 51, 110
8, 62398, Note_on_c, 1, 44, 0
8, 62398, Note_on_c, 1, 51, 0
8, 62400, Note_on_c, 1, 44, 110
8, 62400, Note_on_c, 1, 51, 110
8, 62494, Note_on_c, 1, 44, 0
8, 62494, Note_on_c, 1, 51, 0
8, 62496, Note_on_c, 1, 44, 110
8, 62496, Note_on_c, 1, 51, 110
8, 62590, Note_on_c, 1, 44, 0
8, 62590, Note_on_c, 1, 51, 0
8, 62592, Note_on_c, 1, 44, 110
8, 62592, Note_on_c, 1, 51, 110
8, 62686, Note_on_c, 1, 44, 0
8, 62686, Note_on_c, 1, 51, 0
8, 62688, Note_on_c, 1, 42, 110
8, 62688, Note_on_c, 1, 49, 110
8, 62878, Note_on_c, 1, 42, 0
8, 62878, Note_on_c, 1, 49, 0
8, 62880, Note_on_c, 1, 42, 110
8, 62880, Note_on_c, 1, 49, 110
8, 62974, Note_on_c, 1, 42, 0
8, 62974, Note_on_c, 1, 49, 0
8, 62976, Note_on_c, 1, 40, 110
8, 62976, Note_on_c, 1, 47, 110
8, 63070, Note_on_c, 1, 40, 0
8, 63070, Note_on_c, 1, 47, 0
8, 63072, Note_on_c, 1, 40, 110
8, 63072, Note_on_c, 1, 47, 110
8, 63166, Note_on_c, 1, 40, 0
8, 63166, Note_on_c, 1, 47, 0
8, 63168, Note_on_c, 1, 40, 110
8, 63168, Note_on_c, 1, 47, 110
8, 63262, Note_on_c, 1, 40, 0
8, 63262, Note_on_c, 1, 47, 0
8, 63264, Note_on_c, 1, 40, 110
8, 63264, Note_on_c, 1, 47, 110
8, 63358, Note_on_c, 1, 40, 0
8, 63358, Note_on_c, 1, 47, 0
8, 63360, Note_on_c, 1, 40, 110
8, 63360, Note_on_c, 1, 47, 110
8, 63454, Note_on_c, 1, 40, 0
8, 63454, Note_on_c, 1, 47, 0
8, 63456, Note_on_c, 1, 40, 110
8, 63456, Note_on_c, 1, 47, 110
8, 63550, Note_on_c, 1, 40, 0
8, 63550, Note_on_c, 1, 47, 0
8, 63552, Note_on_c, 1, 40, 110
8, 63552, Note_on_c, 1, 47, 110
8, 63646, Note_on_c, 1, 40, 0
8, 63646, Note_on_c, 1, 47, 0
8, 63648, Note_on_c, 1, 40, 110
8, 63648, Note_on_c, 1, 47, 110
8, 63742, Note_on_c, 1, 40, 0
8, 63742, Note_on_c, 1, 47, 0
8, 63744, Note_on_c, 1, 40, 110
8, 63744, Note_on_c, 1, 47, 110
8, 63838, Note_on_c, 1, 40, 0
8, 63838, Note_on_c, 1, 47, 0
8, 63840, Note_on_c, 1, 42, 110
8, 63840, Note_on_c, 1, 49, 110
8, 63934, Note_on_c, 1, 42, 0
8, 63934, Note_on_c, 1, 49, 0
8, 63936, Note_on_c, 1, 42, 110
8, 63936, Note_on_c, 1, 49, 110
8, 64030, Note_on_c, 1, 42, 0
8, 64030, Note_on_c, 1, 49, 0
8, 64032, Note_on_c, 1, 42, 110
8, 64032, Note_on_c, 1, 49, 110
8, 64126, Note_on_c, 1, 42, 0
8, 64126, Note_on_c, 1, 49, 0
8, 64128, Note_on_c, 1, 42, 110
8, 64128, Note_on_c, 1, 49, 110
8, 64222, Note_on_c, 1, 42, 0
8, 64222, Note_on_c, 1, 49, 0
8, 64224, Note_on_c, 1, 42, 110
8, 64224, Note_on_c, 1, 49, 110
8, 64318, Note_on_c, 1, 42, 0
8, 64318, Note_on_c, 1, 49, 0
8, 64320, Note_on_c, 1, 42, 110
8, 64320, Note_on_c, 1, 49, 110
8, 64414, Note_on_c, 1, 42, 0
8, 64414, Note_on_c, 1, 49, 0
8, 64416, Note_on_c, 1, 42, 110
8, 64416, Note_on_c, 1, 49, 110
8, 64510, Note_on_c, 1, 42, 0
8, 64510, Note_on_c, 1, 49, 0
8, 64512, Note_on_c, 1, 47, 110
8, 64512, Note_on_c, 1, 54, 110
8, 64606, Note_on_c, 1, 47, 0
8, 64606, Note_on_c, 1, 54, 0
8, 64608, Note_on_c, 1, 47, 110
8, 64608, Note_on_c, 1, 54, 110
8, 64702, Note_on_c, 1, 47, 0
8, 64702, Note_on_c, 1, 54, 0
8, 64704, Note_on_c, 1, 47, 110
8, 64704, Note_on_c, 1, 54, 110
8, 64798, Note_on_c, 1, 47, 0
8, 64798, Note_on_c, 1, 54, 0
8, 64800, Note_on_c, 1, 47, 110
8, 64800, Note_on_c, 1, 54, 110
8, 64894, Note_on_c, 1, 47, 0
8, 64894, Note_on_c, 1, 54, 0
8, 64896, Note_on_c, 1, 47, 110
8, 64896, Note_on_c, 1, 54, 110
8, 64990, Note_on_c, 1, 47, 0
8, 64990, Note_on_c, 1, 54, 0
8, 64992, Note_on_c, 1, 47, 110
8, 64992, Note_on_c, 1, 54, 110
8, 65086, Note_on_c, 1, 47, 0
8, 65086, Note_on_c, 1, 54, 0
8, 65088, Note_on_c, 1, 47, 110
8, 65088, Note_on_c, 1, 54, 110
8, 65182, Note_on_c, 1, 47, 0
8, 65182, Note_on_c, 1, 54, 0
8, 65184, Note_on_c, 1, 47, 110
8, 65184, Note_on_c, 1, 54, 110
8, 65278, Note_on_c, 1, 47, 0
8, 65278, Note_on_c, 1, 54, 0
8, 65280, Note_on_c, 1, 44, 110
8, 65280, Note_on_c, 1, 51, 110
8, 65374, Note_on_c, 1, 44, 0
8, 65374, Note_on_c, 1, 51, 0
8, 65376, Note_on_c, 1, 44, 110
8, 65376, Note_on_c, 1, 51, 110
8, 65470, Note_on_c, 1, 44, 0
8, 65470, Note_on_c, 1, 51, 0
8, 65472, Note_on_c, 1, 44, 110
8, 65472, Note_on_c, 1, 51, 110
8, 65566, Note_on_c, 1, 44, 0
8, 65566, Note_on_c, 1, 51, 0
8, 65568, Note_on_c, 1, 44, 110
8, 65568, Note_on_c, 1, 51, 110
8, 65662, Note_on_c, 1, 44, 0
8, 65662, Note_on_c, 1, 51, 0
8, 65664, Note_on_c, 1, 44, 110
8, 65664, Note_on_c, 1, 51, 110
8, 65758, Note_on_c, 1, 44, 0
8, 65758, Note_on_c, 1, 51, 0
8, 65760, Note_on_c, 1, 42, 110
8, 65760, Note_on_c, 1, 49, 110
8, 65950, Note_on_c, 1, 42, 0
8, 65950, Note_on_c, 1, 49, 0
8, 65952, Note_on_c, 1, 42, 110
8, 65952, Note_on_c, 1, 49, 110
8, 66046, Note_on_c, 1, 42, 0
8, 66046, Note_on_c, 1, 49, 0
8, 73728, Note_on_c, 1, 40, 110
8, 73728, Note_on_c, 1, 47, 110
8, 73822, Note_on_c, 1, 40, 0
8, 73822, Note_on_c, 1, 47, 0
8, 73824, Note_on_c, 1, 40, 110
8, 73824, Note_on_c, 1, 47, 110
8, 73918, Note_on_c, 1, 40, 0
8, 73918, Note_on_c, 1, 47, 0
8, 73920, Note_on_c, 1, 40, 110
8, 73920, Note_on_c, 1, 47, 110
8, 74014, Note_on_c, 1, 40, 0
8, 74014, Note_on_c, 1, 47, 0
8, 74016, Note_on_c, 1, 40, 110
8, 74016, Note_on_c, 1, 47, 110
8, 74110, Note_on_c, 1, 40, 0
8, 74110, Note_on_c, 1, 47, 0
8, 74112, Note_on_c, 1, 40, 110
8, 74112, Note_on_c, 1, 47, 110
8, 74206, Note_on_c, 1, 40, 0
8, 74206, Note_on_c, 1, 47, 0
8, 74208, Note_on_c, 1, 40, 110
8, 74208, Note_on_c, 1, 47, 110
8, 74302, Note_on_c, 1, 40, 0
8, 74302, Note_on_c, 1, 47, 0
8, 74304, Note_on_c, 1, 40, 110
8, 74304, Note_on_c, 1, 47, 110
8, 74398, Note_on_c, 1, 40, 0
8, 74398, Note_on_c, 1, 47, 0
8, 74400, Note_on_c, 1, 40, 110
8, 74400, Note_on_c, 1, 47, 110
8, 74494, Note_on_c, 1, 40, 0
8, 74494, Note_on_c, 1, 47, 0
8, 74496, Note_on_c, 1, 40, 110
8, 74496, Note_on_c, 1, 47, 110
8, 74590, Note_on_c, 1, 40, 0
8, 74590, Note_on_c, 1, 47, 0
8, 74592, Note_on_c, 1, 42, 110
8, 74592, Note_on_c, 1, 49, 110
8, 74686, Note_on_c, 1, 42, 0
8, 74686, Note_on_c, 1, 49, 0
8, 74688, Note_on_c, 1, 42, 110
8, 74688, Note_on_c, 1, 49, 110
8, 74782, Note_on_c, 1, 42, 0
8, 74782, Note_on_c, 1, 49, 0
8, 74784, Note_on_c, 1, 42, 110
8, 74784, Note_on_c, 1, 49, 110
8, 74878, Note_on_c, 1, 42, 0
8, 74878, Note_on_c, 1, 49, 0
8, 74880, Note_on_c, 1, 42, 110
8, 74880, Note_on_c, 1, 49, 110
8, 74974, Note_on_c, 1, 42, 0
8, 74974, Note_on_c, 1, 49, 0
8, 74976, Note_on_c, 1, 42, 110
8, 74976, Note_on_c, 1, 49, 110
8, 75070, Note_on_c, 1, 42, 0
8, 75070, Note_on_c, 1, 49, 0
8, 75072, Note_on_c, 1, 42, 110
8, 75072, Note_on_c, 1, 49, 110
8, 75166, Note_on_c, 1, 42, 0
8, 75166, Note_on_c, 1, 49, 0
8, 75168, Note_on_c, 1, 42, 110
8, 75168, Note_on_c, 1, 49, 110
8, 75262, Note_on_c, 1, 42, 0
8, 75262, Note_on_c, 1, 49, 0
8, 75264, Note_on_c, 1, 47, 110
8, 75264, Note_on_c, 1, 54, 110
8, 75358, Note_on_c, 1, 47, 0
8, 75358, Note_on_c, 1, 54, 0
8, 75360, Note_on_c, 1, 47, 110
8, 75360, Note_on_c, 1, 54, 110
8, 75454, Note_on_c, 1, 47, 0
8, 75454, Note_on_c, 1, 54, 0
8, 75456, Note_on_c, 1, 47, 110
8, 75456, Note_on_c, 1, 54, 110
8, 75550, Note_on_c, 1, 47, 0
8, 75550, Note_on_c, 1, 54, 0
8, 75552, Note_on_c, 1, 47, 110
8, 75552, Note_on_c, 1, 54, 110
8, 75646, Note_on_c, 1, 47, 0
8, 75646, Note_on_c, 1, 54, 0
8, 75648, Note_on_c, 1, 47, 110
8, 75648, Note_on_c, 1, 54, 110
8, 75742, Note_on_c, 1, 47, 0
8, 75742, Note_on_c, 1, 54, 0
8, 75744, Note_on_c, 1, 47, 110
8, 75744, Note_on_c, 1, 54, 110
8, 75838, Note_on_c, 1, 47, 0
8, 75838, Note_on_c, 1, 54, 0
8, 75840, Note_on_c, 1, 47, 110
8, 75840, Note_on_c, 1, 54, 110
8, 75934, Note_on_c, 1, 47, 0
8, 75934, Note_on_c, 1, 54, 0
8, 75936, Note_on_c, 1, 47, 110
8, 75936, Note_on_c, 1, 54, 110
8, 76030, Note_on_c, 1, 47, 0
8, 76030, Note_on_c, 1, 54, 0
8, 76032, Note_on_c, 1, 44, 110
8, 76032, Note_on_c, 1, 51, 110
8, 76126, Note_on_c, 1, 44, 0
8, 76126, Note_on_c, 1, 51, 0
8, 76128, Note_on_c, 1, 44, 110
8, 76128, Note_on_c, 1, 51, 110
8, 76222, Note_on_c, 1, 44, 0
8, 76222, Note_on_c, 1, 51, 0
8, 76224, Note_on_c, 1, 44, 110
8, 76224, Note_on_c, 1, 51, 110
8, 76318, Note_on_c, 1, 44, 0
8, 76318, Note_on_c, 1, 51, 0
8, 76320, Note_on_c, 1, 44, 110
8, 76320, Note_on_c, 1, 51, 110
8, 76414, Note_on_c, 1, 44, 0
8, 76414, Note_on_c, 1, 51, 0
8, 76416, Note_on_c, 1, 44, 110
8, 76416, Note_on_c, 1, 51, 110
8, 76510, Note_on_c, 1, 44, 0
8, 76510, Note_on_c, 1, 51, 0
8, 76512, Note_on_c, 1, 42, 110
8, 76512, Note_on_c, 1, 49, 110
8, 76606, Note_on_c, 1, 42, 0
8, 76606, Note_on_c, 1, 49, 0
8, 76608, Note_on_c, 1, 42, 110
8, 76608, Note_on_c, 1, 49, 110
8, 76702, Note_on_c, 1, 42, 0
8, 76702, Note_on_c, 1, 49, 0
8, 76704, Note_on_c, 1, 42, 110
8, 76704, Note_on_c, 1, 49, 110
8, 76798, Note_on_c, 1, 42, 0
8, 76798, Note_on_c, 1, 49, 0
8, 76800, Note_on_c, 1, 40, 110
8, 76800, Note_on_c, 1, 47, 110
8, 76894, Note_on_c, 1, 40, 0
8, 76894, Note_on_c, 1, 47, 0
8, 76896, Note_on_c, 1, 40, 110
8, 76896, Note_on_c, 1, 47, 110
8, 76990, Note_on_c, 1, 40, 0
8, 76990, Note_on_c, 1, 47, 0
8, 76992, Note_on_c, 1, 40, 110
8, 76992, Note_on_c, 1, 47, 110
8, 77086, Note_on_c, 1, 40, 0
8, 77086, Note_on_c, 1, 47, 0
8, 77088, Note_on_c, 1, 40, 110
8, 77088, Note_on_c, 1, 47, 110
8, 77182, Note_on_c, 1, 40, 0
8, 77182, Note_on_c, 1, 47, 0
8, 77184, Note_on_c, 1, 40, 110
8, 77184, Note_on_c, 1, 47, 110
8, 77278, Note_on_c, 1, 40, 0
8, 77278, Note_on_c, 1, 47, 0
8, 77280, Note_on_c, 1, 40, 110
8, 77280, Note_on_c, 1, 47, 110
8, 77374, Note_on_c, 1, 40, 0
8, 77374, Note_on_c, 1, 47, 0
8, 77376, Note_on_c, 1, 40, 110
8, 77376, Note_on_c, 1, 47, 110
8, 77470, Note_on_c, 1, 40, 0
8, 77470, Note_on_c, 1, 47, 0
8, 77472, Note_on_c, 1, 40, 110
8, 77472, Note_on_c, 1, 47, 110
8, 77566, Note_on_c, 1, 40, 0
8, 77566, Note_on_c, 1, 47, 0
8, 77568, Note_on_c, 1, 40, 110
8, 77568, Note_on_c, 1, 47, 110
8, 77662, Note_on_c, 1, 40, 0
8, 77662, Note_on_c, 1, 47, 0
8, 77664, Note_on_c, 1, 42, 110
8, 77664, Note_on_c, 1, 49, 110
8, 77758, Note_on_c, 1, 42, 0
8, 77758, Note_on_c, 1, 49, 0
8, 77760, Note_on_c, 1, 42, 110
8, 77760, Note_on_c, 1, 49, 110
8, 77854, Note_on_c, 1, 42, 0
8, 77854, Note_on_c, 1, 49, 0
8, 77856, Note_on_c, 1, 42, 110
8, 77856, Note_on_c, 1, 49, 110
8, 77950, Note_on_c, 1, 42, 0
8, 77950, Note_on_c, 1, 49, 0
8, 77952, Note_on_c, 1, 42, 110
8, 77952, Note_on_c, 1, 49, 110
8, 78046, Note_on_c, 1, 42, 0
8, 78046, Note_on_c, 1, 49, 0
8, 78048, Note_on_c, 1, 42, 110
8, 78048, Note_on_c, 1, 49, 110
8, 78142, Note_on_c, 1, 42, 0
8, 78142, Note_on_c, 1, 49, 0
8, 78144, Note_on_c, 1, 42, 110
8, 78144, Note_on_c, 1, 49, 110
8, 78238, Note_on_c, 1, 42, 0
8, 78238, Note_on_c, 1, 49, 0
8, 78240, Note_on_c, 1, 42, 110
8, 78240, Note_on_c, 1, 49, 110
8, 78334, Note_on_c, 1, 42, 0
8, 78334, Note_on_c, 1, 49, 0
8, 78336, Note_on_c, 1, 47, 110
8, 78336, Note_on_c, 1, 54, 110
8, 78430, Note_on_c, 1, 47, 0
8, 78430, Note_on_c, 1, 54, 0
8, 78432, Note_on_c, 1, 47, 110
8, 78432, Note_on_c, 1, 54, 110
8, 78526, Note_on_c, 1, 47, 0
8, 78526, Note_on_c, 1, 54, 0
8, 78528, Note_on_c, 1, 47, 110
8, 78528, Note_on_c, 1, 54, 110
8, 78622, Note_on_c, 1, 47, 0
8, 78622, Note_on_c, 1, 54, 0
8, 78624, Note_on_c, 1, 47, 110
8, 78624, Note_on_c, 1, 54, 110
8, 78718, Note_on_c, 1, 47, 0
8, 78718, Note_on_c, 1, 54, 0
8, 78720, Note_on_c, 1, 47, 110
8, 78720, Note_on_c, 1, 54, 110
8, 78814, Note_on_c, 1, 47, 0
8, 78814, Note_on_c, 1, 54, 0
8, 78816, Note_on_c, 1, 47, 110
8, 78816, Note_on_c, 1, 54, 110
8, 78910, Note_on_c, 1, 47, 0
8, 78910, Note_on_c, 1, 54, 0
8, 78912, Note_on_c, 1, 47, 110
8, 78912, Note_on_c, 1, 54, 110
8, 79006, Note_on_c, 1, 47, 0
8, 79006, Note_on_c, 1, 54, 0
8, 79008, Note_on_c, 1, 47, 110
8, 79008, Note_on_c, 1, 54, 110
8, 79102, Note_on_c, 1, 47, 0
8, 79102, Note_on_c, 1, 54, 0
8, 79104, Note_on_c, 1, 44, 110
8, 79104, Note_on_c, 1, 51, 110
8, 79198, Note_on_c, 1, 44, 0
8, 79198, Note_on_c, 1, 51, 0
8, 79200, Note_on_c, 1, 44, 110
8, 79200, Note_on_c, 1, 51, 110
8, 79294, Note_on_c, 1, 44, 0
8, 79294, Note_on_c, 1, 51, 0
8, 79296, Note_on_c, 1, 44, 110
8, 79296, Note_on_c, 1, 51, 110
8, 79390, Note_on_c, 1, 44, 0
8, 79390, Note_on_c, 1, 51, 0
8, 79392, Note_on_c, 1, 44, 110
8, 79392, Note_on_c, 1, 51, 110
8, 79486, Note_on_c, 1, 44, 0
8, 79486, Note_on_c, 1, 51, 0
8, 79488, Note_on_c, 1, 44, 110
8, 79488, Note_on_c, 1, 51, 110
8, 79582, Note_on_c, 1, 44, 0
8, 79582, Note_on_c, 1, 51, 0
8, 79584, Note_on_c, 1, 42, 110
8, 79584, Note_on_c, 1, 49, 110
8, 79678, Note_on_c, 1, 42, 0
8, 79678, Note_on_c, 1, 49, 0
8, 79680, Note_on_c, 1, 42, 110
8, 79680, Note_on_c, 1, 49, 110
8, 79774, Note_on_c, 1, 42, 0
8, 79774, Note_on_c, 1, 49, 0
8, 79776, Note_on_c, 1, 42, 110
8, 79776, Note_on_c, 1, 49, 110
8, 79870, Note_on_c, 1, 42, 0
8, 79870, Note_on_c, 1, 49, 0
8, 79872, Note_on_c, 1, 40, 110
8, 79872, Note_on_c, 1, 47, 110
8, 80032, Note_on_c, 1, 40, 0
8, 80032, Note_on_c, 1, 47, 0
8, 80064, Note_on_c, 1, 40, 110
8, 80064, Note_on_c, 1, 47, 110
8, 80224, Note_on_c, 1, 40, 0
8, 80224, Note_on_c, 1, 47, 0
8, 80256, Note_on_c, 1, 40, 110
8, 80256, Note_on_c, 1, 47, 110
8, 80416, Note_on_c, 1, 40, 0
8, 80416, Note_on_c, 1, 47, 0
8, 80448, Note_on_c, 1, 40, 110
8, 80448, Note_on_c, 1, 47, 110
8, 80608, Note_on_c, 1, 40, 0
8, 80608, Note_on_c, 1, 47, 0
8, 80640, Note_on_c, 1, 40, 110
8, 80640, Note_on_c, 1, 47, 110
8, 80800, Note_on_c, 1, 40, 0
8, 80800, Note_on_c, 1, 47, 0
8, 80832, Note_on_c, 1, 42, 110
8, 80832, Note_on_c, 1, 49, 110
8, 80992, Note_on_c, 1, 42, 0
8, 80992, Note_on_c, 1, 49, 0
8, 81024, Note_on_c, 1, 42, 110
8, 81024, Note_on_c, 1, 49, 110
8, 81184, Note_on_c, 1, 42, 0
8, 81184, Note_on_c, 1, 49, 0
8, 81216, Note_on_c, 1, 42, 110
8, 81216, Note_on_c, 1, 49, 110
8, 81376, Note_on_c, 1, 42, 0
8, 81376, Note_on_c, 1, 49, 0
8, 81408, Note_on_c, 1, 47, 110
8, 81408, Note_on_c, 1, 54, 110
8, 81568, Note_on_c, 1, 47, 0
8, 81568, Note_on_c, 1, 54, 0
8, 81600, Note_on_c, 1, 47, 110
8, 81600, Note_on_c, 1, 54, 110
8, 81760, Note_on_c, 1, 47, 0
8, 81760, Note_on_c, 1, 54, 0
8, 81792, Note_on_c, 1, 47, 110
8, 81792, Note_on_c, 1, 54, 110
8, 81952, Note_on_c, 1, 47, 0
8, 81952, Note_on_c, 1, 54, 0
8, 81984, Note_on_c, 1, 47, 110
8, 81984, Note_on_c, 1, 54, 110
8, 82144, Note_on_c, 1, 47, 0
8, 82144, Note_on_c, 1, 54, 0
8, 82176, Note_on_c, 1, 44, 110
8, 82176, Note_on_c, 1, 51, 110
8, 82336, Note_on_c, 1, 44, 0
8, 82336, Note_on_c, 1, 51, 0
8, 82368, Note_on_c, 1, 44, 110
8, 82368, Note_on_c, 1, 51, 110
8, 82528, Note_on_c, 1, 44, 0
8, 82528, Note_on_c, 1, 51, 0
8, 82560, Note_on_c, 1, 44, 110
8, 82560, Note_on_c, 1, 51, 110
8, 82654, Note_on_c, 1, 44, 0
8, 82654, Note_on_c, 1, 51, 0
8, 82656, Note_on_c, 1, 42, 110
8, 82656, Note_on_c, 1, 49, 110
8, 82846, Note_on_c, 1, 42, 0
8, 82846, Note_on_c, 1, 49, 0
8, 82848, Note_on_c, 1, 42, 110
8, 82848, Note_on_c, 1, 49, 110
8, 82942, Note_on_c, 1, 42, 0
8, 82942, Note_on_c, 1, 49, 0
8, 82944, Note_on_c, 1, 40, 110
8, 82944, Note_on_c, 1, 47, 110
8, 83104, Note_on_c, 1, 40, 0
8, 83104, Note_on_c, 1, 47, 0
8, 83136, Note_on_c, 1, 40, 110
8, 83136, Note_on_c, 1, 47, 110
8, 83296, Note_on_c, 1, 40, 0
8, 83296, Note_on_c, 1, 47, 0
8, 83328, Note_on_c, 1, 40, 110
8, 83328, Note_on_c, 1, 47, 110
8, 83488, Note_on_c, 1, 40, 0
8, 83488, Note_on_c, 1, 47, 0
8, 83520, Note_on_c, 1, 40, 110
8, 83520, Note_on_c, 1, 47, 110
8, 83680, Note_on_c, 1, 40, 0
8, 83680, Note_on_c, 1, 47, 0
8, 83712, Note_on_c, 1, 42, 110
8, 83712, Note_on_c, 1, 49, 110
8, 83872, Note_on_c, 1, 42, 0
8, 83872, Note_on_c, 1, 49, 0
8, 83904, Note_on_c, 1, 42, 110
8, 83904, Note_on_c, 1, 49, 110
8, 84064, Note_on_c, 1, 42, 0
8, 84064, Note_on_c, 1, 49, 0
8, 84096, Note_on_c, 1, 42, 110
8, 84096, Note_on_c, 1, 49, 110
8, 84256, Note_on_c, 1, 42, 0
8, 84256, Note_on_c, 1, 49, 0
8, 84288, Note_on_c, 1, 42, 110
8, 84288, Note_on_c, 1, 49, 110
8, 84448, Note_on_c, 1, 42, 0
8, 84448, Note_on_c, 1, 49, 0
8, 84480, Note_on_c, 1, 47, 110
8, 84480, Note_on_c, 1, 54, 110
8, 84640, Note_on_c, 1, 47, 0
8, 84640, Note_on_c, 1, 54, 0
8, 84672, Note_on_c, 1, 47, 110
8, 84672, Note_on_c, 1, 54, 110
8, 84832, Note_on_c, 1, 47, 0
8, 84832, Note_on_c, 1, 54, 0
8, 84864, Note_on_c, 1, 47, 110
8, 84864, Note_on_c, 1, 54, 110
8, 85024, Note_on_c, 1, 47, 0
8, 85024, Note_on_c, 1, 54, 0
8, 85056, Note_on_c, 1, 47, 110
8, 85056, Note_on_c, 1, 54, 110
8, 85216, Note_on_c, 1, 47, 0
8, 85216, Note_on_c, 1, 54, 0
8, 85248, Note_on_c, 1, 44, 110
8, 85248, Note_on_c, 1, 51, 110
8, 85408, Note_on_c, 1, 44, 0
8, 85408, Note_on_c, 1, 51, 0
8, 85440, Note_on_c, 1, 44, 110
8, 85440, Note_on_c, 1, 51, 110
8, 85600, Note_on_c, 1, 44, 0
8, 85600, Note_on_c, 1, 51, 0
8, 85632, Note_on_c, 1, 44, 110
8, 85632, Note_on_c, 1, 51, 110
8, 85726, Note_on_c, 1, 44, 0
8, 85726, Note_on_c, 1, 51, 0
8, 85728, Note_on_c, 1, 42, 110
8, 85728, Note_on_c, 1, 49, 110
8, 85984, Note_on_c, 1, 42, 0
8, 85984, Note_on_c, 1, 49, 0
8, 86016, Note_on_c, 1, 40, 110
8, 86016, Note_on_c, 1, 47, 110
8, 86016, Note_on_c, 1, 52, 110
8, 87504, Note_on_c, 1, 40, 0
8, 87504, Note_on_c, 1, 47, 0
8, 87504, Note_on_c, 1, 52, 0
8, 87504, End_track
9, 0, Start_track
9, 0, MIDI_port, 0
9, 0, Title_t, "Staff-8"
9, 0, Program_c, 0, 33
9, 0, Pitch_bend_c, 0, 8192
9, 0, Control_c, 0, 7, 127
9, 0, Control_c, 0, 10, 64
9, 1536, Note_on_c, 0, 35, 110
9, 3024, Note_on_c, 0, 35, 0
9, 3072, Note_on_c, 0, 40, 110
9, 4560, Note_on_c, 0, 40, 0
9, 4608, Note_on_c, 0, 35, 110
9, 6096, Note_on_c, 0, 35, 0
9, 6144, Note_on_c, 0, 40, 110
9, 7632, Note_on_c, 0, 40, 0
9, 7680, Note_on_c, 0, 35, 110
9, 9168, Note_on_c, 0, 35, 0
9, 9216, Note_on_c, 0, 40, 110
9, 10704, Note_on_c, 0, 40, 0
9, 10752, Note_on_c, 0, 35, 110
9, 12240, Note_on_c, 0, 35, 0
9, 12288, Note_on_c, 0, 40, 110
9, 13776, Note_on_c, 0, 40, 0
9, 13824, Note_on_c, 0, 37, 110
9, 14160, Note_on_c, 0, 37, 0
9, 14208, Note_on_c, 0, 35, 110
9, 14544, Note_on_c, 0, 35, 0
9, 14592, Note_on_c, 0, 30, 110
9, 15312, Note_on_c, 0, 30, 0
9, 15360, Note_on_c, 0, 37, 110
9, 15696, Note_on_c, 0, 37, 0
9, 15744, Note_on_c, 0, 35, 110
9, 16080, Note_on_c, 0, 35, 0
9, 16128, Note_on_c, 0, 30, 110
9, 16848, Note_on_c, 0, 30, 0
9, 16896, Note_on_c, 0, 37, 110
9, 17232, Note_on_c, 0, 37, 0
9, 17280, Note_on_c, 0, 35, 110
9, 17616, Note_on_c, 0, 35, 0
9, 17664, Note_on_c, 0, 30, 110
9, 18384, Note_on_c, 0, 30, 0
9, 18432, Note_on_c, 0, 28, 110
9, 19152, Note_on_c, 0, 28, 0
9, 19200, Note_on_c, 0, 30, 110
9, 19920, Note_on_c, 0, 30, 0
9, 19968, Note_on_c, 0, 28, 110
9, 20062, Note_on_c, 0, 28, 0
9, 20064, Note_on_c, 0, 28, 110
9, 20158, Note_on_c, 0, 28, 0
9, 20160, Note_on_c, 0, 28, 110
9, 20254, Note_on_c, 0, 28, 0
9, 20256, Note_on_c, 0, 28, 110
9, 20350, Note_on_c, 0, 28, 0
9, 20352, Note_on_c, 0, 28, 110
9, 20446, Note_on_c, 0, 28, 0
9, 20448, Note_on_c, 0, 28, 110
9, 20542, Note_on_c, 0, 28, 0
9, 20544, Note_on_c, 0, 28, 110
9, 20638, Note_on_c, 0, 28, 0
9, 20640, Note_on_c, 0, 28, 110
9, 20734, Note_on_c, 0, 28, 0
9, 20736, Note_on_c, 0, 30, 110
9, 20830, Note_on_c, 0, 30, 0
9, 20832, Note_on_c, 0, 30, 110
9, 20926, Note_on_c, 0, 30, 0
9, 20928, Note_on_c, 0, 30, 110
9, 21022, Note_on_c, 0, 30, 0
9, 21024, Note_on_c, 0, 30, 110
9, 21118, Note_on_c, 0, 30, 0
9, 21120, Note_on_c, 0, 30, 110
9, 21214, Note_on_c, 0, 30, 0
9, 21216, Note_on_c, 0, 30, 110
9, 21310, Note_on_c, 0, 30, 0
9, 21312, Note_on_c, 0, 30, 110
9, 21406, Note_on_c, 0, 30, 0
9, 21408, Note_on_c, 0, 30, 110
9, 21502, Note_on_c, 0, 30, 0
9, 21504, Note_on_c, 0, 35, 110
9, 21598, Note_on_c, 0, 35, 0
9, 21600, Note_on_c, 0, 35, 110
9, 21694, Note_on_c, 0, 35, 0
9, 21696, Note_on_c, 0, 35, 110
9, 21790, Note_on_c, 0, 35, 0
9, 21792, Note_on_c, 0, 35, 110
9, 21886, Note_on_c, 0, 35, 0
9, 21888, Note_on_c, 0, 35, 110
9, 21982, Note_on_c, 0, 35, 0
9, 21984, Note_on_c, 0, 35, 110
9, 22078, Note_on_c, 0, 35, 0
9, 22080, Note_on_c, 0, 35, 110
9, 22174, Note_on_c, 0, 35, 0
9, 22176, Note_on_c, 0, 35, 110
9, 22270, Note_on_c, 0, 35, 0
9, 22272, Note_on_c, 0, 32, 110
9, 22366, Note_on_c, 0, 32, 0
9, 22368, Note_on_c, 0, 32, 110
9, 22462, Note_on_c, 0, 32, 0
9, 22464, Note_on_c, 0, 32, 110
9, 22558, Note_on_c, 0, 32, 0
9, 22560, Note_on_c, 0, 32, 110
9, 22654, Note_on_c, 0, 32, 0
9, 22656, Note_on_c, 0, 32, 110
9, 22750, Note_on_c, 0, 32, 0
9, 22752, Note_on_c, 0, 32, 110
9, 22846, Note_on_c, 0, 32, 0
9, 22848, Note_on_c, 0, 32, 110
9, 22942, Note_on_c, 0, 32, 0
9, 22944, Note_on_c, 0, 32, 110
9, 23038, Note_on_c, 0, 32, 0
9, 23040, Note_on_c, 0, 28, 110
9, 23134, Note_on_c, 0, 28, 0
9, 23136, Note_on_c, 0, 28, 110
9, 23230, Note_on_c, 0, 28, 0
9, 23232, Note_on_c, 0, 28, 110
9, 23326, Note_on_c, 0, 28, 0
9, 23328, Note_on_c, 0, 28, 110
9, 23422, Note_on_c, 0, 28, 0
9, 23424, Note_on_c, 0, 28, 110
9, 23518, Note_on_c, 0, 28, 0
9, 23520, Note_on_c, 0, 28, 110
9, 23614, Note_on_c, 0, 28, 0
9, 23616, Note_on_c, 0, 28, 110
9, 23710, Note_on_c, 0, 28, 0
9, 23712, Note_on_c, 0, 28, 110
9, 23806, Note_on_c, 0, 28, 0
9, 23808, Note_on_c, 0, 30, 110
9, 23902, Note_on_c, 0, 30, 0
9, 23904, Note_on_c, 0, 30, 110
9, 23998, Note_on_c, 0, 30, 0
9, 24000, Note_on_c, 0, 30, 110
9, 24094, Note_on_c, 0, 30, 0
9, 24096, Note_on_c, 0, 30, 110
9, 24190, Note_on_c, 0, 30, 0
9, 24192, Note_on_c, 0, 30, 110
9, 24286, Note_on_c, 0, 30, 0
9, 24288, Note_on_c, 0, 30, 110
9, 24382, Note_on_c, 0, 30, 0
9, 24384, Note_on_c, 0, 30, 110
9, 24478, Note_on_c, 0, 30, 0
9, 24480, Note_on_c, 0, 30, 110
9, 24574, Note_on_c, 0, 30, 0
9, 24576, Note_on_c, 0, 35, 110
9, 24670, Note_on_c, 0, 35, 0
9, 24672, Note_on_c, 0, 35, 110
9, 24766, Note_on_c, 0, 35, 0
9, 24768, Note_on_c, 0, 35, 110
9, 24862, Note_on_c, 0, 35, 0
9, 24864, Note_on_c, 0, 35, 110
9, 24958, Note_on_c, 0, 35, 0
9, 24960, Note_on_c, 0, 35, 110
9, 25054, Note_on_c, 0, 35, 0
9, 25056, Note_on_c, 0, 35, 110
9, 25150, Note_on_c, 0, 35, 0
9, 25152, Note_on_c, 0, 35, 110
9, 25246, Note_on_c, 0, 35, 0
9, 25248, Note_on_c, 0, 35, 110
9, 25342, Note_on_c, 0, 35, 0
9, 25344, Note_on_c, 0, 32, 110
9, 25438, Note_on_c, 0, 32, 0
9, 25440, Note_on_c, 0, 32, 110
9, 25534, Note_on_c, 0, 32, 0
9, 25536, Note_on_c, 0, 32, 110
9, 25630, Note_on_c, 0, 32, 0
9, 25632, Note_on_c, 0, 32, 110
9, 25726, Note_on_c, 0, 32, 0
9, 25728, Note_on_c, 0, 32, 110
9, 25822, Note_on_c, 0, 32, 0
9, 25824, Note_on_c, 0, 32, 110
9, 25918, Note_on_c, 0, 32, 0
9, 25920, Note_on_c, 0, 32, 110
9, 26014, Note_on_c, 0, 32, 0
9, 26016, Note_on_c, 0, 32, 110
9, 26110, Note_on_c, 0, 32, 0
9, 26112, Note_on_c, 0, 28, 110
9, 26206, Note_on_c, 0, 28, 0
9, 26208, Note_on_c, 0, 28, 110
9, 26302, Note_on_c, 0, 28, 0
9, 26304, Note_on_c, 0, 28, 110
9, 26398, Note_on_c, 0, 28, 0
9, 26400, Note_on_c, 0, 28, 110
9, 26494, Note_on_c, 0, 28, 0
9, 26496, Note_on_c, 0, 28, 110
9, 26590, Note_on_c, 0, 28, 0
9, 26592, Note_on_c, 0, 28, 110
9, 26686, Note_on_c, 0, 28, 0
9, 26688, Note_on_c, 0, 28, 110
9, 26782, Note_on_c, 0, 28, 0
9, 26784, Note_on_c, 0, 28, 110
9, 26878, Note_on_c, 0, 28, 0
9, 26880, Note_on_c, 0, 30, 110
9, 26974, Note_on_c, 0, 30, 0
9, 26976, Note_on_c, 0, 30, 110
9, 27070, Note_on_c, 0, 30, 0
9, 27072, Note_on_c, 0, 30, 110
9, 27166, Note_on_c, 0, 30, 0
9, 27168, Note_on_c, 0, 30, 110
9, 27262, Note_on_c, 0, 30, 0
9, 27264, Note_on_c, 0, 30, 110
9, 27358, Note_on_c, 0, 30, 0
9, 27360, Note_on_c, 0, 30, 110
9, 27454, Note_on_c, 0, 30, 0
9, 27456, Note_on_c, 0, 30, 110
9, 27550, Note_on_c, 0, 30, 0
9, 27552, Note_on_c, 0, 30, 110
9, 27646, Note_on_c, 0, 30, 0
9, 27648, Note_on_c, 0, 35, 110
9, 27742, Note_on_c, 0, 35, 0
9, 27744, Note_on_c, 0, 35, 110
9, 27838, Note_on_c, 0, 35, 0
9, 27840, Note_on_c, 0, 35, 110
9, 27934, Note_on_c, 0, 35, 0
9, 27936, Note_on_c, 0, 35, 110
9, 28030, Note_on_c, 0, 35, 0
9, 28032, Note_on_c, 0, 35, 110
9, 28126, Note_on_c, 0, 35, 0
9, 28128, Note_on_c, 0, 35, 110
9, 28222, Note_on_c, 0, 35, 0
9, 28224, Note_on_c, 0, 35, 110
9, 28318, Note_on_c, 0, 35, 0
9, 28320, Note_on_c, 0, 35, 110
9, 28414, Note_on_c, 0, 35, 0
9, 28416, Note_on_c, 0, 32, 110
9, 28510, Note_on_c, 0, 32, 0
9, 28512, Note_on_c, 0, 32, 110
9, 28606, Note_on_c, 0, 32, 0
9, 28608, Note_on_c, 0, 32, 110
9, 28702, Note_on_c, 0, 32, 0
9, 28704, Note_on_c, 0, 32, 110
9, 28798, Note_on_c, 0, 32, 0
9, 28800, Note_on_c, 0, 32, 110
9, 28894, Note_on_c, 0, 32, 0
9, 28896, Note_on_c, 0, 32, 110
9, 28990, Note_on_c, 0, 32, 0
9, 28992, Note_on_c, 0, 32, 110
9, 29086, Note_on_c, 0, 32, 0
9, 29088, Note_on_c, 0, 32, 110
9, 29182, Note_on_c, 0, 32, 0
9, 29184, Note_on_c, 0, 28, 110
9, 29278, Note_on_c, 0, 28, 0
9, 29280, Note_on_c, 0, 28, 110
9, 29374, Note_on_c, 0, 28, 0
9, 29376, Note_on_c, 0, 28, 110
9, 29470, Note_on_c, 0, 28, 0
9, 29472, Note_on_c, 0, 28, 110
9, 29566, Note_on_c, 0, 28, 0
9, 29568, Note_on_c, 0, 28, 110
9, 29662, Note_on_c, 0, 28, 0
9, 29664, Note_on_c, 0, 28, 110
9, 29758, Note_on_c, 0, 28, 0
9, 29760, Note_on_c, 0, 28, 110
9, 29854, Note_on_c, 0, 28, 0
9, 29856, Note_on_c, 0, 28, 110
9, 29950, Note_on_c, 0, 28, 0
9, 29952, Note_on_c, 0, 30, 110
9, 30046, Note_on_c, 0, 30, 0
9, 30048, Note_on_c, 0, 30, 110
9, 30142, Note_on_c, 0, 30, 0
9, 30144, Note_on_c, 0, 30, 110
9, 30238, Note_on_c, 0, 30, 0
9, 30240, Note_on_c, 0, 30, 110
9, 30334, Note_on_c, 0, 30, 0
9, 30336, Note_on_c, 0, 30, 110
9, 30430, Note_on_c, 0, 30, 0
9, 30432, Note_on_c, 0, 30, 110
9, 30526, Note_on_c, 0, 30, 0
9, 30528, Note_on_c, 0, 30, 110
9, 30622, Note_on_c, 0, 30, 0
9, 30624, Note_on_c, 0, 30, 110
9, 30718, Note_on_c, 0, 30, 0
9, 30720, Note_on_c, 0, 35, 110
9, 30814, Note_on_c, 0, 35, 0
9, 30816, Note_on_c, 0, 35, 110
9, 30910, Note_on_c, 0, 35, 0
9, 30912, Note_on_c, 0, 35, 110
9, 31006, Note_on_c, 0, 35, 0
9, 31008, Note_on_c, 0, 35, 110
9, 31102, Note_on_c, 0, 35, 0
9, 31104, Note_on_c, 0, 35, 110
9, 31198, Note_on_c, 0, 35, 0
9, 31200, Note_on_c, 0, 35, 110
9, 31294, Note_on_c, 0, 35, 0
9, 31296, Note_on_c, 0, 35, 110
9, 31390, Note_on_c, 0, 35, 0
9, 31392, Note_on_c, 0, 35, 110
9, 31486, Note_on_c, 0, 35, 0
9, 31488, Note_on_c, 0, 32, 110
9, 31582, Note_on_c, 0, 32, 0
9, 31584, Note_on_c, 0, 32, 110
9, 31678, Note_on_c, 0, 32, 0
9, 31680, Note_on_c, 0, 32, 110
9, 31774, Note_on_c, 0, 32, 0
9, 31776, Note_on_c, 0, 32, 110
9, 31870, Note_on_c, 0, 32, 0
9, 31872, Note_on_c, 0, 32, 110
9, 31966, Note_on_c, 0, 32, 0
9, 31968, Note_on_c, 0, 32, 110
9, 32062, Note_on_c, 0, 32, 0
9, 32064, Note_on_c, 0, 32, 110
9, 32158, Note_on_c, 0, 32, 0
9, 32160, Note_on_c, 0, 32, 110
9, 32254, Note_on_c, 0, 32, 0
9, 32256, Note_on_c, 0, 28, 110
9, 32416, Note_on_c, 0, 28, 0
9, 32448, Note_on_c, 0, 28, 110
9, 32608, Note_on_c, 0, 28, 0
9, 32640, Note_on_c, 0, 28, 110
9, 32734, Note_on_c, 0, 28, 0
9, 32736, Note_on_c, 0, 40, 110
9, 32830, Note_on_c, 0, 40, 0
9, 32832, Note_on_c, 0, 28, 110
9, 32926, Note_on_c, 0, 28, 0
9, 32928, Note_on_c, 0, 40, 110
9, 33022, Note_on_c, 0, 40, 0
9, 33024, Note_on_c, 0, 30, 110
9, 33184, Note_on_c, 0, 30, 0
9, 33216, Note_on_c, 0, 30, 110
9, 33376, Note_on_c, 0, 30, 0
9, 33408, Note_on_c, 0, 30, 110
9, 33502, Note_on_c, 0, 30, 0
9, 33504, Note_on_c, 0, 42, 110
9, 33598, Note_on_c, 0, 42, 0
9, 33600, Note_on_c, 0, 30, 110
9, 33694, Note_on_c, 0, 30, 0
9, 33696, Note_on_c, 0, 42, 110
9, 33790, Note_on_c, 0, 42, 0
9, 33792, Note_on_c, 0, 35, 110
9, 33952, Note_on_c, 0, 35, 0
9, 33984, Note_on_c, 0, 35, 110
9, 34144, Note_on_c, 0, 35, 0
9, 34176, Note_on_c, 0, 35, 110
9, 34270, Note_on_c, 0, 35, 0
9, 34272, Note_on_c, 0, 47, 110
9, 34366, Note_on_c, 0, 47, 0
9, 34368, Note_on_c, 0, 35, 110
9, 34462, Note_on_c, 0, 35, 0
9, 34464, Note_on_c, 0, 47, 110
9, 34558, Note_on_c, 0, 47, 0
9, 34560, Note_on_c, 0, 32, 110
9, 34720, Note_on_c, 0, 32, 0
9, 34752, Note_on_c, 0, 32, 110
9, 34912, Note_on_c, 0, 32, 0
9, 34944, Note_on_c, 0, 32, 110
9, 35038, Note_on_c, 0, 32, 0
9, 35040, Note_on_c, 0, 44, 110
9, 35134, Note_on_c, 0, 44, 0
9, 35136, Note_on_c, 0, 30, 110
9, 35230, Note_on_c, 0, 30, 0
9, 35232, Note_on_c, 0, 42, 110
9, 35326, Note_on_c, 0, 42, 0
9, 35328, Note_on_c, 0, 28, 110
9, 35488, Note_on_c, 0, 28, 0
9, 35520, Note_on_c, 0, 28, 110
9, 35680, Note_on_c, 0, 28, 0
9, 35712, Note_on_c, 0, 28, 110
9, 35806, Note_on_c, 0, 28, 0
9, 35808, Note_on_c, 0, 40, 110
9, 35902, Note_on_c, 0, 40, 0
9, 35904, Note_on_c, 0, 28, 110
9, 35998, Note_on_c, 0, 28, 0
9, 36000, Note_on_c, 0, 40, 110
9, 36094, Note_on_c, 0, 40, 0
9, 36096, Note_on_c, 0, 30, 110
9, 36256, Note_on_c, 0, 30, 0
9, 36288, Note_on_c, 0, 30, 110
9, 36448, Note_on_c, 0, 30, 0
9, 36480, Note_on_c, 0, 30, 110
9, 36574, Note_on_c, 0, 30, 0
9, 36576, Note_on_c, 0, 42, 110
9, 36670, Note_on_c, 0, 42, 0
9, 36672, Note_on_c, 0, 30, 110
9, 36766, Note_on_c, 0, 30, 0
9, 36768, Note_on_c, 0, 42, 110
9, 36862, Note_on_c, 0, 42, 0
9, 36864, Note_on_c, 0, 35, 110
9, 37024, Note_on_c, 0, 35, 0
9, 37056, Note_on_c, 0, 35, 110
9, 37216, Note_on_c, 0, 35, 0
9, 37248, Note_on_c, 0, 35, 110
9, 37342, Note_on_c, 0, 35, 0
9, 37344, Note_on_c, 0, 47, 110
9, 37438, Note_on_c, 0, 47, 0
9, 37440, Note_on_c, 0, 35, 110
9, 37534, Note_on_c, 0, 35, 0
9, 37536, Note_on_c, 0, 47, 110
9, 37630, Note_on_c, 0, 47, 0
9, 37632, Note_on_c, 0, 32, 110
9, 37792, Note_on_c, 0, 32, 0
9, 37824, Note_on_c, 0, 32, 110
9, 37918, Note_on_c, 0, 32, 0
9, 37920, Note_on_c, 0, 38, 110
9, 37942, Note_on_c, 0, 38, 0
9, 37944, Note_on_c, 0, 39, 110
9, 38014, Note_on_c, 0, 39, 0
9, 38016, Note_on_c, 0, 44, 110
9, 38110, Note_on_c, 0, 44, 0
9, 38112, Note_on_c, 0, 38, 110
9, 38134, Note_on_c, 0, 38, 0
9, 38136, Note_on_c, 0, 39, 110
9, 38206, Note_on_c, 0, 39, 0
9, 38208, Note_on_c, 0, 32, 110
9, 38302, Note_on_c, 0, 32, 0
9, 38304, Note_on_c, 0, 30, 110
9, 38398, Note_on_c, 0, 30, 0
9, 38400, Note_on_c, 0, 28, 110
9, 39888, Note_on_c, 0, 28, 0
9, 41472, Note_on_c, 0, 35, 110
9, 42960, Note_on_c, 0, 35, 0
9, 43008, Note_on_c, 0, 40, 110
9, 44496, Note_on_c, 0, 40, 0
9, 44544, Note_on_c, 0, 35, 110
9, 46032, Note_on_c, 0, 35, 0
9, 46080, Note_on_c, 0, 40, 110
9, 47568, Note_on_c, 0, 40, 0
9, 47616, Note_on_c, 0, 37, 110
9, 47952, Note_on_c, 0, 37, 0
9, 48000, Note_on_c, 0, 35, 110
9, 48336, Note_on_c, 0, 35, 0
9, 48384, Note_on_c, 0, 30, 110
9, 49104, Note_on_c, 0, 30, 0
9, 49152, Note_on_c, 0, 37, 110
9, 49488, Note_on_c, 0, 37, 0
9, 49536, Note_on_c, 0, 28, 110
9, 49872, Note_on_c, 0, 28, 0
9, 49920, Note_on_c, 0, 29, 110
9, 50176, Note_on_c, 0, 29, 0
9, 50208, Note_on_c, 0, 30, 110
9, 50640, Note_on_c, 0, 30, 0
9, 50688, Note_on_c, 0, 37, 110
9, 51024, Note_on_c, 0, 37, 0
9, 51072, Note_on_c, 0, 35, 110
9, 51408, Note_on_c, 0, 35, 0
9, 51456, Note_on_c, 0, 30, 110
9, 52176, Note_on_c, 0, 30, 0
9, 52224, Note_on_c, 0, 28, 110
9, 52944, Note_on_c, 0, 28, 0
9, 52992, Note_on_c, 0, 30, 110
9, 53152, Note_on_c, 0, 30, 0
9, 53184, Note_on_c, 0, 30, 110
9, 53344, Note_on_c, 0, 30, 0
9, 53760, Note_on_c, 0, 28, 110
9, 53854, Note_on_c, 0, 28, 0
9, 53856, Note_on_c, 0, 28, 110
9, 53950, Note_on_c, 0, 28, 0
9, 53952, Note_on_c, 0, 28, 110
9, 54046, Note_on_c, 0, 28, 0
9, 54048, Note_on_c, 0, 28, 110
9, 54142, Note_on_c, 0, 28, 0
9, 54144, Note_on_c, 0, 28, 110
9, 54238, Note_on_c, 0, 28, 0
9, 54240, Note_on_c, 0, 28, 110
9, 54334, Note_on_c, 0, 28, 0
9, 54336, Note_on_c, 0, 28, 110
9, 54430, Note_on_c, 0, 28, 0
9, 54432, Note_on_c, 0, 28, 110
9, 54526, Note_on_c, 0, 28, 0
9, 54528, Note_on_c, 0, 30, 110
9, 54622, Note_on_c, 0, 30, 0
9, 54624, Note_on_c, 0, 30, 110
9, 54718, Note_on_c, 0, 30, 0
9, 54720, Note_on_c, 0, 30, 110
9, 54814, Note_on_c, 0, 30, 0
9, 54816, Note_on_c, 0, 30, 110
9, 54910, Note_on_c, 0, 30, 0
9, 54912, Note_on_c, 0, 30, 110
9, 55006, Note_on_c, 0, 30, 0
9, 55008, Note_on_c, 0, 30, 110
9, 55102, Note_on_c, 0, 30, 0
9, 55104, Note_on_c, 0, 30, 110
9, 55198, Note_on_c, 0, 30, 0
9, 55200, Note_on_c, 0, 30, 110
9, 55294, Note_on_c, 0, 30, 0
9, 55296, Note_on_c, 0, 35, 110
9, 55390, Note_on_c, 0, 35, 0
9, 55392, Note_on_c, 0, 35, 110
9, 55486, Note_on_c, 0, 35, 0
9, 55488, Note_on_c, 0, 35, 110
9, 55582, Note_on_c, 0, 35, 0
9, 55584, Note_on_c, 0, 35, 110
9, 55678, Note_on_c, 0, 35, 0
9, 55680, Note_on_c, 0, 35, 110
9, 55774, Note_on_c, 0, 35, 0
9, 55776, Note_on_c, 0, 35, 110
9, 55870, Note_on_c, 0, 35, 0
9, 55872, Note_on_c, 0, 35, 110
9, 55966, Note_on_c, 0, 35, 0
9, 55968, Note_on_c, 0, 35, 110
9, 56062, Note_on_c, 0, 35, 0
9, 56064, Note_on_c, 0, 32, 110
9, 56158, Note_on_c, 0, 32, 0
9, 56160, Note_on_c, 0, 32, 110
9, 56254, Note_on_c, 0, 32, 0
9, 56256, Note_on_c, 0, 32, 110
9, 56350, Note_on_c, 0, 32, 0
9, 56352, Note_on_c, 0, 32, 110
9, 56446, Note_on_c, 0, 32, 0
9, 56448, Note_on_c, 0, 32, 110
9, 56542, Note_on_c, 0, 32, 0
9, 56544, Note_on_c, 0, 32, 110
9, 56638, Note_on_c, 0, 32, 0
9, 56640, Note_on_c, 0, 32, 110
9, 56734, Note_on_c, 0, 32, 0
9, 56736, Note_on_c, 0, 32, 110
9, 56830, Note_on_c, 0, 32, 0
9, 56832, Note_on_c, 0, 28, 110
9, 56926, Note_on_c, 0, 28, 0
9, 56928, Note_on_c, 0, 28, 110
9, 57022, Note_on_c, 0, 28, 0
9, 57024, Note_on_c, 0, 28, 110
9, 57118, Note_on_c, 0, 28, 0
9, 57120, Note_on_c, 0, 28, 110
9, 57214, Note_on_c, 0, 28, 0
9, 57216, Note_on_c, 0, 28, 110
9, 57310, Note_on_c, 0, 28, 0
9, 57312, Note_on_c, 0, 28, 110
9, 57406, Note_on_c, 0, 28, 0
9, 57408, Note_on_c, 0, 28, 110
9, 57502, Note_on_c, 0, 28, 0
9, 57504, Note_on_c, 0, 28, 110
9, 57598, Note_on_c, 0, 28, 0
9, 57600, Note_on_c, 0, 30, 110
9, 57694, Note_on_c, 0, 30, 0
9, 57696, Note_on_c, 0, 30, 110
9, 57790, Note_on_c, 0, 30, 0
9, 57792, Note_on_c, 0, 30, 110
9, 57886, Note_on_c, 0, 30, 0
9, 57888, Note_on_c, 0, 30, 110
9, 57982, Note_on_c, 0, 30, 0
9, 57984, Note_on_c, 0, 30, 110
9, 58078, Note_on_c, 0, 30, 0
9, 58080, Note_on_c, 0, 30, 110
9, 58174, Note_on_c, 0, 30, 0
9, 58176, Note_on_c, 0, 30, 110
9, 58270, Note_on_c, 0, 30, 0
9, 58272, Note_on_c, 0, 30, 110
9, 58366, Note_on_c, 0, 30, 0
9, 58368, Note_on_c, 0, 35, 110
9, 58462, Note_on_c, 0, 35, 0
9, 58464, Note_on_c, 0, 35, 110
9, 58558, Note_on_c, 0, 35, 0
9, 58560, Note_on_c, 0, 35, 110
9, 58654, Note_on_c, 0, 35, 0
9, 58656, Note_on_c, 0, 35, 110
9, 58750, Note_on_c, 0, 35, 0
9, 58752, Note_on_c, 0, 35, 110
9, 58846, Note_on_c, 0, 35, 0
9, 58848, Note_on_c, 0, 35, 110
9, 58942, Note_on_c, 0, 35, 0
9, 58944, Note_on_c, 0, 35, 110
9, 59038, Note_on_c, 0, 35, 0
9, 59040, Note_on_c, 0, 35, 110
9, 59134, Note_on_c, 0, 35, 0
9, 59136, Note_on_c, 0, 32, 110
9, 59230, Note_on_c, 0, 32, 0
9, 59232, Note_on_c, 0, 32, 110
9, 59326, Note_on_c, 0, 32, 0
9, 59328, Note_on_c, 0, 32, 110
9, 59422, Note_on_c, 0, 32, 0
9, 59424, Note_on_c, 0, 32, 110
9, 59518, Note_on_c, 0, 32, 0
9, 59520, Note_on_c, 0, 32, 110
9, 59614, Note_on_c, 0, 32, 0
9, 59616, Note_on_c, 0, 32, 110
9, 59710, Note_on_c, 0, 32, 0
9, 59712, Note_on_c, 0, 32, 110
9, 59806, Note_on_c, 0, 32, 0
9, 59808, Note_on_c, 0, 32, 110
9, 59902, Note_on_c, 0, 32, 0
9, 59904, Note_on_c, 0, 28, 110
9, 59998, Note_on_c, 0, 28, 0
9, 60000, Note_on_c, 0, 28, 110
9, 60094, Note_on_c, 0, 28, 0
9, 60096, Note_on_c, 0, 28, 110
9, 60190, Note_on_c, 0, 28, 0
9, 60192, Note_on_c, 0, 28, 110
9, 60286, Note_on_c, 0, 28, 0
9, 60288, Note_on_c, 0, 28, 110
9, 60382, Note_on_c, 0, 28, 0
9, 60384, Note_on_c, 0, 28, 110
9, 60478, Note_on_c, 0, 28, 0
9, 60480, Note_on_c, 0, 28, 110
9, 60574, Note_on_c, 0, 28, 0
9, 60576, Note_on_c, 0, 28, 110
9, 60670, Note_on_c, 0, 28, 0
9, 60672, Note_on_c, 0, 30, 110
9, 60766, Note_on_c, 0, 30, 0
9, 60768, Note_on_c, 0, 30, 110
9, 60862, Note_on_c, 0, 30, 0
9, 60864, Note_on_c, 0, 30, 110
9, 60958, Note_on_c, 0, 30, 0
9, 60960, Note_on_c, 0, 30, 110
9, 61054, Note_on_c, 0, 30, 0
9, 61056, Note_on_c, 0, 30, 110
9, 61150, Note_on_c, 0, 30, 0
9, 61152, Note_on_c, 0, 30, 110
9, 61246, Note_on_c, 0, 30, 0
9, 61248, Note_on_c, 0, 30, 110
9, 61342, Note_on_c, 0, 30, 0
9, 61344, Note_on_c, 0, 30, 110
9, 61438, Note_on_c, 0, 30, 0
9, 61440, Note_on_c, 0, 35, 110
9, 61534, Note_on_c, 0, 35, 0
9, 61536, Note_on_c, 0, 35, 110
9, 61630, Note_on_c, 0, 35, 0
9, 61632, Note_on_c, 0, 35, 110
9, 61726, Note_on_c, 0, 35, 0
9, 61728, Note_on_c, 0, 35, 110
9, 61822, Note_on_c, 0, 35, 0
9, 61824, Note_on_c, 0, 35, 110
9, 61918, Note_on_c, 0, 35, 0
9, 61920, Note_on_c, 0, 35, 110
9, 62014, Note_on_c, 0, 35, 0
9, 62016, Note_on_c, 0, 35, 110
9, 62110, Note_on_c, 0, 35, 0
9, 62112, Note_on_c, 0, 35, 110
9, 62206, Note_on_c, 0, 35, 0
9, 62208, Note_on_c, 0, 32, 110
9, 62302, Note_on_c, 0, 32, 0
9, 62304, Note_on_c, 0, 32, 110
9, 62398, Note_on_c, 0, 32, 0
9, 62400, Note_on_c, 0, 32, 110
9, 62494, Note_on_c, 0, 32, 0
9, 62496, Note_on_c, 0, 32, 110
9, 62590, Note_on_c, 0, 32, 0
9, 62592, Note_on_c, 0, 32, 110
9, 62686, Note_on_c, 0, 32, 0
9, 62688, Note_on_c, 0, 32, 110
9, 62782, Note_on_c, 0, 32, 0
9, 62784, Note_on_c, 0, 32, 110
9, 62878, Note_on_c, 0, 32, 0
9, 62880, Note_on_c, 0, 32, 110
9, 62974, Note_on_c, 0, 32, 0
9, 62976, Note_on_c, 0, 28, 110
9, 63070, Note_on_c, 0, 28, 0
9, 63072, Note_on_c, 0, 28, 110
9, 63166, Note_on_c, 0, 28, 0
9, 63168, Note_on_c, 0, 28, 110
9, 63262, Note_on_c, 0, 28, 0
9, 63264, Note_on_c, 0, 28, 110
9, 63358, Note_on_c, 0, 28, 0
9, 63360, Note_on_c, 0, 28, 110
9, 63454, Note_on_c, 0, 28, 0
9, 63456, Note_on_c, 0, 28, 110
9, 63550, Note_on_c, 0, 28, 0
9, 63552, Note_on_c, 0, 28, 110
9, 63646, Note_on_c, 0, 28, 0
9, 63648, Note_on_c, 0, 28, 110
9, 63742, Note_on_c, 0, 28, 0
9, 63744, Note_on_c, 0, 30, 110
9, 63838, Note_on_c, 0, 30, 0
9, 63840, Note_on_c, 0, 30, 110
9, 63934, Note_on_c, 0, 30, 0
9, 63936, Note_on_c, 0, 30, 110
9, 64030, Note_on_c, 0, 30, 0
9, 64032, Note_on_c, 0, 30, 110
9, 64126, Note_on_c, 0, 30, 0
9, 64128, Note_on_c, 0, 30, 110
9, 64222, Note_on_c, 0, 30, 0
9, 64224, Note_on_c, 0, 30, 110
9, 64318, Note_on_c, 0, 30, 0
9, 64320, Note_on_c, 0, 30, 110
9, 64414, Note_on_c, 0, 30, 0
9, 64416, Note_on_c, 0, 30, 110
9, 64510, Note_on_c, 0, 30, 0
9, 64512, Note_on_c, 0, 35, 110
9, 64606, Note_on_c, 0, 35, 0
9, 64608, Note_on_c, 0, 35, 110
9, 64702, Note_on_c, 0, 35, 0
9, 64704, Note_on_c, 0, 35, 110
9, 64798, Note_on_c, 0, 35, 0
9, 64800, Note_on_c, 0, 35, 110
9, 64894, Note_on_c, 0, 35, 0
9, 64896, Note_on_c, 0, 35, 110
9, 64990, Note_on_c, 0, 35, 0
9, 64992, Note_on_c, 0, 35, 110
9, 65086, Note_on_c, 0, 35, 0
9, 65088, Note_on_c, 0, 35, 110
9, 65182, Note_on_c, 0, 35, 0
9, 65184, Note_on_c, 0, 35, 110
9, 65278, Note_on_c, 0, 35, 0
9, 65280, Note_on_c, 0, 32, 110
9, 65374, Note_on_c, 0, 32, 0
9, 65376, Note_on_c, 0, 32, 110
9, 65470, Note_on_c, 0, 32, 0
9, 65472, Note_on_c, 0, 32, 110
9, 65566, Note_on_c, 0, 32, 0
9, 65568, Note_on_c, 0, 32, 110
9, 65662, Note_on_c, 0, 32, 0
9, 65664, Note_on_c, 0, 32, 110
9, 65758, Note_on_c, 0, 32, 0
9, 65760, Note_on_c, 0, 32, 110
9, 65854, Note_on_c, 0, 32, 0
9, 65856, Note_on_c, 0, 32, 110
9, 65950, Note_on_c, 0, 32, 0
9, 65952, Note_on_c, 0, 32, 110
9, 66046, Note_on_c, 0, 32, 0
9, 66048, Note_on_c, 0, 40, 110
9, 66768, Note_on_c, 0, 40, 0
9, 66816, Note_on_c, 0, 42, 110
9, 67536, Note_on_c, 0, 42, 0
9, 67584, Note_on_c, 0, 39, 110
9, 68304, Note_on_c, 0, 39, 0
9, 68352, Note_on_c, 0, 44, 110
9, 68688, Note_on_c, 0, 44, 0
9, 68736, Note_on_c, 0, 32, 110
9, 69072, Note_on_c, 0, 32, 0
9, 69120, Note_on_c, 0, 40, 110
9, 69790, Note_on_c, 0, 40, 0
9, 69792, Note_on_c, 0, 40, 110
9, 69886, Note_on_c, 0, 40, 0
9, 69888, Note_on_c, 0, 42, 110
9, 70558, Note_on_c, 0, 42, 0
9, 70560, Note_on_c, 0, 37, 110
9, 70654, Note_on_c, 0, 37, 0
9, 70656, Note_on_c, 0, 39, 110
9, 71376, Note_on_c, 0, 39, 0
9, 71424, Note_on_c, 0, 44, 110
9, 71760, Note_on_c, 0, 44, 0
9, 71808, Note_on_c, 0, 42, 110
9, 72144, Note_on_c, 0, 42, 0
9, 73728, Note_on_c, 0, 28, 110
9, 73822, Note_on_c, 0, 28, 0
9, 73824, Note_on_c, 0, 28, 110
9, 73918, Note_on_c, 0, 28, 0
9, 73920, Note_on_c, 0, 28, 110
9, 74014, Note_on_c, 0, 28, 0
9, 74016, Note_on_c, 0, 28, 110
9, 74110, Note_on_c, 0, 28, 0
9, 74112, Note_on_c, 0, 28, 110
9, 74206, Note_on_c, 0, 28, 0
9, 74208, Note_on_c, 0, 28, 110
9, 74302, Note_on_c, 0, 28, 0
9, 74304, Note_on_c, 0, 28, 110
9, 74398, Note_on_c, 0, 28, 0
9, 74400, Note_on_c, 0, 28, 110
9, 74494, Note_on_c, 0, 28, 0
9, 74496, Note_on_c, 0, 30, 110
9, 74590, Note_on_c, 0, 30, 0
9, 74592, Note_on_c, 0, 30, 110
9, 74686, Note_on_c, 0, 30, 0
9, 74688, Note_on_c, 0, 30, 110
9, 74782, Note_on_c, 0, 30, 0
9, 74784, Note_on_c, 0, 30, 110
9, 74878, Note_on_c, 0, 30, 0
9, 74880, Note_on_c, 0, 30, 110
9, 74974, Note_on_c, 0, 30, 0
9, 74976, Note_on_c, 0, 30, 110
9, 75070, Note_on_c, 0, 30, 0
9, 75072, Note_on_c, 0, 30, 110
9, 75166, Note_on_c, 0, 30, 0
9, 75168, Note_on_c, 0, 30, 110
9, 75262, Note_on_c, 0, 30, 0
9, 75264, Note_on_c, 0, 35, 110
9, 75358, Note_on_c, 0, 35, 0
9, 75360, Note_on_c, 0, 35, 110
9, 75454, Note_on_c, 0, 35, 0
9, 75456, Note_on_c, 0, 35, 110
9, 75550, Note_on_c, 0, 35, 0
9, 75552, Note_on_c, 0, 35, 110
9, 75646, Note_on_c, 0, 35, 0
9, 75648, Note_on_c, 0, 35, 110
9, 75742, Note_on_c, 0, 35, 0
9, 75744, Note_on_c, 0, 35, 110
9, 75838, Note_on_c, 0, 35, 0
9, 75840, Note_on_c, 0, 35, 110
9, 75934, Note_on_c, 0, 35, 0
9, 75936, Note_on_c, 0, 35, 110
9, 76030, Note_on_c, 0, 35, 0
9, 76032, Note_on_c, 0, 32, 110
9, 76126, Note_on_c, 0, 32, 0
9, 76128, Note_on_c, 0, 32, 110
9, 76222, Note_on_c, 0, 32, 0
9, 76224, Note_on_c, 0, 32, 110
9, 76318, Note_on_c, 0, 32, 0
9, 76320, Note_on_c, 0, 32, 110
9, 76414, Note_on_c, 0, 32, 0
9, 76416, Note_on_c, 0, 32, 110
9, 76510, Note_on_c, 0, 32, 0
9, 76512, Note_on_c, 0, 32, 110
9, 76606, Note_on_c, 0, 32, 0
9, 76608, Note_on_c, 0, 32, 110
9, 76702, Note_on_c, 0, 32, 0
9, 76704, Note_on_c, 0, 32, 110
9, 76798, Note_on_c, 0, 32, 0
9, 76800, Note_on_c, 0, 28, 110
9, 76894, Note_on_c, 0, 28, 0
9, 76896, Note_on_c, 0, 28, 110
9, 76990, Note_on_c, 0, 28, 0
9, 76992, Note_on_c, 0, 28, 110
9, 77086, Note_on_c, 0, 28, 0
9, 77088, Note_on_c, 0, 28, 110
9, 77182, Note_on_c, 0, 28, 0
9, 77184, Note_on_c, 0, 28, 110
9, 77278, Note_on_c, 0, 28, 0
9, 77280, Note_on_c, 0, 28, 110
9, 77374, Note_on_c, 0, 28, 0
9, 77376, Note_on_c, 0, 28, 110
9, 77470, Note_on_c, 0, 28, 0
9, 77472, Note_on_c, 0, 28, 110
9, 77566, Note_on_c, 0, 28, 0
9, 77568, Note_on_c, 0, 30, 110
9, 77662, Note_on_c, 0, 30, 0
9, 77664, Note_on_c, 0, 30, 110
9, 77758, Note_on_c, 0, 30, 0
9, 77760, Note_on_c, 0, 30, 110
9, 77854, Note_on_c, 0, 30, 0
9, 77856, Note_on_c, 0, 30, 110
9, 77950, Note_on_c, 0, 30, 0
9, 77952, Note_on_c, 0, 30, 110
9, 78046, Note_on_c, 0, 30, 0
9, 78048, Note_on_c, 0, 30, 110
9, 78142, Note_on_c, 0, 30, 0
9, 78144, Note_on_c, 0, 30, 110
9, 78238, Note_on_c, 0, 30, 0
9, 78240, Note_on_c, 0, 30, 110
9, 78334, Note_on_c, 0, 30, 0
9, 78336, Note_on_c, 0, 35, 110
9, 78430, Note_on_c, 0, 35, 0
9, 78432, Note_on_c, 0, 35, 110
9, 78526, Note_on_c, 0, 35, 0
9, 78528, Note_on_c, 0, 35, 110
9, 78622, Note_on_c, 0, 35, 0
9, 78624, Note_on_c, 0, 35, 110
9, 78718, Note_on_c, 0, 35, 0
9, 78720, Note_on_c, 0, 35, 110
9, 78814, Note_on_c, 0, 35, 0
9, 78816, Note_on_c, 0, 35, 110
9, 78910, Note_on_c, 0, 35, 0
9, 78912, Note_on_c, 0, 35, 110
9, 79006, Note_on_c, 0, 35, 0
9, 79008, Note_on_c, 0, 35, 110
9, 79102, Note_on_c, 0, 35, 0
9, 79104, Note_on_c, 0, 32, 110
9, 79198, Note_on_c, 0, 32, 0
9, 79200, Note_on_c, 0, 32, 110
9, 79294, Note_on_c, 0, 32, 0
9, 79296, Note_on_c, 0, 32, 110
9, 79390, Note_on_c, 0, 32, 0
9, 79392, Note_on_c, 0, 32, 110
9, 79486, Note_on_c, 0, 32, 0
9, 79488, Note_on_c, 0, 32, 110
9, 79582, Note_on_c, 0, 32, 0
9, 79584, Note_on_c, 0, 32, 110
9, 79678, Note_on_c, 0, 32, 0
9, 79680, Note_on_c, 0, 32, 110
9, 79774, Note_on_c, 0, 32, 0
9, 79776, Note_on_c, 0, 32, 110
9, 79870, Note_on_c, 0, 32, 0
9, 79872, Note_on_c, 0, 28, 110
9, 80032, Note_on_c, 0, 28, 0
9, 80064, Note_on_c, 0, 28, 110
9, 80224, Note_on_c, 0, 28, 0
9, 80256, Note_on_c, 0, 28, 110
9, 80350, Note_on_c, 0, 28, 0
9, 80352, Note_on_c, 0, 40, 110
9, 80446, Note_on_c, 0, 40, 0
9, 80448, Note_on_c, 0, 28, 110
9, 80542, Note_on_c, 0, 28, 0
9, 80544, Note_on_c, 0, 40, 110
9, 80638, Note_on_c, 0, 40, 0
9, 80640, Note_on_c, 0, 30, 110
9, 80800, Note_on_c, 0, 30, 0
9, 80832, Note_on_c, 0, 30, 110
9, 80992, Note_on_c, 0, 30, 0
9, 81024, Note_on_c, 0, 30, 110
9, 81118, Note_on_c, 0, 30, 0
9, 81120, Note_on_c, 0, 42, 110
9, 81214, Note_on_c, 0, 42, 0
9, 81216, Note_on_c, 0, 30, 110
9, 81310, Note_on_c, 0, 30, 0
9, 81312, Note_on_c, 0, 42, 110
9, 81406, Note_on_c, 0, 42, 0
9, 81408, Note_on_c, 0, 35, 110
9, 81568, Note_on_c, 0, 35, 0
9, 81600, Note_on_c, 0, 35, 110
9, 81760, Note_on_c, 0, 35, 0
9, 81792, Note_on_c, 0, 35, 110
9, 81886, Note_on_c, 0, 35, 0
9, 81888, Note_on_c, 0, 47, 110
9, 81982, Note_on_c, 0, 47, 0
9, 81984, Note_on_c, 0, 35, 110
9, 82078, Note_on_c, 0, 35, 0
9, 82080, Note_on_c, 0, 47, 110
9, 82174, Note_on_c, 0, 47, 0
9, 82176, Note_on_c, 0, 32, 110
9, 82336, Note_on_c, 0, 32, 0
9, 82368, Note_on_c, 0, 32, 110
9, 82528, Note_on_c, 0, 32, 0
9, 82560, Note_on_c, 0, 32, 110
9, 82654, Note_on_c, 0, 32, 0
9, 82656, Note_on_c, 0, 44, 110
9, 82750, Note_on_c, 0, 44, 0
9, 82752, Note_on_c, 0, 30, 110
9, 82846, Note_on_c, 0, 30, 0
9, 82848, Note_on_c, 0, 42, 110
9, 82942, Note_on_c, 0, 42, 0
9, 82944, Note_on_c, 0, 28, 110
9, 83104, Note_on_c, 0, 28, 0
9, 83136, Note_on_c, 0, 35, 110
9, 83182, Note_on_c, 0, 35, 0
9, 83184, Note_on_c, 0, 37, 110
9, 83230, Note_on_c, 0, 37, 0
9, 83232, Note_on_c, 0, 35, 110
9, 83326, Note_on_c, 0, 35, 0
9, 83328, Note_on_c, 0, 40, 110
9, 83374, Note_on_c, 0, 40, 0
9, 83376, Note_on_c, 0, 42, 110
9, 83422, Note_on_c, 0, 42, 0
9, 83424, Note_on_c, 0, 40, 110
9, 83518, Note_on_c, 0, 40, 0
9, 83520, Note_on_c, 0, 37, 110
9, 83614, Note_on_c, 0, 37, 0
9, 83616, Note_on_c, 0, 35, 110
9, 83710, Note_on_c, 0, 35, 0
9, 83712, Note_on_c, 0, 30, 110
9, 83872, Note_on_c, 0, 30, 0
9, 83904, Note_on_c, 0, 30, 110
9, 84064, Note_on_c, 0, 30, 0
9, 84096, Note_on_c, 0, 30, 110
9, 84190, Note_on_c, 0, 30, 0
9, 84192, Note_on_c, 0, 42, 110
9, 84286, Note_on_c, 0, 42, 0
9, 84288, Note_on_c, 0, 30, 110
9, 84382, Note_on_c, 0, 30, 0
9, 84384, Note_on_c, 0, 42, 110
9, 84478, Note_on_c, 0, 42, 0
9, 84480, Note_on_c, 0, 35, 110
9, 84640, Note_on_c, 0, 35, 0
9, 84672, Note_on_c, 0, 35, 110
9, 84832, Note_on_c, 0, 35, 0
9, 84864, Note_on_c, 0, 35, 110
9, 84958, Note_on_c, 0, 35, 0
9, 84960, Note_on_c, 0, 47, 110
9, 85054, Note_on_c, 0, 47, 0
9, 85056, Note_on_c, 0, 35, 110
9, 85150, Note_on_c, 0, 35, 0
9, 85152, Note_on_c, 0, 47, 110
9, 85246, Note_on_c, 0, 47, 0
9, 85248, Note_on_c, 0, 32, 110
9, 85408, Note_on_c, 0, 32, 0
9, 85440, Note_on_c, 0, 32, 110
9, 85534, Note_on_c, 0, 32, 0
9, 85536, Note_on_c, 0, 38, 110
9, 85558, Note_on_c, 0, 38, 0
9, 85560, Note_on_c, 0, 39, 110
9, 85630, Note_on_c, 0, 39, 0
9, 85632, Note_on_c, 0, 44, 110
9, 85726, Note_on_c, 0, 44, 0
9, 85728, Note_on_c, 0, 38, 110
9, 85750, Note_on_c, 0, 38, 0
9, 85752, Note_on_c, 0, 39, 110
9, 85822, Note_on_c, 0, 39, 0
9, 85824, Note_on_c, 0, 32, 110
9, 85870, Note_on_c, 0, 32, 0
9, 85872, Note_on_c, 0, 31, 110
9, 85918, Note_on_c, 0, 31, 0
9, 85920, Note_on_c, 0, 30, 110
9, 86014, Note_on_c, 0, 30, 0
9, 86016, Note_on_c, 0, 28, 110
9, 87504, Note_on_c, 0, 28, 0
9, 87504, End_track
10, 0, Start_track
10, 0, MIDI_port, 0
10, 0, Title_t, "Staff-9"
10, 0, Program_c, 12, 48
10, 0, Pitch_bend_c, 12, 8192
10, 0, Control_c, 12, 7, 127
10, 0, Control_c, 12, 10, 64
10, 7680, Note_on_c, 12, 66, 110
10, 9168, Note_on_c, 12, 66, 0
10, 9216, Note_on_c, 12, 71, 110
10, 10704, Note_on_c, 12, 71, 0
10, 10752, Note_on_c, 12, 66, 110
10, 12240, Note_on_c, 12, 66, 0
10, 12288, Note_on_c, 12, 71, 110
10, 13776, Note_on_c, 12, 71, 0
10, 13824, Note_on_c, 12, 68, 110
10, 14160, Note_on_c, 12, 68, 0
10, 14208, Note_on_c, 12, 66, 110
10, 14544, Note_on_c, 12, 66, 0
10, 14592, Note_on_c, 12, 61, 110
10, 15312, Note_on_c, 12, 61, 0
10, 15360, Note_on_c, 12, 68, 110
10, 15696, Note_on_c, 12, 68, 0
10, 15744, Note_on_c, 12, 66, 110
10, 16080, Note_on_c, 12, 66, 0
10, 16128, Note_on_c, 12, 61, 110
10, 16848, Note_on_c, 12, 61, 0
10, 16896, Note_on_c, 12, 68, 110
10, 17232, Note_on_c, 12, 68, 0
10, 17280, Note_on_c, 12, 66, 110
10, 17616, Note_on_c, 12, 66, 0
10, 17664, Note_on_c, 12, 61, 110
10, 18384, Note_on_c, 12, 61, 0
10, 18432, Note_on_c, 12, 59, 110
10, 19152, Note_on_c, 12, 59, 0
10, 19200, Note_on_c, 12, 61, 110
10, 19920, Note_on_c, 12, 61, 0
10, 19968, Note_on_c, 12, 71, 110
10, 20062, Note_on_c, 12, 71, 0
10, 20064, Note_on_c, 12, 70, 110
10, 20158, Note_on_c, 12, 70, 0
10, 20160, Note_on_c, 12, 66, 110
10, 20254, Note_on_c, 12, 66, 0
10, 20256, Note_on_c, 12, 71, 110
10, 20350, Note_on_c, 12, 71, 0
10, 20352, Note_on_c, 12, 70, 110
10, 20446, Note_on_c, 12, 70, 0
10, 20448, Note_on_c, 12, 66, 110
10, 20542, Note_on_c, 12, 66, 0
10, 20544, Note_on_c, 12, 71, 110
10, 20638, Note_on_c, 12, 71, 0
10, 20640, Note_on_c, 12, 70, 110
10, 20734, Note_on_c, 12, 70, 0
10, 20736, Note_on_c, 12, 73, 110
10, 20830, Note_on_c, 12, 73, 0
10, 20832, Note_on_c, 12, 70, 110
10, 20926, Note_on_c, 12, 70, 0
10, 20928, Note_on_c, 12, 66, 110
10, 21022, Note_on_c, 12, 66, 0
10, 21024, Note_on_c, 12, 73, 110
10, 21118, Note_on_c, 12, 73, 0
10, 21120, Note_on_c, 12, 70, 110
10, 21214, Note_on_c, 12, 70, 0
10, 21216, Note_on_c, 12, 66, 110
10, 21310, Note_on_c, 12, 66, 0
10, 21312, Note_on_c, 12, 73, 110
10, 21406, Note_on_c, 12, 73, 0
10, 21408, Note_on_c, 12, 70, 110
10, 21502, Note_on_c, 12, 70, 0
10, 21504, Note_on_c, 12, 71, 110
10, 21598, Note_on_c, 12, 71, 0
10, 21600, Note_on_c, 12, 70, 110
10, 21694, Note_on_c, 12, 70, 0
10, 21696, Note_on_c, 12, 66, 110
10, 21790, Note_on_c, 12, 66, 0
10, 21792, Note_on_c, 12, 71, 110
10, 21886, Note_on_c, 12, 71, 0
10, 21888, Note_on_c, 12, 70, 110
10, 21982, Note_on_c, 12, 70, 0
10, 21984, Note_on_c, 12, 66, 110
10, 22078, Note_on_c, 12, 66, 0
10, 22080, Note_on_c, 12, 71, 110
10, 22174, Note_on_c, 12, 71, 0
10, 22176, Note_on_c, 12, 70, 110
10, 22270, Note_on_c, 12, 70, 0
10, 22272, Note_on_c, 12, 68, 110
10, 22366, Note_on_c, 12, 68, 0
10, 22368, Note_on_c, 12, 63, 110
10, 22462, Note_on_c, 12, 63, 0
10, 22464, Note_on_c, 12, 59, 110
10, 22558, Note_on_c, 12, 59, 0
10, 22560, Note_on_c, 12, 68, 110
10, 22654, Note_on_c, 12, 68, 0
10, 22656, Note_on_c, 12, 63, 110
10, 22750, Note_on_c, 12, 63, 0
10, 22752, Note_on_c, 12, 59, 110
10, 22846, Note_on_c, 12, 59, 0
10, 22848, Note_on_c, 12, 68, 110
10, 22942, Note_on_c, 12, 68, 0
10, 22944, Note_on_c, 12, 63, 110
10, 23038, Note_on_c, 12, 63, 0
10, 23040, Note_on_c, 12, 71, 110
10, 23134, Note_on_c, 12, 71, 0
10, 23136, Note_on_c, 12, 70, 110
10, 23230, Note_on_c, 12, 70, 0
10, 23232, Note_on_c, 12, 66, 110
10, 23326, Note_on_c, 12, 66, 0
10, 23328, Note_on_c, 12, 71, 110
10, 23422, Note_on_c, 12, 71, 0
10, 23424, Note_on_c, 12, 70, 110
10, 23518, Note_on_c, 12, 70, 0
10, 23520, Note_on_c, 12, 66, 110
10, 23614, Note_on_c, 12, 66, 0
10, 23616, Note_on_c, 12, 71, 110
10, 23710, Note_on_c, 12, 71, 0
10, 23712, Note_on_c, 12, 70, 110
10, 23806, Note_on_c, 12, 70, 0
10, 23808, Note_on_c, 12, 73, 110
10, 23902, Note_on_c, 12, 73, 0
10, 23904, Note_on_c, 12, 70, 110
10, 23998, Note_on_c, 12, 70, 0
10, 24000, Note_on_c, 12, 66, 110
10, 24094, Note_on_c, 12, 66, 0
10, 24096, Note_on_c, 12, 73, 110
10, 24190, Note_on_c, 12, 73, 0
10, 24192, Note_on_c, 12, 70, 110
10, 24286, Note_on_c, 12, 70, 0
10, 24288, Note_on_c, 12, 66, 110
10, 24382, Note_on_c, 12, 66, 0
10, 24384, Note_on_c, 12, 73, 110
10, 24478, Note_on_c, 12, 73, 0
10, 24480, Note_on_c, 12, 70, 110
10, 24574, Note_on_c, 12, 70, 0
10, 24576, Note_on_c, 12, 71, 110
10, 24670, Note_on_c, 12, 71, 0
10, 24672, Note_on_c, 12, 70, 110
10, 24766, Note_on_c, 12, 70, 0
10, 24768, Note_on_c, 12, 66, 110
10, 24862, Note_on_c, 12, 66, 0
10, 24864, Note_on_c, 12, 71, 110
10, 24958, Note_on_c, 12, 71, 0
10, 24960, Note_on_c, 12, 70, 110
10, 25054, Note_on_c, 12, 70, 0
10, 25056, Note_on_c, 12, 66, 110
10, 25150, Note_on_c, 12, 66, 0
10, 25152, Note_on_c, 12, 71, 110
10, 25246, Note_on_c, 12, 71, 0
10, 25248, Note_on_c, 12, 70, 110
10, 25342, Note_on_c, 12, 70, 0
10, 25344, Note_on_c, 12, 68, 110
10, 25438, Note_on_c, 12, 68, 0
10, 25440, Note_on_c, 12, 63, 110
10, 25534, Note_on_c, 12, 63, 0
10, 25536, Note_on_c, 12, 59, 110
10, 25630, Note_on_c, 12, 59, 0
10, 25632, Note_on_c, 12, 68, 110
10, 25726, Note_on_c, 12, 68, 0
10, 25728, Note_on_c, 12, 63, 110
10, 25822, Note_on_c, 12, 63, 0
10, 25824, Note_on_c, 12, 59, 110
10, 25918, Note_on_c, 12, 59, 0
10, 25920, Note_on_c, 12, 68, 110
10, 26014, Note_on_c, 12, 68, 0
10, 26016, Note_on_c, 12, 63, 110
10, 26110, Note_on_c, 12, 63, 0
10, 26112, Note_on_c, 12, 78, 110
10, 26254, Note_on_c, 12, 78, 0
10, 26256, Note_on_c, 12, 71, 110
10, 26398, Note_on_c, 12, 71, 0
10, 26400, Note_on_c, 12, 78, 110
10, 26590, Note_on_c, 12, 78, 0
10, 26592, Note_on_c, 12, 71, 110
10, 26782, Note_on_c, 12, 71, 0
10, 26784, Note_on_c, 12, 71, 110
10, 26878, Note_on_c, 12, 71, 0
10, 26880, Note_on_c, 12, 78, 110
10, 27022, Note_on_c, 12, 78, 0
10, 27024, Note_on_c, 12, 71, 110
10, 27166, Note_on_c, 12, 71, 0
10, 27168, Note_on_c, 12, 78, 110
10, 27358, Note_on_c, 12, 78, 0
10, 27360, Note_on_c, 12, 71, 110
10, 27550, Note_on_c, 12, 71, 0
10, 27552, Note_on_c, 12, 71, 110
10, 27646, Note_on_c, 12, 71, 0
10, 27648, Note_on_c, 12, 78, 110
10, 27790, Note_on_c, 12, 78, 0
10, 27792, Note_on_c, 12, 71, 110
10, 27934, Note_on_c, 12, 71, 0
10, 27936, Note_on_c, 12, 78, 110
10, 28126, Note_on_c, 12, 78, 0
10, 28128, Note_on_c, 12, 71, 110
10, 28318, Note_on_c, 12, 71, 0
10, 28320, Note_on_c, 12, 71, 110
10, 28414, Note_on_c, 12, 71, 0
10, 28416, Note_on_c, 12, 78, 110
10, 28558, Note_on_c, 12, 78, 0
10, 28560, Note_on_c, 12, 71, 110
10, 28702, Note_on_c, 12, 71, 0
10, 28704, Note_on_c, 12, 78, 110
10, 28894, Note_on_c, 12, 78, 0
10, 28896, Note_on_c, 12, 71, 110
10, 29086, Note_on_c, 12, 71, 0
10, 29088, Note_on_c, 12, 71, 110
10, 29182, Note_on_c, 12, 71, 0
10, 29184, Note_on_c, 12, 78, 110
10, 29326, Note_on_c, 12, 78, 0
10, 29328, Note_on_c, 12, 71, 110
10, 29470, Note_on_c, 12, 71, 0
10, 29472, Note_on_c, 12, 78, 110
10, 29662, Note_on_c, 12, 78, 0
10, 29664, Note_on_c, 12, 71, 110
10, 29854, Note_on_c, 12, 71, 0
10, 29856, Note_on_c, 12, 71, 110
10, 29950, Note_on_c, 12, 71, 0
10, 29952, Note_on_c, 12, 78, 110
10, 30094, Note_on_c, 12, 78, 0
10, 30096, Note_on_c, 12, 71, 110
10, 30238, Note_on_c, 12, 71, 0
10, 30240, Note_on_c, 12, 78, 110
10, 30430, Note_on_c, 12, 78, 0
10, 30432, Note_on_c, 12, 71, 110
10, 30622, Note_on_c, 12, 71, 0
10, 30624, Note_on_c, 12, 71, 110
10, 30718, Note_on_c, 12, 71, 0
10, 30720, Note_on_c, 12, 78, 110
10, 30862, Note_on_c, 12, 78, 0
10, 30864, Note_on_c, 12, 71, 110
10, 31006, Note_on_c, 12, 71, 0
10, 31008, Note_on_c, 12, 78, 110
10, 31198, Note_on_c, 12, 78, 0
10, 31200, Note_on_c, 12, 71, 110
10, 31390, Note_on_c, 12, 71, 0
10, 31392, Note_on_c, 12, 71, 110
10, 31486, Note_on_c, 12, 71, 0
10, 31488, Note_on_c, 12, 78, 110
10, 31630, Note_on_c, 12, 78, 0
10, 31632, Note_on_c, 12, 71, 110
10, 31774, Note_on_c, 12, 71, 0
10, 31776, Note_on_c, 12, 78, 110
10, 31966, Note_on_c, 12, 78, 0
10, 31968, Note_on_c, 12, 71, 110
10, 32158, Note_on_c, 12, 71, 0
10, 32160, Note_on_c, 12, 71, 110
10, 32254, Note_on_c, 12, 71, 0
10, 32256, Note_on_c, 12, 64, 110
10, 32256, Note_on_c, 12, 68, 110
10, 32256, Note_on_c, 12, 71, 110
10, 32976, Note_on_c, 12, 64, 0
10, 32976, Note_on_c, 12, 68, 0
10, 32976, Note_on_c, 12, 71, 0
10, 33024, Note_on_c, 12, 66, 110
10, 33024, Note_on_c, 12, 70, 110
10, 33024, Note_on_c, 12, 73, 110
10, 33744, Note_on_c, 12, 66, 0
10, 33744, Note_on_c, 12, 70, 0
10, 33744, Note_on_c, 12, 73, 0
10, 33792, Note_on_c, 12, 63, 110
10, 33792, Note_on_c, 12, 66, 110
10, 33792, Note_on_c, 12, 71, 110
10, 34512, Note_on_c, 12, 63, 0
10, 34512, Note_on_c, 12, 66, 0
10, 34512, Note_on_c, 12, 71, 0
10, 34560, Note_on_c, 12, 59, 110
10, 34560, Note_on_c, 12, 63, 110
10, 34560, Note_on_c, 12, 68, 110
10, 35280, Note_on_c, 12, 59, 0
10, 35280, Note_on_c, 12, 63, 0
10, 35280, Note_on_c, 12, 68, 0
10, 35328, Note_on_c, 12, 64, 110
10, 35328, Note_on_c, 12, 68, 110
10, 35328, Note_on_c, 12, 71, 110
10, 36048, Note_on_c, 12, 64, 0
10, 36048, Note_on_c, 12, 68, 0
10, 36048, Note_on_c, 12, 71, 0
10, 36096, Note_on_c, 12, 66, 110
10, 36096, Note_on_c, 12, 70, 110
10, 36096, Note_on_c, 12, 73, 110
10, 36816, Note_on_c, 12, 66, 0
10, 36816, Note_on_c, 12, 70, 0
10, 36816, Note_on_c, 12, 73, 0
10, 36864, Note_on_c, 12, 63, 110
10, 36864, Note_on_c, 12, 66, 110
10, 36864, Note_on_c, 12, 71, 110
10, 37584, Note_on_c, 12, 63, 0
10, 37584, Note_on_c, 12, 66, 0
10, 37584, Note_on_c, 12, 71, 0
10, 37632, Note_on_c, 12, 59, 110
10, 37632, Note_on_c, 12, 63, 110
10, 37632, Note_on_c, 12, 68, 110
10, 38352, Note_on_c, 12, 59, 0
10, 38352, Note_on_c, 12, 63, 0
10, 38352, Note_on_c, 12, 68, 0
10, 41472, Note_on_c, 12, 66, 110
10, 42960, Note_on_c, 12, 66, 0
10, 43008, Note_on_c, 12, 71, 110
10, 44496, Note_on_c, 12, 71, 0
10, 44544, Note_on_c, 12, 66, 110
10, 46032, Note_on_c, 12, 66, 0
10, 46080, Note_on_c, 12, 71, 110
10, 47568, Note_on_c, 12, 71, 0
10, 47616, Note_on_c, 12, 68, 110
10, 47952, Note_on_c, 12, 68, 0
10, 48000, Note_on_c, 12, 66, 110
10, 48336, Note_on_c, 12, 66, 0
10, 48384, Note_on_c, 12, 61, 110
10, 49104, Note_on_c, 12, 61, 0
10, 49152, Note_on_c, 12, 68, 110
10, 49488, Note_on_c, 12, 68, 0
10, 49536, Note_on_c, 12, 66, 110
10, 49872, Note_on_c, 12, 66, 0
10, 49920, Note_on_c, 12, 61, 110
10, 50640, Note_on_c, 12, 61, 0
10, 50688, Note_on_c, 12, 68, 110
10, 51024, Note_on_c, 12, 68, 0
10, 51072, Note_on_c, 12, 66, 110
10, 51408, Note_on_c, 12, 66, 0
10, 51456, Note_on_c, 12, 61, 110
10, 52176, Note_on_c, 12, 61, 0
10, 52224, Note_on_c, 12, 59, 110
10, 52944, Note_on_c, 12, 59, 0
10, 53760, Note_on_c, 12, 71, 110
10, 53854, Note_on_c, 12, 71, 0
10, 53856, Note_on_c, 12, 70, 110
10, 53950, Note_on_c, 12, 70, 0
10, 53952, Note_on_c, 12, 66, 110
10, 54046, Note_on_c, 12, 66, 0
10, 54048, Note_on_c, 12, 71, 110
10, 54142, Note_on_c, 12, 71, 0
10, 54144, Note_on_c, 12, 70, 110
10, 54238, Note_on_c, 12, 70, 0
10, 54240, Note_on_c, 12, 66, 110
10, 54334, Note_on_c, 12, 66, 0
10, 54336, Note_on_c, 12, 71, 110
10, 54430, Note_on_c, 12, 71, 0
10, 54432, Note_on_c, 12, 70, 110
10, 54526, Note_on_c, 12, 70, 0
10, 54528, Note_on_c, 12, 73, 110
10, 54622, Note_on_c, 12, 73, 0
10, 54624, Note_on_c, 12, 70, 110
10, 54718, Note_on_c, 12, 70, 0
10, 54720, Note_on_c, 12, 66, 110
10, 54814, Note_on_c, 12, 66, 0
10, 54816, Note_on_c, 12, 73, 110
10, 54910, Note_on_c, 12, 73, 0
10, 54912, Note_on_c, 12, 70, 110
10, 55006, Note_on_c, 12, 70, 0
10, 55008, Note_on_c, 12, 66, 110
10, 55102, Note_on_c, 12, 66, 0
10, 55104, Note_on_c, 12, 73, 110
10, 55198, Note_on_c, 12, 73, 0
10, 55200, Note_on_c, 12, 70, 110
10, 55294, Note_on_c, 12, 70, 0
10, 55296, Note_on_c, 12, 71, 110
10, 55390, Note_on_c, 12, 71, 0
10, 55392, Note_on_c, 12, 70, 110
10, 55486, Note_on_c, 12, 70, 0
10, 55488, Note_on_c, 12, 66, 110
10, 55582, Note_on_c, 12, 66, 0
10, 55584, Note_on_c, 12, 71, 110
10, 55678, Note_on_c, 12, 71, 0
10, 55680, Note_on_c, 12, 70, 110
10, 55774, Note_on_c, 12, 70, 0
10, 55776, Note_on_c, 12, 66, 110
10, 55870, Note_on_c, 12, 66, 0
10, 55872, Note_on_c, 12, 71, 110
10, 55966, Note_on_c, 12, 71, 0
10, 55968, Note_on_c, 12, 70, 110
10, 56062, Note_on_c, 12, 70, 0
10, 56064, Note_on_c, 12, 68, 110
10, 56158, Note_on_c, 12, 68, 0
10, 56160, Note_on_c, 12, 63, 110
10, 56254, Note_on_c, 12, 63, 0
10, 56256, Note_on_c, 12, 59, 110
10, 56350, Note_on_c, 12, 59, 0
10, 56352, Note_on_c, 12, 68, 110
10, 56446, Note_on_c, 12, 68, 0
10, 56448, Note_on_c, 12, 63, 110
10, 56542, Note_on_c, 12, 63, 0
10, 56544, Note_on_c, 12, 59, 110
10, 56638, Note_on_c, 12, 59, 0
10, 56640, Note_on_c, 12, 68, 110
10, 56734, Note_on_c, 12, 68, 0
10, 56736, Note_on_c, 12, 63, 110
10, 56830, Note_on_c, 12, 63, 0
10, 56832, Note_on_c, 12, 71, 110
10, 56926, Note_on_c, 12, 71, 0
10, 56928, Note_on_c, 12, 70, 110
10, 57022, Note_on_c, 12, 70, 0
10, 57024, Note_on_c, 12, 66, 110
10, 57118, Note_on_c, 12, 66, 0
10, 57120, Note_on_c, 12, 71, 110
10, 57214, Note_on_c, 12, 71, 0
10, 57216, Note_on_c, 12, 70, 110
10, 57310, Note_on_c, 12, 70, 0
10, 57312, Note_on_c, 12, 66, 110
10, 57406, Note_on_c, 12, 66, 0
10, 57408, Note_on_c, 12, 71, 110
10, 57502, Note_on_c, 12, 71, 0
10, 57504, Note_on_c, 12, 70, 110
10, 57598, Note_on_c, 12, 70, 0
10, 57600, Note_on_c, 12, 73, 110
10, 57694, Note_on_c, 12, 73, 0
10, 57696, Note_on_c, 12, 70, 110
10, 57790, Note_on_c, 12, 70, 0
10, 57792, Note_on_c, 12, 66, 110
10, 57886, Note_on_c, 12, 66, 0
10, 57888, Note_on_c, 12, 73, 110
10, 57982, Note_on_c, 12, 73, 0
10, 57984, Note_on_c, 12, 70, 110
10, 58078, Note_on_c, 12, 70, 0
10, 58080, Note_on_c, 12, 66, 110
10, 58174, Note_on_c, 12, 66, 0
10, 58176, Note_on_c, 12, 73, 110
10, 58270, Note_on_c, 12, 73, 0
10, 58272, Note_on_c, 12, 70, 110
10, 58366, Note_on_c, 12, 70, 0
10, 58368, Note_on_c, 12, 71, 110
10, 58462, Note_on_c, 12, 71, 0
10, 58464, Note_on_c, 12, 70, 110
10, 58558, Note_on_c, 12, 70, 0
10, 58560, Note_on_c, 12, 66, 110
10, 58654, Note_on_c, 12, 66, 0
10, 58656, Note_on_c, 12, 71, 110
10, 58750, Note_on_c, 12, 71, 0
10, 58752, Note_on_c, 12, 70, 110
10, 58846, Note_on_c, 12, 70, 0
10, 58848, Note_on_c, 12, 66, 110
10, 58942, Note_on_c, 12, 66, 0
10, 58944, Note_on_c, 12, 71, 110
10, 59038, Note_on_c, 12, 71, 0
10, 59040, Note_on_c, 12, 70, 110
10, 59134, Note_on_c, 12, 70, 0
10, 59136, Note_on_c, 12, 68, 110
10, 59230, Note_on_c, 12, 68, 0
10, 59232, Note_on_c, 12, 63, 110
10, 59326, Note_on_c, 12, 63, 0
10, 59328, Note_on_c, 12, 59, 110
10, 59422, Note_on_c, 12, 59, 0
10, 59424, Note_on_c, 12, 68, 110
10, 59518, Note_on_c, 12, 68, 0
10, 59520, Note_on_c, 12, 63, 110
10, 59614, Note_on_c, 12, 63, 0
10, 59616, Note_on_c, 12, 59, 110
10, 59710, Note_on_c, 12, 59, 0
10, 59712, Note_on_c, 12, 68, 110
10, 59806, Note_on_c, 12, 68, 0
10, 59808, Note_on_c, 12, 63, 110
10, 59902, Note_on_c, 12, 63, 0
10, 59904, Note_on_c, 12, 78, 110
10, 60046, Note_on_c, 12, 78, 0
10, 60048, Note_on_c, 12, 71, 110
10, 60190, Note_on_c, 12, 71, 0
10, 60192, Note_on_c, 12, 78, 110
10, 60382, Note_on_c, 12, 78, 0
10, 60384, Note_on_c, 12, 71, 110
10, 60574, Note_on_c, 12, 71, 0
10, 60576, Note_on_c, 12, 71, 110
10, 60670, Note_on_c, 12, 71, 0
10, 60672, Note_on_c, 12, 78, 110
10, 60814, Note_on_c, 12, 78, 0
10, 60816, Note_on_c, 12, 71, 110
10, 60958, Note_on_c, 12, 71, 0
10, 60960, Note_on_c, 12, 78, 110
10, 61150, Note_on_c, 12, 78, 0
10, 61152, Note_on_c, 12, 71, 110
10, 61342, Note_on_c, 12, 71, 0
10, 61344, Note_on_c, 12, 71, 110
10, 61438, Note_on_c, 12, 71, 0
10, 61440, Note_on_c, 12, 78, 110
10, 61582, Note_on_c, 12, 78, 0
10, 61584, Note_on_c, 12, 71, 110
10, 61726, Note_on_c, 12, 71, 0
10, 61728, Note_on_c, 12, 78, 110
10, 61918, Note_on_c, 12, 78, 0
10, 61920, Note_on_c, 12, 71, 110
10, 62110, Note_on_c, 12, 71, 0
10, 62112, Note_on_c, 12, 71, 110
10, 62206, Note_on_c, 12, 71, 0
10, 62208, Note_on_c, 12, 78, 110
10, 62350, Note_on_c, 12, 78, 0
10, 62352, Note_on_c, 12, 71, 110
10, 62494, Note_on_c, 12, 71, 0
10, 62496, Note_on_c, 12, 78, 110
10, 62686, Note_on_c, 12, 78, 0
10, 62688, Note_on_c, 12, 71, 110
10, 62878, Note_on_c, 12, 71, 0
10, 62880, Note_on_c, 12, 71, 110
10, 62974, Note_on_c, 12, 71, 0
10, 62976, Note_on_c, 12, 78, 110
10, 63118, Note_on_c, 12, 78, 0
10, 63120, Note_on_c, 12, 71, 110
10, 63262, Note_on_c, 12, 71, 0
10, 63264, Note_on_c, 12, 78, 110
10, 63454, Note_on_c, 12, 78, 0
10, 63456, Note_on_c, 12, 71, 110
10, 63646, Note_on_c, 12, 71, 0
10, 63648, Note_on_c, 12, 71, 110
10, 63742, Note_on_c, 12, 71, 0
10, 63744, Note_on_c, 12, 78, 110
10, 63886, Note_on_c, 12, 78, 0
10, 63888, Note_on_c, 12, 71, 110
10, 64030, Note_on_c, 12, 71, 0
10, 64032, Note_on_c, 12, 78, 110
10, 64222, Note_on_c, 12, 78, 0
10, 64224, Note_on_c, 12, 71, 110
10, 64414, Note_on_c, 12, 71, 0
10, 64416, Note_on_c, 12, 71, 110
10, 64510, Note_on_c, 12, 71, 0
10, 64512, Note_on_c, 12, 78, 110
10, 64654, Note_on_c, 12, 78, 0
10, 64656, Note_on_c, 12, 71, 110
10, 64798, Note_on_c, 12, 71, 0
10, 64800, Note_on_c, 12, 78, 110
10, 64990, Note_on_c, 12, 78, 0
10, 64992, Note_on_c, 12, 71, 110
10, 65182, Note_on_c, 12, 71, 0
10, 65184, Note_on_c, 12, 71, 110
10, 65278, Note_on_c, 12, 71, 0
10, 65280, Note_on_c, 12, 78, 110
10, 65422, Note_on_c, 12, 78, 0
10, 65424, Note_on_c, 12, 71, 110
10, 65566, Note_on_c, 12, 71, 0
10, 65568, Note_on_c, 12, 78, 110
10, 65758, Note_on_c, 12, 78, 0
10, 65760, Note_on_c, 12, 71, 110
10, 65950, Note_on_c, 12, 71, 0
10, 65952, Note_on_c, 12, 71, 110
10, 66046, Note_on_c, 12, 71, 0
10, 66048, Note_on_c, 12, 66, 110
10, 66768, Note_on_c, 12, 66, 0
10, 66816, Note_on_c, 12, 64, 110
10, 67072, Note_on_c, 12, 64, 0
10, 67104, Note_on_c, 12, 63, 110
10, 67360, Note_on_c, 12, 63, 0
10, 67392, Note_on_c, 12, 54, 110
10, 67552, Note_on_c, 12, 54, 0
10, 67584, Note_on_c, 12, 70, 110
10, 67678, Note_on_c, 12, 70, 0
10, 67680, Note_on_c, 12, 71, 110
10, 67870, Note_on_c, 12, 71, 0
10, 67872, Note_on_c, 12, 70, 110
10, 68128, Note_on_c, 12, 70, 0
10, 68160, Note_on_c, 12, 66, 110
10, 68320, Note_on_c, 12, 66, 0
10, 68352, Note_on_c, 12, 58, 110
10, 68688, Note_on_c, 12, 58, 0
10, 68736, Note_on_c, 12, 63, 110
10, 69072, Note_on_c, 12, 63, 0
10, 69120, Note_on_c, 12, 66, 110
10, 69840, Note_on_c, 12, 66, 0
10, 69888, Note_on_c, 12, 64, 110
10, 70144, Note_on_c, 12, 64, 0
10, 70176, Note_on_c, 12, 63, 110
10, 70432, Note_on_c, 12, 63, 0
10, 70464, Note_on_c, 12, 54, 110
10, 70624, Note_on_c, 12, 54, 0
10, 70656, Note_on_c, 12, 54, 110
10, 70992, Note_on_c, 12, 54, 0
10, 71040, Note_on_c, 12, 63, 110
10, 71376, Note_on_c, 12, 63, 0
10, 71424, Note_on_c, 12, 66, 110
10, 71424, Note_on_c, 12, 70, 110
10, 71760, Note_on_c, 12, 66, 0
10, 71760, Note_on_c, 12, 70, 0
10, 71808, Note_on_c, 12, 66, 110
10, 71808, Note_on_c, 12, 71, 110
10, 72144, Note_on_c, 12, 66, 0
10, 72144, Note_on_c, 12, 71, 0
10, 73728, Note_on_c, 12, 78, 110
10, 73870, Note_on_c, 12, 78, 0
10, 73872, Note_on_c, 12, 71, 110
10, 74014, Note_on_c, 12, 71, 0
10, 74016, Note_on_c, 12, 78, 110
10, 74206, Note_on_c, 12, 78, 0
10, 74208, Note_on_c, 12, 71, 110
10, 74398, Note_on_c, 12, 71, 0
10, 74400, Note_on_c, 12, 71, 110
10, 74494, Note_on_c, 12, 71, 0
10, 74496, Note_on_c, 12, 78, 110
10, 74638, Note_on_c, 12, 78, 0
10, 74640, Note_on_c, 12, 71, 110
10, 74782, Note_on_c, 12, 71, 0
10, 74784, Note_on_c, 12, 78, 110
10, 74974, Note_on_c, 12, 78, 0
10, 74976, Note_on_c, 12, 71, 110
10, 75166, Note_on_c, 12, 71, 0
10, 75168, Note_on_c, 12, 71, 110
10, 75262, Note_on_c, 12, 71, 0
10, 75264, Note_on_c, 12, 78, 110
10, 75406, Note_on_c, 12, 78, 0
10, 75408, Note_on_c, 12, 71, 110
10, 75550, Note_on_c, 12, 71, 0
10, 75552, Note_on_c, 12, 78, 110
10, 75742, Note_on_c, 12, 78, 0
10, 75744, Note_on_c, 12, 71, 110
10, 75934, Note_on_c, 12, 71, 0
10, 75936, Note_on_c, 12, 71, 110
10, 76030, Note_on_c, 12, 71, 0
10, 76032, Note_on_c, 12, 78, 110
10, 76174, Note_on_c, 12, 78, 0
10, 76176, Note_on_c, 12, 71, 110
10, 76318, Note_on_c, 12, 71, 0
10, 76320, Note_on_c, 12, 78, 110
10, 76510, Note_on_c, 12, 78, 0
10, 76512, Note_on_c, 12, 71, 110
10, 76702, Note_on_c, 12, 71, 0
10, 76704, Note_on_c, 12, 71, 110
10, 76798, Note_on_c, 12, 71, 0
10, 76800, Note_on_c, 12, 78, 110
10, 76942, Note_on_c, 12, 78, 0
10, 76944, Note_on_c, 12, 71, 110
10, 77086, Note_on_c, 12, 71, 0
10, 77088, Note_on_c, 12, 78, 110
10, 77278, Note_on_c, 12, 78, 0
10, 77280, Note_on_c, 12, 71, 110
10, 77470, Note_on_c, 12, 71, 0
10, 77472, Note_on_c, 12, 71, 110
10, 77566, Note_on_c, 12, 71, 0
10, 77568, Note_on_c, 12, 78, 110
10, 77710, Note_on_c, 12, 78, 0
10, 77712, Note_on_c, 12, 71, 110
10, 77854, Note_on_c, 12, 71, 0
10, 77856, Note_on_c, 12, 78, 110
10, 78046, Note_on_c, 12, 78, 0
10, 78048, Note_on_c, 12, 71, 110
10, 78238, Note_on_c, 12, 71, 0
10, 78240, Note_on_c, 12, 71, 110
10, 78334, Note_on_c, 12, 71, 0
10, 78336, Note_on_c, 12, 78, 110
10, 78478, Note_on_c, 12, 78, 0
10, 78480, Note_on_c, 12, 71, 110
10, 78622, Note_on_c, 12, 71, 0
10, 78624, Note_on_c, 12, 78, 110
10, 78814, Note_on_c, 12, 78, 0
10, 78816, Note_on_c, 12, 71, 110
10, 79006, Note_on_c, 12, 71, 0
10, 79008, Note_on_c, 12, 71, 110
10, 79102, Note_on_c, 12, 71, 0
10, 79104, Note_on_c, 12, 78, 110
10, 79246, Note_on_c, 12, 78, 0
10, 79248, Note_on_c, 12, 71, 110
10, 79390, Note_on_c, 12, 71, 0
10, 79392, Note_on_c, 12, 78, 110
10, 79582, Note_on_c, 12, 78, 0
10, 79584, Note_on_c, 12, 71, 110
10, 79774, Note_on_c, 12, 71, 0
10, 79776, Note_on_c, 12, 71, 110
10, 79870, Note_on_c, 12, 71, 0
10, 79872, Note_on_c, 12, 64, 110
10, 79872, Note_on_c, 12, 68, 110
10, 79872, Note_on_c, 12, 71, 110
10, 80592, Note_on_c, 12, 64, 0
10, 80592, Note_on_c, 12, 68, 0
10, 80592, Note_on_c, 12, 71, 0
10, 80640, Note_on_c, 12, 66, 110
10, 80640, Note_on_c, 12, 70, 110
10, 80640, Note_on_c, 12, 73, 110
10, 81360, Note_on_c, 12, 66, 0
10, 81360, Note_on_c, 12, 70, 0
10, 81360, Note_on_c, 12, 73, 0
10, 81408, Note_on_c, 12, 63, 110
10, 81408, Note_on_c, 12, 66, 110
10, 81408, Note_on_c, 12, 71, 110
10, 82128, Note_on_c, 12, 63, 0
10, 82128, Note_on_c, 12, 66, 0
10, 82128, Note_on_c, 12, 71, 0
10, 82176, Note_on_c, 12, 59, 110
10, 82176, Note_on_c, 12, 63, 110
10, 82176, Note_on_c, 12, 68, 110
10, 82896, Note_on_c, 12, 59, 0
10, 82896, Note_on_c, 12, 63, 0
10, 82896, Note_on_c, 12, 68, 0
10, 82944, Note_on_c, 12, 64, 110
10, 82944, Note_on_c, 12, 68, 110
10, 82944, Note_on_c, 12, 71, 110
10, 83664, Note_on_c, 12, 64, 0
10, 83664, Note_on_c, 12, 68, 0
10, 83664, Note_on_c, 12, 71, 0
10, 83712, Note_on_c, 12, 66, 110
10, 83712, Note_on_c, 12, 70, 110
10, 83712, Note_on_c, 12, 73, 110
10, 84432, Note_on_c, 12, 66, 0
10, 84432, Note_on_c, 12, 70, 0
10, 84432, Note_on_c, 12, 73, 0
10, 84480, Note_on_c, 12, 63, 110
10, 84480, Note_on_c, 12, 66, 110
10, 84480, Note_on_c, 12, 71, 110
10, 85200, Note_on_c, 12, 63, 0
10, 85200, Note_on_c, 12, 66, 0
10, 85200, Note_on_c, 12, 71, 0
10, 85248, Note_on_c, 12, 59, 110
10, 85248, Note_on_c, 12, 63, 110
10, 85248, Note_on_c, 12, 68, 110
10, 85968, Note_on_c, 12, 59, 0
10, 85968, Note_on_c, 12, 63, 0
10, 85968, Note_on_c, 12, 68, 0
10, 85968, End_track
11, 0, Start_track
11, 0, MIDI_port, 0
11, 0, Title_t, "Staff-10"
11, 0, Control_c, 12, 7, 127
11, 0, Control_c, 12, 10, 64
11, 19968, Note_on_c, 12, 52, 110
11, 19968, Note_on_c, 12, 56, 110
11, 19968, Note_on_c, 12, 59, 110
11, 20688, Note_on_c, 12, 52, 0
11, 20688, Note_on_c, 12, 56, 0
11, 20688, Note_on_c, 12, 59, 0
11, 20736, Note_on_c, 12, 54, 110
11, 20736, Note_on_c, 12, 58, 110
11, 20736, Note_on_c, 12, 61, 110
11, 21456, Note_on_c, 12, 54, 0
11, 21456, Note_on_c, 12, 58, 0
11, 21456, Note_on_c, 12, 61, 0
11, 21504, Note_on_c, 12, 47, 110
11, 21504, Note_on_c, 12, 51, 110
11, 21504, Note_on_c, 12, 54, 110
11, 22224, Note_on_c, 12, 47, 0
11, 22224, Note_on_c, 12, 51, 0
11, 22224, Note_on_c, 12, 54, 0
11, 22272, Note_on_c, 12, 44, 110
11, 22272, Note_on_c, 12, 47, 110
11, 22272, Note_on_c, 12, 51, 110
11, 22992, Note_on_c, 12, 44, 0
11, 22992, Note_on_c, 12, 47, 0
11, 22992, Note_on_c, 12, 51, 0
11, 23040, Note_on_c, 12, 52, 110
11, 23040, Note_on_c, 12, 56, 110
11, 23040, Note_on_c, 12, 59, 110
11, 23760, Note_on_c, 12, 52, 0
11, 23760, Note_on_c, 12, 56, 0
11, 23760, Note_on_c, 12, 59, 0
11, 23808, Note_on_c, 12, 54, 110
11, 23808, Note_on_c, 12, 58, 110
11, 23808, Note_on_c, 12, 61, 110
11, 24528, Note_on_c, 12, 54, 0
11, 24528, Note_on_c, 12, 58, 0
11, 24528, Note_on_c, 12, 61, 0
11, 24576, Note_on_c, 12, 47, 110
11, 24576, Note_on_c, 12, 51, 110
11, 24576, Note_on_c, 12, 54, 110
11, 25296, Note_on_c, 12, 47, 0
11, 25296, Note_on_c, 12, 51, 0
11, 25296, Note_on_c, 12, 54, 0
11, 25344, Note_on_c, 12, 44, 110
11, 25344, Note_on_c, 12, 47, 110
11, 25344, Note_on_c, 12, 51, 110
11, 26064, Note_on_c, 12, 44, 0
11, 26064, Note_on_c, 12, 47, 0
11, 26064, Note_on_c, 12, 51, 0
11, 26112, Note_on_c, 12, 52, 110
11, 26112, Note_on_c, 12, 56, 110
11, 26112, Note_on_c, 12, 59, 110
11, 26832, Note_on_c, 12, 52, 0
11, 26832, Note_on_c, 12, 56, 0
11, 26832, Note_on_c, 12, 59, 0
11, 26880, Note_on_c, 12, 54, 110
11, 26880, Note_on_c, 12, 58, 110
11, 26880, Note_on_c, 12, 61, 110
11, 27600, Note_on_c, 12, 54, 0
11, 27600, Note_on_c, 12, 58, 0
11, 27600, Note_on_c, 12, 61, 0
11, 27648, Note_on_c, 12, 47, 110
11, 27648, Note_on_c, 12, 51, 110
11, 27648, Note_on_c, 12, 54, 110
11, 28368, Note_on_c, 12, 47, 0
11, 28368, Note_on_c, 12, 51, 0
11, 28368, Note_on_c, 12, 54, 0
11, 28416, Note_on_c, 12, 44, 110
11, 28416, Note_on_c, 12, 47, 110
11, 28416, Note_on_c, 12, 51, 110
11, 29136, Note_on_c, 12, 44, 0
11, 29136, Note_on_c, 12, 47, 0
11, 29136, Note_on_c, 12, 51, 0
11, 29184, Note_on_c, 12, 52, 110
11, 29184, Note_on_c, 12, 56, 110
11, 29184, Note_on_c, 12, 59, 110
11, 29904, Note_on_c, 12, 52, 0
11, 29904, Note_on_c, 12, 56, 0
11, 29904, Note_on_c, 12, 59, 0
11, 29952, Note_on_c, 12, 54, 110
11, 29952, Note_on_c, 12, 58, 110
11, 29952, Note_on_c, 12, 61, 110
11, 30672, Note_on_c, 12, 54, 0
11, 30672, Note_on_c, 12, 58, 0
11, 30672, Note_on_c, 12, 61, 0
11, 30720, Note_on_c, 12, 47, 110
11, 30720, Note_on_c, 12, 51, 110
11, 30720, Note_on_c, 12, 54, 110
11, 31440, Note_on_c, 12, 47, 0
11, 31440, Note_on_c, 12, 51, 0
11, 31440, Note_on_c, 12, 54, 0
11, 31488, Note_on_c, 12, 44, 110
11, 31488, Note_on_c, 12, 47, 110
11, 31488, Note_on_c, 12, 51, 110
11, 32208, Note_on_c, 12, 44, 0
11, 32208, Note_on_c, 12, 47, 0
11, 32208, Note_on_c, 12, 51, 0
11, 53760, Note_on_c, 12, 52, 110
11, 53760, Note_on_c, 12, 56, 110
11, 53760, Note_on_c, 12, 59, 110
11, 54480, Note_on_c, 12, 52, 0
11, 54480, Note_on_c, 12, 56, 0
11, 54480, Note_on_c, 12, 59, 0
11, 54528, Note_on_c, 12, 54, 110
11, 54528, Note_on_c, 12, 58, 110
11, 54528, Note_on_c, 12, 61, 110
11, 55248, Note_on_c, 12, 54, 0
11, 55248, Note_on_c, 12, 58, 0
11, 55248, Note_on_c, 12, 61, 0
11, 55296, Note_on_c, 12, 47, 110
11, 55296, Note_on_c, 12, 51, 110
11, 55296, Note_on_c, 12, 54, 110
11, 56016, Note_on_c, 12, 47, 0
11, 56016, Note_on_c, 12, 51, 0
11, 56016, Note_on_c, 12, 54, 0
11, 56064, Note_on_c, 12, 44, 110
11, 56064, Note_on_c, 12, 47, 110
11, 56064, Note_on_c, 12, 51, 110
11, 56784, Note_on_c, 12, 44, 0
11, 56784, Note_on_c, 12, 47, 0
11, 56784, Note_on_c, 12, 51, 0
11, 56832, Note_on_c, 12, 52, 110
11, 56832, Note_on_c, 12, 56, 110
11, 56832, Note_on_c, 12, 59, 110
11, 57552, Note_on_c, 12, 52, 0
11, 57552, Note_on_c, 12, 56, 0
11, 57552, Note_on_c, 12, 59, 0
11, 57600, Note_on_c, 12, 54, 110
11, 57600, Note_on_c, 12, 58, 110
11, 57600, Note_on_c, 12, 61, 110
11, 58320, Note_on_c, 12, 54, 0
11, 58320, Note_on_c, 12, 58, 0
11, 58320, Note_on_c, 12, 61, 0
11, 58368, Note_on_c, 12, 47, 110
11, 58368, Note_on_c, 12, 51, 110
11, 58368, Note_on_c, 12, 54, 110
11, 59088, Note_on_c, 12, 47, 0
11, 59088, Note_on_c, 12, 51, 0
11, 59088, Note_on_c, 12, 54, 0
11, 59136, Note_on_c, 12, 44, 110
11, 59136, Note_on_c, 12, 47, 110
11, 59136, Note_on_c, 12, 51, 110
11, 59856, Note_on_c, 12, 44, 0
11, 59856, Note_on_c, 12, 47, 0
11, 59856, Note_on_c, 12, 51, 0
11, 59904, Note_on_c, 12, 52, 110
11, 59904, Note_on_c, 12, 56, 110
11, 59904, Note_on_c, 12, 59, 110
11, 60624, Note_on_c, 12, 52, 0
11, 60624, Note_on_c, 12, 56, 0
11, 60624, Note_on_c, 12, 59, 0
11, 60672, Note_on_c, 12, 54, 110
11, 60672, Note_on_c, 12, 58, 110
11, 60672, Note_on_c, 12, 61, 110
11, 61392, Note_on_c, 12, 54, 0
11, 61392, Note_on_c, 12, 58, 0
11, 61392, Note_on_c, 12, 61, 0
11, 61440, Note_on_c, 12, 47, 110
11, 61440, Note_on_c, 12, 51, 110
11, 61440, Note_on_c, 12, 54, 110
11, 62160, Note_on_c, 12, 47, 0
11, 62160, Note_on_c, 12, 51, 0
11, 62160, Note_on_c, 12, 54, 0
11, 62208, Note_on_c, 12, 44, 110
11, 62208, Note_on_c, 12, 47, 110
11, 62208, Note_on_c, 12, 51, 110
11, 62928, Note_on_c, 12, 44, 0
11, 62928, Note_on_c, 12, 47, 0
11, 62928, Note_on_c, 12, 51, 0
11, 62976, Note_on_c, 12, 52, 110
11, 62976, Note_on_c, 12, 56, 110
11, 62976, Note_on_c, 12, 59, 110
11, 63696, Note_on_c, 12, 52, 0
11, 63696, Note_on_c, 12, 56, 0
11, 63696, Note_on_c, 12, 59, 0
11, 63744, Note_on_c, 12, 54, 110
11, 63744, Note_on_c, 12, 58, 110
11, 63744, Note_on_c, 12, 61, 110
11, 64464, Note_on_c, 12, 54, 0
11, 64464, Note_on_c, 12, 58, 0
11, 64464, Note_on_c, 12, 61, 0
11, 64512, Note_on_c, 12, 47, 110
11, 64512, Note_on_c, 12, 51, 110
11, 64512, Note_on_c, 12, 54, 110
11, 65232, Note_on_c, 12, 47, 0
11, 65232, Note_on_c, 12, 51, 0
11, 65232, Note_on_c, 12, 54, 0
11, 65280, Note_on_c, 12, 44, 110
11, 65280, Note_on_c, 12, 47, 110
11, 65280, Note_on_c, 12, 51, 110
11, 66000, Note_on_c, 12, 44, 0
11, 66000, Note_on_c, 12, 47, 0
11, 66000, Note_on_c, 12, 51, 0
11, 66048, Note_on_c, 12, 52, 110
11, 66768, Note_on_c, 12, 52, 0
11, 66816, Note_on_c, 12, 54, 110
11, 67344, Note_on_c, 12, 54, 0
11, 67584, Note_on_c, 12, 39, 110
11, 67584, Note_on_c, 12, 51, 110
11, 68304, Note_on_c, 12, 39, 0
11, 68304, Note_on_c, 12, 51, 0
11, 68352, Note_on_c, 12, 54, 110
11, 69072, Note_on_c, 12, 54, 0
11, 69120, Note_on_c, 12, 52, 110
11, 69840, Note_on_c, 12, 52, 0
11, 69888, Note_on_c, 12, 54, 110
11, 70416, Note_on_c, 12, 54, 0
11, 73728, Note_on_c, 12, 52, 110
11, 73728, Note_on_c, 12, 56, 110
11, 73728, Note_on_c, 12, 59, 110
11, 74448, Note_on_c, 12, 52, 0
11, 74448, Note_on_c, 12, 56, 0
11, 74448, Note_on_c, 12, 59, 0
11, 74496, Note_on_c, 12, 54, 110
11, 74496, Note_on_c, 12, 58, 110
11, 74496, Note_on_c, 12, 61, 110
11, 75216, Note_on_c, 12, 54, 0
11, 75216, Note_on_c, 12, 58, 0
11, 75216, Note_on_c, 12, 61, 0
11, 75264, Note_on_c, 12, 47, 110
11, 75264, Note_on_c, 12, 51, 110
11, 75264, Note_on_c, 12, 54, 110
11, 75984, Note_on_c, 12, 47, 0
11, 75984, Note_on_c, 12, 51, 0
11, 75984, Note_on_c, 12, 54, 0
11, 76032, Note_on_c, 12, 44, 110
11, 76032, Note_on_c, 12, 47, 110
11, 76032, Note_on_c, 12, 51, 110
11, 76752, Note_on_c, 12, 44, 0
11, 76752, Note_on_c, 12, 47, 0
11, 76752, Note_on_c, 12, 51, 0
11, 76800, Note_on_c, 12, 52, 110
11, 76800, Note_on_c, 12, 56, 110
11, 76800, Note_on_c, 12, 59, 110
11, 77520, Note_on_c, 12, 52, 0
11, 77520, Note_on_c, 12, 56, 0
11, 77520, Note_on_c, 12, 59, 0
11, 77568, Note_on_c, 12, 54, 110
11, 77568, Note_on_c, 12, 58, 110
11, 77568, Note_on_c, 12, 61, 110
11, 78288, Note_on_c, 12, 54, 0
11, 78288, Note_on_c, 12, 58, 0
11, 78288, Note_on_c, 12, 61, 0
11, 78336, Note_on_c, 12, 47, 110
11, 78336, Note_on_c, 12, 51, 110
11, 78336, Note_on_c, 12, 54, 110
11, 79056, Note_on_c, 12, 47, 0
11, 79056, Note_on_c, 12, 51, 0
11, 79056, Note_on_c, 12, 54, 0
11, 79104, Note_on_c, 12, 44, 110
11, 79104, Note_on_c, 12, 47, 110
11, 79104, Note_on_c, 12, 51, 110
11, 79824, Note_on_c, 12, 44, 0
11, 79824, Note_on_c, 12, 47, 0
11, 79824, Note_on_c, 12, 51, 0
11, 79824, End_track
12, 0, Start_track
12, 0, MIDI_port, 0
12, 0, Title_t, "Staff-11"
12, 0, Control_c, 13, 7, 127
12, 0, Control_c, 13, 10, 64
12, 0, End_track
13, 0, Start_track
13, 0, MIDI_port, 0
13, 0, Title_t, "Staff-12"
13, 0, Control_c, 14, 7, 127
13, 0, Control_c, 14, 10, 64
13, 0, End_track
14, 0, Start_track
14, 0, MIDI_port, 0
14, 0, Title_t, "Staff-13"
14, 0, Program_c, 0, 38
14, 0, Pitch_bend_c, 0, 8192
14, 0, Control_c, 0, 7, 127
14, 0, Control_c, 0, 10, 64
14, 20160, Note_on_c, 0, 59, 110
14, 20320, Note_on_c, 0, 59, 0
14, 20352, Note_on_c, 0, 58, 110
14, 20446, Note_on_c, 0, 58, 0
14, 20448, Note_on_c, 0, 59, 110
14, 20638, Note_on_c, 0, 59, 0
14, 20640, Note_on_c, 0, 59, 110
14, 20734, Note_on_c, 0, 59, 0
14, 20832, Note_on_c, 0, 66, 110
14, 20926, Note_on_c, 0, 66, 0
14, 20928, Note_on_c, 0, 59, 110
14, 21022, Note_on_c, 0, 59, 0
14, 21024, Note_on_c, 0, 58, 110
14, 21214, Note_on_c, 0, 58, 0
14, 21216, Note_on_c, 0, 59, 110
14, 21472, Note_on_c, 0, 59, 0
14, 21696, Note_on_c, 0, 59, 110
14, 21790, Note_on_c, 0, 59, 0
14, 21792, Note_on_c, 0, 58, 110
14, 21982, Note_on_c, 0, 58, 0
14, 21984, Note_on_c, 0, 59, 110
14, 22174, Note_on_c, 0, 59, 0
14, 22176, Note_on_c, 0, 59, 110
14, 22270, Note_on_c, 0, 59, 0
14, 22272, Note_on_c, 0, 58, 110
14, 22366, Note_on_c, 0, 58, 0
14, 22368, Note_on_c, 0, 59, 110
14, 22462, Note_on_c, 0, 59, 0
14, 22464, Note_on_c, 0, 66, 110
14, 22558, Note_on_c, 0, 66, 0
14, 22560, Note_on_c, 0, 61, 110
14, 22750, Note_on_c, 0, 61, 0
14, 22752, Note_on_c, 0, 59, 110
14, 23008, Note_on_c, 0, 59, 0
14, 23232, Note_on_c, 0, 59, 110
14, 23392, Note_on_c, 0, 59, 0
14, 23424, Note_on_c, 0, 58, 110
14, 23518, Note_on_c, 0, 58, 0
14, 23520, Note_on_c, 0, 59, 110
14, 23710, Note_on_c, 0, 59, 0
14, 23712, Note_on_c, 0, 59, 110
14, 23806, Note_on_c, 0, 59, 0
14, 23904, Note_on_c, 0, 66, 110
14, 23998, Note_on_c, 0, 66, 0
14, 24000, Note_on_c, 0, 59, 110
14, 24094, Note_on_c, 0, 59, 0
14, 24096, Note_on_c, 0, 58, 110
14, 24286, Note_on_c, 0, 58, 0
14, 24288, Note_on_c, 0, 59, 110
14, 24544, Note_on_c, 0, 59, 0
14, 24576, Note_on_c, 0, 54, 110
14, 24576, Note_on_c, 0, 59, 110
14, 24736, Note_on_c, 0, 54, 0
14, 24736, Note_on_c, 0, 59, 0
14, 24768, Note_on_c, 0, 59, 110
14, 24862, Note_on_c, 0, 59, 0
14, 24864, Note_on_c, 0, 58, 110
14, 25054, Note_on_c, 0, 58, 0
14, 25056, Note_on_c, 0, 59, 110
14, 25246, Note_on_c, 0, 59, 0
14, 25248, Note_on_c, 0, 59, 110
14, 25342, Note_on_c, 0, 59, 0
14, 25344, Note_on_c, 0, 58, 110
14, 25438, Note_on_c, 0, 58, 0
14, 25440, Note_on_c, 0, 59, 110
14, 25534, Note_on_c, 0, 59, 0
14, 25536, Note_on_c, 0, 66, 110
14, 25630, Note_on_c, 0, 66, 0
14, 25632, Note_on_c, 0, 61, 110
14, 25822, Note_on_c, 0, 61, 0
14, 25824, Note_on_c, 0, 59, 110
14, 26080, Note_on_c, 0, 59, 0
14, 26304, Note_on_c, 0, 59, 110
14, 26464, Note_on_c, 0, 59, 0
14, 26496, Note_on_c, 0, 58, 110
14, 26590, Note_on_c, 0, 58, 0
14, 26592, Note_on_c, 0, 59, 110
14, 26782, Note_on_c, 0, 59, 0
14, 26784, Note_on_c, 0, 59, 110
14, 26878, Note_on_c, 0, 59, 0
14, 26976, Note_on_c, 0, 66, 110
14, 27070, Note_on_c, 0, 66, 0
14, 27072, Note_on_c, 0, 59, 110
14, 27166, Note_on_c, 0, 59, 0
14, 27168, Note_on_c, 0, 58, 110
14, 27358, Note_on_c, 0, 58, 0
14, 27360, Note_on_c, 0, 59, 110
14, 27616, Note_on_c, 0, 59, 0
14, 27840, Note_on_c, 0, 59, 110
14, 27934, Note_on_c, 0, 59, 0
14, 27936, Note_on_c, 0, 58, 110
14, 28126, Note_on_c, 0, 58, 0
14, 28128, Note_on_c, 0, 59, 110
14, 28318, Note_on_c, 0, 59, 0
14, 28320, Note_on_c, 0, 59, 110
14, 28414, Note_on_c, 0, 59, 0
14, 28416, Note_on_c, 0, 58, 110
14, 28510, Note_on_c, 0, 58, 0
14, 28512, Note_on_c, 0, 59, 110
14, 28606, Note_on_c, 0, 59, 0
14, 28608, Note_on_c, 0, 66, 110
14, 28702, Note_on_c, 0, 66, 0
14, 28704, Note_on_c, 0, 61, 110
14, 28894, Note_on_c, 0, 61, 0
14, 28896, Note_on_c, 0, 59, 110
14, 29152, Note_on_c, 0, 59, 0
14, 29376, Note_on_c, 0, 59, 110
14, 29536, Note_on_c, 0, 59, 0
14, 29568, Note_on_c, 0, 58, 110
14, 29662, Note_on_c, 0, 58, 0
14, 29664, Note_on_c, 0, 59, 110
14, 29854, Note_on_c, 0, 59, 0
14, 29856, Note_on_c, 0, 59, 110
14, 29950, Note_on_c, 0, 59, 0
14, 30048, Note_on_c, 0, 66, 110
14, 30142, Note_on_c, 0, 66, 0
14, 30144, Note_on_c, 0, 59, 110
14, 30238, Note_on_c, 0, 59, 0
14, 30240, Note_on_c, 0, 58, 110
14, 30430, Note_on_c, 0, 58, 0
14, 30432, Note_on_c, 0, 59, 110
14, 30688, Note_on_c, 0, 59, 0
14, 30720, Note_on_c, 0, 54, 110
14, 30720, Note_on_c, 0, 59, 110
14, 30880, Note_on_c, 0, 54, 0
14, 30880, Note_on_c, 0, 59, 0
14, 30912, Note_on_c, 0, 59, 110
14, 31006, Note_on_c, 0, 59, 0
14, 31008, Note_on_c, 0, 58, 110
14, 31198, Note_on_c, 0, 58, 0
14, 31200, Note_on_c, 0, 59, 110
14, 31390, Note_on_c, 0, 59, 0
14, 31392, Note_on_c, 0, 59, 110
14, 31486, Note_on_c, 0, 59, 0
14, 31488, Note_on_c, 0, 58, 110
14, 31582, Note_on_c, 0, 58, 0
14, 31584, Note_on_c, 0, 59, 110
14, 31678, Note_on_c, 0, 59, 0
14, 31680, Note_on_c, 0, 66, 110
14, 31774, Note_on_c, 0, 66, 0
14, 31776, Note_on_c, 0, 61, 110
14, 31966, Note_on_c, 0, 61, 0
14, 31968, Note_on_c, 0, 59, 110
14, 32224, Note_on_c, 0, 59, 0
14, 53952, Note_on_c, 0, 59, 110
14, 54112, Note_on_c, 0, 59, 0
14, 54144, Note_on_c, 0, 58, 110
14, 54238, Note_on_c, 0, 58, 0
14, 54240, Note_on_c, 0, 59, 110
14, 54430, Note_on_c, 0, 59, 0
14, 54432, Note_on_c, 0, 59, 110
14, 54526, Note_on_c, 0, 59, 0
14, 54624, Note_on_c, 0, 66, 110
14, 54718, Note_on_c, 0, 66, 0
14, 54720, Note_on_c, 0, 59, 110
14, 54814, Note_on_c, 0, 59, 0
14, 54816, Note_on_c, 0, 58, 110
14, 55006, Note_on_c, 0, 58, 0
14, 55008, Note_on_c, 0, 59, 110
14, 55264, Note_on_c, 0, 59, 0
14, 55488, Note_on_c, 0, 59, 110
14, 55582, Note_on_c, 0, 59, 0
14, 55584, Note_on_c, 0, 58, 110
14, 55774, Note_on_c, 0, 58, 0
14, 55776, Note_on_c, 0, 59, 110
14, 55966, Note_on_c, 0, 59, 0
14, 55968, Note_on_c, 0, 59, 110
14, 56062, Note_on_c, 0, 59, 0
14, 56064, Note_on_c, 0, 58, 110
14, 56158, Note_on_c, 0, 58, 0
14, 56160, Note_on_c, 0, 59, 110
14, 56254, Note_on_c, 0, 59, 0
14, 56256, Note_on_c, 0, 66, 110
14, 56350, Note_on_c, 0, 66, 0
14, 56352, Note_on_c, 0, 61, 110
14, 56542, Note_on_c, 0, 61, 0
14, 56544, Note_on_c, 0, 59, 110
14, 56800, Note_on_c, 0, 59, 0
14, 57024, Note_on_c, 0, 59, 110
14, 57184, Note_on_c, 0, 59, 0
14, 57216, Note_on_c, 0, 58, 110
14, 57310, Note_on_c, 0, 58, 0
14, 57312, Note_on_c, 0, 59, 110
14, 57502, Note_on_c, 0, 59, 0
14, 57504, Note_on_c, 0, 59, 110
14, 57598, Note_on_c, 0, 59, 0
14, 57696, Note_on_c, 0, 66, 110
14, 57790, Note_on_c, 0, 66, 0
14, 57792, Note_on_c, 0, 59, 110
14, 57886, Note_on_c, 0, 59, 0
14, 57888, Note_on_c, 0, 58, 110
14, 58078, Note_on_c, 0, 58, 0
14, 58080, Note_on_c, 0, 59, 110
14, 58336, Note_on_c, 0, 59, 0
14, 58368, Note_on_c, 0, 54, 110
14, 58368, Note_on_c, 0, 59, 110
14, 58528, Note_on_c, 0, 54, 0
14, 58528, Note_on_c, 0, 59, 0
14, 58560, Note_on_c, 0, 59, 110
14, 58654, Note_on_c, 0, 59, 0
14, 58656, Note_on_c, 0, 58, 110
14, 58846, Note_on_c, 0, 58, 0
14, 58848, Note_on_c, 0, 59, 110
14, 59038, Note_on_c, 0, 59, 0
14, 59040, Note_on_c, 0, 59, 110
14, 59134, Note_on_c, 0, 59, 0
14, 59136, Note_on_c, 0, 58, 110
14, 59230, Note_on_c, 0, 58, 0
14, 59232, Note_on_c, 0, 59, 110
14, 59326, Note_on_c, 0, 59, 0
14, 59328, Note_on_c, 0, 66, 110
14, 59422, Note_on_c, 0, 66, 0
14, 59424, Note_on_c, 0, 61, 110
14, 59614, Note_on_c, 0, 61, 0
14, 59616, Note_on_c, 0, 59, 110
14, 59872, Note_on_c, 0, 59, 0
14, 60096, Note_on_c, 0, 59, 110
14, 60256, Note_on_c, 0, 59, 0
14, 60288, Note_on_c, 0, 58, 110
14, 60382, Note_on_c, 0, 58, 0
14, 60384, Note_on_c, 0, 59, 110
14, 60574, Note_on_c, 0, 59, 0
14, 60576, Note_on_c, 0, 59, 110
14, 60670, Note_on_c, 0, 59, 0
14, 60768, Note_on_c, 0, 66, 110
14, 60862, Note_on_c, 0, 66, 0
14, 60864, Note_on_c, 0, 59, 110
14, 60958, Note_on_c, 0, 59, 0
14, 60960, Note_on_c, 0, 58, 110
14, 61150, Note_on_c, 0, 58, 0
14, 61152, Note_on_c, 0, 59, 110
14, 61408, Note_on_c, 0, 59, 0
14, 61632, Note_on_c, 0, 59, 110
14, 61726, Note_on_c, 0, 59, 0
14, 61728, Note_on_c, 0, 58, 110
14, 61918, Note_on_c, 0, 58, 0
14, 61920, Note_on_c, 0, 59, 110
14, 62110, Note_on_c, 0, 59, 0
14, 62112, Note_on_c, 0, 59, 110
14, 62206, Note_on_c, 0, 59, 0
14, 62208, Note_on_c, 0, 58, 110
14, 62302, Note_on_c, 0, 58, 0
14, 62304, Note_on_c, 0, 59, 110
14, 62398, Note_on_c, 0, 59, 0
14, 62400, Note_on_c, 0, 66, 110
14, 62494, Note_on_c, 0, 66, 0
14, 62496, Note_on_c, 0, 61, 110
14, 62686, Note_on_c, 0, 61, 0
14, 62688, Note_on_c, 0, 59, 110
14, 62944, Note_on_c, 0, 59, 0
14, 63168, Note_on_c, 0, 59, 110
14, 63328, Note_on_c, 0, 59, 0
14, 63360, Note_on_c, 0, 58, 110
14, 63454, Note_on_c, 0, 58, 0
14, 63456, Note_on_c, 0, 59, 110
14, 63646, Note_on_c, 0, 59, 0
14, 63648, Note_on_c, 0, 59, 110
14, 63742, Note_on_c, 0, 59, 0
14, 63840, Note_on_c, 0, 66, 110
14, 63934, Note_on_c, 0, 66, 0
14, 63936, Note_on_c, 0, 59, 110
14, 64030, Note_on_c, 0, 59, 0
14, 64032, Note_on_c, 0, 58, 110
14, 64222, Note_on_c, 0, 58, 0
14, 64224, Note_on_c, 0, 59, 110
14, 64480, Note_on_c, 0, 59, 0
14, 64512, Note_on_c, 0, 54, 110
14, 64512, Note_on_c, 0, 59, 110
14, 64672, Note_on_c, 0, 54, 0
14, 64672, Note_on_c, 0, 59, 0
14, 64704, Note_on_c, 0, 59, 110
14, 64798, Note_on_c, 0, 59, 0
14, 64800, Note_on_c, 0, 58, 110
14, 64990, Note_on_c, 0, 58, 0
14, 64992, Note_on_c, 0, 59, 110
14, 65182, Note_on_c, 0, 59, 0
14, 65184, Note_on_c, 0, 59, 110
14, 65278, Note_on_c, 0, 59, 0
14, 65280, Note_on_c, 0, 58, 110
14, 65374, Note_on_c, 0, 58, 0
14, 65376, Note_on_c, 0, 59, 110
14, 65470, Note_on_c, 0, 59, 0
14, 65472, Note_on_c, 0, 66, 110
14, 65566, Note_on_c, 0, 66, 0
14, 65568, Note_on_c, 0, 61, 110
14, 65758, Note_on_c, 0, 61, 0
14, 65760, Note_on_c, 0, 59, 110
14, 66016, Note_on_c, 0, 59, 0
14, 73920, Note_on_c, 0, 59, 110
14, 74080, Note_on_c, 0, 59, 0
14, 74112, Note_on_c, 0, 58, 110
14, 74206, Note_on_c, 0, 58, 0
14, 74208, Note_on_c, 0, 59, 110
14, 74398, Note_on_c, 0, 59, 0
14, 74400, Note_on_c, 0, 59, 110
14, 74494, Note_on_c, 0, 59, 0
14, 74592, Note_on_c, 0, 66, 110
14, 74686, Note_on_c, 0, 66, 0
14, 74688, Note_on_c, 0, 59, 110
14, 74782, Note_on_c, 0, 59, 0
14, 74784, Note_on_c, 0, 58, 110
14, 74974, Note_on_c, 0, 58, 0
14, 74976, Note_on_c, 0, 59, 110
14, 75232, Note_on_c, 0, 59, 0
14, 75456, Note_on_c, 0, 59, 110
14, 75550, Note_on_c, 0, 59, 0
14, 75552, Note_on_c, 0, 58, 110
14, 75742, Note_on_c, 0, 58, 0
14, 75744, Note_on_c, 0, 59, 110
14, 75934, Note_on_c, 0, 59, 0
14, 75936, Note_on_c, 0, 59, 110
14, 76030, Note_on_c, 0, 59, 0
14, 76032, Note_on_c, 0, 58, 110
14, 76126, Note_on_c, 0, 58, 0
14, 76128, Note_on_c, 0, 59, 110
14, 76222, Note_on_c, 0, 59, 0
14, 76224, Note_on_c, 0, 66, 110
14, 76318, Note_on_c, 0, 66, 0
14, 76320, Note_on_c, 0, 61, 110
14, 76510, Note_on_c, 0, 61, 0
14, 76512, Note_on_c, 0, 59, 110
14, 76768, Note_on_c, 0, 59, 0
14, 76992, Note_on_c, 0, 59, 110
14, 77152, Note_on_c, 0, 59, 0
14, 77184, Note_on_c, 0, 58, 110
14, 77278, Note_on_c, 0, 58, 0
14, 77280, Note_on_c, 0, 59, 110
14, 77470, Note_on_c, 0, 59, 0
14, 77472, Note_on_c, 0, 59, 110
14, 77566, Note_on_c, 0, 59, 0
14, 77664, Note_on_c, 0, 66, 110
14, 77758, Note_on_c, 0, 66, 0
14, 77760, Note_on_c, 0, 59, 110
14, 77854, Note_on_c, 0, 59, 0
14, 77856, Note_on_c, 0, 58, 110
14, 78046, Note_on_c, 0, 58, 0
14, 78048, Note_on_c, 0, 59, 110
14, 78304, Note_on_c, 0, 59, 0
14, 78336, Note_on_c, 0, 54, 110
14, 78336, Note_on_c, 0, 59, 110
14, 78496, Note_on_c, 0, 54, 0
14, 78496, Note_on_c, 0, 59, 0
14, 78528, Note_on_c, 0, 59, 110
14, 78622, Note_on_c, 0, 59, 0
14, 78624, Note_on_c, 0, 58, 110
14, 78814, Note_on_c, 0, 58, 0
14, 78816, Note_on_c, 0, 59, 110
14, 79006, Note_on_c, 0, 59, 0
14, 79008, Note_on_c, 0, 59, 110
14, 79102, Note_on_c, 0, 59, 0
14, 79104, Note_on_c, 0, 58, 110
14, 79198, Note_on_c, 0, 58, 0
14, 79200, Note_on_c, 0, 59, 110
14, 79294, Note_on_c, 0, 59, 0
14, 79296, Note_on_c, 0, 66, 110
14, 79390, Note_on_c, 0, 66, 0
14, 79392, Note_on_c, 0, 61, 110
14, 79582, Note_on_c, 0, 61, 0
14, 79584, Note_on_c, 0, 59, 110
14, 79840, Note_on_c, 0, 59, 0
14, 79840, End_track
15, 0, Start_track
15, 0, MIDI_port, 0
15, 0, Title_t, "Main Melody"
15, 0, Program_c, 9, 2
15, 0, Pitch_bend_c, 9, 8192
15, 0, Control_c, 9, 7, 127
15, 0, Control_c, 9, 10, 64
15, 1536, Note_on_c, 9, 36, 110
15, 1630, Note_on_c, 9, 36, 0
15, 1632, Note_on_c, 9, 47, 110
15, 1726, Note_on_c, 9, 47, 0
15, 1728, Note_on_c, 9, 36, 110
15, 1774, Note_on_c, 9, 36, 0
15, 1776, Note_on_c, 9, 47, 110
15, 1918, Note_on_c, 9, 47, 0
15, 1920, Note_on_c, 9, 36, 110
15, 1920, Note_on_c, 9, 47, 110
15, 2062, Note_on_c, 9, 36, 0
15, 2062, Note_on_c, 9, 47, 0
15, 2064, Note_on_c, 9, 45, 110
15, 2110, Note_on_c, 9, 45, 0
15, 2112, Note_on_c, 9, 36, 110
15, 2206, Note_on_c, 9, 36, 0
15, 2208, Note_on_c, 9, 41, 110
15, 2302, Note_on_c, 9, 41, 0
15, 2304, Note_on_c, 9, 36, 110
15, 2398, Note_on_c, 9, 36, 0
15, 2400, Note_on_c, 9, 50, 110
15, 2494, Note_on_c, 9, 50, 0
15, 2496, Note_on_c, 9, 36, 110
15, 2542, Note_on_c, 9, 36, 0
15, 2544, Note_on_c, 9, 47, 110
15, 2686, Note_on_c, 9, 47, 0
15, 2688, Note_on_c, 9, 36, 110
15, 2688, Note_on_c, 9, 47, 110
15, 2830, Note_on_c, 9, 36, 0
15, 2830, Note_on_c, 9, 47, 0
15, 2832, Note_on_c, 9, 45, 110
15, 2878, Note_on_c, 9, 45, 0
15, 2880, Note_on_c, 9, 36, 110
15, 2974, Note_on_c, 9, 36, 0
15, 2976, Note_on_c, 9, 41, 110
15, 3070, Note_on_c, 9, 41, 0
15, 3072, Note_on_c, 9, 36, 110
15, 3166, Note_on_c, 9, 36, 0
15, 3168, Note_on_c, 9, 47, 110
15, 3262, Note_on_c, 9, 47, 0
15, 3264, Note_on_c, 9, 36, 110
15, 3310, Note_on_c, 9, 36, 0
15, 3312, Note_on_c, 9, 47, 110
15, 3454, Note_on_c, 9, 47, 0
15, 3456, Note_on_c, 9, 36, 110
15, 3456, Note_on_c, 9, 47, 110
15, 3598, Note_on_c, 9, 36, 0
15, 3598, Note_on_c, 9, 47, 0
15, 3600, Note_on_c, 9, 45, 110
15, 3646, Note_on_c, 9, 45, 0
15, 3648, Note_on_c, 9, 36, 110
15, 3742, Note_on_c, 9, 36, 0
15, 3744, Note_on_c, 9, 41, 110
15, 3838, Note_on_c, 9, 41, 0
15, 3840, Note_on_c, 9, 36, 110
15, 3934, Note_on_c, 9, 36, 0
15, 3936, Note_on_c, 9, 50, 110
15, 4030, Note_on_c, 9, 50, 0
15, 4032, Note_on_c, 9, 36, 110
15, 4078, Note_on_c, 9, 36, 0
15, 4080, Note_on_c, 9, 47, 110
15, 4222, Note_on_c, 9, 47, 0
15, 4224, Note_on_c, 9, 36, 110
15, 4224, Note_on_c, 9, 47, 110
15, 4366, Note_on_c, 9, 36, 0
15, 4366, Note_on_c, 9, 47, 0
15, 4368, Note_on_c, 9, 45, 110
15, 4414, Note_on_c, 9, 45, 0
15, 4416, Note_on_c, 9, 36, 110
15, 4510, Note_on_c, 9, 36, 0
15, 4512, Note_on_c, 9, 41, 110
15, 4606, Note_on_c, 9, 41, 0
15, 4608, Note_on_c, 9, 36, 110
15, 4702, Note_on_c, 9, 36, 0
15, 4704, Note_on_c, 9, 47, 110
15, 4798, Note_on_c, 9, 47, 0
15, 4800, Note_on_c, 9, 36, 110
15, 4846, Note_on_c, 9, 36, 0
15, 4848, Note_on_c, 9, 47, 110
15, 4990, Note_on_c, 9, 47, 0
15, 4992, Note_on_c, 9, 36, 110
15, 4992, Note_on_c, 9, 47, 110
15, 5134, Note_on_c, 9, 36, 0
15, 5134, Note_on_c, 9, 47, 0
15, 5136, Note_on_c, 9, 45, 110
15, 5182, Note_on_c, 9, 45, 0
15, 5184, Note_on_c, 9, 36, 110
15, 5278, Note_on_c, 9, 36, 0
15, 5280, Note_on_c, 9, 41, 110
15, 5374, Note_on_c, 9, 41, 0
15, 5376, Note_on_c, 9, 36, 110
15, 5470, Note_on_c, 9, 36, 0
15, 5472, Note_on_c, 9, 50, 110
15, 5566, Note_on_c, 9, 50, 0
15, 5568, Note_on_c, 9, 36, 110
15, 5614, Note_on_c, 9, 36, 0
15, 5616, Note_on_c, 9, 47, 110
15, 5758, Note_on_c, 9, 47, 0
15, 5760, Note_on_c, 9, 36, 110
15, 5760, Note_on_c, 9, 47, 110
15, 5902, Note_on_c, 9, 36, 0
15, 5902, Note_on_c, 9, 47, 0
15, 5904, Note_on_c, 9, 45, 110
15, 5950, Note_on_c, 9, 45, 0
15, 5952, Note_on_c, 9, 36, 110
15, 6046, Note_on_c, 9, 36, 0
15, 6048, Note_on_c, 9, 41, 110
15, 6142, Note_on_c, 9, 41, 0
15, 6144, Note_on_c, 9, 36, 110
15, 6238, Note_on_c, 9, 36, 0
15, 6240, Note_on_c, 9, 47, 110
15, 6334, Note_on_c, 9, 47, 0
15, 6336, Note_on_c, 9, 36, 110
15, 6382, Note_on_c, 9, 36, 0
15, 6384, Note_on_c, 9, 47, 110
15, 6526, Note_on_c, 9, 47, 0
15, 6528, Note_on_c, 9, 36, 110
15, 6528, Note_on_c, 9, 47, 110
15, 6670, Note_on_c, 9, 36, 0
15, 6670, Note_on_c, 9, 47, 0
15, 6672, Note_on_c, 9, 45, 110
15, 6718, Note_on_c, 9, 45, 0
15, 6720, Note_on_c, 9, 36, 110
15, 6814, Note_on_c, 9, 36, 0
15, 6816, Note_on_c, 9, 41, 110
15, 6910, Note_on_c, 9, 41, 0
15, 6912, Note_on_c, 9, 36, 110
15, 7006, Note_on_c, 9, 36, 0
15, 7008, Note_on_c, 9, 50, 110
15, 7102, Note_on_c, 9, 50, 0
15, 7104, Note_on_c, 9, 36, 110
15, 7150, Note_on_c, 9, 36, 0
15, 7152, Note_on_c, 9, 47, 110
15, 7294, Note_on_c, 9, 47, 0
15, 7296, Note_on_c, 9, 36, 110
15, 7296, Note_on_c, 9, 47, 110
15, 7438, Note_on_c, 9, 36, 0
15, 7438, Note_on_c, 9, 47, 0
15, 7440, Note_on_c, 9, 45, 110
15, 7486, Note_on_c, 9, 45, 0
15, 7488, Note_on_c, 9, 36, 110
15, 7582, Note_on_c, 9, 36, 0
15, 7584, Note_on_c, 9, 41, 110
15, 7678, Note_on_c, 9, 41, 0
15, 7680, Note_on_c, 9, 36, 110
15, 7840, Note_on_c, 9, 36, 0
15, 7872, Note_on_c, 9, 36, 110
15, 8032, Note_on_c, 9, 36, 0
15, 8064, Note_on_c, 9, 36, 110
15, 8224, Note_on_c, 9, 36, 0
15, 8256, Note_on_c, 9, 36, 110
15, 8416, Note_on_c, 9, 36, 0
15, 8448, Note_on_c, 9, 36, 110
15, 8608, Note_on_c, 9, 36, 0
15, 8640, Note_on_c, 9, 36, 110
15, 8800, Note_on_c, 9, 36, 0
15, 8832, Note_on_c, 9, 36, 110
15, 8992, Note_on_c, 9, 36, 0
15, 9024, Note_on_c, 9, 36, 110
15, 9184, Note_on_c, 9, 36, 0
15, 9216, Note_on_c, 9, 36, 110
15, 9376, Note_on_c, 9, 36, 0
15, 9408, Note_on_c, 9, 36, 110
15, 9568, Note_on_c, 9, 36, 0
15, 9600, Note_on_c, 9, 36, 110
15, 9760, Note_on_c, 9, 36, 0
15, 9792, Note_on_c, 9, 36, 110
15, 9952, Note_on_c, 9, 36, 0
15, 9984, Note_on_c, 9, 36, 110
15, 10144, Note_on_c, 9, 36, 0
15, 10176, Note_on_c, 9, 36, 110
15, 10336, Note_on_c, 9, 36, 0
15, 10368, Note_on_c, 9, 36, 110
15, 10528, Note_on_c, 9, 36, 0
15, 10560, Note_on_c, 9, 36, 110
15, 10720, Note_on_c, 9, 36, 0
15, 10752, Note_on_c, 9, 36, 110
15, 10912, Note_on_c, 9, 36, 0
15, 10944, Note_on_c, 9, 36, 110
15, 11104, Note_on_c, 9, 36, 0
15, 11136, Note_on_c, 9, 36, 110
15, 11296, Note_on_c, 9, 36, 0
15, 11328, Note_on_c, 9, 36, 110
15, 11488, Note_on_c, 9, 36, 0
15, 11520, Note_on_c, 9, 36, 110
15, 11680, Note_on_c, 9, 36, 0
15, 11712, Note_on_c, 9, 36, 110
15, 11872, Note_on_c, 9, 36, 0
15, 11904, Note_on_c, 9, 36, 110
15, 12064, Note_on_c, 9, 36, 0
15, 12096, Note_on_c, 9, 36, 110
15, 12256, Note_on_c, 9, 36, 0
15, 12288, Note_on_c, 9, 36, 110
15, 12448, Note_on_c, 9, 36, 0
15, 12480, Note_on_c, 9, 36, 110
15, 12640, Note_on_c, 9, 36, 0
15, 12672, Note_on_c, 9, 36, 110
15, 12832, Note_on_c, 9, 36, 0
15, 12864, Note_on_c, 9, 36, 110
15, 13024, Note_on_c, 9, 36, 0
15, 13056, Note_on_c, 9, 36, 110
15, 13216, Note_on_c, 9, 36, 0
15, 13248, Note_on_c, 9, 36, 110
15, 13408, Note_on_c, 9, 36, 0
15, 13440, Note_on_c, 9, 36, 110
15, 13600, Note_on_c, 9, 36, 0
15, 13632, Note_on_c, 9, 36, 110
15, 13792, Note_on_c, 9, 36, 0
15, 13824, Note_on_c, 9, 36, 110
15, 13984, Note_on_c, 9, 36, 0
15, 14016, Note_on_c, 9, 37, 110
15, 14176, Note_on_c, 9, 37, 0
15, 14208, Note_on_c, 9, 36, 110
15, 14368, Note_on_c, 9, 36, 0
15, 14400, Note_on_c, 9, 37, 110
15, 14560, Note_on_c, 9, 37, 0
15, 14592, Note_on_c, 9, 36, 110
15, 14752, Note_on_c, 9, 36, 0
15, 14784, Note_on_c, 9, 37, 110
15, 14878, Note_on_c, 9, 37, 0
15, 14880, Note_on_c, 9, 36, 110
15, 14974, Note_on_c, 9, 36, 0
15, 14976, Note_on_c, 9, 36, 110
15, 15136, Note_on_c, 9, 36, 0
15, 15168, Note_on_c, 9, 37, 110
15, 15328, Note_on_c, 9, 37, 0
15, 15360, Note_on_c, 9, 36, 110
15, 15520, Note_on_c, 9, 36, 0
15, 15552, Note_on_c, 9, 37, 110
15, 15712, Note_on_c, 9, 37, 0
15, 15744, Note_on_c, 9, 36, 110
15, 15904, Note_on_c, 9, 36, 0
15, 15936, Note_on_c, 9, 37, 110
15, 16096, Note_on_c, 9, 37, 0
15, 16128, Note_on_c, 9, 36, 110
15, 16288, Note_on_c, 9, 36, 0
15, 16320, Note_on_c, 9, 37, 110
15, 16414, Note_on_c, 9, 37, 0
15, 16416, Note_on_c, 9, 36, 110
15, 16510, Note_on_c, 9, 36, 0
15, 16512, Note_on_c, 9, 36, 110
15, 16672, Note_on_c, 9, 36, 0
15, 16704, Note_on_c, 9, 37, 110
15, 16864, Note_on_c, 9, 37, 0
15, 16896, Note_on_c, 9, 36, 110
15, 17056, Note_on_c, 9, 36, 0
15, 17088, Note_on_c, 9, 37, 110
15, 17248, Note_on_c, 9, 37, 0
15, 17280, Note_on_c, 9, 36, 110
15, 17440, Note_on_c, 9, 36, 0
15, 17472, Note_on_c, 9, 37, 110
15, 17632, Note_on_c, 9, 37, 0
15, 17664, Note_on_c, 9, 36, 110
15, 17824, Note_on_c, 9, 36, 0
15, 17856, Note_on_c, 9, 37, 110
15, 17950, Note_on_c, 9, 37, 0
15, 17952, Note_on_c, 9, 36, 110
15, 18046, Note_on_c, 9, 36, 0
15, 18048, Note_on_c, 9, 36, 110
15, 18208, Note_on_c, 9, 36, 0
15, 18240, Note_on_c, 9, 37, 110
15, 18400, Note_on_c, 9, 37, 0
15, 18432, Note_on_c, 9, 36, 110
15, 18592, Note_on_c, 9, 36, 0
15, 18624, Note_on_c, 9, 37, 110
15, 18718, Note_on_c, 9, 37, 0
15, 18720, Note_on_c, 9, 36, 110
15, 18814, Note_on_c, 9, 36, 0
15, 18816, Note_on_c, 9, 36, 110
15, 18976, Note_on_c, 9, 36, 0
15, 19008, Note_on_c, 9, 37, 110
15, 19168, Note_on_c, 9, 37, 0
15, 19200, Note_on_c, 9, 36, 110
15, 19294, Note_on_c, 9, 36, 0
15, 19296, Note_on_c, 9, 36, 110
15, 19390, Note_on_c, 9, 36, 0
15, 19392, Note_on_c, 9, 36, 110
15, 19392, Note_on_c, 9, 41, 110
15, 19486, Note_on_c, 9, 36, 0
15, 19486, Note_on_c, 9, 41, 0
15, 19488, Note_on_c, 9, 41, 110
15, 19488, Note_on_c, 9, 47, 110
15, 19534, Note_on_c, 9, 41, 0
15, 19534, Note_on_c, 9, 47, 0
15, 19536, Note_on_c, 9, 41, 110
15, 19536, Note_on_c, 9, 47, 110
15, 19582, Note_on_c, 9, 41, 0
15, 19582, Note_on_c, 9, 47, 0
15, 19584, Note_on_c, 9, 45, 110
15, 19630, Note_on_c, 9, 45, 0
15, 19632, Note_on_c, 9, 45, 110
15, 19678, Note_on_c, 9, 45, 0
15, 19680, Note_on_c, 9, 36, 110
15, 19680, Note_on_c, 9, 50, 110
15, 19726, Note_on_c, 9, 36, 0
15, 19726, Note_on_c, 9, 50, 0
15, 19728, Note_on_c, 9, 50, 110
15, 19774, Note_on_c, 9, 50, 0
15, 19776, Note_on_c, 9, 36, 110
15, 19776, Note_on_c, 9, 38, 110
15, 19776, Note_on_c, 9, 47, 110
15, 19822, Note_on_c, 9, 36, 0
15, 19822, Note_on_c, 9, 38, 0
15, 19822, Note_on_c, 9, 47, 0
15, 19824, Note_on_c, 9, 45, 110
15, 19824, Note_on_c, 9, 47, 110
15, 19870, Note_on_c, 9, 45, 0
15, 19870, Note_on_c, 9, 47, 0
15, 19872, Note_on_c, 9, 38, 110
15, 19872, Note_on_c, 9, 41, 110
15, 19918, Note_on_c, 9, 38, 0
15, 19918, Note_on_c, 9, 41, 0
15, 19920, Note_on_c, 9, 38, 110
15, 19920, Note_on_c, 9, 41, 110
15, 19966, Note_on_c, 9, 38, 0
15, 19966, Note_on_c, 9, 41, 0
15, 19968, Note_on_c, 9, 36, 110
15, 20062, Note_on_c, 9, 36, 0
15, 20064, Note_on_c, 9, 46, 110
15, 20158, Note_on_c, 9, 46, 0
15, 20160, Note_on_c, 9, 36, 110
15, 20160, Note_on_c, 9, 38, 110
15, 20254, Note_on_c, 9, 36, 0
15, 20254, Note_on_c, 9, 38, 0
15, 20256, Note_on_c, 9, 46, 110
15, 20350, Note_on_c, 9, 46, 0
15, 20352, Note_on_c, 9, 36, 110
15, 20446, Note_on_c, 9, 36, 0
15, 20448, Note_on_c, 9, 46, 110
15, 20542, Note_on_c, 9, 46, 0
15, 20544, Note_on_c, 9, 36, 110
15, 20544, Note_on_c, 9, 38, 110
15, 20638, Note_on_c, 9, 36, 0
15, 20638, Note_on_c, 9, 38, 0
15, 20640, Note_on_c, 9, 46, 110
15, 20734, Note_on_c, 9, 46, 0
15, 20736, Note_on_c, 9, 36, 110
15, 20830, Note_on_c, 9, 36, 0
15, 20832, Note_on_c, 9, 46, 110
15, 20926, Note_on_c, 9, 46, 0
15, 20928, Note_on_c, 9, 36, 110
15, 20928, Note_on_c, 9, 38, 110
15, 21022, Note_on_c, 9, 36, 0
15, 21022, Note_on_c, 9, 38, 0
15, 21024, Note_on_c, 9, 46, 110
15, 21118, Note_on_c, 9, 46, 0
15, 21120, Note_on_c, 9, 36, 110
15, 21214, Note_on_c, 9, 36, 0
15, 21216, Note_on_c, 9, 46, 110
15, 21310, Note_on_c, 9, 46, 0
15, 21312, Note_on_c, 9, 36, 110
15, 21312, Note_on_c, 9, 38, 110
15, 21406, Note_on_c, 9, 36, 0
15, 21406, Note_on_c, 9, 38, 0
15, 21408, Note_on_c, 9, 46, 110
15, 21502, Note_on_c, 9, 46, 0
15, 21504, Note_on_c, 9, 36, 110
15, 21598, Note_on_c, 9, 36, 0
15, 21600, Note_on_c, 9, 46, 110
15, 21694, Note_on_c, 9, 46, 0
15, 21696, Note_on_c, 9, 36, 110
15, 21696, Note_on_c, 9, 38, 110
15, 21790, Note_on_c, 9, 36, 0
15, 21790, Note_on_c, 9, 38, 0
15, 21792, Note_on_c, 9, 46, 110
15, 21886, Note_on_c, 9, 46, 0
15, 21888, Note_on_c, 9, 36, 110
15, 21982, Note_on_c, 9, 36, 0
15, 21984, Note_on_c, 9, 46, 110
15, 22078, Note_on_c, 9, 46, 0
15, 22080, Note_on_c, 9, 36, 110
15, 22080, Note_on_c, 9, 38, 110
15, 22174, Note_on_c, 9, 36, 0
15, 22174, Note_on_c, 9, 38, 0
15, 22176, Note_on_c, 9, 46, 110
15, 22270, Note_on_c, 9, 46, 0
15, 22272, Note_on_c, 9, 36, 110
15, 22366, Note_on_c, 9, 36, 0
15, 22368, Note_on_c, 9, 46, 110
15, 22462, Note_on_c, 9, 46, 0
15, 22464, Note_on_c, 9, 36, 110
15, 22464, Note_on_c, 9, 38, 110
15, 22558, Note_on_c, 9, 36, 0
15, 22558, Note_on_c, 9, 38, 0
15, 22560, Note_on_c, 9, 46, 110
15, 22654, Note_on_c, 9, 46, 0
15, 22656, Note_on_c, 9, 36, 110
15, 22750, Note_on_c, 9, 36, 0
15, 22752, Note_on_c, 9, 46, 110
15, 22846, Note_on_c, 9, 46, 0
15, 22848, Note_on_c, 9, 36, 110
15, 22848, Note_on_c, 9, 38, 110
15, 22942, Note_on_c, 9, 36, 0
15, 22942, Note_on_c, 9, 38, 0
15, 22944, Note_on_c, 9, 46, 110
15, 23038, Note_on_c, 9, 46, 0
15, 23040, Note_on_c, 9, 36, 110
15, 23134, Note_on_c, 9, 36, 0
15, 23136, Note_on_c, 9, 46, 110
15, 23230, Note_on_c, 9, 46, 0
15, 23232, Note_on_c, 9, 36, 110
15, 23232, Note_on_c, 9, 38, 110
15, 23326, Note_on_c, 9, 36, 0
15, 23326, Note_on_c, 9, 38, 0
15, 23328, Note_on_c, 9, 46, 110
15, 23422, Note_on_c, 9, 46, 0
15, 23424, Note_on_c, 9, 36, 110
15, 23518, Note_on_c, 9, 36, 0
15, 23520, Note_on_c, 9, 46, 110
15, 23614, Note_on_c, 9, 46, 0
15, 23616, Note_on_c, 9, 36, 110
15, 23616, Note_on_c, 9, 38, 110
15, 23710, Note_on_c, 9, 36, 0
15, 23710, Note_on_c, 9, 38, 0
15, 23712, Note_on_c, 9, 46, 110
15, 23806, Note_on_c, 9, 46, 0
15, 23808, Note_on_c, 9, 36, 110
15, 23902, Note_on_c, 9, 36, 0
15, 23904, Note_on_c, 9, 46, 110
15, 23998, Note_on_c, 9, 46, 0
15, 24000, Note_on_c, 9, 36, 110
15, 24000, Note_on_c, 9, 38, 110
15, 24094, Note_on_c, 9, 36, 0
15, 24094, Note_on_c, 9, 38, 0
15, 24096, Note_on_c, 9, 46, 110
15, 24190, Note_on_c, 9, 46, 0
15, 24192, Note_on_c, 9, 36, 110
15, 24286, Note_on_c, 9, 36, 0
15, 24288, Note_on_c, 9, 46, 110
15, 24382, Note_on_c, 9, 46, 0
15, 24384, Note_on_c, 9, 36, 110
15, 24384, Note_on_c, 9, 38, 110
15, 24478, Note_on_c, 9, 36, 0
15, 24478, Note_on_c, 9, 38, 0
15, 24480, Note_on_c, 9, 46, 110
15, 24574, Note_on_c, 9, 46, 0
15, 24576, Note_on_c, 9, 36, 110
15, 24670, Note_on_c, 9, 36, 0
15, 24672, Note_on_c, 9, 46, 110
15, 24766, Note_on_c, 9, 46, 0
15, 24768, Note_on_c, 9, 36, 110
15, 24768, Note_on_c, 9, 38, 110
15, 24862, Note_on_c, 9, 36, 0
15, 24862, Note_on_c, 9, 38, 0
15, 24864, Note_on_c, 9, 46, 110
15, 24958, Note_on_c, 9, 46, 0
15, 24960, Note_on_c, 9, 36, 110
15, 25054, Note_on_c, 9, 36, 0
15, 25056, Note_on_c, 9, 46, 110
15, 25150, Note_on_c, 9, 46, 0
15, 25152, Note_on_c, 9, 36, 110
15, 25152, Note_on_c, 9, 38, 110
15, 25246, Note_on_c, 9, 36, 0
15, 25246, Note_on_c, 9, 38, 0
15, 25248, Note_on_c, 9, 46, 110
15, 25342, Note_on_c, 9, 46, 0
15, 25344, Note_on_c, 9, 36, 110
15, 25438, Note_on_c, 9, 36, 0
15, 25440, Note_on_c, 9, 46, 110
15, 25534, Note_on_c, 9, 46, 0
15, 25536, Note_on_c, 9, 36, 110
15, 25536, Note_on_c, 9, 38, 110
15, 25630, Note_on_c, 9, 36, 0
15, 25630, Note_on_c, 9, 38, 0
15, 25632, Note_on_c, 9, 46, 110
15, 25726, Note_on_c, 9, 46, 0
15, 25728, Note_on_c, 9, 36, 110
15, 25822, Note_on_c, 9, 36, 0
15, 25824, Note_on_c, 9, 46, 110
15, 25918, Note_on_c, 9, 46, 0
15, 25920, Note_on_c, 9, 36, 110
15, 25920, Note_on_c, 9, 38, 110
15, 25966, Note_on_c, 9, 36, 0
15, 25966, Note_on_c, 9, 38, 0
15, 25968, Note_on_c, 9, 38, 110
15, 26014, Note_on_c, 9, 38, 0
15, 26016, Note_on_c, 9, 38, 110
15, 26062, Note_on_c, 9, 38, 0
15, 26064, Note_on_c, 9, 38, 110
15, 26110, Note_on_c, 9, 38, 0
15, 26112, Note_on_c, 9, 36, 110
15, 26206, Note_on_c, 9, 36, 0
15, 26208, Note_on_c, 9, 46, 110
15, 26302, Note_on_c, 9, 46, 0
15, 26304, Note_on_c, 9, 36, 110
15, 26304, Note_on_c, 9, 38, 110
15, 26398, Note_on_c, 9, 36, 0
15, 26398, Note_on_c, 9, 38, 0
15, 26400, Note_on_c, 9, 46, 110
15, 26494, Note_on_c, 9, 46, 0
15, 26496, Note_on_c, 9, 36, 110
15, 26590, Note_on_c, 9, 36, 0
15, 26592, Note_on_c, 9, 46, 110
15, 26686, Note_on_c, 9, 46, 0
15, 26688, Note_on_c, 9, 36, 110
15, 26688, Note_on_c, 9, 38, 110
15, 26782, Note_on_c, 9, 36, 0
15, 26782, Note_on_c, 9, 38, 0
15, 26784, Note_on_c, 9, 46, 110
15, 26878, Note_on_c, 9, 46, 0
15, 26880, Note_on_c, 9, 36, 110
15, 26974, Note_on_c, 9, 36, 0
15, 26976, Note_on_c, 9, 46, 110
15, 27070, Note_on_c, 9, 46, 0
15, 27072, Note_on_c, 9, 36, 110
15, 27072, Note_on_c, 9, 38, 110
15, 27166, Note_on_c, 9, 36, 0
15, 27166, Note_on_c, 9, 38, 0
15, 27168, Note_on_c, 9, 46, 110
15, 27262, Note_on_c, 9, 46, 0
15, 27264, Note_on_c, 9, 36, 110
15, 27358, Note_on_c, 9, 36, 0
15, 27360, Note_on_c, 9, 46, 110
15, 27454, Note_on_c, 9, 46, 0
15, 27456, Note_on_c, 9, 36, 110
15, 27456, Note_on_c, 9, 38, 110
15, 27550, Note_on_c, 9, 36, 0
15, 27550, Note_on_c, 9, 38, 0
15, 27552, Note_on_c, 9, 46, 110
15, 27646, Note_on_c, 9, 46, 0
15, 27648, Note_on_c, 9, 36, 110
15, 27742, Note_on_c, 9, 36, 0
15, 27744, Note_on_c, 9, 46, 110
15, 27838, Note_on_c, 9, 46, 0
15, 27840, Note_on_c, 9, 36, 110
15, 27840, Note_on_c, 9, 38, 110
15, 27934, Note_on_c, 9, 36, 0
15, 27934, Note_on_c, 9, 38, 0
15, 27936, Note_on_c, 9, 46, 110
15, 28030, Note_on_c, 9, 46, 0
15, 28032, Note_on_c, 9, 36, 110
15, 28126, Note_on_c, 9, 36, 0
15, 28128, Note_on_c, 9, 46, 110
15, 28222, Note_on_c, 9, 46, 0
15, 28224, Note_on_c, 9, 36, 110
15, 28224, Note_on_c, 9, 38, 110
15, 28318, Note_on_c, 9, 36, 0
15, 28318, Note_on_c, 9, 38, 0
15, 28320, Note_on_c, 9, 46, 110
15, 28414, Note_on_c, 9, 46, 0
15, 28416, Note_on_c, 9, 36, 110
15, 28510, Note_on_c, 9, 36, 0
15, 28512, Note_on_c, 9, 46, 110
15, 28606, Note_on_c, 9, 46, 0
15, 28608, Note_on_c, 9, 36, 110
15, 28608, Note_on_c, 9, 38, 110
15, 28702, Note_on_c, 9, 36, 0
15, 28702, Note_on_c, 9, 38, 0
15, 28704, Note_on_c, 9, 46, 110
15, 28798, Note_on_c, 9, 46, 0
15, 28800, Note_on_c, 9, 36, 110
15, 28894, Note_on_c, 9, 36, 0
15, 28896, Note_on_c, 9, 46, 110
15, 28990, Note_on_c, 9, 46, 0
15, 28992, Note_on_c, 9, 36, 110
15, 28992, Note_on_c, 9, 38, 110
15, 29086, Note_on_c, 9, 36, 0
15, 29086, Note_on_c, 9, 38, 0
15, 29088, Note_on_c, 9, 46, 110
15, 29182, Note_on_c, 9, 46, 0
15, 29184, Note_on_c, 9, 36, 110
15, 29278, Note_on_c, 9, 36, 0
15, 29280, Note_on_c, 9, 46, 110
15, 29374, Note_on_c, 9, 46, 0
15, 29376, Note_on_c, 9, 36, 110
15, 29376, Note_on_c, 9, 38, 110
15, 29470, Note_on_c, 9, 36, 0
15, 29470, Note_on_c, 9, 38, 0
15, 29472, Note_on_c, 9, 46, 110
15, 29566, Note_on_c, 9, 46, 0
15, 29568, Note_on_c, 9, 36, 110
15, 29662, Note_on_c, 9, 36, 0
15, 29664, Note_on_c, 9, 46, 110
15, 29758, Note_on_c, 9, 46, 0
15, 29760, Note_on_c, 9, 36, 110
15, 29760, Note_on_c, 9, 38, 110
15, 29854, Note_on_c, 9, 36, 0
15, 29854, Note_on_c, 9, 38, 0
15, 29856, Note_on_c, 9, 46, 110
15, 29950, Note_on_c, 9, 46, 0
15, 29952, Note_on_c, 9, 36, 110
15, 30046, Note_on_c, 9, 36, 0
15, 30048, Note_on_c, 9, 46, 110
15, 30142, Note_on_c, 9, 46, 0
15, 30144, Note_on_c, 9, 36, 110
15, 30144, Note_on_c, 9, 38, 110
15, 30238, Note_on_c, 9, 36, 0
15, 30238, Note_on_c, 9, 38, 0
15, 30240, Note_on_c, 9, 46, 110
15, 30334, Note_on_c, 9, 46, 0
15, 30336, Note_on_c, 9, 36, 110
15, 30430, Note_on_c, 9, 36, 0
15, 30432, Note_on_c, 9, 46, 110
15, 30526, Note_on_c, 9, 46, 0
15, 30528, Note_on_c, 9, 36, 110
15, 30528, Note_on_c, 9, 38, 110
15, 30622, Note_on_c, 9, 36, 0
15, 30622, Note_on_c, 9, 38, 0
15, 30624, Note_on_c, 9, 46, 110
15, 30718, Note_on_c, 9, 46, 0
15, 30720, Note_on_c, 9, 36, 110
15, 30814, Note_on_c, 9, 36, 0
15, 30816, Note_on_c, 9, 46, 110
15, 30910, Note_on_c, 9, 46, 0
15, 30912, Note_on_c, 9, 36, 110
15, 30912, Note_on_c, 9, 38, 110
15, 31006, Note_on_c, 9, 36, 0
15, 31006, Note_on_c, 9, 38, 0
15, 31008, Note_on_c, 9, 46, 110
15, 31102, Note_on_c, 9, 46, 0
15, 31104, Note_on_c, 9, 36, 110
15, 31198, Note_on_c, 9, 36, 0
15, 31200, Note_on_c, 9, 46, 110
15, 31294, Note_on_c, 9, 46, 0
15, 31296, Note_on_c, 9, 36, 110
15, 31296, Note_on_c, 9, 38, 110
15, 31390, Note_on_c, 9, 36, 0
15, 31390, Note_on_c, 9, 38, 0
15, 31392, Note_on_c, 9, 46, 110
15, 31486, Note_on_c, 9, 46, 0
15, 31488, Note_on_c, 9, 36, 110
15, 31582, Note_on_c, 9, 36, 0
15, 31584, Note_on_c, 9, 46, 110
15, 31678, Note_on_c, 9, 46, 0
15, 31680, Note_on_c, 9, 36, 110
15, 31680, Note_on_c, 9, 38, 110
15, 31774, Note_on_c, 9, 36, 0
15, 31774, Note_on_c, 9, 38, 0
15, 31776, Note_on_c, 9, 46, 110
15, 31870, Note_on_c, 9, 46, 0
15, 31872, Note_on_c, 9, 36, 110
15, 31966, Note_on_c, 9, 36, 0
15, 31968, Note_on_c, 9, 46, 110
15, 32062, Note_on_c, 9, 46, 0
15, 32064, Note_on_c, 9, 36, 110
15, 32064, Note_on_c, 9, 38, 110
15, 32158, Note_on_c, 9, 36, 0
15, 32158, Note_on_c, 9, 38, 0
15, 32160, Note_on_c, 9, 46, 110
15, 32254, Note_on_c, 9, 46, 0
15, 32256, Note_on_c, 9, 36, 110
15, 32416, Note_on_c, 9, 36, 0
15, 32448, Note_on_c, 9, 36, 110
15, 32448, Note_on_c, 9, 38, 110
15, 32608, Note_on_c, 9, 36, 0
15, 32608, Note_on_c, 9, 38, 0
15, 32640, Note_on_c, 9, 36, 110
15, 32800, Note_on_c, 9, 36, 0
15, 32832, Note_on_c, 9, 36, 110
15, 32832, Note_on_c, 9, 38, 110
15, 32992, Note_on_c, 9, 36, 0
15, 32992, Note_on_c, 9, 38, 0
15, 33024, Note_on_c, 9, 36, 110
15, 33184, Note_on_c, 9, 36, 0
15, 33216, Note_on_c, 9, 36, 110
15, 33216, Note_on_c, 9, 38, 110
15, 33376, Note_on_c, 9, 36, 0
15, 33376, Note_on_c, 9, 38, 0
15, 33408, Note_on_c, 9, 36, 110
15, 33568, Note_on_c, 9, 36, 0
15, 33600, Note_on_c, 9, 36, 110
15, 33600, Note_on_c, 9, 38, 110
15, 33760, Note_on_c, 9, 36, 0
15, 33760, Note_on_c, 9, 38, 0
15, 33792, Note_on_c, 9, 36, 110
15, 33952, Note_on_c, 9, 36, 0
15, 33984, Note_on_c, 9, 36, 110
15, 33984, Note_on_c, 9, 38, 110
15, 34144, Note_on_c, 9, 36, 0
15, 34144, Note_on_c, 9, 38, 0
15, 34176, Note_on_c, 9, 36, 110
15, 34336, Note_on_c, 9, 36, 0
15, 34368, Note_on_c, 9, 36, 110
15, 34368, Note_on_c, 9, 38, 110
15, 34528, Note_on_c, 9, 36, 0
15, 34528, Note_on_c, 9, 38, 0
15, 34560, Note_on_c, 9, 36, 110
15, 34720, Note_on_c, 9, 36, 0
15, 34752, Note_on_c, 9, 36, 110
15, 34752, Note_on_c, 9, 38, 110
15, 34912, Note_on_c, 9, 36, 0
15, 34912, Note_on_c, 9, 38, 0
15, 34944, Note_on_c, 9, 36, 110
15, 35104, Note_on_c, 9, 36, 0
15, 35136, Note_on_c, 9, 36, 110
15, 35136, Note_on_c, 9, 38, 110
15, 35296, Note_on_c, 9, 36, 0
15, 35296, Note_on_c, 9, 38, 0
15, 35328, Note_on_c, 9, 36, 110
15, 35488, Note_on_c, 9, 36, 0
15, 35520, Note_on_c, 9, 36, 110
15, 35520, Note_on_c, 9, 38, 110
15, 35680, Note_on_c, 9, 36, 0
15, 35680, Note_on_c, 9, 38, 0
15, 35712, Note_on_c, 9, 36, 110
15, 35872, Note_on_c, 9, 36, 0
15, 35904, Note_on_c, 9, 36, 110
15, 35904, Note_on_c, 9, 38, 110
15, 36064, Note_on_c, 9, 36, 0
15, 36064, Note_on_c, 9, 38, 0
15, 36096, Note_on_c, 9, 36, 110
15, 36256, Note_on_c, 9, 36, 0
15, 36288, Note_on_c, 9, 36, 110
15, 36288, Note_on_c, 9, 38, 110
15, 36448, Note_on_c, 9, 36, 0
15, 36448, Note_on_c, 9, 38, 0
15, 36480, Note_on_c, 9, 36, 110
15, 36640, Note_on_c, 9, 36, 0
15, 36672, Note_on_c, 9, 36, 110
15, 36672, Note_on_c, 9, 38, 110
15, 36832, Note_on_c, 9, 36, 0
15, 36832, Note_on_c, 9, 38, 0
15, 36864, Note_on_c, 9, 36, 110
15, 37024, Note_on_c, 9, 36, 0
15, 37056, Note_on_c, 9, 36, 110
15, 37056, Note_on_c, 9, 38, 110
15, 37216, Note_on_c, 9, 36, 0
15, 37216, Note_on_c, 9, 38, 0
15, 37248, Note_on_c, 9, 36, 110
15, 37408, Note_on_c, 9, 36, 0
15, 37440, Note_on_c, 9, 36, 110
15, 37440, Note_on_c, 9, 38, 110
15, 37600, Note_on_c, 9, 36, 0
15, 37600, Note_on_c, 9, 38, 0
15, 37632, Note_on_c, 9, 36, 110
15, 37792, Note_on_c, 9, 36, 0
15, 37824, Note_on_c, 9, 36, 110
15, 37824, Note_on_c, 9, 38, 110
15, 37984, Note_on_c, 9, 36, 0
15, 37984, Note_on_c, 9, 38, 0
15, 38016, Note_on_c, 9, 36, 110
15, 38176, Note_on_c, 9, 36, 0
15, 38208, Note_on_c, 9, 36, 110
15, 38208, Note_on_c, 9, 38, 110
15, 38368, Note_on_c, 9, 36, 0
15, 38368, Note_on_c, 9, 38, 0
15, 38400, Note_on_c, 9, 36, 110
15, 38560, Note_on_c, 9, 36, 0
15, 38592, Note_on_c, 9, 36, 110
15, 38752, Note_on_c, 9, 36, 0
15, 38784, Note_on_c, 9, 36, 110
15, 38944, Note_on_c, 9, 36, 0
15, 38976, Note_on_c, 9, 36, 110
15, 39136, Note_on_c, 9, 36, 0
15, 39168, Note_on_c, 9, 36, 110
15, 39328, Note_on_c, 9, 36, 0
15, 39360, Note_on_c, 9, 36, 110
15, 39520, Note_on_c, 9, 36, 0
15, 39552, Note_on_c, 9, 36, 110
15, 39712, Note_on_c, 9, 36, 0
15, 39744, Note_on_c, 9, 36, 110
15, 39904, Note_on_c, 9, 36, 0
15, 39936, Note_on_c, 9, 36, 110
15, 40096, Note_on_c, 9, 36, 0
15, 40128, Note_on_c, 9, 36, 110
15, 40288, Note_on_c, 9, 36, 0
15, 40320, Note_on_c, 9, 36, 110
15, 40480, Note_on_c, 9, 36, 0
15, 40512, Note_on_c, 9, 36, 110
15, 40672, Note_on_c, 9, 36, 0
15, 40704, Note_on_c, 9, 36, 110
15, 40864, Note_on_c, 9, 36, 0
15, 40896, Note_on_c, 9, 36, 110
15, 41056, Note_on_c, 9, 36, 0
15, 41088, Note_on_c, 9, 36, 110
15, 41248, Note_on_c, 9, 36, 0
15, 41280, Note_on_c, 9, 37, 110
15, 41440, Note_on_c, 9, 37, 0
15, 41472, Note_on_c, 9, 36, 110
15, 41632, Note_on_c, 9, 36, 0
15, 41664, Note_on_c, 9, 36, 110
15, 41824, Note_on_c, 9, 36, 0
15, 41856, Note_on_c, 9, 36, 110
15, 42016, Note_on_c, 9, 36, 0
15, 42048, Note_on_c, 9, 36, 110
15, 42208, Note_on_c, 9, 36, 0
15, 42240, Note_on_c, 9, 36, 110
15, 42400, Note_on_c, 9, 36, 0
15, 42432, Note_on_c, 9, 36, 110
15, 42592, Note_on_c, 9, 36, 0
15, 42624, Note_on_c, 9, 36, 110
15, 42784, Note_on_c, 9, 36, 0
15, 42816, Note_on_c, 9, 36, 110
15, 42976, Note_on_c, 9, 36, 0
15, 43008, Note_on_c, 9, 36, 110
15, 43168, Note_on_c, 9, 36, 0
15, 43200, Note_on_c, 9, 36, 110
15, 43360, Note_on_c, 9, 36, 0
15, 43392, Note_on_c, 9, 36, 110
15, 43552, Note_on_c, 9, 36, 0
15, 43584, Note_on_c, 9, 36, 110
15, 43744, Note_on_c, 9, 36, 0
15, 43776, Note_on_c, 9, 36, 110
15, 43936, Note_on_c, 9, 36, 0
15, 43968, Note_on_c, 9, 36, 110
15, 44128, Note_on_c, 9, 36, 0
15, 44160, Note_on_c, 9, 36, 110
15, 44320, Note_on_c, 9, 36, 0
15, 44352, Note_on_c, 9, 36, 110
15, 44512, Note_on_c, 9, 36, 0
15, 44544, Note_on_c, 9, 36, 110
15, 44704, Note_on_c, 9, 36, 0
15, 44736, Note_on_c, 9, 36, 110
15, 44896, Note_on_c, 9, 36, 0
15, 44928, Note_on_c, 9, 36, 110
15, 45088, Note_on_c, 9, 36, 0
15, 45120, Note_on_c, 9, 36, 110
15, 45280, Note_on_c, 9, 36, 0
15, 45312, Note_on_c, 9, 36, 110
15, 45472, Note_on_c, 9, 36, 0
15, 45504, Note_on_c, 9, 36, 110
15, 45664, Note_on_c, 9, 36, 0
15, 45696, Note_on_c, 9, 36, 110
15, 45856, Note_on_c, 9, 36, 0
15, 45888, Note_on_c, 9, 36, 110
15, 46048, Note_on_c, 9, 36, 0
15, 46080, Note_on_c, 9, 36, 110
15, 46240, Note_on_c, 9, 36, 0
15, 46272, Note_on_c, 9, 36, 110
15, 46432, Note_on_c, 9, 36, 0
15, 46464, Note_on_c, 9, 36, 110
15, 46624, Note_on_c, 9, 36, 0
15, 46656, Note_on_c, 9, 36, 110
15, 46816, Note_on_c, 9, 36, 0
15, 46848, Note_on_c, 9, 36, 110
15, 47008, Note_on_c, 9, 36, 0
15, 47040, Note_on_c, 9, 36, 110
15, 47200, Note_on_c, 9, 36, 0
15, 47232, Note_on_c, 9, 36, 110
15, 47392, Note_on_c, 9, 36, 0
15, 47424, Note_on_c, 9, 36, 110
15, 47584, Note_on_c, 9, 36, 0
15, 47616, Note_on_c, 9, 36, 110
15, 47776, Note_on_c, 9, 36, 0
15, 47808, Note_on_c, 9, 37, 110
15, 47968, Note_on_c, 9, 37, 0
15, 48000, Note_on_c, 9, 36, 110
15, 48160, Note_on_c, 9, 36, 0
15, 48192, Note_on_c, 9, 37, 110
15, 48352, Note_on_c, 9, 37, 0
15, 48384, Note_on_c, 9, 36, 110
15, 48544, Note_on_c, 9, 36, 0
15, 48576, Note_on_c, 9, 37, 110
15, 48670, Note_on_c, 9, 37, 0
15, 48672, Note_on_c, 9, 36, 110
15, 48766, Note_on_c, 9, 36, 0
15, 48768, Note_on_c, 9, 36, 110
15, 48928, Note_on_c, 9, 36, 0
15, 48960, Note_on_c, 9, 37, 110
15, 49120, Note_on_c, 9, 37, 0
15, 49152, Note_on_c, 9, 36, 110
15, 49312, Note_on_c, 9, 36, 0
15, 49344, Note_on_c, 9, 37, 110
15, 49504, Note_on_c, 9, 37, 0
15, 49536, Note_on_c, 9, 36, 110
15, 49696, Note_on_c, 9, 36, 0
15, 49728, Note_on_c, 9, 37, 110
15, 49888, Note_on_c, 9, 37, 0
15, 49920, Note_on_c, 9, 36, 110
15, 50080, Note_on_c, 9, 36, 0
15, 50112, Note_on_c, 9, 37, 110
15, 50206, Note_on_c, 9, 37, 0
15, 50208, Note_on_c, 9, 36, 110
15, 50302, Note_on_c, 9, 36, 0
15, 50304, Note_on_c, 9, 36, 110
15, 50464, Note_on_c, 9, 36, 0
15, 50496, Note_on_c, 9, 37, 110
15, 50656, Note_on_c, 9, 37, 0
15, 50688, Note_on_c, 9, 36, 110
15, 50848, Note_on_c, 9, 36, 0
15, 50880, Note_on_c, 9, 37, 110
15, 51040, Note_on_c, 9, 37, 0
15, 51072, Note_on_c, 9, 36, 110
15, 51232, Note_on_c, 9, 36, 0
15, 51264, Note_on_c, 9, 37, 110
15, 51424, Note_on_c, 9, 37, 0
15, 51456, Note_on_c, 9, 36, 110
15, 51616, Note_on_c, 9, 36, 0
15, 51648, Note_on_c, 9, 37, 110
15, 51742, Note_on_c, 9, 37, 0
15, 51744, Note_on_c, 9, 36, 110
15, 51838, Note_on_c, 9, 36, 0
15, 51840, Note_on_c, 9, 36, 110
15, 52000, Note_on_c, 9, 36, 0
15, 52032, Note_on_c, 9, 37, 110
15, 52192, Note_on_c, 9, 37, 0
15, 52224, Note_on_c, 9, 36, 110
15, 52384, Note_on_c, 9, 36, 0
15, 52416, Note_on_c, 9, 37, 110
15, 52510, Note_on_c, 9, 37, 0
15, 52512, Note_on_c, 9, 36, 110
15, 52606, Note_on_c, 9, 36, 0
15, 52608, Note_on_c, 9, 36, 110
15, 52768, Note_on_c, 9, 36, 0
15, 52800, Note_on_c, 9, 37, 110
15, 52960, Note_on_c, 9, 37, 0
15, 52992, Note_on_c, 9, 36, 110
15, 53086, Note_on_c, 9, 36, 0
15, 53088, Note_on_c, 9, 36, 110
15, 53182, Note_on_c, 9, 36, 0
15, 53184, Note_on_c, 9, 36, 110
15, 53184, Note_on_c, 9, 41, 110
15, 53278, Note_on_c, 9, 36, 0
15, 53278, Note_on_c, 9, 41, 0
15, 53280, Note_on_c, 9, 41, 110
15, 53280, Note_on_c, 9, 47, 110
15, 53326, Note_on_c, 9, 41, 0
15, 53326, Note_on_c, 9, 47, 0
15, 53328, Note_on_c, 9, 41, 110
15, 53328, Note_on_c, 9, 47, 110
15, 53374, Note_on_c, 9, 41, 0
15, 53374, Note_on_c, 9, 47, 0
15, 53376, Note_on_c, 9, 45, 110
15, 53422, Note_on_c, 9, 45, 0
15, 53424, Note_on_c, 9, 45, 110
15, 53470, Note_on_c, 9, 45, 0
15, 53472, Note_on_c, 9, 36, 110
15, 53472, Note_on_c, 9, 50, 110
15, 53518, Note_on_c, 9, 36, 0
15, 53518, Note_on_c, 9, 50, 0
15, 53520, Note_on_c, 9, 50, 110
15, 53566, Note_on_c, 9, 50, 0
15, 53568, Note_on_c, 9, 36, 110
15, 53568, Note_on_c, 9, 38, 110
15, 53568, Note_on_c, 9, 47, 110
15, 53614, Note_on_c, 9, 36, 0
15, 53614, Note_on_c, 9, 38, 0
15, 53614, Note_on_c, 9, 47, 0
15, 53616, Note_on_c, 9, 45, 110
15, 53616, Note_on_c, 9, 47, 110
15, 53662, Note_on_c, 9, 45, 0
15, 53662, Note_on_c, 9, 47, 0
15, 53664, Note_on_c, 9, 38, 110
15, 53664, Note_on_c, 9, 41, 110
15, 53710, Note_on_c, 9, 38, 0
15, 53710, Note_on_c, 9, 41, 0
15, 53712, Note_on_c, 9, 38, 110
15, 53712, Note_on_c, 9, 41, 110
15, 53758, Note_on_c, 9, 38, 0
15, 53758, Note_on_c, 9, 41, 0
15, 53760, Note_on_c, 9, 36, 110
15, 53854, Note_on_c, 9, 36, 0
15, 53856, Note_on_c, 9, 46, 110
15, 53950, Note_on_c, 9, 46, 0
15, 53952, Note_on_c, 9, 36, 110
15, 53952, Note_on_c, 9, 38, 110
15, 54046, Note_on_c, 9, 36, 0
15, 54046, Note_on_c, 9, 38, 0
15, 54048, Note_on_c, 9, 46, 110
15, 54142, Note_on_c, 9, 46, 0
15, 54144, Note_on_c, 9, 36, 110
15, 54238, Note_on_c, 9, 36, 0
15, 54240, Note_on_c, 9, 46, 110
15, 54334, Note_on_c, 9, 46, 0
15, 54336, Note_on_c, 9, 36, 110
15, 54336, Note_on_c, 9, 38, 110
15, 54430, Note_on_c, 9, 36, 0
15, 54430, Note_on_c, 9, 38, 0
15, 54432, Note_on_c, 9, 46, 110
15, 54526, Note_on_c, 9, 46, 0
15, 54528, Note_on_c, 9, 36, 110
15, 54622, Note_on_c, 9, 36, 0
15, 54624, Note_on_c, 9, 46, 110
15, 54718, Note_on_c, 9, 46, 0
15, 54720, Note_on_c, 9, 36, 110
15, 54720, Note_on_c, 9, 38, 110
15, 54814, Note_on_c, 9, 36, 0
15, 54814, Note_on_c, 9, 38, 0
15, 54816, Note_on_c, 9, 46, 110
15, 54910, Note_on_c, 9, 46, 0
15, 54912, Note_on_c, 9, 36, 110
15, 55006, Note_on_c, 9, 36, 0
15, 55008, Note_on_c, 9, 46, 110
15, 55102, Note_on_c, 9, 46, 0
15, 55104, Note_on_c, 9, 36, 110
15, 55104, Note_on_c, 9, 38, 110
15, 55198, Note_on_c, 9, 36, 0
15, 55198, Note_on_c, 9, 38, 0
15, 55200, Note_on_c, 9, 46, 110
15, 55294, Note_on_c, 9, 46, 0
15, 55296, Note_on_c, 9, 36, 110
15, 55390, Note_on_c, 9, 36, 0
15, 55392, Note_on_c, 9, 46, 110
15, 55486, Note_on_c, 9, 46, 0
15, 55488, Note_on_c, 9, 36, 110
15, 55488, Note_on_c, 9, 38, 110
15, 55582, Note_on_c, 9, 36, 0
15, 55582, Note_on_c, 9, 38, 0
15, 55584, Note_on_c, 9, 46, 110
15, 55678, Note_on_c, 9, 46, 0
15, 55680, Note_on_c, 9, 36, 110
15, 55774, Note_on_c, 9, 36, 0
15, 55776, Note_on_c, 9, 46, 110
15, 55870, Note_on_c, 9, 46, 0
15, 55872, Note_on_c, 9, 36, 110
15, 55872, Note_on_c, 9, 38, 110
15, 55966, Note_on_c, 9, 36, 0
15, 55966, Note_on_c, 9, 38, 0
15, 55968, Note_on_c, 9, 46, 110
15, 56062, Note_on_c, 9, 46, 0
15, 56064, Note_on_c, 9, 36, 110
15, 56158, Note_on_c, 9, 36, 0
15, 56160, Note_on_c, 9, 46, 110
15, 56254, Note_on_c, 9, 46, 0
15, 56256, Note_on_c, 9, 36, 110
15, 56256, Note_on_c, 9, 38, 110
15, 56350, Note_on_c, 9, 36, 0
15, 56350, Note_on_c, 9, 38, 0
15, 56352, Note_on_c, 9, 46, 110
15, 56446, Note_on_c, 9, 46, 0
15, 56448, Note_on_c, 9, 36, 110
15, 56542, Note_on_c, 9, 36, 0
15, 56544, Note_on_c, 9, 46, 110
15, 56638, Note_on_c, 9, 46, 0
15, 56640, Note_on_c, 9, 36, 110
15, 56640, Note_on_c, 9, 38, 110
15, 56734, Note_on_c, 9, 36, 0
15, 56734, Note_on_c, 9, 38, 0
15, 56736, Note_on_c, 9, 46, 110
15, 56830, Note_on_c, 9, 46, 0
15, 56832, Note_on_c, 9, 36, 110
15, 56926, Note_on_c, 9, 36, 0
15, 56928, Note_on_c, 9, 46, 110
15, 57022, Note_on_c, 9, 46, 0
15, 57024, Note_on_c, 9, 36, 110
15, 57024, Note_on_c, 9, 38, 110
15, 57118, Note_on_c, 9, 36, 0
15, 57118, Note_on_c, 9, 38, 0
15, 57120, Note_on_c, 9, 46, 110
15, 57214, Note_on_c, 9, 46, 0
15, 57216, Note_on_c, 9, 36, 110
15, 57310, Note_on_c, 9, 36, 0
15, 57312, Note_on_c, 9, 46, 110
15, 57406, Note_on_c, 9, 46, 0
15, 57408, Note_on_c, 9, 36, 110
15, 57408, Note_on_c, 9, 38, 110
15, 57502, Note_on_c, 9, 36, 0
15, 57502, Note_on_c, 9, 38, 0
15, 57504, Note_on_c, 9, 46, 110
15, 57598, Note_on_c, 9, 46, 0
15, 57600, Note_on_c, 9, 36, 110
15, 57694, Note_on_c, 9, 36, 0
15, 57696, Note_on_c, 9, 46, 110
15, 57790, Note_on_c, 9, 46, 0
15, 57792, Note_on_c, 9, 36, 110
15, 57792, Note_on_c, 9, 38, 110
15, 57886, Note_on_c, 9, 36, 0
15, 57886, Note_on_c, 9, 38, 0
15, 57888, Note_on_c, 9, 46, 110
15, 57982, Note_on_c, 9, 46, 0
15, 57984, Note_on_c, 9, 36, 110
15, 58078, Note_on_c, 9, 36, 0
15, 58080, Note_on_c, 9, 46, 110
15, 58174, Note_on_c, 9, 46, 0
15, 58176, Note_on_c, 9, 36, 110
15, 58176, Note_on_c, 9, 38, 110
15, 58270, Note_on_c, 9, 36, 0
15, 58270, Note_on_c, 9, 38, 0
15, 58272, Note_on_c, 9, 46, 110
15, 58366, Note_on_c, 9, 46, 0
15, 58368, Note_on_c, 9, 36, 110
15, 58462, Note_on_c, 9, 36, 0
15, 58464, Note_on_c, 9, 46, 110
15, 58558, Note_on_c, 9, 46, 0
15, 58560, Note_on_c, 9, 36, 110
15, 58560, Note_on_c, 9, 38, 110
15, 58654, Note_on_c, 9, 36, 0
15, 58654, Note_on_c, 9, 38, 0
15, 58656, Note_on_c, 9, 46, 110
15, 58750, Note_on_c, 9, 46, 0
15, 58752, Note_on_c, 9, 36, 110
15, 58846, Note_on_c, 9, 36, 0
15, 58848, Note_on_c, 9, 46, 110
15, 58942, Note_on_c, 9, 46, 0
15, 58944, Note_on_c, 9, 36, 110
15, 58944, Note_on_c, 9, 38, 110
15, 59038, Note_on_c, 9, 36, 0
15, 59038, Note_on_c, 9, 38, 0
15, 59040, Note_on_c, 9, 46, 110
15, 59134, Note_on_c, 9, 46, 0
15, 59136, Note_on_c, 9, 36, 110
15, 59230, Note_on_c, 9, 36, 0
15, 59232, Note_on_c, 9, 46, 110
15, 59326, Note_on_c, 9, 46, 0
15, 59328, Note_on_c, 9, 36, 110
15, 59328, Note_on_c, 9, 38, 110
15, 59422, Note_on_c, 9, 36, 0
15, 59422, Note_on_c, 9, 38, 0
15, 59424, Note_on_c, 9, 46, 110
15, 59518, Note_on_c, 9, 46, 0
15, 59520, Note_on_c, 9, 36, 110
15, 59614, Note_on_c, 9, 36, 0
15, 59616, Note_on_c, 9, 46, 110
15, 59710, Note_on_c, 9, 46, 0
15, 59712, Note_on_c, 9, 36, 110
15, 59712, Note_on_c, 9, 38, 110
15, 59806, Note_on_c, 9, 36, 0
15, 59806, Note_on_c, 9, 38, 0
15, 59808, Note_on_c, 9, 46, 110
15, 59902, Note_on_c, 9, 46, 0
15, 59904, Note_on_c, 9, 36, 110
15, 59998, Note_on_c, 9, 36, 0
15, 60000, Note_on_c, 9, 46, 110
15, 60094, Note_on_c, 9, 46, 0
15, 60096, Note_on_c, 9, 36, 110
15, 60096, Note_on_c, 9, 38, 110
15, 60190, Note_on_c, 9, 36, 0
15, 60190, Note_on_c, 9, 38, 0
15, 60192, Note_on_c, 9, 46, 110
15, 60286, Note_on_c, 9, 46, 0
15, 60288, Note_on_c, 9, 36, 110
15, 60382, Note_on_c, 9, 36, 0
15, 60384, Note_on_c, 9, 46, 110
15, 60478, Note_on_c, 9, 46, 0
15, 60480, Note_on_c, 9, 36, 110
15, 60480, Note_on_c, 9, 38, 110
15, 60574, Note_on_c, 9, 36, 0
15, 60574, Note_on_c, 9, 38, 0
15, 60576, Note_on_c, 9, 46, 110
15, 60670, Note_on_c, 9, 46, 0
15, 60672, Note_on_c, 9, 36, 110
15, 60766, Note_on_c, 9, 36, 0
15, 60768, Note_on_c, 9, 46, 110
15, 60862, Note_on_c, 9, 46, 0
15, 60864, Note_on_c, 9, 36, 110
15, 60864, Note_on_c, 9, 38, 110
15, 60958, Note_on_c, 9, 36, 0
15, 60958, Note_on_c, 9, 38, 0
15, 60960, Note_on_c, 9, 46, 110
15, 61054, Note_on_c, 9, 46, 0
15, 61056, Note_on_c, 9, 36, 110
15, 61150, Note_on_c, 9, 36, 0
15, 61152, Note_on_c, 9, 46, 110
15, 61246, Note_on_c, 9, 46, 0
15, 61248, Note_on_c, 9, 36, 110
15, 61248, Note_on_c, 9, 38, 110
15, 61342, Note_on_c, 9, 36, 0
15, 61342, Note_on_c, 9, 38, 0
15, 61344, Note_on_c, 9, 46, 110
15, 61438, Note_on_c, 9, 46, 0
15, 61440, Note_on_c, 9, 36, 110
15, 61534, Note_on_c, 9, 36, 0
15, 61536, Note_on_c, 9, 46, 110
15, 61630, Note_on_c, 9, 46, 0
15, 61632, Note_on_c, 9, 36, 110
15, 61632, Note_on_c, 9, 38, 110
15, 61726, Note_on_c, 9, 36, 0
15, 61726, Note_on_c, 9, 38, 0
15, 61728, Note_on_c, 9, 46, 110
15, 61822, Note_on_c, 9, 46, 0
15, 61824, Note_on_c, 9, 36, 110
15, 61918, Note_on_c, 9, 36, 0
15, 61920, Note_on_c, 9, 46, 110
15, 62014, Note_on_c, 9, 46, 0
15, 62016, Note_on_c, 9, 36, 110
15, 62016, Note_on_c, 9, 38, 110
15, 62110, Note_on_c, 9, 36, 0
15, 62110, Note_on_c, 9, 38, 0
15, 62112, Note_on_c, 9, 46, 110
15, 62206, Note_on_c, 9, 46, 0
15, 62208, Note_on_c, 9, 36, 110
15, 62302, Note_on_c, 9, 36, 0
15, 62304, Note_on_c, 9, 46, 110
15, 62398, Note_on_c, 9, 46, 0
15, 62400, Note_on_c, 9, 36, 110
15, 62400, Note_on_c, 9, 38, 110
15, 62494, Note_on_c, 9, 36, 0
15, 62494, Note_on_c, 9, 38, 0
15, 62496, Note_on_c, 9, 46, 110
15, 62590, Note_on_c, 9, 46, 0
15, 62592, Note_on_c, 9, 36, 110
15, 62686, Note_on_c, 9, 36, 0
15, 62688, Note_on_c, 9, 46, 110
15, 62782, Note_on_c, 9, 46, 0
15, 62784, Note_on_c, 9, 36, 110
15, 62784, Note_on_c, 9, 38, 110
15, 62878, Note_on_c, 9, 36, 0
15, 62878, Note_on_c, 9, 38, 0
15, 62880, Note_on_c, 9, 46, 110
15, 62974, Note_on_c, 9, 46, 0
15, 62976, Note_on_c, 9, 36, 110
15, 63070, Note_on_c, 9, 36, 0
15, 63072, Note_on_c, 9, 46, 110
15, 63166, Note_on_c, 9, 46, 0
15, 63168, Note_on_c, 9, 36, 110
15, 63168, Note_on_c, 9, 38, 110
15, 63262, Note_on_c, 9, 36, 0
15, 63262, Note_on_c, 9, 38, 0
15, 63264, Note_on_c, 9, 46, 110
15, 63358, Note_on_c, 9, 46, 0
15, 63360, Note_on_c, 9, 36, 110
15, 63454, Note_on_c, 9, 36, 0
15, 63456, Note_on_c, 9, 46, 110
15, 63550, Note_on_c, 9, 46, 0
15, 63552, Note_on_c, 9, 36, 110
15, 63552, Note_on_c, 9, 38, 110
15, 63646, Note_on_c, 9, 36, 0
15, 63646, Note_on_c, 9, 38, 0
15, 63648, Note_on_c, 9, 46, 110
15, 63742, Note_on_c, 9, 46, 0
15, 63744, Note_on_c, 9, 36, 110
15, 63838, Note_on_c, 9, 36, 0
15, 63840, Note_on_c, 9, 46, 110
15, 63934, Note_on_c, 9, 46, 0
15, 63936, Note_on_c, 9, 36, 110
15, 63936, Note_on_c, 9, 38, 110
15, 64030, Note_on_c, 9, 36, 0
15, 64030, Note_on_c, 9, 38, 0
15, 64032, Note_on_c, 9, 46, 110
15, 64126, Note_on_c, 9, 46, 0
15, 64128, Note_on_c, 9, 36, 110
15, 64222, Note_on_c, 9, 36, 0
15, 64224, Note_on_c, 9, 46, 110
15, 64318, Note_on_c, 9, 46, 0
15, 64320, Note_on_c, 9, 36, 110
15, 64320, Note_on_c, 9, 38, 110
15, 64414, Note_on_c, 9, 36, 0
15, 64414, Note_on_c, 9, 38, 0
15, 64416, Note_on_c, 9, 46, 110
15, 64510, Note_on_c, 9, 46, 0
15, 64512, Note_on_c, 9, 36, 110
15, 64606, Note_on_c, 9, 36, 0
15, 64608, Note_on_c, 9, 46, 110
15, 64702, Note_on_c, 9, 46, 0
15, 64704, Note_on_c, 9, 36, 110
15, 64704, Note_on_c, 9, 38, 110
15, 64798, Note_on_c, 9, 36, 0
15, 64798, Note_on_c, 9, 38, 0
15, 64800, Note_on_c, 9, 46, 110
15, 64894, Note_on_c, 9, 46, 0
15, 64896, Note_on_c, 9, 36, 110
15, 64990, Note_on_c, 9, 36, 0
15, 64992, Note_on_c, 9, 46, 110
15, 65086, Note_on_c, 9, 46, 0
15, 65088, Note_on_c, 9, 36, 110
15, 65088, Note_on_c, 9, 38, 110
15, 65182, Note_on_c, 9, 36, 0
15, 65182, Note_on_c, 9, 38, 0
15, 65184, Note_on_c, 9, 46, 110
15, 65278, Note_on_c, 9, 46, 0
15, 65280, Note_on_c, 9, 36, 110
15, 65374, Note_on_c, 9, 36, 0
15, 65376, Note_on_c, 9, 46, 110
15, 65470, Note_on_c, 9, 46, 0
15, 65472, Note_on_c, 9, 36, 110
15, 65472, Note_on_c, 9, 38, 110
15, 65566, Note_on_c, 9, 36, 0
15, 65566, Note_on_c, 9, 38, 0
15, 65568, Note_on_c, 9, 46, 110
15, 65662, Note_on_c, 9, 46, 0
15, 65664, Note_on_c, 9, 36, 110
15, 65758, Note_on_c, 9, 36, 0
15, 65760, Note_on_c, 9, 46, 110
15, 65854, Note_on_c, 9, 46, 0
15, 65856, Note_on_c, 9, 36, 110
15, 65856, Note_on_c, 9, 38, 110
15, 65950, Note_on_c, 9, 36, 0
15, 65950, Note_on_c, 9, 38, 0
15, 65952, Note_on_c, 9, 46, 110
15, 66046, Note_on_c, 9, 46, 0
15, 66048, Note_on_c, 9, 36, 110
15, 66208, Note_on_c, 9, 36, 0
15, 66336, Note_on_c, 9, 36, 110
15, 66430, Note_on_c, 9, 36, 0
15, 66432, Note_on_c, 9, 38, 110
15, 66592, Note_on_c, 9, 38, 0
15, 66720, Note_on_c, 9, 36, 110
15, 66814, Note_on_c, 9, 36, 0
15, 66912, Note_on_c, 9, 36, 110
15, 67006, Note_on_c, 9, 36, 0
15, 67104, Note_on_c, 9, 36, 110
15, 67198, Note_on_c, 9, 36, 0
15, 67200, Note_on_c, 9, 38, 110
15, 67360, Note_on_c, 9, 38, 0
15, 67584, Note_on_c, 9, 36, 110
15, 67744, Note_on_c, 9, 36, 0
15, 67872, Note_on_c, 9, 36, 110
15, 67966, Note_on_c, 9, 36, 0
15, 67968, Note_on_c, 9, 38, 110
15, 68128, Note_on_c, 9, 38, 0
15, 68256, Note_on_c, 9, 36, 110
15, 68350, Note_on_c, 9, 36, 0
15, 68448, Note_on_c, 9, 36, 110
15, 68542, Note_on_c, 9, 36, 0
15, 68640, Note_on_c, 9, 36, 110
15, 68734, Note_on_c, 9, 36, 0
15, 68736, Note_on_c, 9, 38, 110
15, 68896, Note_on_c, 9, 38, 0
15, 69120, Note_on_c, 9, 36, 110
15, 69280, Note_on_c, 9, 36, 0
15, 69408, Note_on_c, 9, 36, 110
15, 69502, Note_on_c, 9, 36, 0
15, 69504, Note_on_c, 9, 38, 110
15, 69664, Note_on_c, 9, 38, 0
15, 69792, Note_on_c, 9, 36, 110
15, 69886, Note_on_c, 9, 36, 0
15, 69984, Note_on_c, 9, 36, 110
15, 70078, Note_on_c, 9, 36, 0
15, 70176, Note_on_c, 9, 36, 110
15, 70270, Note_on_c, 9, 36, 0
15, 70272, Note_on_c, 9, 38, 110
15, 70432, Note_on_c, 9, 38, 0
15, 70656, Note_on_c, 9, 36, 110
15, 70816, Note_on_c, 9, 36, 0
15, 70944, Note_on_c, 9, 36, 110
15, 71038, Note_on_c, 9, 36, 0
15, 71040, Note_on_c, 9, 38, 110
15, 71200, Note_on_c, 9, 38, 0
15, 71328, Note_on_c, 9, 36, 110
15, 71422, Note_on_c, 9, 36, 0
15, 71520, Note_on_c, 9, 36, 110
15, 71614, Note_on_c, 9, 36, 0
15, 71712, Note_on_c, 9, 36, 110
15, 71806, Note_on_c, 9, 36, 0
15, 71808, Note_on_c, 9, 38, 110
15, 71968, Note_on_c, 9, 38, 0
15, 72960, Note_on_c, 9, 38, 110
15, 73054, Note_on_c, 9, 38, 0
15, 73056, Note_on_c, 9, 38, 110
15, 73150, Note_on_c, 9, 38, 0
15, 73152, Note_on_c, 9, 38, 110
15, 73246, Note_on_c, 9, 38, 0
15, 73248, Note_on_c, 9, 38, 110
15, 73342, Note_on_c, 9, 38, 0
15, 73344, Note_on_c, 9, 38, 110
15, 73390, Note_on_c, 9, 38, 0
15, 73392, Note_on_c, 9, 38, 110
15, 73438, Note_on_c, 9, 38, 0
15, 73440, Note_on_c, 9, 38, 110
15, 73486, Note_on_c, 9, 38, 0
15, 73488, Note_on_c, 9, 38, 110
15, 73534, Note_on_c, 9, 38, 0
15, 73536, Note_on_c, 9, 38, 110
15, 73582, Note_on_c, 9, 38, 0
15, 73584, Note_on_c, 9, 38, 110
15, 73630, Note_on_c, 9, 38, 0
15, 73632, Note_on_c, 9, 38, 110
15, 73678, Note_on_c, 9, 38, 0
15, 73680, Note_on_c, 9, 38, 110
15, 73726, Note_on_c, 9, 38, 0
15, 73728, Note_on_c, 9, 36, 110
15, 73822, Note_on_c, 9, 36, 0
15, 73824, Note_on_c, 9, 46, 110
15, 73918, Note_on_c, 9, 46, 0
15, 73920, Note_on_c, 9, 36, 110
15, 73920, Note_on_c, 9, 38, 110
15, 74014, Note_on_c, 9, 36, 0
15, 74014, Note_on_c, 9, 38, 0
15, 74016, Note_on_c, 9, 46, 110
15, 74110, Note_on_c, 9, 46, 0
15, 74112, Note_on_c, 9, 36, 110
15, 74206, Note_on_c, 9, 36, 0
15, 74208, Note_on_c, 9, 46, 110
15, 74302, Note_on_c, 9, 46, 0
15, 74304, Note_on_c, 9, 36, 110
15, 74304, Note_on_c, 9, 38, 110
15, 74398, Note_on_c, 9, 36, 0
15, 74398, Note_on_c, 9, 38, 0
15, 74400, Note_on_c, 9, 46, 110
15, 74494, Note_on_c, 9, 46, 0
15, 74496, Note_on_c, 9, 36, 110
15, 74590, Note_on_c, 9, 36, 0
15, 74592, Note_on_c, 9, 46, 110
15, 74686, Note_on_c, 9, 46, 0
15, 74688, Note_on_c, 9, 36, 110
15, 74688, Note_on_c, 9, 38, 110
15, 74782, Note_on_c, 9, 36, 0
15, 74782, Note_on_c, 9, 38, 0
15, 74784, Note_on_c, 9, 46, 110
15, 74878, Note_on_c, 9, 46, 0
15, 74880, Note_on_c, 9, 36, 110
15, 74974, Note_on_c, 9, 36, 0
15, 74976, Note_on_c, 9, 46, 110
15, 75070, Note_on_c, 9, 46, 0
15, 75072, Note_on_c, 9, 36, 110
15, 75072, Note_on_c, 9, 38, 110
15, 75166, Note_on_c, 9, 36, 0
15, 75166, Note_on_c, 9, 38, 0
15, 75168, Note_on_c, 9, 46, 110
15, 75262, Note_on_c, 9, 46, 0
15, 75264, Note_on_c, 9, 36, 110
15, 75358, Note_on_c, 9, 36, 0
15, 75360, Note_on_c, 9, 46, 110
15, 75454, Note_on_c, 9, 46, 0
15, 75456, Note_on_c, 9, 36, 110
15, 75456, Note_on_c, 9, 38, 110
15, 75550, Note_on_c, 9, 36, 0
15, 75550, Note_on_c, 9, 38, 0
15, 75552, Note_on_c, 9, 46, 110
15, 75646, Note_on_c, 9, 46, 0
15, 75648, Note_on_c, 9, 36, 110
15, 75742, Note_on_c, 9, 36, 0
15, 75744, Note_on_c, 9, 46, 110
15, 75838, Note_on_c, 9, 46, 0
15, 75840, Note_on_c, 9, 36, 110
15, 75840, Note_on_c, 9, 38, 110
15, 75934, Note_on_c, 9, 36, 0
15, 75934, Note_on_c, 9, 38, 0
15, 75936, Note_on_c, 9, 46, 110
15, 76030, Note_on_c, 9, 46, 0
15, 76032, Note_on_c, 9, 36, 110
15, 76126, Note_on_c, 9, 36, 0
15, 76128, Note_on_c, 9, 46, 110
15, 76222, Note_on_c, 9, 46, 0
15, 76224, Note_on_c, 9, 36, 110
15, 76224, Note_on_c, 9, 38, 110
15, 76318, Note_on_c, 9, 36, 0
15, 76318, Note_on_c, 9, 38, 0
15, 76320, Note_on_c, 9, 46, 110
15, 76414, Note_on_c, 9, 46, 0
15, 76416, Note_on_c, 9, 36, 110
15, 76510, Note_on_c, 9, 36, 0
15, 76512, Note_on_c, 9, 46, 110
15, 76606, Note_on_c, 9, 46, 0
15, 76608, Note_on_c, 9, 36, 110
15, 76608, Note_on_c, 9, 38, 110
15, 76702, Note_on_c, 9, 36, 0
15, 76702, Note_on_c, 9, 38, 0
15, 76704, Note_on_c, 9, 46, 110
15, 76798, Note_on_c, 9, 46, 0
15, 76800, Note_on_c, 9, 36, 110
15, 76894, Note_on_c, 9, 36, 0
15, 76896, Note_on_c, 9, 46, 110
15, 76990, Note_on_c, 9, 46, 0
15, 76992, Note_on_c, 9, 36, 110
15, 76992, Note_on_c, 9, 38, 110
15, 77086, Note_on_c, 9, 36, 0
15, 77086, Note_on_c, 9, 38, 0
15, 77088, Note_on_c, 9, 46, 110
15, 77182, Note_on_c, 9, 46, 0
15, 77184, Note_on_c, 9, 36, 110
15, 77278, Note_on_c, 9, 36, 0
15, 77280, Note_on_c, 9, 46, 110
15, 77374, Note_on_c, 9, 46, 0
15, 77376, Note_on_c, 9, 36, 110
15, 77376, Note_on_c, 9, 38, 110
15, 77470, Note_on_c, 9, 36, 0
15, 77470, Note_on_c, 9, 38, 0
15, 77472, Note_on_c, 9, 46, 110
15, 77566, Note_on_c, 9, 46, 0
15, 77568, Note_on_c, 9, 36, 110
15, 77662, Note_on_c, 9, 36, 0
15, 77664, Note_on_c, 9, 46, 110
15, 77758, Note_on_c, 9, 46, 0
15, 77760, Note_on_c, 9, 36, 110
15, 77760, Note_on_c, 9, 38, 110
15, 77854, Note_on_c, 9, 36, 0
15, 77854, Note_on_c, 9, 38, 0
15, 77856, Note_on_c, 9, 46, 110
15, 77950, Note_on_c, 9, 46, 0
15, 77952, Note_on_c, 9, 36, 110
15, 78046, Note_on_c, 9, 36, 0
15, 78048, Note_on_c, 9, 46, 110
15, 78142, Note_on_c, 9, 46, 0
15, 78144, Note_on_c, 9, 36, 110
15, 78144, Note_on_c, 9, 38, 110
15, 78238, Note_on_c, 9, 36, 0
15, 78238, Note_on_c, 9, 38, 0
15, 78240, Note_on_c, 9, 46, 110
15, 78334, Note_on_c, 9, 46, 0
15, 78336, Note_on_c, 9, 36, 110
15, 78430, Note_on_c, 9, 36, 0
15, 78432, Note_on_c, 9, 46, 110
15, 78526, Note_on_c, 9, 46, 0
15, 78528, Note_on_c, 9, 36, 110
15, 78528, Note_on_c, 9, 38, 110
15, 78622, Note_on_c, 9, 36, 0
15, 78622, Note_on_c, 9, 38, 0
15, 78624, Note_on_c, 9, 46, 110
15, 78718, Note_on_c, 9, 46, 0
15, 78720, Note_on_c, 9, 36, 110
15, 78814, Note_on_c, 9, 36, 0
15, 78816, Note_on_c, 9, 46, 110
15, 78910, Note_on_c, 9, 46, 0
15, 78912, Note_on_c, 9, 36, 110
15, 78912, Note_on_c, 9, 38, 110
15, 79006, Note_on_c, 9, 36, 0
15, 79006, Note_on_c, 9, 38, 0
15, 79008, Note_on_c, 9, 46, 110
15, 79102, Note_on_c, 9, 46, 0
15, 79104, Note_on_c, 9, 36, 110
15, 79150, Note_on_c, 9, 36, 0
15, 79152, Note_on_c, 9, 36, 110
15, 79198, Note_on_c, 9, 36, 0
15, 79200, Note_on_c, 9, 38, 110
15, 79200, Note_on_c, 9, 49, 110
15, 79246, Note_on_c, 9, 38, 0
15, 79246, Note_on_c, 9, 49, 0
15, 79248, Note_on_c, 9, 36, 110
15, 79294, Note_on_c, 9, 36, 0
15, 79296, Note_on_c, 9, 41, 110
15, 79342, Note_on_c, 9, 41, 0
15, 79344, Note_on_c, 9, 47, 110
15, 79438, Note_on_c, 9, 47, 0
15, 79440, Note_on_c, 9, 36, 110
15, 79486, Note_on_c, 9, 36, 0
15, 79488, Note_on_c, 9, 38, 110
15, 79488, Note_on_c, 9, 49, 110
15, 79534, Note_on_c, 9, 38, 0
15, 79534, Note_on_c, 9, 49, 0
15, 79536, Note_on_c, 9, 36, 110
15, 79630, Note_on_c, 9, 36, 0
15, 79632, Note_on_c, 9, 45, 110
15, 79678, Note_on_c, 9, 45, 0
15, 79680, Note_on_c, 9, 47, 110
15, 79726, Note_on_c, 9, 47, 0
15, 79728, Note_on_c, 9, 43, 110
15, 79774, Note_on_c, 9, 43, 0
15, 79776, Note_on_c, 9, 43, 110
15, 79822, Note_on_c, 9, 43, 0
15, 79824, Note_on_c, 9, 36, 110
15, 79870, Note_on_c, 9, 36, 0
15, 79872, Note_on_c, 9, 36, 110
15, 80032, Note_on_c, 9, 36, 0
15, 80064, Note_on_c, 9, 36, 110
15, 80064, Note_on_c, 9, 38, 110
15, 80224, Note_on_c, 9, 36, 0
15, 80224, Note_on_c, 9, 38, 0
15, 80256, Note_on_c, 9, 36, 110
15, 80416, Note_on_c, 9, 36, 0
15, 80448, Note_on_c, 9, 36, 110
15, 80448, Note_on_c, 9, 38, 110
15, 80608, Note_on_c, 9, 36, 0
15, 80608, Note_on_c, 9, 38, 0
15, 80640, Note_on_c, 9, 36, 110
15, 80800, Note_on_c, 9, 36, 0
15, 80832, Note_on_c, 9, 36, 110
15, 80832, Note_on_c, 9, 38, 110
15, 80992, Note_on_c, 9, 36, 0
15, 80992, Note_on_c, 9, 38, 0
15, 81024, Note_on_c, 9, 36, 110
15, 81184, Note_on_c, 9, 36, 0
15, 81216, Note_on_c, 9, 36, 110
15, 81216, Note_on_c, 9, 38, 110
15, 81376, Note_on_c, 9, 36, 0
15, 81376, Note_on_c, 9, 38, 0
15, 81408, Note_on_c, 9, 36, 110
15, 81568, Note_on_c, 9, 36, 0
15, 81600, Note_on_c, 9, 36, 110
15, 81600, Note_on_c, 9, 38, 110
15, 81760, Note_on_c, 9, 36, 0
15, 81760, Note_on_c, 9, 38, 0
15, 81792, Note_on_c, 9, 36, 110
15, 81952, Note_on_c, 9, 36, 0
15, 81984, Note_on_c, 9, 36, 110
15, 81984, Note_on_c, 9, 38, 110
15, 82144, Note_on_c, 9, 36, 0
15, 82144, Note_on_c, 9, 38, 0
15, 82176, Note_on_c, 9, 36, 110
15, 82336, Note_on_c, 9, 36, 0
15, 82368, Note_on_c, 9, 36, 110
15, 82368, Note_on_c, 9, 38, 110
15, 82528, Note_on_c, 9, 36, 0
15, 82528, Note_on_c, 9, 38, 0
15, 82560, Note_on_c, 9, 36, 110
15, 82720, Note_on_c, 9, 36, 0
15, 82752, Note_on_c, 9, 36, 110
15, 82752, Note_on_c, 9, 38, 110
15, 82912, Note_on_c, 9, 36, 0
15, 82912, Note_on_c, 9, 38, 0
15, 82944, Note_on_c, 9, 36, 110
15, 83104, Note_on_c, 9, 36, 0
15, 83136, Note_on_c, 9, 36, 110
15, 83136, Note_on_c, 9, 38, 110
15, 83296, Note_on_c, 9, 36, 0
15, 83296, Note_on_c, 9, 38, 0
15, 83328, Note_on_c, 9, 36, 110
15, 83488, Note_on_c, 9, 36, 0
15, 83520, Note_on_c, 9, 36, 110
15, 83520, Note_on_c, 9, 38, 110
15, 83680, Note_on_c, 9, 36, 0
15, 83680, Note_on_c, 9, 38, 0
15, 83712, Note_on_c, 9, 36, 110
15, 83872, Note_on_c, 9, 36, 0
15, 83904, Note_on_c, 9, 36, 110
15, 83904, Note_on_c, 9, 38, 110
15, 84064, Note_on_c, 9, 36, 0
15, 84064, Note_on_c, 9, 38, 0
15, 84096, Note_on_c, 9, 36, 110
15, 84256, Note_on_c, 9, 36, 0
15, 84288, Note_on_c, 9, 36, 110
15, 84288, Note_on_c, 9, 38, 110
15, 84448, Note_on_c, 9, 36, 0
15, 84448, Note_on_c, 9, 38, 0
15, 84480, Note_on_c, 9, 36, 110
15, 84640, Note_on_c, 9, 36, 0
15, 84672, Note_on_c, 9, 36, 110
15, 84672, Note_on_c, 9, 38, 110
15, 84832, Note_on_c, 9, 36, 0
15, 84832, Note_on_c, 9, 38, 0
15, 84864, Note_on_c, 9, 36, 110
15, 85024, Note_on_c, 9, 36, 0
15, 85056, Note_on_c, 9, 36, 110
15, 85056, Note_on_c, 9, 38, 110
15, 85216, Note_on_c, 9, 36, 0
15, 85216, Note_on_c, 9, 38, 0
15, 85248, Note_on_c, 9, 36, 110
15, 85408, Note_on_c, 9, 36, 0
15, 85440, Note_on_c, 9, 38, 110
15, 85600, Note_on_c, 9, 38, 0
15, 85632, Note_on_c, 9, 36, 110
15, 85632, Note_on_c, 9, 48, 110
15, 85678, Note_on_c, 9, 36, 0
15, 85678, Note_on_c, 9, 48, 0
15, 85680, Note_on_c, 9, 47, 110
15, 85726, Note_on_c, 9, 47, 0
15, 85728, Note_on_c, 9, 47, 110
15, 85774, Note_on_c, 9, 47, 0
15, 85776, Note_on_c, 9, 36, 110
15, 85822, Note_on_c, 9, 36, 0
15, 85872, Note_on_c, 9, 45, 110
15, 85918, Note_on_c, 9, 45, 0
15, 85920, Note_on_c, 9, 38, 110
15, 85966, Note_on_c, 9, 38, 0
15, 85968, Note_on_c, 9, 41, 110
15, 86014, Note_on_c, 9, 41, 0
15, 86016, Note_on_c, 9, 36, 110
15, 86176, Note_on_c, 9, 36, 0
15, 86208, Note_on_c, 9, 36, 110
15, 86368, Note_on_c, 9, 36, 0
15, 86400, Note_on_c, 9, 36, 110
15, 86560, Note_on_c, 9, 36, 0
15, 86592, Note_on_c, 9, 36, 110
15, 86752, Note_on_c, 9, 36, 0
15, 86784, Note_on_c, 9, 36, 110
15, 86944, Note_on_c, 9, 36, 0
15, 86976, Note_on_c, 9, 36, 110
15, 87136, Note_on_c, 9, 36, 0
15, 87168, Note_on_c, 9, 36, 110
15, 87328, Note_on_c, 9, 36, 0
15, 87360, Note_on_c, 9, 36, 110
15, 87520, Note_on_c, 9, 36, 0
15, 87552, Note_on_c, 9, 36, 110
15, 87712, Note_on_c, 9, 36, 0
15, 87744, Note_on_c, 9, 36, 110
15, 87904, Note_on_c, 9, 36, 0
15, 87936, Note_on_c, 9, 36, 110
15, 88096, Note_on_c, 9, 36, 0
15, 88128, Note_on_c, 9, 36, 110
15, 88288, Note_on_c, 9, 36, 0
15, 88320, Note_on_c, 9, 36, 110
15, 88414, Note_on_c, 9, 36, 0
15, 88416, Note_on_c, 9, 36, 110
15, 88510, Note_on_c, 9, 36, 0
15, 88512, Note_on_c, 9, 36, 110
15, 88606, Note_on_c, 9, 36, 0
15, 88608, Note_on_c, 9, 36, 110
15, 88702, Note_on_c, 9, 36, 0
15, 88704, Note_on_c, 9, 36, 110
15, 88798, Note_on_c, 9, 36, 0
15, 88800, Note_on_c, 9, 36, 110
15, 88894, Note_on_c, 9, 36, 0
15, 88894, End_track
16, 0, Start_track
16, 0, MIDI_port, 0
16, 0, Title_t, "Staff-15"
16, 0, Program_c, 9, 2
16, 0, Pitch_bend_c, 9, 8192
16, 0, Control_c, 9, 7, 127
16, 0, Control_c, 9, 10, 64
16, 7680, Note_on_c, 9, 49, 110
16, 7840, Note_on_c, 9, 49, 0
16, 7872, Note_on_c, 9, 37, 110
16, 8032, Note_on_c, 9, 37, 0
16, 8064, Note_on_c, 9, 37, 110
16, 8224, Note_on_c, 9, 37, 0
16, 8256, Note_on_c, 9, 37, 110
16, 8416, Note_on_c, 9, 37, 0
16, 8448, Note_on_c, 9, 37, 110
16, 8608, Note_on_c, 9, 37, 0
16, 8640, Note_on_c, 9, 37, 110
16, 8800, Note_on_c, 9, 37, 0
16, 8832, Note_on_c, 9, 37, 110
16, 8992, Note_on_c, 9, 37, 0
16, 9024, Note_on_c, 9, 37, 110
16, 9184, Note_on_c, 9, 37, 0
16, 9216, Note_on_c, 9, 37, 110
16, 9376, Note_on_c, 9, 37, 0
16, 9408, Note_on_c, 9, 37, 110
16, 9568, Note_on_c, 9, 37, 0
16, 9600, Note_on_c, 9, 37, 110
16, 9760, Note_on_c, 9, 37, 0
16, 9792, Note_on_c, 9, 37, 110
16, 9952, Note_on_c, 9, 37, 0
16, 9984, Note_on_c, 9, 37, 110
16, 10144, Note_on_c, 9, 37, 0
16, 10176, Note_on_c, 9, 37, 110
16, 10336, Note_on_c, 9, 37, 0
16, 10368, Note_on_c, 9, 37, 110
16, 10528, Note_on_c, 9, 37, 0
16, 10560, Note_on_c, 9, 37, 110
16, 10720, Note_on_c, 9, 37, 0
16, 10752, Note_on_c, 9, 37, 110
16, 10912, Note_on_c, 9, 37, 0
16, 10944, Note_on_c, 9, 37, 110
16, 11104, Note_on_c, 9, 37, 0
16, 11136, Note_on_c, 9, 37, 110
16, 11296, Note_on_c, 9, 37, 0
16, 11328, Note_on_c, 9, 37, 110
16, 11488, Note_on_c, 9, 37, 0
16, 11520, Note_on_c, 9, 37, 110
16, 11680, Note_on_c, 9, 37, 0
16, 11712, Note_on_c, 9, 37, 110
16, 11872, Note_on_c, 9, 37, 0
16, 11904, Note_on_c, 9, 37, 110
16, 12064, Note_on_c, 9, 37, 0
16, 12096, Note_on_c, 9, 37, 110
16, 12256, Note_on_c, 9, 37, 0
16, 12288, Note_on_c, 9, 37, 110
16, 12448, Note_on_c, 9, 37, 0
16, 12480, Note_on_c, 9, 37, 110
16, 12640, Note_on_c, 9, 37, 0
16, 12672, Note_on_c, 9, 37, 110
16, 12832, Note_on_c, 9, 37, 0
16, 12864, Note_on_c, 9, 37, 110
16, 13024, Note_on_c, 9, 37, 0
16, 13056, Note_on_c, 9, 37, 110
16, 13216, Note_on_c, 9, 37, 0
16, 13248, Note_on_c, 9, 37, 110
16, 13408, Note_on_c, 9, 37, 0
16, 13440, Note_on_c, 9, 37, 110
16, 13600, Note_on_c, 9, 37, 0
16, 13632, Note_on_c, 9, 37, 110
16, 13792, Note_on_c, 9, 37, 0
16, 13824, Note_on_c, 9, 42, 110
16, 13870, Note_on_c, 9, 42, 0
16, 13872, Note_on_c, 9, 42, 110
16, 13918, Note_on_c, 9, 42, 0
16, 13920, Note_on_c, 9, 42, 110
16, 13966, Note_on_c, 9, 42, 0
16, 13968, Note_on_c, 9, 42, 110
16, 14014, Note_on_c, 9, 42, 0
16, 14064, Note_on_c, 9, 42, 110
16, 14110, Note_on_c, 9, 42, 0
16, 14112, Note_on_c, 9, 42, 110
16, 14158, Note_on_c, 9, 42, 0
16, 14160, Note_on_c, 9, 42, 110
16, 14206, Note_on_c, 9, 42, 0
16, 14208, Note_on_c, 9, 42, 110
16, 14254, Note_on_c, 9, 42, 0
16, 14256, Note_on_c, 9, 42, 110
16, 14302, Note_on_c, 9, 42, 0
16, 14304, Note_on_c, 9, 42, 110
16, 14350, Note_on_c, 9, 42, 0
16, 14352, Note_on_c, 9, 42, 110
16, 14398, Note_on_c, 9, 42, 0
16, 14448, Note_on_c, 9, 42, 110
16, 14494, Note_on_c, 9, 42, 0
16, 14496, Note_on_c, 9, 42, 110
16, 14542, Note_on_c, 9, 42, 0
16, 14544, Note_on_c, 9, 42, 110
16, 14590, Note_on_c, 9, 42, 0
16, 14592, Note_on_c, 9, 42, 110
16, 14638, Note_on_c, 9, 42, 0
16, 14640, Note_on_c, 9, 42, 110
16, 14686, Note_on_c, 9, 42, 0
16, 14688, Note_on_c, 9, 42, 110
16, 14734, Note_on_c, 9, 42, 0
16, 14736, Note_on_c, 9, 42, 110
16, 14782, Note_on_c, 9, 42, 0
16, 14832, Note_on_c, 9, 42, 110
16, 14878, Note_on_c, 9, 42, 0
16, 14880, Note_on_c, 9, 42, 110
16, 14926, Note_on_c, 9, 42, 0
16, 14928, Note_on_c, 9, 42, 110
16, 14974, Note_on_c, 9, 42, 0
16, 14976, Note_on_c, 9, 42, 110
16, 15022, Note_on_c, 9, 42, 0
16, 15024, Note_on_c, 9, 42, 110
16, 15070, Note_on_c, 9, 42, 0
16, 15072, Note_on_c, 9, 42, 110
16, 15118, Note_on_c, 9, 42, 0
16, 15120, Note_on_c, 9, 42, 110
16, 15166, Note_on_c, 9, 42, 0
16, 15216, Note_on_c, 9, 42, 110
16, 15262, Note_on_c, 9, 42, 0
16, 15264, Note_on_c, 9, 42, 110
16, 15310, Note_on_c, 9, 42, 0
16, 15312, Note_on_c, 9, 42, 110
16, 15358, Note_on_c, 9, 42, 0
16, 15360, Note_on_c, 9, 42, 110
16, 15406, Note_on_c, 9, 42, 0
16, 15408, Note_on_c, 9, 42, 110
16, 15454, Note_on_c, 9, 42, 0
16, 15456, Note_on_c, 9, 42, 110
16, 15502, Note_on_c, 9, 42, 0
16, 15504, Note_on_c, 9, 42, 110
16, 15550, Note_on_c, 9, 42, 0
16, 15600, Note_on_c, 9, 42, 110
16, 15646, Note_on_c, 9, 42, 0
16, 15648, Note_on_c, 9, 42, 110
16, 15694, Note_on_c, 9, 42, 0
16, 15696, Note_on_c, 9, 42, 110
16, 15742, Note_on_c, 9, 42, 0
16, 15744, Note_on_c, 9, 42, 110
16, 15790, Note_on_c, 9, 42, 0
16, 15792, Note_on_c, 9, 42, 110
16, 15838, Note_on_c, 9, 42, 0
16, 15840, Note_on_c, 9, 42, 110
16, 15886, Note_on_c, 9, 42, 0
16, 15888, Note_on_c, 9, 42, 110
16, 15934, Note_on_c, 9, 42, 0
16, 15984, Note_on_c, 9, 42, 110
16, 16030, Note_on_c, 9, 42, 0
16, 16032, Note_on_c, 9, 42, 110
16, 16078, Note_on_c, 9, 42, 0
16, 16080, Note_on_c, 9, 42, 110
16, 16126, Note_on_c, 9, 42, 0
16, 16128, Note_on_c, 9, 42, 110
16, 16174, Note_on_c, 9, 42, 0
16, 16176, Note_on_c, 9, 42, 110
16, 16222, Note_on_c, 9, 42, 0
16, 16224, Note_on_c, 9, 42, 110
16, 16270, Note_on_c, 9, 42, 0
16, 16272, Note_on_c, 9, 42, 110
16, 16318, Note_on_c, 9, 42, 0
16, 16368, Note_on_c, 9, 42, 110
16, 16414, Note_on_c, 9, 42, 0
16, 16416, Note_on_c, 9, 42, 110
16, 16462, Note_on_c, 9, 42, 0
16, 16464, Note_on_c, 9, 42, 110
16, 16510, Note_on_c, 9, 42, 0
16, 16512, Note_on_c, 9, 42, 110
16, 16558, Note_on_c, 9, 42, 0
16, 16560, Note_on_c, 9, 42, 110
16, 16606, Note_on_c, 9, 42, 0
16, 16608, Note_on_c, 9, 42, 110
16, 16654, Note_on_c, 9, 42, 0
16, 16656, Note_on_c, 9, 42, 110
16, 16702, Note_on_c, 9, 42, 0
16, 16752, Note_on_c, 9, 42, 110
16, 16798, Note_on_c, 9, 42, 0
16, 16800, Note_on_c, 9, 42, 110
16, 16846, Note_on_c, 9, 42, 0
16, 16848, Note_on_c, 9, 42, 110
16, 16894, Note_on_c, 9, 42, 0
16, 16896, Note_on_c, 9, 42, 110
16, 16942, Note_on_c, 9, 42, 0
16, 16944, Note_on_c, 9, 42, 110
16, 16990, Note_on_c, 9, 42, 0
16, 16992, Note_on_c, 9, 42, 110
16, 17038, Note_on_c, 9, 42, 0
16, 17040, Note_on_c, 9, 42, 110
16, 17086, Note_on_c, 9, 42, 0
16, 17136, Note_on_c, 9, 42, 110
16, 17182, Note_on_c, 9, 42, 0
16, 17184, Note_on_c, 9, 42, 110
16, 17230, Note_on_c, 9, 42, 0
16, 17232, Note_on_c, 9, 42, 110
16, 17278, Note_on_c, 9, 42, 0
16, 17280, Note_on_c, 9, 42, 110
16, 17326, Note_on_c, 9, 42, 0
16, 17328, Note_on_c, 9, 42, 110
16, 17374, Note_on_c, 9, 42, 0
16, 17376, Note_on_c, 9, 42, 110
16, 17422, Note_on_c, 9, 42, 0
16, 17424, Note_on_c, 9, 42, 110
16, 17470, Note_on_c, 9, 42, 0
16, 17520, Note_on_c, 9, 42, 110
16, 17566, Note_on_c, 9, 42, 0
16, 17568, Note_on_c, 9, 42, 110
16, 17614, Note_on_c, 9, 42, 0
16, 17616, Note_on_c, 9, 42, 110
16, 17662, Note_on_c, 9, 42, 0
16, 17664, Note_on_c, 9, 42, 110
16, 17710, Note_on_c, 9, 42, 0
16, 17712, Note_on_c, 9, 42, 110
16, 17758, Note_on_c, 9, 42, 0
16, 17760, Note_on_c, 9, 42, 110
16, 17806, Note_on_c, 9, 42, 0
16, 17808, Note_on_c, 9, 42, 110
16, 17854, Note_on_c, 9, 42, 0
16, 17904, Note_on_c, 9, 42, 110
16, 17950, Note_on_c, 9, 42, 0
16, 17952, Note_on_c, 9, 42, 110
16, 17998, Note_on_c, 9, 42, 0
16, 18000, Note_on_c, 9, 42, 110
16, 18046, Note_on_c, 9, 42, 0
16, 18048, Note_on_c, 9, 42, 110
16, 18094, Note_on_c, 9, 42, 0
16, 18096, Note_on_c, 9, 42, 110
16, 18142, Note_on_c, 9, 42, 0
16, 18144, Note_on_c, 9, 42, 110
16, 18190, Note_on_c, 9, 42, 0
16, 18192, Note_on_c, 9, 42, 110
16, 18238, Note_on_c, 9, 42, 0
16, 18288, Note_on_c, 9, 42, 110
16, 18334, Note_on_c, 9, 42, 0
16, 18336, Note_on_c, 9, 42, 110
16, 18382, Note_on_c, 9, 42, 0
16, 18384, Note_on_c, 9, 42, 110
16, 18430, Note_on_c, 9, 42, 0
16, 18432, Note_on_c, 9, 42, 110
16, 18478, Note_on_c, 9, 42, 0
16, 18480, Note_on_c, 9, 42, 110
16, 18526, Note_on_c, 9, 42, 0
16, 18528, Note_on_c, 9, 42, 110
16, 18574, Note_on_c, 9, 42, 0
16, 18576, Note_on_c, 9, 42, 110
16, 18622, Note_on_c, 9, 42, 0
16, 18672, Note_on_c, 9, 42, 110
16, 18718, Note_on_c, 9, 42, 0
16, 18720, Note_on_c, 9, 42, 110
16, 18766, Note_on_c, 9, 42, 0
16, 18768, Note_on_c, 9, 42, 110
16, 18814, Note_on_c, 9, 42, 0
16, 18816, Note_on_c, 9, 42, 110
16, 18862, Note_on_c, 9, 42, 0
16, 18864, Note_on_c, 9, 42, 110
16, 18910, Note_on_c, 9, 42, 0
16, 18912, Note_on_c, 9, 42, 110
16, 18958, Note_on_c, 9, 42, 0
16, 18960, Note_on_c, 9, 42, 110
16, 19006, Note_on_c, 9, 42, 0
16, 19056, Note_on_c, 9, 42, 110
16, 19102, Note_on_c, 9, 42, 0
16, 19104, Note_on_c, 9, 42, 110
16, 19150, Note_on_c, 9, 42, 0
16, 19152, Note_on_c, 9, 42, 110
16, 19198, Note_on_c, 9, 42, 0
16, 19200, Note_on_c, 9, 42, 110
16, 19920, Note_on_c, 9, 42, 0
16, 19968, Note_on_c, 9, 49, 110
16, 20688, Note_on_c, 9, 49, 0
16, 23040, Note_on_c, 9, 49, 110
16, 23760, Note_on_c, 9, 49, 0
16, 26112, Note_on_c, 9, 49, 110
16, 26832, Note_on_c, 9, 49, 0
16, 29184, Note_on_c, 9, 49, 110
16, 29904, Note_on_c, 9, 49, 0
16, 32256, Note_on_c, 9, 49, 110
16, 32350, Note_on_c, 9, 49, 0
16, 32352, Note_on_c, 9, 53, 110
16, 32446, Note_on_c, 9, 53, 0
16, 32544, Note_on_c, 9, 53, 110
16, 32638, Note_on_c, 9, 53, 0
16, 32736, Note_on_c, 9, 53, 110
16, 32830, Note_on_c, 9, 53, 0
16, 32928, Note_on_c, 9, 53, 110
16, 33022, Note_on_c, 9, 53, 0
16, 33120, Note_on_c, 9, 53, 110
16, 33214, Note_on_c, 9, 53, 0
16, 33312, Note_on_c, 9, 53, 110
16, 33406, Note_on_c, 9, 53, 0
16, 33504, Note_on_c, 9, 53, 110
16, 33598, Note_on_c, 9, 53, 0
16, 33696, Note_on_c, 9, 53, 110
16, 33790, Note_on_c, 9, 53, 0
16, 33888, Note_on_c, 9, 53, 110
16, 33982, Note_on_c, 9, 53, 0
16, 34080, Note_on_c, 9, 53, 110
16, 34174, Note_on_c, 9, 53, 0
16, 34272, Note_on_c, 9, 53, 110
16, 34366, Note_on_c, 9, 53, 0
16, 34464, Note_on_c, 9, 53, 110
16, 34558, Note_on_c, 9, 53, 0
16, 34656, Note_on_c, 9, 53, 110
16, 34750, Note_on_c, 9, 53, 0
16, 34848, Note_on_c, 9, 53, 110
16, 34942, Note_on_c, 9, 53, 0
16, 35040, Note_on_c, 9, 53, 110
16, 35134, Note_on_c, 9, 53, 0
16, 35232, Note_on_c, 9, 53, 110
16, 35326, Note_on_c, 9, 53, 0
16, 35328, Note_on_c, 9, 49, 110
16, 35422, Note_on_c, 9, 49, 0
16, 35424, Note_on_c, 9, 53, 110
16, 35518, Note_on_c, 9, 53, 0
16, 35616, Note_on_c, 9, 53, 110
16, 35710, Note_on_c, 9, 53, 0
16, 35808, Note_on_c, 9, 53, 110
16, 35902, Note_on_c, 9, 53, 0
16, 36000, Note_on_c, 9, 53, 110
16, 36094, Note_on_c, 9, 53, 0
16, 36192, Note_on_c, 9, 53, 110
16, 36286, Note_on_c, 9, 53, 0
16, 36384, Note_on_c, 9, 53, 110
16, 36478, Note_on_c, 9, 53, 0
16, 36576, Note_on_c, 9, 53, 110
16, 36670, Note_on_c, 9, 53, 0
16, 36768, Note_on_c, 9, 53, 110
16, 36862, Note_on_c, 9, 53, 0
16, 36960, Note_on_c, 9, 53, 110
16, 37054, Note_on_c, 9, 53, 0
16, 37152, Note_on_c, 9, 53, 110
16, 37246, Note_on_c, 9, 53, 0
16, 37344, Note_on_c, 9, 53, 110
16, 37438, Note_on_c, 9, 53, 0
16, 37536, Note_on_c, 9, 53, 110
16, 37630, Note_on_c, 9, 53, 0
16, 37728, Note_on_c, 9, 53, 110
16, 37822, Note_on_c, 9, 53, 0
16, 37920, Note_on_c, 9, 53, 110
16, 38014, Note_on_c, 9, 53, 0
16, 38112, Note_on_c, 9, 53, 110
16, 38206, Note_on_c, 9, 53, 0
16, 38304, Note_on_c, 9, 53, 110
16, 38398, Note_on_c, 9, 53, 0
16, 38400, Note_on_c, 9, 49, 110
16, 39120, Note_on_c, 9, 49, 0
16, 41472, Note_on_c, 9, 49, 110
16, 41632, Note_on_c, 9, 49, 0
16, 41664, Note_on_c, 9, 37, 110
16, 41824, Note_on_c, 9, 37, 0
16, 41856, Note_on_c, 9, 37, 110
16, 42016, Note_on_c, 9, 37, 0
16, 42048, Note_on_c, 9, 37, 110
16, 42208, Note_on_c, 9, 37, 0
16, 42240, Note_on_c, 9, 37, 110
16, 42400, Note_on_c, 9, 37, 0
16, 42432, Note_on_c, 9, 37, 110
16, 42592, Note_on_c, 9, 37, 0
16, 42624, Note_on_c, 9, 37, 110
16, 42784, Note_on_c, 9, 37, 0
16, 42816, Note_on_c, 9, 37, 110
16, 42976, Note_on_c, 9, 37, 0
16, 43008, Note_on_c, 9, 37, 110
16, 43168, Note_on_c, 9, 37, 0
16, 43200, Note_on_c, 9, 37, 110
16, 43360, Note_on_c, 9, 37, 0
16, 43392, Note_on_c, 9, 37, 110
16, 43552, Note_on_c, 9, 37, 0
16, 43584, Note_on_c, 9, 37, 110
16, 43744, Note_on_c, 9, 37, 0
16, 43776, Note_on_c, 9, 37, 110
16, 43936, Note_on_c, 9, 37, 0
16, 43968, Note_on_c, 9, 37, 110
16, 44128, Note_on_c, 9, 37, 0
16, 44160, Note_on_c, 9, 37, 110
16, 44320, Note_on_c, 9, 37, 0
16, 44352, Note_on_c, 9, 37, 110
16, 44512, Note_on_c, 9, 37, 0
16, 44544, Note_on_c, 9, 37, 110
16, 44704, Note_on_c, 9, 37, 0
16, 44736, Note_on_c, 9, 37, 110
16, 44896, Note_on_c, 9, 37, 0
16, 44928, Note_on_c, 9, 37, 110
16, 45088, Note_on_c, 9, 37, 0
16, 45120, Note_on_c, 9, 37, 110
16, 45280, Note_on_c, 9, 37, 0
16, 45312, Note_on_c, 9, 37, 110
16, 45472, Note_on_c, 9, 37, 0
16, 45504, Note_on_c, 9, 37, 110
16, 45664, Note_on_c, 9, 37, 0
16, 45696, Note_on_c, 9, 37, 110
16, 45856, Note_on_c, 9, 37, 0
16, 45888, Note_on_c, 9, 37, 110
16, 46048, Note_on_c, 9, 37, 0
16, 46080, Note_on_c, 9, 37, 110
16, 46240, Note_on_c, 9, 37, 0
16, 46272, Note_on_c, 9, 37, 110
16, 46432, Note_on_c, 9, 37, 0
16, 46464, Note_on_c, 9, 37, 110
16, 46624, Note_on_c, 9, 37, 0
16, 46656, Note_on_c, 9, 37, 110
16, 46816, Note_on_c, 9, 37, 0
16, 46848, Note_on_c, 9, 37, 110
16, 47008, Note_on_c, 9, 37, 0
16, 47040, Note_on_c, 9, 37, 110
16, 47200, Note_on_c, 9, 37, 0
16, 47232, Note_on_c, 9, 37, 110
16, 47392, Note_on_c, 9, 37, 0
16, 47424, Note_on_c, 9, 37, 110
16, 47584, Note_on_c, 9, 37, 0
16, 47616, Note_on_c, 9, 42, 110
16, 47662, Note_on_c, 9, 42, 0
16, 47664, Note_on_c, 9, 42, 110
16, 47710, Note_on_c, 9, 42, 0
16, 47712, Note_on_c, 9, 42, 110
16, 47758, Note_on_c, 9, 42, 0
16, 47760, Note_on_c, 9, 42, 110
16, 47806, Note_on_c, 9, 42, 0
16, 47856, Note_on_c, 9, 42, 110
16, 47902, Note_on_c, 9, 42, 0
16, 47904, Note_on_c, 9, 42, 110
16, 47950, Note_on_c, 9, 42, 0
16, 47952, Note_on_c, 9, 42, 110
16, 47998, Note_on_c, 9, 42, 0
16, 48000, Note_on_c, 9, 42, 110
16, 48046, Note_on_c, 9, 42, 0
16, 48048, Note_on_c, 9, 42, 110
16, 48094, Note_on_c, 9, 42, 0
16, 48096, Note_on_c, 9, 42, 110
16, 48142, Note_on_c, 9, 42, 0
16, 48144, Note_on_c, 9, 42, 110
16, 48190, Note_on_c, 9, 42, 0
16, 48240, Note_on_c, 9, 42, 110
16, 48286, Note_on_c, 9, 42, 0
16, 48288, Note_on_c, 9, 42, 110
16, 48334, Note_on_c, 9, 42, 0
16, 48336, Note_on_c, 9, 42, 110
16, 48382, Note_on_c, 9, 42, 0
16, 48384, Note_on_c, 9, 42, 110
16, 48430, Note_on_c, 9, 42, 0
16, 48432, Note_on_c, 9, 42, 110
16, 48478, Note_on_c, 9, 42, 0
16, 48480, Note_on_c, 9, 42, 110
16, 48526, Note_on_c, 9, 42, 0
16, 48528, Note_on_c, 9, 42, 110
16, 48574, Note_on_c, 9, 42, 0
16, 48624, Note_on_c, 9, 42, 110
16, 48670, Note_on_c, 9, 42, 0
16, 48672, Note_on_c, 9, 42, 110
16, 48718, Note_on_c, 9, 42, 0
16, 48720, Note_on_c, 9, 42, 110
16, 48766, Note_on_c, 9, 42, 0
16, 48768, Note_on_c, 9, 42, 110
16, 48814, Note_on_c, 9, 42, 0
16, 48816, Note_on_c, 9, 42, 110
16, 48862, Note_on_c, 9, 42, 0
16, 48864, Note_on_c, 9, 42, 110
16, 48910, Note_on_c, 9, 42, 0
16, 48912, Note_on_c, 9, 42, 110
16, 48958, Note_on_c, 9, 42, 0
16, 49008, Note_on_c, 9, 42, 110
16, 49054, Note_on_c, 9, 42, 0
16, 49056, Note_on_c, 9, 42, 110
16, 49102, Note_on_c, 9, 42, 0
16, 49104, Note_on_c, 9, 42, 110
16, 49150, Note_on_c, 9, 42, 0
16, 49152, Note_on_c, 9, 42, 110
16, 49198, Note_on_c, 9, 42, 0
16, 49200, Note_on_c, 9, 42, 110
16, 49246, Note_on_c, 9, 42, 0
16, 49248, Note_on_c, 9, 42, 110
16, 49294, Note_on_c, 9, 42, 0
16, 49296, Note_on_c, 9, 42, 110
16, 49342, Note_on_c, 9, 42, 0
16, 49392, Note_on_c, 9, 42, 110
16, 49438, Note_on_c, 9, 42, 0
16, 49440, Note_on_c, 9, 42, 110
16, 49486, Note_on_c, 9, 42, 0
16, 49488, Note_on_c, 9, 42, 110
16, 49534, Note_on_c, 9, 42, 0
16, 49536, Note_on_c, 9, 42, 110
16, 49582, Note_on_c, 9, 42, 0
16, 49584, Note_on_c, 9, 42, 110
16, 49630, Note_on_c, 9, 42, 0
16, 49632, Note_on_c, 9, 42, 110
16, 49678, Note_on_c, 9, 42, 0
16, 49680, Note_on_c, 9, 42, 110
16, 49726, Note_on_c, 9, 42, 0
16, 49776, Note_on_c, 9, 42, 110
16, 49822, Note_on_c, 9, 42, 0
16, 49824, Note_on_c, 9, 42, 110
16, 49870, Note_on_c, 9, 42, 0
16, 49872, Note_on_c, 9, 42, 110
16, 49918, Note_on_c, 9, 42, 0
16, 49920, Note_on_c, 9, 42, 110
16, 49966, Note_on_c, 9, 42, 0
16, 49968, Note_on_c, 9, 42, 110
16, 50014, Note_on_c, 9, 42, 0
16, 50016, Note_on_c, 9, 42, 110
16, 50062, Note_on_c, 9, 42, 0
16, 50064, Note_on_c, 9, 42, 110
16, 50110, Note_on_c, 9, 42, 0
16, 50160, Note_on_c, 9, 42, 110
16, 50206, Note_on_c, 9, 42, 0
16, 50208, Note_on_c, 9, 42, 110
16, 50254, Note_on_c, 9, 42, 0
16, 50256, Note_on_c, 9, 42, 110
16, 50302, Note_on_c, 9, 42, 0
16, 50304, Note_on_c, 9, 42, 110
16, 50350, Note_on_c, 9, 42, 0
16, 50352, Note_on_c, 9, 42, 110
16, 50398, Note_on_c, 9, 42, 0
16, 50400, Note_on_c, 9, 42, 110
16, 50446, Note_on_c, 9, 42, 0
16, 50448, Note_on_c, 9, 42, 110
16, 50494, Note_on_c, 9, 42, 0
16, 50544, Note_on_c, 9, 42, 110
16, 50590, Note_on_c, 9, 42, 0
16, 50592, Note_on_c, 9, 42, 110
16, 50638, Note_on_c, 9, 42, 0
16, 50640, Note_on_c, 9, 42, 110
16, 50686, Note_on_c, 9, 42, 0
16, 50688, Note_on_c, 9, 42, 110
16, 50734, Note_on_c, 9, 42, 0
16, 50736, Note_on_c, 9, 42, 110
16, 50782, Note_on_c, 9, 42, 0
16, 50784, Note_on_c, 9, 42, 110
16, 50830, Note_on_c, 9, 42, 0
16, 50832, Note_on_c, 9, 42, 110
16, 50878, Note_on_c, 9, 42, 0
16, 50928, Note_on_c, 9, 42, 110
16, 50974, Note_on_c, 9, 42, 0
16, 50976, Note_on_c, 9, 42, 110
16, 51022, Note_on_c, 9, 42, 0
16, 51024, Note_on_c, 9, 42, 110
16, 51070, Note_on_c, 9, 42, 0
16, 51072, Note_on_c, 9, 42, 110
16, 51118, Note_on_c, 9, 42, 0
16, 51120, Note_on_c, 9, 42, 110
16, 51166, Note_on_c, 9, 42, 0
16, 51168, Note_on_c, 9, 42, 110
16, 51214, Note_on_c, 9, 42, 0
16, 51216, Note_on_c, 9, 42, 110
16, 51262, Note_on_c, 9, 42, 0
16, 51312, Note_on_c, 9, 42, 110
16, 51358, Note_on_c, 9, 42, 0
16, 51360, Note_on_c, 9, 42, 110
16, 51406, Note_on_c, 9, 42, 0
16, 51408, Note_on_c, 9, 42, 110
16, 51454, Note_on_c, 9, 42, 0
16, 51456, Note_on_c, 9, 42, 110
16, 51502, Note_on_c, 9, 42, 0
16, 51504, Note_on_c, 9, 42, 110
16, 51550, Note_on_c, 9, 42, 0
16, 51552, Note_on_c, 9, 42, 110
16, 51598, Note_on_c, 9, 42, 0
16, 51600, Note_on_c, 9, 42, 110
16, 51646, Note_on_c, 9, 42, 0
16, 51696, Note_on_c, 9, 42, 110
16, 51742, Note_on_c, 9, 42, 0
16, 51744, Note_on_c, 9, 42, 110
16, 51790, Note_on_c, 9, 42, 0
16, 51792, Note_on_c, 9, 42, 110
16, 51838, Note_on_c, 9, 42, 0
16, 51840, Note_on_c, 9, 42, 110
16, 51886, Note_on_c, 9, 42, 0
16, 51888, Note_on_c, 9, 42, 110
16, 51934, Note_on_c, 9, 42, 0
16, 51936, Note_on_c, 9, 42, 110
16, 51982, Note_on_c, 9, 42, 0
16, 51984, Note_on_c, 9, 42, 110
16, 52030, Note_on_c, 9, 42, 0
16, 52080, Note_on_c, 9, 42, 110
16, 52126, Note_on_c, 9, 42, 0
16, 52128, Note_on_c, 9, 42, 110
16, 52174, Note_on_c, 9, 42, 0
16, 52176, Note_on_c, 9, 42, 110
16, 52222, Note_on_c, 9, 42, 0
16, 52224, Note_on_c, 9, 42, 110
16, 52270, Note_on_c, 9, 42, 0
16, 52272, Note_on_c, 9, 42, 110
16, 52318, Note_on_c, 9, 42, 0
16, 52320, Note_on_c, 9, 42, 110
16, 52366, Note_on_c, 9, 42, 0
16, 52368, Note_on_c, 9, 42, 110
16, 52414, Note_on_c, 9, 42, 0
16, 52464, Note_on_c, 9, 42, 110
16, 52510, Note_on_c, 9, 42, 0
16, 52512, Note_on_c, 9, 42, 110
16, 52558, Note_on_c, 9, 42, 0
16, 52560, Note_on_c, 9, 42, 110
16, 52606, Note_on_c, 9, 42, 0
16, 52608, Note_on_c, 9, 42, 110
16, 52654, Note_on_c, 9, 42, 0
16, 52656, Note_on_c, 9, 42, 110
16, 52702, Note_on_c, 9, 42, 0
16, 52704, Note_on_c, 9, 42, 110
16, 52750, Note_on_c, 9, 42, 0
16, 52752, Note_on_c, 9, 42, 110
16, 52798, Note_on_c, 9, 42, 0
16, 52848, Note_on_c, 9, 42, 110
16, 52894, Note_on_c, 9, 42, 0
16, 52896, Note_on_c, 9, 42, 110
16, 52942, Note_on_c, 9, 42, 0
16, 52944, Note_on_c, 9, 42, 110
16, 52990, Note_on_c, 9, 42, 0
16, 52992, Note_on_c, 9, 42, 110
16, 53712, Note_on_c, 9, 42, 0
16, 53760, Note_on_c, 9, 49, 110
16, 54480, Note_on_c, 9, 49, 0
16, 56832, Note_on_c, 9, 49, 110
16, 57552, Note_on_c, 9, 49, 0
16, 59904, Note_on_c, 9, 49, 110
16, 60624, Note_on_c, 9, 49, 0
16, 62976, Note_on_c, 9, 49, 110
16, 63696, Note_on_c, 9, 49, 0
16, 66048, Note_on_c, 9, 49, 110
16, 66768, Note_on_c, 9, 49, 0
16, 69120, Note_on_c, 9, 49, 110
16, 69840, Note_on_c, 9, 49, 0
16, 72960, Note_on_c, 9, 36, 110
16, 73120, Note_on_c, 9, 36, 0
16, 73152, Note_on_c, 9, 36, 110
16, 73312, Note_on_c, 9, 36, 0
16, 73344, Note_on_c, 9, 36, 110
16, 73504, Note_on_c, 9, 36, 0
16, 73536, Note_on_c, 9, 36, 110
16, 73696, Note_on_c, 9, 36, 0
16, 73728, Note_on_c, 9, 49, 110
16, 74448, Note_on_c, 9, 49, 0
16, 76800, Note_on_c, 9, 49, 110
16, 77520, Note_on_c, 9, 49, 0
16, 79104, Note_on_c, 9, 36, 110
16, 79264, Note_on_c, 9, 36, 0
16, 79296, Note_on_c, 9, 36, 110
16, 79456, Note_on_c, 9, 36, 0
16, 79488, Note_on_c, 9, 36, 110
16, 79648, Note_on_c, 9, 36, 0
16, 79680, Note_on_c, 9, 36, 110
16, 79840, Note_on_c, 9, 36, 0
16, 79872, Note_on_c, 9, 49, 110
16, 79966, Note_on_c, 9, 49, 0
16, 79968, Note_on_c, 9, 53, 110
16, 80062, Note_on_c, 9, 53, 0
16, 80160, Note_on_c, 9, 53, 110
16, 80254, Note_on_c, 9, 53, 0
16, 80352, Note_on_c, 9, 53, 110
16, 80446, Note_on_c, 9, 53, 0
16, 80544, Note_on_c, 9, 53, 110
16, 80638, Note_on_c, 9, 53, 0
16, 80736, Note_on_c, 9, 53, 110
16, 80830, Note_on_c, 9, 53, 0
16, 80928, Note_on_c, 9, 53, 110
16, 81022, Note_on_c, 9, 53, 0
16, 81120, Note_on_c, 9, 53, 110
16, 81214, Note_on_c, 9, 53, 0
16, 81312, Note_on_c, 9, 53, 110
16, 81406, Note_on_c, 9, 53, 0
16, 81504, Note_on_c, 9, 53, 110
16, 81598, Note_on_c, 9, 53, 0
16, 81696, Note_on_c, 9, 53, 110
16, 81790, Note_on_c, 9, 53, 0
16, 81888, Note_on_c, 9, 53, 110
16, 81982, Note_on_c, 9, 53, 0
16, 82080, Note_on_c, 9, 53, 110
16, 82174, Note_on_c, 9, 53, 0
16, 82272, Note_on_c, 9, 53, 110
16, 82366, Note_on_c, 9, 53, 0
16, 82464, Note_on_c, 9, 53, 110
16, 82558, Note_on_c, 9, 53, 0
16, 82656, Note_on_c, 9, 53, 110
16, 82750, Note_on_c, 9, 53, 0
16, 82848, Note_on_c, 9, 53, 110
16, 82942, Note_on_c, 9, 53, 0
16, 82944, Note_on_c, 9, 49, 110
16, 83038, Note_on_c, 9, 49, 0
16, 83040, Note_on_c, 9, 53, 110
16, 83134, Note_on_c, 9, 53, 0
16, 83232, Note_on_c, 9, 53, 110
16, 83326, Note_on_c, 9, 53, 0
16, 83424, Note_on_c, 9, 53, 110
16, 83518, Note_on_c, 9, 53, 0
16, 83616, Note_on_c, 9, 53, 110
16, 83710, Note_on_c, 9, 53, 0
16, 83808, Note_on_c, 9, 53, 110
16, 83902, Note_on_c, 9, 53, 0
16, 84000, Note_on_c, 9, 53, 110
16, 84094, Note_on_c, 9, 53, 0
16, 84192, Note_on_c, 9, 53, 110
16, 84286, Note_on_c, 9, 53, 0
16, 84384, Note_on_c, 9, 53, 110
16, 84478, Note_on_c, 9, 53, 0
16, 84576, Note_on_c, 9, 53, 110
16, 84670, Note_on_c, 9, 53, 0
16, 84768, Note_on_c, 9, 53, 110
16, 84862, Note_on_c, 9, 53, 0
16, 84960, Note_on_c, 9, 53, 110
16, 85054, Note_on_c, 9, 53, 0
16, 85152, Note_on_c, 9, 53, 110
16, 85246, Note_on_c, 9, 53, 0
16, 85344, Note_on_c, 9, 53, 110
16, 85438, Note_on_c, 9, 53, 0
16, 85536, Note_on_c, 9, 53, 110
16, 85630, Note_on_c, 9, 53, 0
16, 85824, Note_on_c, 9, 53, 110
16, 85984, Note_on_c, 9, 53, 0
16, 86016, Note_on_c, 9, 49, 110
16, 86736, Note_on_c, 9, 49, 0
16, 86736, End_track
0, 0, End_of_file
